<svg id="svg" xmlns="http://www.w3.org/2000/svg" xmlns:xlink="http://www.w3.org/1999/xlink" width="400" height="400" viewBox="0, 0, 400,400"><g id="svgg"><path id="path0" d="M124.457 58.603 C 97.256 63.137,87.328 98.268,107.398 118.966 L 113.012 124.756 112.056 133.311 C 109.340 157.616,114.695 178.936,127.846 196.173 C 133.291 203.312,133.293 203.234,127.655 207.592 C 95.334 232.574,86.624 253.603,102.615 268.049 L 105.919 271.035 103.422 274.926 C 90.759 294.660,91.809 315.266,106.219 329.809 C 121.185 344.913,140.936 345.473,155.668 331.209 L 160.234 326.789 172.502 328.132 C 190.974 330.155,213.913 329.909,227.655 327.541 L 238.477 325.677 244.213 331.185 C 274.221 360.000,318.074 323.655,301.755 283.494 C 300.654 280.783,298.681 277.232,297.371 275.602 C 294.257 271.727,294.343 271.075,298.493 267.120 C 306.260 259.718,307.435 249.710,301.862 238.437 C 298.391 231.414,281.773 213.819,272.375 207.214 C 266.808 203.302,266.795 203.126,271.588 196.505 C 285.785 176.889,290.687 157.850,287.789 133.576 C 286.739 124.782,287.201 123.388,293.010 117.836 C 317.903 94.040,296.597 53.189,262.041 58.460 C 253.251 59.801,248.715 62.359,241.794 69.881 L 235.854 76.336 226.745 74.046 C 213.046 70.601,186.948 70.603,173.243 74.049 L 164.120 76.342 158.540 70.226 C 148.724 59.468,139.053 56.170,124.457 58.603 M142.239 69.703 C 146.858 71.956,154.328 78.832,153.540 80.107 C 153.243 80.588,149.687 83.191,145.638 85.890 C 133.534 93.960,126.978 99.897,121.832 107.447 C 117.228 114.204,116.893 114.359,113.447 111.333 C 92.738 93.150,117.350 57.563,142.239 69.703 M278.728 69.710 C 294.617 76.572,299.221 100.091,286.972 111.826 C 283.874 114.794,283.392 114.524,276.540 105.987 C 270.336 98.258,263.541 92.196,253.707 85.617 C 249.739 82.963,246.376 80.683,246.233 80.550 C 245.592 79.955,248.687 75.333,251.073 73.321 C 258.215 67.299,269.679 65.802,278.728 69.710 M220.040 82.547 C 247.290 87.943,270.868 106.360,276.506 126.653 C 290.079 175.510,254.617 218.211,200.401 218.294 C 150.451 218.372,116.063 183.926,121.029 138.792 C 125.467 98.465,170.690 72.774,220.040 82.547 M150.979 141.007 C 140.614 145.772,139.931 164.852,149.878 171.768 C 152.938 173.896,158.098 173.564,161.090 171.047 C 173.584 160.534,164.863 134.624,150.979 141.007 M241.683 140.611 C 228.585 146.432,231.077 173.155,244.717 173.143 C 258.578 173.131,262.086 146.958,249.021 141.026 C 245.086 139.239,244.805 139.223,241.683 140.611 M191.974 157.755 C 173.436 164.165,163.090 181.670,169.921 195.064 C 175.327 205.661,189.299 211.083,197.162 205.634 L 200.352 203.423 202.843 205.519 C 204.213 206.672,206.117 207.664,207.076 207.724 C 230.132 209.160,240.946 184.032,224.395 167.481 C 215.222 158.309,201.916 154.317,191.974 157.755 M207.225 161.928 C 230.016 169.769,236.189 191.112,218.587 201.207 C 207.630 207.492,197.819 200.851,205.863 192.595 C 213.417 184.843,216.385 174.727,211.956 171.826 C 207.127 168.661,189.721 169.754,187.181 173.381 C 183.974 177.958,188.553 189.084,195.379 193.303 C 202.386 197.634,193.839 206.407,185.657 203.282 C 170.972 197.673,167.472 183.105,178.108 171.858 C 187.622 161.798,197.277 158.505,207.225 161.928 M145.936 213.256 C 152.303 217.580,152.596 215.763,140.671 245.892 L 135.198 259.719 128.930 259.719 C 124.603 259.719,121.357 260.216,118.445 261.322 C 112.864 263.444,111.978 263.364,108.655 260.447 C 98.648 251.660,107.748 234.651,132.265 216.319 C 142.203 208.887,140.172 209.342,145.936 213.256 M262.781 212.565 C 273.349 219.733,288.964 234.741,292.954 241.564 C 300.807 254.995,292.975 265.250,277.817 261.384 C 274.227 260.468,270.220 259.714,268.912 259.707 C 267.604 259.700,266.095 259.416,265.559 259.076 C 263.280 257.628,246.637 217.189,248.115 216.691 C 248.545 216.546,251.062 214.987,253.707 213.226 C 259.445 209.408,258.255 209.494,262.781 212.565 M171.142 224.000 C 189.806 229.057,209.321 229.010,229.439 223.862 C 237.197 221.876,238.158 221.782,239.277 222.901 C 240.718 224.343,249.032 244.006,252.640 254.507 L 255.118 261.719 251.607 264.527 C 236.426 276.668,229.825 295.810,234.202 315.000 C 235.164 319.217,186.681 321.426,171.126 317.874 L 165.499 316.589 165.810 305.243 C 166.362 285.143,161.362 273.200,149.057 265.226 C 143.823 261.835,143.819 261.873,151.554 242.406 C 160.467 219.973,159.530 220.854,171.142 224.000 M141.168 272.214 C 158.088 280.670,162.405 312.209,148.378 324.882 C 135.662 336.369,115.611 331.400,107.403 314.727 C 95.701 290.957,119.278 261.272,141.168 272.214 M277.702 271.792 C 296.405 278.790,301.776 307.078,287.286 322.269 C 269.704 340.702,245.110 330.660,243.838 304.529 C 242.658 280.285,258.771 264.709,277.702 271.792 " stroke="none" fill="#000000" fill-rule="evenodd"></path></g></svg>