%TF.GenerationSoftware,KiCad,Pcbnew,8.0.7*%
%TF.CreationDate,2025-01-25T19:28:51-08:00*%
%TF.ProjectId,Attiny2x4x8x Programmers,41747469-6e79-4327-9834-783878205072,rev?*%
%TF.SameCoordinates,Original*%
%TF.FileFunction,Soldermask,Top*%
%TF.FilePolarity,Negative*%
%FSLAX46Y46*%
G04 Gerber Fmt 4.6, Leading zero omitted, Abs format (unit mm)*
G04 Created by KiCad (PCBNEW 8.0.7) date 2025-01-25 19:28:51*
%MOMM*%
%LPD*%
G01*
G04 APERTURE LIST*
%ADD10R,1.600000X1.600000*%
%ADD11C,1.600000*%
%ADD12O,1.600000X1.600000*%
%ADD13R,1.700000X1.700000*%
%ADD14O,1.700000X1.700000*%
%ADD15R,1.800000X1.800000*%
%ADD16C,1.800000*%
G04 APERTURE END LIST*
D10*
%TO.C,C1*%
X99100001Y-65000001D03*
D11*
X101600000Y-65000003D03*
%TD*%
D10*
%TO.C,A1*%
X80000000Y-70000000D03*
D12*
X80000000Y-72540000D03*
X80000000Y-75080000D03*
X80000000Y-77620000D03*
X80000000Y-80160000D03*
X80000000Y-82700000D03*
X80000000Y-85240000D03*
X80000000Y-87780000D03*
X80000000Y-90320000D03*
X80000000Y-92860000D03*
X80000000Y-95400000D03*
X80000000Y-97940000D03*
X80000000Y-100480000D03*
X80000000Y-103020000D03*
X80000000Y-105560000D03*
X95240000Y-105560000D03*
X95240000Y-103020000D03*
X95240000Y-100480000D03*
X95240000Y-97940000D03*
X95240000Y-95400000D03*
X95240000Y-92860000D03*
X95240000Y-90320000D03*
X95240000Y-87780000D03*
X95240000Y-85240000D03*
X95240000Y-82700000D03*
X95240000Y-80160000D03*
X95240000Y-77620000D03*
X95240000Y-75080000D03*
X95240000Y-72540000D03*
X95240000Y-70000000D03*
%TD*%
D13*
%TO.C,J1*%
X74800000Y-70000000D03*
D14*
X74800000Y-72540000D03*
X74800000Y-75080000D03*
X74800000Y-77620000D03*
X74800000Y-80160000D03*
X74800000Y-82700000D03*
X74800000Y-85240000D03*
X74800000Y-87780000D03*
X74800000Y-90320000D03*
X74800000Y-92860000D03*
X74800000Y-95400000D03*
X74800000Y-97940000D03*
X74800000Y-100480000D03*
X74800000Y-103020000D03*
X74800000Y-105560000D03*
%TD*%
D10*
%TO.C,U1*%
X74700000Y-47800000D03*
D12*
X74700000Y-50340000D03*
X74700000Y-52880000D03*
X74700000Y-55420000D03*
X74700000Y-57960000D03*
X74700000Y-60500000D03*
X74700000Y-63040000D03*
X82320000Y-63040000D03*
X82320000Y-60500000D03*
X82320000Y-57960000D03*
X82320000Y-55420000D03*
X82320000Y-52880000D03*
X82320000Y-50340000D03*
X82320000Y-47800000D03*
%TD*%
D13*
%TO.C,J2*%
X100600000Y-70000000D03*
D14*
X100600000Y-72540000D03*
X100600000Y-75080000D03*
X100600000Y-77620000D03*
X100600000Y-80160000D03*
X100600000Y-82700000D03*
X100600000Y-85240000D03*
X100600000Y-87780000D03*
X100600000Y-90320000D03*
X100600000Y-92860000D03*
X100600000Y-95400000D03*
X100600000Y-97940000D03*
X100600000Y-100480000D03*
X100600000Y-103020000D03*
X100600000Y-105560000D03*
%TD*%
D13*
%TO.C,J3*%
X86420000Y-50000000D03*
D14*
X86420000Y-47460000D03*
X88960000Y-50000000D03*
X88960000Y-47460000D03*
X91500000Y-50000000D03*
X91500000Y-47460000D03*
%TD*%
D10*
%TO.C,U2*%
X87400000Y-54800000D03*
D12*
X87400000Y-57340001D03*
X87400002Y-59880001D03*
X87399998Y-62420004D03*
X95019995Y-62419999D03*
X95019998Y-59879994D03*
X95019997Y-57340000D03*
X95020004Y-54800002D03*
%TD*%
D15*
%TO.C,D1*%
X97500000Y-49000000D03*
D16*
X97500000Y-51540000D03*
%TD*%
D11*
%TO.C,R1*%
X101999997Y-50919998D03*
D12*
X101999997Y-61079998D03*
%TD*%
M02*
