%TF.GenerationSoftware,KiCad,Pcbnew,8.0.7*%
%TF.CreationDate,2025-01-29T15:55:01-08:00*%
%TF.ProjectId,Attiny2x4x8x Programmers,41747469-6e79-4327-9834-783878205072,rev?*%
%TF.SameCoordinates,Original*%
%TF.FileFunction,Copper,L1,Top*%
%TF.FilePolarity,Positive*%
%FSLAX46Y46*%
G04 Gerber Fmt 4.6, Leading zero omitted, Abs format (unit mm)*
G04 Created by KiCad (PCBNEW 8.0.7) date 2025-01-29 15:55:01*
%MOMM*%
%LPD*%
G01*
G04 APERTURE LIST*
%TA.AperFunction,ComponentPad*%
%ADD10R,1.600000X1.600000*%
%TD*%
%TA.AperFunction,ComponentPad*%
%ADD11C,1.600000*%
%TD*%
%TA.AperFunction,ComponentPad*%
%ADD12O,1.600000X1.600000*%
%TD*%
%TA.AperFunction,ComponentPad*%
%ADD13R,1.700000X1.700000*%
%TD*%
%TA.AperFunction,ComponentPad*%
%ADD14O,1.700000X1.700000*%
%TD*%
%TA.AperFunction,ComponentPad*%
%ADD15R,1.800000X1.800000*%
%TD*%
%TA.AperFunction,ComponentPad*%
%ADD16C,1.800000*%
%TD*%
%TA.AperFunction,Conductor*%
%ADD17C,0.750000*%
%TD*%
%TA.AperFunction,Conductor*%
%ADD18C,1.250000*%
%TD*%
%TA.AperFunction,Conductor*%
%ADD19C,1.500000*%
%TD*%
G04 APERTURE END LIST*
D10*
%TO.P,C1,1*%
%TO.N,/RST*%
X99100001Y-65000001D03*
D11*
%TO.P,C1,2*%
%TO.N,GND*%
X101600000Y-65000003D03*
%TD*%
D10*
%TO.P,A1,1,D1/TX*%
%TO.N,Net-(A1-D1{slash}TX)*%
X80000000Y-70000000D03*
D12*
%TO.P,A1,2,D0/RX*%
%TO.N,Net-(A1-D0{slash}RX)*%
X80000000Y-72540000D03*
%TO.P,A1,3,~{RESET}*%
%TO.N,/RST*%
X80000000Y-75080000D03*
%TO.P,A1,4,GND*%
%TO.N,GND*%
X80000000Y-77620000D03*
%TO.P,A1,5,D2*%
%TO.N,Net-(A1-D2)*%
X80000000Y-80160000D03*
%TO.P,A1,6,D3*%
%TO.N,Net-(A1-D3)*%
X80000000Y-82700000D03*
%TO.P,A1,7,D4*%
%TO.N,Net-(A1-D4)*%
X80000000Y-85240000D03*
%TO.P,A1,8,D5*%
%TO.N,Net-(A1-D5)*%
X80000000Y-87780000D03*
%TO.P,A1,9,D6*%
%TO.N,Net-(A1-D6)*%
X80000000Y-90320000D03*
%TO.P,A1,10,D7*%
%TO.N,Net-(A1-D7)*%
X80000000Y-92860000D03*
%TO.P,A1,11,D8*%
%TO.N,Net-(A1-D8)*%
X80000000Y-95400000D03*
%TO.P,A1,12,D9*%
%TO.N,Net-(A1-D9)*%
X80000000Y-97940000D03*
%TO.P,A1,13,D10*%
%TO.N,/SS*%
X80000000Y-100480000D03*
%TO.P,A1,14,D11*%
%TO.N,/MOSI*%
X80000000Y-103020000D03*
%TO.P,A1,15,D12*%
%TO.N,/MISO*%
X80000000Y-105560000D03*
%TO.P,A1,16,D13*%
%TO.N,/SCK*%
X95240000Y-105560000D03*
%TO.P,A1,17,3V3*%
%TO.N,Net-(A1-3V3)*%
X95240000Y-103020000D03*
%TO.P,A1,18,AREF*%
%TO.N,Net-(A1-AREF)*%
X95240000Y-100480000D03*
%TO.P,A1,19,A0*%
%TO.N,Net-(A1-A0)*%
X95240000Y-97940000D03*
%TO.P,A1,20,A1*%
%TO.N,Net-(A1-A1)*%
X95240000Y-95400000D03*
%TO.P,A1,21,A2*%
%TO.N,Net-(A1-A2)*%
X95240000Y-92860000D03*
%TO.P,A1,22,A3*%
%TO.N,Net-(A1-A3)*%
X95240000Y-90320000D03*
%TO.P,A1,23,A4*%
%TO.N,Net-(A1-A4)*%
X95240000Y-87780000D03*
%TO.P,A1,24,A5*%
%TO.N,Net-(A1-A5)*%
X95240000Y-85240000D03*
%TO.P,A1,25,A6*%
%TO.N,Net-(A1-A6)*%
X95240000Y-82700000D03*
%TO.P,A1,26,A7*%
%TO.N,Net-(A1-A7)*%
X95240000Y-80160000D03*
%TO.P,A1,27,+5V*%
%TO.N,+5V*%
X95240000Y-77620000D03*
%TO.P,A1,28,~{RESET}*%
%TO.N,/RST*%
X95240000Y-75080000D03*
%TO.P,A1,29,GND*%
%TO.N,GND*%
X95240000Y-72540000D03*
%TO.P,A1,30,VIN*%
%TO.N,Net-(A1-VIN)*%
X95240000Y-70000000D03*
%TD*%
D13*
%TO.P,J1,1,Pin_1*%
%TO.N,Net-(A1-D1{slash}TX)*%
X74800000Y-70000000D03*
D14*
%TO.P,J1,2,Pin_2*%
%TO.N,Net-(A1-D0{slash}RX)*%
X74800000Y-72540000D03*
%TO.P,J1,3,Pin_3*%
%TO.N,/RST*%
X74800000Y-75080000D03*
%TO.P,J1,4,Pin_4*%
%TO.N,GND*%
X74800000Y-77620000D03*
%TO.P,J1,5,Pin_5*%
%TO.N,Net-(A1-D2)*%
X74800000Y-80160000D03*
%TO.P,J1,6,Pin_6*%
%TO.N,Net-(A1-D3)*%
X74800000Y-82700000D03*
%TO.P,J1,7,Pin_7*%
%TO.N,Net-(A1-D4)*%
X74800000Y-85240000D03*
%TO.P,J1,8,Pin_8*%
%TO.N,Net-(A1-D5)*%
X74800000Y-87780000D03*
%TO.P,J1,9,Pin_9*%
%TO.N,Net-(A1-D6)*%
X74800000Y-90320000D03*
%TO.P,J1,10,Pin_10*%
%TO.N,Net-(A1-D7)*%
X74800000Y-92860000D03*
%TO.P,J1,11,Pin_11*%
%TO.N,Net-(A1-D8)*%
X74800000Y-95400000D03*
%TO.P,J1,12,Pin_12*%
%TO.N,Net-(A1-D9)*%
X74800000Y-97940000D03*
%TO.P,J1,13,Pin_13*%
%TO.N,/SS*%
X74800000Y-100480000D03*
%TO.P,J1,14,Pin_14*%
%TO.N,/MOSI*%
X74800000Y-103020000D03*
%TO.P,J1,15,Pin_15*%
%TO.N,/MISO*%
X74800000Y-105560000D03*
%TD*%
D13*
%TO.P,J2,1,Pin_1*%
%TO.N,Net-(A1-VIN)*%
X100600000Y-70000000D03*
D14*
%TO.P,J2,2,Pin_2*%
%TO.N,GND*%
X100600000Y-72540000D03*
%TO.P,J2,3,Pin_3*%
%TO.N,/RST*%
X100600000Y-75080000D03*
%TO.P,J2,4,Pin_4*%
%TO.N,+5V*%
X100600000Y-77620000D03*
%TO.P,J2,5,Pin_5*%
%TO.N,Net-(A1-A7)*%
X100600000Y-80160000D03*
%TO.P,J2,6,Pin_6*%
%TO.N,Net-(A1-A6)*%
X100600000Y-82700000D03*
%TO.P,J2,7,Pin_7*%
%TO.N,Net-(A1-A5)*%
X100600000Y-85240000D03*
%TO.P,J2,8,Pin_8*%
%TO.N,Net-(A1-A4)*%
X100600000Y-87780000D03*
%TO.P,J2,9,Pin_9*%
%TO.N,Net-(A1-A3)*%
X100600000Y-90320000D03*
%TO.P,J2,10,Pin_10*%
%TO.N,Net-(A1-A2)*%
X100600000Y-92860000D03*
%TO.P,J2,11,Pin_11*%
%TO.N,Net-(A1-A1)*%
X100600000Y-95400000D03*
%TO.P,J2,12,Pin_12*%
%TO.N,Net-(A1-A0)*%
X100600000Y-97940000D03*
%TO.P,J2,13,Pin_13*%
%TO.N,Net-(A1-AREF)*%
X100600000Y-100480000D03*
%TO.P,J2,14,Pin_14*%
%TO.N,Net-(A1-3V3)*%
X100600000Y-103020000D03*
%TO.P,J2,15,Pin_15*%
%TO.N,/SCK*%
X100600000Y-105560000D03*
%TD*%
D13*
%TO.P,J3,1,Pin_1*%
%TO.N,/MISO*%
X88020000Y-50500000D03*
D14*
%TO.P,J3,2,Pin_2*%
%TO.N,+5V*%
X88020000Y-47960000D03*
%TO.P,J3,3,Pin_3*%
%TO.N,/SCK*%
X90560000Y-50500000D03*
%TO.P,J3,4,Pin_4*%
%TO.N,/MOSI*%
X90560000Y-47960000D03*
%TO.P,J3,5,Pin_5*%
%TO.N,/SS*%
X93100000Y-50500000D03*
%TO.P,J3,6,Pin_6*%
%TO.N,GND*%
X93100000Y-47960000D03*
%TD*%
D12*
%TO.P,U2,8,VCC*%
%TO.N,+5V*%
X95020004Y-54800002D03*
%TO.P,U2,7,PB2*%
%TO.N,/SCK*%
X95019997Y-57340000D03*
%TO.P,U2,6,PB1*%
%TO.N,/MISO*%
X95019998Y-59879994D03*
%TO.P,U2,5,AREF/PB0*%
%TO.N,/MOSI*%
X95019995Y-62419999D03*
%TO.P,U2,4,GND*%
%TO.N,GND*%
X87399998Y-62420004D03*
%TO.P,U2,3,XTAL2/PB4*%
%TO.N,unconnected-(U2-XTAL2{slash}PB4-Pad3)*%
X87400002Y-59880001D03*
%TO.P,U2,2,XTAL1/PB3*%
%TO.N,unconnected-(U2-XTAL1{slash}PB3-Pad2)*%
X87400000Y-57340001D03*
D10*
%TO.P,U2,1,~{RESET}/PB5*%
%TO.N,/SS*%
X87400000Y-54800000D03*
%TD*%
D15*
%TO.P,D1,1,K*%
%TO.N,Net-(D1-K)*%
X97700000Y-49000000D03*
D16*
%TO.P,D1,2,A*%
%TO.N,/MISO*%
X97700000Y-51540000D03*
%TD*%
D12*
%TO.P,R1,2*%
%TO.N,GND*%
X101999997Y-61079998D03*
D11*
%TO.P,R1,1*%
%TO.N,Net-(D1-K)*%
X101999997Y-50919998D03*
%TD*%
D12*
%TO.P,U1,14,GND*%
%TO.N,GND*%
X82320000Y-48160000D03*
%TO.P,U1,13,AREF/PA0*%
%TO.N,unconnected-(U1-AREF{slash}PA0-Pad13)*%
X82320000Y-50700000D03*
%TO.P,U1,12,PA1*%
%TO.N,unconnected-(U1-PA1-Pad12)*%
X82320000Y-53240000D03*
%TO.P,U1,11,PA2*%
%TO.N,unconnected-(U1-PA2-Pad11)*%
X82320000Y-55780000D03*
%TO.P,U1,10,PA3*%
%TO.N,unconnected-(U1-PA3-Pad10)*%
X82320000Y-58320000D03*
%TO.P,U1,9,PA4*%
%TO.N,/SCK*%
X82320000Y-60860000D03*
%TO.P,U1,8,PA5*%
%TO.N,/MISO*%
X82320000Y-63400000D03*
%TO.P,U1,7,PA6*%
%TO.N,/MOSI*%
X74700000Y-63400000D03*
%TO.P,U1,6,PA7*%
%TO.N,unconnected-(U1-PA7-Pad6)*%
X74700000Y-60860000D03*
%TO.P,U1,5,PB2*%
%TO.N,unconnected-(U1-PB2-Pad5)*%
X74700000Y-58320000D03*
%TO.P,U1,4,~{RESET}/PB3*%
%TO.N,/SS*%
X74700000Y-55780000D03*
%TO.P,U1,3,XTAL2/PB1*%
%TO.N,unconnected-(U1-XTAL2{slash}PB1-Pad3)*%
X74700000Y-53240000D03*
%TO.P,U1,2,XTAL1/PB0*%
%TO.N,unconnected-(U1-XTAL1{slash}PB0-Pad2)*%
X74700000Y-50700000D03*
D10*
%TO.P,U1,1,VCC*%
%TO.N,+5V*%
X74700000Y-48160000D03*
%TD*%
D17*
%TO.N,/MOSI*%
X84500000Y-76399494D02*
G75*
G02*
X86550255Y-71449750I7000000J-6D01*
G01*
X82449747Y-100570253D02*
G75*
G03*
X84500004Y-95620505I-4949747J4949753D01*
G01*
X82449747Y-100570253D02*
X80000000Y-103020000D01*
X84500000Y-76399494D02*
X84500000Y-95620505D01*
X89854548Y-68145451D02*
X86550252Y-71449747D01*
X80390000Y-103020000D02*
X79610000Y-103020000D01*
%TO.N,/MISO*%
X85456854Y-65000000D02*
G75*
G02*
X82628450Y-63828404I46J4000000D01*
G01*
%TO.N,/MOSI*%
X75371068Y-64071068D02*
G75*
G03*
X82442136Y-66999975I7071032J7071068D01*
G01*
%TO.N,/MISO*%
X83535534Y-62184466D02*
G75*
G03*
X85000023Y-58648932I-3535534J3535566D01*
G01*
X85000000Y-55591068D02*
G75*
G02*
X86464482Y-52055550I5000000J-32D01*
G01*
%TO.N,/SS*%
X89678680Y-53921320D02*
G75*
G02*
X87557359Y-54799971I-2121280J2121320D01*
G01*
%TO.N,/MISO*%
X96235534Y-58664458D02*
G75*
G03*
X97700017Y-55128924I-3535534J3535558D01*
G01*
%TO.N,Net-(D1-K)*%
X98008931Y-49000000D02*
G75*
G02*
X101544449Y-50464482I-31J-5000000D01*
G01*
%TO.N,/MISO*%
X82628427Y-63828427D02*
X82320000Y-63520000D01*
X87646028Y-65000000D02*
X85456854Y-65000000D01*
X82320000Y-63520000D02*
X82320000Y-63400000D01*
X91493784Y-63406207D02*
G75*
G02*
X87646028Y-65000005I-3847784J3847807D01*
G01*
X95019998Y-59879994D02*
X91493784Y-63406207D01*
X86464466Y-52055534D02*
X88020000Y-50500000D01*
X85000000Y-58648932D02*
X85000000Y-55591068D01*
X82320000Y-63400000D02*
X83535534Y-62184466D01*
%TO.N,/MOSI*%
X74700000Y-63400000D02*
X75371068Y-64071068D01*
X82442136Y-67000000D02*
X88746036Y-67000000D01*
%TO.N,/SS*%
X87400000Y-54800000D02*
X87557359Y-54800000D01*
X89678680Y-53921320D02*
X93100000Y-50500000D01*
%TO.N,Net-(D1-K)*%
X101544465Y-50464466D02*
X101999997Y-50919998D01*
X97700000Y-49000000D02*
X98008931Y-49000000D01*
%TO.N,/MISO*%
X97700000Y-55128924D02*
X97700000Y-51540000D01*
X95019998Y-59879994D02*
X96235534Y-58664458D01*
X80420000Y-105560000D02*
X80000000Y-105560000D01*
D18*
X80000000Y-105560000D02*
X74800000Y-105560000D01*
%TO.N,Net-(A1-D7)*%
X74800000Y-92860000D02*
X80000000Y-92860000D01*
%TO.N,Net-(A1-A7)*%
X100600000Y-80160000D02*
X95240000Y-80160000D01*
%TO.N,Net-(A1-D5)*%
X74800000Y-87780000D02*
X80000000Y-87780000D01*
%TO.N,Net-(A1-3V3)*%
X95240000Y-103020000D02*
X100600000Y-103020000D01*
%TO.N,Net-(A1-A3)*%
X100600000Y-90320000D02*
X95240000Y-90320000D01*
%TO.N,Net-(A1-D1{slash}TX)*%
X80000000Y-70000000D02*
X74800000Y-70000000D01*
%TO.N,Net-(A1-A1)*%
X100600000Y-95400000D02*
X95240000Y-95400000D01*
%TO.N,Net-(A1-D6)*%
X80000000Y-90320000D02*
X74800000Y-90320000D01*
%TO.N,Net-(A1-VIN)*%
X95240000Y-70000000D02*
X100600000Y-70000000D01*
%TO.N,/SS*%
X74800000Y-100480000D02*
X80000000Y-100480000D01*
%TO.N,Net-(A1-D4)*%
X80000000Y-85240000D02*
X74800000Y-85240000D01*
%TO.N,Net-(A1-D8)*%
X80000000Y-95400000D02*
X74800000Y-95400000D01*
%TO.N,Net-(A1-D3)*%
X74800000Y-82700000D02*
X80000000Y-82700000D01*
%TO.N,Net-(A1-A4)*%
X95240000Y-87780000D02*
X100600000Y-87780000D01*
%TO.N,Net-(A1-A6)*%
X95240000Y-82700000D02*
X100600000Y-82700000D01*
%TO.N,/SCK*%
X100600000Y-105560000D02*
X95240000Y-105560000D01*
%TO.N,Net-(A1-A2)*%
X100600000Y-92860000D02*
X95240000Y-92860000D01*
%TO.N,Net-(A1-A5)*%
X100600000Y-85240000D02*
X95240000Y-85240000D01*
%TO.N,Net-(A1-D2)*%
X80000000Y-80160000D02*
X74800000Y-80160000D01*
%TO.N,Net-(A1-A0)*%
X95240000Y-97940000D02*
X100600000Y-97940000D01*
%TO.N,Net-(A1-AREF)*%
X100600000Y-100480000D02*
X95240000Y-100480000D01*
%TO.N,Net-(A1-D9)*%
X80000000Y-97940000D02*
X74800000Y-97940000D01*
%TO.N,Net-(A1-D0{slash}RX)*%
X74800000Y-72540000D02*
X80000000Y-72540000D01*
%TO.N,/RST*%
X80000000Y-75080000D02*
X74800000Y-75080000D01*
X95240000Y-75080000D02*
X100600000Y-75080000D01*
%TO.N,/MOSI*%
X79610000Y-103020000D02*
X74800000Y-103020000D01*
D17*
X95019995Y-62700002D02*
X95019995Y-62419999D01*
X95019995Y-62700002D02*
G75*
G02*
X94822004Y-63177998I-675995J2D01*
G01*
X90576244Y-67423756D02*
X89776244Y-67423756D01*
X90850000Y-67150000D02*
X89854548Y-68145451D01*
X90850000Y-67150000D02*
X90576244Y-67423756D01*
X94822002Y-63177996D02*
X92656853Y-65343146D01*
X88746036Y-67000000D02*
G75*
G03*
X92656841Y-65343134I-45336J5550900D01*
G01*
X92656853Y-65343146D02*
X90850000Y-67150000D01*
%TO.N,/MISO*%
X95449996Y-59879994D02*
X95019998Y-59879994D01*
X81136984Y-105263015D02*
G75*
G02*
X80420000Y-105559990I-716984J717015D01*
G01*
X81136984Y-105263015D02*
X84106207Y-102293792D01*
X85700000Y-98446036D02*
G75*
G02*
X84106200Y-102293785I-5441600J36D01*
G01*
X85700000Y-77053963D02*
X85700000Y-98446036D01*
X87293792Y-73206207D02*
G75*
G03*
X85699959Y-77053963I3847708J-3847793D01*
G01*
X87293792Y-73206207D02*
X95945405Y-64554594D01*
X96900000Y-62250000D02*
G75*
G02*
X95945408Y-64554597I-3259200J0D01*
G01*
X96900000Y-61621253D02*
X96900000Y-62250000D01*
X96184048Y-60184048D02*
G75*
G03*
X95449996Y-59879997I-734048J-734052D01*
G01*
X96389997Y-60389997D02*
G75*
G02*
X96900021Y-61621253I-1231297J-1231303D01*
G01*
X96184048Y-60184048D02*
X96389997Y-60389997D01*
D19*
%TO.N,GND*%
X95240000Y-72540000D02*
X100600000Y-72540000D01*
D17*
%TO.N,/MOSI*%
X89854548Y-68145451D02*
G75*
G03*
X88746046Y-67000038I-865848J271151D01*
G01*
%TD*%
%TA.AperFunction,Conductor*%
%TO.N,+5V*%
G36*
X99880796Y-76225185D02*
G01*
X99884878Y-76227924D01*
X99914592Y-76248729D01*
X99958218Y-76303305D01*
X99965413Y-76372803D01*
X99933892Y-76435158D01*
X99914595Y-76451880D01*
X99728922Y-76581890D01*
X99728920Y-76581891D01*
X99561891Y-76748920D01*
X99561886Y-76748926D01*
X99426400Y-76942420D01*
X99426399Y-76942422D01*
X99326570Y-77156507D01*
X99326567Y-77156513D01*
X99269364Y-77369999D01*
X99269364Y-77370000D01*
X100166988Y-77370000D01*
X100134075Y-77427007D01*
X100100000Y-77554174D01*
X100100000Y-77685826D01*
X100134075Y-77812993D01*
X100166988Y-77870000D01*
X99269364Y-77870000D01*
X99326567Y-78083486D01*
X99326570Y-78083492D01*
X99426399Y-78297578D01*
X99561894Y-78491082D01*
X99728917Y-78658105D01*
X99914595Y-78788119D01*
X99958219Y-78842696D01*
X99965412Y-78912195D01*
X99933890Y-78974549D01*
X99914596Y-78991268D01*
X99884883Y-79012074D01*
X99818677Y-79034402D01*
X99813758Y-79034500D01*
X95931092Y-79034500D01*
X95878688Y-79022882D01*
X95834132Y-79002105D01*
X95781694Y-78955934D01*
X95762542Y-78888740D01*
X95782758Y-78821859D01*
X95834134Y-78777341D01*
X95892484Y-78750132D01*
X96078820Y-78619657D01*
X96239657Y-78458820D01*
X96370134Y-78272482D01*
X96466265Y-78066326D01*
X96466269Y-78066317D01*
X96518872Y-77870000D01*
X95673012Y-77870000D01*
X95705925Y-77812993D01*
X95740000Y-77685826D01*
X95740000Y-77554174D01*
X95705925Y-77427007D01*
X95673012Y-77370000D01*
X96518872Y-77370000D01*
X96518872Y-77369999D01*
X96466269Y-77173682D01*
X96466265Y-77173673D01*
X96370134Y-76967517D01*
X96239657Y-76781179D01*
X96078820Y-76620342D01*
X95892482Y-76489865D01*
X95834133Y-76462657D01*
X95781694Y-76416484D01*
X95762542Y-76349291D01*
X95782758Y-76282410D01*
X95834131Y-76237894D01*
X95878690Y-76217116D01*
X95931092Y-76205500D01*
X99813757Y-76205500D01*
X99880796Y-76225185D01*
G37*
%TD.AperFunction*%
%TA.AperFunction,Conductor*%
G36*
X99002702Y-44500617D02*
G01*
X99386771Y-44517386D01*
X99397506Y-44518326D01*
X99775971Y-44568152D01*
X99786597Y-44570025D01*
X100159284Y-44652648D01*
X100169710Y-44655442D01*
X100533765Y-44770227D01*
X100543911Y-44773920D01*
X100896578Y-44920000D01*
X100906369Y-44924566D01*
X101244942Y-45100816D01*
X101254310Y-45106224D01*
X101576244Y-45311318D01*
X101585105Y-45317523D01*
X101887930Y-45549889D01*
X101896217Y-45556843D01*
X102177635Y-45814715D01*
X102185284Y-45822364D01*
X102443156Y-46103782D01*
X102450110Y-46112069D01*
X102682476Y-46414894D01*
X102688681Y-46423755D01*
X102893775Y-46745689D01*
X102899183Y-46755057D01*
X103075430Y-47093623D01*
X103080002Y-47103427D01*
X103226075Y-47456078D01*
X103229775Y-47466244D01*
X103344554Y-47830278D01*
X103347354Y-47840727D01*
X103429971Y-48213389D01*
X103431849Y-48224042D01*
X103481671Y-48602473D01*
X103482614Y-48613249D01*
X103499382Y-48997297D01*
X103499500Y-49002706D01*
X103499500Y-50549597D01*
X103479815Y-50616636D01*
X103427011Y-50662391D01*
X103357853Y-50672335D01*
X103294297Y-50643310D01*
X103256523Y-50584532D01*
X103255725Y-50581690D01*
X103226738Y-50473509D01*
X103226735Y-50473500D01*
X103226648Y-50473313D01*
X103130565Y-50267264D01*
X103000044Y-50080859D01*
X103000042Y-50080856D01*
X102839138Y-49919952D01*
X102652731Y-49789430D01*
X102652729Y-49789429D01*
X102446494Y-49693259D01*
X102446485Y-49693256D01*
X102226694Y-49634364D01*
X102226690Y-49634363D01*
X102226689Y-49634363D01*
X102226688Y-49634362D01*
X102226683Y-49634362D01*
X101999999Y-49614530D01*
X101999990Y-49614530D01*
X101979592Y-49616314D01*
X101911092Y-49602546D01*
X101887585Y-49586499D01*
X101832862Y-49539081D01*
X101697966Y-49422192D01*
X101361990Y-49170681D01*
X101108613Y-49007844D01*
X101008938Y-48943786D01*
X101008936Y-48943785D01*
X101008934Y-48943784D01*
X101008928Y-48943780D01*
X100640579Y-48742643D01*
X100640570Y-48742638D01*
X100258826Y-48568300D01*
X100258823Y-48568299D01*
X100258819Y-48568297D01*
X99865594Y-48421629D01*
X99865590Y-48421627D01*
X99865585Y-48421626D01*
X99462925Y-48303391D01*
X99462910Y-48303387D01*
X99198140Y-48245788D01*
X99136817Y-48212302D01*
X99103333Y-48150979D01*
X99100499Y-48124622D01*
X99100499Y-48052129D01*
X99100498Y-48052123D01*
X99100497Y-48052116D01*
X99094091Y-47992517D01*
X99077783Y-47948794D01*
X99043797Y-47857671D01*
X99043793Y-47857664D01*
X98957547Y-47742455D01*
X98957544Y-47742452D01*
X98842335Y-47656206D01*
X98842328Y-47656202D01*
X98707482Y-47605908D01*
X98707483Y-47605908D01*
X98647883Y-47599501D01*
X98647881Y-47599500D01*
X98647873Y-47599500D01*
X98647864Y-47599500D01*
X96752129Y-47599500D01*
X96752123Y-47599501D01*
X96692516Y-47605908D01*
X96557671Y-47656202D01*
X96557664Y-47656206D01*
X96442455Y-47742452D01*
X96442452Y-47742455D01*
X96356206Y-47857664D01*
X96356202Y-47857671D01*
X96305908Y-47992517D01*
X96299501Y-48052116D01*
X96299501Y-48052123D01*
X96299500Y-48052135D01*
X96299500Y-49947870D01*
X96299501Y-49947876D01*
X96305908Y-50007483D01*
X96356202Y-50142328D01*
X96356206Y-50142335D01*
X96442452Y-50257544D01*
X96442455Y-50257547D01*
X96557664Y-50343793D01*
X96557673Y-50343798D01*
X96637904Y-50373722D01*
X96693838Y-50415593D01*
X96718256Y-50481057D01*
X96703405Y-50549330D01*
X96685802Y-50573886D01*
X96591019Y-50676849D01*
X96464075Y-50871151D01*
X96370842Y-51083699D01*
X96313866Y-51308691D01*
X96313864Y-51308702D01*
X96294700Y-51539993D01*
X96294700Y-51540006D01*
X96313864Y-51771297D01*
X96313866Y-51771308D01*
X96370842Y-51996300D01*
X96464075Y-52208848D01*
X96591016Y-52403147D01*
X96591019Y-52403151D01*
X96591021Y-52403153D01*
X96748216Y-52573913D01*
X96748219Y-52573915D01*
X96748219Y-52573916D01*
X96765371Y-52587265D01*
X96776660Y-52596051D01*
X96817474Y-52652760D01*
X96824500Y-52693906D01*
X96824500Y-55126212D01*
X96824382Y-55131622D01*
X96809039Y-55482986D01*
X96808096Y-55493762D01*
X96762543Y-55839757D01*
X96760665Y-55850410D01*
X96685127Y-56191131D01*
X96682327Y-56201580D01*
X96577383Y-56534416D01*
X96573683Y-56544581D01*
X96451185Y-56840314D01*
X96407344Y-56894717D01*
X96341049Y-56916782D01*
X96273350Y-56899503D01*
X96225740Y-56848365D01*
X96224242Y-56845266D01*
X96193829Y-56780045D01*
X96150565Y-56687266D01*
X96020044Y-56500861D01*
X96020042Y-56500858D01*
X95859138Y-56339954D01*
X95672731Y-56209432D01*
X95672729Y-56209431D01*
X95644818Y-56196416D01*
X95614134Y-56182107D01*
X95561697Y-56135937D01*
X95542545Y-56068743D01*
X95562761Y-56001862D01*
X95614137Y-55957345D01*
X95672483Y-55930137D01*
X95672485Y-55930136D01*
X95858824Y-55799659D01*
X96019661Y-55638822D01*
X96150138Y-55452484D01*
X96246269Y-55246328D01*
X96246273Y-55246319D01*
X96298876Y-55050002D01*
X95335690Y-55050002D01*
X95340084Y-55045608D01*
X95392745Y-54954396D01*
X95420004Y-54852663D01*
X95420004Y-54747341D01*
X95392745Y-54645608D01*
X95340084Y-54554396D01*
X95335690Y-54550002D01*
X96298876Y-54550002D01*
X96298876Y-54550001D01*
X96246273Y-54353684D01*
X96246269Y-54353675D01*
X96150138Y-54147519D01*
X96019661Y-53961181D01*
X95858824Y-53800344D01*
X95672486Y-53669867D01*
X95466332Y-53573736D01*
X95270004Y-53521129D01*
X95270004Y-54484316D01*
X95265610Y-54479922D01*
X95174398Y-54427261D01*
X95072665Y-54400002D01*
X94967343Y-54400002D01*
X94865610Y-54427261D01*
X94774398Y-54479922D01*
X94770004Y-54484316D01*
X94770004Y-53521129D01*
X94573675Y-53573736D01*
X94367521Y-53669867D01*
X94181183Y-53800344D01*
X94020346Y-53961181D01*
X93889869Y-54147519D01*
X93793738Y-54353675D01*
X93793734Y-54353684D01*
X93741131Y-54550001D01*
X93741132Y-54550002D01*
X94704318Y-54550002D01*
X94699924Y-54554396D01*
X94647263Y-54645608D01*
X94620004Y-54747341D01*
X94620004Y-54852663D01*
X94647263Y-54954396D01*
X94699924Y-55045608D01*
X94704318Y-55050002D01*
X93741132Y-55050002D01*
X93793734Y-55246319D01*
X93793738Y-55246328D01*
X93889869Y-55452484D01*
X94020346Y-55638822D01*
X94181183Y-55799659D01*
X94367519Y-55930134D01*
X94425863Y-55957340D01*
X94478303Y-56003513D01*
X94497455Y-56070706D01*
X94477240Y-56137587D01*
X94425865Y-56182104D01*
X94367269Y-56209428D01*
X94367262Y-56209432D01*
X94180855Y-56339954D01*
X94019951Y-56500858D01*
X93889429Y-56687265D01*
X93889428Y-56687267D01*
X93793258Y-56893502D01*
X93793255Y-56893511D01*
X93734363Y-57113302D01*
X93734361Y-57113313D01*
X93714529Y-57339998D01*
X93714529Y-57340001D01*
X93734361Y-57566686D01*
X93734363Y-57566697D01*
X93793255Y-57786488D01*
X93793258Y-57786497D01*
X93889428Y-57992732D01*
X93889429Y-57992734D01*
X94019951Y-58179141D01*
X94180855Y-58340045D01*
X94180858Y-58340047D01*
X94367263Y-58470568D01*
X94425267Y-58497615D01*
X94477705Y-58543787D01*
X94496857Y-58610981D01*
X94476641Y-58677862D01*
X94425266Y-58722379D01*
X94367265Y-58749425D01*
X94367263Y-58749426D01*
X94180856Y-58879948D01*
X94019952Y-59040852D01*
X93889430Y-59227259D01*
X93889429Y-59227261D01*
X93793259Y-59433496D01*
X93793256Y-59433505D01*
X93734364Y-59653296D01*
X93734362Y-59653307D01*
X93718738Y-59831898D01*
X93714530Y-59879994D01*
X93714531Y-59880001D01*
X93714907Y-59884305D01*
X93701137Y-59952804D01*
X93679059Y-59982787D01*
X90876648Y-62785198D01*
X90872740Y-62788940D01*
X90585015Y-63052590D01*
X90576728Y-63059543D01*
X90269303Y-63295438D01*
X90260442Y-63301643D01*
X89933611Y-63509857D01*
X89924243Y-63515265D01*
X89580527Y-63694192D01*
X89570723Y-63698764D01*
X89212709Y-63847059D01*
X89202544Y-63850759D01*
X88832970Y-63967286D01*
X88822521Y-63970086D01*
X88444191Y-64053961D01*
X88433538Y-64055839D01*
X88049349Y-64106420D01*
X88038572Y-64107363D01*
X87648817Y-64124382D01*
X87643408Y-64124500D01*
X85459918Y-64124500D01*
X85453832Y-64124351D01*
X85156693Y-64109749D01*
X85144583Y-64108556D01*
X84853335Y-64065351D01*
X84841400Y-64062977D01*
X84555777Y-63991429D01*
X84544132Y-63987896D01*
X84266913Y-63888702D01*
X84255671Y-63884045D01*
X83989505Y-63758155D01*
X83978773Y-63752419D01*
X83726220Y-63601041D01*
X83716103Y-63594281D01*
X83698030Y-63580877D01*
X83670733Y-63560632D01*
X83628614Y-63504886D01*
X83621073Y-63450229D01*
X83625468Y-63400000D01*
X83625091Y-63395695D01*
X83638856Y-63327196D01*
X83660935Y-63297208D01*
X84215579Y-62742565D01*
X84215579Y-62742564D01*
X84219905Y-62738239D01*
X84220207Y-62737903D01*
X84302969Y-62655144D01*
X84577808Y-62337967D01*
X84829318Y-62001991D01*
X85056220Y-61648929D01*
X85257356Y-61280580D01*
X85431703Y-60898820D01*
X85578371Y-60505595D01*
X85696612Y-60102909D01*
X85785826Y-59692813D01*
X85845556Y-59277399D01*
X85875499Y-58858781D01*
X85875500Y-58648938D01*
X85875500Y-58562708D01*
X85875500Y-57617110D01*
X85895185Y-57550071D01*
X85947989Y-57504316D01*
X86017147Y-57494372D01*
X86080703Y-57523397D01*
X86118477Y-57582175D01*
X86119275Y-57585017D01*
X86173258Y-57786489D01*
X86173261Y-57786498D01*
X86269431Y-57992733D01*
X86269432Y-57992735D01*
X86399954Y-58179142D01*
X86560858Y-58340046D01*
X86560861Y-58340048D01*
X86747266Y-58470569D01*
X86805275Y-58497619D01*
X86857715Y-58543791D01*
X86876867Y-58610984D01*
X86856652Y-58677866D01*
X86805277Y-58722383D01*
X86747266Y-58749434D01*
X86560860Y-58879955D01*
X86399956Y-59040859D01*
X86269434Y-59227266D01*
X86269433Y-59227268D01*
X86173263Y-59433503D01*
X86173260Y-59433512D01*
X86114368Y-59653303D01*
X86114366Y-59653314D01*
X86094534Y-59879999D01*
X86094534Y-59880002D01*
X86114366Y-60106687D01*
X86114368Y-60106698D01*
X86173260Y-60326489D01*
X86173263Y-60326498D01*
X86269433Y-60532733D01*
X86269434Y-60532735D01*
X86399956Y-60719142D01*
X86560860Y-60880046D01*
X86560863Y-60880048D01*
X86747268Y-61010569D01*
X86805277Y-61037619D01*
X86857717Y-61083791D01*
X86876869Y-61150984D01*
X86856654Y-61217866D01*
X86805279Y-61262383D01*
X86747262Y-61289437D01*
X86560856Y-61419958D01*
X86399952Y-61580862D01*
X86269430Y-61767269D01*
X86269429Y-61767271D01*
X86173259Y-61973506D01*
X86173256Y-61973515D01*
X86114364Y-62193306D01*
X86114362Y-62193317D01*
X86094530Y-62420002D01*
X86094530Y-62420005D01*
X86114362Y-62646690D01*
X86114364Y-62646701D01*
X86173256Y-62866492D01*
X86173259Y-62866501D01*
X86269429Y-63072736D01*
X86269430Y-63072738D01*
X86399952Y-63259145D01*
X86560856Y-63420049D01*
X86560859Y-63420051D01*
X86747264Y-63550572D01*
X86953502Y-63646743D01*
X87173306Y-63705639D01*
X87335228Y-63719805D01*
X87399996Y-63725472D01*
X87399998Y-63725472D01*
X87400000Y-63725472D01*
X87456671Y-63720513D01*
X87626690Y-63705639D01*
X87846494Y-63646743D01*
X88052732Y-63550572D01*
X88239137Y-63420051D01*
X88400045Y-63259143D01*
X88530566Y-63072738D01*
X88626737Y-62866500D01*
X88685633Y-62646696D01*
X88705466Y-62420004D01*
X88685633Y-62193312D01*
X88626737Y-61973508D01*
X88530566Y-61767270D01*
X88400045Y-61580865D01*
X88400043Y-61580862D01*
X88239139Y-61419958D01*
X88052732Y-61289436D01*
X88052730Y-61289435D01*
X87994721Y-61262385D01*
X87942282Y-61216212D01*
X87923130Y-61149019D01*
X87943346Y-61082138D01*
X87994718Y-61037623D01*
X88052736Y-61010569D01*
X88239141Y-60880048D01*
X88400049Y-60719140D01*
X88530570Y-60532735D01*
X88626741Y-60326497D01*
X88685637Y-60106693D01*
X88702636Y-59912385D01*
X88705470Y-59880002D01*
X88705470Y-59879999D01*
X88697978Y-59794363D01*
X88685637Y-59653309D01*
X88638561Y-59477618D01*
X88626743Y-59433512D01*
X88626740Y-59433503D01*
X88530570Y-59227268D01*
X88530569Y-59227266D01*
X88530565Y-59227261D01*
X88400049Y-59040862D01*
X88400047Y-59040859D01*
X88239143Y-58879955D01*
X88052736Y-58749433D01*
X88052734Y-58749432D01*
X87994725Y-58722382D01*
X87942286Y-58676209D01*
X87923134Y-58609016D01*
X87943350Y-58542135D01*
X87994721Y-58497620D01*
X88052734Y-58470569D01*
X88239139Y-58340048D01*
X88400047Y-58179140D01*
X88530568Y-57992735D01*
X88626739Y-57786497D01*
X88685635Y-57566693D01*
X88705468Y-57340001D01*
X88685635Y-57113309D01*
X88626739Y-56893505D01*
X88530568Y-56687267D01*
X88400047Y-56500862D01*
X88400046Y-56500861D01*
X88400045Y-56500859D01*
X88239139Y-56339953D01*
X88214535Y-56322725D01*
X88170910Y-56268148D01*
X88163718Y-56198649D01*
X88195241Y-56136295D01*
X88255471Y-56100882D01*
X88272401Y-56097862D01*
X88307483Y-56094091D01*
X88442331Y-56043796D01*
X88557546Y-55957546D01*
X88643796Y-55842331D01*
X88694091Y-55707483D01*
X88700500Y-55647873D01*
X88700499Y-55594959D01*
X88720182Y-55527922D01*
X88772986Y-55482167D01*
X88782090Y-55478438D01*
X88853400Y-55452484D01*
X89041850Y-55383896D01*
X89348560Y-55240879D01*
X89641638Y-55071675D01*
X89918854Y-54877571D01*
X90178097Y-54660044D01*
X90231397Y-54606744D01*
X90231409Y-54606734D01*
X90236776Y-54601366D01*
X90236779Y-54601365D01*
X90314566Y-54523578D01*
X90358720Y-54479425D01*
X90358721Y-54479422D01*
X90365782Y-54472362D01*
X90365788Y-54472354D01*
X92951053Y-51887089D01*
X93012374Y-51853606D01*
X93049540Y-51851244D01*
X93099999Y-51855659D01*
X93100000Y-51855659D01*
X93100001Y-51855659D01*
X93139234Y-51852226D01*
X93335408Y-51835063D01*
X93563663Y-51773903D01*
X93777830Y-51674035D01*
X93971401Y-51538495D01*
X94138495Y-51371401D01*
X94274035Y-51177830D01*
X94373903Y-50963663D01*
X94435063Y-50735408D01*
X94455659Y-50500000D01*
X94453340Y-50473500D01*
X94446954Y-50400500D01*
X94435063Y-50264592D01*
X94388626Y-50091285D01*
X94373905Y-50036344D01*
X94373904Y-50036343D01*
X94373903Y-50036337D01*
X94274035Y-49822171D01*
X94268425Y-49814158D01*
X94138494Y-49628597D01*
X93971402Y-49461506D01*
X93971396Y-49461501D01*
X93785842Y-49331575D01*
X93742217Y-49276998D01*
X93735023Y-49207500D01*
X93766546Y-49145145D01*
X93785842Y-49128425D01*
X93808026Y-49112891D01*
X93971401Y-48998495D01*
X94138495Y-48831401D01*
X94274035Y-48637830D01*
X94373903Y-48423663D01*
X94435063Y-48195408D01*
X94455659Y-47960000D01*
X94435063Y-47724592D01*
X94373903Y-47496337D01*
X94274035Y-47282171D01*
X94268731Y-47274595D01*
X94138494Y-47088597D01*
X93971402Y-46921506D01*
X93971395Y-46921501D01*
X93777834Y-46785967D01*
X93777830Y-46785965D01*
X93777828Y-46785964D01*
X93563663Y-46686097D01*
X93563659Y-46686096D01*
X93563655Y-46686094D01*
X93335413Y-46624938D01*
X93335403Y-46624936D01*
X93100001Y-46604341D01*
X93099999Y-46604341D01*
X92864596Y-46624936D01*
X92864586Y-46624938D01*
X92636344Y-46686094D01*
X92636335Y-46686098D01*
X92422171Y-46785964D01*
X92422169Y-46785965D01*
X92228597Y-46921505D01*
X92061505Y-47088597D01*
X91931575Y-47274158D01*
X91876998Y-47317783D01*
X91807500Y-47324977D01*
X91745145Y-47293454D01*
X91728425Y-47274158D01*
X91598494Y-47088597D01*
X91431402Y-46921506D01*
X91431395Y-46921501D01*
X91237834Y-46785967D01*
X91237830Y-46785965D01*
X91237828Y-46785964D01*
X91023663Y-46686097D01*
X91023659Y-46686096D01*
X91023655Y-46686094D01*
X90795413Y-46624938D01*
X90795403Y-46624936D01*
X90560001Y-46604341D01*
X90559999Y-46604341D01*
X90324596Y-46624936D01*
X90324586Y-46624938D01*
X90096344Y-46686094D01*
X90096335Y-46686098D01*
X89882171Y-46785964D01*
X89882169Y-46785965D01*
X89688597Y-46921505D01*
X89521508Y-47088594D01*
X89391269Y-47274595D01*
X89336692Y-47318219D01*
X89267193Y-47325412D01*
X89204839Y-47293890D01*
X89188119Y-47274594D01*
X89058113Y-47088926D01*
X89058108Y-47088920D01*
X88891082Y-46921894D01*
X88697578Y-46786399D01*
X88483492Y-46686570D01*
X88483486Y-46686567D01*
X88270000Y-46629364D01*
X88270000Y-47526988D01*
X88212993Y-47494075D01*
X88085826Y-47460000D01*
X87954174Y-47460000D01*
X87827007Y-47494075D01*
X87770000Y-47526988D01*
X87770000Y-46629364D01*
X87769999Y-46629364D01*
X87556513Y-46686567D01*
X87556507Y-46686570D01*
X87342422Y-46786399D01*
X87342420Y-46786400D01*
X87148926Y-46921886D01*
X87148920Y-46921891D01*
X86981891Y-47088920D01*
X86981886Y-47088926D01*
X86846400Y-47282420D01*
X86846399Y-47282422D01*
X86746570Y-47496507D01*
X86746567Y-47496513D01*
X86689364Y-47709999D01*
X86689364Y-47710000D01*
X87586988Y-47710000D01*
X87554075Y-47767007D01*
X87520000Y-47894174D01*
X87520000Y-48025826D01*
X87554075Y-48152993D01*
X87586988Y-48210000D01*
X86689364Y-48210000D01*
X86746567Y-48423486D01*
X86746570Y-48423492D01*
X86846399Y-48637578D01*
X86981894Y-48831082D01*
X87103946Y-48953134D01*
X87137431Y-49014457D01*
X87132447Y-49084149D01*
X87090575Y-49140082D01*
X87059598Y-49156997D01*
X86927671Y-49206202D01*
X86927664Y-49206206D01*
X86812455Y-49292452D01*
X86812452Y-49292455D01*
X86726206Y-49407664D01*
X86726202Y-49407671D01*
X86675908Y-49542517D01*
X86669501Y-49602116D01*
X86669500Y-49602135D01*
X86669500Y-50560993D01*
X86649815Y-50628032D01*
X86633181Y-50648674D01*
X85780369Y-51501486D01*
X85780052Y-51501835D01*
X85697032Y-51584855D01*
X85697007Y-51584882D01*
X85422197Y-51902026D01*
X85170681Y-52238010D01*
X84943786Y-52591060D01*
X84943785Y-52591062D01*
X84742645Y-52959417D01*
X84568302Y-53341166D01*
X84506855Y-53505909D01*
X84439499Y-53686496D01*
X84421628Y-53734408D01*
X84303392Y-54137075D01*
X84303389Y-54137086D01*
X84214174Y-54547181D01*
X84154444Y-54962600D01*
X84124500Y-55381218D01*
X84124500Y-58646218D01*
X84124382Y-58651628D01*
X84109039Y-59002992D01*
X84108096Y-59013768D01*
X84062542Y-59359763D01*
X84060664Y-59370416D01*
X83985126Y-59711137D01*
X83982326Y-59721586D01*
X83877381Y-60054422D01*
X83873681Y-60064587D01*
X83751186Y-60360311D01*
X83707344Y-60414715D01*
X83641050Y-60436779D01*
X83573351Y-60419499D01*
X83525741Y-60368362D01*
X83524262Y-60365304D01*
X83450568Y-60207266D01*
X83320047Y-60020861D01*
X83320045Y-60020858D01*
X83159141Y-59859954D01*
X82972734Y-59729432D01*
X82972728Y-59729429D01*
X82944834Y-59716422D01*
X82914724Y-59702381D01*
X82862285Y-59656210D01*
X82843133Y-59589017D01*
X82863348Y-59522135D01*
X82914725Y-59477618D01*
X82972734Y-59450568D01*
X83159139Y-59320047D01*
X83320047Y-59159139D01*
X83450568Y-58972734D01*
X83546739Y-58766496D01*
X83605635Y-58546692D01*
X83625468Y-58320000D01*
X83605635Y-58093308D01*
X83546739Y-57873504D01*
X83450568Y-57667266D01*
X83320047Y-57480861D01*
X83320045Y-57480858D01*
X83159141Y-57319954D01*
X82972734Y-57189432D01*
X82972728Y-57189429D01*
X82914725Y-57162382D01*
X82862285Y-57116210D01*
X82843133Y-57049017D01*
X82863348Y-56982135D01*
X82914725Y-56937618D01*
X82972734Y-56910568D01*
X83159139Y-56780047D01*
X83320047Y-56619139D01*
X83450568Y-56432734D01*
X83546739Y-56226496D01*
X83605635Y-56006692D01*
X83625468Y-55780000D01*
X83605635Y-55553308D01*
X83560916Y-55386415D01*
X83546741Y-55333511D01*
X83546738Y-55333502D01*
X83506088Y-55246328D01*
X83450568Y-55127266D01*
X83320047Y-54940861D01*
X83320045Y-54940858D01*
X83159141Y-54779954D01*
X82972734Y-54649432D01*
X82972728Y-54649429D01*
X82914725Y-54622382D01*
X82862285Y-54576210D01*
X82843133Y-54509017D01*
X82863348Y-54442135D01*
X82914725Y-54397618D01*
X82972734Y-54370568D01*
X83159139Y-54240047D01*
X83320047Y-54079139D01*
X83450568Y-53892734D01*
X83546739Y-53686496D01*
X83605635Y-53466692D01*
X83625468Y-53240000D01*
X83605635Y-53013308D01*
X83546739Y-52793504D01*
X83450568Y-52587266D01*
X83320047Y-52400861D01*
X83320045Y-52400858D01*
X83159141Y-52239954D01*
X82972734Y-52109432D01*
X82972728Y-52109429D01*
X82914725Y-52082382D01*
X82862285Y-52036210D01*
X82843133Y-51969017D01*
X82863348Y-51902135D01*
X82914725Y-51857618D01*
X82972734Y-51830568D01*
X83159139Y-51700047D01*
X83320047Y-51539139D01*
X83450568Y-51352734D01*
X83546739Y-51146496D01*
X83605635Y-50926692D01*
X83625468Y-50700000D01*
X83624882Y-50693306D01*
X83615117Y-50581690D01*
X83605635Y-50473308D01*
X83546739Y-50253504D01*
X83450568Y-50047266D01*
X83320047Y-49860861D01*
X83320045Y-49860858D01*
X83159141Y-49699954D01*
X82972734Y-49569432D01*
X82972728Y-49569429D01*
X82914725Y-49542382D01*
X82862285Y-49496210D01*
X82843133Y-49429017D01*
X82863348Y-49362135D01*
X82914725Y-49317618D01*
X82915643Y-49317190D01*
X82972734Y-49290568D01*
X83159139Y-49160047D01*
X83320047Y-48999139D01*
X83450568Y-48812734D01*
X83546739Y-48606496D01*
X83605635Y-48386692D01*
X83625468Y-48160000D01*
X83605635Y-47933308D01*
X83546739Y-47713504D01*
X83450568Y-47507266D01*
X83320047Y-47320861D01*
X83320045Y-47320858D01*
X83159141Y-47159954D01*
X82972734Y-47029432D01*
X82972732Y-47029431D01*
X82766497Y-46933261D01*
X82766488Y-46933258D01*
X82546697Y-46874366D01*
X82546693Y-46874365D01*
X82546692Y-46874365D01*
X82546691Y-46874364D01*
X82546686Y-46874364D01*
X82320002Y-46854532D01*
X82319998Y-46854532D01*
X82093313Y-46874364D01*
X82093302Y-46874366D01*
X81873511Y-46933258D01*
X81873502Y-46933261D01*
X81667267Y-47029431D01*
X81667265Y-47029432D01*
X81480858Y-47159954D01*
X81319954Y-47320858D01*
X81189432Y-47507265D01*
X81189431Y-47507267D01*
X81093261Y-47713502D01*
X81093258Y-47713511D01*
X81034366Y-47933302D01*
X81034364Y-47933313D01*
X81014532Y-48159998D01*
X81014532Y-48160001D01*
X81034364Y-48386686D01*
X81034366Y-48386697D01*
X81093258Y-48606488D01*
X81093261Y-48606497D01*
X81189431Y-48812732D01*
X81189432Y-48812734D01*
X81319954Y-48999141D01*
X81480858Y-49160045D01*
X81480861Y-49160047D01*
X81667266Y-49290568D01*
X81724357Y-49317190D01*
X81725275Y-49317618D01*
X81777714Y-49363791D01*
X81796866Y-49430984D01*
X81776650Y-49497865D01*
X81725275Y-49542382D01*
X81667267Y-49569431D01*
X81667265Y-49569432D01*
X81480858Y-49699954D01*
X81319954Y-49860858D01*
X81189432Y-50047265D01*
X81189431Y-50047267D01*
X81093261Y-50253502D01*
X81093258Y-50253511D01*
X81034366Y-50473302D01*
X81034364Y-50473313D01*
X81014532Y-50699998D01*
X81014532Y-50700001D01*
X81034364Y-50926686D01*
X81034366Y-50926697D01*
X81093258Y-51146488D01*
X81093261Y-51146497D01*
X81189431Y-51352732D01*
X81189432Y-51352734D01*
X81319954Y-51539141D01*
X81480858Y-51700045D01*
X81480861Y-51700047D01*
X81667266Y-51830568D01*
X81725275Y-51857618D01*
X81777714Y-51903791D01*
X81796866Y-51970984D01*
X81776650Y-52037865D01*
X81725275Y-52082382D01*
X81667267Y-52109431D01*
X81667265Y-52109432D01*
X81480858Y-52239954D01*
X81319954Y-52400858D01*
X81189432Y-52587265D01*
X81189431Y-52587267D01*
X81093261Y-52793502D01*
X81093258Y-52793511D01*
X81034366Y-53013302D01*
X81034364Y-53013313D01*
X81014532Y-53239998D01*
X81014532Y-53240001D01*
X81034364Y-53466686D01*
X81034366Y-53466697D01*
X81093258Y-53686488D01*
X81093261Y-53686497D01*
X81189431Y-53892732D01*
X81189432Y-53892734D01*
X81319954Y-54079141D01*
X81480858Y-54240045D01*
X81480861Y-54240047D01*
X81667266Y-54370568D01*
X81725275Y-54397618D01*
X81777714Y-54443791D01*
X81796866Y-54510984D01*
X81776650Y-54577865D01*
X81725275Y-54622382D01*
X81667267Y-54649431D01*
X81667265Y-54649432D01*
X81480858Y-54779954D01*
X81319954Y-54940858D01*
X81189432Y-55127265D01*
X81189431Y-55127267D01*
X81093261Y-55333502D01*
X81093258Y-55333511D01*
X81034366Y-55553302D01*
X81034364Y-55553313D01*
X81014532Y-55779998D01*
X81014532Y-55780001D01*
X81034364Y-56006686D01*
X81034366Y-56006697D01*
X81093258Y-56226488D01*
X81093261Y-56226497D01*
X81189431Y-56432732D01*
X81189432Y-56432734D01*
X81319954Y-56619141D01*
X81480858Y-56780045D01*
X81480861Y-56780047D01*
X81667266Y-56910568D01*
X81725275Y-56937618D01*
X81777714Y-56983791D01*
X81796866Y-57050984D01*
X81776650Y-57117865D01*
X81725275Y-57162382D01*
X81667267Y-57189431D01*
X81667265Y-57189432D01*
X81480858Y-57319954D01*
X81319954Y-57480858D01*
X81189432Y-57667265D01*
X81189431Y-57667267D01*
X81093261Y-57873502D01*
X81093258Y-57873511D01*
X81034366Y-58093302D01*
X81034364Y-58093313D01*
X81014532Y-58319998D01*
X81014532Y-58320001D01*
X81034364Y-58546686D01*
X81034366Y-58546697D01*
X81093258Y-58766488D01*
X81093261Y-58766497D01*
X81189431Y-58972732D01*
X81189432Y-58972734D01*
X81319954Y-59159141D01*
X81480858Y-59320045D01*
X81480861Y-59320047D01*
X81667266Y-59450568D01*
X81725275Y-59477618D01*
X81777714Y-59523791D01*
X81796866Y-59590984D01*
X81776650Y-59657865D01*
X81725275Y-59702382D01*
X81667267Y-59729431D01*
X81667265Y-59729432D01*
X81480858Y-59859954D01*
X81319954Y-60020858D01*
X81189432Y-60207265D01*
X81189431Y-60207267D01*
X81093261Y-60413502D01*
X81093258Y-60413511D01*
X81034366Y-60633302D01*
X81034364Y-60633313D01*
X81014532Y-60859998D01*
X81014532Y-60860001D01*
X81034364Y-61086686D01*
X81034366Y-61086697D01*
X81093258Y-61306488D01*
X81093261Y-61306497D01*
X81189431Y-61512732D01*
X81189432Y-61512734D01*
X81319954Y-61699141D01*
X81480858Y-61860045D01*
X81480861Y-61860047D01*
X81667266Y-61990568D01*
X81691763Y-62001991D01*
X81725275Y-62017618D01*
X81777714Y-62063791D01*
X81796866Y-62130984D01*
X81776650Y-62197865D01*
X81725275Y-62242382D01*
X81667267Y-62269431D01*
X81667265Y-62269432D01*
X81480858Y-62399954D01*
X81319954Y-62560858D01*
X81189432Y-62747265D01*
X81189431Y-62747267D01*
X81093261Y-62953502D01*
X81093258Y-62953511D01*
X81034366Y-63173302D01*
X81034364Y-63173313D01*
X81014532Y-63399998D01*
X81014532Y-63400001D01*
X81034364Y-63626686D01*
X81034366Y-63626697D01*
X81093258Y-63846488D01*
X81093261Y-63846497D01*
X81189431Y-64052732D01*
X81189432Y-64052734D01*
X81319954Y-64239141D01*
X81480858Y-64400045D01*
X81480861Y-64400047D01*
X81667266Y-64530568D01*
X81873504Y-64626739D01*
X82093308Y-64685635D01*
X82245141Y-64698918D01*
X82310209Y-64724370D01*
X82314837Y-64728133D01*
X82436145Y-64831741D01*
X82436151Y-64831745D01*
X82436156Y-64831749D01*
X82746084Y-65056930D01*
X82746088Y-65056932D01*
X82746091Y-65056934D01*
X83072749Y-65257114D01*
X83072758Y-65257118D01*
X83072766Y-65257123D01*
X83349949Y-65398358D01*
X83414107Y-65431049D01*
X83768058Y-65577664D01*
X84132422Y-65696058D01*
X84504952Y-65785498D01*
X84883351Y-65845435D01*
X85265286Y-65875498D01*
X85364500Y-65875498D01*
X85364512Y-65875500D01*
X85456844Y-65875500D01*
X85543073Y-65875501D01*
X85543078Y-65875500D01*
X87559803Y-65875500D01*
X87594667Y-65875500D01*
X87594680Y-65875503D01*
X87646033Y-65875503D01*
X87646033Y-65875504D01*
X87871646Y-65875503D01*
X88321724Y-65843311D01*
X88768358Y-65779093D01*
X89079724Y-65711359D01*
X89209265Y-65683179D01*
X89209268Y-65683178D01*
X89209273Y-65683177D01*
X89642222Y-65556050D01*
X90064999Y-65398362D01*
X90475449Y-65210915D01*
X90871482Y-64994665D01*
X91251079Y-64750713D01*
X91612305Y-64480303D01*
X91953321Y-64184813D01*
X92044815Y-64093317D01*
X92044820Y-64093314D01*
X92051881Y-64086253D01*
X92051883Y-64086252D01*
X93531159Y-62606975D01*
X93592480Y-62573492D01*
X93662172Y-62578476D01*
X93718105Y-62620348D01*
X93738613Y-62662565D01*
X93793256Y-62866497D01*
X93793480Y-62867112D01*
X93793498Y-62867400D01*
X93794657Y-62871725D01*
X93793788Y-62871957D01*
X93797916Y-62936841D01*
X93764642Y-62997210D01*
X92102934Y-64658920D01*
X92094691Y-64666453D01*
X92093393Y-64667535D01*
X92035657Y-64726191D01*
X92034967Y-64726886D01*
X92033913Y-64727940D01*
X92030727Y-64731014D01*
X91738423Y-65003156D01*
X91730194Y-65010173D01*
X91417218Y-65254307D01*
X91408410Y-65260580D01*
X91075348Y-65476521D01*
X91066026Y-65482003D01*
X90715419Y-65668102D01*
X90705655Y-65672751D01*
X90340161Y-65827598D01*
X90330029Y-65831378D01*
X89952442Y-65953788D01*
X89942020Y-65956671D01*
X89555209Y-66045716D01*
X89544574Y-66047681D01*
X89195934Y-66096465D01*
X89159213Y-66096112D01*
X89143592Y-66093619D01*
X88888238Y-66089721D01*
X88888237Y-66089721D01*
X88888233Y-66089721D01*
X88749685Y-66107516D01*
X88634934Y-66122254D01*
X88634930Y-66122254D01*
X88630539Y-66122819D01*
X88630509Y-66122593D01*
X88611418Y-66124500D01*
X82443991Y-66124500D01*
X82440246Y-66124443D01*
X81894955Y-66107968D01*
X81887478Y-66107516D01*
X81346022Y-66058314D01*
X81338587Y-66057411D01*
X80801100Y-65975609D01*
X80793732Y-65974259D01*
X80262166Y-65860154D01*
X80254893Y-65858362D01*
X79731159Y-65712362D01*
X79724008Y-65710133D01*
X79210079Y-65532789D01*
X79203075Y-65530133D01*
X78700774Y-65322074D01*
X78693944Y-65319000D01*
X78205121Y-65080994D01*
X78198489Y-65077513D01*
X77724930Y-64810426D01*
X77718526Y-64806555D01*
X77667099Y-64773305D01*
X77261955Y-64511361D01*
X77255809Y-64507120D01*
X76817874Y-64184883D01*
X76812004Y-64180284D01*
X76394336Y-63832203D01*
X76388729Y-63827236D01*
X76356677Y-63797064D01*
X76043868Y-63502606D01*
X76008548Y-63442324D01*
X76005644Y-63405414D01*
X76005468Y-63405414D01*
X76005468Y-63403170D01*
X76005336Y-63401501D01*
X76005468Y-63400000D01*
X75985635Y-63173308D01*
X75926739Y-62953504D01*
X75830568Y-62747266D01*
X75700047Y-62560861D01*
X75700045Y-62560858D01*
X75539141Y-62399954D01*
X75352734Y-62269432D01*
X75352728Y-62269429D01*
X75294725Y-62242382D01*
X75242285Y-62196210D01*
X75223133Y-62129017D01*
X75243348Y-62062135D01*
X75294725Y-62017618D01*
X75352734Y-61990568D01*
X75539139Y-61860047D01*
X75700047Y-61699139D01*
X75830568Y-61512734D01*
X75926739Y-61306496D01*
X75985635Y-61086692D01*
X76005468Y-60860000D01*
X76004882Y-60853306D01*
X75995117Y-60741690D01*
X75985635Y-60633308D01*
X75940916Y-60466415D01*
X75926741Y-60413511D01*
X75926738Y-60413502D01*
X75904244Y-60365263D01*
X75830568Y-60207266D01*
X75700047Y-60020861D01*
X75700045Y-60020858D01*
X75539141Y-59859954D01*
X75352734Y-59729432D01*
X75352728Y-59729429D01*
X75324834Y-59716422D01*
X75294724Y-59702381D01*
X75242285Y-59656210D01*
X75223133Y-59589017D01*
X75243348Y-59522135D01*
X75294725Y-59477618D01*
X75352734Y-59450568D01*
X75539139Y-59320047D01*
X75700047Y-59159139D01*
X75830568Y-58972734D01*
X75926739Y-58766496D01*
X75985635Y-58546692D01*
X76005468Y-58320000D01*
X75985635Y-58093308D01*
X75926739Y-57873504D01*
X75830568Y-57667266D01*
X75700047Y-57480861D01*
X75700045Y-57480858D01*
X75539141Y-57319954D01*
X75352734Y-57189432D01*
X75352728Y-57189429D01*
X75294725Y-57162382D01*
X75242285Y-57116210D01*
X75223133Y-57049017D01*
X75243348Y-56982135D01*
X75294725Y-56937618D01*
X75352734Y-56910568D01*
X75539139Y-56780047D01*
X75700047Y-56619139D01*
X75830568Y-56432734D01*
X75926739Y-56226496D01*
X75985635Y-56006692D01*
X76005468Y-55780000D01*
X75985635Y-55553308D01*
X75940916Y-55386415D01*
X75926741Y-55333511D01*
X75926738Y-55333502D01*
X75886088Y-55246328D01*
X75830568Y-55127266D01*
X75700047Y-54940861D01*
X75700045Y-54940858D01*
X75539141Y-54779954D01*
X75352734Y-54649432D01*
X75352728Y-54649429D01*
X75294725Y-54622382D01*
X75242285Y-54576210D01*
X75223133Y-54509017D01*
X75243348Y-54442135D01*
X75294725Y-54397618D01*
X75352734Y-54370568D01*
X75539139Y-54240047D01*
X75700047Y-54079139D01*
X75830568Y-53892734D01*
X75926739Y-53686496D01*
X75985635Y-53466692D01*
X76005468Y-53240000D01*
X75985635Y-53013308D01*
X75926739Y-52793504D01*
X75830568Y-52587266D01*
X75700047Y-52400861D01*
X75700045Y-52400858D01*
X75539141Y-52239954D01*
X75352734Y-52109432D01*
X75352728Y-52109429D01*
X75294725Y-52082382D01*
X75242285Y-52036210D01*
X75223133Y-51969017D01*
X75243348Y-51902135D01*
X75294725Y-51857618D01*
X75352734Y-51830568D01*
X75539139Y-51700047D01*
X75700047Y-51539139D01*
X75830568Y-51352734D01*
X75926739Y-51146496D01*
X75985635Y-50926692D01*
X76005468Y-50700000D01*
X76004882Y-50693306D01*
X75995117Y-50581690D01*
X75985635Y-50473308D01*
X75926739Y-50253504D01*
X75830568Y-50047266D01*
X75700047Y-49860861D01*
X75700045Y-49860858D01*
X75539143Y-49699956D01*
X75529574Y-49693256D01*
X75513912Y-49682289D01*
X75470287Y-49627712D01*
X75463095Y-49558213D01*
X75494617Y-49495859D01*
X75554847Y-49460445D01*
X75571781Y-49457424D01*
X75607380Y-49453596D01*
X75742086Y-49403354D01*
X75742093Y-49403350D01*
X75857187Y-49317190D01*
X75857190Y-49317187D01*
X75943350Y-49202093D01*
X75943354Y-49202086D01*
X75993596Y-49067379D01*
X75993598Y-49067372D01*
X75999999Y-49007844D01*
X76000000Y-49007827D01*
X76000000Y-48410000D01*
X75015686Y-48410000D01*
X75020080Y-48405606D01*
X75072741Y-48314394D01*
X75100000Y-48212661D01*
X75100000Y-48107339D01*
X75072741Y-48005606D01*
X75020080Y-47914394D01*
X75015686Y-47910000D01*
X76000000Y-47910000D01*
X76000000Y-47312172D01*
X75999999Y-47312155D01*
X75993598Y-47252627D01*
X75993596Y-47252620D01*
X75943354Y-47117913D01*
X75943350Y-47117906D01*
X75857190Y-47002812D01*
X75857187Y-47002809D01*
X75742093Y-46916649D01*
X75742086Y-46916645D01*
X75607379Y-46866403D01*
X75607372Y-46866401D01*
X75547844Y-46860000D01*
X74950000Y-46860000D01*
X74950000Y-47844314D01*
X74945606Y-47839920D01*
X74854394Y-47787259D01*
X74752661Y-47760000D01*
X74647339Y-47760000D01*
X74545606Y-47787259D01*
X74454394Y-47839920D01*
X74450000Y-47844314D01*
X74450000Y-46860000D01*
X73852155Y-46860000D01*
X73792627Y-46866401D01*
X73792620Y-46866403D01*
X73657913Y-46916645D01*
X73657906Y-46916649D01*
X73542812Y-47002809D01*
X73542809Y-47002812D01*
X73456649Y-47117906D01*
X73456645Y-47117913D01*
X73406403Y-47252620D01*
X73406401Y-47252627D01*
X73400000Y-47312155D01*
X73400000Y-47910000D01*
X74384314Y-47910000D01*
X74379920Y-47914394D01*
X74327259Y-48005606D01*
X74300000Y-48107339D01*
X74300000Y-48212661D01*
X74327259Y-48314394D01*
X74379920Y-48405606D01*
X74384314Y-48410000D01*
X73400000Y-48410000D01*
X73400000Y-49007844D01*
X73406401Y-49067372D01*
X73406403Y-49067379D01*
X73456645Y-49202086D01*
X73456649Y-49202093D01*
X73542809Y-49317187D01*
X73542812Y-49317190D01*
X73657906Y-49403350D01*
X73657913Y-49403354D01*
X73792620Y-49453596D01*
X73792627Y-49453598D01*
X73828218Y-49457425D01*
X73892769Y-49484163D01*
X73932618Y-49541555D01*
X73935111Y-49611380D01*
X73899459Y-49671469D01*
X73886088Y-49682287D01*
X73860861Y-49699951D01*
X73699954Y-49860858D01*
X73569432Y-50047265D01*
X73569431Y-50047267D01*
X73473261Y-50253502D01*
X73473258Y-50253511D01*
X73414366Y-50473302D01*
X73414364Y-50473313D01*
X73394532Y-50699998D01*
X73394532Y-50700001D01*
X73414364Y-50926686D01*
X73414366Y-50926697D01*
X73473258Y-51146488D01*
X73473261Y-51146497D01*
X73569431Y-51352732D01*
X73569432Y-51352734D01*
X73699954Y-51539141D01*
X73860858Y-51700045D01*
X73860861Y-51700047D01*
X74047266Y-51830568D01*
X74105275Y-51857618D01*
X74157714Y-51903791D01*
X74176866Y-51970984D01*
X74156650Y-52037865D01*
X74105275Y-52082382D01*
X74047267Y-52109431D01*
X74047265Y-52109432D01*
X73860858Y-52239954D01*
X73699954Y-52400858D01*
X73569432Y-52587265D01*
X73569431Y-52587267D01*
X73473261Y-52793502D01*
X73473258Y-52793511D01*
X73414366Y-53013302D01*
X73414364Y-53013313D01*
X73394532Y-53239998D01*
X73394532Y-53240001D01*
X73414364Y-53466686D01*
X73414366Y-53466697D01*
X73473258Y-53686488D01*
X73473261Y-53686497D01*
X73569431Y-53892732D01*
X73569432Y-53892734D01*
X73699954Y-54079141D01*
X73860858Y-54240045D01*
X73860861Y-54240047D01*
X74047266Y-54370568D01*
X74105275Y-54397618D01*
X74157714Y-54443791D01*
X74176866Y-54510984D01*
X74156650Y-54577865D01*
X74105275Y-54622382D01*
X74047267Y-54649431D01*
X74047265Y-54649432D01*
X73860858Y-54779954D01*
X73699954Y-54940858D01*
X73569432Y-55127265D01*
X73569431Y-55127267D01*
X73473261Y-55333502D01*
X73473258Y-55333511D01*
X73414366Y-55553302D01*
X73414364Y-55553313D01*
X73394532Y-55779998D01*
X73394532Y-55780001D01*
X73414364Y-56006686D01*
X73414366Y-56006697D01*
X73473258Y-56226488D01*
X73473261Y-56226497D01*
X73569431Y-56432732D01*
X73569432Y-56432734D01*
X73699954Y-56619141D01*
X73860858Y-56780045D01*
X73860861Y-56780047D01*
X74047266Y-56910568D01*
X74105275Y-56937618D01*
X74157714Y-56983791D01*
X74176866Y-57050984D01*
X74156650Y-57117865D01*
X74105275Y-57162382D01*
X74047267Y-57189431D01*
X74047265Y-57189432D01*
X73860858Y-57319954D01*
X73699954Y-57480858D01*
X73569432Y-57667265D01*
X73569431Y-57667267D01*
X73473261Y-57873502D01*
X73473258Y-57873511D01*
X73414366Y-58093302D01*
X73414364Y-58093313D01*
X73394532Y-58319998D01*
X73394532Y-58320001D01*
X73414364Y-58546686D01*
X73414366Y-58546697D01*
X73473258Y-58766488D01*
X73473261Y-58766497D01*
X73569431Y-58972732D01*
X73569432Y-58972734D01*
X73699954Y-59159141D01*
X73860858Y-59320045D01*
X73860861Y-59320047D01*
X74047266Y-59450568D01*
X74105275Y-59477618D01*
X74157714Y-59523791D01*
X74176866Y-59590984D01*
X74156650Y-59657865D01*
X74105275Y-59702382D01*
X74047267Y-59729431D01*
X74047265Y-59729432D01*
X73860858Y-59859954D01*
X73699954Y-60020858D01*
X73569432Y-60207265D01*
X73569431Y-60207267D01*
X73473261Y-60413502D01*
X73473258Y-60413511D01*
X73414366Y-60633302D01*
X73414364Y-60633313D01*
X73394532Y-60859998D01*
X73394532Y-60860001D01*
X73414364Y-61086686D01*
X73414366Y-61086697D01*
X73473258Y-61306488D01*
X73473261Y-61306497D01*
X73569431Y-61512732D01*
X73569432Y-61512734D01*
X73699954Y-61699141D01*
X73860858Y-61860045D01*
X73860861Y-61860047D01*
X74047266Y-61990568D01*
X74071763Y-62001991D01*
X74105275Y-62017618D01*
X74157714Y-62063791D01*
X74176866Y-62130984D01*
X74156650Y-62197865D01*
X74105275Y-62242382D01*
X74047267Y-62269431D01*
X74047265Y-62269432D01*
X73860858Y-62399954D01*
X73699954Y-62560858D01*
X73569432Y-62747265D01*
X73569431Y-62747267D01*
X73473261Y-62953502D01*
X73473258Y-62953511D01*
X73414366Y-63173302D01*
X73414364Y-63173313D01*
X73394532Y-63399998D01*
X73394532Y-63400001D01*
X73414364Y-63626686D01*
X73414366Y-63626697D01*
X73473258Y-63846488D01*
X73473261Y-63846497D01*
X73569431Y-64052732D01*
X73569432Y-64052734D01*
X73699954Y-64239141D01*
X73860858Y-64400045D01*
X73860861Y-64400047D01*
X74047266Y-64530568D01*
X74253504Y-64626739D01*
X74473308Y-64685635D01*
X74700000Y-64705468D01*
X74704270Y-64705094D01*
X74772770Y-64718859D01*
X74802762Y-64740941D01*
X74967745Y-64905924D01*
X75422793Y-65312577D01*
X75432905Y-65320641D01*
X75899910Y-65693064D01*
X75899918Y-65693070D01*
X75899926Y-65693076D01*
X76397644Y-66046223D01*
X76914379Y-66370908D01*
X77423474Y-66652273D01*
X77448516Y-66666113D01*
X77448519Y-66666114D01*
X77998349Y-66930897D01*
X78562155Y-67164430D01*
X78562160Y-67164432D01*
X78562168Y-67164435D01*
X79138197Y-67365994D01*
X79724621Y-67534938D01*
X79724633Y-67534940D01*
X79724634Y-67534941D01*
X80319600Y-67670736D01*
X80539503Y-67708098D01*
X80921249Y-67772958D01*
X80921258Y-67772959D01*
X80921264Y-67772960D01*
X81177836Y-67801867D01*
X81527687Y-67841285D01*
X82137002Y-67875501D01*
X82442139Y-67875500D01*
X82528368Y-67875500D01*
X88586992Y-67875500D01*
X88654031Y-67895185D01*
X88699786Y-67947989D01*
X88709730Y-68017147D01*
X88680705Y-68080703D01*
X88674673Y-68087181D01*
X85866726Y-70895128D01*
X85866677Y-70895181D01*
X85748884Y-71012976D01*
X85622100Y-71157546D01*
X85408898Y-71400656D01*
X85203298Y-71668599D01*
X85094994Y-71809742D01*
X84808538Y-72238453D01*
X84808522Y-72238478D01*
X84550710Y-72685021D01*
X84322655Y-73147469D01*
X84125329Y-73623854D01*
X84125325Y-73623865D01*
X83959583Y-74112123D01*
X83959581Y-74112131D01*
X83826122Y-74610202D01*
X83826118Y-74610220D01*
X83725530Y-75115913D01*
X83725528Y-75115924D01*
X83658223Y-75627152D01*
X83658223Y-75627154D01*
X83624500Y-76141671D01*
X83624500Y-95618289D01*
X83624421Y-95622715D01*
X83609053Y-96052988D01*
X83608422Y-96061817D01*
X83562634Y-96487710D01*
X83561374Y-96496472D01*
X83485320Y-96918008D01*
X83483438Y-96926657D01*
X83377508Y-97341686D01*
X83375014Y-97350179D01*
X83239747Y-97756588D01*
X83236654Y-97764882D01*
X83072734Y-98160618D01*
X83069057Y-98168669D01*
X82877326Y-98551700D01*
X82873084Y-98559470D01*
X82654510Y-98927856D01*
X82649724Y-98935302D01*
X82405435Y-99287145D01*
X82400130Y-99294231D01*
X82131370Y-99627741D01*
X82125574Y-99634431D01*
X81832105Y-99949639D01*
X81829031Y-99952824D01*
X81488836Y-100293018D01*
X81427513Y-100326503D01*
X81357821Y-100321519D01*
X81301888Y-100279647D01*
X81281381Y-100237432D01*
X81226739Y-100033504D01*
X81130568Y-99827266D01*
X81000047Y-99640861D01*
X81000045Y-99640858D01*
X80839141Y-99479954D01*
X80652734Y-99349432D01*
X80652728Y-99349429D01*
X80625038Y-99336517D01*
X80594724Y-99322381D01*
X80542285Y-99276210D01*
X80523133Y-99209017D01*
X80543348Y-99142135D01*
X80594725Y-99097618D01*
X80652734Y-99070568D01*
X80839139Y-98940047D01*
X81000047Y-98779139D01*
X81130568Y-98592734D01*
X81226739Y-98386496D01*
X81285635Y-98166692D01*
X81305468Y-97940000D01*
X81285635Y-97713308D01*
X81226739Y-97493504D01*
X81130568Y-97287266D01*
X81000047Y-97100861D01*
X81000045Y-97100858D01*
X80839141Y-96939954D01*
X80652734Y-96809432D01*
X80652728Y-96809429D01*
X80594725Y-96782382D01*
X80542285Y-96736210D01*
X80523133Y-96669017D01*
X80543348Y-96602135D01*
X80594725Y-96557618D01*
X80652734Y-96530568D01*
X80839139Y-96400047D01*
X81000047Y-96239139D01*
X81130568Y-96052734D01*
X81226739Y-95846496D01*
X81285635Y-95626692D01*
X81305468Y-95400000D01*
X81285635Y-95173308D01*
X81226739Y-94953504D01*
X81130568Y-94747266D01*
X81000047Y-94560861D01*
X81000045Y-94560858D01*
X80839141Y-94399954D01*
X80652734Y-94269432D01*
X80652728Y-94269429D01*
X80594725Y-94242382D01*
X80542285Y-94196210D01*
X80523133Y-94129017D01*
X80543348Y-94062135D01*
X80594725Y-94017618D01*
X80652734Y-93990568D01*
X80839139Y-93860047D01*
X81000047Y-93699139D01*
X81130568Y-93512734D01*
X81226739Y-93306496D01*
X81285635Y-93086692D01*
X81305468Y-92860000D01*
X81285635Y-92633308D01*
X81226739Y-92413504D01*
X81130568Y-92207266D01*
X81000047Y-92020861D01*
X81000045Y-92020858D01*
X80839141Y-91859954D01*
X80652734Y-91729432D01*
X80652728Y-91729429D01*
X80594725Y-91702382D01*
X80542285Y-91656210D01*
X80523133Y-91589017D01*
X80543348Y-91522135D01*
X80594725Y-91477618D01*
X80652734Y-91450568D01*
X80839139Y-91320047D01*
X81000047Y-91159139D01*
X81130568Y-90972734D01*
X81226739Y-90766496D01*
X81285635Y-90546692D01*
X81305468Y-90320000D01*
X81285635Y-90093308D01*
X81226739Y-89873504D01*
X81130568Y-89667266D01*
X81000047Y-89480861D01*
X81000045Y-89480858D01*
X80839141Y-89319954D01*
X80652734Y-89189432D01*
X80652728Y-89189429D01*
X80594725Y-89162382D01*
X80542285Y-89116210D01*
X80523133Y-89049017D01*
X80543348Y-88982135D01*
X80594725Y-88937618D01*
X80652734Y-88910568D01*
X80839139Y-88780047D01*
X81000047Y-88619139D01*
X81130568Y-88432734D01*
X81226739Y-88226496D01*
X81285635Y-88006692D01*
X81305468Y-87780000D01*
X81285635Y-87553308D01*
X81226739Y-87333504D01*
X81130568Y-87127266D01*
X81000047Y-86940861D01*
X81000045Y-86940858D01*
X80839141Y-86779954D01*
X80652734Y-86649432D01*
X80652728Y-86649429D01*
X80594725Y-86622382D01*
X80542285Y-86576210D01*
X80523133Y-86509017D01*
X80543348Y-86442135D01*
X80594725Y-86397618D01*
X80652734Y-86370568D01*
X80839139Y-86240047D01*
X81000047Y-86079139D01*
X81130568Y-85892734D01*
X81226739Y-85686496D01*
X81285635Y-85466692D01*
X81305468Y-85240000D01*
X81285635Y-85013308D01*
X81226739Y-84793504D01*
X81130568Y-84587266D01*
X81000047Y-84400861D01*
X81000045Y-84400858D01*
X80839141Y-84239954D01*
X80652734Y-84109432D01*
X80652728Y-84109429D01*
X80594725Y-84082382D01*
X80542285Y-84036210D01*
X80523133Y-83969017D01*
X80543348Y-83902135D01*
X80594725Y-83857618D01*
X80652734Y-83830568D01*
X80839139Y-83700047D01*
X81000047Y-83539139D01*
X81130568Y-83352734D01*
X81226739Y-83146496D01*
X81285635Y-82926692D01*
X81305468Y-82700000D01*
X81285635Y-82473308D01*
X81226739Y-82253504D01*
X81130568Y-82047266D01*
X81000047Y-81860861D01*
X81000045Y-81860858D01*
X80839141Y-81699954D01*
X80652734Y-81569432D01*
X80652728Y-81569429D01*
X80594725Y-81542382D01*
X80542285Y-81496210D01*
X80523133Y-81429017D01*
X80543348Y-81362135D01*
X80594725Y-81317618D01*
X80652734Y-81290568D01*
X80839139Y-81160047D01*
X81000047Y-80999139D01*
X81130568Y-80812734D01*
X81226739Y-80606496D01*
X81285635Y-80386692D01*
X81305468Y-80160000D01*
X81285635Y-79933308D01*
X81226739Y-79713504D01*
X81130568Y-79507266D01*
X81000047Y-79320861D01*
X81000045Y-79320858D01*
X80839141Y-79159954D01*
X80652734Y-79029432D01*
X80652728Y-79029429D01*
X80594725Y-79002382D01*
X80542285Y-78956210D01*
X80523133Y-78889017D01*
X80543348Y-78822135D01*
X80594725Y-78777618D01*
X80595319Y-78777341D01*
X80652734Y-78750568D01*
X80839139Y-78620047D01*
X81000047Y-78459139D01*
X81130568Y-78272734D01*
X81226739Y-78066496D01*
X81285635Y-77846692D01*
X81305468Y-77620000D01*
X81285635Y-77393308D01*
X81226739Y-77173504D01*
X81130568Y-76967266D01*
X81000047Y-76780861D01*
X81000045Y-76780858D01*
X80839141Y-76619954D01*
X80652734Y-76489432D01*
X80652728Y-76489429D01*
X80594725Y-76462382D01*
X80542285Y-76416210D01*
X80523133Y-76349017D01*
X80543348Y-76282135D01*
X80594725Y-76237618D01*
X80652734Y-76210568D01*
X80839139Y-76080047D01*
X81000047Y-75919139D01*
X81130568Y-75732734D01*
X81226739Y-75526496D01*
X81285635Y-75306692D01*
X81305468Y-75080000D01*
X81285635Y-74853308D01*
X81226739Y-74633504D01*
X81130568Y-74427266D01*
X81000047Y-74240861D01*
X81000045Y-74240858D01*
X80839141Y-74079954D01*
X80652734Y-73949432D01*
X80652728Y-73949429D01*
X80594725Y-73922382D01*
X80542285Y-73876210D01*
X80523133Y-73809017D01*
X80543348Y-73742135D01*
X80594725Y-73697618D01*
X80652734Y-73670568D01*
X80839139Y-73540047D01*
X81000047Y-73379139D01*
X81130568Y-73192734D01*
X81226739Y-72986496D01*
X81285635Y-72766692D01*
X81305468Y-72540000D01*
X81285635Y-72313308D01*
X81226739Y-72093504D01*
X81130568Y-71887266D01*
X81000047Y-71700861D01*
X81000045Y-71700858D01*
X80839143Y-71539956D01*
X80814536Y-71522726D01*
X80770912Y-71468149D01*
X80763719Y-71398650D01*
X80795241Y-71336296D01*
X80855471Y-71300882D01*
X80872404Y-71297861D01*
X80907483Y-71294091D01*
X81042331Y-71243796D01*
X81157546Y-71157546D01*
X81243796Y-71042331D01*
X81294091Y-70907483D01*
X81300500Y-70847873D01*
X81300499Y-69152128D01*
X81294091Y-69092517D01*
X81275442Y-69042517D01*
X81243797Y-68957671D01*
X81243793Y-68957664D01*
X81157547Y-68842455D01*
X81157544Y-68842452D01*
X81042335Y-68756206D01*
X81042328Y-68756202D01*
X80907482Y-68705908D01*
X80907483Y-68705908D01*
X80847883Y-68699501D01*
X80847881Y-68699500D01*
X80847873Y-68699500D01*
X80847864Y-68699500D01*
X79152129Y-68699500D01*
X79152123Y-68699501D01*
X79092516Y-68705908D01*
X78957671Y-68756202D01*
X78957664Y-68756206D01*
X78835355Y-68847768D01*
X78833560Y-68845370D01*
X78785404Y-68871666D01*
X78759046Y-68874500D01*
X76131035Y-68874500D01*
X76063996Y-68854815D01*
X76031768Y-68824810D01*
X76007550Y-68792458D01*
X76007547Y-68792455D01*
X76007546Y-68792454D01*
X76007542Y-68792451D01*
X75892335Y-68706206D01*
X75892328Y-68706202D01*
X75757482Y-68655908D01*
X75757483Y-68655908D01*
X75697883Y-68649501D01*
X75697881Y-68649500D01*
X75697873Y-68649500D01*
X75697864Y-68649500D01*
X73902129Y-68649500D01*
X73902123Y-68649501D01*
X73842516Y-68655908D01*
X73707671Y-68706202D01*
X73707664Y-68706206D01*
X73592455Y-68792452D01*
X73592452Y-68792455D01*
X73506206Y-68907664D01*
X73506202Y-68907671D01*
X73455908Y-69042517D01*
X73450533Y-69092516D01*
X73449501Y-69102123D01*
X73449500Y-69102135D01*
X73449500Y-70897870D01*
X73449501Y-70897876D01*
X73455908Y-70957483D01*
X73506202Y-71092328D01*
X73506206Y-71092335D01*
X73592452Y-71207544D01*
X73592455Y-71207547D01*
X73707664Y-71293793D01*
X73707671Y-71293797D01*
X73839081Y-71342810D01*
X73895015Y-71384681D01*
X73919432Y-71450145D01*
X73904580Y-71518418D01*
X73883430Y-71546673D01*
X73761503Y-71668600D01*
X73625965Y-71862169D01*
X73625964Y-71862171D01*
X73526098Y-72076335D01*
X73526094Y-72076344D01*
X73464938Y-72304586D01*
X73464936Y-72304596D01*
X73444341Y-72539999D01*
X73444341Y-72540000D01*
X73464936Y-72775403D01*
X73464938Y-72775413D01*
X73526094Y-73003655D01*
X73526096Y-73003659D01*
X73526097Y-73003663D01*
X73593155Y-73147469D01*
X73625965Y-73217830D01*
X73625967Y-73217834D01*
X73761501Y-73411395D01*
X73761506Y-73411402D01*
X73928597Y-73578493D01*
X73928603Y-73578498D01*
X74114158Y-73708425D01*
X74157783Y-73763002D01*
X74164977Y-73832500D01*
X74133454Y-73894855D01*
X74114158Y-73911575D01*
X73928597Y-74041505D01*
X73761505Y-74208597D01*
X73625965Y-74402169D01*
X73625964Y-74402171D01*
X73526098Y-74616335D01*
X73526094Y-74616344D01*
X73464938Y-74844586D01*
X73464936Y-74844596D01*
X73444341Y-75079999D01*
X73444341Y-75080000D01*
X73464936Y-75315403D01*
X73464938Y-75315413D01*
X73526094Y-75543655D01*
X73526096Y-75543659D01*
X73526097Y-75543663D01*
X73565026Y-75627146D01*
X73625965Y-75757830D01*
X73625967Y-75757834D01*
X73761501Y-75951395D01*
X73761506Y-75951402D01*
X73928597Y-76118493D01*
X73928603Y-76118498D01*
X74114158Y-76248425D01*
X74157783Y-76303002D01*
X74164977Y-76372500D01*
X74133454Y-76434855D01*
X74114158Y-76451575D01*
X73928597Y-76581505D01*
X73761505Y-76748597D01*
X73625965Y-76942169D01*
X73625964Y-76942171D01*
X73526098Y-77156335D01*
X73526094Y-77156344D01*
X73464938Y-77384586D01*
X73464936Y-77384596D01*
X73444341Y-77619999D01*
X73444341Y-77620000D01*
X73464936Y-77855403D01*
X73464938Y-77855413D01*
X73526094Y-78083655D01*
X73526096Y-78083659D01*
X73526097Y-78083663D01*
X73614145Y-78272482D01*
X73625965Y-78297830D01*
X73625967Y-78297834D01*
X73761501Y-78491395D01*
X73761506Y-78491402D01*
X73928597Y-78658493D01*
X73928603Y-78658498D01*
X74114158Y-78788425D01*
X74157783Y-78843002D01*
X74164977Y-78912500D01*
X74133454Y-78974855D01*
X74114158Y-78991575D01*
X73928597Y-79121505D01*
X73761505Y-79288597D01*
X73625965Y-79482169D01*
X73625964Y-79482171D01*
X73526098Y-79696335D01*
X73526094Y-79696344D01*
X73464938Y-79924586D01*
X73464936Y-79924596D01*
X73444341Y-80159999D01*
X73444341Y-80160000D01*
X73464936Y-80395403D01*
X73464938Y-80395413D01*
X73526094Y-80623655D01*
X73526096Y-80623659D01*
X73526097Y-80623663D01*
X73614262Y-80812732D01*
X73625965Y-80837830D01*
X73625967Y-80837834D01*
X73761501Y-81031395D01*
X73761506Y-81031402D01*
X73928597Y-81198493D01*
X73928603Y-81198498D01*
X74114158Y-81328425D01*
X74157783Y-81383002D01*
X74164977Y-81452500D01*
X74133454Y-81514855D01*
X74114158Y-81531575D01*
X73928597Y-81661505D01*
X73761505Y-81828597D01*
X73625965Y-82022169D01*
X73625964Y-82022171D01*
X73526098Y-82236335D01*
X73526094Y-82236344D01*
X73464938Y-82464586D01*
X73464936Y-82464596D01*
X73444341Y-82699999D01*
X73444341Y-82700000D01*
X73464936Y-82935403D01*
X73464938Y-82935413D01*
X73526094Y-83163655D01*
X73526096Y-83163659D01*
X73526097Y-83163663D01*
X73614262Y-83352732D01*
X73625965Y-83377830D01*
X73625967Y-83377834D01*
X73761501Y-83571395D01*
X73761506Y-83571402D01*
X73928597Y-83738493D01*
X73928603Y-83738498D01*
X74114158Y-83868425D01*
X74157783Y-83923002D01*
X74164977Y-83992500D01*
X74133454Y-84054855D01*
X74114158Y-84071575D01*
X73928597Y-84201505D01*
X73761505Y-84368597D01*
X73625965Y-84562169D01*
X73625964Y-84562171D01*
X73526098Y-84776335D01*
X73526094Y-84776344D01*
X73464938Y-85004586D01*
X73464936Y-85004596D01*
X73444341Y-85239999D01*
X73444341Y-85240000D01*
X73464936Y-85475403D01*
X73464938Y-85475413D01*
X73526094Y-85703655D01*
X73526096Y-85703659D01*
X73526097Y-85703663D01*
X73614262Y-85892732D01*
X73625965Y-85917830D01*
X73625967Y-85917834D01*
X73761501Y-86111395D01*
X73761506Y-86111402D01*
X73928597Y-86278493D01*
X73928603Y-86278498D01*
X74114158Y-86408425D01*
X74157783Y-86463002D01*
X74164977Y-86532500D01*
X74133454Y-86594855D01*
X74114158Y-86611575D01*
X73928597Y-86741505D01*
X73761505Y-86908597D01*
X73625965Y-87102169D01*
X73625964Y-87102171D01*
X73526098Y-87316335D01*
X73526094Y-87316344D01*
X73464938Y-87544586D01*
X73464936Y-87544596D01*
X73444341Y-87779999D01*
X73444341Y-87780000D01*
X73464936Y-88015403D01*
X73464938Y-88015413D01*
X73526094Y-88243655D01*
X73526096Y-88243659D01*
X73526097Y-88243663D01*
X73614262Y-88432732D01*
X73625965Y-88457830D01*
X73625967Y-88457834D01*
X73761501Y-88651395D01*
X73761506Y-88651402D01*
X73928597Y-88818493D01*
X73928603Y-88818498D01*
X74114158Y-88948425D01*
X74157783Y-89003002D01*
X74164977Y-89072500D01*
X74133454Y-89134855D01*
X74114158Y-89151575D01*
X73928597Y-89281505D01*
X73761505Y-89448597D01*
X73625965Y-89642169D01*
X73625964Y-89642171D01*
X73526098Y-89856335D01*
X73526094Y-89856344D01*
X73464938Y-90084586D01*
X73464936Y-90084596D01*
X73444341Y-90319999D01*
X73444341Y-90320000D01*
X73464936Y-90555403D01*
X73464938Y-90555413D01*
X73526094Y-90783655D01*
X73526096Y-90783659D01*
X73526097Y-90783663D01*
X73614262Y-90972732D01*
X73625965Y-90997830D01*
X73625967Y-90997834D01*
X73761501Y-91191395D01*
X73761506Y-91191402D01*
X73928597Y-91358493D01*
X73928603Y-91358498D01*
X74114158Y-91488425D01*
X74157783Y-91543002D01*
X74164977Y-91612500D01*
X74133454Y-91674855D01*
X74114158Y-91691575D01*
X73928597Y-91821505D01*
X73761505Y-91988597D01*
X73625965Y-92182169D01*
X73625964Y-92182171D01*
X73526098Y-92396335D01*
X73526094Y-92396344D01*
X73464938Y-92624586D01*
X73464936Y-92624596D01*
X73444341Y-92859999D01*
X73444341Y-92860000D01*
X73464936Y-93095403D01*
X73464938Y-93095413D01*
X73526094Y-93323655D01*
X73526096Y-93323659D01*
X73526097Y-93323663D01*
X73614262Y-93512732D01*
X73625965Y-93537830D01*
X73625967Y-93537834D01*
X73761501Y-93731395D01*
X73761506Y-93731402D01*
X73928597Y-93898493D01*
X73928603Y-93898498D01*
X74114158Y-94028425D01*
X74157783Y-94083002D01*
X74164977Y-94152500D01*
X74133454Y-94214855D01*
X74114158Y-94231575D01*
X73928597Y-94361505D01*
X73761505Y-94528597D01*
X73625965Y-94722169D01*
X73625964Y-94722171D01*
X73526098Y-94936335D01*
X73526094Y-94936344D01*
X73464938Y-95164586D01*
X73464936Y-95164596D01*
X73444341Y-95399999D01*
X73444341Y-95400000D01*
X73464936Y-95635403D01*
X73464938Y-95635413D01*
X73526094Y-95863655D01*
X73526096Y-95863659D01*
X73526097Y-95863663D01*
X73614262Y-96052732D01*
X73625965Y-96077830D01*
X73625967Y-96077834D01*
X73761501Y-96271395D01*
X73761506Y-96271402D01*
X73928597Y-96438493D01*
X73928603Y-96438498D01*
X74114158Y-96568425D01*
X74157783Y-96623002D01*
X74164977Y-96692500D01*
X74133454Y-96754855D01*
X74114158Y-96771575D01*
X73928597Y-96901505D01*
X73761505Y-97068597D01*
X73625965Y-97262169D01*
X73625964Y-97262171D01*
X73526098Y-97476335D01*
X73526094Y-97476344D01*
X73464938Y-97704586D01*
X73464936Y-97704596D01*
X73444341Y-97939999D01*
X73444341Y-97940000D01*
X73464936Y-98175403D01*
X73464938Y-98175413D01*
X73526094Y-98403655D01*
X73526096Y-98403659D01*
X73526097Y-98403663D01*
X73598751Y-98559470D01*
X73625965Y-98617830D01*
X73625967Y-98617834D01*
X73761501Y-98811395D01*
X73761506Y-98811402D01*
X73928597Y-98978493D01*
X73928603Y-98978498D01*
X74114158Y-99108425D01*
X74157783Y-99163002D01*
X74164977Y-99232500D01*
X74133454Y-99294855D01*
X74114158Y-99311575D01*
X73928597Y-99441505D01*
X73761505Y-99608597D01*
X73625965Y-99802169D01*
X73625964Y-99802171D01*
X73526098Y-100016335D01*
X73526094Y-100016344D01*
X73464938Y-100244586D01*
X73464936Y-100244596D01*
X73444341Y-100479999D01*
X73444341Y-100480000D01*
X73464936Y-100715403D01*
X73464938Y-100715413D01*
X73526094Y-100943655D01*
X73526096Y-100943659D01*
X73526097Y-100943663D01*
X73555643Y-101007024D01*
X73625965Y-101157830D01*
X73625967Y-101157834D01*
X73761501Y-101351395D01*
X73761506Y-101351402D01*
X73928597Y-101518493D01*
X73928603Y-101518498D01*
X74114158Y-101648425D01*
X74157783Y-101703002D01*
X74164977Y-101772500D01*
X74133454Y-101834855D01*
X74114158Y-101851575D01*
X73928597Y-101981505D01*
X73761505Y-102148597D01*
X73625965Y-102342169D01*
X73625964Y-102342171D01*
X73526098Y-102556335D01*
X73526094Y-102556344D01*
X73464938Y-102784586D01*
X73464936Y-102784596D01*
X73444341Y-103019999D01*
X73444341Y-103020000D01*
X73464936Y-103255403D01*
X73464938Y-103255413D01*
X73526094Y-103483655D01*
X73526096Y-103483659D01*
X73526097Y-103483663D01*
X73614261Y-103672731D01*
X73625965Y-103697830D01*
X73625967Y-103697834D01*
X73761501Y-103891395D01*
X73761506Y-103891402D01*
X73928597Y-104058493D01*
X73928603Y-104058498D01*
X74114158Y-104188425D01*
X74157783Y-104243002D01*
X74164977Y-104312500D01*
X74133454Y-104374855D01*
X74114158Y-104391575D01*
X73928597Y-104521505D01*
X73761505Y-104688597D01*
X73625965Y-104882169D01*
X73625964Y-104882171D01*
X73526098Y-105096335D01*
X73526094Y-105096344D01*
X73464938Y-105324586D01*
X73464936Y-105324596D01*
X73444341Y-105559999D01*
X73444341Y-105560000D01*
X73464936Y-105795403D01*
X73464938Y-105795413D01*
X73526094Y-106023655D01*
X73526096Y-106023659D01*
X73526097Y-106023663D01*
X73589333Y-106159272D01*
X73625965Y-106237830D01*
X73625967Y-106237834D01*
X73681658Y-106317368D01*
X73761505Y-106431401D01*
X73928599Y-106598495D01*
X74025384Y-106666265D01*
X74122165Y-106734032D01*
X74122167Y-106734033D01*
X74122170Y-106734035D01*
X74336337Y-106833903D01*
X74564592Y-106895063D01*
X74752918Y-106911539D01*
X74799999Y-106915659D01*
X74800000Y-106915659D01*
X74800001Y-106915659D01*
X74839234Y-106912226D01*
X75035408Y-106895063D01*
X75263663Y-106833903D01*
X75477830Y-106734035D01*
X75500191Y-106718377D01*
X75515120Y-106707925D01*
X75581327Y-106685598D01*
X75586243Y-106685500D01*
X79308908Y-106685500D01*
X79361311Y-106697117D01*
X79553504Y-106786739D01*
X79773308Y-106845635D01*
X79935230Y-106859801D01*
X79999998Y-106865468D01*
X80000000Y-106865468D01*
X80000002Y-106865468D01*
X80056673Y-106860509D01*
X80226692Y-106845635D01*
X80446496Y-106786739D01*
X80652734Y-106690568D01*
X80839139Y-106560047D01*
X80865431Y-106533755D01*
X81000041Y-106399146D01*
X81000043Y-106399143D01*
X81000047Y-106399139D01*
X81026886Y-106360806D01*
X81081008Y-106317369D01*
X81257472Y-106244279D01*
X81471971Y-106120441D01*
X81598098Y-106023664D01*
X81668461Y-105969675D01*
X81668465Y-105969670D01*
X81668472Y-105969666D01*
X81689414Y-105948723D01*
X81689449Y-105948693D01*
X81695080Y-105943061D01*
X81695083Y-105943060D01*
X81756043Y-105882100D01*
X81817017Y-105821128D01*
X81817019Y-105821123D01*
X81822854Y-105815289D01*
X81822861Y-105815280D01*
X84786252Y-102851891D01*
X84786253Y-102851888D01*
X84790743Y-102847399D01*
X84790870Y-102847257D01*
X84884806Y-102753323D01*
X85180296Y-102412308D01*
X85450706Y-102051082D01*
X85470712Y-102019953D01*
X85578921Y-101851576D01*
X85694658Y-101671486D01*
X85910908Y-101275454D01*
X86098355Y-100865005D01*
X86256044Y-100442228D01*
X86383171Y-100009280D01*
X86384636Y-100002548D01*
X86465033Y-99632975D01*
X86479088Y-99568366D01*
X86543306Y-99121732D01*
X86575499Y-98671655D01*
X86575500Y-98446042D01*
X86575500Y-98359813D01*
X86575500Y-77056676D01*
X86575618Y-77051267D01*
X86587426Y-76780858D01*
X86592642Y-76661400D01*
X86593581Y-76650666D01*
X86644168Y-76266443D01*
X86646040Y-76255824D01*
X86729924Y-75877464D01*
X86732713Y-75867052D01*
X86849254Y-75497445D01*
X86852943Y-75487310D01*
X87001255Y-75129261D01*
X87005804Y-75119507D01*
X87184758Y-74775748D01*
X87190151Y-74766406D01*
X87398378Y-74439562D01*
X87404571Y-74430720D01*
X87407221Y-74427267D01*
X87640488Y-74123274D01*
X87647418Y-74115015D01*
X87911699Y-73826609D01*
X87915401Y-73822741D01*
X87973831Y-73764313D01*
X87973832Y-73764310D01*
X87980893Y-73757250D01*
X87980899Y-73757242D01*
X91738143Y-69999998D01*
X93934532Y-69999998D01*
X93934532Y-70000001D01*
X93954364Y-70226686D01*
X93954366Y-70226697D01*
X94013258Y-70446488D01*
X94013261Y-70446497D01*
X94109431Y-70652732D01*
X94109432Y-70652734D01*
X94239954Y-70839141D01*
X94400858Y-71000045D01*
X94400861Y-71000047D01*
X94587266Y-71130568D01*
X94645275Y-71157618D01*
X94697714Y-71203791D01*
X94716866Y-71270984D01*
X94696650Y-71337865D01*
X94645275Y-71382381D01*
X94628272Y-71390310D01*
X94587267Y-71409431D01*
X94587265Y-71409432D01*
X94400858Y-71539954D01*
X94239954Y-71700858D01*
X94109432Y-71887265D01*
X94109431Y-71887267D01*
X94013261Y-72093502D01*
X94013258Y-72093511D01*
X93954366Y-72313302D01*
X93954364Y-72313313D01*
X93934532Y-72539998D01*
X93934532Y-72540001D01*
X93954364Y-72766686D01*
X93954366Y-72766697D01*
X94013258Y-72986488D01*
X94013261Y-72986497D01*
X94109431Y-73192732D01*
X94109432Y-73192734D01*
X94239954Y-73379141D01*
X94400858Y-73540045D01*
X94400861Y-73540047D01*
X94587266Y-73670568D01*
X94624486Y-73687924D01*
X94645275Y-73697618D01*
X94697714Y-73743791D01*
X94716866Y-73810984D01*
X94696650Y-73877865D01*
X94645275Y-73922382D01*
X94587267Y-73949431D01*
X94587265Y-73949432D01*
X94400858Y-74079954D01*
X94239954Y-74240858D01*
X94109432Y-74427265D01*
X94109431Y-74427267D01*
X94013261Y-74633502D01*
X94013258Y-74633511D01*
X93954366Y-74853302D01*
X93954364Y-74853313D01*
X93934532Y-75079998D01*
X93934532Y-75080001D01*
X93954364Y-75306686D01*
X93954366Y-75306697D01*
X94013258Y-75526488D01*
X94013261Y-75526497D01*
X94109431Y-75732732D01*
X94109432Y-75732734D01*
X94239954Y-75919141D01*
X94400858Y-76080045D01*
X94400861Y-76080047D01*
X94587266Y-76210568D01*
X94645865Y-76237893D01*
X94698305Y-76284065D01*
X94717457Y-76351258D01*
X94697242Y-76418139D01*
X94645867Y-76462657D01*
X94587515Y-76489867D01*
X94401179Y-76620342D01*
X94240342Y-76781179D01*
X94109865Y-76967517D01*
X94013734Y-77173673D01*
X94013730Y-77173682D01*
X93961127Y-77369999D01*
X93961128Y-77370000D01*
X94806988Y-77370000D01*
X94774075Y-77427007D01*
X94740000Y-77554174D01*
X94740000Y-77685826D01*
X94774075Y-77812993D01*
X94806988Y-77870000D01*
X93961128Y-77870000D01*
X94013730Y-78066317D01*
X94013734Y-78066326D01*
X94109865Y-78272482D01*
X94240342Y-78458820D01*
X94401179Y-78619657D01*
X94587518Y-78750134D01*
X94587520Y-78750135D01*
X94645865Y-78777342D01*
X94698305Y-78823514D01*
X94717457Y-78890707D01*
X94697242Y-78957589D01*
X94645867Y-79002105D01*
X94587266Y-79029432D01*
X94587264Y-79029433D01*
X94400858Y-79159954D01*
X94239954Y-79320858D01*
X94109432Y-79507265D01*
X94109431Y-79507267D01*
X94013261Y-79713502D01*
X94013258Y-79713511D01*
X93954366Y-79933302D01*
X93954364Y-79933313D01*
X93934532Y-80159998D01*
X93934532Y-80160001D01*
X93954364Y-80386686D01*
X93954366Y-80386697D01*
X94013258Y-80606488D01*
X94013261Y-80606497D01*
X94109431Y-80812732D01*
X94109432Y-80812734D01*
X94239954Y-80999141D01*
X94400858Y-81160045D01*
X94400861Y-81160047D01*
X94587266Y-81290568D01*
X94624486Y-81307924D01*
X94645275Y-81317618D01*
X94697714Y-81363791D01*
X94716866Y-81430984D01*
X94696650Y-81497865D01*
X94645275Y-81542382D01*
X94587267Y-81569431D01*
X94587265Y-81569432D01*
X94400858Y-81699954D01*
X94239954Y-81860858D01*
X94109432Y-82047265D01*
X94109431Y-82047267D01*
X94013261Y-82253502D01*
X94013258Y-82253511D01*
X93954366Y-82473302D01*
X93954364Y-82473313D01*
X93934532Y-82699998D01*
X93934532Y-82700001D01*
X93954364Y-82926686D01*
X93954366Y-82926697D01*
X94013258Y-83146488D01*
X94013261Y-83146497D01*
X94109431Y-83352732D01*
X94109432Y-83352734D01*
X94239954Y-83539141D01*
X94400858Y-83700045D01*
X94400861Y-83700047D01*
X94587266Y-83830568D01*
X94624486Y-83847924D01*
X94645275Y-83857618D01*
X94697714Y-83903791D01*
X94716866Y-83970984D01*
X94696650Y-84037865D01*
X94645275Y-84082382D01*
X94587267Y-84109431D01*
X94587265Y-84109432D01*
X94400858Y-84239954D01*
X94239954Y-84400858D01*
X94109432Y-84587265D01*
X94109431Y-84587267D01*
X94013261Y-84793502D01*
X94013258Y-84793511D01*
X93954366Y-85013302D01*
X93954364Y-85013313D01*
X93934532Y-85239998D01*
X93934532Y-85240001D01*
X93954364Y-85466686D01*
X93954366Y-85466697D01*
X94013258Y-85686488D01*
X94013261Y-85686497D01*
X94109431Y-85892732D01*
X94109432Y-85892734D01*
X94239954Y-86079141D01*
X94400858Y-86240045D01*
X94400861Y-86240047D01*
X94587266Y-86370568D01*
X94624486Y-86387924D01*
X94645275Y-86397618D01*
X94697714Y-86443791D01*
X94716866Y-86510984D01*
X94696650Y-86577865D01*
X94645275Y-86622382D01*
X94587267Y-86649431D01*
X94587265Y-86649432D01*
X94400858Y-86779954D01*
X94239954Y-86940858D01*
X94109432Y-87127265D01*
X94109431Y-87127267D01*
X94013261Y-87333502D01*
X94013258Y-87333511D01*
X93954366Y-87553302D01*
X93954364Y-87553313D01*
X93934532Y-87779998D01*
X93934532Y-87780001D01*
X93954364Y-88006686D01*
X93954366Y-88006697D01*
X94013258Y-88226488D01*
X94013261Y-88226497D01*
X94109431Y-88432732D01*
X94109432Y-88432734D01*
X94239954Y-88619141D01*
X94400858Y-88780045D01*
X94400861Y-88780047D01*
X94587266Y-88910568D01*
X94624486Y-88927924D01*
X94645275Y-88937618D01*
X94697714Y-88983791D01*
X94716866Y-89050984D01*
X94696650Y-89117865D01*
X94645275Y-89162382D01*
X94587267Y-89189431D01*
X94587265Y-89189432D01*
X94400858Y-89319954D01*
X94239954Y-89480858D01*
X94109432Y-89667265D01*
X94109431Y-89667267D01*
X94013261Y-89873502D01*
X94013258Y-89873511D01*
X93954366Y-90093302D01*
X93954364Y-90093313D01*
X93934532Y-90319998D01*
X93934532Y-90320001D01*
X93954364Y-90546686D01*
X93954366Y-90546697D01*
X94013258Y-90766488D01*
X94013261Y-90766497D01*
X94109431Y-90972732D01*
X94109432Y-90972734D01*
X94239954Y-91159141D01*
X94400858Y-91320045D01*
X94400861Y-91320047D01*
X94587266Y-91450568D01*
X94624486Y-91467924D01*
X94645275Y-91477618D01*
X94697714Y-91523791D01*
X94716866Y-91590984D01*
X94696650Y-91657865D01*
X94645275Y-91702382D01*
X94587267Y-91729431D01*
X94587265Y-91729432D01*
X94400858Y-91859954D01*
X94239954Y-92020858D01*
X94109432Y-92207265D01*
X94109431Y-92207267D01*
X94013261Y-92413502D01*
X94013258Y-92413511D01*
X93954366Y-92633302D01*
X93954364Y-92633313D01*
X93934532Y-92859998D01*
X93934532Y-92860001D01*
X93954364Y-93086686D01*
X93954366Y-93086697D01*
X94013258Y-93306488D01*
X94013261Y-93306497D01*
X94109431Y-93512732D01*
X94109432Y-93512734D01*
X94239954Y-93699141D01*
X94400858Y-93860045D01*
X94400861Y-93860047D01*
X94587266Y-93990568D01*
X94624486Y-94007924D01*
X94645275Y-94017618D01*
X94697714Y-94063791D01*
X94716866Y-94130984D01*
X94696650Y-94197865D01*
X94645275Y-94242382D01*
X94587267Y-94269431D01*
X94587265Y-94269432D01*
X94400858Y-94399954D01*
X94239954Y-94560858D01*
X94109432Y-94747265D01*
X94109431Y-94747267D01*
X94013261Y-94953502D01*
X94013258Y-94953511D01*
X93954366Y-95173302D01*
X93954364Y-95173313D01*
X93934532Y-95399998D01*
X93934532Y-95400001D01*
X93954364Y-95626686D01*
X93954366Y-95626697D01*
X94013258Y-95846488D01*
X94013261Y-95846497D01*
X94109431Y-96052732D01*
X94109432Y-96052734D01*
X94239954Y-96239141D01*
X94400858Y-96400045D01*
X94400861Y-96400047D01*
X94587266Y-96530568D01*
X94624486Y-96547924D01*
X94645275Y-96557618D01*
X94697714Y-96603791D01*
X94716866Y-96670984D01*
X94696650Y-96737865D01*
X94645275Y-96782382D01*
X94587267Y-96809431D01*
X94587265Y-96809432D01*
X94400858Y-96939954D01*
X94239954Y-97100858D01*
X94109432Y-97287265D01*
X94109431Y-97287267D01*
X94013261Y-97493502D01*
X94013258Y-97493511D01*
X93954366Y-97713302D01*
X93954364Y-97713313D01*
X93934532Y-97939998D01*
X93934532Y-97940001D01*
X93954364Y-98166686D01*
X93954366Y-98166697D01*
X94013258Y-98386488D01*
X94013261Y-98386497D01*
X94109431Y-98592732D01*
X94109432Y-98592734D01*
X94239954Y-98779141D01*
X94400858Y-98940045D01*
X94400861Y-98940047D01*
X94587266Y-99070568D01*
X94624486Y-99087924D01*
X94645275Y-99097618D01*
X94697714Y-99143791D01*
X94716866Y-99210984D01*
X94696650Y-99277865D01*
X94645275Y-99322382D01*
X94587267Y-99349431D01*
X94587265Y-99349432D01*
X94400858Y-99479954D01*
X94239954Y-99640858D01*
X94109432Y-99827265D01*
X94109431Y-99827267D01*
X94013261Y-100033502D01*
X94013258Y-100033511D01*
X93954366Y-100253302D01*
X93954364Y-100253313D01*
X93934532Y-100479998D01*
X93934532Y-100480001D01*
X93954364Y-100706686D01*
X93954366Y-100706697D01*
X94013258Y-100926488D01*
X94013261Y-100926497D01*
X94109431Y-101132732D01*
X94109432Y-101132734D01*
X94239954Y-101319141D01*
X94400858Y-101480045D01*
X94400861Y-101480047D01*
X94587266Y-101610568D01*
X94624486Y-101627924D01*
X94645275Y-101637618D01*
X94697714Y-101683791D01*
X94716866Y-101750984D01*
X94696650Y-101817865D01*
X94645275Y-101862382D01*
X94587267Y-101889431D01*
X94587265Y-101889432D01*
X94400858Y-102019954D01*
X94239954Y-102180858D01*
X94109432Y-102367265D01*
X94109431Y-102367267D01*
X94013261Y-102573502D01*
X94013258Y-102573511D01*
X93954366Y-102793302D01*
X93954364Y-102793313D01*
X93934532Y-103019998D01*
X93934532Y-103020001D01*
X93954364Y-103246686D01*
X93954366Y-103246697D01*
X94013258Y-103466488D01*
X94013261Y-103466497D01*
X94109431Y-103672732D01*
X94109432Y-103672734D01*
X94239954Y-103859141D01*
X94400858Y-104020045D01*
X94400861Y-104020047D01*
X94587266Y-104150568D01*
X94624486Y-104167924D01*
X94645275Y-104177618D01*
X94697714Y-104223791D01*
X94716866Y-104290984D01*
X94696650Y-104357865D01*
X94645275Y-104402382D01*
X94587267Y-104429431D01*
X94587265Y-104429432D01*
X94400858Y-104559954D01*
X94239954Y-104720858D01*
X94109432Y-104907265D01*
X94109431Y-104907267D01*
X94013261Y-105113502D01*
X94013258Y-105113511D01*
X93954366Y-105333302D01*
X93954364Y-105333313D01*
X93934532Y-105559998D01*
X93934532Y-105560001D01*
X93954364Y-105786686D01*
X93954366Y-105786697D01*
X94013258Y-106006488D01*
X94013261Y-106006497D01*
X94109431Y-106212732D01*
X94109432Y-106212734D01*
X94239954Y-106399141D01*
X94400858Y-106560045D01*
X94447693Y-106592839D01*
X94587266Y-106690568D01*
X94793504Y-106786739D01*
X95013308Y-106845635D01*
X95175230Y-106859801D01*
X95239998Y-106865468D01*
X95240000Y-106865468D01*
X95240002Y-106865468D01*
X95296673Y-106860509D01*
X95466692Y-106845635D01*
X95686496Y-106786739D01*
X95878688Y-106697117D01*
X95931092Y-106685500D01*
X99813757Y-106685500D01*
X99880796Y-106705185D01*
X99884880Y-106707925D01*
X99907850Y-106724008D01*
X99922170Y-106734035D01*
X100136337Y-106833903D01*
X100364592Y-106895063D01*
X100552918Y-106911539D01*
X100599999Y-106915659D01*
X100600000Y-106915659D01*
X100600001Y-106915659D01*
X100639234Y-106912226D01*
X100835408Y-106895063D01*
X101063663Y-106833903D01*
X101277830Y-106734035D01*
X101471401Y-106598495D01*
X101638495Y-106431401D01*
X101774035Y-106237830D01*
X101873903Y-106023663D01*
X101935063Y-105795408D01*
X101955659Y-105560000D01*
X101935063Y-105324592D01*
X101873903Y-105096337D01*
X101774035Y-104882171D01*
X101638495Y-104688599D01*
X101638494Y-104688597D01*
X101471402Y-104521506D01*
X101471396Y-104521501D01*
X101285842Y-104391575D01*
X101242217Y-104336998D01*
X101235023Y-104267500D01*
X101266546Y-104205145D01*
X101285842Y-104188425D01*
X101339909Y-104150567D01*
X101471401Y-104058495D01*
X101638495Y-103891401D01*
X101774035Y-103697830D01*
X101873903Y-103483663D01*
X101935063Y-103255408D01*
X101955659Y-103020000D01*
X101935063Y-102784592D01*
X101873903Y-102556337D01*
X101774035Y-102342171D01*
X101638495Y-102148599D01*
X101638494Y-102148597D01*
X101471402Y-101981506D01*
X101471396Y-101981501D01*
X101285842Y-101851575D01*
X101242217Y-101796998D01*
X101235023Y-101727500D01*
X101266546Y-101665145D01*
X101285842Y-101648425D01*
X101339909Y-101610567D01*
X101471401Y-101518495D01*
X101638495Y-101351401D01*
X101774035Y-101157830D01*
X101873903Y-100943663D01*
X101935063Y-100715408D01*
X101955659Y-100480000D01*
X101935063Y-100244592D01*
X101873903Y-100016337D01*
X101774035Y-99802171D01*
X101759577Y-99781522D01*
X101638494Y-99608597D01*
X101471402Y-99441506D01*
X101471396Y-99441501D01*
X101285842Y-99311575D01*
X101242217Y-99256998D01*
X101235023Y-99187500D01*
X101266546Y-99125145D01*
X101285842Y-99108425D01*
X101339909Y-99070567D01*
X101471401Y-98978495D01*
X101638495Y-98811401D01*
X101774035Y-98617830D01*
X101873903Y-98403663D01*
X101935063Y-98175408D01*
X101955659Y-97940000D01*
X101935063Y-97704592D01*
X101873903Y-97476337D01*
X101774035Y-97262171D01*
X101638495Y-97068599D01*
X101638494Y-97068597D01*
X101471402Y-96901506D01*
X101471396Y-96901501D01*
X101285842Y-96771575D01*
X101242217Y-96716998D01*
X101235023Y-96647500D01*
X101266546Y-96585145D01*
X101285842Y-96568425D01*
X101339909Y-96530567D01*
X101471401Y-96438495D01*
X101638495Y-96271401D01*
X101774035Y-96077830D01*
X101873903Y-95863663D01*
X101935063Y-95635408D01*
X101955659Y-95400000D01*
X101935063Y-95164592D01*
X101873903Y-94936337D01*
X101774035Y-94722171D01*
X101638495Y-94528599D01*
X101638494Y-94528597D01*
X101471402Y-94361506D01*
X101471396Y-94361501D01*
X101285842Y-94231575D01*
X101242217Y-94176998D01*
X101235023Y-94107500D01*
X101266546Y-94045145D01*
X101285842Y-94028425D01*
X101339909Y-93990567D01*
X101471401Y-93898495D01*
X101638495Y-93731401D01*
X101774035Y-93537830D01*
X101873903Y-93323663D01*
X101935063Y-93095408D01*
X101955659Y-92860000D01*
X101935063Y-92624592D01*
X101873903Y-92396337D01*
X101774035Y-92182171D01*
X101638495Y-91988599D01*
X101638494Y-91988597D01*
X101471402Y-91821506D01*
X101471396Y-91821501D01*
X101285842Y-91691575D01*
X101242217Y-91636998D01*
X101235023Y-91567500D01*
X101266546Y-91505145D01*
X101285842Y-91488425D01*
X101339909Y-91450567D01*
X101471401Y-91358495D01*
X101638495Y-91191401D01*
X101774035Y-90997830D01*
X101873903Y-90783663D01*
X101935063Y-90555408D01*
X101955659Y-90320000D01*
X101935063Y-90084592D01*
X101873903Y-89856337D01*
X101774035Y-89642171D01*
X101638495Y-89448599D01*
X101638494Y-89448597D01*
X101471402Y-89281506D01*
X101471396Y-89281501D01*
X101285842Y-89151575D01*
X101242217Y-89096998D01*
X101235023Y-89027500D01*
X101266546Y-88965145D01*
X101285842Y-88948425D01*
X101339909Y-88910567D01*
X101471401Y-88818495D01*
X101638495Y-88651401D01*
X101774035Y-88457830D01*
X101873903Y-88243663D01*
X101935063Y-88015408D01*
X101955659Y-87780000D01*
X101935063Y-87544592D01*
X101873903Y-87316337D01*
X101774035Y-87102171D01*
X101638495Y-86908599D01*
X101638494Y-86908597D01*
X101471402Y-86741506D01*
X101471396Y-86741501D01*
X101285842Y-86611575D01*
X101242217Y-86556998D01*
X101235023Y-86487500D01*
X101266546Y-86425145D01*
X101285842Y-86408425D01*
X101339909Y-86370567D01*
X101471401Y-86278495D01*
X101638495Y-86111401D01*
X101774035Y-85917830D01*
X101873903Y-85703663D01*
X101935063Y-85475408D01*
X101955659Y-85240000D01*
X101935063Y-85004592D01*
X101873903Y-84776337D01*
X101774035Y-84562171D01*
X101638495Y-84368599D01*
X101638494Y-84368597D01*
X101471402Y-84201506D01*
X101471396Y-84201501D01*
X101285842Y-84071575D01*
X101242217Y-84016998D01*
X101235023Y-83947500D01*
X101266546Y-83885145D01*
X101285842Y-83868425D01*
X101339909Y-83830567D01*
X101471401Y-83738495D01*
X101638495Y-83571401D01*
X101774035Y-83377830D01*
X101873903Y-83163663D01*
X101935063Y-82935408D01*
X101955659Y-82700000D01*
X101935063Y-82464592D01*
X101873903Y-82236337D01*
X101774035Y-82022171D01*
X101638495Y-81828599D01*
X101638494Y-81828597D01*
X101471402Y-81661506D01*
X101471396Y-81661501D01*
X101285842Y-81531575D01*
X101242217Y-81476998D01*
X101235023Y-81407500D01*
X101266546Y-81345145D01*
X101285842Y-81328425D01*
X101339909Y-81290567D01*
X101471401Y-81198495D01*
X101638495Y-81031401D01*
X101774035Y-80837830D01*
X101873903Y-80623663D01*
X101935063Y-80395408D01*
X101955659Y-80160000D01*
X101935063Y-79924592D01*
X101873903Y-79696337D01*
X101774035Y-79482171D01*
X101638495Y-79288599D01*
X101638494Y-79288597D01*
X101471402Y-79121506D01*
X101471401Y-79121505D01*
X101285405Y-78991269D01*
X101241781Y-78936692D01*
X101234588Y-78867193D01*
X101266110Y-78804839D01*
X101285405Y-78788119D01*
X101471082Y-78658105D01*
X101638105Y-78491082D01*
X101773600Y-78297578D01*
X101873429Y-78083492D01*
X101873432Y-78083486D01*
X101930636Y-77870000D01*
X101033012Y-77870000D01*
X101065925Y-77812993D01*
X101100000Y-77685826D01*
X101100000Y-77554174D01*
X101065925Y-77427007D01*
X101033012Y-77370000D01*
X101930636Y-77370000D01*
X101930635Y-77369999D01*
X101873432Y-77156513D01*
X101873429Y-77156507D01*
X101773600Y-76942422D01*
X101773599Y-76942420D01*
X101638113Y-76748926D01*
X101638108Y-76748920D01*
X101471078Y-76581890D01*
X101285405Y-76451879D01*
X101241780Y-76397302D01*
X101234588Y-76327804D01*
X101266110Y-76265449D01*
X101285406Y-76248730D01*
X101471401Y-76118495D01*
X101638495Y-75951401D01*
X101774035Y-75757830D01*
X101873903Y-75543663D01*
X101935063Y-75315408D01*
X101955659Y-75080000D01*
X101935063Y-74844592D01*
X101873903Y-74616337D01*
X101774035Y-74402171D01*
X101638495Y-74208599D01*
X101638494Y-74208597D01*
X101471402Y-74041506D01*
X101471396Y-74041501D01*
X101285842Y-73911575D01*
X101242217Y-73856998D01*
X101235023Y-73787500D01*
X101266546Y-73725145D01*
X101285842Y-73708425D01*
X101339909Y-73670567D01*
X101471401Y-73578495D01*
X101638495Y-73411401D01*
X101774035Y-73217830D01*
X101873903Y-73003663D01*
X101935063Y-72775408D01*
X101955659Y-72540000D01*
X101935063Y-72304592D01*
X101873903Y-72076337D01*
X101774035Y-71862171D01*
X101638495Y-71668599D01*
X101516567Y-71546671D01*
X101483084Y-71485351D01*
X101488068Y-71415659D01*
X101529939Y-71359725D01*
X101560915Y-71342810D01*
X101692331Y-71293796D01*
X101807546Y-71207546D01*
X101893796Y-71092331D01*
X101944091Y-70957483D01*
X101950500Y-70897873D01*
X101950499Y-69102128D01*
X101944091Y-69042517D01*
X101893796Y-68907669D01*
X101893795Y-68907668D01*
X101893793Y-68907664D01*
X101807547Y-68792455D01*
X101807544Y-68792452D01*
X101692335Y-68706206D01*
X101692328Y-68706202D01*
X101557482Y-68655908D01*
X101557483Y-68655908D01*
X101497883Y-68649501D01*
X101497881Y-68649500D01*
X101497873Y-68649500D01*
X101497864Y-68649500D01*
X99702129Y-68649500D01*
X99702123Y-68649501D01*
X99642516Y-68655908D01*
X99507671Y-68706202D01*
X99507664Y-68706206D01*
X99392457Y-68792451D01*
X99392449Y-68792458D01*
X99368232Y-68824810D01*
X99312299Y-68866682D01*
X99268965Y-68874500D01*
X95931092Y-68874500D01*
X95878688Y-68862882D01*
X95808652Y-68830223D01*
X95686497Y-68773261D01*
X95686488Y-68773258D01*
X95466697Y-68714366D01*
X95466693Y-68714365D01*
X95466692Y-68714365D01*
X95466691Y-68714364D01*
X95466686Y-68714364D01*
X95240002Y-68694532D01*
X95239998Y-68694532D01*
X95013313Y-68714364D01*
X95013302Y-68714366D01*
X94793511Y-68773258D01*
X94793502Y-68773261D01*
X94587267Y-68869431D01*
X94587265Y-68869432D01*
X94400858Y-68999954D01*
X94239954Y-69160858D01*
X94109432Y-69347265D01*
X94109431Y-69347267D01*
X94013261Y-69553502D01*
X94013258Y-69553511D01*
X93954366Y-69773302D01*
X93954364Y-69773313D01*
X93934532Y-69999998D01*
X91738143Y-69999998D01*
X96533130Y-65205012D01*
X96533139Y-65205007D01*
X96564479Y-65173666D01*
X96564481Y-65173667D01*
X96692131Y-65046017D01*
X96924208Y-64769437D01*
X97131297Y-64473683D01*
X97311820Y-64161005D01*
X97315956Y-64152136D01*
X97799501Y-64152136D01*
X97799501Y-65847871D01*
X97799502Y-65847877D01*
X97805909Y-65907484D01*
X97856203Y-66042329D01*
X97856207Y-66042336D01*
X97942453Y-66157545D01*
X97942456Y-66157548D01*
X98057665Y-66243794D01*
X98057672Y-66243798D01*
X98192518Y-66294092D01*
X98192517Y-66294092D01*
X98199445Y-66294836D01*
X98252128Y-66300501D01*
X99947873Y-66300500D01*
X100007484Y-66294092D01*
X100142332Y-66243797D01*
X100257547Y-66157547D01*
X100343797Y-66042332D01*
X100394092Y-65907484D01*
X100394093Y-65907473D01*
X100395367Y-65902086D01*
X100429939Y-65841369D01*
X100491848Y-65808981D01*
X100561440Y-65815205D01*
X100603726Y-65842916D01*
X100760858Y-66000048D01*
X100760861Y-66000050D01*
X100947266Y-66130571D01*
X101153504Y-66226742D01*
X101373308Y-66285638D01*
X101535230Y-66299804D01*
X101599998Y-66305471D01*
X101600000Y-66305471D01*
X101600002Y-66305471D01*
X101656830Y-66300499D01*
X101826692Y-66285638D01*
X102046496Y-66226742D01*
X102252734Y-66130571D01*
X102439139Y-66000050D01*
X102600047Y-65839142D01*
X102730568Y-65652737D01*
X102826739Y-65446499D01*
X102885635Y-65226695D01*
X102904578Y-65010173D01*
X102905468Y-65000004D01*
X102905468Y-65000001D01*
X102897237Y-64905924D01*
X102885635Y-64773311D01*
X102826739Y-64553507D01*
X102730568Y-64347269D01*
X102620849Y-64190573D01*
X102600045Y-64160861D01*
X102439141Y-63999957D01*
X102252734Y-63869435D01*
X102252732Y-63869434D01*
X102046497Y-63773264D01*
X102046488Y-63773261D01*
X101826697Y-63714369D01*
X101826693Y-63714368D01*
X101826692Y-63714368D01*
X101826691Y-63714367D01*
X101826686Y-63714367D01*
X101600002Y-63694535D01*
X101599998Y-63694535D01*
X101373313Y-63714367D01*
X101373302Y-63714369D01*
X101153511Y-63773261D01*
X101153502Y-63773264D01*
X100947267Y-63869434D01*
X100947265Y-63869435D01*
X100760862Y-63999954D01*
X100603727Y-64157089D01*
X100542404Y-64190573D01*
X100472712Y-64185589D01*
X100416779Y-64143717D01*
X100395369Y-64097923D01*
X100394091Y-64092514D01*
X100343798Y-63957672D01*
X100343794Y-63957665D01*
X100257548Y-63842456D01*
X100257545Y-63842453D01*
X100142336Y-63756207D01*
X100142329Y-63756203D01*
X100007483Y-63705909D01*
X100007484Y-63705909D01*
X99947884Y-63699502D01*
X99947882Y-63699501D01*
X99947874Y-63699501D01*
X99947865Y-63699501D01*
X98252130Y-63699501D01*
X98252124Y-63699502D01*
X98192517Y-63705909D01*
X98057672Y-63756203D01*
X98057665Y-63756207D01*
X97942456Y-63842453D01*
X97942453Y-63842456D01*
X97856207Y-63957665D01*
X97856203Y-63957672D01*
X97805909Y-64092518D01*
X97799502Y-64152117D01*
X97799501Y-64152136D01*
X97315956Y-64152136D01*
X97315960Y-64152128D01*
X97440969Y-63884045D01*
X97464406Y-63833784D01*
X97464982Y-63832203D01*
X97507869Y-63714369D01*
X97587891Y-63494509D01*
X97681337Y-63145763D01*
X97744033Y-62790199D01*
X97775500Y-62430524D01*
X97775500Y-62250000D01*
X97775500Y-62163771D01*
X97775500Y-61713601D01*
X97775501Y-61713560D01*
X97775501Y-61707464D01*
X97775502Y-61707459D01*
X97775501Y-61672611D01*
X97775521Y-61672540D01*
X97775520Y-61621229D01*
X97775521Y-61621229D01*
X97775517Y-61474276D01*
X97772493Y-61447447D01*
X97764993Y-61380895D01*
X97742603Y-61182219D01*
X97742601Y-61182210D01*
X97742601Y-61182208D01*
X97677199Y-60895693D01*
X97677197Y-60895684D01*
X97580122Y-60618273D01*
X97538927Y-60532733D01*
X97452600Y-60353479D01*
X97452597Y-60353474D01*
X97296229Y-60104619D01*
X97296227Y-60104617D01*
X97276556Y-60079951D01*
X97112979Y-59874835D01*
X97070042Y-59831898D01*
X96848005Y-59609861D01*
X96848000Y-59609852D01*
X96775822Y-59537674D01*
X96742337Y-59476351D01*
X96747321Y-59406659D01*
X96775817Y-59362317D01*
X96915579Y-59222557D01*
X96915582Y-59222551D01*
X96920002Y-59218132D01*
X96920219Y-59217891D01*
X97002974Y-59135139D01*
X97277812Y-58817961D01*
X97529322Y-58481985D01*
X97756224Y-58128922D01*
X97957360Y-57760573D01*
X98131706Y-57378812D01*
X98278373Y-56985587D01*
X98396614Y-56582901D01*
X98404951Y-56544581D01*
X98485826Y-56172810D01*
X98485827Y-56172805D01*
X98545557Y-55757390D01*
X98575499Y-55338772D01*
X98575500Y-55128928D01*
X98575500Y-55042699D01*
X98575500Y-52693906D01*
X98595185Y-52626867D01*
X98623338Y-52596052D01*
X98651784Y-52573913D01*
X98808979Y-52403153D01*
X98810477Y-52400861D01*
X98915602Y-52239954D01*
X98935924Y-52208849D01*
X99029157Y-51996300D01*
X99086134Y-51771305D01*
X99087142Y-51759139D01*
X99105300Y-51540006D01*
X99105300Y-51539993D01*
X99086135Y-51308702D01*
X99086133Y-51308691D01*
X99029157Y-51083699D01*
X98935924Y-50871151D01*
X98808983Y-50676852D01*
X98808980Y-50676849D01*
X98808979Y-50676847D01*
X98714195Y-50573884D01*
X98683275Y-50511232D01*
X98691135Y-50441806D01*
X98735283Y-50387651D01*
X98762095Y-50373722D01*
X98842326Y-50343798D01*
X98842326Y-50343797D01*
X98842331Y-50343796D01*
X98957546Y-50257546D01*
X99043796Y-50142331D01*
X99048218Y-50130474D01*
X99090085Y-50074540D01*
X99155547Y-50050119D01*
X99201687Y-50055541D01*
X99414417Y-50122616D01*
X99424580Y-50126315D01*
X99463255Y-50142335D01*
X99747013Y-50259874D01*
X99756816Y-50264446D01*
X99762229Y-50267264D01*
X100066374Y-50425593D01*
X100075721Y-50430990D01*
X100279783Y-50560993D01*
X100370061Y-50618507D01*
X100378922Y-50624711D01*
X100646263Y-50829850D01*
X100687464Y-50886277D01*
X100694303Y-50917417D01*
X100714361Y-51146685D01*
X100714363Y-51146695D01*
X100773255Y-51366486D01*
X100773258Y-51366495D01*
X100869428Y-51572730D01*
X100869429Y-51572732D01*
X100999951Y-51759139D01*
X101160855Y-51920043D01*
X101160858Y-51920045D01*
X101347263Y-52050566D01*
X101553501Y-52146737D01*
X101773305Y-52205633D01*
X101935227Y-52219799D01*
X101999995Y-52225466D01*
X101999997Y-52225466D01*
X101999999Y-52225466D01*
X102056670Y-52220507D01*
X102226689Y-52205633D01*
X102446493Y-52146737D01*
X102652731Y-52050566D01*
X102839136Y-51920045D01*
X103000044Y-51759137D01*
X103130565Y-51572732D01*
X103226736Y-51366494D01*
X103255725Y-51258304D01*
X103292090Y-51198644D01*
X103354937Y-51168115D01*
X103424312Y-51176410D01*
X103478190Y-51220895D01*
X103499465Y-51287447D01*
X103499500Y-51290398D01*
X103499500Y-60709597D01*
X103479815Y-60776636D01*
X103427011Y-60822391D01*
X103357853Y-60832335D01*
X103294297Y-60803310D01*
X103256523Y-60744532D01*
X103255725Y-60741690D01*
X103226738Y-60633509D01*
X103226735Y-60633500D01*
X103226648Y-60633313D01*
X103130565Y-60427264D01*
X103000044Y-60240859D01*
X103000042Y-60240856D01*
X102839138Y-60079952D01*
X102652731Y-59949430D01*
X102652729Y-59949429D01*
X102446494Y-59853259D01*
X102446485Y-59853256D01*
X102226694Y-59794364D01*
X102226690Y-59794363D01*
X102226689Y-59794363D01*
X102226688Y-59794362D01*
X102226683Y-59794362D01*
X101999999Y-59774530D01*
X101999995Y-59774530D01*
X101773310Y-59794362D01*
X101773299Y-59794364D01*
X101553508Y-59853256D01*
X101553499Y-59853259D01*
X101347264Y-59949429D01*
X101347262Y-59949430D01*
X101160855Y-60079952D01*
X100999951Y-60240856D01*
X100869429Y-60427263D01*
X100869428Y-60427265D01*
X100773258Y-60633500D01*
X100773255Y-60633509D01*
X100714363Y-60853300D01*
X100714361Y-60853311D01*
X100694529Y-61079996D01*
X100694529Y-61079999D01*
X100714361Y-61306684D01*
X100714363Y-61306695D01*
X100773255Y-61526486D01*
X100773258Y-61526495D01*
X100869428Y-61732730D01*
X100869429Y-61732732D01*
X100999951Y-61919139D01*
X101160855Y-62080043D01*
X101160858Y-62080045D01*
X101347263Y-62210566D01*
X101553501Y-62306737D01*
X101773305Y-62365633D01*
X101935227Y-62379799D01*
X101999995Y-62385466D01*
X101999997Y-62385466D01*
X101999999Y-62385466D01*
X102056670Y-62380507D01*
X102226689Y-62365633D01*
X102446493Y-62306737D01*
X102652731Y-62210566D01*
X102839136Y-62080045D01*
X103000044Y-61919137D01*
X103130565Y-61732732D01*
X103226736Y-61526494D01*
X103255725Y-61418304D01*
X103292090Y-61358644D01*
X103354937Y-61328115D01*
X103424312Y-61336410D01*
X103478190Y-61380895D01*
X103499465Y-61447447D01*
X103499500Y-61450398D01*
X103499500Y-104997293D01*
X103499382Y-105002702D01*
X103482614Y-105386750D01*
X103481671Y-105397526D01*
X103431849Y-105775957D01*
X103429971Y-105786610D01*
X103347354Y-106159272D01*
X103344554Y-106169721D01*
X103229775Y-106533755D01*
X103226075Y-106543921D01*
X103080002Y-106896572D01*
X103075430Y-106906376D01*
X102899183Y-107244942D01*
X102893775Y-107254310D01*
X102688681Y-107576244D01*
X102682476Y-107585105D01*
X102450110Y-107887930D01*
X102443156Y-107896217D01*
X102185284Y-108177635D01*
X102177635Y-108185284D01*
X101896217Y-108443156D01*
X101887930Y-108450110D01*
X101585105Y-108682476D01*
X101576244Y-108688681D01*
X101254310Y-108893775D01*
X101244942Y-108899183D01*
X100906376Y-109075430D01*
X100896572Y-109080002D01*
X100543921Y-109226075D01*
X100533755Y-109229775D01*
X100169721Y-109344554D01*
X100159272Y-109347354D01*
X99786610Y-109429971D01*
X99775957Y-109431849D01*
X99397526Y-109481671D01*
X99386750Y-109482614D01*
X99002703Y-109499382D01*
X98997294Y-109499500D01*
X76002706Y-109499500D01*
X75997297Y-109499382D01*
X75613249Y-109482614D01*
X75602473Y-109481671D01*
X75224042Y-109431849D01*
X75213389Y-109429971D01*
X74840727Y-109347354D01*
X74830278Y-109344554D01*
X74466244Y-109229775D01*
X74456078Y-109226075D01*
X74103427Y-109080002D01*
X74093623Y-109075430D01*
X73755057Y-108899183D01*
X73745689Y-108893775D01*
X73423755Y-108688681D01*
X73414894Y-108682476D01*
X73112069Y-108450110D01*
X73103782Y-108443156D01*
X72822364Y-108185284D01*
X72814715Y-108177635D01*
X72556843Y-107896217D01*
X72549889Y-107887930D01*
X72317523Y-107585105D01*
X72311318Y-107576244D01*
X72106224Y-107254310D01*
X72100816Y-107244942D01*
X71973924Y-107001185D01*
X71924566Y-106906369D01*
X71919997Y-106896572D01*
X71919371Y-106895061D01*
X71773920Y-106543911D01*
X71770224Y-106533755D01*
X71655442Y-106169710D01*
X71652648Y-106159284D01*
X71570025Y-105786597D01*
X71568152Y-105775971D01*
X71518326Y-105397506D01*
X71517386Y-105386771D01*
X71500618Y-105002702D01*
X71500500Y-104997293D01*
X71500500Y-49002706D01*
X71500618Y-48997297D01*
X71502954Y-48943785D01*
X71517386Y-48613226D01*
X71518326Y-48602495D01*
X71568152Y-48224025D01*
X71570025Y-48213405D01*
X71652649Y-47840709D01*
X71655440Y-47830295D01*
X71770230Y-47466227D01*
X71773917Y-47456095D01*
X71920003Y-47103412D01*
X71924561Y-47093638D01*
X72100822Y-46755045D01*
X72106217Y-46745700D01*
X72311325Y-46423744D01*
X72317515Y-46414905D01*
X72549896Y-46112060D01*
X72556834Y-46103791D01*
X72814726Y-45822352D01*
X72822352Y-45814726D01*
X73103791Y-45556834D01*
X73112060Y-45549896D01*
X73414905Y-45317515D01*
X73423744Y-45311325D01*
X73745700Y-45106217D01*
X73755045Y-45100822D01*
X74093638Y-44924561D01*
X74103412Y-44920003D01*
X74456095Y-44773917D01*
X74466227Y-44770230D01*
X74830295Y-44655440D01*
X74840709Y-44652649D01*
X75213405Y-44570025D01*
X75224025Y-44568152D01*
X75602495Y-44518326D01*
X75613226Y-44517386D01*
X75997297Y-44500617D01*
X76002706Y-44500500D01*
X76065892Y-44500500D01*
X98934108Y-44500500D01*
X98997294Y-44500500D01*
X99002702Y-44500617D01*
G37*
%TD.AperFunction*%
%TD*%
M02*
