%TF.GenerationSoftware,KiCad,Pcbnew,8.0.7*%
%TF.CreationDate,2025-01-29T15:55:01-08:00*%
%TF.ProjectId,Attiny2x4x8x Programmers,41747469-6e79-4327-9834-783878205072,rev?*%
%TF.SameCoordinates,Original*%
%TF.FileFunction,Copper,L2,Bot*%
%TF.FilePolarity,Positive*%
%FSLAX46Y46*%
G04 Gerber Fmt 4.6, Leading zero omitted, Abs format (unit mm)*
G04 Created by KiCad (PCBNEW 8.0.7) date 2025-01-29 15:55:01*
%MOMM*%
%LPD*%
G01*
G04 APERTURE LIST*
%TA.AperFunction,ComponentPad*%
%ADD10R,1.600000X1.600000*%
%TD*%
%TA.AperFunction,ComponentPad*%
%ADD11C,1.600000*%
%TD*%
%TA.AperFunction,ComponentPad*%
%ADD12O,1.600000X1.600000*%
%TD*%
%TA.AperFunction,ComponentPad*%
%ADD13R,1.700000X1.700000*%
%TD*%
%TA.AperFunction,ComponentPad*%
%ADD14O,1.700000X1.700000*%
%TD*%
%TA.AperFunction,ComponentPad*%
%ADD15R,1.800000X1.800000*%
%TD*%
%TA.AperFunction,ComponentPad*%
%ADD16C,1.800000*%
%TD*%
%TA.AperFunction,Conductor*%
%ADD17C,0.750000*%
%TD*%
%TA.AperFunction,Conductor*%
%ADD18C,1.000000*%
%TD*%
G04 APERTURE END LIST*
D10*
%TO.P,C1,1*%
%TO.N,/RST*%
X99100001Y-65000001D03*
D11*
%TO.P,C1,2*%
%TO.N,GND*%
X101600000Y-65000003D03*
%TD*%
D10*
%TO.P,A1,1,D1/TX*%
%TO.N,Net-(A1-D1{slash}TX)*%
X80000000Y-70000000D03*
D12*
%TO.P,A1,2,D0/RX*%
%TO.N,Net-(A1-D0{slash}RX)*%
X80000000Y-72540000D03*
%TO.P,A1,3,~{RESET}*%
%TO.N,/RST*%
X80000000Y-75080000D03*
%TO.P,A1,4,GND*%
%TO.N,GND*%
X80000000Y-77620000D03*
%TO.P,A1,5,D2*%
%TO.N,Net-(A1-D2)*%
X80000000Y-80160000D03*
%TO.P,A1,6,D3*%
%TO.N,Net-(A1-D3)*%
X80000000Y-82700000D03*
%TO.P,A1,7,D4*%
%TO.N,Net-(A1-D4)*%
X80000000Y-85240000D03*
%TO.P,A1,8,D5*%
%TO.N,Net-(A1-D5)*%
X80000000Y-87780000D03*
%TO.P,A1,9,D6*%
%TO.N,Net-(A1-D6)*%
X80000000Y-90320000D03*
%TO.P,A1,10,D7*%
%TO.N,Net-(A1-D7)*%
X80000000Y-92860000D03*
%TO.P,A1,11,D8*%
%TO.N,Net-(A1-D8)*%
X80000000Y-95400000D03*
%TO.P,A1,12,D9*%
%TO.N,Net-(A1-D9)*%
X80000000Y-97940000D03*
%TO.P,A1,13,D10*%
%TO.N,/SS*%
X80000000Y-100480000D03*
%TO.P,A1,14,D11*%
%TO.N,/MOSI*%
X80000000Y-103020000D03*
%TO.P,A1,15,D12*%
%TO.N,/MISO*%
X80000000Y-105560000D03*
%TO.P,A1,16,D13*%
%TO.N,/SCK*%
X95240000Y-105560000D03*
%TO.P,A1,17,3V3*%
%TO.N,Net-(A1-3V3)*%
X95240000Y-103020000D03*
%TO.P,A1,18,AREF*%
%TO.N,Net-(A1-AREF)*%
X95240000Y-100480000D03*
%TO.P,A1,19,A0*%
%TO.N,Net-(A1-A0)*%
X95240000Y-97940000D03*
%TO.P,A1,20,A1*%
%TO.N,Net-(A1-A1)*%
X95240000Y-95400000D03*
%TO.P,A1,21,A2*%
%TO.N,Net-(A1-A2)*%
X95240000Y-92860000D03*
%TO.P,A1,22,A3*%
%TO.N,Net-(A1-A3)*%
X95240000Y-90320000D03*
%TO.P,A1,23,A4*%
%TO.N,Net-(A1-A4)*%
X95240000Y-87780000D03*
%TO.P,A1,24,A5*%
%TO.N,Net-(A1-A5)*%
X95240000Y-85240000D03*
%TO.P,A1,25,A6*%
%TO.N,Net-(A1-A6)*%
X95240000Y-82700000D03*
%TO.P,A1,26,A7*%
%TO.N,Net-(A1-A7)*%
X95240000Y-80160000D03*
%TO.P,A1,27,+5V*%
%TO.N,+5V*%
X95240000Y-77620000D03*
%TO.P,A1,28,~{RESET}*%
%TO.N,/RST*%
X95240000Y-75080000D03*
%TO.P,A1,29,GND*%
%TO.N,GND*%
X95240000Y-72540000D03*
%TO.P,A1,30,VIN*%
%TO.N,Net-(A1-VIN)*%
X95240000Y-70000000D03*
%TD*%
D13*
%TO.P,J1,1,Pin_1*%
%TO.N,Net-(A1-D1{slash}TX)*%
X74800000Y-70000000D03*
D14*
%TO.P,J1,2,Pin_2*%
%TO.N,Net-(A1-D0{slash}RX)*%
X74800000Y-72540000D03*
%TO.P,J1,3,Pin_3*%
%TO.N,/RST*%
X74800000Y-75080000D03*
%TO.P,J1,4,Pin_4*%
%TO.N,GND*%
X74800000Y-77620000D03*
%TO.P,J1,5,Pin_5*%
%TO.N,Net-(A1-D2)*%
X74800000Y-80160000D03*
%TO.P,J1,6,Pin_6*%
%TO.N,Net-(A1-D3)*%
X74800000Y-82700000D03*
%TO.P,J1,7,Pin_7*%
%TO.N,Net-(A1-D4)*%
X74800000Y-85240000D03*
%TO.P,J1,8,Pin_8*%
%TO.N,Net-(A1-D5)*%
X74800000Y-87780000D03*
%TO.P,J1,9,Pin_9*%
%TO.N,Net-(A1-D6)*%
X74800000Y-90320000D03*
%TO.P,J1,10,Pin_10*%
%TO.N,Net-(A1-D7)*%
X74800000Y-92860000D03*
%TO.P,J1,11,Pin_11*%
%TO.N,Net-(A1-D8)*%
X74800000Y-95400000D03*
%TO.P,J1,12,Pin_12*%
%TO.N,Net-(A1-D9)*%
X74800000Y-97940000D03*
%TO.P,J1,13,Pin_13*%
%TO.N,/SS*%
X74800000Y-100480000D03*
%TO.P,J1,14,Pin_14*%
%TO.N,/MOSI*%
X74800000Y-103020000D03*
%TO.P,J1,15,Pin_15*%
%TO.N,/MISO*%
X74800000Y-105560000D03*
%TD*%
D13*
%TO.P,J2,1,Pin_1*%
%TO.N,Net-(A1-VIN)*%
X100600000Y-70000000D03*
D14*
%TO.P,J2,2,Pin_2*%
%TO.N,GND*%
X100600000Y-72540000D03*
%TO.P,J2,3,Pin_3*%
%TO.N,/RST*%
X100600000Y-75080000D03*
%TO.P,J2,4,Pin_4*%
%TO.N,+5V*%
X100600000Y-77620000D03*
%TO.P,J2,5,Pin_5*%
%TO.N,Net-(A1-A7)*%
X100600000Y-80160000D03*
%TO.P,J2,6,Pin_6*%
%TO.N,Net-(A1-A6)*%
X100600000Y-82700000D03*
%TO.P,J2,7,Pin_7*%
%TO.N,Net-(A1-A5)*%
X100600000Y-85240000D03*
%TO.P,J2,8,Pin_8*%
%TO.N,Net-(A1-A4)*%
X100600000Y-87780000D03*
%TO.P,J2,9,Pin_9*%
%TO.N,Net-(A1-A3)*%
X100600000Y-90320000D03*
%TO.P,J2,10,Pin_10*%
%TO.N,Net-(A1-A2)*%
X100600000Y-92860000D03*
%TO.P,J2,11,Pin_11*%
%TO.N,Net-(A1-A1)*%
X100600000Y-95400000D03*
%TO.P,J2,12,Pin_12*%
%TO.N,Net-(A1-A0)*%
X100600000Y-97940000D03*
%TO.P,J2,13,Pin_13*%
%TO.N,Net-(A1-AREF)*%
X100600000Y-100480000D03*
%TO.P,J2,14,Pin_14*%
%TO.N,Net-(A1-3V3)*%
X100600000Y-103020000D03*
%TO.P,J2,15,Pin_15*%
%TO.N,/SCK*%
X100600000Y-105560000D03*
%TD*%
D13*
%TO.P,J3,1,Pin_1*%
%TO.N,/MISO*%
X88020000Y-50500000D03*
D14*
%TO.P,J3,2,Pin_2*%
%TO.N,+5V*%
X88020000Y-47960000D03*
%TO.P,J3,3,Pin_3*%
%TO.N,/SCK*%
X90560000Y-50500000D03*
%TO.P,J3,4,Pin_4*%
%TO.N,/MOSI*%
X90560000Y-47960000D03*
%TO.P,J3,5,Pin_5*%
%TO.N,/SS*%
X93100000Y-50500000D03*
%TO.P,J3,6,Pin_6*%
%TO.N,GND*%
X93100000Y-47960000D03*
%TD*%
D12*
%TO.P,U2,8,VCC*%
%TO.N,+5V*%
X95020004Y-54800002D03*
%TO.P,U2,7,PB2*%
%TO.N,/SCK*%
X95019997Y-57340000D03*
%TO.P,U2,6,PB1*%
%TO.N,/MISO*%
X95019998Y-59879994D03*
%TO.P,U2,5,AREF/PB0*%
%TO.N,/MOSI*%
X95019995Y-62419999D03*
%TO.P,U2,4,GND*%
%TO.N,GND*%
X87399998Y-62420004D03*
%TO.P,U2,3,XTAL2/PB4*%
%TO.N,unconnected-(U2-XTAL2{slash}PB4-Pad3)*%
X87400002Y-59880001D03*
%TO.P,U2,2,XTAL1/PB3*%
%TO.N,unconnected-(U2-XTAL1{slash}PB3-Pad2)*%
X87400000Y-57340001D03*
D10*
%TO.P,U2,1,~{RESET}/PB5*%
%TO.N,/SS*%
X87400000Y-54800000D03*
%TD*%
D15*
%TO.P,D1,1,K*%
%TO.N,Net-(D1-K)*%
X97700000Y-49000000D03*
D16*
%TO.P,D1,2,A*%
%TO.N,/MISO*%
X97700000Y-51540000D03*
%TD*%
D12*
%TO.P,R1,2*%
%TO.N,GND*%
X101999997Y-61079998D03*
D11*
%TO.P,R1,1*%
%TO.N,Net-(D1-K)*%
X101999997Y-50919998D03*
%TD*%
D12*
%TO.P,U1,14,GND*%
%TO.N,GND*%
X82320000Y-48160000D03*
%TO.P,U1,13,AREF/PA0*%
%TO.N,unconnected-(U1-AREF{slash}PA0-Pad13)*%
X82320000Y-50700000D03*
%TO.P,U1,12,PA1*%
%TO.N,unconnected-(U1-PA1-Pad12)*%
X82320000Y-53240000D03*
%TO.P,U1,11,PA2*%
%TO.N,unconnected-(U1-PA2-Pad11)*%
X82320000Y-55780000D03*
%TO.P,U1,10,PA3*%
%TO.N,unconnected-(U1-PA3-Pad10)*%
X82320000Y-58320000D03*
%TO.P,U1,9,PA4*%
%TO.N,/SCK*%
X82320000Y-60860000D03*
%TO.P,U1,8,PA5*%
%TO.N,/MISO*%
X82320000Y-63400000D03*
%TO.P,U1,7,PA6*%
%TO.N,/MOSI*%
X74700000Y-63400000D03*
%TO.P,U1,6,PA7*%
%TO.N,unconnected-(U1-PA7-Pad6)*%
X74700000Y-60860000D03*
%TO.P,U1,5,PB2*%
%TO.N,unconnected-(U1-PB2-Pad5)*%
X74700000Y-58320000D03*
%TO.P,U1,4,~{RESET}/PB3*%
%TO.N,/SS*%
X74700000Y-55780000D03*
%TO.P,U1,3,XTAL2/PB1*%
%TO.N,unconnected-(U1-XTAL2{slash}PB1-Pad3)*%
X74700000Y-53240000D03*
%TO.P,U1,2,XTAL1/PB0*%
%TO.N,unconnected-(U1-XTAL1{slash}PB0-Pad2)*%
X74700000Y-50700000D03*
D10*
%TO.P,U1,1,VCC*%
%TO.N,+5V*%
X74700000Y-48160000D03*
%TD*%
D17*
%TO.N,/SCK*%
X90560000Y-50773675D02*
G75*
G02*
X89681332Y-52895008I-3000000J-25D01*
G01*
%TO.N,/SS*%
X85502152Y-92078353D02*
G75*
G02*
X83451899Y-97028099I-7000002J3D01*
G01*
X85502152Y-92078353D02*
X85502152Y-57861472D01*
X86450000Y-55750000D02*
X87400000Y-54800000D01*
X80000000Y-100480000D02*
X83451900Y-97028100D01*
X85502152Y-57861472D02*
G75*
G02*
X86450013Y-55750013I3260348J-195128D01*
G01*
%TO.N,/SCK*%
X87892641Y-52800000D02*
G75*
G03*
X85771300Y-53678660I-41J-3000000D01*
G01*
X85723725Y-53726275D02*
G75*
G03*
X84552168Y-56554702I2828475J-2828425D01*
G01*
X83380579Y-59799421D02*
G75*
G03*
X84552162Y-56970994I-2828379J2828421D01*
G01*
%TO.N,/MOSI*%
X89578680Y-46578680D02*
G75*
G03*
X87457359Y-45700029I-2121280J-2121320D01*
G01*
X81742641Y-45700000D02*
X87457359Y-45700000D01*
X79378680Y-46821320D02*
X79621321Y-46578679D01*
X78500000Y-56700505D02*
X78500000Y-48942641D01*
X79621321Y-46578679D02*
G75*
G02*
X81742641Y-45700029I2121279J-2121321D01*
G01*
X78500000Y-48942641D02*
G75*
G02*
X79378660Y-46821300I3000000J41D01*
G01*
X74700000Y-63400000D02*
X76449748Y-61650252D01*
X76449748Y-61650252D02*
G75*
G03*
X78500004Y-56700505I-4949748J4949752D01*
G01*
X89578680Y-46578680D02*
X90560000Y-47560000D01*
%TO.N,/SS*%
X73485786Y-100185786D02*
G75*
G02*
X72900019Y-98771573I1414214J1414186D01*
G01*
X74194214Y-100480000D02*
G75*
G02*
X73487100Y-100187114I-14J1000000D01*
G01*
X72900000Y-58822641D02*
G75*
G02*
X73778660Y-56701300I3000000J41D01*
G01*
%TO.N,/SCK*%
X83380579Y-59799421D02*
X82320000Y-60860000D01*
X84552152Y-56554702D02*
X84552152Y-56970994D01*
X85771320Y-53678680D02*
X85723725Y-53726275D01*
X88226033Y-52800000D02*
X87892641Y-52800000D01*
X94879998Y-57400000D02*
X94917570Y-57400000D01*
X94989997Y-57310000D02*
X92073789Y-54393792D01*
X93700000Y-58500000D02*
X94743432Y-57456567D01*
X92600000Y-102555492D02*
X92600000Y-61155634D01*
X94989997Y-57370000D02*
G75*
G03*
X94989997Y-57310000I-29997J30000D01*
G01*
X94917570Y-57400000D02*
G75*
G03*
X94990006Y-57370009I30J102400D01*
G01*
X92073789Y-54393792D02*
G75*
G03*
X88226033Y-52799991I-3847789J-3847808D01*
G01*
X94743432Y-57456567D02*
G75*
G02*
X94879998Y-57399988I136568J-136533D01*
G01*
X92600000Y-61155634D02*
G75*
G02*
X93699990Y-58499990I3755600J34D01*
G01*
X95240000Y-105560000D02*
X94800000Y-105560000D01*
X93480000Y-104680000D02*
G75*
G02*
X92600003Y-102555492I2124500J2124500D01*
G01*
X94048873Y-105248873D02*
X93480000Y-104680000D01*
X94800000Y-105560000D02*
G75*
G02*
X94048863Y-105248883I0J1062300D01*
G01*
%TO.N,/SS*%
X73778680Y-56701320D02*
X74700000Y-55780000D01*
X72900000Y-98771573D02*
X72900000Y-58822641D01*
X73487107Y-100187107D02*
X73485786Y-100185786D01*
X74800000Y-100480000D02*
X74194214Y-100480000D01*
%TO.N,/SCK*%
X89681320Y-52894996D02*
X89600000Y-52976316D01*
X90560000Y-50500000D02*
X90560000Y-50773675D01*
D18*
%TO.N,/RST*%
X100600000Y-75080000D02*
X100408427Y-75080000D01*
X99085787Y-65014215D02*
X99100001Y-65000001D01*
X98994213Y-74494213D02*
G75*
G03*
X100408427Y-75079981I1414187J1414213D01*
G01*
X98939340Y-74439340D02*
G75*
G02*
X98500014Y-73378680I1060660J1060640D01*
G01*
X98994213Y-74494213D02*
X98939340Y-74439340D01*
X98500000Y-66428429D02*
G75*
G02*
X99085772Y-65014200I2000000J29D01*
G01*
X98500000Y-73378680D02*
X98500000Y-66428429D01*
%TD*%
%TA.AperFunction,Conductor*%
%TO.N,GND*%
G36*
X99002702Y-44500617D02*
G01*
X99386771Y-44517386D01*
X99397506Y-44518326D01*
X99775971Y-44568152D01*
X99786597Y-44570025D01*
X100159284Y-44652648D01*
X100169710Y-44655442D01*
X100533765Y-44770227D01*
X100543911Y-44773920D01*
X100896578Y-44920000D01*
X100906369Y-44924566D01*
X101051972Y-45000362D01*
X101244942Y-45100816D01*
X101254310Y-45106224D01*
X101576244Y-45311318D01*
X101585105Y-45317523D01*
X101887930Y-45549889D01*
X101896217Y-45556843D01*
X102177635Y-45814715D01*
X102185284Y-45822364D01*
X102443156Y-46103782D01*
X102450110Y-46112069D01*
X102682476Y-46414894D01*
X102688681Y-46423755D01*
X102893775Y-46745689D01*
X102899183Y-46755057D01*
X103075430Y-47093623D01*
X103080002Y-47103427D01*
X103226075Y-47456078D01*
X103229775Y-47466244D01*
X103344554Y-47830278D01*
X103347354Y-47840727D01*
X103429971Y-48213389D01*
X103431849Y-48224042D01*
X103481671Y-48602473D01*
X103482614Y-48613249D01*
X103499382Y-48997297D01*
X103499500Y-49002706D01*
X103499500Y-50549597D01*
X103479815Y-50616636D01*
X103427011Y-50662391D01*
X103357853Y-50672335D01*
X103294297Y-50643310D01*
X103256523Y-50584532D01*
X103255725Y-50581690D01*
X103226738Y-50473509D01*
X103226735Y-50473500D01*
X103226648Y-50473313D01*
X103130565Y-50267264D01*
X103000044Y-50080859D01*
X103000042Y-50080856D01*
X102839138Y-49919952D01*
X102652731Y-49789430D01*
X102652729Y-49789429D01*
X102446494Y-49693259D01*
X102446485Y-49693256D01*
X102226694Y-49634364D01*
X102226690Y-49634363D01*
X102226689Y-49634363D01*
X102226688Y-49634362D01*
X102226683Y-49634362D01*
X101999999Y-49614530D01*
X101999995Y-49614530D01*
X101773310Y-49634362D01*
X101773299Y-49634364D01*
X101553508Y-49693256D01*
X101553499Y-49693259D01*
X101347264Y-49789429D01*
X101347262Y-49789430D01*
X101160855Y-49919952D01*
X100999951Y-50080856D01*
X100869429Y-50267263D01*
X100869428Y-50267265D01*
X100773258Y-50473500D01*
X100773255Y-50473509D01*
X100714363Y-50693300D01*
X100714361Y-50693311D01*
X100694529Y-50919996D01*
X100694529Y-50919999D01*
X100714361Y-51146684D01*
X100714363Y-51146695D01*
X100773255Y-51366486D01*
X100773258Y-51366495D01*
X100869428Y-51572730D01*
X100869429Y-51572732D01*
X100999951Y-51759139D01*
X101160855Y-51920043D01*
X101160858Y-51920045D01*
X101347263Y-52050566D01*
X101553501Y-52146737D01*
X101773305Y-52205633D01*
X101935227Y-52219799D01*
X101999995Y-52225466D01*
X101999997Y-52225466D01*
X101999999Y-52225466D01*
X102056670Y-52220507D01*
X102226689Y-52205633D01*
X102446493Y-52146737D01*
X102652731Y-52050566D01*
X102839136Y-51920045D01*
X103000044Y-51759137D01*
X103130565Y-51572732D01*
X103226736Y-51366494D01*
X103255725Y-51258304D01*
X103292090Y-51198644D01*
X103354937Y-51168115D01*
X103424312Y-51176410D01*
X103478190Y-51220895D01*
X103499465Y-51287447D01*
X103499500Y-51290398D01*
X103499500Y-60711529D01*
X103479815Y-60778568D01*
X103427011Y-60824323D01*
X103357853Y-60834267D01*
X103294297Y-60805242D01*
X103256523Y-60746464D01*
X103255725Y-60743622D01*
X103226266Y-60633680D01*
X103226262Y-60633671D01*
X103130131Y-60427515D01*
X102999654Y-60241177D01*
X102838817Y-60080340D01*
X102652479Y-59949863D01*
X102446325Y-59853732D01*
X102249997Y-59801125D01*
X102249997Y-60764312D01*
X102245603Y-60759918D01*
X102154391Y-60707257D01*
X102052658Y-60679998D01*
X101947336Y-60679998D01*
X101845603Y-60707257D01*
X101754391Y-60759918D01*
X101749997Y-60764312D01*
X101749997Y-59801125D01*
X101553668Y-59853732D01*
X101347514Y-59949863D01*
X101161176Y-60080340D01*
X101000339Y-60241177D01*
X100869862Y-60427515D01*
X100773731Y-60633671D01*
X100773727Y-60633680D01*
X100721124Y-60829997D01*
X100721125Y-60829998D01*
X101684311Y-60829998D01*
X101679917Y-60834392D01*
X101627256Y-60925604D01*
X101599997Y-61027337D01*
X101599997Y-61132659D01*
X101627256Y-61234392D01*
X101679917Y-61325604D01*
X101684311Y-61329998D01*
X100721125Y-61329998D01*
X100773727Y-61526315D01*
X100773731Y-61526324D01*
X100869862Y-61732480D01*
X101000339Y-61918818D01*
X101161176Y-62079655D01*
X101347514Y-62210132D01*
X101553670Y-62306263D01*
X101553679Y-62306267D01*
X101749996Y-62358870D01*
X101749997Y-62358869D01*
X101749997Y-61395684D01*
X101754391Y-61400078D01*
X101845603Y-61452739D01*
X101947336Y-61479998D01*
X102052658Y-61479998D01*
X102154391Y-61452739D01*
X102245603Y-61400078D01*
X102249997Y-61395684D01*
X102249997Y-62358870D01*
X102446314Y-62306267D01*
X102446323Y-62306263D01*
X102652479Y-62210132D01*
X102838817Y-62079655D01*
X102999654Y-61918818D01*
X103130131Y-61732480D01*
X103226262Y-61526324D01*
X103226266Y-61526315D01*
X103255725Y-61416373D01*
X103292090Y-61356712D01*
X103354937Y-61326183D01*
X103424312Y-61334478D01*
X103478190Y-61378963D01*
X103499465Y-61445515D01*
X103499500Y-61448466D01*
X103499500Y-104997293D01*
X103499382Y-105002702D01*
X103482614Y-105386750D01*
X103481671Y-105397526D01*
X103431849Y-105775957D01*
X103429971Y-105786610D01*
X103347354Y-106159272D01*
X103344554Y-106169721D01*
X103229775Y-106533755D01*
X103226075Y-106543921D01*
X103080002Y-106896572D01*
X103075430Y-106906376D01*
X102899183Y-107244942D01*
X102893775Y-107254310D01*
X102688681Y-107576244D01*
X102682476Y-107585105D01*
X102450110Y-107887930D01*
X102443156Y-107896217D01*
X102185284Y-108177635D01*
X102177635Y-108185284D01*
X101896217Y-108443156D01*
X101887930Y-108450110D01*
X101585105Y-108682476D01*
X101576244Y-108688681D01*
X101254310Y-108893775D01*
X101244942Y-108899183D01*
X100906376Y-109075430D01*
X100896572Y-109080002D01*
X100543921Y-109226075D01*
X100533755Y-109229775D01*
X100169721Y-109344554D01*
X100159272Y-109347354D01*
X99786610Y-109429971D01*
X99775957Y-109431849D01*
X99397526Y-109481671D01*
X99386750Y-109482614D01*
X99002703Y-109499382D01*
X98997294Y-109499500D01*
X76002706Y-109499500D01*
X75997297Y-109499382D01*
X75613249Y-109482614D01*
X75602473Y-109481671D01*
X75224042Y-109431849D01*
X75213389Y-109429971D01*
X74840727Y-109347354D01*
X74830278Y-109344554D01*
X74466244Y-109229775D01*
X74456078Y-109226075D01*
X74103427Y-109080002D01*
X74093623Y-109075430D01*
X73755057Y-108899183D01*
X73745689Y-108893775D01*
X73423755Y-108688681D01*
X73414894Y-108682476D01*
X73112069Y-108450110D01*
X73103782Y-108443156D01*
X72822364Y-108185284D01*
X72814715Y-108177635D01*
X72556843Y-107896217D01*
X72549889Y-107887930D01*
X72317523Y-107585105D01*
X72311318Y-107576244D01*
X72106224Y-107254310D01*
X72100816Y-107244942D01*
X71973924Y-107001185D01*
X71924566Y-106906369D01*
X71919997Y-106896572D01*
X71919371Y-106895061D01*
X71773920Y-106543911D01*
X71770224Y-106533755D01*
X71655442Y-106169710D01*
X71652648Y-106159284D01*
X71570025Y-105786597D01*
X71568152Y-105775971D01*
X71518326Y-105397506D01*
X71517386Y-105386771D01*
X71500618Y-105002702D01*
X71500500Y-104997293D01*
X71500500Y-58653437D01*
X72024498Y-58653437D01*
X72024498Y-58653444D01*
X72024500Y-58822629D01*
X72024500Y-98863482D01*
X72024518Y-98863861D01*
X72024518Y-98912823D01*
X72052206Y-99193987D01*
X72052206Y-99193992D01*
X72107323Y-99471098D01*
X72107323Y-99471100D01*
X72149031Y-99608597D01*
X72189332Y-99741456D01*
X72224875Y-99827266D01*
X72297446Y-100002474D01*
X72297447Y-100002478D01*
X72430626Y-100251646D01*
X72587579Y-100486549D01*
X72587590Y-100486565D01*
X72766825Y-100704967D01*
X72802107Y-100740249D01*
X72802132Y-100740276D01*
X72803949Y-100742093D01*
X72803956Y-100742101D01*
X72831715Y-100769860D01*
X72831733Y-100769893D01*
X72954953Y-100893110D01*
X72954957Y-100893114D01*
X73115749Y-101016490D01*
X73150009Y-101042778D01*
X73362927Y-101165703D01*
X73590069Y-101259785D01*
X73590075Y-101259786D01*
X73590076Y-101259787D01*
X73678534Y-101283488D01*
X73738195Y-101319851D01*
X73748018Y-101332140D01*
X73761505Y-101351402D01*
X73928597Y-101518493D01*
X73928603Y-101518498D01*
X74114158Y-101648425D01*
X74157783Y-101703002D01*
X74164977Y-101772500D01*
X74133454Y-101834855D01*
X74114158Y-101851575D01*
X73928597Y-101981505D01*
X73761505Y-102148597D01*
X73625965Y-102342169D01*
X73625964Y-102342171D01*
X73526098Y-102556335D01*
X73526094Y-102556344D01*
X73464938Y-102784586D01*
X73464936Y-102784596D01*
X73444341Y-103019999D01*
X73444341Y-103020000D01*
X73464936Y-103255403D01*
X73464938Y-103255413D01*
X73526094Y-103483655D01*
X73526096Y-103483659D01*
X73526097Y-103483663D01*
X73614262Y-103672732D01*
X73625965Y-103697830D01*
X73625967Y-103697834D01*
X73643829Y-103723343D01*
X73755557Y-103882907D01*
X73761501Y-103891395D01*
X73761506Y-103891402D01*
X73928597Y-104058493D01*
X73928603Y-104058498D01*
X74114158Y-104188425D01*
X74157783Y-104243002D01*
X74164977Y-104312500D01*
X74133454Y-104374855D01*
X74114158Y-104391575D01*
X73928597Y-104521505D01*
X73761505Y-104688597D01*
X73625965Y-104882169D01*
X73625964Y-104882171D01*
X73526098Y-105096335D01*
X73526094Y-105096344D01*
X73464938Y-105324586D01*
X73464936Y-105324596D01*
X73444341Y-105559999D01*
X73444341Y-105560000D01*
X73464936Y-105795403D01*
X73464938Y-105795413D01*
X73526094Y-106023655D01*
X73526096Y-106023659D01*
X73526097Y-106023663D01*
X73589333Y-106159272D01*
X73625965Y-106237830D01*
X73625967Y-106237834D01*
X73693763Y-106334656D01*
X73761505Y-106431401D01*
X73928599Y-106598495D01*
X74025384Y-106666265D01*
X74122165Y-106734032D01*
X74122167Y-106734033D01*
X74122170Y-106734035D01*
X74336337Y-106833903D01*
X74564592Y-106895063D01*
X74752918Y-106911539D01*
X74799999Y-106915659D01*
X74800000Y-106915659D01*
X74800001Y-106915659D01*
X74839234Y-106912226D01*
X75035408Y-106895063D01*
X75263663Y-106833903D01*
X75477830Y-106734035D01*
X75671401Y-106598495D01*
X75838495Y-106431401D01*
X75974035Y-106237830D01*
X76073903Y-106023663D01*
X76135063Y-105795408D01*
X76155659Y-105560000D01*
X76135063Y-105324592D01*
X76073903Y-105096337D01*
X75974035Y-104882171D01*
X75838495Y-104688599D01*
X75838494Y-104688597D01*
X75671402Y-104521506D01*
X75671396Y-104521501D01*
X75485842Y-104391575D01*
X75442217Y-104336998D01*
X75435023Y-104267500D01*
X75466546Y-104205145D01*
X75485842Y-104188425D01*
X75667926Y-104060928D01*
X75671401Y-104058495D01*
X75838495Y-103891401D01*
X75974035Y-103697830D01*
X76073903Y-103483663D01*
X76135063Y-103255408D01*
X76155659Y-103020000D01*
X76135063Y-102784592D01*
X76073903Y-102556337D01*
X75974035Y-102342171D01*
X75838495Y-102148599D01*
X75838494Y-102148597D01*
X75671402Y-101981506D01*
X75671396Y-101981501D01*
X75485842Y-101851575D01*
X75442217Y-101796998D01*
X75435023Y-101727500D01*
X75466546Y-101665145D01*
X75485842Y-101648425D01*
X75539909Y-101610567D01*
X75671401Y-101518495D01*
X75838495Y-101351401D01*
X75974035Y-101157830D01*
X76073903Y-100943663D01*
X76135063Y-100715408D01*
X76155659Y-100480000D01*
X76135063Y-100244592D01*
X76073903Y-100016337D01*
X75974035Y-99802171D01*
X75931520Y-99741452D01*
X75838494Y-99608597D01*
X75671402Y-99441506D01*
X75671396Y-99441501D01*
X75485842Y-99311575D01*
X75442217Y-99256998D01*
X75435023Y-99187500D01*
X75466546Y-99125145D01*
X75485842Y-99108425D01*
X75539909Y-99070567D01*
X75671401Y-98978495D01*
X75838495Y-98811401D01*
X75974035Y-98617830D01*
X76073903Y-98403663D01*
X76135063Y-98175408D01*
X76155659Y-97940000D01*
X76135063Y-97704592D01*
X76073903Y-97476337D01*
X75974035Y-97262171D01*
X75838495Y-97068599D01*
X75838494Y-97068597D01*
X75671402Y-96901506D01*
X75671396Y-96901501D01*
X75485842Y-96771575D01*
X75442217Y-96716998D01*
X75435023Y-96647500D01*
X75466546Y-96585145D01*
X75485842Y-96568425D01*
X75539909Y-96530567D01*
X75671401Y-96438495D01*
X75838495Y-96271401D01*
X75974035Y-96077830D01*
X76073903Y-95863663D01*
X76135063Y-95635408D01*
X76155659Y-95400000D01*
X76135063Y-95164592D01*
X76073903Y-94936337D01*
X75974035Y-94722171D01*
X75901421Y-94618466D01*
X75838494Y-94528597D01*
X75671402Y-94361506D01*
X75671396Y-94361501D01*
X75485842Y-94231575D01*
X75442217Y-94176998D01*
X75435023Y-94107500D01*
X75466546Y-94045145D01*
X75485842Y-94028425D01*
X75539909Y-93990567D01*
X75671401Y-93898495D01*
X75838495Y-93731401D01*
X75974035Y-93537830D01*
X76073903Y-93323663D01*
X76135063Y-93095408D01*
X76155659Y-92860000D01*
X76135063Y-92624592D01*
X76073903Y-92396337D01*
X75974035Y-92182171D01*
X75902890Y-92080564D01*
X75838494Y-91988597D01*
X75671402Y-91821506D01*
X75671396Y-91821501D01*
X75485842Y-91691575D01*
X75442217Y-91636998D01*
X75435023Y-91567500D01*
X75466546Y-91505145D01*
X75485842Y-91488425D01*
X75539909Y-91450567D01*
X75671401Y-91358495D01*
X75838495Y-91191401D01*
X75974035Y-90997830D01*
X76073903Y-90783663D01*
X76135063Y-90555408D01*
X76155659Y-90320000D01*
X76135063Y-90084592D01*
X76073903Y-89856337D01*
X75974035Y-89642171D01*
X75838495Y-89448599D01*
X75838494Y-89448597D01*
X75671402Y-89281506D01*
X75671396Y-89281501D01*
X75485842Y-89151575D01*
X75442217Y-89096998D01*
X75435023Y-89027500D01*
X75466546Y-88965145D01*
X75485842Y-88948425D01*
X75539909Y-88910567D01*
X75671401Y-88818495D01*
X75838495Y-88651401D01*
X75974035Y-88457830D01*
X76073903Y-88243663D01*
X76135063Y-88015408D01*
X76155659Y-87780000D01*
X76135063Y-87544592D01*
X76073903Y-87316337D01*
X75974035Y-87102171D01*
X75838495Y-86908599D01*
X75838494Y-86908597D01*
X75671402Y-86741506D01*
X75671396Y-86741501D01*
X75485842Y-86611575D01*
X75442217Y-86556998D01*
X75435023Y-86487500D01*
X75466546Y-86425145D01*
X75485842Y-86408425D01*
X75539909Y-86370567D01*
X75671401Y-86278495D01*
X75838495Y-86111401D01*
X75974035Y-85917830D01*
X76073903Y-85703663D01*
X76135063Y-85475408D01*
X76155659Y-85240000D01*
X76135063Y-85004592D01*
X76073903Y-84776337D01*
X75974035Y-84562171D01*
X75838495Y-84368599D01*
X75838494Y-84368597D01*
X75671402Y-84201506D01*
X75671396Y-84201501D01*
X75485842Y-84071575D01*
X75442217Y-84016998D01*
X75435023Y-83947500D01*
X75466546Y-83885145D01*
X75485842Y-83868425D01*
X75539909Y-83830567D01*
X75671401Y-83738495D01*
X75838495Y-83571401D01*
X75974035Y-83377830D01*
X76073903Y-83163663D01*
X76135063Y-82935408D01*
X76155659Y-82700000D01*
X76135063Y-82464592D01*
X76073903Y-82236337D01*
X75974035Y-82022171D01*
X75838495Y-81828599D01*
X75838494Y-81828597D01*
X75671402Y-81661506D01*
X75671396Y-81661501D01*
X75485842Y-81531575D01*
X75442217Y-81476998D01*
X75435023Y-81407500D01*
X75466546Y-81345145D01*
X75485842Y-81328425D01*
X75539909Y-81290567D01*
X75671401Y-81198495D01*
X75838495Y-81031401D01*
X75974035Y-80837830D01*
X76073903Y-80623663D01*
X76135063Y-80395408D01*
X76155659Y-80160000D01*
X76135063Y-79924592D01*
X76073903Y-79696337D01*
X75974035Y-79482171D01*
X75838495Y-79288599D01*
X75838494Y-79288597D01*
X75671402Y-79121506D01*
X75671401Y-79121505D01*
X75485405Y-78991269D01*
X75441781Y-78936692D01*
X75434588Y-78867193D01*
X75466110Y-78804839D01*
X75485405Y-78788119D01*
X75671082Y-78658105D01*
X75838105Y-78491082D01*
X75973600Y-78297578D01*
X76073429Y-78083492D01*
X76073432Y-78083486D01*
X76130636Y-77870000D01*
X75233012Y-77870000D01*
X75265925Y-77812993D01*
X75300000Y-77685826D01*
X75300000Y-77554174D01*
X75265925Y-77427007D01*
X75233012Y-77370000D01*
X76130636Y-77370000D01*
X76130635Y-77369999D01*
X76073432Y-77156513D01*
X76073429Y-77156507D01*
X75973600Y-76942422D01*
X75973599Y-76942420D01*
X75838113Y-76748926D01*
X75838108Y-76748920D01*
X75671078Y-76581890D01*
X75485405Y-76451879D01*
X75441780Y-76397302D01*
X75434588Y-76327804D01*
X75466110Y-76265449D01*
X75485406Y-76248730D01*
X75500883Y-76237893D01*
X75671401Y-76118495D01*
X75838495Y-75951401D01*
X75974035Y-75757830D01*
X76073903Y-75543663D01*
X76135063Y-75315408D01*
X76155659Y-75080000D01*
X76135063Y-74844592D01*
X76073903Y-74616337D01*
X75974035Y-74402171D01*
X75928456Y-74337076D01*
X75838494Y-74208597D01*
X75671402Y-74041506D01*
X75671396Y-74041501D01*
X75485842Y-73911575D01*
X75442217Y-73856998D01*
X75435023Y-73787500D01*
X75466546Y-73725145D01*
X75485842Y-73708425D01*
X75539909Y-73670567D01*
X75671401Y-73578495D01*
X75838495Y-73411401D01*
X75974035Y-73217830D01*
X76073903Y-73003663D01*
X76135063Y-72775408D01*
X76155659Y-72540000D01*
X76135063Y-72304592D01*
X76073903Y-72076337D01*
X75974035Y-71862171D01*
X75838495Y-71668599D01*
X75716567Y-71546671D01*
X75683084Y-71485351D01*
X75688068Y-71415659D01*
X75729939Y-71359725D01*
X75760915Y-71342810D01*
X75892331Y-71293796D01*
X76007546Y-71207546D01*
X76093796Y-71092331D01*
X76144091Y-70957483D01*
X76150500Y-70897873D01*
X76150499Y-69102128D01*
X76144091Y-69042517D01*
X76093796Y-68907669D01*
X76093795Y-68907668D01*
X76093793Y-68907664D01*
X76007547Y-68792455D01*
X76007544Y-68792452D01*
X75892335Y-68706206D01*
X75892328Y-68706202D01*
X75757482Y-68655908D01*
X75757483Y-68655908D01*
X75697883Y-68649501D01*
X75697881Y-68649500D01*
X75697873Y-68649500D01*
X75697865Y-68649500D01*
X73899500Y-68649500D01*
X73832461Y-68629815D01*
X73786706Y-68577011D01*
X73775500Y-68525500D01*
X73775500Y-64578477D01*
X73795185Y-64511438D01*
X73847989Y-64465683D01*
X73917147Y-64455739D01*
X73970621Y-64476901D01*
X74047266Y-64530568D01*
X74253504Y-64626739D01*
X74253509Y-64626740D01*
X74253511Y-64626741D01*
X74306415Y-64640916D01*
X74473308Y-64685635D01*
X74635230Y-64699801D01*
X74699998Y-64705468D01*
X74700000Y-64705468D01*
X74700002Y-64705468D01*
X74756673Y-64700509D01*
X74926692Y-64685635D01*
X75146496Y-64626739D01*
X75352734Y-64530568D01*
X75539139Y-64400047D01*
X75700047Y-64239139D01*
X75830568Y-64052734D01*
X75926739Y-63846496D01*
X75985635Y-63626692D01*
X76005468Y-63400000D01*
X76005091Y-63395695D01*
X76018856Y-63327196D01*
X76040935Y-63297207D01*
X77129793Y-62208351D01*
X77129793Y-62208350D01*
X77135146Y-62202998D01*
X77135192Y-62202947D01*
X77251117Y-62087023D01*
X77251117Y-62087022D01*
X77251122Y-62087018D01*
X77591103Y-61699344D01*
X77905001Y-61290264D01*
X78191473Y-60861530D01*
X78449290Y-60414977D01*
X78677349Y-59952519D01*
X78677350Y-59952516D01*
X78677352Y-59952513D01*
X78769756Y-59729429D01*
X78874674Y-59476136D01*
X79040420Y-58987866D01*
X79173876Y-58489802D01*
X79203665Y-58340045D01*
X79252745Y-58093302D01*
X79274471Y-57984076D01*
X79341775Y-57472853D01*
X79341776Y-57472846D01*
X79341776Y-57472844D01*
X79375500Y-56958327D01*
X79375500Y-49028863D01*
X79375501Y-49028858D01*
X79375500Y-48946105D01*
X79375695Y-48939155D01*
X79377535Y-48906384D01*
X79388465Y-48711694D01*
X79390019Y-48697907D01*
X79427595Y-48476733D01*
X79430684Y-48463198D01*
X79492784Y-48247636D01*
X79497375Y-48234516D01*
X79583225Y-48027248D01*
X79589242Y-48014753D01*
X79697758Y-47818403D01*
X79705141Y-47806652D01*
X79834961Y-47623685D01*
X79843625Y-47612822D01*
X79995081Y-47443337D01*
X79999843Y-47438299D01*
X80237935Y-47200208D01*
X80242972Y-47195447D01*
X80330013Y-47117664D01*
X80412844Y-47043642D01*
X80423702Y-47034983D01*
X80606666Y-46905167D01*
X80618413Y-46897786D01*
X80814760Y-46789272D01*
X80827268Y-46783248D01*
X81034530Y-46697400D01*
X81047646Y-46692811D01*
X81263205Y-46630712D01*
X81276744Y-46627622D01*
X81497908Y-46590048D01*
X81511697Y-46588494D01*
X81739677Y-46575694D01*
X81746617Y-46575500D01*
X81828858Y-46575501D01*
X81828863Y-46575500D01*
X87249468Y-46575500D01*
X87316507Y-46595185D01*
X87362262Y-46647989D01*
X87372206Y-46717147D01*
X87343181Y-46780703D01*
X87320591Y-46801075D01*
X87148597Y-46921505D01*
X86981505Y-47088597D01*
X86845965Y-47282169D01*
X86845964Y-47282171D01*
X86746098Y-47496335D01*
X86746094Y-47496344D01*
X86684938Y-47724586D01*
X86684936Y-47724596D01*
X86664341Y-47959999D01*
X86664341Y-47960000D01*
X86684936Y-48195403D01*
X86684938Y-48195413D01*
X86746094Y-48423655D01*
X86746096Y-48423659D01*
X86746097Y-48423663D01*
X86826004Y-48595023D01*
X86845965Y-48637830D01*
X86845967Y-48637834D01*
X86940261Y-48772498D01*
X86981501Y-48831396D01*
X86981506Y-48831402D01*
X87103430Y-48953326D01*
X87136915Y-49014649D01*
X87131931Y-49084341D01*
X87090059Y-49140274D01*
X87059083Y-49157189D01*
X86927669Y-49206203D01*
X86927664Y-49206206D01*
X86812455Y-49292452D01*
X86812452Y-49292455D01*
X86726206Y-49407664D01*
X86726202Y-49407671D01*
X86675908Y-49542517D01*
X86669501Y-49602116D01*
X86669500Y-49602135D01*
X86669500Y-51397870D01*
X86669501Y-51397876D01*
X86675908Y-51457483D01*
X86726202Y-51592328D01*
X86726206Y-51592335D01*
X86812452Y-51707544D01*
X86812455Y-51707547D01*
X86927664Y-51793793D01*
X86927671Y-51793797D01*
X86958295Y-51805219D01*
X87014228Y-51847090D01*
X87038646Y-51912554D01*
X87023795Y-51980827D01*
X86974390Y-52030233D01*
X86947054Y-52041176D01*
X86726167Y-52100359D01*
X86726139Y-52100367D01*
X86408161Y-52216099D01*
X86408156Y-52216101D01*
X86101435Y-52359123D01*
X85808363Y-52528324D01*
X85808349Y-52528333D01*
X85531151Y-52722424D01*
X85271899Y-52939959D01*
X85213224Y-52998632D01*
X85213220Y-52998636D01*
X85168745Y-53043110D01*
X85168715Y-53043138D01*
X85139761Y-53072093D01*
X85139712Y-53072119D01*
X84969180Y-53242656D01*
X84720372Y-53533977D01*
X84495187Y-53843922D01*
X84295008Y-54170588D01*
X84294996Y-54170610D01*
X84121087Y-54511932D01*
X84121081Y-54511944D01*
X83974465Y-54865908D01*
X83856081Y-55230262D01*
X83856074Y-55230285D01*
X83810802Y-55418861D01*
X83776011Y-55479453D01*
X83713985Y-55511617D01*
X83644416Y-55505141D01*
X83589392Y-55462081D01*
X83570453Y-55422007D01*
X83546741Y-55333511D01*
X83546738Y-55333502D01*
X83450568Y-55127266D01*
X83320047Y-54940861D01*
X83320045Y-54940858D01*
X83159141Y-54779954D01*
X82972734Y-54649432D01*
X82972728Y-54649429D01*
X82945038Y-54636517D01*
X82914724Y-54622381D01*
X82862285Y-54576210D01*
X82843133Y-54509017D01*
X82863348Y-54442135D01*
X82914725Y-54397618D01*
X82972734Y-54370568D01*
X83159139Y-54240047D01*
X83320047Y-54079139D01*
X83450568Y-53892734D01*
X83546739Y-53686496D01*
X83605635Y-53466692D01*
X83625468Y-53240000D01*
X83605635Y-53013308D01*
X83546739Y-52793504D01*
X83450568Y-52587266D01*
X83320047Y-52400861D01*
X83320045Y-52400858D01*
X83159141Y-52239954D01*
X82972734Y-52109432D01*
X82972728Y-52109429D01*
X82914725Y-52082382D01*
X82862285Y-52036210D01*
X82843133Y-51969017D01*
X82863348Y-51902135D01*
X82914725Y-51857618D01*
X82972734Y-51830568D01*
X83159139Y-51700047D01*
X83320047Y-51539139D01*
X83450568Y-51352734D01*
X83546739Y-51146496D01*
X83605635Y-50926692D01*
X83625468Y-50700000D01*
X83624882Y-50693306D01*
X83615117Y-50581690D01*
X83605635Y-50473308D01*
X83546739Y-50253504D01*
X83450568Y-50047266D01*
X83320047Y-49860861D01*
X83320045Y-49860858D01*
X83159141Y-49699954D01*
X82972734Y-49569432D01*
X82972732Y-49569431D01*
X82949612Y-49558650D01*
X82914132Y-49542105D01*
X82861694Y-49495934D01*
X82842542Y-49428740D01*
X82862758Y-49361859D01*
X82914134Y-49317341D01*
X82972484Y-49290132D01*
X83158820Y-49159657D01*
X83319657Y-48998820D01*
X83450134Y-48812482D01*
X83546265Y-48606326D01*
X83546269Y-48606317D01*
X83598872Y-48410000D01*
X82635686Y-48410000D01*
X82640080Y-48405606D01*
X82692741Y-48314394D01*
X82720000Y-48212661D01*
X82720000Y-48107339D01*
X82692741Y-48005606D01*
X82640080Y-47914394D01*
X82635686Y-47910000D01*
X83598872Y-47910000D01*
X83598872Y-47909999D01*
X83546269Y-47713682D01*
X83546265Y-47713673D01*
X83450134Y-47507517D01*
X83319657Y-47321179D01*
X83158820Y-47160342D01*
X82972482Y-47029865D01*
X82766328Y-46933734D01*
X82570000Y-46881127D01*
X82570000Y-47844314D01*
X82565606Y-47839920D01*
X82474394Y-47787259D01*
X82372661Y-47760000D01*
X82267339Y-47760000D01*
X82165606Y-47787259D01*
X82074394Y-47839920D01*
X82070000Y-47844314D01*
X82070000Y-46881127D01*
X81873671Y-46933734D01*
X81667517Y-47029865D01*
X81481179Y-47160342D01*
X81320342Y-47321179D01*
X81189865Y-47507517D01*
X81093734Y-47713673D01*
X81093730Y-47713682D01*
X81041127Y-47909999D01*
X81041128Y-47910000D01*
X82004314Y-47910000D01*
X81999920Y-47914394D01*
X81947259Y-48005606D01*
X81920000Y-48107339D01*
X81920000Y-48212661D01*
X81947259Y-48314394D01*
X81999920Y-48405606D01*
X82004314Y-48410000D01*
X81041128Y-48410000D01*
X81093730Y-48606317D01*
X81093734Y-48606326D01*
X81189865Y-48812482D01*
X81320342Y-48998820D01*
X81481179Y-49159657D01*
X81667518Y-49290134D01*
X81667520Y-49290135D01*
X81725865Y-49317342D01*
X81778305Y-49363514D01*
X81797457Y-49430707D01*
X81777242Y-49497589D01*
X81725867Y-49542105D01*
X81690388Y-49558650D01*
X81667264Y-49569433D01*
X81480858Y-49699954D01*
X81319954Y-49860858D01*
X81189432Y-50047265D01*
X81189431Y-50047267D01*
X81093261Y-50253502D01*
X81093258Y-50253511D01*
X81034366Y-50473302D01*
X81034364Y-50473313D01*
X81014532Y-50699998D01*
X81014532Y-50700001D01*
X81034364Y-50926686D01*
X81034366Y-50926697D01*
X81093258Y-51146488D01*
X81093261Y-51146497D01*
X81189431Y-51352732D01*
X81189432Y-51352734D01*
X81319954Y-51539141D01*
X81480858Y-51700045D01*
X81480861Y-51700047D01*
X81667266Y-51830568D01*
X81725275Y-51857618D01*
X81777714Y-51903791D01*
X81796866Y-51970984D01*
X81776650Y-52037865D01*
X81725275Y-52082382D01*
X81667267Y-52109431D01*
X81667265Y-52109432D01*
X81480858Y-52239954D01*
X81319954Y-52400858D01*
X81189432Y-52587265D01*
X81189431Y-52587267D01*
X81093261Y-52793502D01*
X81093258Y-52793511D01*
X81034366Y-53013302D01*
X81034364Y-53013313D01*
X81014532Y-53239998D01*
X81014532Y-53240001D01*
X81034364Y-53466686D01*
X81034366Y-53466697D01*
X81093258Y-53686488D01*
X81093261Y-53686497D01*
X81189431Y-53892732D01*
X81189432Y-53892734D01*
X81319954Y-54079141D01*
X81480858Y-54240045D01*
X81480861Y-54240047D01*
X81667266Y-54370568D01*
X81725275Y-54397618D01*
X81777714Y-54443791D01*
X81796866Y-54510984D01*
X81776650Y-54577865D01*
X81725275Y-54622381D01*
X81708272Y-54630310D01*
X81667267Y-54649431D01*
X81667265Y-54649432D01*
X81480858Y-54779954D01*
X81319954Y-54940858D01*
X81189432Y-55127265D01*
X81189431Y-55127267D01*
X81093261Y-55333502D01*
X81093258Y-55333511D01*
X81034366Y-55553302D01*
X81034364Y-55553313D01*
X81014532Y-55779998D01*
X81014532Y-55780001D01*
X81034364Y-56006686D01*
X81034366Y-56006697D01*
X81093258Y-56226488D01*
X81093261Y-56226497D01*
X81189431Y-56432732D01*
X81189432Y-56432734D01*
X81319954Y-56619141D01*
X81480858Y-56780045D01*
X81480861Y-56780047D01*
X81667266Y-56910568D01*
X81725275Y-56937618D01*
X81777714Y-56983791D01*
X81796866Y-57050984D01*
X81776650Y-57117865D01*
X81725275Y-57162382D01*
X81667267Y-57189431D01*
X81667265Y-57189432D01*
X81480858Y-57319954D01*
X81319954Y-57480858D01*
X81189432Y-57667265D01*
X81189431Y-57667267D01*
X81093261Y-57873502D01*
X81093258Y-57873511D01*
X81034366Y-58093302D01*
X81034364Y-58093313D01*
X81014532Y-58319998D01*
X81014532Y-58320001D01*
X81034364Y-58546686D01*
X81034366Y-58546697D01*
X81093258Y-58766488D01*
X81093261Y-58766497D01*
X81189431Y-58972732D01*
X81189432Y-58972734D01*
X81319954Y-59159141D01*
X81480858Y-59320045D01*
X81480861Y-59320047D01*
X81667266Y-59450568D01*
X81722114Y-59476144D01*
X81725275Y-59477618D01*
X81777714Y-59523791D01*
X81796866Y-59590984D01*
X81776650Y-59657865D01*
X81725275Y-59702382D01*
X81667267Y-59729431D01*
X81667265Y-59729432D01*
X81480858Y-59859954D01*
X81319954Y-60020858D01*
X81189432Y-60207265D01*
X81189431Y-60207267D01*
X81093261Y-60413502D01*
X81093258Y-60413511D01*
X81034366Y-60633302D01*
X81034364Y-60633313D01*
X81014532Y-60859998D01*
X81014532Y-60860001D01*
X81034364Y-61086686D01*
X81034366Y-61086697D01*
X81093258Y-61306488D01*
X81093261Y-61306497D01*
X81189431Y-61512732D01*
X81189432Y-61512734D01*
X81319954Y-61699141D01*
X81480858Y-61860045D01*
X81480861Y-61860047D01*
X81667266Y-61990568D01*
X81725275Y-62017618D01*
X81777714Y-62063791D01*
X81796866Y-62130984D01*
X81776650Y-62197865D01*
X81725275Y-62242382D01*
X81667267Y-62269431D01*
X81667265Y-62269432D01*
X81480858Y-62399954D01*
X81319954Y-62560858D01*
X81189432Y-62747265D01*
X81189431Y-62747267D01*
X81093261Y-62953502D01*
X81093258Y-62953511D01*
X81034366Y-63173302D01*
X81034364Y-63173313D01*
X81014532Y-63399998D01*
X81014532Y-63400001D01*
X81034364Y-63626686D01*
X81034366Y-63626697D01*
X81093258Y-63846488D01*
X81093261Y-63846497D01*
X81189431Y-64052732D01*
X81189432Y-64052734D01*
X81319954Y-64239141D01*
X81480858Y-64400045D01*
X81480861Y-64400047D01*
X81667266Y-64530568D01*
X81873504Y-64626739D01*
X81873509Y-64626740D01*
X81873511Y-64626741D01*
X81926415Y-64640916D01*
X82093308Y-64685635D01*
X82255230Y-64699801D01*
X82319998Y-64705468D01*
X82320000Y-64705468D01*
X82320002Y-64705468D01*
X82376673Y-64700509D01*
X82546692Y-64685635D01*
X82766496Y-64626739D01*
X82972734Y-64530568D01*
X83159139Y-64400047D01*
X83320047Y-64239139D01*
X83450568Y-64052734D01*
X83546739Y-63846496D01*
X83605635Y-63626692D01*
X83625468Y-63400000D01*
X83605635Y-63173308D01*
X83546739Y-62953504D01*
X83450568Y-62747266D01*
X83320047Y-62560861D01*
X83320045Y-62560858D01*
X83159141Y-62399954D01*
X82972734Y-62269432D01*
X82972728Y-62269429D01*
X82914725Y-62242382D01*
X82862285Y-62196210D01*
X82843133Y-62129017D01*
X82863348Y-62062135D01*
X82914725Y-62017618D01*
X82972734Y-61990568D01*
X83159139Y-61860047D01*
X83320047Y-61699139D01*
X83450568Y-61512734D01*
X83546739Y-61306496D01*
X83605635Y-61086692D01*
X83625468Y-60860000D01*
X83625091Y-60855695D01*
X83638856Y-60787196D01*
X83660934Y-60757208D01*
X84060624Y-60357520D01*
X84060625Y-60357517D01*
X84065171Y-60352972D01*
X84065276Y-60352854D01*
X84135094Y-60283039D01*
X84383911Y-59991715D01*
X84402334Y-59966357D01*
X84457664Y-59923692D01*
X84527277Y-59917713D01*
X84589072Y-59950319D01*
X84623430Y-60011158D01*
X84626652Y-60039243D01*
X84626652Y-92076138D01*
X84626573Y-92080564D01*
X84611205Y-92510836D01*
X84610574Y-92519665D01*
X84564786Y-92945559D01*
X84563526Y-92954321D01*
X84487473Y-93375856D01*
X84485591Y-93384505D01*
X84379660Y-93799534D01*
X84377166Y-93808027D01*
X84241900Y-94214436D01*
X84238807Y-94222730D01*
X84074887Y-94618466D01*
X84071210Y-94626517D01*
X83879476Y-95009555D01*
X83875234Y-95017324D01*
X83656668Y-95385698D01*
X83651882Y-95393145D01*
X83407594Y-95744985D01*
X83402290Y-95752071D01*
X83133518Y-96085598D01*
X83127721Y-96092288D01*
X82834306Y-96407438D01*
X82831232Y-96410623D01*
X81488836Y-97753018D01*
X81427513Y-97786503D01*
X81357821Y-97781519D01*
X81301888Y-97739647D01*
X81281381Y-97697432D01*
X81226739Y-97493504D01*
X81130568Y-97287266D01*
X81000047Y-97100861D01*
X81000045Y-97100858D01*
X80839141Y-96939954D01*
X80652734Y-96809432D01*
X80652728Y-96809429D01*
X80594725Y-96782382D01*
X80542285Y-96736210D01*
X80523133Y-96669017D01*
X80543348Y-96602135D01*
X80594725Y-96557618D01*
X80652734Y-96530568D01*
X80839139Y-96400047D01*
X81000047Y-96239139D01*
X81130568Y-96052734D01*
X81226739Y-95846496D01*
X81285635Y-95626692D01*
X81305468Y-95400000D01*
X81285635Y-95173308D01*
X81226739Y-94953504D01*
X81130568Y-94747266D01*
X81000047Y-94560861D01*
X81000045Y-94560858D01*
X80839141Y-94399954D01*
X80652734Y-94269432D01*
X80652728Y-94269429D01*
X80594725Y-94242382D01*
X80542285Y-94196210D01*
X80523133Y-94129017D01*
X80543348Y-94062135D01*
X80594725Y-94017618D01*
X80652734Y-93990568D01*
X80839139Y-93860047D01*
X81000047Y-93699139D01*
X81130568Y-93512734D01*
X81226739Y-93306496D01*
X81285635Y-93086692D01*
X81305468Y-92860000D01*
X81304654Y-92850701D01*
X81285635Y-92633313D01*
X81285635Y-92633308D01*
X81226739Y-92413504D01*
X81130568Y-92207266D01*
X81000047Y-92020861D01*
X81000045Y-92020858D01*
X80839141Y-91859954D01*
X80652734Y-91729432D01*
X80652728Y-91729429D01*
X80594725Y-91702382D01*
X80542285Y-91656210D01*
X80523133Y-91589017D01*
X80543348Y-91522135D01*
X80594725Y-91477618D01*
X80652734Y-91450568D01*
X80839139Y-91320047D01*
X81000047Y-91159139D01*
X81130568Y-90972734D01*
X81226739Y-90766496D01*
X81285635Y-90546692D01*
X81305468Y-90320000D01*
X81285635Y-90093308D01*
X81226739Y-89873504D01*
X81130568Y-89667266D01*
X81000047Y-89480861D01*
X81000045Y-89480858D01*
X80839141Y-89319954D01*
X80652734Y-89189432D01*
X80652728Y-89189429D01*
X80594725Y-89162382D01*
X80542285Y-89116210D01*
X80523133Y-89049017D01*
X80543348Y-88982135D01*
X80594725Y-88937618D01*
X80652734Y-88910568D01*
X80839139Y-88780047D01*
X81000047Y-88619139D01*
X81130568Y-88432734D01*
X81226739Y-88226496D01*
X81285635Y-88006692D01*
X81305468Y-87780000D01*
X81285635Y-87553308D01*
X81226739Y-87333504D01*
X81130568Y-87127266D01*
X81000047Y-86940861D01*
X81000045Y-86940858D01*
X80839141Y-86779954D01*
X80652734Y-86649432D01*
X80652728Y-86649429D01*
X80594725Y-86622382D01*
X80542285Y-86576210D01*
X80523133Y-86509017D01*
X80543348Y-86442135D01*
X80594725Y-86397618D01*
X80652734Y-86370568D01*
X80839139Y-86240047D01*
X81000047Y-86079139D01*
X81130568Y-85892734D01*
X81226739Y-85686496D01*
X81285635Y-85466692D01*
X81305468Y-85240000D01*
X81285635Y-85013308D01*
X81226739Y-84793504D01*
X81130568Y-84587266D01*
X81000047Y-84400861D01*
X81000045Y-84400858D01*
X80839141Y-84239954D01*
X80652734Y-84109432D01*
X80652728Y-84109429D01*
X80594725Y-84082382D01*
X80542285Y-84036210D01*
X80523133Y-83969017D01*
X80543348Y-83902135D01*
X80594725Y-83857618D01*
X80652734Y-83830568D01*
X80839139Y-83700047D01*
X81000047Y-83539139D01*
X81130568Y-83352734D01*
X81226739Y-83146496D01*
X81285635Y-82926692D01*
X81305468Y-82700000D01*
X81285635Y-82473308D01*
X81226739Y-82253504D01*
X81130568Y-82047266D01*
X81000047Y-81860861D01*
X81000045Y-81860858D01*
X80839141Y-81699954D01*
X80652734Y-81569432D01*
X80652728Y-81569429D01*
X80594725Y-81542382D01*
X80542285Y-81496210D01*
X80523133Y-81429017D01*
X80543348Y-81362135D01*
X80594725Y-81317618D01*
X80652734Y-81290568D01*
X80839139Y-81160047D01*
X81000047Y-80999139D01*
X81130568Y-80812734D01*
X81226739Y-80606496D01*
X81285635Y-80386692D01*
X81305468Y-80160000D01*
X81285635Y-79933308D01*
X81226739Y-79713504D01*
X81130568Y-79507266D01*
X81000047Y-79320861D01*
X81000045Y-79320858D01*
X80839141Y-79159954D01*
X80652734Y-79029432D01*
X80652732Y-79029431D01*
X80594725Y-79002382D01*
X80594132Y-79002105D01*
X80541694Y-78955934D01*
X80522542Y-78888740D01*
X80542758Y-78821859D01*
X80594134Y-78777341D01*
X80652484Y-78750132D01*
X80838820Y-78619657D01*
X80999657Y-78458820D01*
X81130134Y-78272482D01*
X81226265Y-78066326D01*
X81226269Y-78066317D01*
X81278872Y-77870000D01*
X80433012Y-77870000D01*
X80465925Y-77812993D01*
X80500000Y-77685826D01*
X80500000Y-77554174D01*
X80465925Y-77427007D01*
X80433012Y-77370000D01*
X81278872Y-77370000D01*
X81278872Y-77369999D01*
X81226269Y-77173682D01*
X81226265Y-77173673D01*
X81130134Y-76967517D01*
X80999657Y-76781179D01*
X80838820Y-76620342D01*
X80652482Y-76489865D01*
X80594133Y-76462657D01*
X80541694Y-76416484D01*
X80522542Y-76349291D01*
X80542758Y-76282410D01*
X80594129Y-76237895D01*
X80652734Y-76210568D01*
X80839139Y-76080047D01*
X81000047Y-75919139D01*
X81130568Y-75732734D01*
X81226739Y-75526496D01*
X81285635Y-75306692D01*
X81305468Y-75080000D01*
X81285635Y-74853308D01*
X81226739Y-74633504D01*
X81130568Y-74427266D01*
X81000047Y-74240861D01*
X81000045Y-74240858D01*
X80839141Y-74079954D01*
X80652734Y-73949432D01*
X80652728Y-73949429D01*
X80594725Y-73922382D01*
X80542285Y-73876210D01*
X80523133Y-73809017D01*
X80543348Y-73742135D01*
X80594725Y-73697618D01*
X80595319Y-73697341D01*
X80652734Y-73670568D01*
X80839139Y-73540047D01*
X81000047Y-73379139D01*
X81130568Y-73192734D01*
X81226739Y-72986496D01*
X81285635Y-72766692D01*
X81305468Y-72540000D01*
X81285635Y-72313308D01*
X81226739Y-72093504D01*
X81130568Y-71887266D01*
X81000047Y-71700861D01*
X81000045Y-71700858D01*
X80839143Y-71539956D01*
X80814536Y-71522726D01*
X80770912Y-71468149D01*
X80763719Y-71398650D01*
X80795241Y-71336296D01*
X80855471Y-71300882D01*
X80872404Y-71297861D01*
X80907483Y-71294091D01*
X81042331Y-71243796D01*
X81157546Y-71157546D01*
X81243796Y-71042331D01*
X81294091Y-70907483D01*
X81300500Y-70847873D01*
X81300499Y-69152128D01*
X81294091Y-69092517D01*
X81275442Y-69042517D01*
X81243797Y-68957671D01*
X81243793Y-68957664D01*
X81157547Y-68842455D01*
X81157544Y-68842452D01*
X81042335Y-68756206D01*
X81042328Y-68756202D01*
X80907482Y-68705908D01*
X80907483Y-68705908D01*
X80847883Y-68699501D01*
X80847881Y-68699500D01*
X80847873Y-68699500D01*
X80847864Y-68699500D01*
X79152129Y-68699500D01*
X79152123Y-68699501D01*
X79092516Y-68705908D01*
X78957671Y-68756202D01*
X78957664Y-68756206D01*
X78842455Y-68842452D01*
X78842452Y-68842455D01*
X78756206Y-68957664D01*
X78756202Y-68957671D01*
X78705908Y-69092517D01*
X78699501Y-69152116D01*
X78699501Y-69152123D01*
X78699500Y-69152135D01*
X78699500Y-70847870D01*
X78699501Y-70847876D01*
X78705908Y-70907483D01*
X78756202Y-71042328D01*
X78756206Y-71042335D01*
X78842452Y-71157544D01*
X78842455Y-71157547D01*
X78957664Y-71243793D01*
X78957671Y-71243797D01*
X79002618Y-71260561D01*
X79092517Y-71294091D01*
X79127596Y-71297862D01*
X79192144Y-71324599D01*
X79231993Y-71381991D01*
X79234488Y-71451816D01*
X79198836Y-71511905D01*
X79185464Y-71522725D01*
X79160858Y-71539954D01*
X78999954Y-71700858D01*
X78869432Y-71887265D01*
X78869431Y-71887267D01*
X78773261Y-72093502D01*
X78773258Y-72093511D01*
X78714366Y-72313302D01*
X78714364Y-72313313D01*
X78694532Y-72539998D01*
X78694532Y-72540001D01*
X78714364Y-72766686D01*
X78714366Y-72766697D01*
X78773258Y-72986488D01*
X78773261Y-72986497D01*
X78869431Y-73192732D01*
X78869432Y-73192734D01*
X78999954Y-73379141D01*
X79160858Y-73540045D01*
X79160861Y-73540047D01*
X79347266Y-73670568D01*
X79404681Y-73697341D01*
X79405275Y-73697618D01*
X79457714Y-73743791D01*
X79476866Y-73810984D01*
X79456650Y-73877865D01*
X79405275Y-73922382D01*
X79347267Y-73949431D01*
X79347265Y-73949432D01*
X79160858Y-74079954D01*
X78999954Y-74240858D01*
X78869432Y-74427265D01*
X78869431Y-74427267D01*
X78773261Y-74633502D01*
X78773258Y-74633511D01*
X78714366Y-74853302D01*
X78714364Y-74853313D01*
X78694532Y-75079998D01*
X78694532Y-75080001D01*
X78714364Y-75306686D01*
X78714366Y-75306697D01*
X78773258Y-75526488D01*
X78773261Y-75526497D01*
X78869431Y-75732732D01*
X78869432Y-75732734D01*
X78999954Y-75919141D01*
X79160858Y-76080045D01*
X79160861Y-76080047D01*
X79347266Y-76210568D01*
X79405865Y-76237893D01*
X79458305Y-76284065D01*
X79477457Y-76351258D01*
X79457242Y-76418139D01*
X79405867Y-76462657D01*
X79347515Y-76489867D01*
X79161179Y-76620342D01*
X79000342Y-76781179D01*
X78869865Y-76967517D01*
X78773734Y-77173673D01*
X78773730Y-77173682D01*
X78721127Y-77369999D01*
X78721128Y-77370000D01*
X79566988Y-77370000D01*
X79534075Y-77427007D01*
X79500000Y-77554174D01*
X79500000Y-77685826D01*
X79534075Y-77812993D01*
X79566988Y-77870000D01*
X78721128Y-77870000D01*
X78773730Y-78066317D01*
X78773734Y-78066326D01*
X78869865Y-78272482D01*
X79000342Y-78458820D01*
X79161179Y-78619657D01*
X79347518Y-78750134D01*
X79347520Y-78750135D01*
X79405865Y-78777342D01*
X79458305Y-78823514D01*
X79477457Y-78890707D01*
X79457242Y-78957589D01*
X79405867Y-79002105D01*
X79347268Y-79029431D01*
X79347264Y-79029433D01*
X79160858Y-79159954D01*
X78999954Y-79320858D01*
X78869432Y-79507265D01*
X78869431Y-79507267D01*
X78773261Y-79713502D01*
X78773258Y-79713511D01*
X78714366Y-79933302D01*
X78714364Y-79933313D01*
X78694532Y-80159998D01*
X78694532Y-80160001D01*
X78714364Y-80386686D01*
X78714366Y-80386697D01*
X78773258Y-80606488D01*
X78773261Y-80606497D01*
X78869431Y-80812732D01*
X78869432Y-80812734D01*
X78999954Y-80999141D01*
X79160858Y-81160045D01*
X79160861Y-81160047D01*
X79347266Y-81290568D01*
X79405275Y-81317618D01*
X79457714Y-81363791D01*
X79476866Y-81430984D01*
X79456650Y-81497865D01*
X79405275Y-81542382D01*
X79347267Y-81569431D01*
X79347265Y-81569432D01*
X79160858Y-81699954D01*
X78999954Y-81860858D01*
X78869432Y-82047265D01*
X78869431Y-82047267D01*
X78773261Y-82253502D01*
X78773258Y-82253511D01*
X78714366Y-82473302D01*
X78714364Y-82473313D01*
X78694532Y-82699998D01*
X78694532Y-82700001D01*
X78714364Y-82926686D01*
X78714366Y-82926697D01*
X78773258Y-83146488D01*
X78773261Y-83146497D01*
X78869431Y-83352732D01*
X78869432Y-83352734D01*
X78999954Y-83539141D01*
X79160858Y-83700045D01*
X79160861Y-83700047D01*
X79347266Y-83830568D01*
X79405275Y-83857618D01*
X79457714Y-83903791D01*
X79476866Y-83970984D01*
X79456650Y-84037865D01*
X79405275Y-84082382D01*
X79347267Y-84109431D01*
X79347265Y-84109432D01*
X79160858Y-84239954D01*
X78999954Y-84400858D01*
X78869432Y-84587265D01*
X78869431Y-84587267D01*
X78773261Y-84793502D01*
X78773258Y-84793511D01*
X78714366Y-85013302D01*
X78714364Y-85013313D01*
X78694532Y-85239998D01*
X78694532Y-85240001D01*
X78714364Y-85466686D01*
X78714366Y-85466697D01*
X78773258Y-85686488D01*
X78773261Y-85686497D01*
X78869431Y-85892732D01*
X78869432Y-85892734D01*
X78999954Y-86079141D01*
X79160858Y-86240045D01*
X79160861Y-86240047D01*
X79347266Y-86370568D01*
X79405275Y-86397618D01*
X79457714Y-86443791D01*
X79476866Y-86510984D01*
X79456650Y-86577865D01*
X79405275Y-86622382D01*
X79347267Y-86649431D01*
X79347265Y-86649432D01*
X79160858Y-86779954D01*
X78999954Y-86940858D01*
X78869432Y-87127265D01*
X78869431Y-87127267D01*
X78773261Y-87333502D01*
X78773258Y-87333511D01*
X78714366Y-87553302D01*
X78714364Y-87553313D01*
X78694532Y-87779998D01*
X78694532Y-87780001D01*
X78714364Y-88006686D01*
X78714366Y-88006697D01*
X78773258Y-88226488D01*
X78773261Y-88226497D01*
X78869431Y-88432732D01*
X78869432Y-88432734D01*
X78999954Y-88619141D01*
X79160858Y-88780045D01*
X79160861Y-88780047D01*
X79347266Y-88910568D01*
X79405275Y-88937618D01*
X79457714Y-88983791D01*
X79476866Y-89050984D01*
X79456650Y-89117865D01*
X79405275Y-89162382D01*
X79347267Y-89189431D01*
X79347265Y-89189432D01*
X79160858Y-89319954D01*
X78999954Y-89480858D01*
X78869432Y-89667265D01*
X78869431Y-89667267D01*
X78773261Y-89873502D01*
X78773258Y-89873511D01*
X78714366Y-90093302D01*
X78714364Y-90093313D01*
X78694532Y-90319998D01*
X78694532Y-90320001D01*
X78714364Y-90546686D01*
X78714366Y-90546697D01*
X78773258Y-90766488D01*
X78773261Y-90766497D01*
X78869431Y-90972732D01*
X78869432Y-90972734D01*
X78999954Y-91159141D01*
X79160858Y-91320045D01*
X79160861Y-91320047D01*
X79347266Y-91450568D01*
X79405275Y-91477618D01*
X79457714Y-91523791D01*
X79476866Y-91590984D01*
X79456650Y-91657865D01*
X79405275Y-91702382D01*
X79347267Y-91729431D01*
X79347265Y-91729432D01*
X79160858Y-91859954D01*
X78999954Y-92020858D01*
X78869432Y-92207265D01*
X78869431Y-92207267D01*
X78773261Y-92413502D01*
X78773258Y-92413511D01*
X78714366Y-92633302D01*
X78714364Y-92633313D01*
X78694532Y-92859998D01*
X78694532Y-92860001D01*
X78714364Y-93086686D01*
X78714366Y-93086697D01*
X78773258Y-93306488D01*
X78773261Y-93306497D01*
X78869431Y-93512732D01*
X78869432Y-93512734D01*
X78999954Y-93699141D01*
X79160858Y-93860045D01*
X79160861Y-93860047D01*
X79347266Y-93990568D01*
X79405275Y-94017618D01*
X79457714Y-94063791D01*
X79476866Y-94130984D01*
X79456650Y-94197865D01*
X79405275Y-94242382D01*
X79347267Y-94269431D01*
X79347265Y-94269432D01*
X79160858Y-94399954D01*
X78999954Y-94560858D01*
X78869432Y-94747265D01*
X78869431Y-94747267D01*
X78773261Y-94953502D01*
X78773258Y-94953511D01*
X78714366Y-95173302D01*
X78714364Y-95173313D01*
X78694532Y-95399998D01*
X78694532Y-95400001D01*
X78714364Y-95626686D01*
X78714366Y-95626697D01*
X78773258Y-95846488D01*
X78773261Y-95846497D01*
X78869431Y-96052732D01*
X78869432Y-96052734D01*
X78999954Y-96239141D01*
X79160858Y-96400045D01*
X79173686Y-96409027D01*
X79347266Y-96530568D01*
X79405275Y-96557618D01*
X79457714Y-96603791D01*
X79476866Y-96670984D01*
X79456650Y-96737865D01*
X79405275Y-96782382D01*
X79347267Y-96809431D01*
X79347265Y-96809432D01*
X79160858Y-96939954D01*
X78999954Y-97100858D01*
X78869432Y-97287265D01*
X78869431Y-97287267D01*
X78773261Y-97493502D01*
X78773258Y-97493511D01*
X78714366Y-97713302D01*
X78714364Y-97713313D01*
X78694532Y-97939998D01*
X78694532Y-97940001D01*
X78714364Y-98166686D01*
X78714366Y-98166697D01*
X78773258Y-98386488D01*
X78773261Y-98386497D01*
X78869431Y-98592732D01*
X78869432Y-98592734D01*
X78999954Y-98779141D01*
X79160858Y-98940045D01*
X79160861Y-98940047D01*
X79347266Y-99070568D01*
X79405275Y-99097618D01*
X79457714Y-99143791D01*
X79476866Y-99210984D01*
X79456650Y-99277865D01*
X79405275Y-99322382D01*
X79347267Y-99349431D01*
X79347265Y-99349432D01*
X79160858Y-99479954D01*
X78999954Y-99640858D01*
X78869432Y-99827265D01*
X78869431Y-99827267D01*
X78773261Y-100033502D01*
X78773258Y-100033511D01*
X78714366Y-100253302D01*
X78714364Y-100253313D01*
X78694532Y-100479998D01*
X78694532Y-100480001D01*
X78714364Y-100706686D01*
X78714366Y-100706697D01*
X78773258Y-100926488D01*
X78773261Y-100926497D01*
X78869431Y-101132732D01*
X78869432Y-101132734D01*
X78999954Y-101319141D01*
X79160858Y-101480045D01*
X79160861Y-101480047D01*
X79347266Y-101610568D01*
X79405275Y-101637618D01*
X79457714Y-101683791D01*
X79476866Y-101750984D01*
X79456650Y-101817865D01*
X79405275Y-101862382D01*
X79347267Y-101889431D01*
X79347265Y-101889432D01*
X79160858Y-102019954D01*
X78999954Y-102180858D01*
X78869432Y-102367265D01*
X78869431Y-102367267D01*
X78773261Y-102573502D01*
X78773258Y-102573511D01*
X78714366Y-102793302D01*
X78714364Y-102793313D01*
X78694532Y-103019998D01*
X78694532Y-103020001D01*
X78714364Y-103246686D01*
X78714366Y-103246697D01*
X78773258Y-103466488D01*
X78773261Y-103466497D01*
X78869431Y-103672732D01*
X78869432Y-103672734D01*
X78999954Y-103859141D01*
X79160858Y-104020045D01*
X79207693Y-104052839D01*
X79347266Y-104150568D01*
X79405275Y-104177618D01*
X79457714Y-104223791D01*
X79476866Y-104290984D01*
X79456650Y-104357865D01*
X79405275Y-104402382D01*
X79347267Y-104429431D01*
X79347265Y-104429432D01*
X79160858Y-104559954D01*
X78999954Y-104720858D01*
X78869432Y-104907265D01*
X78869431Y-104907267D01*
X78773261Y-105113502D01*
X78773258Y-105113511D01*
X78714366Y-105333302D01*
X78714364Y-105333313D01*
X78694532Y-105559998D01*
X78694532Y-105560001D01*
X78714364Y-105786686D01*
X78714366Y-105786697D01*
X78773258Y-106006488D01*
X78773261Y-106006497D01*
X78869431Y-106212732D01*
X78869432Y-106212734D01*
X78999954Y-106399141D01*
X79160858Y-106560045D01*
X79207693Y-106592839D01*
X79347266Y-106690568D01*
X79553504Y-106786739D01*
X79773308Y-106845635D01*
X79935230Y-106859801D01*
X79999998Y-106865468D01*
X80000000Y-106865468D01*
X80000002Y-106865468D01*
X80056673Y-106860509D01*
X80226692Y-106845635D01*
X80446496Y-106786739D01*
X80652734Y-106690568D01*
X80839139Y-106560047D01*
X81000047Y-106399139D01*
X81130568Y-106212734D01*
X81226739Y-106006496D01*
X81285635Y-105786692D01*
X81305468Y-105560000D01*
X81285635Y-105333308D01*
X81226739Y-105113504D01*
X81130568Y-104907266D01*
X81000047Y-104720861D01*
X81000045Y-104720858D01*
X80839141Y-104559954D01*
X80652734Y-104429432D01*
X80652728Y-104429429D01*
X80594725Y-104402382D01*
X80542285Y-104356210D01*
X80523133Y-104289017D01*
X80543348Y-104222135D01*
X80594725Y-104177618D01*
X80652734Y-104150568D01*
X80839139Y-104020047D01*
X81000047Y-103859139D01*
X81130568Y-103672734D01*
X81226739Y-103466496D01*
X81285635Y-103246692D01*
X81305468Y-103020000D01*
X81285635Y-102793308D01*
X81226739Y-102573504D01*
X81130568Y-102367266D01*
X81000047Y-102180861D01*
X81000045Y-102180858D01*
X80839141Y-102019954D01*
X80652734Y-101889432D01*
X80652728Y-101889429D01*
X80594725Y-101862382D01*
X80542285Y-101816210D01*
X80523133Y-101749017D01*
X80543348Y-101682135D01*
X80594725Y-101637618D01*
X80652734Y-101610568D01*
X80839139Y-101480047D01*
X81000047Y-101319139D01*
X81130568Y-101132734D01*
X81226739Y-100926496D01*
X81285635Y-100706692D01*
X81305468Y-100480000D01*
X81305091Y-100475695D01*
X81318856Y-100407196D01*
X81340935Y-100377207D01*
X84131945Y-97586199D01*
X84131946Y-97586196D01*
X84137783Y-97580360D01*
X84137797Y-97580344D01*
X84253250Y-97464892D01*
X84253250Y-97464891D01*
X84253275Y-97464867D01*
X84593256Y-97077192D01*
X84907155Y-96668112D01*
X85193626Y-96239378D01*
X85451443Y-95792826D01*
X85679502Y-95330368D01*
X85876827Y-94853984D01*
X86042572Y-94365714D01*
X86176028Y-93867650D01*
X86276624Y-93361924D01*
X86343928Y-92850701D01*
X86377652Y-92336170D01*
X86377652Y-92078353D01*
X86377652Y-91992124D01*
X86377652Y-91992123D01*
X86377652Y-63529358D01*
X86397337Y-63462319D01*
X86450141Y-63416564D01*
X86519299Y-63406620D01*
X86572776Y-63427783D01*
X86747515Y-63550138D01*
X86953671Y-63646269D01*
X86953680Y-63646273D01*
X87149997Y-63698876D01*
X87149998Y-63698875D01*
X87149998Y-62735690D01*
X87154392Y-62740084D01*
X87245604Y-62792745D01*
X87347337Y-62820004D01*
X87452659Y-62820004D01*
X87554392Y-62792745D01*
X87645604Y-62740084D01*
X87649998Y-62735690D01*
X87649998Y-63698876D01*
X87846315Y-63646273D01*
X87846324Y-63646269D01*
X88052480Y-63550138D01*
X88238818Y-63419661D01*
X88399655Y-63258824D01*
X88530132Y-63072486D01*
X88626263Y-62866330D01*
X88626267Y-62866321D01*
X88678870Y-62670004D01*
X87715684Y-62670004D01*
X87720078Y-62665610D01*
X87772739Y-62574398D01*
X87799998Y-62472665D01*
X87799998Y-62367343D01*
X87772739Y-62265610D01*
X87720078Y-62174398D01*
X87715684Y-62170004D01*
X88678870Y-62170004D01*
X88678870Y-62170003D01*
X88626267Y-61973686D01*
X88626263Y-61973677D01*
X88530132Y-61767521D01*
X88399655Y-61581183D01*
X88238818Y-61420346D01*
X88052479Y-61289869D01*
X88052477Y-61289868D01*
X87994131Y-61262661D01*
X87941691Y-61216489D01*
X87922539Y-61149296D01*
X87942754Y-61082414D01*
X87994131Y-61037897D01*
X88052736Y-61010569D01*
X88239141Y-60880048D01*
X88400049Y-60719140D01*
X88530570Y-60532735D01*
X88626741Y-60326497D01*
X88685637Y-60106693D01*
X88705470Y-59880001D01*
X88705469Y-59879995D01*
X88692297Y-59729431D01*
X88685637Y-59653309D01*
X88626741Y-59433505D01*
X88530570Y-59227267D01*
X88400049Y-59040862D01*
X88400047Y-59040859D01*
X88239143Y-58879955D01*
X88052736Y-58749433D01*
X88052734Y-58749432D01*
X87994725Y-58722382D01*
X87942286Y-58676209D01*
X87923134Y-58609016D01*
X87943350Y-58542135D01*
X87994721Y-58497620D01*
X88052734Y-58470569D01*
X88239139Y-58340048D01*
X88400047Y-58179140D01*
X88530568Y-57992735D01*
X88626739Y-57786497D01*
X88685635Y-57566693D01*
X88705468Y-57340001D01*
X88685635Y-57113309D01*
X88626739Y-56893505D01*
X88530568Y-56687267D01*
X88400047Y-56500862D01*
X88400046Y-56500861D01*
X88400045Y-56500859D01*
X88239139Y-56339953D01*
X88214535Y-56322725D01*
X88170910Y-56268148D01*
X88163718Y-56198649D01*
X88195241Y-56136295D01*
X88255471Y-56100882D01*
X88272401Y-56097862D01*
X88307483Y-56094091D01*
X88442331Y-56043796D01*
X88557546Y-55957546D01*
X88643796Y-55842331D01*
X88694091Y-55707483D01*
X88700500Y-55647873D01*
X88700499Y-53952128D01*
X88694091Y-53892517D01*
X88691458Y-53885460D01*
X88686475Y-53815769D01*
X88719959Y-53754446D01*
X88781283Y-53720961D01*
X88823827Y-53719188D01*
X89013554Y-53744167D01*
X89024181Y-53746040D01*
X89328387Y-53813482D01*
X89338695Y-53816734D01*
X89338796Y-53816402D01*
X89344619Y-53818168D01*
X89344626Y-53818171D01*
X89391076Y-53827409D01*
X89393710Y-53827964D01*
X89402530Y-53829920D01*
X89412971Y-53832718D01*
X89484205Y-53855178D01*
X89782554Y-53949248D01*
X89792704Y-53952942D01*
X90150730Y-54101242D01*
X90160521Y-54105809D01*
X90504243Y-54284739D01*
X90513611Y-54290147D01*
X90840442Y-54498361D01*
X90849303Y-54504566D01*
X91156733Y-54740465D01*
X91165014Y-54747414D01*
X91452883Y-55011197D01*
X91456791Y-55014938D01*
X93614173Y-57172320D01*
X93647658Y-57233643D01*
X93642674Y-57303335D01*
X93614173Y-57347682D01*
X93117257Y-57844599D01*
X93117212Y-57844623D01*
X92937948Y-58023886D01*
X92677992Y-58333690D01*
X92446054Y-58664933D01*
X92446038Y-58664959D01*
X92243847Y-59015165D01*
X92243838Y-59015182D01*
X92072942Y-59381672D01*
X92072934Y-59381691D01*
X91934629Y-59761688D01*
X91934624Y-59761703D01*
X91829964Y-60152313D01*
X91829960Y-60152330D01*
X91759741Y-60550573D01*
X91759741Y-60550576D01*
X91724498Y-60953438D01*
X91724498Y-60953439D01*
X91724500Y-61106733D01*
X91724500Y-102647804D01*
X91724504Y-102647885D01*
X91724504Y-102724899D01*
X91754032Y-103062416D01*
X91754032Y-103062420D01*
X91812863Y-103396068D01*
X91812867Y-103396085D01*
X91900552Y-103723336D01*
X92016431Y-104041715D01*
X92159616Y-104348777D01*
X92159624Y-104348792D01*
X92206180Y-104429429D01*
X92329026Y-104642204D01*
X92329030Y-104642210D01*
X92329037Y-104642221D01*
X92523359Y-104919742D01*
X92741144Y-105179286D01*
X92796321Y-105234463D01*
X92796346Y-105234490D01*
X93364994Y-105803138D01*
X93365038Y-105803186D01*
X93392131Y-105830277D01*
X93392152Y-105830316D01*
X93429810Y-105867972D01*
X93429810Y-105867973D01*
X93519619Y-105957777D01*
X93602370Y-106021271D01*
X93721142Y-106112404D01*
X93802324Y-106159272D01*
X93941125Y-106239405D01*
X94171096Y-106334658D01*
X94225219Y-106378096D01*
X94239955Y-106399142D01*
X94400858Y-106560045D01*
X94447693Y-106592839D01*
X94587266Y-106690568D01*
X94793504Y-106786739D01*
X95013308Y-106845635D01*
X95175230Y-106859801D01*
X95239998Y-106865468D01*
X95240000Y-106865468D01*
X95240002Y-106865468D01*
X95296673Y-106860509D01*
X95466692Y-106845635D01*
X95686496Y-106786739D01*
X95892734Y-106690568D01*
X96079139Y-106560047D01*
X96240047Y-106399139D01*
X96370568Y-106212734D01*
X96466739Y-106006496D01*
X96525635Y-105786692D01*
X96545468Y-105560000D01*
X96525635Y-105333308D01*
X96466739Y-105113504D01*
X96370568Y-104907266D01*
X96240047Y-104720861D01*
X96240045Y-104720858D01*
X96079141Y-104559954D01*
X95892734Y-104429432D01*
X95892728Y-104429429D01*
X95834725Y-104402382D01*
X95782285Y-104356210D01*
X95763133Y-104289017D01*
X95783348Y-104222135D01*
X95834725Y-104177618D01*
X95892734Y-104150568D01*
X96079139Y-104020047D01*
X96240047Y-103859139D01*
X96370568Y-103672734D01*
X96466739Y-103466496D01*
X96525635Y-103246692D01*
X96545468Y-103020000D01*
X96525635Y-102793308D01*
X96466739Y-102573504D01*
X96370568Y-102367266D01*
X96240047Y-102180861D01*
X96240045Y-102180858D01*
X96079141Y-102019954D01*
X95892734Y-101889432D01*
X95892728Y-101889429D01*
X95834725Y-101862382D01*
X95782285Y-101816210D01*
X95763133Y-101749017D01*
X95783348Y-101682135D01*
X95834725Y-101637618D01*
X95892734Y-101610568D01*
X96079139Y-101480047D01*
X96240047Y-101319139D01*
X96370568Y-101132734D01*
X96466739Y-100926496D01*
X96525635Y-100706692D01*
X96545468Y-100480000D01*
X96525635Y-100253308D01*
X96466739Y-100033504D01*
X96370568Y-99827266D01*
X96240047Y-99640861D01*
X96240045Y-99640858D01*
X96079141Y-99479954D01*
X95892734Y-99349432D01*
X95892728Y-99349429D01*
X95834725Y-99322382D01*
X95782285Y-99276210D01*
X95763133Y-99209017D01*
X95783348Y-99142135D01*
X95834725Y-99097618D01*
X95892734Y-99070568D01*
X96079139Y-98940047D01*
X96240047Y-98779139D01*
X96370568Y-98592734D01*
X96466739Y-98386496D01*
X96525635Y-98166692D01*
X96545468Y-97940000D01*
X96545177Y-97936678D01*
X96539801Y-97875230D01*
X96525635Y-97713308D01*
X96466739Y-97493504D01*
X96370568Y-97287266D01*
X96240047Y-97100861D01*
X96240045Y-97100858D01*
X96079141Y-96939954D01*
X95892734Y-96809432D01*
X95892728Y-96809429D01*
X95834725Y-96782382D01*
X95782285Y-96736210D01*
X95763133Y-96669017D01*
X95783348Y-96602135D01*
X95834725Y-96557618D01*
X95892734Y-96530568D01*
X96079139Y-96400047D01*
X96240047Y-96239139D01*
X96370568Y-96052734D01*
X96466739Y-95846496D01*
X96525635Y-95626692D01*
X96545468Y-95400000D01*
X96525635Y-95173308D01*
X96466739Y-94953504D01*
X96370568Y-94747266D01*
X96240047Y-94560861D01*
X96240045Y-94560858D01*
X96079141Y-94399954D01*
X95892734Y-94269432D01*
X95892728Y-94269429D01*
X95834725Y-94242382D01*
X95782285Y-94196210D01*
X95763133Y-94129017D01*
X95783348Y-94062135D01*
X95834725Y-94017618D01*
X95892734Y-93990568D01*
X96079139Y-93860047D01*
X96240047Y-93699139D01*
X96370568Y-93512734D01*
X96466739Y-93306496D01*
X96525635Y-93086692D01*
X96545468Y-92860000D01*
X96544654Y-92850701D01*
X96525635Y-92633313D01*
X96525635Y-92633308D01*
X96466739Y-92413504D01*
X96370568Y-92207266D01*
X96240047Y-92020861D01*
X96240045Y-92020858D01*
X96079141Y-91859954D01*
X95892734Y-91729432D01*
X95892728Y-91729429D01*
X95834725Y-91702382D01*
X95782285Y-91656210D01*
X95763133Y-91589017D01*
X95783348Y-91522135D01*
X95834725Y-91477618D01*
X95892734Y-91450568D01*
X96079139Y-91320047D01*
X96240047Y-91159139D01*
X96370568Y-90972734D01*
X96466739Y-90766496D01*
X96525635Y-90546692D01*
X96545468Y-90320000D01*
X96525635Y-90093308D01*
X96466739Y-89873504D01*
X96370568Y-89667266D01*
X96240047Y-89480861D01*
X96240045Y-89480858D01*
X96079141Y-89319954D01*
X95892734Y-89189432D01*
X95892728Y-89189429D01*
X95834725Y-89162382D01*
X95782285Y-89116210D01*
X95763133Y-89049017D01*
X95783348Y-88982135D01*
X95834725Y-88937618D01*
X95892734Y-88910568D01*
X96079139Y-88780047D01*
X96240047Y-88619139D01*
X96370568Y-88432734D01*
X96466739Y-88226496D01*
X96525635Y-88006692D01*
X96545468Y-87780000D01*
X96525635Y-87553308D01*
X96466739Y-87333504D01*
X96370568Y-87127266D01*
X96240047Y-86940861D01*
X96240045Y-86940858D01*
X96079141Y-86779954D01*
X95892734Y-86649432D01*
X95892728Y-86649429D01*
X95834725Y-86622382D01*
X95782285Y-86576210D01*
X95763133Y-86509017D01*
X95783348Y-86442135D01*
X95834725Y-86397618D01*
X95892734Y-86370568D01*
X96079139Y-86240047D01*
X96240047Y-86079139D01*
X96370568Y-85892734D01*
X96466739Y-85686496D01*
X96525635Y-85466692D01*
X96545468Y-85240000D01*
X96525635Y-85013308D01*
X96466739Y-84793504D01*
X96370568Y-84587266D01*
X96240047Y-84400861D01*
X96240045Y-84400858D01*
X96079141Y-84239954D01*
X95892734Y-84109432D01*
X95892728Y-84109429D01*
X95834725Y-84082382D01*
X95782285Y-84036210D01*
X95763133Y-83969017D01*
X95783348Y-83902135D01*
X95834725Y-83857618D01*
X95892734Y-83830568D01*
X96079139Y-83700047D01*
X96240047Y-83539139D01*
X96370568Y-83352734D01*
X96466739Y-83146496D01*
X96525635Y-82926692D01*
X96545468Y-82700000D01*
X96525635Y-82473308D01*
X96466739Y-82253504D01*
X96370568Y-82047266D01*
X96240047Y-81860861D01*
X96240045Y-81860858D01*
X96079141Y-81699954D01*
X95892734Y-81569432D01*
X95892728Y-81569429D01*
X95834725Y-81542382D01*
X95782285Y-81496210D01*
X95763133Y-81429017D01*
X95783348Y-81362135D01*
X95834725Y-81317618D01*
X95892734Y-81290568D01*
X96079139Y-81160047D01*
X96240047Y-80999139D01*
X96370568Y-80812734D01*
X96466739Y-80606496D01*
X96525635Y-80386692D01*
X96545468Y-80160000D01*
X96525635Y-79933308D01*
X96466739Y-79713504D01*
X96370568Y-79507266D01*
X96240047Y-79320861D01*
X96240045Y-79320858D01*
X96079141Y-79159954D01*
X95892734Y-79029432D01*
X95892728Y-79029429D01*
X95834725Y-79002382D01*
X95782285Y-78956210D01*
X95763133Y-78889017D01*
X95783348Y-78822135D01*
X95834725Y-78777618D01*
X95835319Y-78777341D01*
X95892734Y-78750568D01*
X96079139Y-78620047D01*
X96240047Y-78459139D01*
X96370568Y-78272734D01*
X96466739Y-78066496D01*
X96525635Y-77846692D01*
X96545468Y-77620000D01*
X96525635Y-77393308D01*
X96466739Y-77173504D01*
X96370568Y-76967266D01*
X96240047Y-76780861D01*
X96240045Y-76780858D01*
X96079141Y-76619954D01*
X95892734Y-76489432D01*
X95892728Y-76489429D01*
X95834725Y-76462382D01*
X95782285Y-76416210D01*
X95763133Y-76349017D01*
X95783348Y-76282135D01*
X95834725Y-76237618D01*
X95892734Y-76210568D01*
X96079139Y-76080047D01*
X96240047Y-75919139D01*
X96370568Y-75732734D01*
X96466739Y-75526496D01*
X96525635Y-75306692D01*
X96545468Y-75080000D01*
X96525635Y-74853308D01*
X96466739Y-74633504D01*
X96370568Y-74427266D01*
X96240047Y-74240861D01*
X96240045Y-74240858D01*
X96079141Y-74079954D01*
X95892734Y-73949432D01*
X95892732Y-73949431D01*
X95881275Y-73944088D01*
X95834132Y-73922105D01*
X95781694Y-73875934D01*
X95762542Y-73808740D01*
X95782758Y-73741859D01*
X95834134Y-73697341D01*
X95892484Y-73670132D01*
X96078820Y-73539657D01*
X96239657Y-73378820D01*
X96370134Y-73192482D01*
X96466265Y-72986326D01*
X96466269Y-72986317D01*
X96518872Y-72790000D01*
X95673012Y-72790000D01*
X95705925Y-72732993D01*
X95740000Y-72605826D01*
X95740000Y-72474174D01*
X95705925Y-72347007D01*
X95673012Y-72290000D01*
X96518872Y-72290000D01*
X96518872Y-72289999D01*
X96466269Y-72093682D01*
X96466265Y-72093673D01*
X96370134Y-71887517D01*
X96239657Y-71701179D01*
X96078820Y-71540342D01*
X95892482Y-71409865D01*
X95834133Y-71382657D01*
X95781694Y-71336484D01*
X95762542Y-71269291D01*
X95782758Y-71202410D01*
X95834129Y-71157895D01*
X95892734Y-71130568D01*
X96079139Y-71000047D01*
X96240047Y-70839139D01*
X96370568Y-70652734D01*
X96466739Y-70446496D01*
X96525635Y-70226692D01*
X96545468Y-70000000D01*
X96525635Y-69773308D01*
X96466739Y-69553504D01*
X96370568Y-69347266D01*
X96240047Y-69160861D01*
X96240045Y-69160858D01*
X96079141Y-68999954D01*
X95892734Y-68869432D01*
X95892732Y-68869431D01*
X95686497Y-68773261D01*
X95686488Y-68773258D01*
X95466697Y-68714366D01*
X95466693Y-68714365D01*
X95466692Y-68714365D01*
X95466691Y-68714364D01*
X95466686Y-68714364D01*
X95240002Y-68694532D01*
X95239998Y-68694532D01*
X95013313Y-68714364D01*
X95013302Y-68714366D01*
X94793511Y-68773258D01*
X94793502Y-68773261D01*
X94587267Y-68869431D01*
X94587265Y-68869432D01*
X94400858Y-68999954D01*
X94239954Y-69160858D01*
X94109432Y-69347265D01*
X94109431Y-69347267D01*
X94013261Y-69553502D01*
X94013258Y-69553511D01*
X93954366Y-69773302D01*
X93954364Y-69773313D01*
X93934532Y-69999998D01*
X93934532Y-70000001D01*
X93954364Y-70226686D01*
X93954366Y-70226697D01*
X94013258Y-70446488D01*
X94013261Y-70446497D01*
X94109431Y-70652732D01*
X94109432Y-70652734D01*
X94239954Y-70839141D01*
X94400858Y-71000045D01*
X94400861Y-71000047D01*
X94587266Y-71130568D01*
X94645865Y-71157893D01*
X94698305Y-71204065D01*
X94717457Y-71271258D01*
X94697242Y-71338139D01*
X94645867Y-71382657D01*
X94587515Y-71409867D01*
X94401179Y-71540342D01*
X94240342Y-71701179D01*
X94109865Y-71887517D01*
X94013734Y-72093673D01*
X94013730Y-72093682D01*
X93961127Y-72289999D01*
X93961128Y-72290000D01*
X94806988Y-72290000D01*
X94774075Y-72347007D01*
X94740000Y-72474174D01*
X94740000Y-72605826D01*
X94774075Y-72732993D01*
X94806988Y-72790000D01*
X93961128Y-72790000D01*
X94013730Y-72986317D01*
X94013734Y-72986326D01*
X94109865Y-73192482D01*
X94240342Y-73378820D01*
X94401179Y-73539657D01*
X94587518Y-73670134D01*
X94587520Y-73670135D01*
X94645865Y-73697342D01*
X94698305Y-73743514D01*
X94717457Y-73810707D01*
X94697242Y-73877589D01*
X94645867Y-73922105D01*
X94587268Y-73949431D01*
X94587264Y-73949433D01*
X94400858Y-74079954D01*
X94239954Y-74240858D01*
X94109432Y-74427265D01*
X94109431Y-74427267D01*
X94013261Y-74633502D01*
X94013258Y-74633511D01*
X93954366Y-74853302D01*
X93954364Y-74853313D01*
X93934532Y-75079998D01*
X93934532Y-75080001D01*
X93954364Y-75306686D01*
X93954366Y-75306697D01*
X94013258Y-75526488D01*
X94013261Y-75526497D01*
X94109431Y-75732732D01*
X94109432Y-75732734D01*
X94239954Y-75919141D01*
X94400858Y-76080045D01*
X94400861Y-76080047D01*
X94587266Y-76210568D01*
X94645275Y-76237618D01*
X94697714Y-76283791D01*
X94716866Y-76350984D01*
X94696650Y-76417865D01*
X94645275Y-76462382D01*
X94587267Y-76489431D01*
X94587265Y-76489432D01*
X94400858Y-76619954D01*
X94239954Y-76780858D01*
X94109432Y-76967265D01*
X94109431Y-76967267D01*
X94013261Y-77173502D01*
X94013258Y-77173511D01*
X93954366Y-77393302D01*
X93954364Y-77393313D01*
X93934532Y-77619998D01*
X93934532Y-77620001D01*
X93954364Y-77846686D01*
X93954366Y-77846697D01*
X94013258Y-78066488D01*
X94013261Y-78066497D01*
X94109431Y-78272732D01*
X94109432Y-78272734D01*
X94239954Y-78459141D01*
X94400858Y-78620045D01*
X94400861Y-78620047D01*
X94587266Y-78750568D01*
X94644681Y-78777341D01*
X94645275Y-78777618D01*
X94697714Y-78823791D01*
X94716866Y-78890984D01*
X94696650Y-78957865D01*
X94645275Y-79002382D01*
X94587267Y-79029431D01*
X94587265Y-79029432D01*
X94400858Y-79159954D01*
X94239954Y-79320858D01*
X94109432Y-79507265D01*
X94109431Y-79507267D01*
X94013261Y-79713502D01*
X94013258Y-79713511D01*
X93954366Y-79933302D01*
X93954364Y-79933313D01*
X93934532Y-80159998D01*
X93934532Y-80160001D01*
X93954364Y-80386686D01*
X93954366Y-80386697D01*
X94013258Y-80606488D01*
X94013261Y-80606497D01*
X94109431Y-80812732D01*
X94109432Y-80812734D01*
X94239954Y-80999141D01*
X94400858Y-81160045D01*
X94400861Y-81160047D01*
X94587266Y-81290568D01*
X94645275Y-81317618D01*
X94697714Y-81363791D01*
X94716866Y-81430984D01*
X94696650Y-81497865D01*
X94645275Y-81542382D01*
X94587267Y-81569431D01*
X94587265Y-81569432D01*
X94400858Y-81699954D01*
X94239954Y-81860858D01*
X94109432Y-82047265D01*
X94109431Y-82047267D01*
X94013261Y-82253502D01*
X94013258Y-82253511D01*
X93954366Y-82473302D01*
X93954364Y-82473313D01*
X93934532Y-82699998D01*
X93934532Y-82700001D01*
X93954364Y-82926686D01*
X93954366Y-82926697D01*
X94013258Y-83146488D01*
X94013261Y-83146497D01*
X94109431Y-83352732D01*
X94109432Y-83352734D01*
X94239954Y-83539141D01*
X94400858Y-83700045D01*
X94400861Y-83700047D01*
X94587266Y-83830568D01*
X94645275Y-83857618D01*
X94697714Y-83903791D01*
X94716866Y-83970984D01*
X94696650Y-84037865D01*
X94645275Y-84082382D01*
X94587267Y-84109431D01*
X94587265Y-84109432D01*
X94400858Y-84239954D01*
X94239954Y-84400858D01*
X94109432Y-84587265D01*
X94109431Y-84587267D01*
X94013261Y-84793502D01*
X94013258Y-84793511D01*
X93954366Y-85013302D01*
X93954364Y-85013313D01*
X93934532Y-85239998D01*
X93934532Y-85240001D01*
X93954364Y-85466686D01*
X93954366Y-85466697D01*
X94013258Y-85686488D01*
X94013261Y-85686497D01*
X94109431Y-85892732D01*
X94109432Y-85892734D01*
X94239954Y-86079141D01*
X94400858Y-86240045D01*
X94400861Y-86240047D01*
X94587266Y-86370568D01*
X94645275Y-86397618D01*
X94697714Y-86443791D01*
X94716866Y-86510984D01*
X94696650Y-86577865D01*
X94645275Y-86622382D01*
X94587267Y-86649431D01*
X94587265Y-86649432D01*
X94400858Y-86779954D01*
X94239954Y-86940858D01*
X94109432Y-87127265D01*
X94109431Y-87127267D01*
X94013261Y-87333502D01*
X94013258Y-87333511D01*
X93954366Y-87553302D01*
X93954364Y-87553313D01*
X93934532Y-87779998D01*
X93934532Y-87780001D01*
X93954364Y-88006686D01*
X93954366Y-88006697D01*
X94013258Y-88226488D01*
X94013261Y-88226497D01*
X94109431Y-88432732D01*
X94109432Y-88432734D01*
X94239954Y-88619141D01*
X94400858Y-88780045D01*
X94400861Y-88780047D01*
X94587266Y-88910568D01*
X94645275Y-88937618D01*
X94697714Y-88983791D01*
X94716866Y-89050984D01*
X94696650Y-89117865D01*
X94645275Y-89162382D01*
X94587267Y-89189431D01*
X94587265Y-89189432D01*
X94400858Y-89319954D01*
X94239954Y-89480858D01*
X94109432Y-89667265D01*
X94109431Y-89667267D01*
X94013261Y-89873502D01*
X94013258Y-89873511D01*
X93954366Y-90093302D01*
X93954364Y-90093313D01*
X93934532Y-90319998D01*
X93934532Y-90320001D01*
X93954364Y-90546686D01*
X93954366Y-90546697D01*
X94013258Y-90766488D01*
X94013261Y-90766497D01*
X94109431Y-90972732D01*
X94109432Y-90972734D01*
X94239954Y-91159141D01*
X94400858Y-91320045D01*
X94400861Y-91320047D01*
X94587266Y-91450568D01*
X94645275Y-91477618D01*
X94697714Y-91523791D01*
X94716866Y-91590984D01*
X94696650Y-91657865D01*
X94645275Y-91702382D01*
X94587267Y-91729431D01*
X94587265Y-91729432D01*
X94400858Y-91859954D01*
X94239954Y-92020858D01*
X94109432Y-92207265D01*
X94109431Y-92207267D01*
X94013261Y-92413502D01*
X94013258Y-92413511D01*
X93954366Y-92633302D01*
X93954364Y-92633313D01*
X93934532Y-92859998D01*
X93934532Y-92860001D01*
X93954364Y-93086686D01*
X93954366Y-93086697D01*
X94013258Y-93306488D01*
X94013261Y-93306497D01*
X94109431Y-93512732D01*
X94109432Y-93512734D01*
X94239954Y-93699141D01*
X94400858Y-93860045D01*
X94400861Y-93860047D01*
X94587266Y-93990568D01*
X94645275Y-94017618D01*
X94697714Y-94063791D01*
X94716866Y-94130984D01*
X94696650Y-94197865D01*
X94645275Y-94242382D01*
X94587267Y-94269431D01*
X94587265Y-94269432D01*
X94400858Y-94399954D01*
X94239954Y-94560858D01*
X94109432Y-94747265D01*
X94109431Y-94747267D01*
X94013261Y-94953502D01*
X94013258Y-94953511D01*
X93954366Y-95173302D01*
X93954364Y-95173313D01*
X93934532Y-95399998D01*
X93934532Y-95400001D01*
X93954364Y-95626686D01*
X93954366Y-95626697D01*
X94013258Y-95846488D01*
X94013261Y-95846497D01*
X94109431Y-96052732D01*
X94109432Y-96052734D01*
X94239954Y-96239141D01*
X94400858Y-96400045D01*
X94413686Y-96409027D01*
X94587266Y-96530568D01*
X94645275Y-96557618D01*
X94697714Y-96603791D01*
X94716866Y-96670984D01*
X94696650Y-96737865D01*
X94645275Y-96782382D01*
X94587267Y-96809431D01*
X94587265Y-96809432D01*
X94400858Y-96939954D01*
X94239954Y-97100858D01*
X94109432Y-97287265D01*
X94109431Y-97287267D01*
X94013261Y-97493502D01*
X94013258Y-97493511D01*
X93954366Y-97713302D01*
X93954364Y-97713313D01*
X93934532Y-97939998D01*
X93934532Y-97940001D01*
X93954364Y-98166686D01*
X93954366Y-98166697D01*
X94013258Y-98386488D01*
X94013261Y-98386497D01*
X94109431Y-98592732D01*
X94109432Y-98592734D01*
X94239954Y-98779141D01*
X94400858Y-98940045D01*
X94400861Y-98940047D01*
X94587266Y-99070568D01*
X94645275Y-99097618D01*
X94697714Y-99143791D01*
X94716866Y-99210984D01*
X94696650Y-99277865D01*
X94645275Y-99322382D01*
X94587267Y-99349431D01*
X94587265Y-99349432D01*
X94400858Y-99479954D01*
X94239954Y-99640858D01*
X94109432Y-99827265D01*
X94109431Y-99827267D01*
X94013261Y-100033502D01*
X94013258Y-100033511D01*
X93954366Y-100253302D01*
X93954364Y-100253313D01*
X93934532Y-100479998D01*
X93934532Y-100480001D01*
X93954364Y-100706686D01*
X93954366Y-100706697D01*
X94013258Y-100926488D01*
X94013261Y-100926497D01*
X94109431Y-101132732D01*
X94109432Y-101132734D01*
X94239954Y-101319141D01*
X94400858Y-101480045D01*
X94400861Y-101480047D01*
X94587266Y-101610568D01*
X94645275Y-101637618D01*
X94697714Y-101683791D01*
X94716866Y-101750984D01*
X94696650Y-101817865D01*
X94645275Y-101862382D01*
X94587267Y-101889431D01*
X94587265Y-101889432D01*
X94400858Y-102019954D01*
X94239954Y-102180858D01*
X94109432Y-102367265D01*
X94109431Y-102367267D01*
X94013261Y-102573502D01*
X94013258Y-102573511D01*
X93954366Y-102793302D01*
X93954364Y-102793313D01*
X93934532Y-103019998D01*
X93934532Y-103020001D01*
X93954364Y-103246686D01*
X93954366Y-103246697D01*
X94013258Y-103466488D01*
X94013261Y-103466497D01*
X94109431Y-103672732D01*
X94109432Y-103672734D01*
X94144868Y-103723343D01*
X94202947Y-103806288D01*
X94225274Y-103872494D01*
X94208264Y-103940261D01*
X94157315Y-103988074D01*
X94088606Y-104000752D01*
X94023949Y-103974270D01*
X94008913Y-103960039D01*
X93976400Y-103923658D01*
X93944616Y-103888092D01*
X93935952Y-103877226D01*
X93805856Y-103693870D01*
X93798458Y-103682097D01*
X93689707Y-103485328D01*
X93683674Y-103472799D01*
X93597641Y-103265095D01*
X93593048Y-103251971D01*
X93530807Y-103035929D01*
X93527715Y-103022381D01*
X93490054Y-102800723D01*
X93488500Y-102786925D01*
X93475695Y-102558892D01*
X93475500Y-102551940D01*
X93475500Y-66281040D01*
X97499497Y-66281040D01*
X97499500Y-66428415D01*
X97499500Y-73482943D01*
X97499513Y-73483218D01*
X97499513Y-73519100D01*
X97530953Y-73798165D01*
X97530957Y-73798192D01*
X97593443Y-74071975D01*
X97593445Y-74071981D01*
X97593446Y-74071985D01*
X97620753Y-74150026D01*
X97686200Y-74337072D01*
X97686201Y-74337074D01*
X97808055Y-74590115D01*
X97808056Y-74590116D01*
X97957470Y-74827912D01*
X97957476Y-74827921D01*
X97977721Y-74853308D01*
X98132579Y-75047497D01*
X98132583Y-75047501D01*
X98132587Y-75047506D01*
X98156813Y-75071732D01*
X98156824Y-75071744D01*
X98162200Y-75077120D01*
X98162201Y-75077121D01*
X98217074Y-75131994D01*
X98218077Y-75132997D01*
X98218106Y-75133028D01*
X98231870Y-75146791D01*
X98251449Y-75166370D01*
X98251479Y-75166425D01*
X98286746Y-75201692D01*
X98286746Y-75201693D01*
X98390978Y-75305924D01*
X98402535Y-75315408D01*
X98618870Y-75492947D01*
X98618877Y-75492952D01*
X98863999Y-75656734D01*
X98864001Y-75656735D01*
X99124004Y-75795706D01*
X99396376Y-75908522D01*
X99396381Y-75908524D01*
X99542130Y-75952734D01*
X99593818Y-75983714D01*
X99728597Y-76118493D01*
X99728603Y-76118498D01*
X99914158Y-76248425D01*
X99957783Y-76303002D01*
X99964977Y-76372500D01*
X99933454Y-76434855D01*
X99914158Y-76451575D01*
X99728597Y-76581505D01*
X99561505Y-76748597D01*
X99425965Y-76942169D01*
X99425964Y-76942171D01*
X99326098Y-77156335D01*
X99326094Y-77156344D01*
X99264938Y-77384586D01*
X99264936Y-77384596D01*
X99244341Y-77619999D01*
X99244341Y-77620000D01*
X99264936Y-77855403D01*
X99264938Y-77855413D01*
X99326094Y-78083655D01*
X99326096Y-78083659D01*
X99326097Y-78083663D01*
X99414145Y-78272482D01*
X99425965Y-78297830D01*
X99425967Y-78297834D01*
X99561501Y-78491395D01*
X99561506Y-78491402D01*
X99728597Y-78658493D01*
X99728603Y-78658498D01*
X99914158Y-78788425D01*
X99957783Y-78843002D01*
X99964977Y-78912500D01*
X99933454Y-78974855D01*
X99914158Y-78991575D01*
X99728597Y-79121505D01*
X99561505Y-79288597D01*
X99425965Y-79482169D01*
X99425964Y-79482171D01*
X99326098Y-79696335D01*
X99326094Y-79696344D01*
X99264938Y-79924586D01*
X99264936Y-79924596D01*
X99244341Y-80159999D01*
X99244341Y-80160000D01*
X99264936Y-80395403D01*
X99264938Y-80395413D01*
X99326094Y-80623655D01*
X99326096Y-80623659D01*
X99326097Y-80623663D01*
X99414262Y-80812732D01*
X99425965Y-80837830D01*
X99425967Y-80837834D01*
X99561501Y-81031395D01*
X99561506Y-81031402D01*
X99728597Y-81198493D01*
X99728603Y-81198498D01*
X99914158Y-81328425D01*
X99957783Y-81383002D01*
X99964977Y-81452500D01*
X99933454Y-81514855D01*
X99914158Y-81531575D01*
X99728597Y-81661505D01*
X99561505Y-81828597D01*
X99425965Y-82022169D01*
X99425964Y-82022171D01*
X99326098Y-82236335D01*
X99326094Y-82236344D01*
X99264938Y-82464586D01*
X99264936Y-82464596D01*
X99244341Y-82699999D01*
X99244341Y-82700000D01*
X99264936Y-82935403D01*
X99264938Y-82935413D01*
X99326094Y-83163655D01*
X99326096Y-83163659D01*
X99326097Y-83163663D01*
X99414262Y-83352732D01*
X99425965Y-83377830D01*
X99425967Y-83377834D01*
X99561501Y-83571395D01*
X99561506Y-83571402D01*
X99728597Y-83738493D01*
X99728603Y-83738498D01*
X99914158Y-83868425D01*
X99957783Y-83923002D01*
X99964977Y-83992500D01*
X99933454Y-84054855D01*
X99914158Y-84071575D01*
X99728597Y-84201505D01*
X99561505Y-84368597D01*
X99425965Y-84562169D01*
X99425964Y-84562171D01*
X99326098Y-84776335D01*
X99326094Y-84776344D01*
X99264938Y-85004586D01*
X99264936Y-85004596D01*
X99244341Y-85239999D01*
X99244341Y-85240000D01*
X99264936Y-85475403D01*
X99264938Y-85475413D01*
X99326094Y-85703655D01*
X99326096Y-85703659D01*
X99326097Y-85703663D01*
X99414262Y-85892732D01*
X99425965Y-85917830D01*
X99425967Y-85917834D01*
X99561501Y-86111395D01*
X99561506Y-86111402D01*
X99728597Y-86278493D01*
X99728603Y-86278498D01*
X99914158Y-86408425D01*
X99957783Y-86463002D01*
X99964977Y-86532500D01*
X99933454Y-86594855D01*
X99914158Y-86611575D01*
X99728597Y-86741505D01*
X99561505Y-86908597D01*
X99425965Y-87102169D01*
X99425964Y-87102171D01*
X99326098Y-87316335D01*
X99326094Y-87316344D01*
X99264938Y-87544586D01*
X99264936Y-87544596D01*
X99244341Y-87779999D01*
X99244341Y-87780000D01*
X99264936Y-88015403D01*
X99264938Y-88015413D01*
X99326094Y-88243655D01*
X99326096Y-88243659D01*
X99326097Y-88243663D01*
X99414262Y-88432732D01*
X99425965Y-88457830D01*
X99425967Y-88457834D01*
X99561501Y-88651395D01*
X99561506Y-88651402D01*
X99728597Y-88818493D01*
X99728603Y-88818498D01*
X99914158Y-88948425D01*
X99957783Y-89003002D01*
X99964977Y-89072500D01*
X99933454Y-89134855D01*
X99914158Y-89151575D01*
X99728597Y-89281505D01*
X99561505Y-89448597D01*
X99425965Y-89642169D01*
X99425964Y-89642171D01*
X99326098Y-89856335D01*
X99326094Y-89856344D01*
X99264938Y-90084586D01*
X99264936Y-90084596D01*
X99244341Y-90319999D01*
X99244341Y-90320000D01*
X99264936Y-90555403D01*
X99264938Y-90555413D01*
X99326094Y-90783655D01*
X99326096Y-90783659D01*
X99326097Y-90783663D01*
X99414262Y-90972732D01*
X99425965Y-90997830D01*
X99425967Y-90997834D01*
X99561501Y-91191395D01*
X99561506Y-91191402D01*
X99728597Y-91358493D01*
X99728603Y-91358498D01*
X99914158Y-91488425D01*
X99957783Y-91543002D01*
X99964977Y-91612500D01*
X99933454Y-91674855D01*
X99914158Y-91691575D01*
X99728597Y-91821505D01*
X99561505Y-91988597D01*
X99425965Y-92182169D01*
X99425964Y-92182171D01*
X99326098Y-92396335D01*
X99326094Y-92396344D01*
X99264938Y-92624586D01*
X99264936Y-92624596D01*
X99244341Y-92859999D01*
X99244341Y-92860000D01*
X99264936Y-93095403D01*
X99264938Y-93095413D01*
X99326094Y-93323655D01*
X99326096Y-93323659D01*
X99326097Y-93323663D01*
X99414262Y-93512732D01*
X99425965Y-93537830D01*
X99425967Y-93537834D01*
X99561501Y-93731395D01*
X99561506Y-93731402D01*
X99728597Y-93898493D01*
X99728603Y-93898498D01*
X99914158Y-94028425D01*
X99957783Y-94083002D01*
X99964977Y-94152500D01*
X99933454Y-94214855D01*
X99914158Y-94231575D01*
X99728597Y-94361505D01*
X99561505Y-94528597D01*
X99425965Y-94722169D01*
X99425964Y-94722171D01*
X99326098Y-94936335D01*
X99326094Y-94936344D01*
X99264938Y-95164586D01*
X99264936Y-95164596D01*
X99244341Y-95399999D01*
X99244341Y-95400000D01*
X99264936Y-95635403D01*
X99264938Y-95635413D01*
X99326094Y-95863655D01*
X99326096Y-95863659D01*
X99326097Y-95863663D01*
X99414262Y-96052732D01*
X99425965Y-96077830D01*
X99425967Y-96077834D01*
X99561501Y-96271395D01*
X99561506Y-96271402D01*
X99728597Y-96438493D01*
X99728603Y-96438498D01*
X99914158Y-96568425D01*
X99957783Y-96623002D01*
X99964977Y-96692500D01*
X99933454Y-96754855D01*
X99914158Y-96771575D01*
X99728597Y-96901505D01*
X99561505Y-97068597D01*
X99425965Y-97262169D01*
X99425964Y-97262171D01*
X99326098Y-97476335D01*
X99326094Y-97476344D01*
X99264938Y-97704586D01*
X99264936Y-97704596D01*
X99244341Y-97939999D01*
X99244341Y-97940000D01*
X99264936Y-98175403D01*
X99264938Y-98175413D01*
X99326094Y-98403655D01*
X99326096Y-98403659D01*
X99326097Y-98403663D01*
X99414262Y-98592732D01*
X99425965Y-98617830D01*
X99425967Y-98617834D01*
X99561501Y-98811395D01*
X99561506Y-98811402D01*
X99728597Y-98978493D01*
X99728603Y-98978498D01*
X99914158Y-99108425D01*
X99957783Y-99163002D01*
X99964977Y-99232500D01*
X99933454Y-99294855D01*
X99914158Y-99311575D01*
X99728597Y-99441505D01*
X99561505Y-99608597D01*
X99425965Y-99802169D01*
X99425964Y-99802171D01*
X99326098Y-100016335D01*
X99326094Y-100016344D01*
X99264938Y-100244586D01*
X99264936Y-100244596D01*
X99244341Y-100479999D01*
X99244341Y-100480000D01*
X99264936Y-100715403D01*
X99264938Y-100715413D01*
X99326094Y-100943655D01*
X99326096Y-100943659D01*
X99326097Y-100943663D01*
X99414262Y-101132732D01*
X99425965Y-101157830D01*
X99425967Y-101157834D01*
X99561501Y-101351395D01*
X99561506Y-101351402D01*
X99728597Y-101518493D01*
X99728603Y-101518498D01*
X99914158Y-101648425D01*
X99957783Y-101703002D01*
X99964977Y-101772500D01*
X99933454Y-101834855D01*
X99914158Y-101851575D01*
X99728597Y-101981505D01*
X99561505Y-102148597D01*
X99425965Y-102342169D01*
X99425964Y-102342171D01*
X99326098Y-102556335D01*
X99326094Y-102556344D01*
X99264938Y-102784586D01*
X99264936Y-102784596D01*
X99244341Y-103019999D01*
X99244341Y-103020000D01*
X99264936Y-103255403D01*
X99264938Y-103255413D01*
X99326094Y-103483655D01*
X99326096Y-103483659D01*
X99326097Y-103483663D01*
X99414262Y-103672732D01*
X99425965Y-103697830D01*
X99425967Y-103697834D01*
X99443829Y-103723343D01*
X99555557Y-103882907D01*
X99561501Y-103891395D01*
X99561506Y-103891402D01*
X99728597Y-104058493D01*
X99728603Y-104058498D01*
X99914158Y-104188425D01*
X99957783Y-104243002D01*
X99964977Y-104312500D01*
X99933454Y-104374855D01*
X99914158Y-104391575D01*
X99728597Y-104521505D01*
X99561505Y-104688597D01*
X99425965Y-104882169D01*
X99425964Y-104882171D01*
X99326098Y-105096335D01*
X99326094Y-105096344D01*
X99264938Y-105324586D01*
X99264936Y-105324596D01*
X99244341Y-105559999D01*
X99244341Y-105560000D01*
X99264936Y-105795403D01*
X99264938Y-105795413D01*
X99326094Y-106023655D01*
X99326096Y-106023659D01*
X99326097Y-106023663D01*
X99389333Y-106159272D01*
X99425965Y-106237830D01*
X99425967Y-106237834D01*
X99493763Y-106334656D01*
X99561505Y-106431401D01*
X99728599Y-106598495D01*
X99825384Y-106666265D01*
X99922165Y-106734032D01*
X99922167Y-106734033D01*
X99922170Y-106734035D01*
X100136337Y-106833903D01*
X100364592Y-106895063D01*
X100552918Y-106911539D01*
X100599999Y-106915659D01*
X100600000Y-106915659D01*
X100600001Y-106915659D01*
X100639234Y-106912226D01*
X100835408Y-106895063D01*
X101063663Y-106833903D01*
X101277830Y-106734035D01*
X101471401Y-106598495D01*
X101638495Y-106431401D01*
X101774035Y-106237830D01*
X101873903Y-106023663D01*
X101935063Y-105795408D01*
X101955659Y-105560000D01*
X101935063Y-105324592D01*
X101873903Y-105096337D01*
X101774035Y-104882171D01*
X101638495Y-104688599D01*
X101638494Y-104688597D01*
X101471402Y-104521506D01*
X101471396Y-104521501D01*
X101285842Y-104391575D01*
X101242217Y-104336998D01*
X101235023Y-104267500D01*
X101266546Y-104205145D01*
X101285842Y-104188425D01*
X101467926Y-104060928D01*
X101471401Y-104058495D01*
X101638495Y-103891401D01*
X101774035Y-103697830D01*
X101873903Y-103483663D01*
X101935063Y-103255408D01*
X101955659Y-103020000D01*
X101935063Y-102784592D01*
X101873903Y-102556337D01*
X101774035Y-102342171D01*
X101638495Y-102148599D01*
X101638494Y-102148597D01*
X101471402Y-101981506D01*
X101471396Y-101981501D01*
X101285842Y-101851575D01*
X101242217Y-101796998D01*
X101235023Y-101727500D01*
X101266546Y-101665145D01*
X101285842Y-101648425D01*
X101339909Y-101610567D01*
X101471401Y-101518495D01*
X101638495Y-101351401D01*
X101774035Y-101157830D01*
X101873903Y-100943663D01*
X101935063Y-100715408D01*
X101955659Y-100480000D01*
X101935063Y-100244592D01*
X101873903Y-100016337D01*
X101774035Y-99802171D01*
X101731520Y-99741452D01*
X101638494Y-99608597D01*
X101471402Y-99441506D01*
X101471396Y-99441501D01*
X101285842Y-99311575D01*
X101242217Y-99256998D01*
X101235023Y-99187500D01*
X101266546Y-99125145D01*
X101285842Y-99108425D01*
X101339909Y-99070567D01*
X101471401Y-98978495D01*
X101638495Y-98811401D01*
X101774035Y-98617830D01*
X101873903Y-98403663D01*
X101935063Y-98175408D01*
X101955659Y-97940000D01*
X101935063Y-97704592D01*
X101873903Y-97476337D01*
X101774035Y-97262171D01*
X101638495Y-97068599D01*
X101638494Y-97068597D01*
X101471402Y-96901506D01*
X101471396Y-96901501D01*
X101285842Y-96771575D01*
X101242217Y-96716998D01*
X101235023Y-96647500D01*
X101266546Y-96585145D01*
X101285842Y-96568425D01*
X101339909Y-96530567D01*
X101471401Y-96438495D01*
X101638495Y-96271401D01*
X101774035Y-96077830D01*
X101873903Y-95863663D01*
X101935063Y-95635408D01*
X101955659Y-95400000D01*
X101935063Y-95164592D01*
X101873903Y-94936337D01*
X101774035Y-94722171D01*
X101701421Y-94618466D01*
X101638494Y-94528597D01*
X101471402Y-94361506D01*
X101471396Y-94361501D01*
X101285842Y-94231575D01*
X101242217Y-94176998D01*
X101235023Y-94107500D01*
X101266546Y-94045145D01*
X101285842Y-94028425D01*
X101339909Y-93990567D01*
X101471401Y-93898495D01*
X101638495Y-93731401D01*
X101774035Y-93537830D01*
X101873903Y-93323663D01*
X101935063Y-93095408D01*
X101955659Y-92860000D01*
X101935063Y-92624592D01*
X101873903Y-92396337D01*
X101774035Y-92182171D01*
X101702890Y-92080564D01*
X101638494Y-91988597D01*
X101471402Y-91821506D01*
X101471396Y-91821501D01*
X101285842Y-91691575D01*
X101242217Y-91636998D01*
X101235023Y-91567500D01*
X101266546Y-91505145D01*
X101285842Y-91488425D01*
X101339909Y-91450567D01*
X101471401Y-91358495D01*
X101638495Y-91191401D01*
X101774035Y-90997830D01*
X101873903Y-90783663D01*
X101935063Y-90555408D01*
X101955659Y-90320000D01*
X101935063Y-90084592D01*
X101873903Y-89856337D01*
X101774035Y-89642171D01*
X101638495Y-89448599D01*
X101638494Y-89448597D01*
X101471402Y-89281506D01*
X101471396Y-89281501D01*
X101285842Y-89151575D01*
X101242217Y-89096998D01*
X101235023Y-89027500D01*
X101266546Y-88965145D01*
X101285842Y-88948425D01*
X101339909Y-88910567D01*
X101471401Y-88818495D01*
X101638495Y-88651401D01*
X101774035Y-88457830D01*
X101873903Y-88243663D01*
X101935063Y-88015408D01*
X101955659Y-87780000D01*
X101935063Y-87544592D01*
X101873903Y-87316337D01*
X101774035Y-87102171D01*
X101638495Y-86908599D01*
X101638494Y-86908597D01*
X101471402Y-86741506D01*
X101471396Y-86741501D01*
X101285842Y-86611575D01*
X101242217Y-86556998D01*
X101235023Y-86487500D01*
X101266546Y-86425145D01*
X101285842Y-86408425D01*
X101339909Y-86370567D01*
X101471401Y-86278495D01*
X101638495Y-86111401D01*
X101774035Y-85917830D01*
X101873903Y-85703663D01*
X101935063Y-85475408D01*
X101955659Y-85240000D01*
X101935063Y-85004592D01*
X101873903Y-84776337D01*
X101774035Y-84562171D01*
X101638495Y-84368599D01*
X101638494Y-84368597D01*
X101471402Y-84201506D01*
X101471396Y-84201501D01*
X101285842Y-84071575D01*
X101242217Y-84016998D01*
X101235023Y-83947500D01*
X101266546Y-83885145D01*
X101285842Y-83868425D01*
X101339909Y-83830567D01*
X101471401Y-83738495D01*
X101638495Y-83571401D01*
X101774035Y-83377830D01*
X101873903Y-83163663D01*
X101935063Y-82935408D01*
X101955659Y-82700000D01*
X101935063Y-82464592D01*
X101873903Y-82236337D01*
X101774035Y-82022171D01*
X101638495Y-81828599D01*
X101638494Y-81828597D01*
X101471402Y-81661506D01*
X101471396Y-81661501D01*
X101285842Y-81531575D01*
X101242217Y-81476998D01*
X101235023Y-81407500D01*
X101266546Y-81345145D01*
X101285842Y-81328425D01*
X101339909Y-81290567D01*
X101471401Y-81198495D01*
X101638495Y-81031401D01*
X101774035Y-80837830D01*
X101873903Y-80623663D01*
X101935063Y-80395408D01*
X101955659Y-80160000D01*
X101935063Y-79924592D01*
X101873903Y-79696337D01*
X101774035Y-79482171D01*
X101638495Y-79288599D01*
X101638494Y-79288597D01*
X101471402Y-79121506D01*
X101471396Y-79121501D01*
X101285842Y-78991575D01*
X101242217Y-78936998D01*
X101235023Y-78867500D01*
X101266546Y-78805145D01*
X101285842Y-78788425D01*
X101339909Y-78750567D01*
X101471401Y-78658495D01*
X101638495Y-78491401D01*
X101774035Y-78297830D01*
X101873903Y-78083663D01*
X101935063Y-77855408D01*
X101955659Y-77620000D01*
X101935063Y-77384592D01*
X101873903Y-77156337D01*
X101774035Y-76942171D01*
X101638495Y-76748599D01*
X101638494Y-76748597D01*
X101471402Y-76581506D01*
X101471396Y-76581501D01*
X101285842Y-76451575D01*
X101242217Y-76396998D01*
X101235023Y-76327500D01*
X101266546Y-76265145D01*
X101285842Y-76248425D01*
X101339910Y-76210566D01*
X101471401Y-76118495D01*
X101638495Y-75951401D01*
X101774035Y-75757830D01*
X101873903Y-75543663D01*
X101935063Y-75315408D01*
X101955659Y-75080000D01*
X101935063Y-74844592D01*
X101873903Y-74616337D01*
X101774035Y-74402171D01*
X101728456Y-74337076D01*
X101638494Y-74208597D01*
X101471402Y-74041506D01*
X101471401Y-74041505D01*
X101285405Y-73911269D01*
X101241781Y-73856692D01*
X101234588Y-73787193D01*
X101266110Y-73724839D01*
X101285405Y-73708119D01*
X101471082Y-73578105D01*
X101638105Y-73411082D01*
X101773600Y-73217578D01*
X101873429Y-73003492D01*
X101873432Y-73003486D01*
X101930636Y-72790000D01*
X101033012Y-72790000D01*
X101065925Y-72732993D01*
X101100000Y-72605826D01*
X101100000Y-72474174D01*
X101065925Y-72347007D01*
X101033012Y-72290000D01*
X101930636Y-72290000D01*
X101930635Y-72289999D01*
X101873432Y-72076513D01*
X101873429Y-72076507D01*
X101773600Y-71862422D01*
X101773599Y-71862420D01*
X101638113Y-71668926D01*
X101638108Y-71668920D01*
X101516053Y-71546865D01*
X101482568Y-71485542D01*
X101487552Y-71415850D01*
X101529424Y-71359917D01*
X101560400Y-71343002D01*
X101661037Y-71305468D01*
X101692326Y-71293798D01*
X101692326Y-71293797D01*
X101692331Y-71293796D01*
X101807546Y-71207546D01*
X101893796Y-71092331D01*
X101944091Y-70957483D01*
X101950500Y-70897873D01*
X101950499Y-69102128D01*
X101944091Y-69042517D01*
X101893796Y-68907669D01*
X101893795Y-68907668D01*
X101893793Y-68907664D01*
X101807547Y-68792455D01*
X101807544Y-68792452D01*
X101692335Y-68706206D01*
X101692328Y-68706202D01*
X101557482Y-68655908D01*
X101557483Y-68655908D01*
X101497883Y-68649501D01*
X101497881Y-68649500D01*
X101497873Y-68649500D01*
X101497864Y-68649500D01*
X99702129Y-68649500D01*
X99702120Y-68649501D01*
X99637752Y-68656420D01*
X99568992Y-68644012D01*
X99517856Y-68596400D01*
X99500500Y-68533130D01*
X99500500Y-66521129D01*
X99500501Y-66521124D01*
X99500500Y-66433283D01*
X99500882Y-66423559D01*
X99501573Y-66414775D01*
X99526454Y-66349486D01*
X99582684Y-66308013D01*
X99625191Y-66300500D01*
X99947872Y-66300500D01*
X99947873Y-66300500D01*
X100007484Y-66294092D01*
X100142332Y-66243797D01*
X100257547Y-66157547D01*
X100343797Y-66042332D01*
X100394092Y-65907484D01*
X100400501Y-65847874D01*
X100400500Y-65847846D01*
X100400679Y-65844548D01*
X100402184Y-65844628D01*
X100420113Y-65783329D01*
X100472868Y-65737518D01*
X100516464Y-65729985D01*
X101200000Y-65046449D01*
X101200000Y-65052664D01*
X101227259Y-65154397D01*
X101279920Y-65245609D01*
X101354394Y-65320083D01*
X101445606Y-65372744D01*
X101547339Y-65400003D01*
X101553553Y-65400003D01*
X100874526Y-66079028D01*
X100947513Y-66130135D01*
X100947521Y-66130139D01*
X101153668Y-66226267D01*
X101153682Y-66226272D01*
X101373389Y-66285142D01*
X101373400Y-66285144D01*
X101599998Y-66304969D01*
X101600002Y-66304969D01*
X101826599Y-66285144D01*
X101826610Y-66285142D01*
X102046317Y-66226272D01*
X102046331Y-66226267D01*
X102252478Y-66130139D01*
X102325471Y-66079027D01*
X101646447Y-65400003D01*
X101652661Y-65400003D01*
X101754394Y-65372744D01*
X101845606Y-65320083D01*
X101920080Y-65245609D01*
X101972741Y-65154397D01*
X102000000Y-65052664D01*
X102000000Y-65046450D01*
X102679024Y-65725474D01*
X102730136Y-65652481D01*
X102826264Y-65446334D01*
X102826269Y-65446320D01*
X102885139Y-65226613D01*
X102885141Y-65226602D01*
X102904966Y-65000005D01*
X102904966Y-65000000D01*
X102885141Y-64773403D01*
X102885139Y-64773392D01*
X102826269Y-64553685D01*
X102826264Y-64553671D01*
X102730136Y-64347524D01*
X102730132Y-64347516D01*
X102679025Y-64274529D01*
X102000000Y-64953554D01*
X102000000Y-64947342D01*
X101972741Y-64845609D01*
X101920080Y-64754397D01*
X101845606Y-64679923D01*
X101754394Y-64627262D01*
X101652661Y-64600003D01*
X101646445Y-64600003D01*
X102325472Y-63920977D01*
X102252478Y-63869866D01*
X102046331Y-63773738D01*
X102046317Y-63773733D01*
X101826610Y-63714863D01*
X101826599Y-63714861D01*
X101600002Y-63695037D01*
X101599998Y-63695037D01*
X101373400Y-63714861D01*
X101373389Y-63714863D01*
X101153682Y-63773733D01*
X101153673Y-63773737D01*
X100947516Y-63869869D01*
X100947512Y-63869871D01*
X100874526Y-63920976D01*
X100874526Y-63920977D01*
X101553553Y-64600003D01*
X101547339Y-64600003D01*
X101445606Y-64627262D01*
X101354394Y-64679923D01*
X101279920Y-64754397D01*
X101227259Y-64845609D01*
X101200000Y-64947342D01*
X101200000Y-64953555D01*
X100515799Y-64269354D01*
X100466806Y-64259508D01*
X100416624Y-64210892D01*
X100401982Y-64155367D01*
X100400901Y-64155424D01*
X100400855Y-64155430D01*
X100400854Y-64155427D01*
X100400677Y-64155437D01*
X100400500Y-64152136D01*
X100400500Y-64152129D01*
X100394092Y-64092518D01*
X100343797Y-63957670D01*
X100343796Y-63957669D01*
X100343794Y-63957665D01*
X100257548Y-63842456D01*
X100257545Y-63842453D01*
X100142336Y-63756207D01*
X100142329Y-63756203D01*
X100007483Y-63705909D01*
X100007484Y-63705909D01*
X99947884Y-63699502D01*
X99947882Y-63699501D01*
X99947874Y-63699501D01*
X99947865Y-63699501D01*
X98252130Y-63699501D01*
X98252124Y-63699502D01*
X98192517Y-63705909D01*
X98057672Y-63756203D01*
X98057665Y-63756207D01*
X97942456Y-63842453D01*
X97942453Y-63842456D01*
X97856207Y-63957665D01*
X97856203Y-63957672D01*
X97805909Y-64092518D01*
X97799502Y-64152117D01*
X97799502Y-64152124D01*
X97799501Y-64152136D01*
X97799501Y-65084494D01*
X97785316Y-65141130D01*
X97785396Y-65141168D01*
X97785458Y-65141194D01*
X97785456Y-65141197D01*
X97785592Y-65141261D01*
X97784936Y-65142645D01*
X97784863Y-65142938D01*
X97784293Y-65144006D01*
X97784291Y-65144010D01*
X97784291Y-65144011D01*
X97671480Y-65416368D01*
X97671477Y-65416376D01*
X97585902Y-65698489D01*
X97585902Y-65698491D01*
X97528389Y-65987645D01*
X97528389Y-65987650D01*
X97514358Y-66130135D01*
X97503165Y-66243797D01*
X97499497Y-66281040D01*
X93475500Y-66281040D01*
X93475500Y-62527973D01*
X93495185Y-62460934D01*
X93544913Y-62417844D01*
X93510439Y-62398303D01*
X93477931Y-62336456D01*
X93475500Y-62312024D01*
X93475500Y-61241860D01*
X93475501Y-61241855D01*
X93475500Y-61158673D01*
X93475649Y-61152591D01*
X93475728Y-61150978D01*
X93489067Y-60879398D01*
X93490260Y-60867294D01*
X93490271Y-60867226D01*
X93529943Y-60599758D01*
X93532316Y-60587830D01*
X93541647Y-60550579D01*
X93581153Y-60392854D01*
X93616536Y-60332609D01*
X93678875Y-60301055D01*
X93748377Y-60308213D01*
X93802976Y-60351810D01*
X93813817Y-60370576D01*
X93840368Y-60427515D01*
X93889429Y-60532726D01*
X93889430Y-60532728D01*
X94019952Y-60719135D01*
X94180856Y-60880039D01*
X94180859Y-60880041D01*
X94367264Y-61010562D01*
X94403238Y-61027337D01*
X94425275Y-61037613D01*
X94477715Y-61083785D01*
X94496867Y-61150978D01*
X94476651Y-61217860D01*
X94425278Y-61262376D01*
X94367263Y-61289429D01*
X94367260Y-61289431D01*
X94180853Y-61419953D01*
X94019949Y-61580857D01*
X93889427Y-61767264D01*
X93889426Y-61767266D01*
X93793256Y-61973501D01*
X93793253Y-61973510D01*
X93734361Y-62193301D01*
X93734359Y-62193312D01*
X93723028Y-62322831D01*
X93697575Y-62387900D01*
X93651788Y-62421055D01*
X93680703Y-62434260D01*
X93718477Y-62493038D01*
X93723028Y-62517166D01*
X93734359Y-62646685D01*
X93734361Y-62646696D01*
X93793253Y-62866487D01*
X93793256Y-62866496D01*
X93889426Y-63072731D01*
X93889427Y-63072733D01*
X94019949Y-63259140D01*
X94180853Y-63420044D01*
X94180856Y-63420046D01*
X94367261Y-63550567D01*
X94573499Y-63646738D01*
X94793303Y-63705634D01*
X94955225Y-63719800D01*
X95019993Y-63725467D01*
X95019995Y-63725467D01*
X95019997Y-63725467D01*
X95076668Y-63720508D01*
X95246687Y-63705634D01*
X95466491Y-63646738D01*
X95672729Y-63550567D01*
X95859134Y-63420046D01*
X96020042Y-63259138D01*
X96150563Y-63072733D01*
X96246734Y-62866495D01*
X96305630Y-62646691D01*
X96325463Y-62419999D01*
X96325274Y-62417844D01*
X96312290Y-62269429D01*
X96305630Y-62193307D01*
X96246734Y-61973503D01*
X96150563Y-61767265D01*
X96020042Y-61580860D01*
X96020040Y-61580857D01*
X95859136Y-61419953D01*
X95672729Y-61289431D01*
X95672727Y-61289430D01*
X95615321Y-61262661D01*
X95614715Y-61262378D01*
X95562277Y-61216206D01*
X95543125Y-61149013D01*
X95563341Y-61082132D01*
X95614714Y-61037616D01*
X95672732Y-61010562D01*
X95859137Y-60880041D01*
X96020045Y-60719133D01*
X96150566Y-60532728D01*
X96246737Y-60326490D01*
X96305633Y-60106686D01*
X96325466Y-59879994D01*
X96305633Y-59653302D01*
X96246737Y-59433498D01*
X96150566Y-59227260D01*
X96020045Y-59040855D01*
X96020043Y-59040852D01*
X95859139Y-58879948D01*
X95697112Y-58766497D01*
X95672732Y-58749426D01*
X95614726Y-58722377D01*
X95562288Y-58676205D01*
X95543137Y-58609011D01*
X95563353Y-58542130D01*
X95614726Y-58497616D01*
X95672731Y-58470568D01*
X95859136Y-58340047D01*
X96020044Y-58179139D01*
X96150565Y-57992734D01*
X96246736Y-57786496D01*
X96305632Y-57566692D01*
X96325465Y-57340000D01*
X96305632Y-57113308D01*
X96246736Y-56893504D01*
X96150565Y-56687266D01*
X96020044Y-56500861D01*
X96020042Y-56500858D01*
X95859138Y-56339954D01*
X95752543Y-56265317D01*
X95672731Y-56209432D01*
X95614725Y-56182383D01*
X95562287Y-56136211D01*
X95543136Y-56069017D01*
X95563352Y-56002136D01*
X95614723Y-55957622D01*
X95672738Y-55930570D01*
X95859143Y-55800049D01*
X96020051Y-55639141D01*
X96150572Y-55452736D01*
X96246743Y-55246498D01*
X96305639Y-55026694D01*
X96325472Y-54800002D01*
X96305639Y-54573310D01*
X96251315Y-54370568D01*
X96246745Y-54353513D01*
X96246742Y-54353504D01*
X96193835Y-54240045D01*
X96150572Y-54147268D01*
X96020051Y-53960863D01*
X96020049Y-53960860D01*
X95859145Y-53799956D01*
X95672738Y-53669434D01*
X95672736Y-53669433D01*
X95466501Y-53573263D01*
X95466492Y-53573260D01*
X95246701Y-53514368D01*
X95246697Y-53514367D01*
X95246696Y-53514367D01*
X95246695Y-53514366D01*
X95246690Y-53514366D01*
X95020006Y-53494534D01*
X95020002Y-53494534D01*
X94793317Y-53514366D01*
X94793306Y-53514368D01*
X94573515Y-53573260D01*
X94573506Y-53573263D01*
X94367271Y-53669433D01*
X94367269Y-53669434D01*
X94180862Y-53799956D01*
X94019958Y-53960860D01*
X93889436Y-54147267D01*
X93889435Y-54147269D01*
X93793265Y-54353504D01*
X93793262Y-54353513D01*
X93738622Y-54557437D01*
X93702257Y-54617098D01*
X93639410Y-54647627D01*
X93570035Y-54639332D01*
X93531166Y-54613025D01*
X92627761Y-53709620D01*
X92627619Y-53709491D01*
X92533320Y-53615192D01*
X92429719Y-53525421D01*
X92192297Y-53319694D01*
X91831084Y-53049294D01*
X91831079Y-53049291D01*
X91602351Y-52902297D01*
X91451484Y-52805341D01*
X91429819Y-52793511D01*
X91105107Y-52616204D01*
X91055702Y-52566799D01*
X91040850Y-52498526D01*
X91052152Y-52454968D01*
X91143916Y-52258177D01*
X91259660Y-51940169D01*
X91340796Y-51637351D01*
X91377160Y-51577692D01*
X91389439Y-51567876D01*
X91431401Y-51538495D01*
X91598495Y-51371401D01*
X91728425Y-51185842D01*
X91783002Y-51142217D01*
X91852500Y-51135023D01*
X91914855Y-51166546D01*
X91931575Y-51185842D01*
X92061500Y-51371395D01*
X92061505Y-51371401D01*
X92228599Y-51538495D01*
X92325384Y-51606265D01*
X92422165Y-51674032D01*
X92422167Y-51674033D01*
X92422170Y-51674035D01*
X92636337Y-51773903D01*
X92864592Y-51835063D01*
X93041034Y-51850500D01*
X93099999Y-51855659D01*
X93100000Y-51855659D01*
X93100001Y-51855659D01*
X93158966Y-51850500D01*
X93335408Y-51835063D01*
X93563663Y-51773903D01*
X93777830Y-51674035D01*
X93969262Y-51539993D01*
X96294700Y-51539993D01*
X96294700Y-51540006D01*
X96313864Y-51771297D01*
X96313866Y-51771308D01*
X96370842Y-51996300D01*
X96464075Y-52208848D01*
X96591016Y-52403147D01*
X96591019Y-52403151D01*
X96591021Y-52403153D01*
X96748216Y-52573913D01*
X96748219Y-52573915D01*
X96748222Y-52573918D01*
X96931365Y-52716464D01*
X96931371Y-52716468D01*
X96931374Y-52716470D01*
X97135497Y-52826936D01*
X97249487Y-52866068D01*
X97355015Y-52902297D01*
X97355017Y-52902297D01*
X97355019Y-52902298D01*
X97583951Y-52940500D01*
X97583952Y-52940500D01*
X97816048Y-52940500D01*
X97816049Y-52940500D01*
X98044981Y-52902298D01*
X98264503Y-52826936D01*
X98468626Y-52716470D01*
X98651784Y-52573913D01*
X98808979Y-52403153D01*
X98810477Y-52400861D01*
X98837745Y-52359123D01*
X98935924Y-52208849D01*
X99029157Y-51996300D01*
X99086134Y-51771305D01*
X99087142Y-51759139D01*
X99105300Y-51540006D01*
X99105300Y-51539993D01*
X99086135Y-51308702D01*
X99086133Y-51308691D01*
X99029157Y-51083699D01*
X98935924Y-50871151D01*
X98808983Y-50676852D01*
X98808980Y-50676849D01*
X98808979Y-50676847D01*
X98714195Y-50573884D01*
X98683275Y-50511232D01*
X98691135Y-50441806D01*
X98735283Y-50387651D01*
X98762095Y-50373722D01*
X98842326Y-50343798D01*
X98842326Y-50343797D01*
X98842331Y-50343796D01*
X98957546Y-50257546D01*
X99043796Y-50142331D01*
X99094091Y-50007483D01*
X99100500Y-49947873D01*
X99100499Y-48052128D01*
X99094091Y-47992517D01*
X99057411Y-47894174D01*
X99043797Y-47857671D01*
X99043793Y-47857664D01*
X98957547Y-47742455D01*
X98957544Y-47742452D01*
X98842335Y-47656206D01*
X98842328Y-47656202D01*
X98707482Y-47605908D01*
X98707483Y-47605908D01*
X98647883Y-47599501D01*
X98647881Y-47599500D01*
X98647873Y-47599500D01*
X98647864Y-47599500D01*
X96752129Y-47599500D01*
X96752123Y-47599501D01*
X96692516Y-47605908D01*
X96557671Y-47656202D01*
X96557664Y-47656206D01*
X96442455Y-47742452D01*
X96442452Y-47742455D01*
X96356206Y-47857664D01*
X96356202Y-47857671D01*
X96305908Y-47992517D01*
X96302173Y-48027265D01*
X96299501Y-48052123D01*
X96299500Y-48052135D01*
X96299500Y-49947870D01*
X96299501Y-49947876D01*
X96305908Y-50007483D01*
X96356202Y-50142328D01*
X96356206Y-50142335D01*
X96442452Y-50257544D01*
X96442455Y-50257547D01*
X96557664Y-50343793D01*
X96557673Y-50343798D01*
X96637904Y-50373722D01*
X96693838Y-50415593D01*
X96718256Y-50481057D01*
X96703405Y-50549330D01*
X96685802Y-50573886D01*
X96591019Y-50676849D01*
X96464075Y-50871151D01*
X96370842Y-51083699D01*
X96313866Y-51308691D01*
X96313864Y-51308702D01*
X96294700Y-51539993D01*
X93969262Y-51539993D01*
X93971401Y-51538495D01*
X94138495Y-51371401D01*
X94274035Y-51177830D01*
X94373903Y-50963663D01*
X94435063Y-50735408D01*
X94455659Y-50500000D01*
X94453340Y-50473500D01*
X94446954Y-50400500D01*
X94435063Y-50264592D01*
X94388626Y-50091285D01*
X94373905Y-50036344D01*
X94373904Y-50036343D01*
X94373903Y-50036337D01*
X94274035Y-49822171D01*
X94268425Y-49814158D01*
X94138494Y-49628597D01*
X93971402Y-49461506D01*
X93971401Y-49461505D01*
X93785405Y-49331269D01*
X93741781Y-49276692D01*
X93734588Y-49207193D01*
X93766110Y-49144839D01*
X93785405Y-49128119D01*
X93971082Y-48998105D01*
X94138105Y-48831082D01*
X94273600Y-48637578D01*
X94373429Y-48423492D01*
X94373432Y-48423486D01*
X94430636Y-48210000D01*
X93533012Y-48210000D01*
X93565925Y-48152993D01*
X93600000Y-48025826D01*
X93600000Y-47894174D01*
X93565925Y-47767007D01*
X93533012Y-47710000D01*
X94430636Y-47710000D01*
X94430635Y-47709999D01*
X94373432Y-47496513D01*
X94373429Y-47496507D01*
X94273600Y-47282422D01*
X94273599Y-47282420D01*
X94138113Y-47088926D01*
X94138108Y-47088920D01*
X93971082Y-46921894D01*
X93777578Y-46786399D01*
X93563492Y-46686570D01*
X93563486Y-46686567D01*
X93350000Y-46629364D01*
X93350000Y-47526988D01*
X93292993Y-47494075D01*
X93165826Y-47460000D01*
X93034174Y-47460000D01*
X92907007Y-47494075D01*
X92850000Y-47526988D01*
X92850000Y-46629364D01*
X92849999Y-46629364D01*
X92636513Y-46686567D01*
X92636507Y-46686570D01*
X92422422Y-46786399D01*
X92422420Y-46786400D01*
X92228926Y-46921886D01*
X92228920Y-46921891D01*
X92061891Y-47088920D01*
X92061890Y-47088922D01*
X91931880Y-47274595D01*
X91877303Y-47318219D01*
X91807804Y-47325412D01*
X91745450Y-47293890D01*
X91728730Y-47274594D01*
X91598494Y-47088597D01*
X91431402Y-46921506D01*
X91431395Y-46921501D01*
X91423827Y-46916202D01*
X91352002Y-46865909D01*
X91237834Y-46785967D01*
X91237830Y-46785965D01*
X91226546Y-46780703D01*
X91023663Y-46686097D01*
X91023659Y-46686096D01*
X91023655Y-46686094D01*
X90919943Y-46658305D01*
X90864355Y-46626211D01*
X90263054Y-46024910D01*
X90263050Y-46024905D01*
X90234085Y-45995940D01*
X90234036Y-45995851D01*
X90078118Y-45839936D01*
X90048060Y-45814715D01*
X89818871Y-45622406D01*
X89818870Y-45622405D01*
X89818865Y-45622401D01*
X89541666Y-45428309D01*
X89541652Y-45428300D01*
X89248577Y-45259097D01*
X89248573Y-45259095D01*
X88941861Y-45116077D01*
X88941858Y-45116076D01*
X88941854Y-45116074D01*
X88941849Y-45116072D01*
X88623869Y-45000340D01*
X88623841Y-45000331D01*
X88324011Y-44919997D01*
X88296964Y-44912750D01*
X88296960Y-44912749D01*
X88296942Y-44912745D01*
X87963684Y-44853987D01*
X87963671Y-44853985D01*
X87626559Y-44824498D01*
X87626556Y-44824498D01*
X87457347Y-44824500D01*
X81650828Y-44824500D01*
X81650257Y-44824527D01*
X81573437Y-44824527D01*
X81236332Y-44854014D01*
X81236319Y-44854016D01*
X80903060Y-44912774D01*
X80903043Y-44912778D01*
X80576167Y-45000359D01*
X80576139Y-45000367D01*
X80258162Y-45116098D01*
X80258157Y-45116100D01*
X79951436Y-45259122D01*
X79658365Y-45428322D01*
X79381153Y-45622423D01*
X79121900Y-45839958D01*
X79063225Y-45898631D01*
X79016034Y-45945822D01*
X79002254Y-45959600D01*
X79002255Y-45959601D01*
X78941281Y-46020574D01*
X78820578Y-46141277D01*
X78820570Y-46141283D01*
X78795939Y-46165915D01*
X78795853Y-46165961D01*
X78639936Y-46321881D01*
X78422401Y-46581134D01*
X78228309Y-46858333D01*
X78228300Y-46858347D01*
X78059097Y-47151422D01*
X77916074Y-47458145D01*
X77916072Y-47458150D01*
X77800340Y-47776130D01*
X77800331Y-47776158D01*
X77712750Y-48103036D01*
X77712745Y-48103057D01*
X77653987Y-48436315D01*
X77653985Y-48436328D01*
X77624498Y-48773437D01*
X77624498Y-48773444D01*
X77624500Y-48906384D01*
X77624500Y-56698289D01*
X77624421Y-56702715D01*
X77609053Y-57132988D01*
X77608422Y-57141817D01*
X77562634Y-57567710D01*
X77561374Y-57576472D01*
X77485320Y-57998008D01*
X77483438Y-58006657D01*
X77377508Y-58421686D01*
X77375014Y-58430179D01*
X77239747Y-58836588D01*
X77236654Y-58844882D01*
X77072735Y-59240617D01*
X77069058Y-59248669D01*
X76877323Y-59631707D01*
X76873081Y-59639475D01*
X76654515Y-60007849D01*
X76649729Y-60015296D01*
X76405441Y-60367135D01*
X76400137Y-60374221D01*
X76190122Y-60634835D01*
X76132729Y-60674683D01*
X76062904Y-60677177D01*
X76002815Y-60641525D01*
X75973795Y-60589122D01*
X75958686Y-60532735D01*
X75926739Y-60413504D01*
X75830568Y-60207266D01*
X75700047Y-60020861D01*
X75700045Y-60020858D01*
X75539141Y-59859954D01*
X75352734Y-59729432D01*
X75352728Y-59729429D01*
X75294725Y-59702382D01*
X75242285Y-59656210D01*
X75223133Y-59589017D01*
X75243348Y-59522135D01*
X75294725Y-59477618D01*
X75297886Y-59476144D01*
X75352734Y-59450568D01*
X75539139Y-59320047D01*
X75700047Y-59159139D01*
X75830568Y-58972734D01*
X75926739Y-58766496D01*
X75985635Y-58546692D01*
X76005468Y-58320000D01*
X75985635Y-58093308D01*
X75926739Y-57873504D01*
X75830568Y-57667266D01*
X75700047Y-57480861D01*
X75700045Y-57480858D01*
X75539141Y-57319954D01*
X75352734Y-57189432D01*
X75352728Y-57189429D01*
X75294725Y-57162382D01*
X75242285Y-57116210D01*
X75223133Y-57049017D01*
X75243348Y-56982135D01*
X75294725Y-56937618D01*
X75352734Y-56910568D01*
X75539139Y-56780047D01*
X75700047Y-56619139D01*
X75830568Y-56432734D01*
X75926739Y-56226496D01*
X75985635Y-56006692D01*
X76005468Y-55780000D01*
X75985635Y-55553308D01*
X75926739Y-55333504D01*
X75830568Y-55127266D01*
X75700047Y-54940861D01*
X75700045Y-54940858D01*
X75539141Y-54779954D01*
X75352734Y-54649432D01*
X75352728Y-54649429D01*
X75325038Y-54636517D01*
X75294724Y-54622381D01*
X75242285Y-54576210D01*
X75223133Y-54509017D01*
X75243348Y-54442135D01*
X75294725Y-54397618D01*
X75352734Y-54370568D01*
X75539139Y-54240047D01*
X75700047Y-54079139D01*
X75830568Y-53892734D01*
X75926739Y-53686496D01*
X75985635Y-53466692D01*
X76005468Y-53240000D01*
X75985635Y-53013308D01*
X75926739Y-52793504D01*
X75830568Y-52587266D01*
X75700047Y-52400861D01*
X75700045Y-52400858D01*
X75539141Y-52239954D01*
X75352734Y-52109432D01*
X75352728Y-52109429D01*
X75294725Y-52082382D01*
X75242285Y-52036210D01*
X75223133Y-51969017D01*
X75243348Y-51902135D01*
X75294725Y-51857618D01*
X75352734Y-51830568D01*
X75539139Y-51700047D01*
X75700047Y-51539139D01*
X75830568Y-51352734D01*
X75926739Y-51146496D01*
X75985635Y-50926692D01*
X76005468Y-50700000D01*
X76004882Y-50693306D01*
X75995117Y-50581690D01*
X75985635Y-50473308D01*
X75926739Y-50253504D01*
X75830568Y-50047266D01*
X75700047Y-49860861D01*
X75700045Y-49860858D01*
X75539143Y-49699956D01*
X75529574Y-49693256D01*
X75514535Y-49682725D01*
X75470912Y-49628149D01*
X75463719Y-49558650D01*
X75495241Y-49496296D01*
X75555471Y-49460882D01*
X75572404Y-49457861D01*
X75607483Y-49454091D01*
X75742331Y-49403796D01*
X75857546Y-49317546D01*
X75943796Y-49202331D01*
X75994091Y-49067483D01*
X76000500Y-49007873D01*
X76000499Y-47312128D01*
X75994091Y-47252517D01*
X75972805Y-47195447D01*
X75943797Y-47117671D01*
X75943793Y-47117664D01*
X75857547Y-47002455D01*
X75857544Y-47002452D01*
X75742335Y-46916206D01*
X75742328Y-46916202D01*
X75607482Y-46865908D01*
X75607483Y-46865908D01*
X75547883Y-46859501D01*
X75547881Y-46859500D01*
X75547873Y-46859500D01*
X75547864Y-46859500D01*
X73852129Y-46859500D01*
X73852123Y-46859501D01*
X73792516Y-46865908D01*
X73657671Y-46916202D01*
X73657664Y-46916206D01*
X73542455Y-47002452D01*
X73542452Y-47002455D01*
X73456206Y-47117664D01*
X73456202Y-47117671D01*
X73405908Y-47252517D01*
X73399501Y-47312116D01*
X73399501Y-47312123D01*
X73399500Y-47312135D01*
X73399500Y-49007870D01*
X73399501Y-49007876D01*
X73405908Y-49067483D01*
X73456202Y-49202328D01*
X73456206Y-49202335D01*
X73542452Y-49317544D01*
X73542455Y-49317547D01*
X73657664Y-49403793D01*
X73657671Y-49403797D01*
X73668053Y-49407669D01*
X73792517Y-49454091D01*
X73827596Y-49457862D01*
X73892144Y-49484599D01*
X73931993Y-49541991D01*
X73934488Y-49611816D01*
X73898836Y-49671905D01*
X73885464Y-49682725D01*
X73860858Y-49699954D01*
X73699954Y-49860858D01*
X73569432Y-50047265D01*
X73569431Y-50047267D01*
X73473261Y-50253502D01*
X73473258Y-50253511D01*
X73414366Y-50473302D01*
X73414364Y-50473313D01*
X73394532Y-50699998D01*
X73394532Y-50700001D01*
X73414364Y-50926686D01*
X73414366Y-50926697D01*
X73473258Y-51146488D01*
X73473261Y-51146497D01*
X73569431Y-51352732D01*
X73569432Y-51352734D01*
X73699954Y-51539141D01*
X73860858Y-51700045D01*
X73860861Y-51700047D01*
X74047266Y-51830568D01*
X74105275Y-51857618D01*
X74157714Y-51903791D01*
X74176866Y-51970984D01*
X74156650Y-52037865D01*
X74105275Y-52082382D01*
X74047267Y-52109431D01*
X74047265Y-52109432D01*
X73860858Y-52239954D01*
X73699954Y-52400858D01*
X73569432Y-52587265D01*
X73569431Y-52587267D01*
X73473261Y-52793502D01*
X73473258Y-52793511D01*
X73414366Y-53013302D01*
X73414364Y-53013313D01*
X73394532Y-53239998D01*
X73394532Y-53240001D01*
X73414364Y-53466686D01*
X73414366Y-53466697D01*
X73473258Y-53686488D01*
X73473261Y-53686497D01*
X73569431Y-53892732D01*
X73569432Y-53892734D01*
X73699954Y-54079141D01*
X73860858Y-54240045D01*
X73860861Y-54240047D01*
X74047266Y-54370568D01*
X74105275Y-54397618D01*
X74157714Y-54443791D01*
X74176866Y-54510984D01*
X74156650Y-54577865D01*
X74105275Y-54622381D01*
X74088272Y-54630310D01*
X74047267Y-54649431D01*
X74047265Y-54649432D01*
X73860858Y-54779954D01*
X73699954Y-54940858D01*
X73569432Y-55127265D01*
X73569431Y-55127267D01*
X73473261Y-55333502D01*
X73473258Y-55333511D01*
X73414366Y-55553302D01*
X73414364Y-55553313D01*
X73394532Y-55779998D01*
X73394532Y-55779999D01*
X73394909Y-55784311D01*
X73381139Y-55852810D01*
X73359062Y-55882793D01*
X73220578Y-56021277D01*
X73220575Y-56021280D01*
X73220563Y-56021290D01*
X73195939Y-56045915D01*
X73195853Y-56045961D01*
X73039936Y-56201881D01*
X72822401Y-56461134D01*
X72628309Y-56738333D01*
X72628300Y-56738347D01*
X72459097Y-57031422D01*
X72316074Y-57338145D01*
X72316072Y-57338150D01*
X72200340Y-57656130D01*
X72200331Y-57656158D01*
X72112750Y-57983036D01*
X72112745Y-57983057D01*
X72053987Y-58316315D01*
X72053985Y-58316328D01*
X72024498Y-58653437D01*
X71500500Y-58653437D01*
X71500500Y-49002706D01*
X71500618Y-48997297D01*
X71503005Y-48942629D01*
X71517386Y-48613226D01*
X71518326Y-48602495D01*
X71568152Y-48224025D01*
X71570025Y-48213405D01*
X71652649Y-47840709D01*
X71655440Y-47830295D01*
X71770230Y-47466227D01*
X71773917Y-47456095D01*
X71920003Y-47103412D01*
X71924561Y-47093638D01*
X72100822Y-46755045D01*
X72106217Y-46745700D01*
X72311325Y-46423744D01*
X72317515Y-46414905D01*
X72549896Y-46112060D01*
X72556834Y-46103791D01*
X72814726Y-45822352D01*
X72822352Y-45814726D01*
X73103791Y-45556834D01*
X73112060Y-45549896D01*
X73414905Y-45317515D01*
X73423744Y-45311325D01*
X73745700Y-45106217D01*
X73755045Y-45100822D01*
X74093638Y-44924561D01*
X74103412Y-44920003D01*
X74456095Y-44773917D01*
X74466227Y-44770230D01*
X74830295Y-44655440D01*
X74840709Y-44652649D01*
X75213405Y-44570025D01*
X75224025Y-44568152D01*
X75602495Y-44518326D01*
X75613226Y-44517386D01*
X75997297Y-44500617D01*
X76002706Y-44500500D01*
X76065892Y-44500500D01*
X98934108Y-44500500D01*
X98997294Y-44500500D01*
X99002702Y-44500617D01*
G37*
%TD.AperFunction*%
%TD*%
M02*
