%TF.GenerationSoftware,KiCad,Pcbnew,8.0.7*%
%TF.CreationDate,2025-01-25T19:28:51-08:00*%
%TF.ProjectId,Attiny2x4x8x Programmers,41747469-6e79-4327-9834-783878205072,rev?*%
%TF.SameCoordinates,Original*%
%TF.FileFunction,Legend,Top*%
%TF.FilePolarity,Positive*%
%FSLAX46Y46*%
G04 Gerber Fmt 4.6, Leading zero omitted, Abs format (unit mm)*
G04 Created by KiCad (PCBNEW 8.0.7) date 2025-01-25 19:28:51*
%MOMM*%
%LPD*%
G01*
G04 APERTURE LIST*
%ADD10C,0.000000*%
%ADD11C,0.150000*%
%ADD12C,0.080000*%
%ADD13C,0.120000*%
G04 APERTURE END LIST*
D10*
G36*
X85609573Y-79808955D02*
G01*
X85685403Y-79814710D01*
X85722332Y-79819405D01*
X85758644Y-79825326D01*
X85794370Y-79832483D01*
X85829541Y-79840887D01*
X85864187Y-79850548D01*
X85898340Y-79861477D01*
X85932029Y-79873683D01*
X85965286Y-79887179D01*
X85998141Y-79901973D01*
X86030625Y-79918077D01*
X86062769Y-79935501D01*
X86094603Y-79954255D01*
X86157465Y-79995798D01*
X86219457Y-80042787D01*
X86280824Y-80095308D01*
X86341813Y-80153444D01*
X86402668Y-80217279D01*
X86587215Y-80419553D01*
X86888940Y-80343717D01*
X86978530Y-80323683D01*
X87076525Y-80306318D01*
X87181725Y-80291623D01*
X87292928Y-80279598D01*
X87408932Y-80270244D01*
X87528538Y-80263560D01*
X87650543Y-80259546D01*
X87773748Y-80258203D01*
X87896950Y-80259530D01*
X88018948Y-80263529D01*
X88138542Y-80270199D01*
X88254531Y-80279539D01*
X88365713Y-80291552D01*
X88470886Y-80306235D01*
X88568852Y-80323591D01*
X88658407Y-80343618D01*
X88959668Y-80419355D01*
X89156121Y-80205869D01*
X89198169Y-80161117D01*
X89238689Y-80120032D01*
X89278004Y-80082432D01*
X89316435Y-80048134D01*
X89354304Y-80016959D01*
X89391933Y-79988724D01*
X89429642Y-79963247D01*
X89467755Y-79940347D01*
X89506591Y-79919843D01*
X89546474Y-79901553D01*
X89587724Y-79885296D01*
X89630664Y-79870890D01*
X89675614Y-79858153D01*
X89722898Y-79846904D01*
X89772835Y-79836961D01*
X89825748Y-79828143D01*
X89931575Y-79816205D01*
X90034634Y-79812822D01*
X90134727Y-79817612D01*
X90231654Y-79830192D01*
X90325214Y-79850180D01*
X90415210Y-79877192D01*
X90501440Y-79910846D01*
X90583707Y-79950761D01*
X90661809Y-79996552D01*
X90735547Y-80047838D01*
X90804723Y-80104236D01*
X90869136Y-80165363D01*
X90928587Y-80230837D01*
X90982877Y-80300275D01*
X91031805Y-80373294D01*
X91075173Y-80449513D01*
X91112780Y-80528548D01*
X91144428Y-80610017D01*
X91169916Y-80693537D01*
X91189046Y-80778726D01*
X91201617Y-80865200D01*
X91207431Y-80952579D01*
X91206287Y-81040478D01*
X91197986Y-81128515D01*
X91182328Y-81216308D01*
X91159115Y-81303474D01*
X91128146Y-81389631D01*
X91089222Y-81474395D01*
X91042143Y-81557385D01*
X90986710Y-81638218D01*
X90922723Y-81716510D01*
X90849984Y-81791881D01*
X90816002Y-81824791D01*
X90785980Y-81855039D01*
X90759731Y-81883183D01*
X90737069Y-81909785D01*
X90717809Y-81935403D01*
X90701764Y-81960597D01*
X90694890Y-81973211D01*
X90688750Y-81985928D01*
X90683321Y-81998820D01*
X90678580Y-82011956D01*
X90674503Y-82025406D01*
X90671067Y-82039241D01*
X90668250Y-82053529D01*
X90666028Y-82068341D01*
X90663275Y-82099819D01*
X90662624Y-82134232D01*
X90663887Y-82172142D01*
X90666880Y-82214108D01*
X90671416Y-82260690D01*
X90677310Y-82312449D01*
X90692246Y-82460994D01*
X90701063Y-82605763D01*
X90703690Y-82747037D01*
X90700053Y-82885098D01*
X90690080Y-83020227D01*
X90673698Y-83152706D01*
X90650836Y-83282817D01*
X90621421Y-83410841D01*
X90585380Y-83537060D01*
X90542642Y-83661755D01*
X90493133Y-83785208D01*
X90436781Y-83907700D01*
X90373514Y-84029513D01*
X90303259Y-84150929D01*
X90225944Y-84272229D01*
X90141496Y-84393694D01*
X90113643Y-84432336D01*
X90089551Y-84466476D01*
X90069256Y-84496606D01*
X90060545Y-84510322D01*
X90052796Y-84523220D01*
X90046016Y-84535363D01*
X90040207Y-84546812D01*
X90035375Y-84557628D01*
X90031524Y-84567873D01*
X90028658Y-84577610D01*
X90026783Y-84586899D01*
X90025903Y-84595802D01*
X90026022Y-84604381D01*
X90027145Y-84612697D01*
X90029276Y-84620813D01*
X90032420Y-84628789D01*
X90036581Y-84636688D01*
X90041764Y-84644572D01*
X90047974Y-84652501D01*
X90055215Y-84660537D01*
X90063491Y-84668742D01*
X90072808Y-84677179D01*
X90083168Y-84685907D01*
X90107042Y-84704488D01*
X90135149Y-84724979D01*
X90167524Y-84747872D01*
X90228436Y-84792916D01*
X90293959Y-84845434D01*
X90363104Y-84904382D01*
X90434886Y-84968715D01*
X90508317Y-85037389D01*
X90582412Y-85109358D01*
X90656183Y-85183578D01*
X90728643Y-85259005D01*
X90798806Y-85334594D01*
X90865686Y-85409301D01*
X90928295Y-85482080D01*
X90985646Y-85551888D01*
X91036754Y-85617679D01*
X91080631Y-85678409D01*
X91116290Y-85733033D01*
X91142745Y-85780507D01*
X91174690Y-85849912D01*
X91201412Y-85918271D01*
X91212817Y-85952038D01*
X91222918Y-85985520D01*
X91231718Y-86018707D01*
X91239217Y-86051593D01*
X91245415Y-86084168D01*
X91250315Y-86116426D01*
X91253916Y-86148357D01*
X91256220Y-86179953D01*
X91257227Y-86211207D01*
X91256939Y-86242110D01*
X91255357Y-86272654D01*
X91252481Y-86302832D01*
X91248313Y-86332634D01*
X91242853Y-86362053D01*
X91236102Y-86391081D01*
X91228062Y-86419709D01*
X91218733Y-86447930D01*
X91208116Y-86475735D01*
X91196212Y-86503116D01*
X91183022Y-86530066D01*
X91168547Y-86556575D01*
X91152788Y-86582636D01*
X91135746Y-86608241D01*
X91117422Y-86633382D01*
X91097817Y-86658050D01*
X91076931Y-86682237D01*
X91054766Y-86705935D01*
X91031323Y-86729137D01*
X91007156Y-86752435D01*
X90986097Y-86773490D01*
X90968105Y-86792616D01*
X90960246Y-86801555D01*
X90953138Y-86810130D01*
X90946775Y-86818382D01*
X90941153Y-86826349D01*
X90936266Y-86834071D01*
X90932110Y-86841588D01*
X90928678Y-86848939D01*
X90925965Y-86856164D01*
X90923967Y-86863301D01*
X90922678Y-86870392D01*
X90922092Y-86877475D01*
X90922206Y-86884590D01*
X90923012Y-86891776D01*
X90924507Y-86899073D01*
X90926685Y-86906520D01*
X90929540Y-86914157D01*
X90933068Y-86922023D01*
X90937263Y-86930158D01*
X90942120Y-86938602D01*
X90947633Y-86947393D01*
X90960610Y-86966178D01*
X90976151Y-86986829D01*
X90994214Y-87009662D01*
X91002583Y-87020492D01*
X91011390Y-87032678D01*
X91030027Y-87060579D01*
X91049529Y-87092297D01*
X91069302Y-87126761D01*
X91088752Y-87162900D01*
X91107282Y-87199646D01*
X91124299Y-87235927D01*
X91139206Y-87270673D01*
X91184049Y-87394764D01*
X91217680Y-87517744D01*
X91240546Y-87639242D01*
X91253097Y-87758886D01*
X91255780Y-87876304D01*
X91249044Y-87991125D01*
X91233337Y-88102978D01*
X91209106Y-88211490D01*
X91176802Y-88316292D01*
X91136870Y-88417010D01*
X91089761Y-88513275D01*
X91035921Y-88604713D01*
X90975800Y-88690954D01*
X90909846Y-88771626D01*
X90838506Y-88846358D01*
X90762229Y-88914778D01*
X90681463Y-88976514D01*
X90596657Y-89031196D01*
X90508259Y-89078452D01*
X90416716Y-89117909D01*
X90322478Y-89149198D01*
X90225992Y-89171946D01*
X90127706Y-89185781D01*
X90028070Y-89190333D01*
X89927530Y-89185229D01*
X89826536Y-89170099D01*
X89725536Y-89144571D01*
X89624977Y-89108273D01*
X89525308Y-89060833D01*
X89426978Y-89001881D01*
X89330434Y-88931045D01*
X89236124Y-88847954D01*
X89046419Y-88665788D01*
X88688503Y-88727436D01*
X88504695Y-88753505D01*
X88297666Y-88772939D01*
X88072713Y-88785678D01*
X87835131Y-88791668D01*
X87590216Y-88790850D01*
X87343264Y-88783168D01*
X87099571Y-88768564D01*
X86864433Y-88746982D01*
X86458694Y-88702566D01*
X86307683Y-88848748D01*
X86261529Y-88891539D01*
X86214462Y-88931458D01*
X86166540Y-88968508D01*
X86117824Y-89002691D01*
X86068373Y-89034008D01*
X86018247Y-89062461D01*
X85967504Y-89088051D01*
X85916203Y-89110780D01*
X85864406Y-89130650D01*
X85812170Y-89147663D01*
X85759555Y-89161820D01*
X85706620Y-89173123D01*
X85653425Y-89181574D01*
X85600030Y-89187174D01*
X85546493Y-89189925D01*
X85492874Y-89189828D01*
X85439233Y-89186887D01*
X85385628Y-89181101D01*
X85332119Y-89172473D01*
X85278766Y-89161005D01*
X85225627Y-89146698D01*
X85172763Y-89129554D01*
X85120232Y-89109574D01*
X85068094Y-89086761D01*
X85016408Y-89061115D01*
X84965235Y-89032640D01*
X84914632Y-89001336D01*
X84864659Y-88967205D01*
X84815377Y-88930248D01*
X84766843Y-88890469D01*
X84719118Y-88847867D01*
X84672261Y-88802445D01*
X84628876Y-88756773D01*
X84588083Y-88709968D01*
X84549883Y-88662072D01*
X84514278Y-88613127D01*
X84481271Y-88563175D01*
X84450863Y-88512258D01*
X84423057Y-88460418D01*
X84397855Y-88407697D01*
X84375260Y-88354137D01*
X84355272Y-88299780D01*
X84337895Y-88244669D01*
X84323130Y-88188844D01*
X84310980Y-88132348D01*
X84301447Y-88075224D01*
X84290240Y-87959256D01*
X84289584Y-87850949D01*
X84608720Y-87850949D01*
X84610797Y-87926679D01*
X84618592Y-88002673D01*
X84632327Y-88078647D01*
X84652228Y-88154322D01*
X84678517Y-88229413D01*
X84711419Y-88303640D01*
X84737997Y-88354197D01*
X84766753Y-88402458D01*
X84797573Y-88448392D01*
X84830339Y-88491973D01*
X84864935Y-88533170D01*
X84901246Y-88571955D01*
X84939155Y-88608299D01*
X84978546Y-88642174D01*
X85019303Y-88673551D01*
X85061309Y-88702400D01*
X85104450Y-88728694D01*
X85148607Y-88752403D01*
X85193667Y-88773498D01*
X85239511Y-88791952D01*
X85286024Y-88807734D01*
X85333091Y-88820817D01*
X85380594Y-88831171D01*
X85428418Y-88838768D01*
X85476446Y-88843579D01*
X85524563Y-88845575D01*
X85572652Y-88844728D01*
X85620597Y-88841008D01*
X85668282Y-88834386D01*
X85715590Y-88824835D01*
X85762407Y-88812325D01*
X85808615Y-88796828D01*
X85854098Y-88778314D01*
X85898741Y-88756756D01*
X85942427Y-88732123D01*
X85985040Y-88704388D01*
X86026464Y-88673521D01*
X86066582Y-88639495D01*
X86108302Y-88598415D01*
X86146503Y-88553934D01*
X86181218Y-88506305D01*
X86212482Y-88455782D01*
X86240331Y-88402619D01*
X86264798Y-88347071D01*
X86285920Y-88289390D01*
X86303730Y-88229832D01*
X86318263Y-88168650D01*
X86329554Y-88106099D01*
X86337639Y-88042432D01*
X86342550Y-87977903D01*
X86344325Y-87912767D01*
X86342996Y-87847277D01*
X86338599Y-87781688D01*
X86331169Y-87716253D01*
X86320741Y-87651227D01*
X86307348Y-87586863D01*
X86291027Y-87523417D01*
X86271811Y-87461140D01*
X86249736Y-87400289D01*
X86224836Y-87341116D01*
X86197146Y-87283877D01*
X86166701Y-87228824D01*
X86133536Y-87176211D01*
X86097684Y-87126294D01*
X86059182Y-87079326D01*
X86018064Y-87035561D01*
X85974365Y-86995253D01*
X85928119Y-86958655D01*
X85879361Y-86926023D01*
X85828126Y-86897610D01*
X85760128Y-86867573D01*
X85692027Y-86845127D01*
X85624047Y-86829991D01*
X85556411Y-86821882D01*
X85489344Y-86820518D01*
X85423069Y-86825618D01*
X85357811Y-86836900D01*
X85293793Y-86854082D01*
X85231238Y-86876882D01*
X85170372Y-86905018D01*
X85111417Y-86938209D01*
X85054598Y-86976172D01*
X85000138Y-87018627D01*
X84948261Y-87065290D01*
X84899192Y-87115880D01*
X84853153Y-87170115D01*
X84810369Y-87227714D01*
X84771064Y-87288394D01*
X84735462Y-87351874D01*
X84703786Y-87417872D01*
X84676260Y-87486106D01*
X84653108Y-87556293D01*
X84634555Y-87628153D01*
X84620823Y-87701404D01*
X84612137Y-87775763D01*
X84608720Y-87850949D01*
X84289584Y-87850949D01*
X84289525Y-87841276D01*
X84299320Y-87721620D01*
X84319642Y-87600624D01*
X84350508Y-87478624D01*
X84391936Y-87355956D01*
X84443941Y-87232956D01*
X84506542Y-87109960D01*
X84579756Y-86987304D01*
X84662339Y-86858618D01*
X84553066Y-86759863D01*
X84505877Y-86714436D01*
X84463468Y-86667750D01*
X84425832Y-86619820D01*
X84392963Y-86570663D01*
X84364855Y-86520293D01*
X84341501Y-86468727D01*
X84322893Y-86415981D01*
X84309026Y-86362071D01*
X84299893Y-86307012D01*
X84295487Y-86250821D01*
X84295746Y-86203785D01*
X84620822Y-86203785D01*
X84621185Y-86243062D01*
X84625072Y-86281080D01*
X84632505Y-86317797D01*
X84643507Y-86353172D01*
X84658099Y-86387162D01*
X84676305Y-86419725D01*
X84698147Y-86450821D01*
X84723646Y-86480407D01*
X84752826Y-86508442D01*
X84772546Y-86525436D01*
X84790722Y-86540262D01*
X84807700Y-86552951D01*
X84823826Y-86563533D01*
X84839444Y-86572039D01*
X84847171Y-86575523D01*
X84854901Y-86578499D01*
X84862678Y-86580972D01*
X84870543Y-86582945D01*
X84878540Y-86584422D01*
X84886714Y-86585407D01*
X84895106Y-86585904D01*
X84903760Y-86585916D01*
X84912719Y-86585448D01*
X84922027Y-86584503D01*
X84941860Y-86581199D01*
X84963604Y-86576033D01*
X84987606Y-86569038D01*
X85014211Y-86560244D01*
X85043764Y-86549681D01*
X85076610Y-86537381D01*
X85094804Y-86530758D01*
X85113292Y-86524601D01*
X85125508Y-86520904D01*
X85968112Y-86520904D01*
X85969273Y-86535109D01*
X85971645Y-86548173D01*
X85973280Y-86554321D01*
X85975213Y-86560235D01*
X85977440Y-86565934D01*
X85979961Y-86571434D01*
X85985875Y-86581908D01*
X85992939Y-86591797D01*
X86001138Y-86601239D01*
X86010458Y-86610374D01*
X86020881Y-86619340D01*
X86032395Y-86628276D01*
X86044982Y-86637321D01*
X86058629Y-86646613D01*
X86089038Y-86666498D01*
X86162527Y-86717518D01*
X86230438Y-86771818D01*
X86292856Y-86829600D01*
X86349866Y-86891067D01*
X86401554Y-86956423D01*
X86448004Y-87025869D01*
X86489301Y-87099609D01*
X86525531Y-87177847D01*
X86556777Y-87260783D01*
X86583125Y-87348623D01*
X86604660Y-87441568D01*
X86621466Y-87539821D01*
X86633629Y-87643586D01*
X86641234Y-87753065D01*
X86644366Y-87868461D01*
X86643109Y-87989977D01*
X86632823Y-88365222D01*
X86818925Y-88407720D01*
X86927481Y-88427544D01*
X87057570Y-88443084D01*
X87205202Y-88454523D01*
X87366386Y-88462041D01*
X87537131Y-88465821D01*
X87713447Y-88466044D01*
X87891343Y-88462893D01*
X88066827Y-88456548D01*
X88235911Y-88447193D01*
X88394602Y-88435008D01*
X88538910Y-88420176D01*
X88664844Y-88402879D01*
X88768414Y-88383297D01*
X88845629Y-88361614D01*
X88873107Y-88350041D01*
X88892499Y-88338010D01*
X88903307Y-88325545D01*
X88905032Y-88312669D01*
X88882125Y-88193743D01*
X88867611Y-88075191D01*
X88861374Y-87957350D01*
X88862450Y-87892045D01*
X89221724Y-87892045D01*
X89223722Y-87966362D01*
X89229895Y-88045812D01*
X89240404Y-88122069D01*
X89255065Y-88195058D01*
X89273694Y-88264705D01*
X89296109Y-88330934D01*
X89322124Y-88393669D01*
X89351556Y-88452837D01*
X89384222Y-88508362D01*
X89419938Y-88560169D01*
X89458520Y-88608183D01*
X89499785Y-88652330D01*
X89543548Y-88692533D01*
X89589627Y-88728719D01*
X89637837Y-88760811D01*
X89687995Y-88788736D01*
X89739916Y-88812417D01*
X89793418Y-88831781D01*
X89848317Y-88846752D01*
X89904429Y-88857254D01*
X89961570Y-88863214D01*
X90019556Y-88864556D01*
X90078204Y-88861205D01*
X90137331Y-88853085D01*
X90196752Y-88840123D01*
X90256283Y-88822243D01*
X90315742Y-88799370D01*
X90374944Y-88771428D01*
X90433705Y-88738344D01*
X90491843Y-88700042D01*
X90549173Y-88656446D01*
X90605511Y-88607483D01*
X90660675Y-88553076D01*
X90703684Y-88504741D01*
X90742885Y-88454076D01*
X90778315Y-88401289D01*
X90810016Y-88346589D01*
X90838026Y-88290184D01*
X90862384Y-88232283D01*
X90883132Y-88173092D01*
X90900307Y-88112822D01*
X90913949Y-88051679D01*
X90924099Y-87989872D01*
X90930795Y-87927610D01*
X90934078Y-87865100D01*
X90933986Y-87802551D01*
X90930559Y-87740172D01*
X90923838Y-87678170D01*
X90913860Y-87616753D01*
X90900666Y-87556130D01*
X90884296Y-87496509D01*
X90864788Y-87438099D01*
X90842183Y-87381107D01*
X90816520Y-87325742D01*
X90787838Y-87272212D01*
X90756178Y-87220726D01*
X90721578Y-87171491D01*
X90684078Y-87124715D01*
X90643718Y-87080608D01*
X90600537Y-87039377D01*
X90554574Y-87001230D01*
X90505870Y-86966377D01*
X90454464Y-86935024D01*
X90400396Y-86907380D01*
X90343704Y-86883654D01*
X90285294Y-86863874D01*
X90227518Y-86848401D01*
X90170464Y-86837148D01*
X90114219Y-86830033D01*
X90058870Y-86826970D01*
X90004506Y-86827874D01*
X89951214Y-86832661D01*
X89899081Y-86841245D01*
X89848196Y-86853543D01*
X89798646Y-86869469D01*
X89750519Y-86888940D01*
X89703901Y-86911869D01*
X89658882Y-86938172D01*
X89615549Y-86967765D01*
X89573989Y-87000563D01*
X89534290Y-87036480D01*
X89496539Y-87075434D01*
X89460825Y-87117337D01*
X89427234Y-87162107D01*
X89395855Y-87209658D01*
X89366776Y-87259906D01*
X89340083Y-87312765D01*
X89315865Y-87368151D01*
X89294209Y-87425979D01*
X89275204Y-87486165D01*
X89258935Y-87548624D01*
X89245492Y-87613271D01*
X89234962Y-87680021D01*
X89227432Y-87748790D01*
X89222990Y-87819493D01*
X89221724Y-87892045D01*
X88862450Y-87892045D01*
X88863299Y-87840557D01*
X88873268Y-87725149D01*
X88891166Y-87611462D01*
X88916877Y-87499833D01*
X88950284Y-87390600D01*
X88991271Y-87284098D01*
X89039722Y-87180666D01*
X89095520Y-87080639D01*
X89158551Y-86984355D01*
X89228697Y-86892150D01*
X89305842Y-86804361D01*
X89347003Y-86762228D01*
X89389870Y-86721325D01*
X89434429Y-86681695D01*
X89480666Y-86643380D01*
X89596785Y-86550511D01*
X89514830Y-86311990D01*
X89463535Y-86169317D01*
X89402135Y-86008851D01*
X89335120Y-85841202D01*
X89266977Y-85676985D01*
X89202194Y-85526812D01*
X89145257Y-85401296D01*
X89100655Y-85311050D01*
X89084383Y-85282470D01*
X89072876Y-85266687D01*
X89065942Y-85260223D01*
X89058794Y-85254733D01*
X89051094Y-85250248D01*
X89042506Y-85246803D01*
X89032692Y-85244429D01*
X89021316Y-85243161D01*
X89008041Y-85243029D01*
X88992530Y-85244069D01*
X88974446Y-85246312D01*
X88953451Y-85249791D01*
X88901385Y-85260589D01*
X88833634Y-85276728D01*
X88747505Y-85298470D01*
X88622986Y-85328416D01*
X88498946Y-85354409D01*
X88375397Y-85376447D01*
X88252352Y-85394530D01*
X88129822Y-85408659D01*
X88007820Y-85418834D01*
X87886357Y-85425053D01*
X87765446Y-85427318D01*
X87645099Y-85425627D01*
X87525327Y-85419981D01*
X87406142Y-85410379D01*
X87287557Y-85396822D01*
X87169584Y-85379309D01*
X87052234Y-85357840D01*
X86935520Y-85332415D01*
X86819454Y-85303034D01*
X86693445Y-85268887D01*
X86642319Y-85256997D01*
X86597665Y-85249921D01*
X86577426Y-85248508D01*
X86558398Y-85248680D01*
X86540445Y-85250567D01*
X86523432Y-85254294D01*
X86507222Y-85259990D01*
X86491682Y-85267782D01*
X86476674Y-85277798D01*
X86462063Y-85290164D01*
X86447714Y-85305009D01*
X86433491Y-85322460D01*
X86404880Y-85365689D01*
X86375144Y-85420872D01*
X86343199Y-85489027D01*
X86307959Y-85571175D01*
X86268340Y-85668336D01*
X86171621Y-85911774D01*
X86087525Y-86124453D01*
X86054171Y-86210892D01*
X86026451Y-86285544D01*
X86014666Y-86318798D01*
X86004244Y-86349522D01*
X85995170Y-86377855D01*
X85987429Y-86403935D01*
X85981004Y-86427903D01*
X85975882Y-86449896D01*
X85972047Y-86470054D01*
X85969484Y-86488515D01*
X85968177Y-86505419D01*
X85968112Y-86520904D01*
X85125508Y-86520904D01*
X85132112Y-86518905D01*
X85151299Y-86513666D01*
X85170889Y-86508876D01*
X85190920Y-86504532D01*
X85211427Y-86500627D01*
X85232446Y-86497156D01*
X85276165Y-86491495D01*
X85322367Y-86487505D01*
X85371342Y-86485143D01*
X85423379Y-86484365D01*
X85630681Y-86484365D01*
X85811689Y-86027066D01*
X85941042Y-85700461D01*
X85992257Y-85569690D01*
X86034894Y-85458146D01*
X86053089Y-85409008D01*
X86069251Y-85363984D01*
X86083417Y-85322845D01*
X86095625Y-85285360D01*
X86105912Y-85251297D01*
X86114314Y-85220426D01*
X86120870Y-85192518D01*
X86125617Y-85167340D01*
X86128591Y-85144662D01*
X86129830Y-85124254D01*
X86129371Y-85105886D01*
X86128516Y-85097394D01*
X86127251Y-85089325D01*
X86125580Y-85081651D01*
X86123508Y-85074342D01*
X86121039Y-85067371D01*
X86118178Y-85060707D01*
X86114930Y-85054322D01*
X86111299Y-85048188D01*
X86102908Y-85036554D01*
X86093043Y-85025576D01*
X86081740Y-85015022D01*
X86069037Y-85004663D01*
X86054970Y-84994266D01*
X85985818Y-84947698D01*
X85925139Y-84904804D01*
X85901469Y-84887915D01*
X85880968Y-84874351D01*
X85862680Y-84864326D01*
X85854067Y-84860708D01*
X85845647Y-84858055D01*
X85837302Y-84856394D01*
X85828911Y-84855752D01*
X85820356Y-84856156D01*
X85811515Y-84857632D01*
X85802270Y-84860208D01*
X85792501Y-84863910D01*
X85782089Y-84868765D01*
X85770912Y-84874799D01*
X85745790Y-84890515D01*
X85716178Y-84911272D01*
X85533678Y-85049000D01*
X85387649Y-85162112D01*
X85253749Y-85273864D01*
X85191403Y-85329125D01*
X85132157Y-85383921D01*
X85076032Y-85438210D01*
X85023052Y-85491951D01*
X84973238Y-85545100D01*
X84926612Y-85597618D01*
X84883198Y-85649461D01*
X84843017Y-85700588D01*
X84806091Y-85750957D01*
X84772444Y-85800527D01*
X84742098Y-85849256D01*
X84715074Y-85897102D01*
X84691395Y-85944022D01*
X84671084Y-85989976D01*
X84654162Y-86034922D01*
X84640653Y-86078818D01*
X84630578Y-86121621D01*
X84623961Y-86163291D01*
X84620822Y-86203785D01*
X84295746Y-86203785D01*
X84295802Y-86193514D01*
X84300831Y-86135106D01*
X84310568Y-86075614D01*
X84325005Y-86015053D01*
X84344137Y-85953439D01*
X84367957Y-85890789D01*
X84396457Y-85827118D01*
X84429633Y-85762441D01*
X84467476Y-85696776D01*
X84509980Y-85630138D01*
X84557139Y-85562542D01*
X84608946Y-85494005D01*
X84726479Y-85354172D01*
X84862524Y-85210764D01*
X85017030Y-85063910D01*
X85189943Y-84913738D01*
X85381212Y-84760373D01*
X85442405Y-84712448D01*
X85466468Y-84692232D01*
X85476870Y-84682814D01*
X85486188Y-84673761D01*
X85494422Y-84665003D01*
X85501574Y-84656470D01*
X85507645Y-84648091D01*
X85512636Y-84639795D01*
X85516548Y-84631512D01*
X85519383Y-84623171D01*
X85521142Y-84614702D01*
X85521825Y-84606034D01*
X85521435Y-84597097D01*
X85519972Y-84587819D01*
X85517438Y-84578131D01*
X85513833Y-84567962D01*
X85509159Y-84557241D01*
X85503418Y-84545898D01*
X85496609Y-84533862D01*
X85488735Y-84521062D01*
X85469796Y-84492891D01*
X85446609Y-84460818D01*
X85387529Y-84382714D01*
X85309001Y-84274251D01*
X85236529Y-84162676D01*
X85170128Y-84048042D01*
X85109809Y-83930404D01*
X85055586Y-83809813D01*
X85007473Y-83686323D01*
X84965484Y-83559987D01*
X84929630Y-83430859D01*
X84899926Y-83298991D01*
X84876385Y-83164437D01*
X84859020Y-83027251D01*
X84847845Y-82887484D01*
X84843408Y-82760506D01*
X85146336Y-82760506D01*
X85149548Y-82894812D01*
X85159954Y-83026615D01*
X85177410Y-83155769D01*
X85201772Y-83282130D01*
X85232895Y-83405554D01*
X85270637Y-83525896D01*
X85314852Y-83643012D01*
X85365396Y-83756758D01*
X85422126Y-83866989D01*
X85484898Y-83973561D01*
X85553566Y-84076330D01*
X85627988Y-84175151D01*
X85708019Y-84269880D01*
X85793515Y-84360373D01*
X85884333Y-84446485D01*
X85980327Y-84528072D01*
X86081354Y-84604989D01*
X86187269Y-84677093D01*
X86297929Y-84744238D01*
X86413190Y-84806281D01*
X86532908Y-84863078D01*
X86656938Y-84914483D01*
X86785136Y-84960352D01*
X86917358Y-85000542D01*
X87053461Y-85034908D01*
X87193300Y-85063305D01*
X87336730Y-85085589D01*
X87483609Y-85101615D01*
X87633792Y-85111241D01*
X87787134Y-85114320D01*
X87953388Y-85109970D01*
X88115824Y-85097582D01*
X88274259Y-85077377D01*
X88333842Y-85066638D01*
X89362316Y-85066638D01*
X89362771Y-85079234D01*
X89372839Y-85124301D01*
X89393806Y-85192681D01*
X89424098Y-85280548D01*
X89506362Y-85499451D01*
X89607041Y-85750419D01*
X89713545Y-86002860D01*
X89813282Y-86226181D01*
X89893664Y-86389792D01*
X89922662Y-86439645D01*
X89942099Y-86463099D01*
X89945790Y-86465184D01*
X89950179Y-86467215D01*
X89955209Y-86469181D01*
X89960821Y-86471071D01*
X89966961Y-86472876D01*
X89973570Y-86474583D01*
X89980593Y-86476182D01*
X89987971Y-86477664D01*
X90003569Y-86480228D01*
X90019908Y-86482191D01*
X90036534Y-86483466D01*
X90044813Y-86483819D01*
X90052992Y-86483968D01*
X90073198Y-86485175D01*
X90100564Y-86488472D01*
X90133883Y-86493631D01*
X90171947Y-86500426D01*
X90213549Y-86508630D01*
X90257482Y-86518017D01*
X90302536Y-86528360D01*
X90347506Y-86539431D01*
X90393786Y-86550061D01*
X90438597Y-86558021D01*
X90481886Y-86563376D01*
X90523604Y-86566194D01*
X90563699Y-86566541D01*
X90602122Y-86564482D01*
X90638821Y-86560085D01*
X90673746Y-86553416D01*
X90706847Y-86544540D01*
X90738072Y-86533524D01*
X90767372Y-86520434D01*
X90794695Y-86505338D01*
X90819991Y-86488300D01*
X90843209Y-86469387D01*
X90864299Y-86448666D01*
X90883209Y-86426202D01*
X90899891Y-86402063D01*
X90914291Y-86376314D01*
X90926361Y-86349021D01*
X90936050Y-86320251D01*
X90943306Y-86290071D01*
X90948080Y-86258546D01*
X90950321Y-86225742D01*
X90949977Y-86191727D01*
X90946999Y-86156566D01*
X90941336Y-86120325D01*
X90932936Y-86083072D01*
X90921751Y-86044871D01*
X90907728Y-86005790D01*
X90890818Y-85965895D01*
X90870969Y-85925251D01*
X90848132Y-85883926D01*
X90819018Y-85838573D01*
X90781701Y-85787651D01*
X90736988Y-85731937D01*
X90685688Y-85672208D01*
X90628607Y-85609240D01*
X90566553Y-85543809D01*
X90430760Y-85408664D01*
X90284768Y-85272985D01*
X90209967Y-85206885D01*
X90135040Y-85142981D01*
X90060795Y-85082048D01*
X89988038Y-85024864D01*
X89917578Y-84972204D01*
X89850223Y-84924845D01*
X89802135Y-84891444D01*
X89783205Y-84878326D01*
X89766869Y-84867655D01*
X89752513Y-84859476D01*
X89745886Y-84856335D01*
X89739525Y-84853834D01*
X89733352Y-84851977D01*
X89727292Y-84850772D01*
X89721268Y-84850223D01*
X89715202Y-84850336D01*
X89709020Y-84851116D01*
X89702643Y-84852570D01*
X89695996Y-84854702D01*
X89689001Y-84857518D01*
X89681583Y-84861024D01*
X89673665Y-84865225D01*
X89656020Y-84875736D01*
X89635456Y-84889095D01*
X89611360Y-84905347D01*
X89550119Y-84946706D01*
X89517640Y-84968155D01*
X89486317Y-84988508D01*
X89456909Y-85007295D01*
X89430176Y-85024047D01*
X89406877Y-85038293D01*
X89387771Y-85049565D01*
X89373618Y-85057391D01*
X89368635Y-85059866D01*
X89365176Y-85061303D01*
X89362316Y-85066638D01*
X88333842Y-85066638D01*
X88428509Y-85049575D01*
X88578392Y-85014398D01*
X88723724Y-84972066D01*
X88864321Y-84922801D01*
X89000000Y-84866822D01*
X89130578Y-84804350D01*
X89255871Y-84735607D01*
X89375696Y-84660814D01*
X89489870Y-84580191D01*
X89598209Y-84493958D01*
X89700530Y-84402337D01*
X89796649Y-84305549D01*
X89886384Y-84203814D01*
X89969550Y-84097353D01*
X90045964Y-83986387D01*
X90115444Y-83871137D01*
X90177805Y-83751823D01*
X90232864Y-83628667D01*
X90280438Y-83501889D01*
X90320343Y-83371710D01*
X90352396Y-83238350D01*
X90376415Y-83102032D01*
X90392214Y-82962974D01*
X90399611Y-82821399D01*
X90398423Y-82677527D01*
X90388466Y-82531579D01*
X90369557Y-82383775D01*
X90341513Y-82234337D01*
X90304149Y-82083485D01*
X90262349Y-81958462D01*
X90207334Y-81835432D01*
X90139795Y-81714937D01*
X90060424Y-81597516D01*
X89969912Y-81483709D01*
X89868950Y-81374055D01*
X89758229Y-81269096D01*
X89638440Y-81169370D01*
X89510276Y-81075418D01*
X89374426Y-80987779D01*
X89231583Y-80906994D01*
X89082437Y-80833603D01*
X88927680Y-80768145D01*
X88768002Y-80711160D01*
X88604096Y-80663189D01*
X88436653Y-80624771D01*
X88284076Y-80597884D01*
X88132520Y-80577743D01*
X87982209Y-80564223D01*
X87833363Y-80557197D01*
X87686205Y-80556538D01*
X87540957Y-80562122D01*
X87397840Y-80573821D01*
X87257077Y-80591510D01*
X87118890Y-80615062D01*
X86983501Y-80644351D01*
X86851131Y-80679252D01*
X86722003Y-80719637D01*
X86596339Y-80765381D01*
X86474360Y-80816358D01*
X86356289Y-80872442D01*
X86242348Y-80933506D01*
X86132758Y-80999425D01*
X86027742Y-81070072D01*
X85927522Y-81145321D01*
X85832319Y-81225045D01*
X85742356Y-81309120D01*
X85657855Y-81397418D01*
X85579037Y-81489814D01*
X85506125Y-81586182D01*
X85439341Y-81686394D01*
X85378906Y-81790326D01*
X85325043Y-81897851D01*
X85277973Y-82008843D01*
X85237919Y-82123176D01*
X85205103Y-82240723D01*
X85179746Y-82361359D01*
X85162071Y-82484957D01*
X85150462Y-82623839D01*
X85146336Y-82760506D01*
X84843408Y-82760506D01*
X84842873Y-82745191D01*
X84844117Y-82600425D01*
X84851591Y-82453238D01*
X84865307Y-82303684D01*
X84896925Y-82020745D01*
X84711254Y-81829253D01*
X84651919Y-81763724D01*
X84598320Y-81695671D01*
X84550380Y-81625366D01*
X84508023Y-81553083D01*
X84471170Y-81479093D01*
X84439745Y-81403670D01*
X84413671Y-81327086D01*
X84392871Y-81249614D01*
X84377267Y-81171527D01*
X84366783Y-81093097D01*
X84363901Y-81051516D01*
X84655398Y-81051516D01*
X84661422Y-81122079D01*
X84674318Y-81192031D01*
X84694361Y-81260977D01*
X84721823Y-81328522D01*
X84756976Y-81394272D01*
X84800093Y-81457832D01*
X84851448Y-81518809D01*
X84911312Y-81576807D01*
X84931535Y-81594312D01*
X84949704Y-81609185D01*
X84966177Y-81621260D01*
X84973889Y-81626197D01*
X84981311Y-81630373D01*
X84988487Y-81633766D01*
X84995463Y-81636357D01*
X85002283Y-81638124D01*
X85008992Y-81639046D01*
X85015634Y-81639104D01*
X85022254Y-81638276D01*
X85028897Y-81636541D01*
X85035608Y-81633879D01*
X85042431Y-81630269D01*
X85049411Y-81625691D01*
X85056592Y-81620123D01*
X85064019Y-81613545D01*
X85071738Y-81605937D01*
X85079792Y-81597277D01*
X85097086Y-81576719D01*
X85116260Y-81551707D01*
X85137669Y-81522075D01*
X85188628Y-81448286D01*
X85221119Y-81402062D01*
X85254904Y-81356907D01*
X85290182Y-81312639D01*
X85327155Y-81269078D01*
X85366023Y-81226040D01*
X85406986Y-81183345D01*
X85450244Y-81140812D01*
X85496000Y-81098259D01*
X85544451Y-81055504D01*
X85595800Y-81012366D01*
X85650247Y-80968664D01*
X85707992Y-80924216D01*
X85769235Y-80878840D01*
X85834178Y-80832355D01*
X85975962Y-80735333D01*
X86025236Y-80702139D01*
X86071910Y-80670028D01*
X86114910Y-80639785D01*
X86153167Y-80612195D01*
X86185606Y-80588043D01*
X86211157Y-80568116D01*
X86221014Y-80559981D01*
X86228747Y-80553197D01*
X86232172Y-80549859D01*
X89300106Y-80549859D01*
X89300369Y-80553527D01*
X89301302Y-80556496D01*
X89302932Y-80558724D01*
X89325096Y-80574421D01*
X89379087Y-80611248D01*
X89550119Y-80726304D01*
X89609943Y-80766919D01*
X89667530Y-80807239D01*
X89722999Y-80847370D01*
X89776468Y-80887417D01*
X89828055Y-80927487D01*
X89877880Y-80967685D01*
X89926061Y-81008117D01*
X89972716Y-81048890D01*
X90017965Y-81090107D01*
X90061925Y-81131877D01*
X90104715Y-81174303D01*
X90146455Y-81217493D01*
X90187262Y-81261552D01*
X90227255Y-81306585D01*
X90266552Y-81352699D01*
X90305273Y-81400000D01*
X90345367Y-81449776D01*
X90380959Y-81493387D01*
X90412484Y-81531078D01*
X90426857Y-81547779D01*
X90440377Y-81563091D01*
X90453098Y-81577045D01*
X90465074Y-81589671D01*
X90476359Y-81600999D01*
X90487009Y-81611061D01*
X90497078Y-81619886D01*
X90506620Y-81627504D01*
X90515689Y-81633947D01*
X90524339Y-81639245D01*
X90532626Y-81643428D01*
X90540604Y-81646527D01*
X90548327Y-81648572D01*
X90552110Y-81649209D01*
X90555850Y-81649593D01*
X90559553Y-81649730D01*
X90563226Y-81649622D01*
X90566876Y-81649273D01*
X90570511Y-81648688D01*
X90577758Y-81646822D01*
X90585023Y-81644055D01*
X90592359Y-81640416D01*
X90599821Y-81635937D01*
X90607464Y-81630647D01*
X90615342Y-81624578D01*
X90623509Y-81617759D01*
X90632019Y-81610222D01*
X90650289Y-81593112D01*
X90686641Y-81555614D01*
X90719760Y-81516004D01*
X90749682Y-81474455D01*
X90776438Y-81431140D01*
X90800063Y-81386229D01*
X90820592Y-81339896D01*
X90838056Y-81292313D01*
X90852491Y-81243652D01*
X90863929Y-81194086D01*
X90872405Y-81143785D01*
X90877953Y-81092924D01*
X90880605Y-81041674D01*
X90880397Y-80990206D01*
X90877360Y-80938695D01*
X90871530Y-80887311D01*
X90862940Y-80836227D01*
X90851623Y-80785615D01*
X90837614Y-80735647D01*
X90820946Y-80686496D01*
X90801652Y-80638334D01*
X90779767Y-80591333D01*
X90755324Y-80545665D01*
X90728358Y-80501503D01*
X90698900Y-80459019D01*
X90666987Y-80418385D01*
X90632650Y-80379773D01*
X90595924Y-80343355D01*
X90556842Y-80309305D01*
X90515439Y-80277793D01*
X90471748Y-80248992D01*
X90425803Y-80223075D01*
X90377636Y-80200214D01*
X90320640Y-80178067D01*
X90262099Y-80160068D01*
X90202338Y-80146173D01*
X90141684Y-80136340D01*
X90080464Y-80130525D01*
X90019004Y-80128688D01*
X89957630Y-80130784D01*
X89896669Y-80136772D01*
X89836447Y-80146608D01*
X89777291Y-80160250D01*
X89719526Y-80177655D01*
X89663480Y-80198781D01*
X89609478Y-80223585D01*
X89557847Y-80252025D01*
X89508914Y-80284057D01*
X89463005Y-80319640D01*
X89447970Y-80333075D01*
X89432601Y-80348211D01*
X89417113Y-80364727D01*
X89401721Y-80382302D01*
X89386641Y-80400614D01*
X89372089Y-80419341D01*
X89358279Y-80438163D01*
X89345426Y-80456756D01*
X89333747Y-80474801D01*
X89323457Y-80491974D01*
X89314770Y-80507955D01*
X89307903Y-80522423D01*
X89303070Y-80535055D01*
X89301484Y-80540582D01*
X89300487Y-80545530D01*
X89300106Y-80549859D01*
X86232172Y-80549859D01*
X86234222Y-80547862D01*
X86237304Y-80544073D01*
X86238958Y-80539587D01*
X86239080Y-80534078D01*
X86237735Y-80527607D01*
X86234992Y-80520237D01*
X86225580Y-80503045D01*
X86211382Y-80482997D01*
X86192935Y-80460589D01*
X86170777Y-80436316D01*
X86145448Y-80410674D01*
X86117485Y-80384157D01*
X86087427Y-80357261D01*
X86055811Y-80330481D01*
X86023175Y-80304313D01*
X85990059Y-80279252D01*
X85957000Y-80255793D01*
X85924536Y-80234431D01*
X85893206Y-80215663D01*
X85863547Y-80199982D01*
X85786449Y-80166900D01*
X85709677Y-80142672D01*
X85633505Y-80126904D01*
X85558204Y-80119201D01*
X85484049Y-80119170D01*
X85411311Y-80126416D01*
X85340263Y-80140543D01*
X85271178Y-80161159D01*
X85204330Y-80187868D01*
X85139990Y-80220277D01*
X85078431Y-80257990D01*
X85019927Y-80300613D01*
X84964749Y-80347751D01*
X84913172Y-80399012D01*
X84865467Y-80453999D01*
X84821907Y-80512319D01*
X84782766Y-80573576D01*
X84748316Y-80637378D01*
X84718829Y-80703329D01*
X84694579Y-80771034D01*
X84675838Y-80840100D01*
X84662879Y-80910132D01*
X84655974Y-80980735D01*
X84655398Y-81051516D01*
X84363901Y-81051516D01*
X84361342Y-81014597D01*
X84360867Y-80936300D01*
X84365279Y-80858478D01*
X84374504Y-80781404D01*
X84388462Y-80705351D01*
X84407078Y-80630591D01*
X84430274Y-80557398D01*
X84457974Y-80486044D01*
X84490099Y-80416801D01*
X84526573Y-80349942D01*
X84567320Y-80285741D01*
X84612261Y-80224469D01*
X84661321Y-80166399D01*
X84714421Y-80111805D01*
X84771485Y-80060958D01*
X84832435Y-80014131D01*
X84897196Y-79971598D01*
X84965689Y-79933631D01*
X85037837Y-79900502D01*
X85113564Y-79872484D01*
X85192792Y-79849850D01*
X85275444Y-79832873D01*
X85364089Y-79820020D01*
X85449161Y-79811694D01*
X85530907Y-79807978D01*
X85609573Y-79808955D01*
G37*
G36*
X89263711Y-82512602D02*
G01*
X89269663Y-82513090D01*
X89275733Y-82513888D01*
X89288384Y-82516423D01*
X89301980Y-82520224D01*
X89316835Y-82525308D01*
X89333264Y-82531695D01*
X89351581Y-82539400D01*
X89395139Y-82558841D01*
X89434049Y-82579148D01*
X89469784Y-82603097D01*
X89502384Y-82630406D01*
X89531885Y-82660794D01*
X89558324Y-82693981D01*
X89581741Y-82729685D01*
X89602172Y-82767626D01*
X89619655Y-82807522D01*
X89634227Y-82849092D01*
X89645927Y-82892056D01*
X89654792Y-82936132D01*
X89660860Y-82981040D01*
X89664168Y-83026498D01*
X89664754Y-83072226D01*
X89662656Y-83117942D01*
X89657912Y-83163365D01*
X89650558Y-83208215D01*
X89640633Y-83252210D01*
X89628175Y-83295069D01*
X89613220Y-83336512D01*
X89595807Y-83376257D01*
X89575974Y-83414024D01*
X89553758Y-83449531D01*
X89529196Y-83482497D01*
X89502327Y-83512642D01*
X89473188Y-83539684D01*
X89441816Y-83563342D01*
X89408250Y-83583336D01*
X89372527Y-83599384D01*
X89334685Y-83611206D01*
X89294761Y-83618520D01*
X89252793Y-83621045D01*
X89211585Y-83618540D01*
X89172565Y-83611142D01*
X89135759Y-83599140D01*
X89101195Y-83582824D01*
X89068898Y-83562480D01*
X89038895Y-83538397D01*
X89011215Y-83510865D01*
X88985883Y-83480171D01*
X88962927Y-83446604D01*
X88942373Y-83410453D01*
X88924249Y-83372005D01*
X88908580Y-83331550D01*
X88895395Y-83289376D01*
X88884720Y-83245771D01*
X88876582Y-83201024D01*
X88871008Y-83155423D01*
X88868024Y-83109257D01*
X88867658Y-83062815D01*
X88869937Y-83016384D01*
X88874887Y-82970254D01*
X88882535Y-82924712D01*
X88892909Y-82880048D01*
X88906034Y-82836549D01*
X88921939Y-82794504D01*
X88940650Y-82754202D01*
X88962193Y-82715931D01*
X88986596Y-82679980D01*
X89013886Y-82646637D01*
X89044090Y-82616191D01*
X89077233Y-82588930D01*
X89113345Y-82565142D01*
X89152450Y-82545116D01*
X89187185Y-82530102D01*
X89202036Y-82524272D01*
X89215629Y-82519584D01*
X89228278Y-82516055D01*
X89240299Y-82513703D01*
X89246171Y-82512974D01*
X89252005Y-82512546D01*
X89257838Y-82512421D01*
X89263711Y-82512602D01*
G37*
G36*
X86315758Y-82526032D02*
G01*
X86353316Y-82531466D01*
X86389387Y-82541713D01*
X86423875Y-82556486D01*
X86456681Y-82575495D01*
X86487710Y-82598451D01*
X86516863Y-82625067D01*
X86544043Y-82655052D01*
X86569154Y-82688118D01*
X86592097Y-82723977D01*
X86612776Y-82762339D01*
X86631094Y-82802916D01*
X86646954Y-82845418D01*
X86660257Y-82889558D01*
X86670907Y-82935046D01*
X86678807Y-82981594D01*
X86683860Y-83028912D01*
X86685968Y-83076713D01*
X86685034Y-83124706D01*
X86680961Y-83172604D01*
X86673652Y-83220117D01*
X86663009Y-83266957D01*
X86648935Y-83312835D01*
X86631334Y-83357461D01*
X86610107Y-83400548D01*
X86585158Y-83441807D01*
X86556389Y-83480948D01*
X86523704Y-83517683D01*
X86487005Y-83551724D01*
X86477522Y-83559316D01*
X86467645Y-83566483D01*
X86457400Y-83573223D01*
X86446812Y-83579535D01*
X86424711Y-83590867D01*
X86401551Y-83600465D01*
X86377537Y-83608317D01*
X86352876Y-83614407D01*
X86327775Y-83618725D01*
X86302441Y-83621255D01*
X86277081Y-83621985D01*
X86251902Y-83620902D01*
X86227109Y-83617991D01*
X86202911Y-83613241D01*
X86179513Y-83606637D01*
X86157122Y-83598165D01*
X86146370Y-83593226D01*
X86135946Y-83587814D01*
X86125878Y-83581929D01*
X86116191Y-83575569D01*
X86086379Y-83552974D01*
X86058620Y-83528181D01*
X86032911Y-83501353D01*
X86009243Y-83472647D01*
X85987613Y-83442227D01*
X85968014Y-83410250D01*
X85950441Y-83376879D01*
X85934887Y-83342273D01*
X85921348Y-83306592D01*
X85909817Y-83269997D01*
X85900288Y-83232649D01*
X85892756Y-83194707D01*
X85887215Y-83156332D01*
X85883659Y-83117685D01*
X85882083Y-83078926D01*
X85882481Y-83040214D01*
X85884847Y-83001711D01*
X85889176Y-82963576D01*
X85895460Y-82925971D01*
X85903696Y-82889055D01*
X85913877Y-82852989D01*
X85925998Y-82817934D01*
X85940052Y-82784048D01*
X85956033Y-82751494D01*
X85973937Y-82720431D01*
X85993758Y-82691019D01*
X86015489Y-82663420D01*
X86039125Y-82637793D01*
X86064661Y-82614298D01*
X86092089Y-82593096D01*
X86121406Y-82574348D01*
X86152605Y-82558213D01*
X86195137Y-82541503D01*
X86236571Y-82530762D01*
X86276810Y-82525701D01*
X86315758Y-82526032D01*
G37*
G36*
X87841717Y-83075241D02*
G01*
X87912202Y-83083945D01*
X87983116Y-83097753D01*
X88054095Y-83116559D01*
X88124775Y-83140251D01*
X88194795Y-83168722D01*
X88263790Y-83201862D01*
X88331397Y-83239562D01*
X88397253Y-83281713D01*
X88460996Y-83328207D01*
X88522261Y-83378934D01*
X88580686Y-83433786D01*
X88629367Y-83485899D01*
X88672837Y-83539462D01*
X88711188Y-83594261D01*
X88744510Y-83650084D01*
X88772895Y-83706717D01*
X88796436Y-83763949D01*
X88815223Y-83821566D01*
X88829348Y-83879356D01*
X88838903Y-83937105D01*
X88843979Y-83994601D01*
X88844668Y-84051631D01*
X88841061Y-84107982D01*
X88833250Y-84163442D01*
X88821327Y-84217797D01*
X88805383Y-84270835D01*
X88785510Y-84322343D01*
X88761800Y-84372108D01*
X88734343Y-84419918D01*
X88703231Y-84465559D01*
X88668557Y-84508819D01*
X88630412Y-84549485D01*
X88588886Y-84587344D01*
X88544073Y-84622183D01*
X88496063Y-84653790D01*
X88444948Y-84681952D01*
X88390819Y-84706455D01*
X88333769Y-84727088D01*
X88273889Y-84743637D01*
X88211270Y-84755889D01*
X88146003Y-84763632D01*
X88078182Y-84766653D01*
X88007896Y-84764739D01*
X88001595Y-84764012D01*
X87994633Y-84762600D01*
X87987081Y-84760540D01*
X87979012Y-84757870D01*
X87970498Y-84754626D01*
X87961609Y-84750847D01*
X87952417Y-84746570D01*
X87942994Y-84741832D01*
X87933413Y-84736670D01*
X87923743Y-84731122D01*
X87914058Y-84725225D01*
X87904428Y-84719016D01*
X87894925Y-84712533D01*
X87885622Y-84705814D01*
X87876589Y-84698895D01*
X87867898Y-84691813D01*
X87785514Y-84622493D01*
X87680011Y-84695616D01*
X87655054Y-84711464D01*
X87629002Y-84725239D01*
X87601944Y-84736977D01*
X87573968Y-84746711D01*
X87545165Y-84754477D01*
X87515621Y-84760309D01*
X87485428Y-84764241D01*
X87454672Y-84766308D01*
X87423444Y-84766544D01*
X87391831Y-84764984D01*
X87359924Y-84761662D01*
X87327810Y-84756613D01*
X87295578Y-84749871D01*
X87263319Y-84741471D01*
X87231119Y-84731447D01*
X87199069Y-84719834D01*
X87167256Y-84706666D01*
X87135771Y-84691978D01*
X87104702Y-84675804D01*
X87074137Y-84658179D01*
X87044165Y-84639138D01*
X87014877Y-84618713D01*
X86986359Y-84596942D01*
X86958701Y-84573856D01*
X86931993Y-84549492D01*
X86906323Y-84523884D01*
X86881779Y-84497066D01*
X86858451Y-84469073D01*
X86836427Y-84439938D01*
X86815797Y-84409698D01*
X86796649Y-84378385D01*
X86779072Y-84346036D01*
X86759547Y-84304123D01*
X86743296Y-84261507D01*
X86730266Y-84218277D01*
X86720400Y-84174528D01*
X86713646Y-84130350D01*
X86709948Y-84085836D01*
X86709532Y-84059037D01*
X86846061Y-84059037D01*
X86848435Y-84095817D01*
X86853299Y-84132201D01*
X86860634Y-84168112D01*
X86870422Y-84203477D01*
X86882646Y-84238221D01*
X86897287Y-84272271D01*
X86914329Y-84305551D01*
X86933752Y-84337987D01*
X86955540Y-84369505D01*
X86979673Y-84400030D01*
X87006135Y-84429489D01*
X87034908Y-84457807D01*
X87065973Y-84484909D01*
X87099313Y-84510721D01*
X87134909Y-84535168D01*
X87172745Y-84558178D01*
X87212802Y-84579674D01*
X87255062Y-84599582D01*
X87299507Y-84617829D01*
X87324895Y-84626382D01*
X87350258Y-84632728D01*
X87375499Y-84636967D01*
X87400521Y-84639196D01*
X87425228Y-84639516D01*
X87449524Y-84638025D01*
X87473312Y-84634822D01*
X87496496Y-84630006D01*
X87518980Y-84623676D01*
X87540666Y-84615931D01*
X87561460Y-84606869D01*
X87581264Y-84596591D01*
X87599981Y-84585194D01*
X87617516Y-84572778D01*
X87633773Y-84559441D01*
X87648654Y-84545284D01*
X87662063Y-84530403D01*
X87673904Y-84514899D01*
X87684081Y-84498871D01*
X87692496Y-84482417D01*
X87699055Y-84465637D01*
X87703659Y-84448629D01*
X87706214Y-84431492D01*
X87706622Y-84414325D01*
X87704787Y-84397228D01*
X87700612Y-84380298D01*
X87694002Y-84363636D01*
X87684860Y-84347340D01*
X87673089Y-84331509D01*
X87658594Y-84316241D01*
X87641277Y-84301637D01*
X87621042Y-84287794D01*
X87600100Y-84274057D01*
X87579628Y-84259063D01*
X87559658Y-84242894D01*
X87540225Y-84225630D01*
X87521361Y-84207354D01*
X87503100Y-84188147D01*
X87468521Y-84147265D01*
X87436758Y-84103638D01*
X87408079Y-84057915D01*
X87382751Y-84010751D01*
X87361043Y-83962795D01*
X87343224Y-83914701D01*
X87329562Y-83867120D01*
X87324374Y-83843725D01*
X87320325Y-83820704D01*
X87317450Y-83798136D01*
X87315782Y-83776105D01*
X87315354Y-83754690D01*
X87316200Y-83733974D01*
X87318354Y-83714039D01*
X87321849Y-83694965D01*
X87326718Y-83676834D01*
X87332996Y-83659728D01*
X87340715Y-83643728D01*
X87349910Y-83628916D01*
X87359198Y-83617917D01*
X87371201Y-83607420D01*
X87385752Y-83597435D01*
X87402686Y-83587972D01*
X87443035Y-83570656D01*
X87490919Y-83555554D01*
X87545008Y-83542750D01*
X87603973Y-83532329D01*
X87666484Y-83524372D01*
X87731212Y-83518965D01*
X87796827Y-83516190D01*
X87861999Y-83516131D01*
X87925400Y-83518871D01*
X87985699Y-83524494D01*
X88041567Y-83533084D01*
X88091675Y-83544724D01*
X88134693Y-83559497D01*
X88153128Y-83568085D01*
X88169291Y-83577488D01*
X88182310Y-83587172D01*
X88193912Y-83598196D01*
X88204115Y-83610503D01*
X88212936Y-83624033D01*
X88220391Y-83638730D01*
X88226497Y-83654535D01*
X88231273Y-83671390D01*
X88234734Y-83689237D01*
X88236898Y-83708019D01*
X88237782Y-83727676D01*
X88237402Y-83748151D01*
X88235776Y-83769387D01*
X88228855Y-83813906D01*
X88217152Y-83860769D01*
X88200806Y-83909513D01*
X88179951Y-83959673D01*
X88154724Y-84010784D01*
X88125262Y-84062383D01*
X88091700Y-84114007D01*
X88054175Y-84165190D01*
X88012822Y-84215468D01*
X87967779Y-84264379D01*
X87944551Y-84289809D01*
X87924682Y-84314858D01*
X87908070Y-84339457D01*
X87894615Y-84363538D01*
X87884216Y-84387032D01*
X87876770Y-84409870D01*
X87872178Y-84431984D01*
X87870337Y-84453306D01*
X87871147Y-84473767D01*
X87874506Y-84493299D01*
X87880313Y-84511832D01*
X87888468Y-84529299D01*
X87898868Y-84545631D01*
X87911413Y-84560760D01*
X87926001Y-84574617D01*
X87942531Y-84587133D01*
X87960903Y-84598241D01*
X87981014Y-84607871D01*
X88002765Y-84615955D01*
X88026052Y-84622424D01*
X88050776Y-84627211D01*
X88076836Y-84630246D01*
X88104129Y-84631462D01*
X88132554Y-84630789D01*
X88162012Y-84628159D01*
X88192400Y-84623504D01*
X88223617Y-84616755D01*
X88255562Y-84607843D01*
X88288134Y-84596700D01*
X88321231Y-84583259D01*
X88354753Y-84567449D01*
X88388598Y-84549203D01*
X88440878Y-84516837D01*
X88488595Y-84482442D01*
X88531790Y-84446167D01*
X88570508Y-84408162D01*
X88604793Y-84368577D01*
X88634687Y-84327561D01*
X88660233Y-84285265D01*
X88681476Y-84241839D01*
X88698458Y-84197431D01*
X88711223Y-84152193D01*
X88719814Y-84106274D01*
X88724275Y-84059824D01*
X88724648Y-84012993D01*
X88720978Y-83965931D01*
X88713307Y-83918787D01*
X88701679Y-83871712D01*
X88686137Y-83824856D01*
X88666725Y-83778367D01*
X88643485Y-83732397D01*
X88616462Y-83687094D01*
X88585698Y-83642610D01*
X88551237Y-83599094D01*
X88513123Y-83556695D01*
X88471398Y-83515563D01*
X88426106Y-83475850D01*
X88377290Y-83437703D01*
X88324994Y-83401274D01*
X88269261Y-83366712D01*
X88210134Y-83334166D01*
X88147656Y-83303788D01*
X88081872Y-83275726D01*
X88012824Y-83250131D01*
X87951247Y-83231508D01*
X87889890Y-83218093D01*
X87859291Y-83213340D01*
X87828745Y-83209889D01*
X87798250Y-83207742D01*
X87767805Y-83206898D01*
X87737410Y-83207359D01*
X87707063Y-83209123D01*
X87676764Y-83212193D01*
X87646511Y-83216567D01*
X87616304Y-83222246D01*
X87586142Y-83229231D01*
X87525949Y-83247118D01*
X87465924Y-83270231D01*
X87406060Y-83298572D01*
X87346349Y-83332143D01*
X87286784Y-83370948D01*
X87227358Y-83414988D01*
X87168064Y-83464266D01*
X87108893Y-83518784D01*
X87049839Y-83578546D01*
X87018228Y-83613727D01*
X86989339Y-83649478D01*
X86963153Y-83685724D01*
X86939653Y-83722390D01*
X86918820Y-83759403D01*
X86900638Y-83796687D01*
X86885088Y-83834168D01*
X86872152Y-83871772D01*
X86861812Y-83909425D01*
X86854051Y-83947053D01*
X86848851Y-83984580D01*
X86846193Y-84021933D01*
X86846061Y-84059037D01*
X86709532Y-84059037D01*
X86709253Y-84041077D01*
X86711505Y-83996167D01*
X86716651Y-83951196D01*
X86724636Y-83906258D01*
X86735405Y-83861444D01*
X86748904Y-83816846D01*
X86765080Y-83772556D01*
X86783876Y-83728667D01*
X86805239Y-83685271D01*
X86829115Y-83642459D01*
X86855449Y-83600324D01*
X86884187Y-83558957D01*
X86915274Y-83518452D01*
X86948655Y-83478899D01*
X86984278Y-83440392D01*
X87022086Y-83403021D01*
X87062026Y-83366880D01*
X87104043Y-83332060D01*
X87148082Y-83298654D01*
X87194091Y-83266753D01*
X87242013Y-83236449D01*
X87291794Y-83207836D01*
X87343381Y-83181004D01*
X87396719Y-83156045D01*
X87451753Y-83133053D01*
X87508429Y-83112118D01*
X87539573Y-83102176D01*
X87571324Y-83093660D01*
X87636464Y-83080853D01*
X87703485Y-83073586D01*
X87772023Y-83071752D01*
X87841717Y-83075241D01*
G37*
D11*
G36*
X95019321Y-46112500D02*
G01*
X94981068Y-46112500D01*
X94979387Y-46112500D01*
X94942100Y-46112500D01*
X94940553Y-46112500D01*
X94789061Y-46112500D01*
X94750476Y-46112500D01*
X94729710Y-46112500D01*
X94691340Y-46112500D01*
X94669993Y-46112500D01*
X94653506Y-46110484D01*
X94637020Y-46108469D01*
X94600132Y-46100178D01*
X94575248Y-46073056D01*
X94574188Y-46070734D01*
X94565623Y-46033567D01*
X94563930Y-45997644D01*
X94565972Y-45956997D01*
X94572100Y-45919365D01*
X94584104Y-45880050D01*
X94601443Y-45844673D01*
X94606612Y-45836444D01*
X94631191Y-45805206D01*
X94660103Y-45777123D01*
X94691204Y-45752185D01*
X94713224Y-45736610D01*
X94747994Y-45713666D01*
X94782695Y-45690814D01*
X94817328Y-45668054D01*
X94851892Y-45645385D01*
X94883584Y-45619146D01*
X94910271Y-45587312D01*
X94926792Y-45553510D01*
X94933225Y-45513128D01*
X94911821Y-45482114D01*
X94900802Y-45475026D01*
X94866766Y-45460161D01*
X94837421Y-45455975D01*
X94799134Y-45461516D01*
X94763013Y-45476171D01*
X94729433Y-45497191D01*
X94721833Y-45502869D01*
X94690549Y-45525538D01*
X94658259Y-45544223D01*
X94638119Y-45549764D01*
X94600990Y-45542139D01*
X94590308Y-45536209D01*
X94567002Y-45506889D01*
X94564480Y-45489497D01*
X94574569Y-45452932D01*
X94590308Y-45434359D01*
X94620453Y-45408221D01*
X94651985Y-45383332D01*
X94684063Y-45361286D01*
X94698935Y-45352477D01*
X94732732Y-45336208D01*
X94771411Y-45323462D01*
X94810785Y-45316598D01*
X94837421Y-45315291D01*
X94875609Y-45317544D01*
X94912114Y-45324302D01*
X94951772Y-45337542D01*
X94984671Y-45353955D01*
X94998255Y-45362369D01*
X95030160Y-45387428D01*
X95054229Y-45415643D01*
X95072141Y-45451753D01*
X95079817Y-45491984D01*
X95080137Y-45502686D01*
X95078218Y-45539821D01*
X95071323Y-45579191D01*
X95059413Y-45615286D01*
X95042489Y-45648107D01*
X95040020Y-45651980D01*
X95016768Y-45682394D01*
X94989754Y-45709309D01*
X94960900Y-45732868D01*
X94940553Y-45747418D01*
X94908324Y-45767808D01*
X94876118Y-45788130D01*
X94843935Y-45808383D01*
X94811775Y-45828567D01*
X94778219Y-45852747D01*
X94751051Y-45878164D01*
X94727429Y-45909379D01*
X94711080Y-45947115D01*
X94706629Y-45971816D01*
X94744345Y-45968300D01*
X94783372Y-45965333D01*
X94790160Y-45964855D01*
X94829111Y-45963236D01*
X94869003Y-45961771D01*
X94907274Y-45960655D01*
X94944132Y-45960097D01*
X94947147Y-45960092D01*
X94985761Y-45963844D01*
X95021302Y-45974046D01*
X95034891Y-45979692D01*
X95067486Y-45999897D01*
X95087545Y-46032847D01*
X95088381Y-46042158D01*
X95078539Y-46078155D01*
X95069330Y-46090334D01*
X95037034Y-46110335D01*
X95019321Y-46112500D01*
G37*
G36*
X95654413Y-45376474D02*
G01*
X95638543Y-45411632D01*
X95622371Y-45448673D01*
X95607809Y-45482632D01*
X95596345Y-45509647D01*
X95582207Y-45544661D01*
X95566034Y-45581698D01*
X95547826Y-45620756D01*
X95531098Y-45654850D01*
X95512957Y-45690348D01*
X95497426Y-45719757D01*
X95476344Y-45757826D01*
X95455274Y-45795921D01*
X95434218Y-45834041D01*
X95413174Y-45872187D01*
X95392143Y-45910359D01*
X95385136Y-45923089D01*
X95366958Y-45960244D01*
X95350315Y-45995146D01*
X95332598Y-46032546D01*
X95315907Y-46067907D01*
X95296978Y-46108105D01*
X95291896Y-46118911D01*
X95269165Y-46147969D01*
X95234183Y-46159355D01*
X95231629Y-46159394D01*
X95195221Y-46149914D01*
X95184734Y-46142541D01*
X95164829Y-46111782D01*
X95163119Y-46097479D01*
X95167698Y-46073848D01*
X95182128Y-46038722D01*
X95200002Y-45999062D01*
X95216780Y-45964068D01*
X95235763Y-45926172D01*
X95256949Y-45885374D01*
X95274285Y-45852871D01*
X95292860Y-45818735D01*
X95312676Y-45782967D01*
X95319556Y-45770682D01*
X95339818Y-45734361D01*
X95358836Y-45699657D01*
X95376612Y-45666569D01*
X95398379Y-45624967D01*
X95417936Y-45586238D01*
X95435284Y-45550383D01*
X95453862Y-45509606D01*
X95468987Y-45473318D01*
X95471598Y-45466599D01*
X95486080Y-45429619D01*
X95501383Y-45392475D01*
X95517576Y-45357423D01*
X95537348Y-45323191D01*
X95561259Y-45294375D01*
X95593230Y-45280120D01*
X95629123Y-45290630D01*
X95639576Y-45298072D01*
X95659840Y-45330048D01*
X95661191Y-45342585D01*
X95654413Y-45376474D01*
G37*
G36*
X96152393Y-45321839D02*
G01*
X96168606Y-45330495D01*
X96191705Y-45360608D01*
X96194801Y-45381420D01*
X96195350Y-45760790D01*
X96233117Y-45763148D01*
X96271325Y-45769754D01*
X96285476Y-45775261D01*
X96307768Y-45806006D01*
X96310755Y-45831681D01*
X96301138Y-45868959D01*
X96271554Y-45892498D01*
X96233738Y-45900838D01*
X96195350Y-45901474D01*
X96195865Y-45938774D01*
X96195946Y-45977586D01*
X96195591Y-46017909D01*
X96194801Y-46059743D01*
X96184188Y-46096322D01*
X96176299Y-46106088D01*
X96142056Y-46123090D01*
X96127390Y-46124223D01*
X96089780Y-46116196D01*
X96063219Y-46088446D01*
X96053510Y-46051976D01*
X96052651Y-46022740D01*
X96052651Y-45901474D01*
X95847121Y-45901474D01*
X95808352Y-45900429D01*
X95767160Y-45896185D01*
X95728392Y-45886782D01*
X95694792Y-45866933D01*
X95681707Y-45834612D01*
X95691911Y-45798788D01*
X95710650Y-45771598D01*
X95720272Y-45760790D01*
X95898595Y-45760790D01*
X96052651Y-45760790D01*
X96052651Y-45538040D01*
X96031998Y-45568978D01*
X96007546Y-45604913D01*
X95984266Y-45638677D01*
X95958348Y-45675911D01*
X95935713Y-45708196D01*
X95911390Y-45742703D01*
X95898595Y-45760790D01*
X95720272Y-45760790D01*
X95735913Y-45743221D01*
X95758461Y-45717925D01*
X95780566Y-45686778D01*
X95805390Y-45652048D01*
X95832933Y-45613735D01*
X95855375Y-45582648D01*
X95879346Y-45549545D01*
X95904847Y-45514427D01*
X95931877Y-45477293D01*
X95960437Y-45438143D01*
X95990526Y-45396977D01*
X96011435Y-45368414D01*
X96038888Y-45340400D01*
X96071098Y-45322761D01*
X96108067Y-45315498D01*
X96116032Y-45315291D01*
X96152393Y-45321839D01*
G37*
G36*
X96831908Y-45376474D02*
G01*
X96816038Y-45411632D01*
X96799866Y-45448673D01*
X96785303Y-45482632D01*
X96773839Y-45509647D01*
X96759701Y-45544661D01*
X96743528Y-45581698D01*
X96725320Y-45620756D01*
X96708593Y-45654850D01*
X96690451Y-45690348D01*
X96674921Y-45719757D01*
X96653839Y-45757826D01*
X96632769Y-45795921D01*
X96611712Y-45834041D01*
X96590669Y-45872187D01*
X96569638Y-45910359D01*
X96562630Y-45923089D01*
X96544452Y-45960244D01*
X96527809Y-45995146D01*
X96510093Y-46032546D01*
X96493402Y-46067907D01*
X96474473Y-46108105D01*
X96469391Y-46118911D01*
X96446660Y-46147969D01*
X96411678Y-46159355D01*
X96409124Y-46159394D01*
X96372716Y-46149914D01*
X96362229Y-46142541D01*
X96342323Y-46111782D01*
X96340614Y-46097479D01*
X96345193Y-46073848D01*
X96359623Y-46038722D01*
X96377497Y-45999062D01*
X96394275Y-45964068D01*
X96413257Y-45926172D01*
X96434444Y-45885374D01*
X96451780Y-45852871D01*
X96470355Y-45818735D01*
X96490171Y-45782967D01*
X96497051Y-45770682D01*
X96517312Y-45734361D01*
X96536331Y-45699657D01*
X96554106Y-45666569D01*
X96575873Y-45624967D01*
X96595431Y-45586238D01*
X96612779Y-45550383D01*
X96631357Y-45509606D01*
X96646482Y-45473318D01*
X96649092Y-45466599D01*
X96663575Y-45429619D01*
X96678877Y-45392475D01*
X96695071Y-45357423D01*
X96714843Y-45323191D01*
X96738754Y-45294375D01*
X96770725Y-45280120D01*
X96806617Y-45290630D01*
X96817070Y-45298072D01*
X96837335Y-45330048D01*
X96838686Y-45342585D01*
X96831908Y-45376474D01*
G37*
G36*
X97214351Y-45316598D02*
G01*
X97254725Y-45322522D01*
X97290759Y-45333200D01*
X97327313Y-45351664D01*
X97357958Y-45376597D01*
X97361854Y-45380687D01*
X97384855Y-45412171D01*
X97401284Y-45448922D01*
X97410269Y-45485399D01*
X97414222Y-45525909D01*
X97414427Y-45538224D01*
X97411619Y-45577147D01*
X97401246Y-45614678D01*
X97394460Y-45628166D01*
X97370326Y-45657155D01*
X97339366Y-45680190D01*
X97334193Y-45683304D01*
X97366725Y-45704751D01*
X97396278Y-45730790D01*
X97420769Y-45762119D01*
X97424319Y-45768117D01*
X97440838Y-45804972D01*
X97450474Y-45843800D01*
X97454879Y-45882815D01*
X97455643Y-45909351D01*
X97452616Y-45950670D01*
X97443536Y-45988485D01*
X97428402Y-46022797D01*
X97407214Y-46053606D01*
X97379973Y-46080912D01*
X97369548Y-46089235D01*
X97333516Y-46112005D01*
X97299367Y-46127070D01*
X97262204Y-46138026D01*
X97222027Y-46144874D01*
X97178836Y-46147613D01*
X97171345Y-46147670D01*
X97129923Y-46145899D01*
X97091386Y-46140586D01*
X97055734Y-46131731D01*
X97017786Y-46116924D01*
X96983766Y-46097295D01*
X96954829Y-46073276D01*
X96928492Y-46040452D01*
X96910150Y-46002456D01*
X96900790Y-45965771D01*
X96897304Y-45925287D01*
X96897606Y-45913747D01*
X97037805Y-45913747D01*
X97046493Y-45949644D01*
X97072619Y-45979377D01*
X97086165Y-45987752D01*
X97120501Y-46000901D01*
X97159395Y-46006686D01*
X97171345Y-46006987D01*
X97208668Y-46004891D01*
X97246435Y-45996380D01*
X97278721Y-45977524D01*
X97282719Y-45973464D01*
X97300442Y-45939347D01*
X97306142Y-45899959D01*
X97306350Y-45889384D01*
X97300477Y-45853122D01*
X97280858Y-45820060D01*
X97264584Y-45804937D01*
X97230634Y-45784495D01*
X97195005Y-45769664D01*
X97168230Y-45760790D01*
X97134285Y-45776257D01*
X97100707Y-45794271D01*
X97070228Y-45817027D01*
X97048263Y-45849338D01*
X97038668Y-45887643D01*
X97037805Y-45913747D01*
X96897606Y-45913747D01*
X96898303Y-45887165D01*
X96904164Y-45843449D01*
X96915151Y-45804107D01*
X96931262Y-45769139D01*
X96952499Y-45738545D01*
X96978861Y-45712324D01*
X96997138Y-45698691D01*
X96968017Y-45671261D01*
X96946048Y-45640904D01*
X96929699Y-45602624D01*
X96923057Y-45565993D01*
X96922451Y-45550680D01*
X97064183Y-45550680D01*
X97080532Y-45585026D01*
X97114750Y-45605727D01*
X97149899Y-45617259D01*
X97161636Y-45620106D01*
X97197451Y-45610412D01*
X97232050Y-45597824D01*
X97236191Y-45595743D01*
X97264777Y-45570690D01*
X97272827Y-45541887D01*
X97268746Y-45505446D01*
X97249619Y-45472756D01*
X97248098Y-45471545D01*
X97212756Y-45458544D01*
X97175924Y-45455975D01*
X97137615Y-45459304D01*
X97103046Y-45471605D01*
X97074623Y-45500738D01*
X97064491Y-45539212D01*
X97064183Y-45550680D01*
X96922451Y-45550680D01*
X96922400Y-45549398D01*
X96925118Y-45512421D01*
X96935158Y-45472359D01*
X96952596Y-45435610D01*
X96977433Y-45402174D01*
X96999703Y-45380321D01*
X97033375Y-45355357D01*
X97069958Y-45336408D01*
X97109450Y-45323471D01*
X97145617Y-45317168D01*
X97177390Y-45315291D01*
X97214351Y-45316598D01*
G37*
G36*
X97785005Y-46147670D02*
G01*
X97746871Y-46145867D01*
X97702851Y-46138542D01*
X97662883Y-46125581D01*
X97626967Y-46106986D01*
X97595102Y-46082755D01*
X97567289Y-46052890D01*
X97552547Y-46032266D01*
X97539837Y-45997129D01*
X97539724Y-45993614D01*
X97550200Y-45958470D01*
X97561889Y-45945071D01*
X97595310Y-45926889D01*
X97612447Y-45924921D01*
X97648182Y-45934965D01*
X97661906Y-45946170D01*
X97688361Y-45973293D01*
X97700924Y-45985737D01*
X97734544Y-46000990D01*
X97771950Y-46006655D01*
X97785005Y-46006987D01*
X97823026Y-46003426D01*
X97861887Y-45990908D01*
X97896603Y-45969378D01*
X97917445Y-45950017D01*
X97942062Y-45917265D01*
X97958623Y-45880832D01*
X97967127Y-45840719D01*
X97968370Y-45816844D01*
X97966356Y-45777582D01*
X97959394Y-45740960D01*
X97944474Y-45706742D01*
X97942908Y-45704370D01*
X97915614Y-45678824D01*
X97878293Y-45667584D01*
X97865788Y-45667001D01*
X97827818Y-45669709D01*
X97788589Y-45679438D01*
X97753801Y-45696242D01*
X97723456Y-45720121D01*
X97719975Y-45723604D01*
X97694113Y-45751689D01*
X97676195Y-45770682D01*
X97643769Y-45791122D01*
X97617027Y-45795961D01*
X97580804Y-45786350D01*
X97567201Y-45775628D01*
X97548476Y-45742708D01*
X97546868Y-45727817D01*
X97549968Y-45690018D01*
X97554089Y-45651292D01*
X97555661Y-45637142D01*
X97559653Y-45600588D01*
X97563896Y-45559381D01*
X97567889Y-45516507D01*
X97571033Y-45475556D01*
X97572680Y-45437252D01*
X97572697Y-45433993D01*
X97563538Y-45399738D01*
X97554562Y-45365300D01*
X97570550Y-45332259D01*
X97580757Y-45325732D01*
X97617460Y-45315790D01*
X97629300Y-45315291D01*
X97660441Y-45315291D01*
X97691582Y-45315291D01*
X97939427Y-45315291D01*
X97977298Y-45309790D01*
X97979178Y-45309429D01*
X98015755Y-45303710D01*
X98019295Y-45303567D01*
X98055496Y-45314592D01*
X98065090Y-45323168D01*
X98081791Y-45356758D01*
X98083225Y-45372993D01*
X98073471Y-45409698D01*
X98044207Y-45435916D01*
X98009457Y-45448698D01*
X97972116Y-45454842D01*
X97927154Y-45456891D01*
X97895830Y-45456524D01*
X97870917Y-45455975D01*
X97717411Y-45455975D01*
X97713863Y-45494185D01*
X97708499Y-45533667D01*
X97704588Y-45559289D01*
X97739942Y-45544864D01*
X97778593Y-45534560D01*
X97815118Y-45528925D01*
X97854167Y-45526445D01*
X97865788Y-45526317D01*
X97903419Y-45528620D01*
X97944704Y-45537464D01*
X97981764Y-45552942D01*
X98014599Y-45575052D01*
X98043210Y-45603796D01*
X98055931Y-45620655D01*
X98076987Y-45656555D01*
X98092872Y-45696295D01*
X98102371Y-45733413D01*
X98108070Y-45773351D01*
X98109970Y-45816111D01*
X98107859Y-45859224D01*
X98101526Y-45899949D01*
X98090972Y-45938286D01*
X98076196Y-45974234D01*
X98057198Y-46007795D01*
X98033978Y-46038967D01*
X98023508Y-46050767D01*
X97993873Y-46078684D01*
X97961412Y-46101868D01*
X97926124Y-46120322D01*
X97888010Y-46134043D01*
X97847070Y-46143033D01*
X97803303Y-46147292D01*
X97785005Y-46147670D01*
G37*
G36*
X98369722Y-45690448D02*
G01*
X98332460Y-45682480D01*
X98316782Y-45671946D01*
X98297552Y-45640241D01*
X98295900Y-45625052D01*
X98293518Y-45608199D01*
X98291320Y-45590614D01*
X98302581Y-45555604D01*
X98313119Y-45544635D01*
X98347327Y-45528106D01*
X98365509Y-45526317D01*
X98402877Y-45534127D01*
X98430054Y-45561125D01*
X98440925Y-45596608D01*
X98442812Y-45625052D01*
X98432024Y-45660757D01*
X98421929Y-45671946D01*
X98388280Y-45688641D01*
X98369722Y-45690448D01*
G37*
G36*
X98377965Y-46042158D02*
G01*
X98339358Y-46032594D01*
X98313385Y-46003904D01*
X98301920Y-45968366D01*
X98298176Y-45928696D01*
X98298098Y-45921257D01*
X98309094Y-45885877D01*
X98321362Y-45872714D01*
X98355397Y-45856350D01*
X98373386Y-45854579D01*
X98411197Y-45864027D01*
X98436633Y-45892369D01*
X98447862Y-45927476D01*
X98451528Y-45966666D01*
X98451605Y-45974014D01*
X98441561Y-46009638D01*
X98430355Y-46022740D01*
X98396541Y-46040261D01*
X98377965Y-46042158D01*
G37*
G36*
X98878651Y-45317513D02*
G01*
X98915207Y-45324178D01*
X98950900Y-45335287D01*
X98985729Y-45350840D01*
X99019696Y-45370836D01*
X99030826Y-45378489D01*
X99064256Y-45406086D01*
X99090770Y-45435848D01*
X99110367Y-45467773D01*
X99124488Y-45507754D01*
X99129099Y-45544367D01*
X99129195Y-45550680D01*
X99126642Y-45589195D01*
X99118981Y-45625169D01*
X99103046Y-45664986D01*
X99079757Y-45701144D01*
X99054731Y-45728482D01*
X99024598Y-45753279D01*
X98988584Y-45775753D01*
X98950057Y-45793577D01*
X98909020Y-45806751D01*
X98872903Y-45814177D01*
X98835042Y-45818375D01*
X98803497Y-45819408D01*
X98766498Y-45816399D01*
X98760266Y-45815744D01*
X98759053Y-45853693D01*
X98758250Y-45893685D01*
X98757748Y-45932276D01*
X98757399Y-45975652D01*
X98757228Y-46013798D01*
X98757155Y-46055007D01*
X98757152Y-46065788D01*
X98748148Y-46101523D01*
X98738101Y-46115247D01*
X98705416Y-46134309D01*
X98689741Y-46135947D01*
X98654117Y-46126683D01*
X98641015Y-46116346D01*
X98622983Y-46082790D01*
X98621781Y-46069635D01*
X98621781Y-45926020D01*
X98622272Y-45887485D01*
X98623474Y-45848609D01*
X98625397Y-45804337D01*
X98627551Y-45763320D01*
X98630206Y-45718556D01*
X98632039Y-45689898D01*
X98632919Y-45675061D01*
X98768510Y-45675061D01*
X98803497Y-45678724D01*
X98842000Y-45676652D01*
X98881237Y-45669367D01*
X98916157Y-45656836D01*
X98937037Y-45645568D01*
X98966887Y-45621254D01*
X98986952Y-45589384D01*
X98993640Y-45552145D01*
X98980406Y-45516196D01*
X98950162Y-45490157D01*
X98940701Y-45484551D01*
X98904482Y-45468282D01*
X98866098Y-45458765D01*
X98829326Y-45455975D01*
X98800200Y-45456158D01*
X98778951Y-45457257D01*
X98778714Y-45493978D01*
X98778401Y-45520455D01*
X98776737Y-45561121D01*
X98774384Y-45598908D01*
X98771536Y-45637644D01*
X98768510Y-45675061D01*
X98632919Y-45675061D01*
X98634323Y-45651410D01*
X98636776Y-45606850D01*
X98638781Y-45566234D01*
X98640339Y-45529563D01*
X98641618Y-45490764D01*
X98642297Y-45452677D01*
X98644280Y-45414292D01*
X98651441Y-45377215D01*
X98669104Y-45343026D01*
X98704224Y-45324794D01*
X98717585Y-45324633D01*
X98754812Y-45318587D01*
X98765945Y-45317672D01*
X98802612Y-45315814D01*
X98841233Y-45315291D01*
X98878651Y-45317513D01*
G37*
G36*
X99561255Y-45324382D02*
G01*
X99575427Y-45334525D01*
X99595900Y-45365980D01*
X99598142Y-45380504D01*
X99582094Y-45416346D01*
X99556570Y-45445641D01*
X99539340Y-45462569D01*
X99510040Y-45489181D01*
X99480826Y-45515621D01*
X99454344Y-45539506D01*
X99427267Y-45568046D01*
X99403433Y-45598985D01*
X99385833Y-45629448D01*
X99420643Y-45617709D01*
X99437491Y-45613511D01*
X99473946Y-45608563D01*
X99481638Y-45608382D01*
X99520458Y-45610015D01*
X99563289Y-45616283D01*
X99602023Y-45627252D01*
X99636662Y-45642923D01*
X99667204Y-45663295D01*
X99680940Y-45675244D01*
X99708491Y-45707003D01*
X99729276Y-45743775D01*
X99741705Y-45779285D01*
X99749162Y-45818479D01*
X99751648Y-45861357D01*
X99749823Y-45899020D01*
X99742817Y-45941335D01*
X99730555Y-45980507D01*
X99713038Y-46016537D01*
X99690266Y-46049424D01*
X99676910Y-46064689D01*
X99645536Y-46092890D01*
X99610492Y-46115256D01*
X99571777Y-46131787D01*
X99529391Y-46142484D01*
X99491265Y-46146941D01*
X99467166Y-46147670D01*
X99423465Y-46145175D01*
X99383493Y-46137688D01*
X99347251Y-46125211D01*
X99314739Y-46107742D01*
X99280648Y-46080192D01*
X99256341Y-46051743D01*
X99251927Y-46045455D01*
X99233002Y-46012952D01*
X99217993Y-45976856D01*
X99206899Y-45937166D01*
X99199720Y-45893883D01*
X99196729Y-45855069D01*
X99196240Y-45830582D01*
X99196396Y-45826735D01*
X99338023Y-45826735D01*
X99339601Y-45864009D01*
X99345268Y-45901327D01*
X99356570Y-45936576D01*
X99370996Y-45961924D01*
X99397561Y-45987580D01*
X99431918Y-46002586D01*
X99469914Y-46006987D01*
X99509094Y-46002890D01*
X99545374Y-45988921D01*
X99574511Y-45965038D01*
X99594744Y-45934038D01*
X99606578Y-45896197D01*
X99610048Y-45855861D01*
X99605051Y-45819531D01*
X99586588Y-45786718D01*
X99574511Y-45775811D01*
X99539681Y-45758495D01*
X99500906Y-45750738D01*
X99467349Y-45749066D01*
X99429038Y-45752271D01*
X99398839Y-45760423D01*
X99364120Y-45777299D01*
X99340038Y-45790465D01*
X99338023Y-45826735D01*
X99196396Y-45826735D01*
X99198114Y-45784490D01*
X99203736Y-45739566D01*
X99213106Y-45695811D01*
X99226225Y-45653225D01*
X99243091Y-45611807D01*
X99263705Y-45571559D01*
X99288068Y-45532480D01*
X99316178Y-45494569D01*
X99348037Y-45457827D01*
X99383644Y-45422254D01*
X99409464Y-45399188D01*
X99436254Y-45373680D01*
X99463136Y-45348447D01*
X99493540Y-45325782D01*
X99525418Y-45315291D01*
X99561255Y-45324382D01*
G37*
G36*
X100038695Y-45713895D02*
G01*
X100001917Y-45705217D01*
X99986304Y-45693745D01*
X99967461Y-45661190D01*
X99965422Y-45643187D01*
X99962857Y-45625235D01*
X99960293Y-45607100D01*
X99971029Y-45570806D01*
X99983007Y-45557458D01*
X100016389Y-45539937D01*
X100034481Y-45538040D01*
X100071849Y-45546358D01*
X100099026Y-45575109D01*
X100109897Y-45612896D01*
X100111784Y-45643187D01*
X100101914Y-45680150D01*
X100090901Y-45693745D01*
X100057252Y-45711927D01*
X100038695Y-45713895D01*
G37*
G36*
X100068553Y-46118911D02*
G01*
X100047854Y-46143091D01*
X100033565Y-46170385D01*
X100020600Y-46206552D01*
X99987631Y-46227650D01*
X99967620Y-46229736D01*
X99931114Y-46220645D01*
X99918527Y-46210502D01*
X99901697Y-46176670D01*
X99900575Y-46163058D01*
X99909762Y-46124559D01*
X99927572Y-46089762D01*
X99948569Y-46057545D01*
X99973665Y-46025167D01*
X100000365Y-45999800D01*
X100036067Y-45983828D01*
X100041259Y-45983539D01*
X100077873Y-45994152D01*
X100088520Y-46002407D01*
X100107926Y-46034933D01*
X100109220Y-46047653D01*
X100096353Y-46082551D01*
X100073478Y-46113223D01*
X100068553Y-46118911D01*
G37*
G36*
X100533153Y-45317513D02*
G01*
X100569708Y-45324178D01*
X100605401Y-45335287D01*
X100640230Y-45350840D01*
X100674197Y-45370836D01*
X100685327Y-45378489D01*
X100718758Y-45406086D01*
X100745271Y-45435848D01*
X100764868Y-45467773D01*
X100778989Y-45507754D01*
X100783600Y-45544367D01*
X100783696Y-45550680D01*
X100781143Y-45589195D01*
X100773482Y-45625169D01*
X100757547Y-45664986D01*
X100734258Y-45701144D01*
X100709232Y-45728482D01*
X100679099Y-45753279D01*
X100643085Y-45775753D01*
X100604558Y-45793577D01*
X100563521Y-45806751D01*
X100527404Y-45814177D01*
X100489543Y-45818375D01*
X100457998Y-45819408D01*
X100420999Y-45816399D01*
X100414767Y-45815744D01*
X100413554Y-45853693D01*
X100412751Y-45893685D01*
X100412249Y-45932276D01*
X100411900Y-45975652D01*
X100411729Y-46013798D01*
X100411656Y-46055007D01*
X100411653Y-46065788D01*
X100402649Y-46101523D01*
X100392602Y-46115247D01*
X100359917Y-46134309D01*
X100344242Y-46135947D01*
X100308618Y-46126683D01*
X100295516Y-46116346D01*
X100277484Y-46082790D01*
X100276282Y-46069635D01*
X100276282Y-45926020D01*
X100276773Y-45887485D01*
X100277975Y-45848609D01*
X100279898Y-45804337D01*
X100282052Y-45763320D01*
X100284707Y-45718556D01*
X100286540Y-45689898D01*
X100287420Y-45675061D01*
X100423011Y-45675061D01*
X100457998Y-45678724D01*
X100496501Y-45676652D01*
X100535738Y-45669367D01*
X100570658Y-45656836D01*
X100591538Y-45645568D01*
X100621388Y-45621254D01*
X100641453Y-45589384D01*
X100648142Y-45552145D01*
X100634907Y-45516196D01*
X100604663Y-45490157D01*
X100595202Y-45484551D01*
X100558983Y-45468282D01*
X100520600Y-45458765D01*
X100483827Y-45455975D01*
X100454701Y-45456158D01*
X100433452Y-45457257D01*
X100433215Y-45493978D01*
X100432903Y-45520455D01*
X100431238Y-45561121D01*
X100428885Y-45598908D01*
X100426037Y-45637644D01*
X100423011Y-45675061D01*
X100287420Y-45675061D01*
X100288824Y-45651410D01*
X100291277Y-45606850D01*
X100293282Y-45566234D01*
X100294840Y-45529563D01*
X100296119Y-45490764D01*
X100296798Y-45452677D01*
X100298781Y-45414292D01*
X100305942Y-45377215D01*
X100323605Y-45343026D01*
X100358725Y-45324794D01*
X100372086Y-45324633D01*
X100409314Y-45318587D01*
X100420446Y-45317672D01*
X100457113Y-45315814D01*
X100495734Y-45315291D01*
X100533153Y-45317513D01*
G37*
G36*
X101138804Y-45318245D02*
G01*
X101180230Y-45327107D01*
X101215096Y-45339405D01*
X101249370Y-45356044D01*
X101283051Y-45377023D01*
X101313184Y-45400397D01*
X101342602Y-45430759D01*
X101364665Y-45463646D01*
X101379374Y-45499058D01*
X101386728Y-45536993D01*
X101387648Y-45556908D01*
X101385094Y-45594792D01*
X101376481Y-45631182D01*
X101366032Y-45655094D01*
X101344507Y-45686497D01*
X101316865Y-45715341D01*
X101306681Y-45724520D01*
X101339720Y-45743770D01*
X101370075Y-45768779D01*
X101395341Y-45796510D01*
X101416505Y-45826761D01*
X101431896Y-45860270D01*
X101438951Y-45897006D01*
X101439122Y-45903672D01*
X101433210Y-45941025D01*
X101415474Y-45977249D01*
X101389783Y-46008499D01*
X101364384Y-46031350D01*
X101332681Y-46054491D01*
X101300084Y-46073768D01*
X101266592Y-46089181D01*
X101259787Y-46091800D01*
X101220744Y-46104518D01*
X101178607Y-46115081D01*
X101133375Y-46123487D01*
X101094961Y-46128661D01*
X101054566Y-46132455D01*
X101012191Y-46134869D01*
X100967835Y-46135904D01*
X100956437Y-46135947D01*
X100920244Y-46126072D01*
X100900933Y-46110668D01*
X100880591Y-46079269D01*
X100876570Y-46056446D01*
X100876570Y-45995263D01*
X101016704Y-45995263D01*
X101056203Y-45992111D01*
X101097122Y-45986663D01*
X101133325Y-45980165D01*
X101170572Y-45971979D01*
X101208862Y-45962107D01*
X101244141Y-45950943D01*
X101279303Y-45934357D01*
X101298438Y-45908068D01*
X101284909Y-45873684D01*
X101256581Y-45848843D01*
X101240186Y-45839192D01*
X101205045Y-45822990D01*
X101169161Y-45812912D01*
X101156838Y-45811165D01*
X101119122Y-45810754D01*
X101080116Y-45809805D01*
X101039290Y-45808500D01*
X101016704Y-45807684D01*
X101016704Y-45995263D01*
X100876570Y-45995263D01*
X100876570Y-45518989D01*
X100874947Y-45480246D01*
X100874188Y-45455975D01*
X101016704Y-45455975D01*
X101017254Y-45562037D01*
X101016704Y-45667001D01*
X101053284Y-45670497D01*
X101087229Y-45670664D01*
X101124195Y-45666259D01*
X101163471Y-45656865D01*
X101200436Y-45639889D01*
X101229547Y-45612221D01*
X101243563Y-45576086D01*
X101244949Y-45558007D01*
X101233363Y-45523111D01*
X101206886Y-45495702D01*
X101198604Y-45489497D01*
X101164894Y-45469890D01*
X101129755Y-45458422D01*
X101096571Y-45455059D01*
X101057133Y-45455167D01*
X101019678Y-45455811D01*
X101016704Y-45455975D01*
X100874188Y-45455975D01*
X100874005Y-45450113D01*
X100873908Y-45412069D01*
X100876570Y-45384167D01*
X100894890Y-45351668D01*
X100929944Y-45333849D01*
X100966695Y-45326465D01*
X101003335Y-45319656D01*
X101040315Y-45316611D01*
X101080022Y-45315389D01*
X101096571Y-45315291D01*
X101138804Y-45318245D01*
G37*
G36*
X101889567Y-46112500D02*
G01*
X101684952Y-46112500D01*
X101647051Y-46109318D01*
X101612000Y-46095876D01*
X101590057Y-46065161D01*
X101587683Y-46046004D01*
X101596275Y-46009876D01*
X101625978Y-45983601D01*
X101665016Y-45973091D01*
X101696310Y-45971266D01*
X101719024Y-45971816D01*
X101719024Y-45530713D01*
X101687760Y-45550638D01*
X101660772Y-45561488D01*
X101624691Y-45551790D01*
X101610580Y-45540971D01*
X101591241Y-45509644D01*
X101589148Y-45493344D01*
X101602672Y-45457437D01*
X101623770Y-45435275D01*
X101681838Y-45393326D01*
X101744853Y-45342951D01*
X101778182Y-45324043D01*
X101815070Y-45315399D01*
X101819591Y-45315291D01*
X101854350Y-45328892D01*
X101865891Y-45366349D01*
X101865936Y-45369696D01*
X101865516Y-45407362D01*
X101864437Y-45447339D01*
X101862948Y-45487333D01*
X101861267Y-45525340D01*
X101860624Y-45538773D01*
X101858881Y-45582861D01*
X101857704Y-45624619D01*
X101856943Y-45661310D01*
X101856341Y-45700920D01*
X101855901Y-45743450D01*
X101855620Y-45788899D01*
X101855500Y-45837268D01*
X101855495Y-45849816D01*
X101855495Y-45971816D01*
X101889567Y-45971816D01*
X101926120Y-45981340D01*
X101939759Y-45991966D01*
X101958106Y-46024347D01*
X101960092Y-46042158D01*
X101950481Y-46078790D01*
X101939759Y-46092349D01*
X101907298Y-46110532D01*
X101889567Y-46112500D01*
G37*
G36*
X95019321Y-47372500D02*
G01*
X94981068Y-47372500D01*
X94979387Y-47372500D01*
X94942100Y-47372500D01*
X94940553Y-47372500D01*
X94789061Y-47372500D01*
X94750476Y-47372500D01*
X94729710Y-47372500D01*
X94691340Y-47372500D01*
X94669993Y-47372500D01*
X94653506Y-47370484D01*
X94637020Y-47368469D01*
X94600132Y-47360178D01*
X94575248Y-47333056D01*
X94574188Y-47330734D01*
X94565623Y-47293567D01*
X94563930Y-47257644D01*
X94565972Y-47216997D01*
X94572100Y-47179365D01*
X94584104Y-47140050D01*
X94601443Y-47104673D01*
X94606612Y-47096444D01*
X94631191Y-47065206D01*
X94660103Y-47037123D01*
X94691204Y-47012185D01*
X94713224Y-46996610D01*
X94747994Y-46973666D01*
X94782695Y-46950814D01*
X94817328Y-46928054D01*
X94851892Y-46905385D01*
X94883584Y-46879146D01*
X94910271Y-46847312D01*
X94926792Y-46813510D01*
X94933225Y-46773128D01*
X94911821Y-46742114D01*
X94900802Y-46735026D01*
X94866766Y-46720161D01*
X94837421Y-46715975D01*
X94799134Y-46721516D01*
X94763013Y-46736171D01*
X94729433Y-46757191D01*
X94721833Y-46762869D01*
X94690549Y-46785538D01*
X94658259Y-46804223D01*
X94638119Y-46809764D01*
X94600990Y-46802139D01*
X94590308Y-46796209D01*
X94567002Y-46766889D01*
X94564480Y-46749497D01*
X94574569Y-46712932D01*
X94590308Y-46694359D01*
X94620453Y-46668221D01*
X94651985Y-46643332D01*
X94684063Y-46621286D01*
X94698935Y-46612477D01*
X94732732Y-46596208D01*
X94771411Y-46583462D01*
X94810785Y-46576598D01*
X94837421Y-46575291D01*
X94875609Y-46577544D01*
X94912114Y-46584302D01*
X94951772Y-46597542D01*
X94984671Y-46613955D01*
X94998255Y-46622369D01*
X95030160Y-46647428D01*
X95054229Y-46675643D01*
X95072141Y-46711753D01*
X95079817Y-46751984D01*
X95080137Y-46762686D01*
X95078218Y-46799821D01*
X95071323Y-46839191D01*
X95059413Y-46875286D01*
X95042489Y-46908107D01*
X95040020Y-46911980D01*
X95016768Y-46942394D01*
X94989754Y-46969309D01*
X94960900Y-46992868D01*
X94940553Y-47007418D01*
X94908324Y-47027808D01*
X94876118Y-47048130D01*
X94843935Y-47068383D01*
X94811775Y-47088567D01*
X94778219Y-47112747D01*
X94751051Y-47138164D01*
X94727429Y-47169379D01*
X94711080Y-47207115D01*
X94706629Y-47231816D01*
X94744345Y-47228300D01*
X94783372Y-47225333D01*
X94790160Y-47224855D01*
X94829111Y-47223236D01*
X94869003Y-47221771D01*
X94907274Y-47220655D01*
X94944132Y-47220097D01*
X94947147Y-47220092D01*
X94985761Y-47223844D01*
X95021302Y-47234046D01*
X95034891Y-47239692D01*
X95067486Y-47259897D01*
X95087545Y-47292847D01*
X95088381Y-47302158D01*
X95078539Y-47338155D01*
X95069330Y-47350334D01*
X95037034Y-47370335D01*
X95019321Y-47372500D01*
G37*
G36*
X95654413Y-46636474D02*
G01*
X95638543Y-46671632D01*
X95622371Y-46708673D01*
X95607809Y-46742632D01*
X95596345Y-46769647D01*
X95582207Y-46804661D01*
X95566034Y-46841698D01*
X95547826Y-46880756D01*
X95531098Y-46914850D01*
X95512957Y-46950348D01*
X95497426Y-46979757D01*
X95476344Y-47017826D01*
X95455274Y-47055921D01*
X95434218Y-47094041D01*
X95413174Y-47132187D01*
X95392143Y-47170359D01*
X95385136Y-47183089D01*
X95366958Y-47220244D01*
X95350315Y-47255146D01*
X95332598Y-47292546D01*
X95315907Y-47327907D01*
X95296978Y-47368105D01*
X95291896Y-47378911D01*
X95269165Y-47407969D01*
X95234183Y-47419355D01*
X95231629Y-47419394D01*
X95195221Y-47409914D01*
X95184734Y-47402541D01*
X95164829Y-47371782D01*
X95163119Y-47357479D01*
X95167698Y-47333848D01*
X95182128Y-47298722D01*
X95200002Y-47259062D01*
X95216780Y-47224068D01*
X95235763Y-47186172D01*
X95256949Y-47145374D01*
X95274285Y-47112871D01*
X95292860Y-47078735D01*
X95312676Y-47042967D01*
X95319556Y-47030682D01*
X95339818Y-46994361D01*
X95358836Y-46959657D01*
X95376612Y-46926569D01*
X95398379Y-46884967D01*
X95417936Y-46846238D01*
X95435284Y-46810383D01*
X95453862Y-46769606D01*
X95468987Y-46733318D01*
X95471598Y-46726599D01*
X95486080Y-46689619D01*
X95501383Y-46652475D01*
X95517576Y-46617423D01*
X95537348Y-46583191D01*
X95561259Y-46554375D01*
X95593230Y-46540120D01*
X95629123Y-46550630D01*
X95639576Y-46558072D01*
X95659840Y-46590048D01*
X95661191Y-46602585D01*
X95654413Y-46636474D01*
G37*
G36*
X96152393Y-46581839D02*
G01*
X96168606Y-46590495D01*
X96191705Y-46620608D01*
X96194801Y-46641420D01*
X96195350Y-47020790D01*
X96233117Y-47023148D01*
X96271325Y-47029754D01*
X96285476Y-47035261D01*
X96307768Y-47066006D01*
X96310755Y-47091681D01*
X96301138Y-47128959D01*
X96271554Y-47152498D01*
X96233738Y-47160838D01*
X96195350Y-47161474D01*
X96195865Y-47198774D01*
X96195946Y-47237586D01*
X96195591Y-47277909D01*
X96194801Y-47319743D01*
X96184188Y-47356322D01*
X96176299Y-47366088D01*
X96142056Y-47383090D01*
X96127390Y-47384223D01*
X96089780Y-47376196D01*
X96063219Y-47348446D01*
X96053510Y-47311976D01*
X96052651Y-47282740D01*
X96052651Y-47161474D01*
X95847121Y-47161474D01*
X95808352Y-47160429D01*
X95767160Y-47156185D01*
X95728392Y-47146782D01*
X95694792Y-47126933D01*
X95681707Y-47094612D01*
X95691911Y-47058788D01*
X95710650Y-47031598D01*
X95720272Y-47020790D01*
X95898595Y-47020790D01*
X96052651Y-47020790D01*
X96052651Y-46798040D01*
X96031998Y-46828978D01*
X96007546Y-46864913D01*
X95984266Y-46898677D01*
X95958348Y-46935911D01*
X95935713Y-46968196D01*
X95911390Y-47002703D01*
X95898595Y-47020790D01*
X95720272Y-47020790D01*
X95735913Y-47003221D01*
X95758461Y-46977925D01*
X95780566Y-46946778D01*
X95805390Y-46912048D01*
X95832933Y-46873735D01*
X95855375Y-46842648D01*
X95879346Y-46809545D01*
X95904847Y-46774427D01*
X95931877Y-46737293D01*
X95960437Y-46698143D01*
X95990526Y-46656977D01*
X96011435Y-46628414D01*
X96038888Y-46600400D01*
X96071098Y-46582761D01*
X96108067Y-46575498D01*
X96116032Y-46575291D01*
X96152393Y-46581839D01*
G37*
G36*
X96831908Y-46636474D02*
G01*
X96816038Y-46671632D01*
X96799866Y-46708673D01*
X96785303Y-46742632D01*
X96773839Y-46769647D01*
X96759701Y-46804661D01*
X96743528Y-46841698D01*
X96725320Y-46880756D01*
X96708593Y-46914850D01*
X96690451Y-46950348D01*
X96674921Y-46979757D01*
X96653839Y-47017826D01*
X96632769Y-47055921D01*
X96611712Y-47094041D01*
X96590669Y-47132187D01*
X96569638Y-47170359D01*
X96562630Y-47183089D01*
X96544452Y-47220244D01*
X96527809Y-47255146D01*
X96510093Y-47292546D01*
X96493402Y-47327907D01*
X96474473Y-47368105D01*
X96469391Y-47378911D01*
X96446660Y-47407969D01*
X96411678Y-47419355D01*
X96409124Y-47419394D01*
X96372716Y-47409914D01*
X96362229Y-47402541D01*
X96342323Y-47371782D01*
X96340614Y-47357479D01*
X96345193Y-47333848D01*
X96359623Y-47298722D01*
X96377497Y-47259062D01*
X96394275Y-47224068D01*
X96413257Y-47186172D01*
X96434444Y-47145374D01*
X96451780Y-47112871D01*
X96470355Y-47078735D01*
X96490171Y-47042967D01*
X96497051Y-47030682D01*
X96517312Y-46994361D01*
X96536331Y-46959657D01*
X96554106Y-46926569D01*
X96575873Y-46884967D01*
X96595431Y-46846238D01*
X96612779Y-46810383D01*
X96631357Y-46769606D01*
X96646482Y-46733318D01*
X96649092Y-46726599D01*
X96663575Y-46689619D01*
X96678877Y-46652475D01*
X96695071Y-46617423D01*
X96714843Y-46583191D01*
X96738754Y-46554375D01*
X96770725Y-46540120D01*
X96806617Y-46550630D01*
X96817070Y-46558072D01*
X96837335Y-46590048D01*
X96838686Y-46602585D01*
X96831908Y-46636474D01*
G37*
G36*
X97214351Y-46576598D02*
G01*
X97254725Y-46582522D01*
X97290759Y-46593200D01*
X97327313Y-46611664D01*
X97357958Y-46636597D01*
X97361854Y-46640687D01*
X97384855Y-46672171D01*
X97401284Y-46708922D01*
X97410269Y-46745399D01*
X97414222Y-46785909D01*
X97414427Y-46798224D01*
X97411619Y-46837147D01*
X97401246Y-46874678D01*
X97394460Y-46888166D01*
X97370326Y-46917155D01*
X97339366Y-46940190D01*
X97334193Y-46943304D01*
X97366725Y-46964751D01*
X97396278Y-46990790D01*
X97420769Y-47022119D01*
X97424319Y-47028117D01*
X97440838Y-47064972D01*
X97450474Y-47103800D01*
X97454879Y-47142815D01*
X97455643Y-47169351D01*
X97452616Y-47210670D01*
X97443536Y-47248485D01*
X97428402Y-47282797D01*
X97407214Y-47313606D01*
X97379973Y-47340912D01*
X97369548Y-47349235D01*
X97333516Y-47372005D01*
X97299367Y-47387070D01*
X97262204Y-47398026D01*
X97222027Y-47404874D01*
X97178836Y-47407613D01*
X97171345Y-47407670D01*
X97129923Y-47405899D01*
X97091386Y-47400586D01*
X97055734Y-47391731D01*
X97017786Y-47376924D01*
X96983766Y-47357295D01*
X96954829Y-47333276D01*
X96928492Y-47300452D01*
X96910150Y-47262456D01*
X96900790Y-47225771D01*
X96897304Y-47185287D01*
X96897606Y-47173747D01*
X97037805Y-47173747D01*
X97046493Y-47209644D01*
X97072619Y-47239377D01*
X97086165Y-47247752D01*
X97120501Y-47260901D01*
X97159395Y-47266686D01*
X97171345Y-47266987D01*
X97208668Y-47264891D01*
X97246435Y-47256380D01*
X97278721Y-47237524D01*
X97282719Y-47233464D01*
X97300442Y-47199347D01*
X97306142Y-47159959D01*
X97306350Y-47149384D01*
X97300477Y-47113122D01*
X97280858Y-47080060D01*
X97264584Y-47064937D01*
X97230634Y-47044495D01*
X97195005Y-47029664D01*
X97168230Y-47020790D01*
X97134285Y-47036257D01*
X97100707Y-47054271D01*
X97070228Y-47077027D01*
X97048263Y-47109338D01*
X97038668Y-47147643D01*
X97037805Y-47173747D01*
X96897606Y-47173747D01*
X96898303Y-47147165D01*
X96904164Y-47103449D01*
X96915151Y-47064107D01*
X96931262Y-47029139D01*
X96952499Y-46998545D01*
X96978861Y-46972324D01*
X96997138Y-46958691D01*
X96968017Y-46931261D01*
X96946048Y-46900904D01*
X96929699Y-46862624D01*
X96923057Y-46825993D01*
X96922451Y-46810680D01*
X97064183Y-46810680D01*
X97080532Y-46845026D01*
X97114750Y-46865727D01*
X97149899Y-46877259D01*
X97161636Y-46880106D01*
X97197451Y-46870412D01*
X97232050Y-46857824D01*
X97236191Y-46855743D01*
X97264777Y-46830690D01*
X97272827Y-46801887D01*
X97268746Y-46765446D01*
X97249619Y-46732756D01*
X97248098Y-46731545D01*
X97212756Y-46718544D01*
X97175924Y-46715975D01*
X97137615Y-46719304D01*
X97103046Y-46731605D01*
X97074623Y-46760738D01*
X97064491Y-46799212D01*
X97064183Y-46810680D01*
X96922451Y-46810680D01*
X96922400Y-46809398D01*
X96925118Y-46772421D01*
X96935158Y-46732359D01*
X96952596Y-46695610D01*
X96977433Y-46662174D01*
X96999703Y-46640321D01*
X97033375Y-46615357D01*
X97069958Y-46596408D01*
X97109450Y-46583471D01*
X97145617Y-46577168D01*
X97177390Y-46575291D01*
X97214351Y-46576598D01*
G37*
G36*
X97970293Y-46581839D02*
G01*
X97986505Y-46590495D01*
X98009605Y-46620608D01*
X98012700Y-46641420D01*
X98013250Y-47020790D01*
X98051017Y-47023148D01*
X98089224Y-47029754D01*
X98103375Y-47035261D01*
X98125667Y-47066006D01*
X98128654Y-47091681D01*
X98119037Y-47128959D01*
X98089453Y-47152498D01*
X98051638Y-47160838D01*
X98013250Y-47161474D01*
X98013765Y-47198774D01*
X98013845Y-47237586D01*
X98013490Y-47277909D01*
X98012700Y-47319743D01*
X98002087Y-47356322D01*
X97994199Y-47366088D01*
X97959955Y-47383090D01*
X97945289Y-47384223D01*
X97907680Y-47376196D01*
X97881118Y-47348446D01*
X97871409Y-47311976D01*
X97870551Y-47282740D01*
X97870551Y-47161474D01*
X97665020Y-47161474D01*
X97626252Y-47160429D01*
X97585060Y-47156185D01*
X97546291Y-47146782D01*
X97512691Y-47126933D01*
X97499607Y-47094612D01*
X97509810Y-47058788D01*
X97528550Y-47031598D01*
X97538172Y-47020790D01*
X97716495Y-47020790D01*
X97870551Y-47020790D01*
X97870551Y-46798040D01*
X97849898Y-46828978D01*
X97825445Y-46864913D01*
X97802165Y-46898677D01*
X97776247Y-46935911D01*
X97753613Y-46968196D01*
X97729289Y-47002703D01*
X97716495Y-47020790D01*
X97538172Y-47020790D01*
X97553812Y-47003221D01*
X97576360Y-46977925D01*
X97598465Y-46946778D01*
X97623289Y-46912048D01*
X97650832Y-46873735D01*
X97673274Y-46842648D01*
X97697245Y-46809545D01*
X97722746Y-46774427D01*
X97749777Y-46737293D01*
X97778336Y-46698143D01*
X97808426Y-46656977D01*
X97829335Y-46628414D01*
X97856787Y-46600400D01*
X97888998Y-46582761D01*
X97925967Y-46575498D01*
X97933932Y-46575291D01*
X97970293Y-46581839D01*
G37*
G36*
X98369722Y-46950448D02*
G01*
X98332460Y-46942480D01*
X98316782Y-46931946D01*
X98297552Y-46900241D01*
X98295900Y-46885052D01*
X98293518Y-46868199D01*
X98291320Y-46850614D01*
X98302581Y-46815604D01*
X98313119Y-46804635D01*
X98347327Y-46788106D01*
X98365509Y-46786317D01*
X98402877Y-46794127D01*
X98430054Y-46821125D01*
X98440925Y-46856608D01*
X98442812Y-46885052D01*
X98432024Y-46920757D01*
X98421929Y-46931946D01*
X98388280Y-46948641D01*
X98369722Y-46950448D01*
G37*
G36*
X98377965Y-47302158D02*
G01*
X98339358Y-47292594D01*
X98313385Y-47263904D01*
X98301920Y-47228366D01*
X98298176Y-47188696D01*
X98298098Y-47181257D01*
X98309094Y-47145877D01*
X98321362Y-47132714D01*
X98355397Y-47116350D01*
X98373386Y-47114579D01*
X98411197Y-47124027D01*
X98436633Y-47152369D01*
X98447862Y-47187476D01*
X98451528Y-47226666D01*
X98451605Y-47234014D01*
X98441561Y-47269638D01*
X98430355Y-47282740D01*
X98396541Y-47300261D01*
X98377965Y-47302158D01*
G37*
G36*
X98878651Y-46577513D02*
G01*
X98915207Y-46584178D01*
X98950900Y-46595287D01*
X98985729Y-46610840D01*
X99019696Y-46630836D01*
X99030826Y-46638489D01*
X99064256Y-46666086D01*
X99090770Y-46695848D01*
X99110367Y-46727773D01*
X99124488Y-46767754D01*
X99129099Y-46804367D01*
X99129195Y-46810680D01*
X99126642Y-46849195D01*
X99118981Y-46885169D01*
X99103046Y-46924986D01*
X99079757Y-46961144D01*
X99054731Y-46988482D01*
X99024598Y-47013279D01*
X98988584Y-47035753D01*
X98950057Y-47053577D01*
X98909020Y-47066751D01*
X98872903Y-47074177D01*
X98835042Y-47078375D01*
X98803497Y-47079408D01*
X98766498Y-47076399D01*
X98760266Y-47075744D01*
X98759053Y-47113693D01*
X98758250Y-47153685D01*
X98757748Y-47192276D01*
X98757399Y-47235652D01*
X98757228Y-47273798D01*
X98757155Y-47315007D01*
X98757152Y-47325788D01*
X98748148Y-47361523D01*
X98738101Y-47375247D01*
X98705416Y-47394309D01*
X98689741Y-47395947D01*
X98654117Y-47386683D01*
X98641015Y-47376346D01*
X98622983Y-47342790D01*
X98621781Y-47329635D01*
X98621781Y-47186020D01*
X98622272Y-47147485D01*
X98623474Y-47108609D01*
X98625397Y-47064337D01*
X98627551Y-47023320D01*
X98630206Y-46978556D01*
X98632039Y-46949898D01*
X98632919Y-46935061D01*
X98768510Y-46935061D01*
X98803497Y-46938724D01*
X98842000Y-46936652D01*
X98881237Y-46929367D01*
X98916157Y-46916836D01*
X98937037Y-46905568D01*
X98966887Y-46881254D01*
X98986952Y-46849384D01*
X98993640Y-46812145D01*
X98980406Y-46776196D01*
X98950162Y-46750157D01*
X98940701Y-46744551D01*
X98904482Y-46728282D01*
X98866098Y-46718765D01*
X98829326Y-46715975D01*
X98800200Y-46716158D01*
X98778951Y-46717257D01*
X98778714Y-46753978D01*
X98778401Y-46780455D01*
X98776737Y-46821121D01*
X98774384Y-46858908D01*
X98771536Y-46897644D01*
X98768510Y-46935061D01*
X98632919Y-46935061D01*
X98634323Y-46911410D01*
X98636776Y-46866850D01*
X98638781Y-46826234D01*
X98640339Y-46789563D01*
X98641618Y-46750764D01*
X98642297Y-46712677D01*
X98644280Y-46674292D01*
X98651441Y-46637215D01*
X98669104Y-46603026D01*
X98704224Y-46584794D01*
X98717585Y-46584633D01*
X98754812Y-46578587D01*
X98765945Y-46577672D01*
X98802612Y-46575814D01*
X98841233Y-46575291D01*
X98878651Y-46577513D01*
G37*
G36*
X99439506Y-47407670D02*
G01*
X99401372Y-47405867D01*
X99357352Y-47398542D01*
X99317384Y-47385581D01*
X99281468Y-47366986D01*
X99249603Y-47342755D01*
X99221790Y-47312890D01*
X99207048Y-47292266D01*
X99194338Y-47257129D01*
X99194225Y-47253614D01*
X99204701Y-47218470D01*
X99216390Y-47205071D01*
X99249811Y-47186889D01*
X99266948Y-47184921D01*
X99302683Y-47194965D01*
X99316407Y-47206170D01*
X99342862Y-47233293D01*
X99355425Y-47245737D01*
X99389045Y-47260990D01*
X99426451Y-47266655D01*
X99439506Y-47266987D01*
X99477528Y-47263426D01*
X99516388Y-47250908D01*
X99551104Y-47229378D01*
X99571946Y-47210017D01*
X99596563Y-47177265D01*
X99613124Y-47140832D01*
X99621628Y-47100719D01*
X99622871Y-47076844D01*
X99620857Y-47037582D01*
X99613895Y-47000960D01*
X99598975Y-46966742D01*
X99597409Y-46964370D01*
X99570115Y-46938824D01*
X99532794Y-46927584D01*
X99520289Y-46927001D01*
X99482319Y-46929709D01*
X99443090Y-46939438D01*
X99408302Y-46956242D01*
X99377957Y-46980121D01*
X99374476Y-46983604D01*
X99348614Y-47011689D01*
X99330696Y-47030682D01*
X99298270Y-47051122D01*
X99271528Y-47055961D01*
X99235305Y-47046350D01*
X99221702Y-47035628D01*
X99202977Y-47002708D01*
X99201369Y-46987817D01*
X99204469Y-46950018D01*
X99208590Y-46911292D01*
X99210162Y-46897142D01*
X99214155Y-46860588D01*
X99218397Y-46819381D01*
X99222390Y-46776507D01*
X99225534Y-46735556D01*
X99227181Y-46697252D01*
X99227198Y-46693993D01*
X99218039Y-46659738D01*
X99209063Y-46625300D01*
X99225051Y-46592259D01*
X99235258Y-46585732D01*
X99271961Y-46575790D01*
X99283801Y-46575291D01*
X99314942Y-46575291D01*
X99346083Y-46575291D01*
X99593928Y-46575291D01*
X99631799Y-46569790D01*
X99633679Y-46569429D01*
X99670256Y-46563710D01*
X99673796Y-46563567D01*
X99709997Y-46574592D01*
X99719591Y-46583168D01*
X99736292Y-46616758D01*
X99737726Y-46632993D01*
X99727972Y-46669698D01*
X99698709Y-46695916D01*
X99663958Y-46708698D01*
X99626617Y-46714842D01*
X99581655Y-46716891D01*
X99550331Y-46716524D01*
X99525418Y-46715975D01*
X99371912Y-46715975D01*
X99368364Y-46754185D01*
X99363000Y-46793667D01*
X99359089Y-46819289D01*
X99394443Y-46804864D01*
X99433094Y-46794560D01*
X99469619Y-46788925D01*
X99508668Y-46786445D01*
X99520289Y-46786317D01*
X99557920Y-46788620D01*
X99599205Y-46797464D01*
X99636265Y-46812942D01*
X99669100Y-46835052D01*
X99697711Y-46863796D01*
X99710432Y-46880655D01*
X99731488Y-46916555D01*
X99747373Y-46956295D01*
X99756872Y-46993413D01*
X99762571Y-47033351D01*
X99764471Y-47076111D01*
X99762360Y-47119224D01*
X99756027Y-47159949D01*
X99745473Y-47198286D01*
X99730697Y-47234234D01*
X99711699Y-47267795D01*
X99688479Y-47298967D01*
X99678009Y-47310767D01*
X99648374Y-47338684D01*
X99615913Y-47361868D01*
X99580625Y-47380322D01*
X99542511Y-47394043D01*
X99501571Y-47403033D01*
X99457804Y-47407292D01*
X99439506Y-47407670D01*
G37*
G36*
X100038695Y-46973895D02*
G01*
X100001917Y-46965217D01*
X99986304Y-46953745D01*
X99967461Y-46921190D01*
X99965422Y-46903187D01*
X99962857Y-46885235D01*
X99960293Y-46867100D01*
X99971029Y-46830806D01*
X99983007Y-46817458D01*
X100016389Y-46799937D01*
X100034481Y-46798040D01*
X100071849Y-46806358D01*
X100099026Y-46835109D01*
X100109897Y-46872896D01*
X100111784Y-46903187D01*
X100101914Y-46940150D01*
X100090901Y-46953745D01*
X100057252Y-46971927D01*
X100038695Y-46973895D01*
G37*
G36*
X100068553Y-47378911D02*
G01*
X100047854Y-47403091D01*
X100033565Y-47430385D01*
X100020600Y-47466552D01*
X99987631Y-47487650D01*
X99967620Y-47489736D01*
X99931114Y-47480645D01*
X99918527Y-47470502D01*
X99901697Y-47436670D01*
X99900575Y-47423058D01*
X99909762Y-47384559D01*
X99927572Y-47349762D01*
X99948569Y-47317545D01*
X99973665Y-47285167D01*
X100000365Y-47259800D01*
X100036067Y-47243828D01*
X100041259Y-47243539D01*
X100077873Y-47254152D01*
X100088520Y-47262407D01*
X100107926Y-47294933D01*
X100109220Y-47307653D01*
X100096353Y-47342551D01*
X100073478Y-47373223D01*
X100068553Y-47378911D01*
G37*
G36*
X100769943Y-46620070D02*
G01*
X100796553Y-46648896D01*
X100808426Y-46678789D01*
X100816000Y-46718405D01*
X100823734Y-46757853D01*
X100831722Y-46798023D01*
X100839475Y-46836654D01*
X100840849Y-46843469D01*
X100848941Y-46881050D01*
X100857461Y-46919971D01*
X100866412Y-46960231D01*
X100875791Y-47001830D01*
X100885600Y-47044769D01*
X100895838Y-47089048D01*
X100906506Y-47134666D01*
X100917602Y-47181624D01*
X100930616Y-47217181D01*
X100943981Y-47249218D01*
X100956628Y-47283639D01*
X100962482Y-47315530D01*
X100951832Y-47351831D01*
X100939951Y-47365355D01*
X100906365Y-47382853D01*
X100889209Y-47384223D01*
X100856077Y-47367795D01*
X100833033Y-47338571D01*
X100815050Y-47305742D01*
X100807327Y-47288968D01*
X100792597Y-47253516D01*
X100779113Y-47215166D01*
X100768174Y-47178644D01*
X100760615Y-47149750D01*
X100721646Y-47156299D01*
X100685281Y-47160833D01*
X100646509Y-47164863D01*
X100635868Y-47165870D01*
X100597572Y-47170083D01*
X100560154Y-47175261D01*
X100522567Y-47182219D01*
X100511121Y-47184921D01*
X100495047Y-47219871D01*
X100478698Y-47253065D01*
X100462006Y-47285703D01*
X100442840Y-47322205D01*
X100428689Y-47348686D01*
X100401624Y-47375339D01*
X100365858Y-47384223D01*
X100329501Y-47375132D01*
X100314750Y-47364989D01*
X100294419Y-47333355D01*
X100292219Y-47315713D01*
X100302806Y-47278258D01*
X100318761Y-47240088D01*
X100334568Y-47205460D01*
X100354052Y-47164697D01*
X100367506Y-47137294D01*
X100361278Y-47107435D01*
X100385781Y-47078540D01*
X100411287Y-47068784D01*
X100425558Y-47044237D01*
X100586409Y-47044237D01*
X100622988Y-47039662D01*
X100658583Y-47037276D01*
X100695832Y-47035147D01*
X100731123Y-47032513D01*
X100723480Y-46991716D01*
X100716514Y-46955577D01*
X100708654Y-46915581D01*
X100701205Y-46878229D01*
X100697234Y-46858490D01*
X100678157Y-46890670D01*
X100656186Y-46927583D01*
X100635053Y-46962990D01*
X100615818Y-46995153D01*
X100595107Y-47029730D01*
X100586409Y-47044237D01*
X100425558Y-47044237D01*
X100429820Y-47036907D01*
X100448874Y-47004750D01*
X100468448Y-46972312D01*
X100488544Y-46939594D01*
X100509161Y-46906596D01*
X100530298Y-46873317D01*
X100551957Y-46839757D01*
X100574136Y-46805917D01*
X100597412Y-46770987D01*
X100618950Y-46739493D01*
X100644962Y-46702845D01*
X100667882Y-46672305D01*
X100692186Y-46642720D01*
X100721026Y-46615234D01*
X100732772Y-46610462D01*
X100769943Y-46620070D01*
G37*
G36*
X101302834Y-47407670D02*
G01*
X101264701Y-47405867D01*
X101220681Y-47398542D01*
X101180713Y-47385581D01*
X101144796Y-47366986D01*
X101112932Y-47342755D01*
X101085119Y-47312890D01*
X101070376Y-47292266D01*
X101057666Y-47257129D01*
X101057554Y-47253614D01*
X101068030Y-47218470D01*
X101079719Y-47205071D01*
X101113139Y-47186889D01*
X101130277Y-47184921D01*
X101166012Y-47194965D01*
X101179736Y-47206170D01*
X101206191Y-47233293D01*
X101218754Y-47245737D01*
X101252373Y-47260990D01*
X101289780Y-47266655D01*
X101302834Y-47266987D01*
X101340856Y-47263426D01*
X101379717Y-47250908D01*
X101414433Y-47229378D01*
X101435275Y-47210017D01*
X101459892Y-47177265D01*
X101476452Y-47140832D01*
X101484957Y-47100719D01*
X101486200Y-47076844D01*
X101484186Y-47037582D01*
X101477223Y-47000960D01*
X101462304Y-46966742D01*
X101460737Y-46964370D01*
X101433444Y-46938824D01*
X101396123Y-46927584D01*
X101383618Y-46927001D01*
X101345648Y-46929709D01*
X101306418Y-46939438D01*
X101271631Y-46956242D01*
X101241286Y-46980121D01*
X101237805Y-46983604D01*
X101211943Y-47011689D01*
X101194024Y-47030682D01*
X101161599Y-47051122D01*
X101134856Y-47055961D01*
X101098634Y-47046350D01*
X101085031Y-47035628D01*
X101066306Y-47002708D01*
X101064698Y-46987817D01*
X101067797Y-46950018D01*
X101071919Y-46911292D01*
X101073490Y-46897142D01*
X101077483Y-46860588D01*
X101081726Y-46819381D01*
X101085718Y-46776507D01*
X101088863Y-46735556D01*
X101090510Y-46697252D01*
X101090526Y-46693993D01*
X101081367Y-46659738D01*
X101072391Y-46625300D01*
X101088380Y-46592259D01*
X101098586Y-46585732D01*
X101135290Y-46575790D01*
X101147130Y-46575291D01*
X101178271Y-46575291D01*
X101209412Y-46575291D01*
X101457257Y-46575291D01*
X101495128Y-46569790D01*
X101497008Y-46569429D01*
X101533585Y-46563710D01*
X101537124Y-46563567D01*
X101573326Y-46574592D01*
X101582920Y-46583168D01*
X101599620Y-46616758D01*
X101601055Y-46632993D01*
X101591301Y-46669698D01*
X101562037Y-46695916D01*
X101527287Y-46708698D01*
X101489946Y-46714842D01*
X101444984Y-46716891D01*
X101413660Y-46716524D01*
X101388747Y-46715975D01*
X101235240Y-46715975D01*
X101231693Y-46754185D01*
X101226329Y-46793667D01*
X101222418Y-46819289D01*
X101257772Y-46804864D01*
X101296423Y-46794560D01*
X101332948Y-46788925D01*
X101371997Y-46786445D01*
X101383618Y-46786317D01*
X101421249Y-46788620D01*
X101462534Y-46797464D01*
X101499594Y-46812942D01*
X101532429Y-46835052D01*
X101561040Y-46863796D01*
X101573761Y-46880655D01*
X101594817Y-46916555D01*
X101610701Y-46956295D01*
X101620200Y-46993413D01*
X101625900Y-47033351D01*
X101627800Y-47076111D01*
X101625689Y-47119224D01*
X101619356Y-47159949D01*
X101608802Y-47198286D01*
X101594025Y-47234234D01*
X101575027Y-47267795D01*
X101551808Y-47298967D01*
X101541338Y-47310767D01*
X101511703Y-47338684D01*
X101479242Y-47361868D01*
X101443954Y-47380322D01*
X101405840Y-47394043D01*
X101364900Y-47403033D01*
X101321133Y-47407292D01*
X101302834Y-47407670D01*
G37*
D12*
X85671678Y-51934649D02*
X85671678Y-51434649D01*
X85671678Y-51434649D02*
X85838345Y-51791792D01*
X85838345Y-51791792D02*
X86005011Y-51434649D01*
X86005011Y-51434649D02*
X86005011Y-51934649D01*
X86243107Y-51934649D02*
X86243107Y-51434649D01*
X86457393Y-51910840D02*
X86528821Y-51934649D01*
X86528821Y-51934649D02*
X86647869Y-51934649D01*
X86647869Y-51934649D02*
X86695488Y-51910840D01*
X86695488Y-51910840D02*
X86719297Y-51887030D01*
X86719297Y-51887030D02*
X86743107Y-51839411D01*
X86743107Y-51839411D02*
X86743107Y-51791792D01*
X86743107Y-51791792D02*
X86719297Y-51744173D01*
X86719297Y-51744173D02*
X86695488Y-51720363D01*
X86695488Y-51720363D02*
X86647869Y-51696554D01*
X86647869Y-51696554D02*
X86552631Y-51672744D01*
X86552631Y-51672744D02*
X86505012Y-51648935D01*
X86505012Y-51648935D02*
X86481202Y-51625125D01*
X86481202Y-51625125D02*
X86457393Y-51577506D01*
X86457393Y-51577506D02*
X86457393Y-51529887D01*
X86457393Y-51529887D02*
X86481202Y-51482268D01*
X86481202Y-51482268D02*
X86505012Y-51458459D01*
X86505012Y-51458459D02*
X86552631Y-51434649D01*
X86552631Y-51434649D02*
X86671678Y-51434649D01*
X86671678Y-51434649D02*
X86743107Y-51458459D01*
X87052630Y-51434649D02*
X87147868Y-51434649D01*
X87147868Y-51434649D02*
X87195487Y-51458459D01*
X87195487Y-51458459D02*
X87243106Y-51506078D01*
X87243106Y-51506078D02*
X87266916Y-51601316D01*
X87266916Y-51601316D02*
X87266916Y-51767982D01*
X87266916Y-51767982D02*
X87243106Y-51863220D01*
X87243106Y-51863220D02*
X87195487Y-51910840D01*
X87195487Y-51910840D02*
X87147868Y-51934649D01*
X87147868Y-51934649D02*
X87052630Y-51934649D01*
X87052630Y-51934649D02*
X87005011Y-51910840D01*
X87005011Y-51910840D02*
X86957392Y-51863220D01*
X86957392Y-51863220D02*
X86933583Y-51767982D01*
X86933583Y-51767982D02*
X86933583Y-51601316D01*
X86933583Y-51601316D02*
X86957392Y-51506078D01*
X86957392Y-51506078D02*
X87005011Y-51458459D01*
X87005011Y-51458459D02*
X87052630Y-51434649D01*
X88600249Y-51910840D02*
X88671677Y-51934649D01*
X88671677Y-51934649D02*
X88790725Y-51934649D01*
X88790725Y-51934649D02*
X88838344Y-51910840D01*
X88838344Y-51910840D02*
X88862153Y-51887030D01*
X88862153Y-51887030D02*
X88885963Y-51839411D01*
X88885963Y-51839411D02*
X88885963Y-51791792D01*
X88885963Y-51791792D02*
X88862153Y-51744173D01*
X88862153Y-51744173D02*
X88838344Y-51720363D01*
X88838344Y-51720363D02*
X88790725Y-51696554D01*
X88790725Y-51696554D02*
X88695487Y-51672744D01*
X88695487Y-51672744D02*
X88647868Y-51648935D01*
X88647868Y-51648935D02*
X88624058Y-51625125D01*
X88624058Y-51625125D02*
X88600249Y-51577506D01*
X88600249Y-51577506D02*
X88600249Y-51529887D01*
X88600249Y-51529887D02*
X88624058Y-51482268D01*
X88624058Y-51482268D02*
X88647868Y-51458459D01*
X88647868Y-51458459D02*
X88695487Y-51434649D01*
X88695487Y-51434649D02*
X88814534Y-51434649D01*
X88814534Y-51434649D02*
X88885963Y-51458459D01*
X89385962Y-51887030D02*
X89362153Y-51910840D01*
X89362153Y-51910840D02*
X89290724Y-51934649D01*
X89290724Y-51934649D02*
X89243105Y-51934649D01*
X89243105Y-51934649D02*
X89171677Y-51910840D01*
X89171677Y-51910840D02*
X89124058Y-51863220D01*
X89124058Y-51863220D02*
X89100248Y-51815601D01*
X89100248Y-51815601D02*
X89076439Y-51720363D01*
X89076439Y-51720363D02*
X89076439Y-51648935D01*
X89076439Y-51648935D02*
X89100248Y-51553697D01*
X89100248Y-51553697D02*
X89124058Y-51506078D01*
X89124058Y-51506078D02*
X89171677Y-51458459D01*
X89171677Y-51458459D02*
X89243105Y-51434649D01*
X89243105Y-51434649D02*
X89290724Y-51434649D01*
X89290724Y-51434649D02*
X89362153Y-51458459D01*
X89362153Y-51458459D02*
X89385962Y-51482268D01*
X89600248Y-51934649D02*
X89600248Y-51434649D01*
X89885962Y-51934649D02*
X89671677Y-51648935D01*
X89885962Y-51434649D02*
X89600248Y-51720363D01*
X91219295Y-51910840D02*
X91290723Y-51934649D01*
X91290723Y-51934649D02*
X91409771Y-51934649D01*
X91409771Y-51934649D02*
X91457390Y-51910840D01*
X91457390Y-51910840D02*
X91481199Y-51887030D01*
X91481199Y-51887030D02*
X91505009Y-51839411D01*
X91505009Y-51839411D02*
X91505009Y-51791792D01*
X91505009Y-51791792D02*
X91481199Y-51744173D01*
X91481199Y-51744173D02*
X91457390Y-51720363D01*
X91457390Y-51720363D02*
X91409771Y-51696554D01*
X91409771Y-51696554D02*
X91314533Y-51672744D01*
X91314533Y-51672744D02*
X91266914Y-51648935D01*
X91266914Y-51648935D02*
X91243104Y-51625125D01*
X91243104Y-51625125D02*
X91219295Y-51577506D01*
X91219295Y-51577506D02*
X91219295Y-51529887D01*
X91219295Y-51529887D02*
X91243104Y-51482268D01*
X91243104Y-51482268D02*
X91266914Y-51458459D01*
X91266914Y-51458459D02*
X91314533Y-51434649D01*
X91314533Y-51434649D02*
X91433580Y-51434649D01*
X91433580Y-51434649D02*
X91505009Y-51458459D01*
X91695485Y-51910840D02*
X91766913Y-51934649D01*
X91766913Y-51934649D02*
X91885961Y-51934649D01*
X91885961Y-51934649D02*
X91933580Y-51910840D01*
X91933580Y-51910840D02*
X91957389Y-51887030D01*
X91957389Y-51887030D02*
X91981199Y-51839411D01*
X91981199Y-51839411D02*
X91981199Y-51791792D01*
X91981199Y-51791792D02*
X91957389Y-51744173D01*
X91957389Y-51744173D02*
X91933580Y-51720363D01*
X91933580Y-51720363D02*
X91885961Y-51696554D01*
X91885961Y-51696554D02*
X91790723Y-51672744D01*
X91790723Y-51672744D02*
X91743104Y-51648935D01*
X91743104Y-51648935D02*
X91719294Y-51625125D01*
X91719294Y-51625125D02*
X91695485Y-51577506D01*
X91695485Y-51577506D02*
X91695485Y-51529887D01*
X91695485Y-51529887D02*
X91719294Y-51482268D01*
X91719294Y-51482268D02*
X91743104Y-51458459D01*
X91743104Y-51458459D02*
X91790723Y-51434649D01*
X91790723Y-51434649D02*
X91909770Y-51434649D01*
X91909770Y-51434649D02*
X91981199Y-51458459D01*
X86409773Y-45434649D02*
X86171678Y-45434649D01*
X86171678Y-45434649D02*
X86147869Y-45672744D01*
X86147869Y-45672744D02*
X86171678Y-45648935D01*
X86171678Y-45648935D02*
X86219297Y-45625125D01*
X86219297Y-45625125D02*
X86338345Y-45625125D01*
X86338345Y-45625125D02*
X86385964Y-45648935D01*
X86385964Y-45648935D02*
X86409773Y-45672744D01*
X86409773Y-45672744D02*
X86433583Y-45720363D01*
X86433583Y-45720363D02*
X86433583Y-45839411D01*
X86433583Y-45839411D02*
X86409773Y-45887030D01*
X86409773Y-45887030D02*
X86385964Y-45910840D01*
X86385964Y-45910840D02*
X86338345Y-45934649D01*
X86338345Y-45934649D02*
X86219297Y-45934649D01*
X86219297Y-45934649D02*
X86171678Y-45910840D01*
X86171678Y-45910840D02*
X86147869Y-45887030D01*
X86576440Y-45434649D02*
X86743106Y-45934649D01*
X86743106Y-45934649D02*
X86909773Y-45434649D01*
X88219295Y-45934649D02*
X88219295Y-45434649D01*
X88219295Y-45434649D02*
X88385962Y-45791792D01*
X88385962Y-45791792D02*
X88552628Y-45434649D01*
X88552628Y-45434649D02*
X88552628Y-45934649D01*
X88885962Y-45434649D02*
X88981200Y-45434649D01*
X88981200Y-45434649D02*
X89028819Y-45458459D01*
X89028819Y-45458459D02*
X89076438Y-45506078D01*
X89076438Y-45506078D02*
X89100248Y-45601316D01*
X89100248Y-45601316D02*
X89100248Y-45767982D01*
X89100248Y-45767982D02*
X89076438Y-45863220D01*
X89076438Y-45863220D02*
X89028819Y-45910840D01*
X89028819Y-45910840D02*
X88981200Y-45934649D01*
X88981200Y-45934649D02*
X88885962Y-45934649D01*
X88885962Y-45934649D02*
X88838343Y-45910840D01*
X88838343Y-45910840D02*
X88790724Y-45863220D01*
X88790724Y-45863220D02*
X88766915Y-45767982D01*
X88766915Y-45767982D02*
X88766915Y-45601316D01*
X88766915Y-45601316D02*
X88790724Y-45506078D01*
X88790724Y-45506078D02*
X88838343Y-45458459D01*
X88838343Y-45458459D02*
X88885962Y-45434649D01*
X89290725Y-45910840D02*
X89362153Y-45934649D01*
X89362153Y-45934649D02*
X89481201Y-45934649D01*
X89481201Y-45934649D02*
X89528820Y-45910840D01*
X89528820Y-45910840D02*
X89552629Y-45887030D01*
X89552629Y-45887030D02*
X89576439Y-45839411D01*
X89576439Y-45839411D02*
X89576439Y-45791792D01*
X89576439Y-45791792D02*
X89552629Y-45744173D01*
X89552629Y-45744173D02*
X89528820Y-45720363D01*
X89528820Y-45720363D02*
X89481201Y-45696554D01*
X89481201Y-45696554D02*
X89385963Y-45672744D01*
X89385963Y-45672744D02*
X89338344Y-45648935D01*
X89338344Y-45648935D02*
X89314534Y-45625125D01*
X89314534Y-45625125D02*
X89290725Y-45577506D01*
X89290725Y-45577506D02*
X89290725Y-45529887D01*
X89290725Y-45529887D02*
X89314534Y-45482268D01*
X89314534Y-45482268D02*
X89338344Y-45458459D01*
X89338344Y-45458459D02*
X89385963Y-45434649D01*
X89385963Y-45434649D02*
X89505010Y-45434649D01*
X89505010Y-45434649D02*
X89576439Y-45458459D01*
X89790724Y-45934649D02*
X89790724Y-45434649D01*
X91052628Y-45458459D02*
X91005009Y-45434649D01*
X91005009Y-45434649D02*
X90933580Y-45434649D01*
X90933580Y-45434649D02*
X90862152Y-45458459D01*
X90862152Y-45458459D02*
X90814533Y-45506078D01*
X90814533Y-45506078D02*
X90790723Y-45553697D01*
X90790723Y-45553697D02*
X90766914Y-45648935D01*
X90766914Y-45648935D02*
X90766914Y-45720363D01*
X90766914Y-45720363D02*
X90790723Y-45815601D01*
X90790723Y-45815601D02*
X90814533Y-45863220D01*
X90814533Y-45863220D02*
X90862152Y-45910840D01*
X90862152Y-45910840D02*
X90933580Y-45934649D01*
X90933580Y-45934649D02*
X90981199Y-45934649D01*
X90981199Y-45934649D02*
X91052628Y-45910840D01*
X91052628Y-45910840D02*
X91076437Y-45887030D01*
X91076437Y-45887030D02*
X91076437Y-45720363D01*
X91076437Y-45720363D02*
X90981199Y-45720363D01*
X91290723Y-45934649D02*
X91290723Y-45434649D01*
X91290723Y-45434649D02*
X91576437Y-45934649D01*
X91576437Y-45934649D02*
X91576437Y-45434649D01*
X91814533Y-45934649D02*
X91814533Y-45434649D01*
X91814533Y-45434649D02*
X91933581Y-45434649D01*
X91933581Y-45434649D02*
X92005009Y-45458459D01*
X92005009Y-45458459D02*
X92052628Y-45506078D01*
X92052628Y-45506078D02*
X92076438Y-45553697D01*
X92076438Y-45553697D02*
X92100247Y-45648935D01*
X92100247Y-45648935D02*
X92100247Y-45720363D01*
X92100247Y-45720363D02*
X92076438Y-45815601D01*
X92076438Y-45815601D02*
X92052628Y-45863220D01*
X92052628Y-45863220D02*
X92005009Y-45910840D01*
X92005009Y-45910840D02*
X91933581Y-45934649D01*
X91933581Y-45934649D02*
X91814533Y-45934649D01*
D11*
X100183335Y-61609581D02*
X100135716Y-61657201D01*
X100135716Y-61657201D02*
X99992859Y-61704820D01*
X99992859Y-61704820D02*
X99897621Y-61704820D01*
X99897621Y-61704820D02*
X99754764Y-61657201D01*
X99754764Y-61657201D02*
X99659526Y-61561962D01*
X99659526Y-61561962D02*
X99611907Y-61466724D01*
X99611907Y-61466724D02*
X99564288Y-61276248D01*
X99564288Y-61276248D02*
X99564288Y-61133391D01*
X99564288Y-61133391D02*
X99611907Y-60942915D01*
X99611907Y-60942915D02*
X99659526Y-60847677D01*
X99659526Y-60847677D02*
X99754764Y-60752439D01*
X99754764Y-60752439D02*
X99897621Y-60704820D01*
X99897621Y-60704820D02*
X99992859Y-60704820D01*
X99992859Y-60704820D02*
X100135716Y-60752439D01*
X100135716Y-60752439D02*
X100183335Y-60800058D01*
X101135716Y-61704820D02*
X100564288Y-61704820D01*
X100850002Y-61704820D02*
X100850002Y-60704820D01*
X100850002Y-60704820D02*
X100754764Y-60847677D01*
X100754764Y-60847677D02*
X100659526Y-60942915D01*
X100659526Y-60942915D02*
X100564288Y-60990534D01*
X86905714Y-65089104D02*
X87381904Y-65089104D01*
X86810476Y-65374819D02*
X87143809Y-64374819D01*
X87143809Y-64374819D02*
X87477142Y-65374819D01*
X88334285Y-65374819D02*
X87762857Y-65374819D01*
X88048571Y-65374819D02*
X88048571Y-64374819D01*
X88048571Y-64374819D02*
X87953333Y-64517676D01*
X87953333Y-64517676D02*
X87858095Y-64612914D01*
X87858095Y-64612914D02*
X87762857Y-64660533D01*
X86358095Y-102454819D02*
X86358095Y-103264342D01*
X86358095Y-103264342D02*
X86405714Y-103359580D01*
X86405714Y-103359580D02*
X86453333Y-103407200D01*
X86453333Y-103407200D02*
X86548571Y-103454819D01*
X86548571Y-103454819D02*
X86739047Y-103454819D01*
X86739047Y-103454819D02*
X86834285Y-103407200D01*
X86834285Y-103407200D02*
X86881904Y-103359580D01*
X86881904Y-103359580D02*
X86929523Y-103264342D01*
X86929523Y-103264342D02*
X86929523Y-102454819D01*
X87358095Y-103407200D02*
X87500952Y-103454819D01*
X87500952Y-103454819D02*
X87739047Y-103454819D01*
X87739047Y-103454819D02*
X87834285Y-103407200D01*
X87834285Y-103407200D02*
X87881904Y-103359580D01*
X87881904Y-103359580D02*
X87929523Y-103264342D01*
X87929523Y-103264342D02*
X87929523Y-103169104D01*
X87929523Y-103169104D02*
X87881904Y-103073866D01*
X87881904Y-103073866D02*
X87834285Y-103026247D01*
X87834285Y-103026247D02*
X87739047Y-102978628D01*
X87739047Y-102978628D02*
X87548571Y-102931009D01*
X87548571Y-102931009D02*
X87453333Y-102883390D01*
X87453333Y-102883390D02*
X87405714Y-102835771D01*
X87405714Y-102835771D02*
X87358095Y-102740533D01*
X87358095Y-102740533D02*
X87358095Y-102645295D01*
X87358095Y-102645295D02*
X87405714Y-102550057D01*
X87405714Y-102550057D02*
X87453333Y-102502438D01*
X87453333Y-102502438D02*
X87548571Y-102454819D01*
X87548571Y-102454819D02*
X87786666Y-102454819D01*
X87786666Y-102454819D02*
X87929523Y-102502438D01*
X88691428Y-102931009D02*
X88834285Y-102978628D01*
X88834285Y-102978628D02*
X88881904Y-103026247D01*
X88881904Y-103026247D02*
X88929523Y-103121485D01*
X88929523Y-103121485D02*
X88929523Y-103264342D01*
X88929523Y-103264342D02*
X88881904Y-103359580D01*
X88881904Y-103359580D02*
X88834285Y-103407200D01*
X88834285Y-103407200D02*
X88739047Y-103454819D01*
X88739047Y-103454819D02*
X88358095Y-103454819D01*
X88358095Y-103454819D02*
X88358095Y-102454819D01*
X88358095Y-102454819D02*
X88691428Y-102454819D01*
X88691428Y-102454819D02*
X88786666Y-102502438D01*
X88786666Y-102502438D02*
X88834285Y-102550057D01*
X88834285Y-102550057D02*
X88881904Y-102645295D01*
X88881904Y-102645295D02*
X88881904Y-102740533D01*
X88881904Y-102740533D02*
X88834285Y-102835771D01*
X88834285Y-102835771D02*
X88786666Y-102883390D01*
X88786666Y-102883390D02*
X88691428Y-102931009D01*
X88691428Y-102931009D02*
X88358095Y-102931009D01*
X74466666Y-67124819D02*
X74466666Y-67839104D01*
X74466666Y-67839104D02*
X74419047Y-67981961D01*
X74419047Y-67981961D02*
X74323809Y-68077200D01*
X74323809Y-68077200D02*
X74180952Y-68124819D01*
X74180952Y-68124819D02*
X74085714Y-68124819D01*
X75466666Y-68124819D02*
X74895238Y-68124819D01*
X75180952Y-68124819D02*
X75180952Y-67124819D01*
X75180952Y-67124819D02*
X75085714Y-67267676D01*
X75085714Y-67267676D02*
X74990476Y-67362914D01*
X74990476Y-67362914D02*
X74895238Y-67410533D01*
X77748095Y-44924819D02*
X77748095Y-45734342D01*
X77748095Y-45734342D02*
X77795714Y-45829580D01*
X77795714Y-45829580D02*
X77843333Y-45877200D01*
X77843333Y-45877200D02*
X77938571Y-45924819D01*
X77938571Y-45924819D02*
X78129047Y-45924819D01*
X78129047Y-45924819D02*
X78224285Y-45877200D01*
X78224285Y-45877200D02*
X78271904Y-45829580D01*
X78271904Y-45829580D02*
X78319523Y-45734342D01*
X78319523Y-45734342D02*
X78319523Y-44924819D01*
X79319523Y-45924819D02*
X78748095Y-45924819D01*
X79033809Y-45924819D02*
X79033809Y-44924819D01*
X79033809Y-44924819D02*
X78938571Y-45067676D01*
X78938571Y-45067676D02*
X78843333Y-45162914D01*
X78843333Y-45162914D02*
X78748095Y-45210533D01*
X100266666Y-67124819D02*
X100266666Y-67839104D01*
X100266666Y-67839104D02*
X100219047Y-67981961D01*
X100219047Y-67981961D02*
X100123809Y-68077200D01*
X100123809Y-68077200D02*
X99980952Y-68124819D01*
X99980952Y-68124819D02*
X99885714Y-68124819D01*
X100695238Y-67220057D02*
X100742857Y-67172438D01*
X100742857Y-67172438D02*
X100838095Y-67124819D01*
X100838095Y-67124819D02*
X101076190Y-67124819D01*
X101076190Y-67124819D02*
X101171428Y-67172438D01*
X101171428Y-67172438D02*
X101219047Y-67220057D01*
X101219047Y-67220057D02*
X101266666Y-67315295D01*
X101266666Y-67315295D02*
X101266666Y-67410533D01*
X101266666Y-67410533D02*
X101219047Y-67553390D01*
X101219047Y-67553390D02*
X100647619Y-68124819D01*
X100647619Y-68124819D02*
X101266666Y-68124819D01*
X94284819Y-50476189D02*
X93284819Y-50476189D01*
X94189580Y-49428571D02*
X94237200Y-49476190D01*
X94237200Y-49476190D02*
X94284819Y-49619047D01*
X94284819Y-49619047D02*
X94284819Y-49714285D01*
X94284819Y-49714285D02*
X94237200Y-49857142D01*
X94237200Y-49857142D02*
X94141961Y-49952380D01*
X94141961Y-49952380D02*
X94046723Y-49999999D01*
X94046723Y-49999999D02*
X93856247Y-50047618D01*
X93856247Y-50047618D02*
X93713390Y-50047618D01*
X93713390Y-50047618D02*
X93522914Y-49999999D01*
X93522914Y-49999999D02*
X93427676Y-49952380D01*
X93427676Y-49952380D02*
X93332438Y-49857142D01*
X93332438Y-49857142D02*
X93284819Y-49714285D01*
X93284819Y-49714285D02*
X93284819Y-49619047D01*
X93284819Y-49619047D02*
X93332438Y-49476190D01*
X93332438Y-49476190D02*
X93380057Y-49428571D01*
X94237200Y-49047618D02*
X94284819Y-48904761D01*
X94284819Y-48904761D02*
X94284819Y-48666666D01*
X94284819Y-48666666D02*
X94237200Y-48571428D01*
X94237200Y-48571428D02*
X94189580Y-48523809D01*
X94189580Y-48523809D02*
X94094342Y-48476190D01*
X94094342Y-48476190D02*
X93999104Y-48476190D01*
X93999104Y-48476190D02*
X93903866Y-48523809D01*
X93903866Y-48523809D02*
X93856247Y-48571428D01*
X93856247Y-48571428D02*
X93808628Y-48666666D01*
X93808628Y-48666666D02*
X93761009Y-48857142D01*
X93761009Y-48857142D02*
X93713390Y-48952380D01*
X93713390Y-48952380D02*
X93665771Y-48999999D01*
X93665771Y-48999999D02*
X93570533Y-49047618D01*
X93570533Y-49047618D02*
X93475295Y-49047618D01*
X93475295Y-49047618D02*
X93380057Y-48999999D01*
X93380057Y-48999999D02*
X93332438Y-48952380D01*
X93332438Y-48952380D02*
X93284819Y-48857142D01*
X93284819Y-48857142D02*
X93284819Y-48619047D01*
X93284819Y-48619047D02*
X93332438Y-48476190D01*
X94284819Y-48047618D02*
X93284819Y-48047618D01*
X93284819Y-48047618D02*
X93284819Y-47666666D01*
X93284819Y-47666666D02*
X93332438Y-47571428D01*
X93332438Y-47571428D02*
X93380057Y-47523809D01*
X93380057Y-47523809D02*
X93475295Y-47476190D01*
X93475295Y-47476190D02*
X93618152Y-47476190D01*
X93618152Y-47476190D02*
X93713390Y-47523809D01*
X93713390Y-47523809D02*
X93761009Y-47571428D01*
X93761009Y-47571428D02*
X93808628Y-47666666D01*
X93808628Y-47666666D02*
X93808628Y-48047618D01*
X99954816Y-55666666D02*
X99478625Y-55999999D01*
X99954816Y-56238094D02*
X98954816Y-56238094D01*
X98954816Y-56238094D02*
X98954816Y-55857142D01*
X98954816Y-55857142D02*
X99002435Y-55761904D01*
X99002435Y-55761904D02*
X99050054Y-55714285D01*
X99050054Y-55714285D02*
X99145292Y-55666666D01*
X99145292Y-55666666D02*
X99288149Y-55666666D01*
X99288149Y-55666666D02*
X99383387Y-55714285D01*
X99383387Y-55714285D02*
X99431006Y-55761904D01*
X99431006Y-55761904D02*
X99478625Y-55857142D01*
X99478625Y-55857142D02*
X99478625Y-56238094D01*
X99954816Y-54714285D02*
X99954816Y-55285713D01*
X99954816Y-54999999D02*
X98954816Y-54999999D01*
X98954816Y-54999999D02*
X99097673Y-55095237D01*
X99097673Y-55095237D02*
X99192911Y-55190475D01*
X99192911Y-55190475D02*
X99240530Y-55285713D01*
D13*
%TO.C,C1*%
X97545227Y-63525002D02*
X98045225Y-63525001D01*
X97795227Y-63275001D02*
X97795226Y-63774999D01*
X100350003Y-62420000D02*
X100349999Y-67580000D01*
X100389999Y-62420000D02*
X100390003Y-67580001D01*
X100429998Y-62421000D02*
X100430002Y-67579002D01*
X100470000Y-62422002D02*
X100470001Y-67578002D01*
X100510002Y-62423999D02*
X100510000Y-67575999D01*
X100550001Y-62427001D02*
X100550001Y-67573001D01*
X100590002Y-62431001D02*
X100589999Y-63960001D01*
X100590004Y-66039999D02*
X100590003Y-67569003D01*
X100630000Y-66040000D02*
X100630001Y-67565000D01*
X100630002Y-62435001D02*
X100630002Y-63960001D01*
X100669999Y-62439001D02*
X100670001Y-63960001D01*
X100670001Y-66040001D02*
X100670003Y-67561000D01*
X100710002Y-66040002D02*
X100710003Y-67556001D01*
X100710003Y-62444002D02*
X100709996Y-63960000D01*
X100750001Y-66040003D02*
X100749999Y-67550002D01*
X100750002Y-62450001D02*
X100750001Y-63960003D01*
X100790000Y-66040001D02*
X100790000Y-67543002D01*
X100790002Y-62457003D02*
X100790002Y-63959999D01*
X100830001Y-62464000D02*
X100830000Y-63960002D01*
X100830003Y-66040002D02*
X100830004Y-67536002D01*
X100870002Y-62472000D02*
X100870000Y-63960002D01*
X100870002Y-66040001D02*
X100870000Y-67528000D01*
X100910000Y-62480002D02*
X100910000Y-63960005D01*
X100910001Y-66040003D02*
X100910001Y-67520001D01*
X100950001Y-62489000D02*
X100950001Y-63959999D01*
X100950003Y-66040000D02*
X100950001Y-67511002D01*
X100990001Y-66040001D02*
X100990000Y-67501002D01*
X100990002Y-62499003D02*
X100990001Y-63960001D01*
X101030001Y-62509000D02*
X101030002Y-63959999D01*
X101030001Y-66040000D02*
X101030002Y-67490999D01*
X101071001Y-62520001D02*
X101071000Y-63960001D01*
X101071002Y-66040001D02*
X101071002Y-67480001D01*
X101111001Y-66039999D02*
X101111000Y-67467999D01*
X101111003Y-62532000D02*
X101111003Y-63959999D01*
X101151001Y-62545001D02*
X101151000Y-63960001D01*
X101151002Y-66040001D02*
X101151001Y-67455001D01*
X101191002Y-62558001D02*
X101191002Y-63960002D01*
X101191004Y-66040000D02*
X101190999Y-67441999D01*
X101231001Y-66040002D02*
X101231000Y-67428000D01*
X101231004Y-62572001D02*
X101231001Y-63960000D01*
X101271000Y-66040000D02*
X101271001Y-67414000D01*
X101271002Y-62586000D02*
X101271001Y-63959999D01*
X101311002Y-62602000D02*
X101310999Y-63960001D01*
X101311003Y-66040000D02*
X101311000Y-67398000D01*
X101351000Y-62618001D02*
X101351000Y-63960001D01*
X101351000Y-66040001D02*
X101351000Y-67382002D01*
X101391001Y-66040002D02*
X101390999Y-67365003D01*
X101391002Y-62635003D02*
X101391000Y-63960002D01*
X101431000Y-66040003D02*
X101431001Y-67348001D01*
X101431001Y-62652001D02*
X101431000Y-63960005D01*
X101471002Y-62671001D02*
X101470998Y-63960001D01*
X101471003Y-66040004D02*
X101471001Y-67329001D01*
X101511000Y-66040000D02*
X101511000Y-67310001D01*
X101511002Y-62690001D02*
X101511002Y-63960001D01*
X101551000Y-66040004D02*
X101551000Y-67290002D01*
X101551002Y-62710001D02*
X101551002Y-63960000D01*
X101591001Y-62732001D02*
X101591000Y-63960002D01*
X101591001Y-66040002D02*
X101591001Y-67268001D01*
X101631001Y-62753000D02*
X101631001Y-63960000D01*
X101631001Y-66039998D02*
X101631001Y-67247000D01*
X101671001Y-62776002D02*
X101671002Y-63959999D01*
X101671002Y-66039997D02*
X101671002Y-67224001D01*
X101711002Y-62800004D02*
X101711002Y-63960002D01*
X101711002Y-66040003D02*
X101711002Y-67200000D01*
X101750999Y-62825001D02*
X101751002Y-63960000D01*
X101751001Y-66040000D02*
X101751002Y-67175000D01*
X101790998Y-62851001D02*
X101791001Y-63959999D01*
X101791002Y-66040000D02*
X101791002Y-67149000D01*
X101831000Y-62878002D02*
X101831002Y-63960000D01*
X101831002Y-66039998D02*
X101831000Y-67122002D01*
X101870999Y-66040002D02*
X101871002Y-67094999D01*
X101871000Y-62905000D02*
X101871001Y-63960001D01*
X101911001Y-62935000D02*
X101911000Y-63959999D01*
X101911002Y-66040000D02*
X101911001Y-67065001D01*
X101950999Y-66040002D02*
X101951000Y-67035001D01*
X101951000Y-62965002D02*
X101951002Y-63960002D01*
X101991000Y-66040000D02*
X101991000Y-67004002D01*
X101991002Y-62996003D02*
X101991001Y-63960001D01*
X102031000Y-63029000D02*
X102031000Y-63960000D01*
X102031002Y-66040002D02*
X102031002Y-66971001D01*
X102071001Y-66040002D02*
X102070999Y-66937000D01*
X102071003Y-63063002D02*
X102071001Y-63960002D01*
X102111000Y-66040002D02*
X102111000Y-66901003D01*
X102111003Y-63099002D02*
X102111000Y-63960002D01*
X102151002Y-63136002D02*
X102151000Y-63960001D01*
X102151002Y-66040002D02*
X102151000Y-66864000D01*
X102191001Y-63174001D02*
X102191000Y-63960001D01*
X102191002Y-66040001D02*
X102191001Y-66826001D01*
X102230998Y-63215000D02*
X102231001Y-63960001D01*
X102231001Y-66040001D02*
X102231001Y-66785001D01*
X102271000Y-66040001D02*
X102270999Y-66743000D01*
X102271002Y-63257002D02*
X102271001Y-63960002D01*
X102311001Y-66040000D02*
X102310999Y-66699000D01*
X102311003Y-63301001D02*
X102311002Y-63959999D01*
X102351002Y-63347001D02*
X102351001Y-63960002D01*
X102351002Y-66040003D02*
X102351002Y-66653001D01*
X102391003Y-63395001D02*
X102390999Y-63960001D01*
X102391003Y-66040002D02*
X102391000Y-66604999D01*
X102430999Y-66040001D02*
X102431003Y-66554003D01*
X102431002Y-63446003D02*
X102431003Y-63960002D01*
X102471001Y-63500003D02*
X102471001Y-63960002D01*
X102471002Y-66040000D02*
X102471002Y-66500003D01*
X102510999Y-63557001D02*
X102511000Y-63960002D01*
X102511001Y-66040003D02*
X102511004Y-66443001D01*
X102551000Y-66040000D02*
X102550999Y-66383001D01*
X102551003Y-63617001D02*
X102551002Y-63959999D01*
X102591000Y-66040001D02*
X102591002Y-66319003D01*
X102591003Y-63681002D02*
X102591002Y-63960002D01*
X102631002Y-66040000D02*
X102631000Y-66251000D01*
X102631003Y-63749000D02*
X102631000Y-63960001D01*
X102671000Y-63822001D02*
X102671001Y-66178002D01*
X102711002Y-63902002D02*
X102711000Y-66098003D01*
X102750998Y-63989001D02*
X102751003Y-66011001D01*
X102791001Y-64084998D02*
X102791002Y-65914998D01*
X102831000Y-64195000D02*
X102831003Y-65804999D01*
X102870998Y-64323002D02*
X102871002Y-65677004D01*
X102911003Y-64482002D02*
X102911001Y-65518002D01*
X102951002Y-64715999D02*
X102951001Y-65284000D01*
X102970002Y-65000000D02*
G75*
G02*
X97729994Y-65000000I-2620004J0D01*
G01*
X97729994Y-65000000D02*
G75*
G02*
X102970002Y-65000000I2620004J0D01*
G01*
%TO.C,A1*%
X78600000Y-66060000D02*
X78600000Y-68730000D01*
X78600000Y-71270000D02*
X78600000Y-109500000D01*
X78600000Y-109500000D02*
X83680000Y-109500000D01*
X81270000Y-68730000D02*
X78600000Y-68730000D01*
X81270000Y-71270000D02*
X78600000Y-71270000D01*
X81270000Y-71270000D02*
X81270000Y-68730000D01*
X81270000Y-71270000D02*
X81270000Y-106830000D01*
X81270000Y-106830000D02*
X78600000Y-106830000D01*
X83680000Y-101620000D02*
X91560000Y-101620000D01*
X83680000Y-112040000D02*
X83680000Y-101620000D01*
X91560000Y-101620000D02*
X91560000Y-112040000D01*
X91560000Y-112040000D02*
X83680000Y-112040000D01*
X93970000Y-68730000D02*
X93970000Y-106830000D01*
X93970000Y-68730000D02*
X96640000Y-68730000D01*
X93970000Y-106830000D02*
X96640000Y-106830000D01*
X96640000Y-66060000D02*
X78600000Y-66060000D01*
X96640000Y-109500000D02*
X91560000Y-109500000D01*
X96640000Y-109500000D02*
X96640000Y-66060000D01*
%TO.C,J1*%
X73470000Y-68670000D02*
X74800000Y-68670000D01*
X73470000Y-70000000D02*
X73470000Y-68670000D01*
X73470000Y-71270000D02*
X73470000Y-106890000D01*
X73470000Y-71270000D02*
X76130000Y-71270000D01*
X73470000Y-106890000D02*
X76130000Y-106890000D01*
X76130000Y-71270000D02*
X76130000Y-106890000D01*
%TO.C,U1*%
X75860000Y-46470000D02*
X75860000Y-64370000D01*
X75860000Y-64370000D02*
X81160000Y-64370000D01*
X77510000Y-46470000D02*
X75860000Y-46470000D01*
X81160000Y-46470000D02*
X79510000Y-46470000D01*
X81160000Y-64370000D02*
X81160000Y-46470000D01*
X79510000Y-46470000D02*
G75*
G02*
X77510000Y-46470000I-1000000J0D01*
G01*
%TO.C,J2*%
X99270000Y-68670000D02*
X100600000Y-68670000D01*
X99270000Y-70000000D02*
X99270000Y-68670000D01*
X99270000Y-71270000D02*
X99270000Y-106890000D01*
X99270000Y-71270000D02*
X101930000Y-71270000D01*
X99270000Y-106890000D02*
X101930000Y-106890000D01*
X101930000Y-71270000D02*
X101930000Y-106890000D01*
%TO.C,J3*%
X85090000Y-46130000D02*
X92830000Y-46130000D01*
X85090000Y-48730000D02*
X85090000Y-46130000D01*
X85090000Y-51330000D02*
X85090000Y-50000000D01*
X86420000Y-51330000D02*
X85090000Y-51330000D01*
X87690000Y-48730000D02*
X85090000Y-48730000D01*
X87690000Y-51330000D02*
X87690000Y-48730000D01*
X87690000Y-51330000D02*
X92830000Y-51330000D01*
X92830000Y-51330000D02*
X92830000Y-46130000D01*
D10*
%TO.C,G\u002A\u002A\u002A*%
G36*
X90972517Y-54632944D02*
G01*
X91065511Y-54706999D01*
X91121503Y-54791409D01*
X91147625Y-54882107D01*
X91132672Y-54981818D01*
X91108743Y-55040620D01*
X91040153Y-55131203D01*
X90938878Y-55184454D01*
X90823075Y-55199704D01*
X90746839Y-55191783D01*
X90685787Y-55160840D01*
X90634147Y-55114620D01*
X90578783Y-55050184D01*
X90554098Y-54989037D01*
X90550113Y-54933903D01*
X90657424Y-54933903D01*
X90683636Y-54984277D01*
X90719756Y-55023902D01*
X90798332Y-55083327D01*
X90870473Y-55094500D01*
X90941786Y-55057751D01*
X90963107Y-55038181D01*
X91011996Y-54961411D01*
X91021750Y-54879223D01*
X90996762Y-54804042D01*
X90941424Y-54748292D01*
X90860127Y-54724400D01*
X90852131Y-54724236D01*
X90762329Y-54747199D01*
X90692666Y-54808668D01*
X90660187Y-54880010D01*
X90657424Y-54933903D01*
X90550113Y-54933903D01*
X90549157Y-54920679D01*
X90568983Y-54796319D01*
X90625022Y-54698052D01*
X90712461Y-54633495D01*
X90736443Y-54624238D01*
X90861802Y-54604912D01*
X90972517Y-54632944D01*
G37*
G36*
X92475585Y-55976253D02*
G01*
X92475960Y-55984225D01*
X92462121Y-56023264D01*
X92427016Y-56083856D01*
X92404611Y-56116502D01*
X92261577Y-56272464D01*
X92085645Y-56395447D01*
X91883557Y-56483027D01*
X91662053Y-56532784D01*
X91427872Y-56542295D01*
X91267647Y-56525015D01*
X91145021Y-56492336D01*
X91006137Y-56436896D01*
X90871953Y-56368372D01*
X90763428Y-56296436D01*
X90751792Y-56286912D01*
X90684292Y-56221848D01*
X90618457Y-56145307D01*
X90563898Y-56070060D01*
X90530223Y-56008876D01*
X90524039Y-55984225D01*
X90538207Y-55952402D01*
X90580591Y-55961690D01*
X90651010Y-56011988D01*
X90749283Y-56103193D01*
X90767868Y-56121867D01*
X90892313Y-56237159D01*
X91010059Y-56318505D01*
X91134172Y-56371059D01*
X91277717Y-56399978D01*
X91453759Y-56410415D01*
X91500000Y-56410744D01*
X91685320Y-56403812D01*
X91835151Y-56379580D01*
X91962560Y-56332891D01*
X92080611Y-56258592D01*
X92202369Y-56151527D01*
X92232131Y-56121867D01*
X92334913Y-56024026D01*
X92409869Y-55967075D01*
X92456821Y-55951117D01*
X92475585Y-55976253D01*
G37*
G36*
X92316951Y-54650442D02*
G01*
X92395645Y-54728637D01*
X92441747Y-54837076D01*
X92450842Y-54920679D01*
X92443818Y-54998608D01*
X92415371Y-55058704D01*
X92365852Y-55114620D01*
X92302123Y-55169621D01*
X92242239Y-55194051D01*
X92171911Y-55198702D01*
X92086738Y-55189716D01*
X92011475Y-55168672D01*
X91997526Y-55162090D01*
X91936095Y-55107045D01*
X91884049Y-55023903D01*
X91853679Y-54934534D01*
X91850374Y-54900546D01*
X91975468Y-54900546D01*
X91994956Y-54976179D01*
X92043989Y-55044694D01*
X92108420Y-55090083D01*
X92151427Y-55099605D01*
X92201827Y-55082627D01*
X92262615Y-55040270D01*
X92280243Y-55023902D01*
X92329387Y-54965760D01*
X92344507Y-54916295D01*
X92339812Y-54880010D01*
X92301185Y-54798698D01*
X92238881Y-54748119D01*
X92164485Y-54727618D01*
X92089582Y-54736545D01*
X92025759Y-54774244D01*
X91984599Y-54840064D01*
X91975468Y-54900546D01*
X91850374Y-54900546D01*
X91850344Y-54900237D01*
X91872575Y-54803262D01*
X91930698Y-54711792D01*
X92011860Y-54641390D01*
X92090450Y-54609529D01*
X92212830Y-54608677D01*
X92316951Y-54650442D01*
G37*
G36*
X91717162Y-53637215D02*
G01*
X91998701Y-53692740D01*
X92266349Y-53790152D01*
X92515752Y-53926731D01*
X92742555Y-54099760D01*
X92942403Y-54306518D01*
X93110940Y-54544287D01*
X93243813Y-54810349D01*
X93317979Y-55028770D01*
X93343265Y-55160890D01*
X93358301Y-55325488D01*
X93363087Y-55506051D01*
X93357623Y-55686068D01*
X93341910Y-55849028D01*
X93317979Y-55971230D01*
X93214562Y-56257576D01*
X93071298Y-56518584D01*
X92892410Y-56751026D01*
X92682121Y-56951672D01*
X92444656Y-57117292D01*
X92184239Y-57244657D01*
X91905091Y-57330537D01*
X91611438Y-57371702D01*
X91482286Y-57374857D01*
X91358613Y-57368804D01*
X91227278Y-57354950D01*
X91124630Y-57337815D01*
X90829624Y-57249553D01*
X90557928Y-57118694D01*
X90313136Y-56948641D01*
X90098841Y-56742798D01*
X89918636Y-56504568D01*
X89776115Y-56237356D01*
X89682020Y-55971230D01*
X89656734Y-55839109D01*
X89641698Y-55674512D01*
X89637072Y-55500000D01*
X89748275Y-55500000D01*
X89772116Y-55793566D01*
X89841492Y-56072170D01*
X89953184Y-56331630D01*
X90103974Y-56567764D01*
X90290643Y-56776393D01*
X90509972Y-56953333D01*
X90758742Y-57094406D01*
X91033736Y-57195428D01*
X91058616Y-57202139D01*
X91252338Y-57237141D01*
X91470067Y-57250547D01*
X91690643Y-57242327D01*
X91892910Y-57212454D01*
X91931528Y-57203312D01*
X92209984Y-57107461D01*
X92462378Y-56971200D01*
X92685532Y-56798631D01*
X92876265Y-56593857D01*
X93031398Y-56360980D01*
X93147751Y-56104103D01*
X93222144Y-55827328D01*
X93251397Y-55534758D01*
X93251724Y-55500000D01*
X93228194Y-55206163D01*
X93159985Y-54929194D01*
X93050671Y-54672665D01*
X92903824Y-54440148D01*
X92723018Y-54235218D01*
X92511824Y-54061447D01*
X92273817Y-53922407D01*
X92012569Y-53821672D01*
X91731652Y-53762815D01*
X91500000Y-53748275D01*
X91206163Y-53771806D01*
X90929194Y-53840014D01*
X90672665Y-53949328D01*
X90440148Y-54096175D01*
X90235218Y-54276981D01*
X90061447Y-54488175D01*
X89922407Y-54726182D01*
X89821672Y-54987430D01*
X89762815Y-55268347D01*
X89748275Y-55500000D01*
X89637072Y-55500000D01*
X89636912Y-55493948D01*
X89642376Y-55313931D01*
X89658089Y-55150971D01*
X89682020Y-55028770D01*
X89786447Y-54739661D01*
X89931581Y-54475866D01*
X90113638Y-54240953D01*
X90328831Y-54038496D01*
X90573377Y-53872065D01*
X90843489Y-53745232D01*
X91129831Y-53662697D01*
X91426087Y-53626294D01*
X91717162Y-53637215D01*
G37*
G36*
X77972517Y-47632944D02*
G01*
X78065511Y-47706999D01*
X78121503Y-47791409D01*
X78147625Y-47882107D01*
X78132672Y-47981818D01*
X78108743Y-48040620D01*
X78040153Y-48131203D01*
X77938878Y-48184454D01*
X77823075Y-48199704D01*
X77746839Y-48191783D01*
X77685787Y-48160840D01*
X77634147Y-48114620D01*
X77578783Y-48050184D01*
X77554098Y-47989037D01*
X77550113Y-47933903D01*
X77657424Y-47933903D01*
X77683636Y-47984277D01*
X77719756Y-48023902D01*
X77798332Y-48083327D01*
X77870473Y-48094500D01*
X77941786Y-48057751D01*
X77963107Y-48038181D01*
X78011996Y-47961411D01*
X78021750Y-47879223D01*
X77996762Y-47804042D01*
X77941424Y-47748292D01*
X77860127Y-47724400D01*
X77852131Y-47724236D01*
X77762329Y-47747199D01*
X77692666Y-47808668D01*
X77660187Y-47880010D01*
X77657424Y-47933903D01*
X77550113Y-47933903D01*
X77549157Y-47920679D01*
X77568983Y-47796319D01*
X77625022Y-47698052D01*
X77712461Y-47633495D01*
X77736443Y-47624238D01*
X77861802Y-47604912D01*
X77972517Y-47632944D01*
G37*
G36*
X79475585Y-48976253D02*
G01*
X79475960Y-48984225D01*
X79462121Y-49023264D01*
X79427016Y-49083856D01*
X79404611Y-49116502D01*
X79261577Y-49272464D01*
X79085645Y-49395447D01*
X78883557Y-49483027D01*
X78662053Y-49532784D01*
X78427872Y-49542295D01*
X78267647Y-49525015D01*
X78145021Y-49492336D01*
X78006137Y-49436896D01*
X77871953Y-49368372D01*
X77763428Y-49296436D01*
X77751792Y-49286912D01*
X77684292Y-49221848D01*
X77618457Y-49145307D01*
X77563898Y-49070060D01*
X77530223Y-49008876D01*
X77524039Y-48984225D01*
X77538207Y-48952402D01*
X77580591Y-48961690D01*
X77651010Y-49011988D01*
X77749283Y-49103193D01*
X77767868Y-49121867D01*
X77892313Y-49237159D01*
X78010059Y-49318505D01*
X78134172Y-49371059D01*
X78277717Y-49399978D01*
X78453759Y-49410415D01*
X78500000Y-49410744D01*
X78685320Y-49403812D01*
X78835151Y-49379580D01*
X78962560Y-49332891D01*
X79080611Y-49258592D01*
X79202369Y-49151527D01*
X79232131Y-49121867D01*
X79334913Y-49024026D01*
X79409869Y-48967075D01*
X79456821Y-48951117D01*
X79475585Y-48976253D01*
G37*
G36*
X79316951Y-47650442D02*
G01*
X79395645Y-47728637D01*
X79441747Y-47837076D01*
X79450842Y-47920679D01*
X79443818Y-47998608D01*
X79415371Y-48058704D01*
X79365852Y-48114620D01*
X79302123Y-48169621D01*
X79242239Y-48194051D01*
X79171911Y-48198702D01*
X79086738Y-48189716D01*
X79011475Y-48168672D01*
X78997526Y-48162090D01*
X78936095Y-48107045D01*
X78884049Y-48023903D01*
X78853679Y-47934534D01*
X78850374Y-47900546D01*
X78975468Y-47900546D01*
X78994956Y-47976179D01*
X79043989Y-48044694D01*
X79108420Y-48090083D01*
X79151427Y-48099605D01*
X79201827Y-48082627D01*
X79262615Y-48040270D01*
X79280243Y-48023902D01*
X79329387Y-47965760D01*
X79344507Y-47916295D01*
X79339812Y-47880010D01*
X79301185Y-47798698D01*
X79238881Y-47748119D01*
X79164485Y-47727618D01*
X79089582Y-47736545D01*
X79025759Y-47774244D01*
X78984599Y-47840064D01*
X78975468Y-47900546D01*
X78850374Y-47900546D01*
X78850344Y-47900237D01*
X78872575Y-47803262D01*
X78930698Y-47711792D01*
X79011860Y-47641390D01*
X79090450Y-47609529D01*
X79212830Y-47608677D01*
X79316951Y-47650442D01*
G37*
G36*
X78717162Y-46637215D02*
G01*
X78998701Y-46692740D01*
X79266349Y-46790152D01*
X79515752Y-46926731D01*
X79742555Y-47099760D01*
X79942403Y-47306518D01*
X80110940Y-47544287D01*
X80243813Y-47810349D01*
X80317979Y-48028770D01*
X80343265Y-48160890D01*
X80358301Y-48325488D01*
X80363087Y-48506051D01*
X80357623Y-48686068D01*
X80341910Y-48849028D01*
X80317979Y-48971230D01*
X80214562Y-49257576D01*
X80071298Y-49518584D01*
X79892410Y-49751026D01*
X79682121Y-49951672D01*
X79444656Y-50117292D01*
X79184239Y-50244657D01*
X78905091Y-50330537D01*
X78611438Y-50371702D01*
X78482286Y-50374857D01*
X78358613Y-50368804D01*
X78227278Y-50354950D01*
X78124630Y-50337815D01*
X77829624Y-50249553D01*
X77557928Y-50118694D01*
X77313136Y-49948641D01*
X77098841Y-49742798D01*
X76918636Y-49504568D01*
X76776115Y-49237356D01*
X76682020Y-48971230D01*
X76656734Y-48839109D01*
X76641698Y-48674512D01*
X76637072Y-48500000D01*
X76748275Y-48500000D01*
X76772116Y-48793566D01*
X76841492Y-49072170D01*
X76953184Y-49331630D01*
X77103974Y-49567764D01*
X77290643Y-49776393D01*
X77509972Y-49953333D01*
X77758742Y-50094406D01*
X78033736Y-50195428D01*
X78058616Y-50202139D01*
X78252338Y-50237141D01*
X78470067Y-50250547D01*
X78690643Y-50242327D01*
X78892910Y-50212454D01*
X78931528Y-50203312D01*
X79209984Y-50107461D01*
X79462378Y-49971200D01*
X79685532Y-49798631D01*
X79876265Y-49593857D01*
X80031398Y-49360980D01*
X80147751Y-49104103D01*
X80222144Y-48827328D01*
X80251397Y-48534758D01*
X80251724Y-48500000D01*
X80228194Y-48206163D01*
X80159985Y-47929194D01*
X80050671Y-47672665D01*
X79903824Y-47440148D01*
X79723018Y-47235218D01*
X79511824Y-47061447D01*
X79273817Y-46922407D01*
X79012569Y-46821672D01*
X78731652Y-46762815D01*
X78500000Y-46748275D01*
X78206163Y-46771806D01*
X77929194Y-46840014D01*
X77672665Y-46949328D01*
X77440148Y-47096175D01*
X77235218Y-47276981D01*
X77061447Y-47488175D01*
X76922407Y-47726182D01*
X76821672Y-47987430D01*
X76762815Y-48268347D01*
X76748275Y-48500000D01*
X76637072Y-48500000D01*
X76636912Y-48493948D01*
X76642376Y-48313931D01*
X76658089Y-48150971D01*
X76682020Y-48028770D01*
X76786447Y-47739661D01*
X76931581Y-47475866D01*
X77113638Y-47240953D01*
X77328831Y-47038496D01*
X77573377Y-46872065D01*
X77843489Y-46745232D01*
X78129831Y-46662697D01*
X78426087Y-46626294D01*
X78717162Y-46637215D01*
G37*
D13*
%TO.C,U2*%
X88559996Y-63749996D02*
X93859996Y-63749998D01*
X88559999Y-53470000D02*
X88559996Y-63749996D01*
X90210001Y-53470006D02*
X88559999Y-53470000D01*
X93859996Y-63749998D02*
X93859997Y-53469995D01*
X93859997Y-53469995D02*
X92210002Y-53470000D01*
X92210002Y-53470000D02*
G75*
G02*
X90209998Y-53470006I-1000002J0D01*
G01*
%TO.C,D1*%
X96420000Y-48210000D02*
X96101000Y-48210000D01*
X98899000Y-48210000D02*
X98580000Y-48210000D01*
X96419039Y-51952713D02*
G75*
G02*
X96420000Y-48586670I1080961J1682713D01*
G01*
X96419276Y-52513242D02*
G75*
G02*
X96101251Y-48210001I1080722J2243241D01*
G01*
X98580000Y-48586670D02*
G75*
G02*
X98580961Y-51952713I-1079998J-1683330D01*
G01*
X98898749Y-48210001D02*
G75*
G02*
X98580724Y-52513241I-1398749J-2059999D01*
G01*
D10*
%TO.C,G\u002A\u002A\u002A*%
G36*
X86972517Y-105132944D02*
G01*
X87065511Y-105206999D01*
X87121503Y-105291409D01*
X87147625Y-105382107D01*
X87132672Y-105481818D01*
X87108743Y-105540620D01*
X87040153Y-105631203D01*
X86938878Y-105684454D01*
X86823075Y-105699704D01*
X86746839Y-105691783D01*
X86685787Y-105660840D01*
X86634147Y-105614620D01*
X86578783Y-105550184D01*
X86554098Y-105489037D01*
X86550113Y-105433903D01*
X86657424Y-105433903D01*
X86683636Y-105484277D01*
X86719756Y-105523902D01*
X86798332Y-105583327D01*
X86870473Y-105594500D01*
X86941786Y-105557751D01*
X86963107Y-105538181D01*
X87011996Y-105461411D01*
X87021750Y-105379223D01*
X86996762Y-105304042D01*
X86941424Y-105248292D01*
X86860127Y-105224400D01*
X86852131Y-105224236D01*
X86762329Y-105247199D01*
X86692666Y-105308668D01*
X86660187Y-105380010D01*
X86657424Y-105433903D01*
X86550113Y-105433903D01*
X86549157Y-105420679D01*
X86568983Y-105296319D01*
X86625022Y-105198052D01*
X86712461Y-105133495D01*
X86736443Y-105124238D01*
X86861802Y-105104912D01*
X86972517Y-105132944D01*
G37*
G36*
X88475585Y-106476253D02*
G01*
X88475960Y-106484225D01*
X88462121Y-106523264D01*
X88427016Y-106583856D01*
X88404611Y-106616502D01*
X88261577Y-106772464D01*
X88085645Y-106895447D01*
X87883557Y-106983027D01*
X87662053Y-107032784D01*
X87427872Y-107042295D01*
X87267647Y-107025015D01*
X87145021Y-106992336D01*
X87006137Y-106936896D01*
X86871953Y-106868372D01*
X86763428Y-106796436D01*
X86751792Y-106786912D01*
X86684292Y-106721848D01*
X86618457Y-106645307D01*
X86563898Y-106570060D01*
X86530223Y-106508876D01*
X86524039Y-106484225D01*
X86538207Y-106452402D01*
X86580591Y-106461690D01*
X86651010Y-106511988D01*
X86749283Y-106603193D01*
X86767868Y-106621867D01*
X86892313Y-106737159D01*
X87010059Y-106818505D01*
X87134172Y-106871059D01*
X87277717Y-106899978D01*
X87453759Y-106910415D01*
X87500000Y-106910744D01*
X87685320Y-106903812D01*
X87835151Y-106879580D01*
X87962560Y-106832891D01*
X88080611Y-106758592D01*
X88202369Y-106651527D01*
X88232131Y-106621867D01*
X88334913Y-106524026D01*
X88409869Y-106467075D01*
X88456821Y-106451117D01*
X88475585Y-106476253D01*
G37*
G36*
X88316951Y-105150442D02*
G01*
X88395645Y-105228637D01*
X88441747Y-105337076D01*
X88450842Y-105420679D01*
X88443818Y-105498608D01*
X88415371Y-105558704D01*
X88365852Y-105614620D01*
X88302123Y-105669621D01*
X88242239Y-105694051D01*
X88171911Y-105698702D01*
X88086738Y-105689716D01*
X88011475Y-105668672D01*
X87997526Y-105662090D01*
X87936095Y-105607045D01*
X87884049Y-105523903D01*
X87853679Y-105434534D01*
X87850374Y-105400546D01*
X87975468Y-105400546D01*
X87994956Y-105476179D01*
X88043989Y-105544694D01*
X88108420Y-105590083D01*
X88151427Y-105599605D01*
X88201827Y-105582627D01*
X88262615Y-105540270D01*
X88280243Y-105523902D01*
X88329387Y-105465760D01*
X88344507Y-105416295D01*
X88339812Y-105380010D01*
X88301185Y-105298698D01*
X88238881Y-105248119D01*
X88164485Y-105227618D01*
X88089582Y-105236545D01*
X88025759Y-105274244D01*
X87984599Y-105340064D01*
X87975468Y-105400546D01*
X87850374Y-105400546D01*
X87850344Y-105400237D01*
X87872575Y-105303262D01*
X87930698Y-105211792D01*
X88011860Y-105141390D01*
X88090450Y-105109529D01*
X88212830Y-105108677D01*
X88316951Y-105150442D01*
G37*
G36*
X87717162Y-104137215D02*
G01*
X87998701Y-104192740D01*
X88266349Y-104290152D01*
X88515752Y-104426731D01*
X88742555Y-104599760D01*
X88942403Y-104806518D01*
X89110940Y-105044287D01*
X89243813Y-105310349D01*
X89317979Y-105528770D01*
X89343265Y-105660890D01*
X89358301Y-105825488D01*
X89363087Y-106006051D01*
X89357623Y-106186068D01*
X89341910Y-106349028D01*
X89317979Y-106471230D01*
X89214562Y-106757576D01*
X89071298Y-107018584D01*
X88892410Y-107251026D01*
X88682121Y-107451672D01*
X88444656Y-107617292D01*
X88184239Y-107744657D01*
X87905091Y-107830537D01*
X87611438Y-107871702D01*
X87482286Y-107874857D01*
X87358613Y-107868804D01*
X87227278Y-107854950D01*
X87124630Y-107837815D01*
X86829624Y-107749553D01*
X86557928Y-107618694D01*
X86313136Y-107448641D01*
X86098841Y-107242798D01*
X85918636Y-107004568D01*
X85776115Y-106737356D01*
X85682020Y-106471230D01*
X85656734Y-106339109D01*
X85641698Y-106174512D01*
X85637072Y-106000000D01*
X85748275Y-106000000D01*
X85772116Y-106293566D01*
X85841492Y-106572170D01*
X85953184Y-106831630D01*
X86103974Y-107067764D01*
X86290643Y-107276393D01*
X86509972Y-107453333D01*
X86758742Y-107594406D01*
X87033736Y-107695428D01*
X87058616Y-107702139D01*
X87252338Y-107737141D01*
X87470067Y-107750547D01*
X87690643Y-107742327D01*
X87892910Y-107712454D01*
X87931528Y-107703312D01*
X88209984Y-107607461D01*
X88462378Y-107471200D01*
X88685532Y-107298631D01*
X88876265Y-107093857D01*
X89031398Y-106860980D01*
X89147751Y-106604103D01*
X89222144Y-106327328D01*
X89251397Y-106034758D01*
X89251724Y-106000000D01*
X89228194Y-105706163D01*
X89159985Y-105429194D01*
X89050671Y-105172665D01*
X88903824Y-104940148D01*
X88723018Y-104735218D01*
X88511824Y-104561447D01*
X88273817Y-104422407D01*
X88012569Y-104321672D01*
X87731652Y-104262815D01*
X87500000Y-104248275D01*
X87206163Y-104271806D01*
X86929194Y-104340014D01*
X86672665Y-104449328D01*
X86440148Y-104596175D01*
X86235218Y-104776981D01*
X86061447Y-104988175D01*
X85922407Y-105226182D01*
X85821672Y-105487430D01*
X85762815Y-105768347D01*
X85748275Y-106000000D01*
X85637072Y-106000000D01*
X85636912Y-105993948D01*
X85642376Y-105813931D01*
X85658089Y-105650971D01*
X85682020Y-105528770D01*
X85786447Y-105239661D01*
X85931581Y-104975866D01*
X86113638Y-104740953D01*
X86328831Y-104538496D01*
X86573377Y-104372065D01*
X86843489Y-104245232D01*
X87129831Y-104162697D01*
X87426087Y-104126294D01*
X87717162Y-104137215D01*
G37*
D13*
%TO.C,R1*%
X100629996Y-52729998D02*
X100630000Y-59270001D01*
X100630000Y-59270001D02*
X103370002Y-59269999D01*
X101999995Y-60039996D02*
X101999993Y-59269999D01*
X101999997Y-51959998D02*
X101999997Y-52729998D01*
X103369997Y-52729998D02*
X100629996Y-52729998D01*
X103370002Y-59269999D02*
X103369997Y-52729998D01*
%TD*%
M02*
