M48
; DRILL file {KiCad 8.0.7} date 2025-02-21T23:23:46-0800
; FORMAT={-:-/ absolute / inch / decimal}
; #@! TF.CreationDate,2025-02-21T23:23:46-08:00
; #@! TF.GenerationSoftware,Kicad,Pcbnew,8.0.7
; #@! TF.FileFunction,Plated,1,2,PTH
FMAT,2
INCH
; #@! TA.AperFunction,Plated,PTH,ComponentDrill
T1C0.0310
; #@! TA.AperFunction,Plated,PTH,ComponentDrill
T2C0.0315
; #@! TA.AperFunction,Plated,PTH,ComponentDrill
T3C0.0354
; #@! TA.AperFunction,Plated,PTH,ComponentDrill
T4C0.0394
; #@! TA.AperFunction,Plated,PTH,ComponentDrill
T5C0.0590
%
G90
G05
T1
X4.0433Y-2.4134
X4.0433Y-2.4921
X4.0433Y-2.5709
T2
X2.8368Y-1.8951
X2.8368Y-2.1951
X2.8404Y-2.4665
X2.9368Y-1.8951
X2.9368Y-2.1951
X3.0368Y-1.8951
X3.0368Y-2.1951
X3.1368Y-1.8951
X3.1368Y-2.1951
X3.2368Y-1.8951
X3.2368Y-2.1951
X3.2404Y-2.4665
X3.3368Y-1.8951
X3.3368Y-2.1951
X3.4368Y-1.8951
X3.4368Y-2.1951
X3.6982Y-1.8939
X3.6982Y-2.1939
X3.7441Y-2.4764
X3.7982Y-1.8939
X3.7982Y-2.1939
X3.8425Y-2.4764
X3.8982Y-1.8939
X3.8982Y-2.1939
X3.9982Y-2.1939
X3.9982Y-1.8939
T3
X3.4085Y-2.4675
X3.5085Y-2.4675
T4
X2.9449Y-2.7559
X2.9449Y-2.8559
X2.9449Y-2.9559
X2.9449Y-3.0559
X2.9449Y-3.1559
X2.9449Y-3.2559
X2.9449Y-3.3559
X2.9449Y-3.4559
X2.9449Y-3.5559
X2.9449Y-3.6559
X2.9449Y-3.7559
X2.9449Y-3.8559
X2.9449Y-3.9559
X2.9449Y-4.0559
X2.9449Y-4.1559
X3.1496Y-2.7559
X3.1496Y-2.8559
X3.1496Y-2.9559
X3.1496Y-3.0559
X3.1496Y-3.1559
X3.1496Y-3.2559
X3.1496Y-3.3559
X3.1496Y-3.4559
X3.1496Y-3.5559
X3.1496Y-3.6559
X3.1496Y-3.7559
X3.1496Y-3.8559
X3.1496Y-3.9559
X3.1496Y-4.0559
X3.1496Y-4.1559
X3.4301Y-1.527
X3.4301Y-1.627
X3.5301Y-1.527
X3.5301Y-1.627
X3.6301Y-1.527
X3.6301Y-1.627
X3.7496Y-2.7559
X3.7496Y-2.8559
X3.7496Y-2.9559
X3.7496Y-3.0559
X3.7496Y-3.1559
X3.7496Y-3.2559
X3.7496Y-3.3559
X3.7496Y-3.4559
X3.7496Y-3.5559
X3.7496Y-3.6559
X3.7496Y-3.7559
X3.7496Y-3.8559
X3.7496Y-3.9559
X3.7496Y-4.0559
X3.7496Y-4.1559
X3.9606Y-2.7559
X3.9606Y-2.8559
X3.9606Y-2.9559
X3.9606Y-3.0559
X3.9606Y-3.1559
X3.9606Y-3.2559
X3.9606Y-3.3559
X3.9606Y-3.4559
X3.9606Y-3.5559
X3.9606Y-3.6559
X3.9606Y-3.7559
X3.9606Y-3.8559
X3.9606Y-3.9559
X3.9606Y-4.0559
X3.9606Y-4.1559
T5
X4.0433Y-2.3307
X4.0433Y-2.6535
M30
