%TF.GenerationSoftware,KiCad,Pcbnew,8.0.7*%
%TF.CreationDate,2025-01-25T19:28:51-08:00*%
%TF.ProjectId,Attiny2x4x8x Programmers,41747469-6e79-4327-9834-783878205072,rev?*%
%TF.SameCoordinates,Original*%
%TF.FileFunction,Copper,L2,Bot*%
%TF.FilePolarity,Positive*%
%FSLAX46Y46*%
G04 Gerber Fmt 4.6, Leading zero omitted, Abs format (unit mm)*
G04 Created by KiCad (PCBNEW 8.0.7) date 2025-01-25 19:28:51*
%MOMM*%
%LPD*%
G01*
G04 APERTURE LIST*
%TA.AperFunction,ComponentPad*%
%ADD10R,1.600000X1.600000*%
%TD*%
%TA.AperFunction,ComponentPad*%
%ADD11C,1.600000*%
%TD*%
%TA.AperFunction,ComponentPad*%
%ADD12O,1.600000X1.600000*%
%TD*%
%TA.AperFunction,ComponentPad*%
%ADD13R,1.700000X1.700000*%
%TD*%
%TA.AperFunction,ComponentPad*%
%ADD14O,1.700000X1.700000*%
%TD*%
%TA.AperFunction,ComponentPad*%
%ADD15R,1.800000X1.800000*%
%TD*%
%TA.AperFunction,ComponentPad*%
%ADD16C,1.800000*%
%TD*%
%TA.AperFunction,ViaPad*%
%ADD17C,0.600000*%
%TD*%
%TA.AperFunction,Conductor*%
%ADD18C,0.750000*%
%TD*%
%TA.AperFunction,Conductor*%
%ADD19C,1.000000*%
%TD*%
G04 APERTURE END LIST*
D10*
%TO.P,C1,1*%
%TO.N,/RST*%
X99100001Y-65000001D03*
D11*
%TO.P,C1,2*%
%TO.N,GND*%
X101600000Y-65000003D03*
%TD*%
D10*
%TO.P,A1,1,D1/TX*%
%TO.N,Net-(A1-D1{slash}TX)*%
X80000000Y-70000000D03*
D12*
%TO.P,A1,2,D0/RX*%
%TO.N,Net-(A1-D0{slash}RX)*%
X80000000Y-72540000D03*
%TO.P,A1,3,~{RESET}*%
%TO.N,/RST*%
X80000000Y-75080000D03*
%TO.P,A1,4,GND*%
%TO.N,GND*%
X80000000Y-77620000D03*
%TO.P,A1,5,D2*%
%TO.N,Net-(A1-D2)*%
X80000000Y-80160000D03*
%TO.P,A1,6,D3*%
%TO.N,Net-(A1-D3)*%
X80000000Y-82700000D03*
%TO.P,A1,7,D4*%
%TO.N,Net-(A1-D4)*%
X80000000Y-85240000D03*
%TO.P,A1,8,D5*%
%TO.N,Net-(A1-D5)*%
X80000000Y-87780000D03*
%TO.P,A1,9,D6*%
%TO.N,Net-(A1-D6)*%
X80000000Y-90320000D03*
%TO.P,A1,10,D7*%
%TO.N,Net-(A1-D7)*%
X80000000Y-92860000D03*
%TO.P,A1,11,D8*%
%TO.N,Net-(A1-D8)*%
X80000000Y-95400000D03*
%TO.P,A1,12,D9*%
%TO.N,Net-(A1-D9)*%
X80000000Y-97940000D03*
%TO.P,A1,13,D10*%
%TO.N,/SS*%
X80000000Y-100480000D03*
%TO.P,A1,14,D11*%
%TO.N,/MOSI*%
X80000000Y-103020000D03*
%TO.P,A1,15,D12*%
%TO.N,/MISO*%
X80000000Y-105560000D03*
%TO.P,A1,16,D13*%
%TO.N,/SCK*%
X95240000Y-105560000D03*
%TO.P,A1,17,3V3*%
%TO.N,Net-(A1-3V3)*%
X95240000Y-103020000D03*
%TO.P,A1,18,AREF*%
%TO.N,Net-(A1-AREF)*%
X95240000Y-100480000D03*
%TO.P,A1,19,A0*%
%TO.N,Net-(A1-A0)*%
X95240000Y-97940000D03*
%TO.P,A1,20,A1*%
%TO.N,Net-(A1-A1)*%
X95240000Y-95400000D03*
%TO.P,A1,21,A2*%
%TO.N,Net-(A1-A2)*%
X95240000Y-92860000D03*
%TO.P,A1,22,A3*%
%TO.N,Net-(A1-A3)*%
X95240000Y-90320000D03*
%TO.P,A1,23,A4*%
%TO.N,Net-(A1-A4)*%
X95240000Y-87780000D03*
%TO.P,A1,24,A5*%
%TO.N,Net-(A1-A5)*%
X95240000Y-85240000D03*
%TO.P,A1,25,A6*%
%TO.N,Net-(A1-A6)*%
X95240000Y-82700000D03*
%TO.P,A1,26,A7*%
%TO.N,Net-(A1-A7)*%
X95240000Y-80160000D03*
%TO.P,A1,27,+5V*%
%TO.N,+5V*%
X95240000Y-77620000D03*
%TO.P,A1,28,~{RESET}*%
%TO.N,/RST*%
X95240000Y-75080000D03*
%TO.P,A1,29,GND*%
%TO.N,GND*%
X95240000Y-72540000D03*
%TO.P,A1,30,VIN*%
%TO.N,Net-(A1-VIN)*%
X95240000Y-70000000D03*
%TD*%
D13*
%TO.P,J1,1,Pin_1*%
%TO.N,Net-(A1-D1{slash}TX)*%
X74800000Y-70000000D03*
D14*
%TO.P,J1,2,Pin_2*%
%TO.N,Net-(A1-D0{slash}RX)*%
X74800000Y-72540000D03*
%TO.P,J1,3,Pin_3*%
%TO.N,/RST*%
X74800000Y-75080000D03*
%TO.P,J1,4,Pin_4*%
%TO.N,GND*%
X74800000Y-77620000D03*
%TO.P,J1,5,Pin_5*%
%TO.N,Net-(A1-D2)*%
X74800000Y-80160000D03*
%TO.P,J1,6,Pin_6*%
%TO.N,Net-(A1-D3)*%
X74800000Y-82700000D03*
%TO.P,J1,7,Pin_7*%
%TO.N,Net-(A1-D4)*%
X74800000Y-85240000D03*
%TO.P,J1,8,Pin_8*%
%TO.N,Net-(A1-D5)*%
X74800000Y-87780000D03*
%TO.P,J1,9,Pin_9*%
%TO.N,Net-(A1-D6)*%
X74800000Y-90320000D03*
%TO.P,J1,10,Pin_10*%
%TO.N,Net-(A1-D7)*%
X74800000Y-92860000D03*
%TO.P,J1,11,Pin_11*%
%TO.N,Net-(A1-D8)*%
X74800000Y-95400000D03*
%TO.P,J1,12,Pin_12*%
%TO.N,Net-(A1-D9)*%
X74800000Y-97940000D03*
%TO.P,J1,13,Pin_13*%
%TO.N,/SS*%
X74800000Y-100480000D03*
%TO.P,J1,14,Pin_14*%
%TO.N,/MOSI*%
X74800000Y-103020000D03*
%TO.P,J1,15,Pin_15*%
%TO.N,/MISO*%
X74800000Y-105560000D03*
%TD*%
D10*
%TO.P,U1,1,VCC*%
%TO.N,+5V*%
X74700000Y-47800000D03*
D12*
%TO.P,U1,2,XTAL1/PB0*%
%TO.N,unconnected-(U1-XTAL1{slash}PB0-Pad2)*%
X74700000Y-50340000D03*
%TO.P,U1,3,XTAL2/PB1*%
%TO.N,unconnected-(U1-XTAL2{slash}PB1-Pad3)*%
X74700000Y-52880000D03*
%TO.P,U1,4,~{RESET}/PB3*%
%TO.N,/SS*%
X74700000Y-55420000D03*
%TO.P,U1,5,PB2*%
%TO.N,unconnected-(U1-PB2-Pad5)*%
X74700000Y-57960000D03*
%TO.P,U1,6,PA7*%
%TO.N,unconnected-(U1-PA7-Pad6)*%
X74700000Y-60500000D03*
%TO.P,U1,7,PA6*%
%TO.N,/MOSI*%
X74700000Y-63040000D03*
%TO.P,U1,8,PA5*%
%TO.N,/MISO*%
X82320000Y-63040000D03*
%TO.P,U1,9,PA4*%
%TO.N,/SCK*%
X82320000Y-60500000D03*
%TO.P,U1,10,PA3*%
%TO.N,unconnected-(U1-PA3-Pad10)*%
X82320000Y-57960000D03*
%TO.P,U1,11,PA2*%
%TO.N,unconnected-(U1-PA2-Pad11)*%
X82320000Y-55420000D03*
%TO.P,U1,12,PA1*%
%TO.N,unconnected-(U1-PA1-Pad12)*%
X82320000Y-52880000D03*
%TO.P,U1,13,AREF/PA0*%
%TO.N,unconnected-(U1-AREF{slash}PA0-Pad13)*%
X82320000Y-50340000D03*
%TO.P,U1,14,GND*%
%TO.N,GND*%
X82320000Y-47800000D03*
%TD*%
D13*
%TO.P,J2,1,Pin_1*%
%TO.N,Net-(A1-VIN)*%
X100600000Y-70000000D03*
D14*
%TO.P,J2,2,Pin_2*%
%TO.N,GND*%
X100600000Y-72540000D03*
%TO.P,J2,3,Pin_3*%
%TO.N,/RST*%
X100600000Y-75080000D03*
%TO.P,J2,4,Pin_4*%
%TO.N,+5V*%
X100600000Y-77620000D03*
%TO.P,J2,5,Pin_5*%
%TO.N,Net-(A1-A7)*%
X100600000Y-80160000D03*
%TO.P,J2,6,Pin_6*%
%TO.N,Net-(A1-A6)*%
X100600000Y-82700000D03*
%TO.P,J2,7,Pin_7*%
%TO.N,Net-(A1-A5)*%
X100600000Y-85240000D03*
%TO.P,J2,8,Pin_8*%
%TO.N,Net-(A1-A4)*%
X100600000Y-87780000D03*
%TO.P,J2,9,Pin_9*%
%TO.N,Net-(A1-A3)*%
X100600000Y-90320000D03*
%TO.P,J2,10,Pin_10*%
%TO.N,Net-(A1-A2)*%
X100600000Y-92860000D03*
%TO.P,J2,11,Pin_11*%
%TO.N,Net-(A1-A1)*%
X100600000Y-95400000D03*
%TO.P,J2,12,Pin_12*%
%TO.N,Net-(A1-A0)*%
X100600000Y-97940000D03*
%TO.P,J2,13,Pin_13*%
%TO.N,Net-(A1-AREF)*%
X100600000Y-100480000D03*
%TO.P,J2,14,Pin_14*%
%TO.N,Net-(A1-3V3)*%
X100600000Y-103020000D03*
%TO.P,J2,15,Pin_15*%
%TO.N,/SCK*%
X100600000Y-105560000D03*
%TD*%
D13*
%TO.P,J3,1,Pin_1*%
%TO.N,/MISO*%
X86420000Y-50000000D03*
D14*
%TO.P,J3,2,Pin_2*%
%TO.N,+5V*%
X86420000Y-47460000D03*
%TO.P,J3,3,Pin_3*%
%TO.N,/SCK*%
X88960000Y-50000000D03*
%TO.P,J3,4,Pin_4*%
%TO.N,/MOSI*%
X88960000Y-47460000D03*
%TO.P,J3,5,Pin_5*%
%TO.N,/SS*%
X91500000Y-50000000D03*
%TO.P,J3,6,Pin_6*%
%TO.N,GND*%
X91500000Y-47460000D03*
%TD*%
D10*
%TO.P,U2,1,~{RESET}/PB5*%
%TO.N,/SS*%
X87400000Y-54800000D03*
D12*
%TO.P,U2,2,XTAL1/PB3*%
%TO.N,unconnected-(U2-XTAL1{slash}PB3-Pad2)*%
X87400000Y-57340001D03*
%TO.P,U2,3,XTAL2/PB4*%
%TO.N,unconnected-(U2-XTAL2{slash}PB4-Pad3)*%
X87400002Y-59880001D03*
%TO.P,U2,4,GND*%
%TO.N,GND*%
X87399998Y-62420004D03*
%TO.P,U2,5,AREF/PB0*%
%TO.N,/MOSI*%
X95019995Y-62419999D03*
%TO.P,U2,6,PB1*%
%TO.N,/MISO*%
X95019998Y-59879994D03*
%TO.P,U2,7,PB2*%
%TO.N,/SCK*%
X95019997Y-57340000D03*
%TO.P,U2,8,VCC*%
%TO.N,+5V*%
X95020004Y-54800002D03*
%TD*%
D15*
%TO.P,D1,1,K*%
%TO.N,Net-(D1-K)*%
X97500000Y-49000000D03*
D16*
%TO.P,D1,2,A*%
%TO.N,/MISO*%
X97500000Y-51540000D03*
%TD*%
D11*
%TO.P,R1,1*%
%TO.N,Net-(D1-K)*%
X101999997Y-50919998D03*
D12*
%TO.P,R1,2*%
%TO.N,GND*%
X101999997Y-61079998D03*
%TD*%
D17*
%TO.N,/MOSI*%
X79000000Y-49500000D03*
%TD*%
D18*
%TO.N,/SS*%
X78000000Y-59156854D02*
X78000000Y-60343146D01*
X86450000Y-55750000D02*
X87400000Y-54800000D01*
X74700000Y-55420000D02*
X75091573Y-55420000D01*
X85500000Y-60532233D02*
X85500000Y-58043502D01*
X81628427Y-64800000D02*
X82400000Y-64800000D01*
X79171573Y-63171573D02*
X80214214Y-64214214D01*
X84249999Y-63549999D02*
X83424264Y-64375735D01*
X83000000Y-95358679D02*
X83000000Y-65400000D01*
X76505787Y-56005787D02*
X76828427Y-56328427D01*
X81500000Y-98980000D02*
X80000000Y-100480000D01*
X83000000Y-95358679D02*
G75*
G02*
X81500006Y-98980006I-5121300J-21D01*
G01*
X85500000Y-60532233D02*
G75*
G02*
X84249990Y-63549990I-4267800J33D01*
G01*
X83424264Y-64375735D02*
G75*
G03*
X82999991Y-65400000I1024236J-1024265D01*
G01*
X81628427Y-64800000D02*
G75*
G02*
X80214200Y-64214228I-27J2000000D01*
G01*
X86450000Y-55750000D02*
G75*
G03*
X85500001Y-58043502I2293500J-2293500D01*
G01*
X82400000Y-64800000D02*
G75*
G03*
X83424259Y-64375730I0J1448500D01*
G01*
X78000000Y-60343146D02*
G75*
G03*
X79171596Y-63171550I4000000J46D01*
G01*
X83000000Y-65400000D02*
G75*
G03*
X82400000Y-64800000I-600000J0D01*
G01*
X75091573Y-55420000D02*
G75*
G02*
X76505801Y-56005773I27J-2000000D01*
G01*
X78000000Y-59156854D02*
G75*
G03*
X76828404Y-56328450I-4000000J-46D01*
G01*
%TO.N,/SCK*%
X82835534Y-59984466D02*
X82320000Y-60500000D01*
X92600000Y-102555492D02*
X92600000Y-61155634D01*
X94917570Y-57400000D02*
X94879998Y-57400000D01*
X88226033Y-52800000D02*
X87031370Y-52800000D01*
X93480000Y-104680000D02*
X94048873Y-105248873D01*
X88374213Y-52651820D02*
X88226033Y-52800000D01*
X94989997Y-57310000D02*
X92073789Y-54393792D01*
X94800000Y-105560000D02*
X95240000Y-105560000D01*
X88960000Y-50000000D02*
X88960000Y-51237606D01*
X94743432Y-57456567D02*
X93700000Y-58500000D01*
X84300000Y-55531370D02*
X84300000Y-56448932D01*
X94989997Y-57370000D02*
G75*
G02*
X94917570Y-57399987I-72397J72400D01*
G01*
X92600000Y-102555492D02*
G75*
G03*
X93479998Y-104680002I3004500J-8D01*
G01*
X94048873Y-105248873D02*
G75*
G03*
X94800000Y-105559987I751127J751173D01*
G01*
X84300000Y-56448932D02*
G75*
G02*
X82835518Y-59984450I-5000000J32D01*
G01*
X93700000Y-58500000D02*
G75*
G03*
X92600014Y-61155634I2655600J-2655600D01*
G01*
X92073789Y-54393792D02*
G75*
G03*
X88226033Y-52799991I-3847789J-3847808D01*
G01*
X85100000Y-53600000D02*
G75*
G03*
X84299988Y-55531370I1931400J-1931400D01*
G01*
X94989997Y-57310000D02*
G75*
G02*
X94989997Y-57370000I-29997J-30000D01*
G01*
X88960000Y-51237606D02*
G75*
G02*
X88374210Y-52651817I-2000000J6D01*
G01*
X94879998Y-57400000D02*
G75*
G03*
X94743440Y-57456575I2J-193100D01*
G01*
X87031370Y-52800000D02*
G75*
G03*
X85100009Y-53600009I30J-2731400D01*
G01*
D19*
%TO.N,/RST*%
X98994213Y-74494213D02*
X98939340Y-74439340D01*
X99085787Y-65014215D02*
X99100001Y-65000001D01*
X98500000Y-73378680D02*
X98500000Y-66428429D01*
X100600000Y-75080000D02*
X100408427Y-75080000D01*
X98500000Y-66428429D02*
G75*
G02*
X99085772Y-65014200I2000000J29D01*
G01*
X98939340Y-74439340D02*
G75*
G02*
X98500014Y-73378680I1060660J1060640D01*
G01*
X98994213Y-74494213D02*
G75*
G03*
X100408427Y-75079981I1414187J1414213D01*
G01*
D18*
%TO.N,/MOSI*%
X79621320Y-46878680D02*
X79585786Y-46914214D01*
X88960000Y-47460000D02*
X88378679Y-46878679D01*
X79000000Y-48328427D02*
X79000000Y-49500000D01*
X86257359Y-46000000D02*
X81742641Y-46000000D01*
X79585786Y-46914214D02*
G75*
G03*
X79000019Y-48328427I1414214J-1414186D01*
G01*
X79621320Y-46878680D02*
G75*
G02*
X81742641Y-46000029I2121280J-2121320D01*
G01*
X86257359Y-46000000D02*
G75*
G02*
X88378699Y-46878659I41J-3000000D01*
G01*
%TD*%
%TA.AperFunction,Conductor*%
%TO.N,GND*%
G36*
X85083914Y-46895185D02*
G01*
X85129669Y-46947989D01*
X85139613Y-47017147D01*
X85136650Y-47031593D01*
X85084938Y-47224586D01*
X85084936Y-47224596D01*
X85064341Y-47459999D01*
X85064341Y-47460000D01*
X85084936Y-47695403D01*
X85084938Y-47695413D01*
X85146094Y-47923655D01*
X85146096Y-47923659D01*
X85146097Y-47923663D01*
X85226004Y-48095023D01*
X85245965Y-48137830D01*
X85245967Y-48137834D01*
X85306331Y-48224042D01*
X85381501Y-48331396D01*
X85381506Y-48331402D01*
X85503430Y-48453326D01*
X85536915Y-48514649D01*
X85531931Y-48584341D01*
X85490059Y-48640274D01*
X85459083Y-48657189D01*
X85327669Y-48706203D01*
X85327664Y-48706206D01*
X85212455Y-48792452D01*
X85212452Y-48792455D01*
X85126206Y-48907664D01*
X85126202Y-48907671D01*
X85075908Y-49042517D01*
X85069501Y-49102116D01*
X85069500Y-49102135D01*
X85069500Y-50897870D01*
X85069501Y-50897876D01*
X85075908Y-50957483D01*
X85126202Y-51092328D01*
X85126206Y-51092335D01*
X85212452Y-51207544D01*
X85212455Y-51207547D01*
X85327664Y-51293793D01*
X85327671Y-51293797D01*
X85462517Y-51344091D01*
X85462516Y-51344091D01*
X85469444Y-51344835D01*
X85522127Y-51350500D01*
X87317872Y-51350499D01*
X87377483Y-51344091D01*
X87512331Y-51293796D01*
X87627546Y-51207546D01*
X87713796Y-51092331D01*
X87762810Y-50960916D01*
X87804681Y-50904984D01*
X87870145Y-50880566D01*
X87938418Y-50895417D01*
X87966673Y-50916569D01*
X88048181Y-50998077D01*
X88081666Y-51059400D01*
X88084500Y-51085758D01*
X88084500Y-51232727D01*
X88084118Y-51242457D01*
X88071420Y-51403785D01*
X88068376Y-51423003D01*
X88031739Y-51575605D01*
X88025726Y-51594110D01*
X87965669Y-51739100D01*
X87956835Y-51756437D01*
X87890130Y-51865290D01*
X87838319Y-51912165D01*
X87784403Y-51924500D01*
X87123723Y-51924500D01*
X87123703Y-51924499D01*
X87082733Y-51924499D01*
X87082692Y-51924487D01*
X86854171Y-51924489D01*
X86501484Y-51959229D01*
X86501472Y-51959231D01*
X86153904Y-52028370D01*
X85814785Y-52131243D01*
X85487377Y-52266862D01*
X85487371Y-52266864D01*
X85174833Y-52433922D01*
X85174823Y-52433928D01*
X84880176Y-52630806D01*
X84880162Y-52630816D01*
X84606223Y-52855632D01*
X84559559Y-52902297D01*
X84480928Y-52980928D01*
X84416096Y-53045759D01*
X84415935Y-53045935D01*
X84355642Y-53106230D01*
X84130825Y-53380169D01*
X84130815Y-53380183D01*
X83933938Y-53674829D01*
X83933932Y-53674839D01*
X83766876Y-53987375D01*
X83631256Y-54314787D01*
X83554874Y-54566575D01*
X83516576Y-54625013D01*
X83452763Y-54653469D01*
X83383697Y-54642908D01*
X83334638Y-54601699D01*
X83320046Y-54580859D01*
X83159141Y-54419954D01*
X82972734Y-54289432D01*
X82972728Y-54289429D01*
X82914725Y-54262382D01*
X82862285Y-54216210D01*
X82843133Y-54149017D01*
X82863348Y-54082135D01*
X82914725Y-54037618D01*
X82972734Y-54010568D01*
X83159139Y-53880047D01*
X83320047Y-53719139D01*
X83450568Y-53532734D01*
X83546739Y-53326496D01*
X83605635Y-53106692D01*
X83625468Y-52880000D01*
X83620825Y-52826936D01*
X83605635Y-52653313D01*
X83605635Y-52653308D01*
X83546739Y-52433504D01*
X83450568Y-52227266D01*
X83352839Y-52087693D01*
X83320045Y-52040858D01*
X83159141Y-51879954D01*
X82972734Y-51749432D01*
X82972728Y-51749429D01*
X82914725Y-51722382D01*
X82862285Y-51676210D01*
X82843133Y-51609017D01*
X82863348Y-51542135D01*
X82914725Y-51497618D01*
X82972734Y-51470568D01*
X83159139Y-51340047D01*
X83320047Y-51179139D01*
X83450568Y-50992734D01*
X83546739Y-50786496D01*
X83605635Y-50566692D01*
X83625468Y-50340000D01*
X83605635Y-50113308D01*
X83546739Y-49893504D01*
X83450568Y-49687266D01*
X83320047Y-49500861D01*
X83320045Y-49500858D01*
X83159141Y-49339954D01*
X82972734Y-49209432D01*
X82972732Y-49209431D01*
X82949612Y-49198650D01*
X82914132Y-49182105D01*
X82861694Y-49135934D01*
X82842542Y-49068740D01*
X82862758Y-49001859D01*
X82914134Y-48957341D01*
X82972484Y-48930132D01*
X83158820Y-48799657D01*
X83319657Y-48638820D01*
X83450134Y-48452482D01*
X83546265Y-48246326D01*
X83546269Y-48246317D01*
X83598872Y-48050000D01*
X82635686Y-48050000D01*
X82640080Y-48045606D01*
X82692741Y-47954394D01*
X82720000Y-47852661D01*
X82720000Y-47747339D01*
X82692741Y-47645606D01*
X82640080Y-47554394D01*
X82635686Y-47550000D01*
X83598872Y-47550000D01*
X83598872Y-47549999D01*
X83546269Y-47353682D01*
X83546265Y-47353673D01*
X83450134Y-47147517D01*
X83396292Y-47070624D01*
X83373965Y-47004418D01*
X83390975Y-46936650D01*
X83441923Y-46888837D01*
X83497867Y-46875500D01*
X85016875Y-46875500D01*
X85083914Y-46895185D01*
G37*
%TD.AperFunction*%
%TA.AperFunction,Conductor*%
G36*
X99002702Y-44500617D02*
G01*
X99386771Y-44517386D01*
X99397506Y-44518326D01*
X99775971Y-44568152D01*
X99786597Y-44570025D01*
X100159284Y-44652648D01*
X100169710Y-44655442D01*
X100533765Y-44770227D01*
X100543911Y-44773920D01*
X100896578Y-44920000D01*
X100906369Y-44924566D01*
X101244942Y-45100816D01*
X101254309Y-45106223D01*
X101559013Y-45300341D01*
X101576244Y-45311318D01*
X101585105Y-45317523D01*
X101887930Y-45549889D01*
X101896217Y-45556843D01*
X102177635Y-45814715D01*
X102185284Y-45822364D01*
X102443156Y-46103782D01*
X102450110Y-46112069D01*
X102682476Y-46414894D01*
X102688681Y-46423755D01*
X102893775Y-46745689D01*
X102899183Y-46755057D01*
X103075430Y-47093623D01*
X103080002Y-47103427D01*
X103226075Y-47456078D01*
X103229775Y-47466244D01*
X103344554Y-47830278D01*
X103347354Y-47840727D01*
X103429971Y-48213389D01*
X103431849Y-48224042D01*
X103481671Y-48602473D01*
X103482614Y-48613249D01*
X103499382Y-48997297D01*
X103499500Y-49002706D01*
X103499500Y-50549597D01*
X103479815Y-50616636D01*
X103427011Y-50662391D01*
X103357853Y-50672335D01*
X103294297Y-50643310D01*
X103256523Y-50584532D01*
X103255725Y-50581690D01*
X103226738Y-50473509D01*
X103226735Y-50473500D01*
X103130565Y-50267264D01*
X103000044Y-50080859D01*
X103000042Y-50080856D01*
X102839138Y-49919952D01*
X102652731Y-49789430D01*
X102652729Y-49789429D01*
X102446494Y-49693259D01*
X102446485Y-49693256D01*
X102226694Y-49634364D01*
X102226690Y-49634363D01*
X102226689Y-49634363D01*
X102226688Y-49634362D01*
X102226683Y-49634362D01*
X101999999Y-49614530D01*
X101999995Y-49614530D01*
X101773310Y-49634362D01*
X101773299Y-49634364D01*
X101553508Y-49693256D01*
X101553499Y-49693259D01*
X101347264Y-49789429D01*
X101347262Y-49789430D01*
X101160855Y-49919952D01*
X100999951Y-50080856D01*
X100869429Y-50267263D01*
X100869428Y-50267265D01*
X100773258Y-50473500D01*
X100773255Y-50473509D01*
X100714363Y-50693300D01*
X100714361Y-50693311D01*
X100694529Y-50919996D01*
X100694529Y-50919999D01*
X100714361Y-51146684D01*
X100714363Y-51146695D01*
X100773255Y-51366486D01*
X100773258Y-51366495D01*
X100869428Y-51572730D01*
X100869429Y-51572732D01*
X100999951Y-51759139D01*
X101160855Y-51920043D01*
X101160858Y-51920045D01*
X101347263Y-52050566D01*
X101553501Y-52146737D01*
X101773305Y-52205633D01*
X101935227Y-52219799D01*
X101999995Y-52225466D01*
X101999997Y-52225466D01*
X101999999Y-52225466D01*
X102056670Y-52220507D01*
X102226689Y-52205633D01*
X102446493Y-52146737D01*
X102652731Y-52050566D01*
X102839136Y-51920045D01*
X103000044Y-51759137D01*
X103130565Y-51572732D01*
X103226736Y-51366494D01*
X103255725Y-51258304D01*
X103292090Y-51198644D01*
X103354937Y-51168115D01*
X103424312Y-51176410D01*
X103478190Y-51220895D01*
X103499465Y-51287447D01*
X103499500Y-51290398D01*
X103499500Y-60711529D01*
X103479815Y-60778568D01*
X103427011Y-60824323D01*
X103357853Y-60834267D01*
X103294297Y-60805242D01*
X103256523Y-60746464D01*
X103255725Y-60743622D01*
X103226266Y-60633680D01*
X103226262Y-60633671D01*
X103130131Y-60427515D01*
X102999654Y-60241177D01*
X102838817Y-60080340D01*
X102652479Y-59949863D01*
X102446325Y-59853732D01*
X102249997Y-59801125D01*
X102249997Y-60764312D01*
X102245603Y-60759918D01*
X102154391Y-60707257D01*
X102052658Y-60679998D01*
X101947336Y-60679998D01*
X101845603Y-60707257D01*
X101754391Y-60759918D01*
X101749997Y-60764312D01*
X101749997Y-59801125D01*
X101553668Y-59853732D01*
X101347514Y-59949863D01*
X101161176Y-60080340D01*
X101000339Y-60241177D01*
X100869862Y-60427515D01*
X100773731Y-60633671D01*
X100773727Y-60633680D01*
X100721124Y-60829997D01*
X100721125Y-60829998D01*
X101684311Y-60829998D01*
X101679917Y-60834392D01*
X101627256Y-60925604D01*
X101599997Y-61027337D01*
X101599997Y-61132659D01*
X101627256Y-61234392D01*
X101679917Y-61325604D01*
X101684311Y-61329998D01*
X100721125Y-61329998D01*
X100773727Y-61526315D01*
X100773731Y-61526324D01*
X100869862Y-61732480D01*
X101000339Y-61918818D01*
X101161176Y-62079655D01*
X101347514Y-62210132D01*
X101553670Y-62306263D01*
X101553679Y-62306267D01*
X101749996Y-62358870D01*
X101749997Y-62358869D01*
X101749997Y-61395684D01*
X101754391Y-61400078D01*
X101845603Y-61452739D01*
X101947336Y-61479998D01*
X102052658Y-61479998D01*
X102154391Y-61452739D01*
X102245603Y-61400078D01*
X102249997Y-61395684D01*
X102249997Y-62358870D01*
X102446314Y-62306267D01*
X102446323Y-62306263D01*
X102652479Y-62210132D01*
X102838817Y-62079655D01*
X102999654Y-61918818D01*
X103130131Y-61732480D01*
X103226262Y-61526324D01*
X103226266Y-61526315D01*
X103255725Y-61416373D01*
X103292090Y-61356712D01*
X103354937Y-61326183D01*
X103424312Y-61334478D01*
X103478190Y-61378963D01*
X103499465Y-61445515D01*
X103499500Y-61448466D01*
X103499500Y-104997293D01*
X103499382Y-105002702D01*
X103482614Y-105386750D01*
X103481671Y-105397526D01*
X103431849Y-105775957D01*
X103429971Y-105786610D01*
X103347354Y-106159272D01*
X103344554Y-106169721D01*
X103229775Y-106533755D01*
X103226075Y-106543921D01*
X103080002Y-106896572D01*
X103075430Y-106906376D01*
X102899183Y-107244942D01*
X102893775Y-107254310D01*
X102688681Y-107576244D01*
X102682476Y-107585105D01*
X102450110Y-107887930D01*
X102443156Y-107896217D01*
X102185284Y-108177635D01*
X102177635Y-108185284D01*
X101896217Y-108443156D01*
X101887930Y-108450110D01*
X101585105Y-108682476D01*
X101576244Y-108688681D01*
X101254310Y-108893775D01*
X101244942Y-108899183D01*
X100906376Y-109075430D01*
X100896572Y-109080002D01*
X100543921Y-109226075D01*
X100533755Y-109229775D01*
X100169721Y-109344554D01*
X100159272Y-109347354D01*
X99786610Y-109429971D01*
X99775957Y-109431849D01*
X99397526Y-109481671D01*
X99386750Y-109482614D01*
X99002703Y-109499382D01*
X98997294Y-109499500D01*
X76002706Y-109499500D01*
X75997297Y-109499382D01*
X75613249Y-109482614D01*
X75602473Y-109481671D01*
X75224042Y-109431849D01*
X75213389Y-109429971D01*
X74840727Y-109347354D01*
X74830278Y-109344554D01*
X74466244Y-109229775D01*
X74456078Y-109226075D01*
X74103427Y-109080002D01*
X74093623Y-109075430D01*
X73755057Y-108899183D01*
X73745689Y-108893775D01*
X73423755Y-108688681D01*
X73414894Y-108682476D01*
X73112069Y-108450110D01*
X73103782Y-108443156D01*
X72822364Y-108185284D01*
X72814715Y-108177635D01*
X72556843Y-107896217D01*
X72549889Y-107887930D01*
X72317523Y-107585105D01*
X72311318Y-107576244D01*
X72106224Y-107254310D01*
X72100816Y-107244942D01*
X71973924Y-107001185D01*
X71924566Y-106906369D01*
X71919997Y-106896572D01*
X71919371Y-106895061D01*
X71773920Y-106543911D01*
X71770224Y-106533755D01*
X71655442Y-106169710D01*
X71652648Y-106159284D01*
X71570025Y-105786597D01*
X71568152Y-105775971D01*
X71518326Y-105397506D01*
X71517386Y-105386771D01*
X71500618Y-105002702D01*
X71500500Y-104997293D01*
X71500500Y-72539999D01*
X73444341Y-72539999D01*
X73444341Y-72540000D01*
X73464936Y-72775403D01*
X73464938Y-72775413D01*
X73526094Y-73003655D01*
X73526096Y-73003659D01*
X73526097Y-73003663D01*
X73614145Y-73192482D01*
X73625965Y-73217830D01*
X73625967Y-73217834D01*
X73761501Y-73411395D01*
X73761506Y-73411402D01*
X73928597Y-73578493D01*
X73928603Y-73578498D01*
X74114158Y-73708425D01*
X74157783Y-73763002D01*
X74164977Y-73832500D01*
X74133454Y-73894855D01*
X74114158Y-73911575D01*
X73928597Y-74041505D01*
X73761505Y-74208597D01*
X73625965Y-74402169D01*
X73625964Y-74402171D01*
X73526098Y-74616335D01*
X73526094Y-74616344D01*
X73464938Y-74844586D01*
X73464936Y-74844596D01*
X73444341Y-75079999D01*
X73444341Y-75080000D01*
X73464936Y-75315403D01*
X73464938Y-75315413D01*
X73526094Y-75543655D01*
X73526096Y-75543659D01*
X73526097Y-75543663D01*
X73614262Y-75732732D01*
X73625965Y-75757830D01*
X73625967Y-75757834D01*
X73731481Y-75908522D01*
X73761505Y-75951401D01*
X73928599Y-76118495D01*
X74099115Y-76237892D01*
X74114594Y-76248730D01*
X74158219Y-76303307D01*
X74165413Y-76372805D01*
X74133890Y-76435160D01*
X74114595Y-76451880D01*
X73928922Y-76581890D01*
X73928920Y-76581891D01*
X73761891Y-76748920D01*
X73761886Y-76748926D01*
X73626400Y-76942420D01*
X73626399Y-76942422D01*
X73526570Y-77156507D01*
X73526567Y-77156513D01*
X73469364Y-77369999D01*
X73469364Y-77370000D01*
X74366988Y-77370000D01*
X74334075Y-77427007D01*
X74300000Y-77554174D01*
X74300000Y-77685826D01*
X74334075Y-77812993D01*
X74366988Y-77870000D01*
X73469364Y-77870000D01*
X73526567Y-78083486D01*
X73526570Y-78083492D01*
X73626399Y-78297578D01*
X73761894Y-78491082D01*
X73928917Y-78658105D01*
X74114595Y-78788119D01*
X74158219Y-78842696D01*
X74165412Y-78912195D01*
X74133890Y-78974549D01*
X74114595Y-78991269D01*
X73928594Y-79121508D01*
X73761505Y-79288597D01*
X73625965Y-79482169D01*
X73625964Y-79482171D01*
X73526098Y-79696335D01*
X73526094Y-79696344D01*
X73464938Y-79924586D01*
X73464936Y-79924596D01*
X73444341Y-80159999D01*
X73444341Y-80160000D01*
X73464936Y-80395403D01*
X73464938Y-80395413D01*
X73526094Y-80623655D01*
X73526096Y-80623659D01*
X73526097Y-80623663D01*
X73614262Y-80812732D01*
X73625965Y-80837830D01*
X73625967Y-80837834D01*
X73761501Y-81031395D01*
X73761506Y-81031402D01*
X73928597Y-81198493D01*
X73928603Y-81198498D01*
X74114158Y-81328425D01*
X74157783Y-81383002D01*
X74164977Y-81452500D01*
X74133454Y-81514855D01*
X74114158Y-81531575D01*
X73928597Y-81661505D01*
X73761505Y-81828597D01*
X73625965Y-82022169D01*
X73625964Y-82022171D01*
X73526098Y-82236335D01*
X73526094Y-82236344D01*
X73464938Y-82464586D01*
X73464936Y-82464596D01*
X73444341Y-82699999D01*
X73444341Y-82700000D01*
X73464936Y-82935403D01*
X73464938Y-82935413D01*
X73526094Y-83163655D01*
X73526096Y-83163659D01*
X73526097Y-83163663D01*
X73614262Y-83352732D01*
X73625965Y-83377830D01*
X73625967Y-83377834D01*
X73761501Y-83571395D01*
X73761506Y-83571402D01*
X73928597Y-83738493D01*
X73928603Y-83738498D01*
X74114158Y-83868425D01*
X74157783Y-83923002D01*
X74164977Y-83992500D01*
X74133454Y-84054855D01*
X74114158Y-84071575D01*
X73928597Y-84201505D01*
X73761505Y-84368597D01*
X73625965Y-84562169D01*
X73625964Y-84562171D01*
X73526098Y-84776335D01*
X73526094Y-84776344D01*
X73464938Y-85004586D01*
X73464936Y-85004596D01*
X73444341Y-85239999D01*
X73444341Y-85240000D01*
X73464936Y-85475403D01*
X73464938Y-85475413D01*
X73526094Y-85703655D01*
X73526096Y-85703659D01*
X73526097Y-85703663D01*
X73614262Y-85892732D01*
X73625965Y-85917830D01*
X73625967Y-85917834D01*
X73761501Y-86111395D01*
X73761506Y-86111402D01*
X73928597Y-86278493D01*
X73928603Y-86278498D01*
X74114158Y-86408425D01*
X74157783Y-86463002D01*
X74164977Y-86532500D01*
X74133454Y-86594855D01*
X74114158Y-86611575D01*
X73928597Y-86741505D01*
X73761505Y-86908597D01*
X73625965Y-87102169D01*
X73625964Y-87102171D01*
X73526098Y-87316335D01*
X73526094Y-87316344D01*
X73464938Y-87544586D01*
X73464936Y-87544596D01*
X73444341Y-87779999D01*
X73444341Y-87780000D01*
X73464936Y-88015403D01*
X73464938Y-88015413D01*
X73526094Y-88243655D01*
X73526096Y-88243659D01*
X73526097Y-88243663D01*
X73614262Y-88432732D01*
X73625965Y-88457830D01*
X73625967Y-88457834D01*
X73761501Y-88651395D01*
X73761506Y-88651402D01*
X73928597Y-88818493D01*
X73928603Y-88818498D01*
X74114158Y-88948425D01*
X74157783Y-89003002D01*
X74164977Y-89072500D01*
X74133454Y-89134855D01*
X74114158Y-89151575D01*
X73928597Y-89281505D01*
X73761505Y-89448597D01*
X73625965Y-89642169D01*
X73625964Y-89642171D01*
X73526098Y-89856335D01*
X73526094Y-89856344D01*
X73464938Y-90084586D01*
X73464936Y-90084596D01*
X73444341Y-90319999D01*
X73444341Y-90320000D01*
X73464936Y-90555403D01*
X73464938Y-90555413D01*
X73526094Y-90783655D01*
X73526096Y-90783659D01*
X73526097Y-90783663D01*
X73614262Y-90972732D01*
X73625965Y-90997830D01*
X73625967Y-90997834D01*
X73761501Y-91191395D01*
X73761506Y-91191402D01*
X73928597Y-91358493D01*
X73928603Y-91358498D01*
X74114158Y-91488425D01*
X74157783Y-91543002D01*
X74164977Y-91612500D01*
X74133454Y-91674855D01*
X74114158Y-91691575D01*
X73928597Y-91821505D01*
X73761505Y-91988597D01*
X73625965Y-92182169D01*
X73625964Y-92182171D01*
X73526098Y-92396335D01*
X73526094Y-92396344D01*
X73464938Y-92624586D01*
X73464936Y-92624596D01*
X73444341Y-92859999D01*
X73444341Y-92860000D01*
X73464936Y-93095403D01*
X73464938Y-93095413D01*
X73526094Y-93323655D01*
X73526096Y-93323659D01*
X73526097Y-93323663D01*
X73614262Y-93512732D01*
X73625965Y-93537830D01*
X73625967Y-93537834D01*
X73761501Y-93731395D01*
X73761506Y-93731402D01*
X73928597Y-93898493D01*
X73928603Y-93898498D01*
X74114158Y-94028425D01*
X74157783Y-94083002D01*
X74164977Y-94152500D01*
X74133454Y-94214855D01*
X74114158Y-94231575D01*
X73928597Y-94361505D01*
X73761505Y-94528597D01*
X73625965Y-94722169D01*
X73625964Y-94722171D01*
X73526098Y-94936335D01*
X73526094Y-94936344D01*
X73464938Y-95164586D01*
X73464936Y-95164596D01*
X73444341Y-95399999D01*
X73444341Y-95400000D01*
X73464936Y-95635403D01*
X73464938Y-95635413D01*
X73526094Y-95863655D01*
X73526096Y-95863659D01*
X73526097Y-95863663D01*
X73589726Y-96000115D01*
X73625965Y-96077830D01*
X73625967Y-96077834D01*
X73761501Y-96271395D01*
X73761506Y-96271402D01*
X73928597Y-96438493D01*
X73928603Y-96438498D01*
X74114158Y-96568425D01*
X74157783Y-96623002D01*
X74164977Y-96692500D01*
X74133454Y-96754855D01*
X74114158Y-96771575D01*
X73928597Y-96901505D01*
X73761505Y-97068597D01*
X73625965Y-97262169D01*
X73625964Y-97262171D01*
X73526098Y-97476335D01*
X73526094Y-97476344D01*
X73464938Y-97704586D01*
X73464936Y-97704596D01*
X73444341Y-97939999D01*
X73444341Y-97940000D01*
X73464936Y-98175403D01*
X73464938Y-98175413D01*
X73526094Y-98403655D01*
X73526096Y-98403659D01*
X73526097Y-98403663D01*
X73614262Y-98592732D01*
X73625965Y-98617830D01*
X73625967Y-98617834D01*
X73761501Y-98811395D01*
X73761506Y-98811402D01*
X73928597Y-98978493D01*
X73928603Y-98978498D01*
X74114158Y-99108425D01*
X74157783Y-99163002D01*
X74164977Y-99232500D01*
X74133454Y-99294855D01*
X74114158Y-99311575D01*
X73928597Y-99441505D01*
X73761505Y-99608597D01*
X73625965Y-99802169D01*
X73625964Y-99802171D01*
X73526098Y-100016335D01*
X73526094Y-100016344D01*
X73464938Y-100244586D01*
X73464936Y-100244596D01*
X73444341Y-100479999D01*
X73444341Y-100480000D01*
X73464936Y-100715403D01*
X73464938Y-100715413D01*
X73526094Y-100943655D01*
X73526096Y-100943659D01*
X73526097Y-100943663D01*
X73614262Y-101132732D01*
X73625965Y-101157830D01*
X73625967Y-101157834D01*
X73761501Y-101351395D01*
X73761506Y-101351402D01*
X73928597Y-101518493D01*
X73928603Y-101518498D01*
X74114158Y-101648425D01*
X74157783Y-101703002D01*
X74164977Y-101772500D01*
X74133454Y-101834855D01*
X74114158Y-101851575D01*
X73928597Y-101981505D01*
X73761505Y-102148597D01*
X73625965Y-102342169D01*
X73625964Y-102342171D01*
X73526098Y-102556335D01*
X73526094Y-102556344D01*
X73464938Y-102784586D01*
X73464936Y-102784596D01*
X73444341Y-103019999D01*
X73444341Y-103020000D01*
X73464936Y-103255403D01*
X73464938Y-103255413D01*
X73526094Y-103483655D01*
X73526096Y-103483659D01*
X73526097Y-103483663D01*
X73614262Y-103672732D01*
X73625965Y-103697830D01*
X73625967Y-103697834D01*
X73643829Y-103723343D01*
X73755557Y-103882907D01*
X73761501Y-103891395D01*
X73761506Y-103891402D01*
X73928597Y-104058493D01*
X73928603Y-104058498D01*
X74114158Y-104188425D01*
X74157783Y-104243002D01*
X74164977Y-104312500D01*
X74133454Y-104374855D01*
X74114158Y-104391575D01*
X73928597Y-104521505D01*
X73761505Y-104688597D01*
X73625965Y-104882169D01*
X73625964Y-104882171D01*
X73526098Y-105096335D01*
X73526094Y-105096344D01*
X73464938Y-105324586D01*
X73464936Y-105324596D01*
X73444341Y-105559999D01*
X73444341Y-105560000D01*
X73464936Y-105795403D01*
X73464938Y-105795413D01*
X73526094Y-106023655D01*
X73526096Y-106023659D01*
X73526097Y-106023663D01*
X73589333Y-106159272D01*
X73625965Y-106237830D01*
X73625967Y-106237834D01*
X73693763Y-106334656D01*
X73761505Y-106431401D01*
X73928599Y-106598495D01*
X74025384Y-106666265D01*
X74122165Y-106734032D01*
X74122167Y-106734033D01*
X74122170Y-106734035D01*
X74336337Y-106833903D01*
X74564592Y-106895063D01*
X74752918Y-106911539D01*
X74799999Y-106915659D01*
X74800000Y-106915659D01*
X74800001Y-106915659D01*
X74839234Y-106912226D01*
X75035408Y-106895063D01*
X75263663Y-106833903D01*
X75477830Y-106734035D01*
X75671401Y-106598495D01*
X75838495Y-106431401D01*
X75974035Y-106237830D01*
X76073903Y-106023663D01*
X76135063Y-105795408D01*
X76155659Y-105560000D01*
X76135063Y-105324592D01*
X76073903Y-105096337D01*
X75974035Y-104882171D01*
X75838495Y-104688599D01*
X75838494Y-104688597D01*
X75671402Y-104521506D01*
X75671396Y-104521501D01*
X75485842Y-104391575D01*
X75442217Y-104336998D01*
X75435023Y-104267500D01*
X75466546Y-104205145D01*
X75485842Y-104188425D01*
X75667926Y-104060928D01*
X75671401Y-104058495D01*
X75838495Y-103891401D01*
X75974035Y-103697830D01*
X76073903Y-103483663D01*
X76135063Y-103255408D01*
X76155659Y-103020000D01*
X76135063Y-102784592D01*
X76073903Y-102556337D01*
X75974035Y-102342171D01*
X75838495Y-102148599D01*
X75838494Y-102148597D01*
X75671402Y-101981506D01*
X75671396Y-101981501D01*
X75485842Y-101851575D01*
X75442217Y-101796998D01*
X75435023Y-101727500D01*
X75466546Y-101665145D01*
X75485842Y-101648425D01*
X75539909Y-101610567D01*
X75671401Y-101518495D01*
X75838495Y-101351401D01*
X75974035Y-101157830D01*
X76073903Y-100943663D01*
X76135063Y-100715408D01*
X76155659Y-100480000D01*
X76135063Y-100244592D01*
X76073903Y-100016337D01*
X75974035Y-99802171D01*
X75838495Y-99608599D01*
X75838494Y-99608597D01*
X75671402Y-99441506D01*
X75671396Y-99441501D01*
X75485842Y-99311575D01*
X75442217Y-99256998D01*
X75435023Y-99187500D01*
X75466546Y-99125145D01*
X75485842Y-99108425D01*
X75539909Y-99070567D01*
X75671401Y-98978495D01*
X75838495Y-98811401D01*
X75974035Y-98617830D01*
X76073903Y-98403663D01*
X76135063Y-98175408D01*
X76155659Y-97940000D01*
X76135063Y-97704592D01*
X76073903Y-97476337D01*
X75974035Y-97262171D01*
X75968079Y-97253664D01*
X75838494Y-97068597D01*
X75671402Y-96901506D01*
X75671396Y-96901501D01*
X75485842Y-96771575D01*
X75442217Y-96716998D01*
X75435023Y-96647500D01*
X75466546Y-96585145D01*
X75485842Y-96568425D01*
X75636764Y-96462748D01*
X75671401Y-96438495D01*
X75838495Y-96271401D01*
X75974035Y-96077830D01*
X76073903Y-95863663D01*
X76135063Y-95635408D01*
X76155659Y-95400000D01*
X76135063Y-95164592D01*
X76073903Y-94936337D01*
X75974035Y-94722171D01*
X75838495Y-94528599D01*
X75838494Y-94528597D01*
X75671402Y-94361506D01*
X75671396Y-94361501D01*
X75485842Y-94231575D01*
X75442217Y-94176998D01*
X75435023Y-94107500D01*
X75466546Y-94045145D01*
X75485842Y-94028425D01*
X75539909Y-93990567D01*
X75671401Y-93898495D01*
X75838495Y-93731401D01*
X75974035Y-93537830D01*
X76073903Y-93323663D01*
X76135063Y-93095408D01*
X76155659Y-92860000D01*
X76135063Y-92624592D01*
X76073903Y-92396337D01*
X75974035Y-92182171D01*
X75838495Y-91988599D01*
X75838494Y-91988597D01*
X75671402Y-91821506D01*
X75671396Y-91821501D01*
X75485842Y-91691575D01*
X75442217Y-91636998D01*
X75435023Y-91567500D01*
X75466546Y-91505145D01*
X75485842Y-91488425D01*
X75539909Y-91450567D01*
X75671401Y-91358495D01*
X75838495Y-91191401D01*
X75974035Y-90997830D01*
X76073903Y-90783663D01*
X76135063Y-90555408D01*
X76155659Y-90320000D01*
X76135063Y-90084592D01*
X76073903Y-89856337D01*
X75974035Y-89642171D01*
X75838495Y-89448599D01*
X75838494Y-89448597D01*
X75671402Y-89281506D01*
X75671396Y-89281501D01*
X75485842Y-89151575D01*
X75442217Y-89096998D01*
X75435023Y-89027500D01*
X75466546Y-88965145D01*
X75485842Y-88948425D01*
X75539909Y-88910567D01*
X75671401Y-88818495D01*
X75838495Y-88651401D01*
X75974035Y-88457830D01*
X76073903Y-88243663D01*
X76135063Y-88015408D01*
X76155659Y-87780000D01*
X76135063Y-87544592D01*
X76073903Y-87316337D01*
X75974035Y-87102171D01*
X75838495Y-86908599D01*
X75838494Y-86908597D01*
X75671402Y-86741506D01*
X75671396Y-86741501D01*
X75485842Y-86611575D01*
X75442217Y-86556998D01*
X75435023Y-86487500D01*
X75466546Y-86425145D01*
X75485842Y-86408425D01*
X75539909Y-86370567D01*
X75671401Y-86278495D01*
X75838495Y-86111401D01*
X75974035Y-85917830D01*
X76073903Y-85703663D01*
X76135063Y-85475408D01*
X76155659Y-85240000D01*
X76135063Y-85004592D01*
X76073903Y-84776337D01*
X75974035Y-84562171D01*
X75838495Y-84368599D01*
X75838494Y-84368597D01*
X75671402Y-84201506D01*
X75671396Y-84201501D01*
X75485842Y-84071575D01*
X75442217Y-84016998D01*
X75435023Y-83947500D01*
X75466546Y-83885145D01*
X75485842Y-83868425D01*
X75539909Y-83830567D01*
X75671401Y-83738495D01*
X75838495Y-83571401D01*
X75974035Y-83377830D01*
X76073903Y-83163663D01*
X76135063Y-82935408D01*
X76155659Y-82700000D01*
X76135063Y-82464592D01*
X76073903Y-82236337D01*
X75974035Y-82022171D01*
X75838495Y-81828599D01*
X75838494Y-81828597D01*
X75671402Y-81661506D01*
X75671396Y-81661501D01*
X75485842Y-81531575D01*
X75442217Y-81476998D01*
X75435023Y-81407500D01*
X75466546Y-81345145D01*
X75485842Y-81328425D01*
X75539909Y-81290567D01*
X75671401Y-81198495D01*
X75838495Y-81031401D01*
X75974035Y-80837830D01*
X76073903Y-80623663D01*
X76135063Y-80395408D01*
X76155659Y-80160000D01*
X76135063Y-79924592D01*
X76073903Y-79696337D01*
X75974035Y-79482171D01*
X75838495Y-79288599D01*
X75838494Y-79288597D01*
X75671402Y-79121506D01*
X75671401Y-79121505D01*
X75485405Y-78991269D01*
X75441781Y-78936692D01*
X75434588Y-78867193D01*
X75466110Y-78804839D01*
X75485405Y-78788119D01*
X75671082Y-78658105D01*
X75838105Y-78491082D01*
X75973600Y-78297578D01*
X76073429Y-78083492D01*
X76073432Y-78083486D01*
X76130636Y-77870000D01*
X75233012Y-77870000D01*
X75265925Y-77812993D01*
X75300000Y-77685826D01*
X75300000Y-77554174D01*
X75265925Y-77427007D01*
X75233012Y-77370000D01*
X76130636Y-77370000D01*
X76130635Y-77369999D01*
X76073432Y-77156513D01*
X76073429Y-77156507D01*
X75973600Y-76942422D01*
X75973599Y-76942420D01*
X75838113Y-76748926D01*
X75838108Y-76748920D01*
X75671078Y-76581890D01*
X75485405Y-76451879D01*
X75441780Y-76397302D01*
X75434588Y-76327804D01*
X75466110Y-76265449D01*
X75485406Y-76248730D01*
X75500883Y-76237893D01*
X75671401Y-76118495D01*
X75838495Y-75951401D01*
X75974035Y-75757830D01*
X76073903Y-75543663D01*
X76135063Y-75315408D01*
X76155659Y-75080000D01*
X76135063Y-74844592D01*
X76073903Y-74616337D01*
X75974035Y-74402171D01*
X75928456Y-74337076D01*
X75838494Y-74208597D01*
X75671402Y-74041506D01*
X75671396Y-74041501D01*
X75485842Y-73911575D01*
X75442217Y-73856998D01*
X75435023Y-73787500D01*
X75466546Y-73725145D01*
X75485842Y-73708425D01*
X75539909Y-73670567D01*
X75671401Y-73578495D01*
X75838495Y-73411401D01*
X75974035Y-73217830D01*
X76073903Y-73003663D01*
X76135063Y-72775408D01*
X76155659Y-72540000D01*
X76135063Y-72304592D01*
X76073903Y-72076337D01*
X75974035Y-71862171D01*
X75838495Y-71668599D01*
X75716567Y-71546671D01*
X75683084Y-71485351D01*
X75688068Y-71415659D01*
X75729939Y-71359725D01*
X75760915Y-71342810D01*
X75892331Y-71293796D01*
X76007546Y-71207546D01*
X76093796Y-71092331D01*
X76144091Y-70957483D01*
X76150500Y-70897873D01*
X76150499Y-69102128D01*
X76144091Y-69042517D01*
X76093796Y-68907669D01*
X76093795Y-68907668D01*
X76093793Y-68907664D01*
X76007547Y-68792455D01*
X76007544Y-68792452D01*
X75892335Y-68706206D01*
X75892328Y-68706202D01*
X75757482Y-68655908D01*
X75757483Y-68655908D01*
X75697883Y-68649501D01*
X75697881Y-68649500D01*
X75697873Y-68649500D01*
X75697864Y-68649500D01*
X73902129Y-68649500D01*
X73902123Y-68649501D01*
X73842516Y-68655908D01*
X73707671Y-68706202D01*
X73707664Y-68706206D01*
X73592455Y-68792452D01*
X73592452Y-68792455D01*
X73506206Y-68907664D01*
X73506202Y-68907671D01*
X73455908Y-69042517D01*
X73450533Y-69092516D01*
X73449501Y-69102123D01*
X73449500Y-69102135D01*
X73449500Y-70897870D01*
X73449501Y-70897876D01*
X73455908Y-70957483D01*
X73506202Y-71092328D01*
X73506206Y-71092335D01*
X73592452Y-71207544D01*
X73592455Y-71207547D01*
X73707664Y-71293793D01*
X73707671Y-71293797D01*
X73839081Y-71342810D01*
X73895015Y-71384681D01*
X73919432Y-71450145D01*
X73904580Y-71518418D01*
X73883430Y-71546673D01*
X73761503Y-71668600D01*
X73625965Y-71862169D01*
X73625964Y-71862171D01*
X73526098Y-72076335D01*
X73526094Y-72076344D01*
X73464938Y-72304586D01*
X73464936Y-72304596D01*
X73444341Y-72539999D01*
X71500500Y-72539999D01*
X71500500Y-50339998D01*
X73394532Y-50339998D01*
X73394532Y-50340001D01*
X73414364Y-50566686D01*
X73414366Y-50566697D01*
X73473258Y-50786488D01*
X73473261Y-50786497D01*
X73569431Y-50992732D01*
X73569432Y-50992734D01*
X73699954Y-51179141D01*
X73860858Y-51340045D01*
X73883157Y-51355659D01*
X74047266Y-51470568D01*
X74105275Y-51497618D01*
X74157714Y-51543791D01*
X74176866Y-51610984D01*
X74156650Y-51677865D01*
X74105275Y-51722382D01*
X74047267Y-51749431D01*
X74047265Y-51749432D01*
X73860858Y-51879954D01*
X73699954Y-52040858D01*
X73569432Y-52227265D01*
X73569431Y-52227267D01*
X73473261Y-52433502D01*
X73473258Y-52433511D01*
X73414366Y-52653302D01*
X73414364Y-52653313D01*
X73394532Y-52879998D01*
X73394532Y-52880001D01*
X73414364Y-53106686D01*
X73414366Y-53106697D01*
X73473258Y-53326488D01*
X73473261Y-53326497D01*
X73569431Y-53532732D01*
X73569432Y-53532734D01*
X73699954Y-53719141D01*
X73860858Y-53880045D01*
X73860861Y-53880047D01*
X74047266Y-54010568D01*
X74105275Y-54037618D01*
X74157714Y-54083791D01*
X74176866Y-54150984D01*
X74156650Y-54217865D01*
X74105275Y-54262382D01*
X74047267Y-54289431D01*
X74047265Y-54289432D01*
X73860858Y-54419954D01*
X73699954Y-54580858D01*
X73569432Y-54767265D01*
X73569431Y-54767267D01*
X73473261Y-54973502D01*
X73473258Y-54973511D01*
X73414366Y-55193302D01*
X73414364Y-55193313D01*
X73394532Y-55419998D01*
X73394532Y-55420001D01*
X73414364Y-55646686D01*
X73414366Y-55646697D01*
X73473258Y-55866488D01*
X73473261Y-55866497D01*
X73569431Y-56072732D01*
X73569432Y-56072734D01*
X73699954Y-56259141D01*
X73860858Y-56420045D01*
X73860861Y-56420047D01*
X74047266Y-56550568D01*
X74105275Y-56577618D01*
X74157714Y-56623791D01*
X74176866Y-56690984D01*
X74156650Y-56757865D01*
X74105275Y-56802382D01*
X74047267Y-56829431D01*
X74047265Y-56829432D01*
X73860858Y-56959954D01*
X73699954Y-57120858D01*
X73569432Y-57307265D01*
X73569431Y-57307267D01*
X73473261Y-57513502D01*
X73473258Y-57513511D01*
X73414366Y-57733302D01*
X73414364Y-57733313D01*
X73394532Y-57959998D01*
X73394532Y-57960001D01*
X73414364Y-58186686D01*
X73414366Y-58186697D01*
X73473258Y-58406488D01*
X73473261Y-58406497D01*
X73569431Y-58612732D01*
X73569432Y-58612734D01*
X73699954Y-58799141D01*
X73860858Y-58960045D01*
X73868342Y-58965285D01*
X74047266Y-59090568D01*
X74105275Y-59117618D01*
X74157714Y-59163791D01*
X74176866Y-59230984D01*
X74156650Y-59297865D01*
X74105275Y-59342382D01*
X74047267Y-59369431D01*
X74047265Y-59369432D01*
X73860858Y-59499954D01*
X73699954Y-59660858D01*
X73569432Y-59847265D01*
X73569431Y-59847267D01*
X73473261Y-60053502D01*
X73473258Y-60053511D01*
X73414366Y-60273302D01*
X73414364Y-60273313D01*
X73394532Y-60499998D01*
X73394532Y-60500001D01*
X73414364Y-60726686D01*
X73414366Y-60726697D01*
X73473258Y-60946488D01*
X73473261Y-60946497D01*
X73569431Y-61152732D01*
X73569432Y-61152734D01*
X73699954Y-61339141D01*
X73860858Y-61500045D01*
X73860861Y-61500047D01*
X74047266Y-61630568D01*
X74105275Y-61657618D01*
X74157714Y-61703791D01*
X74176866Y-61770984D01*
X74156650Y-61837865D01*
X74105275Y-61882382D01*
X74047267Y-61909431D01*
X74047265Y-61909432D01*
X73860858Y-62039954D01*
X73699954Y-62200858D01*
X73569432Y-62387265D01*
X73569431Y-62387267D01*
X73473261Y-62593502D01*
X73473258Y-62593511D01*
X73414366Y-62813302D01*
X73414364Y-62813313D01*
X73394532Y-63039998D01*
X73394532Y-63040001D01*
X73414364Y-63266686D01*
X73414366Y-63266697D01*
X73473258Y-63486488D01*
X73473261Y-63486497D01*
X73569431Y-63692732D01*
X73569432Y-63692734D01*
X73699954Y-63879141D01*
X73860858Y-64040045D01*
X73860861Y-64040047D01*
X74047266Y-64170568D01*
X74253504Y-64266739D01*
X74473308Y-64325635D01*
X74635230Y-64339801D01*
X74699998Y-64345468D01*
X74700000Y-64345468D01*
X74700002Y-64345468D01*
X74756673Y-64340509D01*
X74926692Y-64325635D01*
X75146496Y-64266739D01*
X75352734Y-64170568D01*
X75539139Y-64040047D01*
X75700047Y-63879139D01*
X75830568Y-63692734D01*
X75926739Y-63486496D01*
X75985635Y-63266692D01*
X76004250Y-63053926D01*
X76005468Y-63040001D01*
X76005468Y-63039998D01*
X75995925Y-62930926D01*
X75985635Y-62813308D01*
X75932089Y-62613469D01*
X75926741Y-62593511D01*
X75926738Y-62593502D01*
X75908615Y-62554638D01*
X75830568Y-62387266D01*
X75700047Y-62200861D01*
X75700045Y-62200858D01*
X75539141Y-62039954D01*
X75352734Y-61909432D01*
X75352728Y-61909429D01*
X75294725Y-61882382D01*
X75242285Y-61836210D01*
X75223133Y-61769017D01*
X75243348Y-61702135D01*
X75294725Y-61657618D01*
X75352734Y-61630568D01*
X75539139Y-61500047D01*
X75700047Y-61339139D01*
X75830568Y-61152734D01*
X75926739Y-60946496D01*
X75985635Y-60726692D01*
X76005468Y-60500000D01*
X75985635Y-60273308D01*
X75926739Y-60053504D01*
X75830568Y-59847266D01*
X75700047Y-59660861D01*
X75700045Y-59660858D01*
X75539141Y-59499954D01*
X75352734Y-59369432D01*
X75352728Y-59369429D01*
X75294725Y-59342382D01*
X75242285Y-59296210D01*
X75223133Y-59229017D01*
X75243348Y-59162135D01*
X75294725Y-59117618D01*
X75352734Y-59090568D01*
X75539139Y-58960047D01*
X75700047Y-58799139D01*
X75830568Y-58612734D01*
X75926739Y-58406496D01*
X75985635Y-58186692D01*
X76005468Y-57960000D01*
X75985635Y-57733308D01*
X75926739Y-57513504D01*
X75830568Y-57307266D01*
X75700047Y-57120861D01*
X75700045Y-57120858D01*
X75539141Y-56959954D01*
X75352734Y-56829432D01*
X75352728Y-56829429D01*
X75294725Y-56802382D01*
X75242285Y-56756210D01*
X75223133Y-56689017D01*
X75243348Y-56622135D01*
X75294725Y-56577618D01*
X75352734Y-56550568D01*
X75503445Y-56445039D01*
X75569650Y-56422713D01*
X75637417Y-56439723D01*
X75639330Y-56440871D01*
X75670244Y-56459815D01*
X75744237Y-56505157D01*
X75759978Y-56516594D01*
X75882841Y-56621526D01*
X75889992Y-56628136D01*
X76145268Y-56883412D01*
X76145275Y-56883420D01*
X76207216Y-56945361D01*
X76211412Y-56949768D01*
X76411185Y-57170180D01*
X76418905Y-57179587D01*
X76594307Y-57416086D01*
X76601068Y-57426203D01*
X76752447Y-57678758D01*
X76758183Y-57689490D01*
X76884074Y-57955659D01*
X76888731Y-57966901D01*
X76987926Y-58244123D01*
X76991459Y-58255768D01*
X77063008Y-58541393D01*
X77065382Y-58553328D01*
X77108588Y-58844581D01*
X77109781Y-58856691D01*
X77124351Y-59153179D01*
X77124500Y-59159265D01*
X77124500Y-60251793D01*
X77124499Y-60251819D01*
X77124499Y-60291761D01*
X77124467Y-60291869D01*
X77124469Y-60534708D01*
X77124470Y-60534719D01*
X77154532Y-60916646D01*
X77154533Y-60916658D01*
X77214471Y-61295060D01*
X77303905Y-61667562D01*
X77303911Y-61667584D01*
X77303912Y-61667586D01*
X77422306Y-62031953D01*
X77542794Y-62322831D01*
X77568925Y-62385914D01*
X77742848Y-62727248D01*
X77742854Y-62727258D01*
X77742858Y-62727266D01*
X77943040Y-63053927D01*
X77943046Y-63053935D01*
X77943057Y-63053952D01*
X78168225Y-63363862D01*
X78168239Y-63363880D01*
X78215881Y-63419661D01*
X78417052Y-63655198D01*
X78535589Y-63773733D01*
X78552506Y-63790650D01*
X79531056Y-64769200D01*
X79531063Y-64769208D01*
X79559762Y-64797907D01*
X79559795Y-64797968D01*
X79695019Y-64933189D01*
X79913422Y-65112425D01*
X79913429Y-65112430D01*
X80015633Y-65180719D01*
X80148342Y-65269390D01*
X80397512Y-65402570D01*
X80658537Y-65510687D01*
X80928902Y-65592698D01*
X81206004Y-65647813D01*
X81487174Y-65675502D01*
X81628439Y-65675500D01*
X82000500Y-65675500D01*
X82067539Y-65695185D01*
X82113294Y-65747989D01*
X82124500Y-65799500D01*
X82124500Y-95355977D01*
X82124382Y-95361385D01*
X82108581Y-95723322D01*
X82107638Y-95734099D01*
X82060706Y-96090590D01*
X82058828Y-96101243D01*
X81981002Y-96452299D01*
X81978202Y-96462748D01*
X81870077Y-96805679D01*
X81866377Y-96815844D01*
X81728777Y-97148042D01*
X81724205Y-97157847D01*
X81558176Y-97476787D01*
X81552768Y-97486155D01*
X81473298Y-97610899D01*
X81420676Y-97656863D01*
X81351557Y-97667081D01*
X81287887Y-97638309D01*
X81249880Y-97579681D01*
X81248942Y-97576367D01*
X81226741Y-97493511D01*
X81226738Y-97493502D01*
X81130568Y-97287267D01*
X81130567Y-97287265D01*
X81000045Y-97100858D01*
X80839141Y-96939954D01*
X80652734Y-96809432D01*
X80652728Y-96809429D01*
X80594725Y-96782382D01*
X80542285Y-96736210D01*
X80523133Y-96669017D01*
X80543348Y-96602135D01*
X80594725Y-96557618D01*
X80652734Y-96530568D01*
X80839139Y-96400047D01*
X81000047Y-96239139D01*
X81130568Y-96052734D01*
X81226739Y-95846496D01*
X81285635Y-95626692D01*
X81305468Y-95400000D01*
X81301616Y-95355977D01*
X81285635Y-95173313D01*
X81285635Y-95173308D01*
X81226739Y-94953504D01*
X81130568Y-94747266D01*
X81000047Y-94560861D01*
X81000045Y-94560858D01*
X80839141Y-94399954D01*
X80652734Y-94269432D01*
X80652728Y-94269429D01*
X80594725Y-94242382D01*
X80542285Y-94196210D01*
X80523133Y-94129017D01*
X80543348Y-94062135D01*
X80594725Y-94017618D01*
X80652734Y-93990568D01*
X80839139Y-93860047D01*
X81000047Y-93699139D01*
X81130568Y-93512734D01*
X81226739Y-93306496D01*
X81285635Y-93086692D01*
X81305468Y-92860000D01*
X81285635Y-92633308D01*
X81226739Y-92413504D01*
X81130568Y-92207266D01*
X81000047Y-92020861D01*
X81000045Y-92020858D01*
X80839141Y-91859954D01*
X80652734Y-91729432D01*
X80652728Y-91729429D01*
X80594725Y-91702382D01*
X80542285Y-91656210D01*
X80523133Y-91589017D01*
X80543348Y-91522135D01*
X80594725Y-91477618D01*
X80652734Y-91450568D01*
X80839139Y-91320047D01*
X81000047Y-91159139D01*
X81130568Y-90972734D01*
X81226739Y-90766496D01*
X81285635Y-90546692D01*
X81305468Y-90320000D01*
X81285635Y-90093308D01*
X81226739Y-89873504D01*
X81130568Y-89667266D01*
X81000047Y-89480861D01*
X81000045Y-89480858D01*
X80839141Y-89319954D01*
X80652734Y-89189432D01*
X80652728Y-89189429D01*
X80594725Y-89162382D01*
X80542285Y-89116210D01*
X80523133Y-89049017D01*
X80543348Y-88982135D01*
X80594725Y-88937618D01*
X80652734Y-88910568D01*
X80839139Y-88780047D01*
X81000047Y-88619139D01*
X81130568Y-88432734D01*
X81226739Y-88226496D01*
X81285635Y-88006692D01*
X81305468Y-87780000D01*
X81285635Y-87553308D01*
X81226739Y-87333504D01*
X81130568Y-87127266D01*
X81000047Y-86940861D01*
X81000045Y-86940858D01*
X80839141Y-86779954D01*
X80652734Y-86649432D01*
X80652728Y-86649429D01*
X80594725Y-86622382D01*
X80542285Y-86576210D01*
X80523133Y-86509017D01*
X80543348Y-86442135D01*
X80594725Y-86397618D01*
X80652734Y-86370568D01*
X80839139Y-86240047D01*
X81000047Y-86079139D01*
X81130568Y-85892734D01*
X81226739Y-85686496D01*
X81285635Y-85466692D01*
X81305468Y-85240000D01*
X81285635Y-85013308D01*
X81226739Y-84793504D01*
X81130568Y-84587266D01*
X81000047Y-84400861D01*
X81000045Y-84400858D01*
X80839141Y-84239954D01*
X80652734Y-84109432D01*
X80652728Y-84109429D01*
X80594725Y-84082382D01*
X80542285Y-84036210D01*
X80523133Y-83969017D01*
X80543348Y-83902135D01*
X80594725Y-83857618D01*
X80652734Y-83830568D01*
X80839139Y-83700047D01*
X81000047Y-83539139D01*
X81130568Y-83352734D01*
X81226739Y-83146496D01*
X81285635Y-82926692D01*
X81305468Y-82700000D01*
X81285635Y-82473308D01*
X81226739Y-82253504D01*
X81130568Y-82047266D01*
X81000047Y-81860861D01*
X81000045Y-81860858D01*
X80839141Y-81699954D01*
X80652734Y-81569432D01*
X80652728Y-81569429D01*
X80594725Y-81542382D01*
X80542285Y-81496210D01*
X80523133Y-81429017D01*
X80543348Y-81362135D01*
X80594725Y-81317618D01*
X80652734Y-81290568D01*
X80839139Y-81160047D01*
X81000047Y-80999139D01*
X81130568Y-80812734D01*
X81226739Y-80606496D01*
X81285635Y-80386692D01*
X81305468Y-80160000D01*
X81285635Y-79933308D01*
X81226739Y-79713504D01*
X81130568Y-79507266D01*
X81000047Y-79320861D01*
X81000045Y-79320858D01*
X80839141Y-79159954D01*
X80652734Y-79029432D01*
X80652732Y-79029431D01*
X80594725Y-79002382D01*
X80594132Y-79002105D01*
X80541694Y-78955934D01*
X80522542Y-78888740D01*
X80542758Y-78821859D01*
X80594134Y-78777341D01*
X80652484Y-78750132D01*
X80838820Y-78619657D01*
X80999657Y-78458820D01*
X81130134Y-78272482D01*
X81226265Y-78066326D01*
X81226269Y-78066317D01*
X81278872Y-77870000D01*
X80433012Y-77870000D01*
X80465925Y-77812993D01*
X80500000Y-77685826D01*
X80500000Y-77554174D01*
X80465925Y-77427007D01*
X80433012Y-77370000D01*
X81278872Y-77370000D01*
X81278872Y-77369999D01*
X81226269Y-77173682D01*
X81226265Y-77173673D01*
X81130134Y-76967517D01*
X80999657Y-76781179D01*
X80838820Y-76620342D01*
X80652482Y-76489865D01*
X80594133Y-76462657D01*
X80541694Y-76416484D01*
X80522542Y-76349291D01*
X80542758Y-76282410D01*
X80594129Y-76237895D01*
X80652734Y-76210568D01*
X80839139Y-76080047D01*
X81000047Y-75919139D01*
X81130568Y-75732734D01*
X81226739Y-75526496D01*
X81285635Y-75306692D01*
X81305468Y-75080000D01*
X81285635Y-74853308D01*
X81226739Y-74633504D01*
X81130568Y-74427266D01*
X81000047Y-74240861D01*
X81000045Y-74240858D01*
X80839141Y-74079954D01*
X80652734Y-73949432D01*
X80652728Y-73949429D01*
X80594725Y-73922382D01*
X80542285Y-73876210D01*
X80523133Y-73809017D01*
X80543348Y-73742135D01*
X80594725Y-73697618D01*
X80595319Y-73697341D01*
X80652734Y-73670568D01*
X80839139Y-73540047D01*
X81000047Y-73379139D01*
X81130568Y-73192734D01*
X81226739Y-72986496D01*
X81285635Y-72766692D01*
X81305468Y-72540000D01*
X81285635Y-72313308D01*
X81226739Y-72093504D01*
X81130568Y-71887266D01*
X81000047Y-71700861D01*
X81000045Y-71700858D01*
X80839143Y-71539956D01*
X80814536Y-71522726D01*
X80770912Y-71468149D01*
X80763719Y-71398650D01*
X80795241Y-71336296D01*
X80855471Y-71300882D01*
X80872404Y-71297861D01*
X80907483Y-71294091D01*
X81042331Y-71243796D01*
X81157546Y-71157546D01*
X81243796Y-71042331D01*
X81294091Y-70907483D01*
X81300500Y-70847873D01*
X81300499Y-69152128D01*
X81294091Y-69092517D01*
X81275442Y-69042517D01*
X81243797Y-68957671D01*
X81243793Y-68957664D01*
X81157547Y-68842455D01*
X81157544Y-68842452D01*
X81042335Y-68756206D01*
X81042328Y-68756202D01*
X80907482Y-68705908D01*
X80907483Y-68705908D01*
X80847883Y-68699501D01*
X80847881Y-68699500D01*
X80847873Y-68699500D01*
X80847864Y-68699500D01*
X79152129Y-68699500D01*
X79152123Y-68699501D01*
X79092516Y-68705908D01*
X78957671Y-68756202D01*
X78957664Y-68756206D01*
X78842455Y-68842452D01*
X78842452Y-68842455D01*
X78756206Y-68957664D01*
X78756202Y-68957671D01*
X78705908Y-69092517D01*
X78699501Y-69152116D01*
X78699501Y-69152123D01*
X78699500Y-69152135D01*
X78699500Y-70847870D01*
X78699501Y-70847876D01*
X78705908Y-70907483D01*
X78756202Y-71042328D01*
X78756206Y-71042335D01*
X78842452Y-71157544D01*
X78842455Y-71157547D01*
X78957664Y-71243793D01*
X78957671Y-71243797D01*
X79002618Y-71260561D01*
X79092517Y-71294091D01*
X79127596Y-71297862D01*
X79192144Y-71324599D01*
X79231993Y-71381991D01*
X79234488Y-71451816D01*
X79198836Y-71511905D01*
X79185464Y-71522725D01*
X79160858Y-71539954D01*
X78999954Y-71700858D01*
X78869432Y-71887265D01*
X78869431Y-71887267D01*
X78773261Y-72093502D01*
X78773258Y-72093511D01*
X78714366Y-72313302D01*
X78714364Y-72313313D01*
X78694532Y-72539998D01*
X78694532Y-72540001D01*
X78714364Y-72766686D01*
X78714366Y-72766697D01*
X78773258Y-72986488D01*
X78773261Y-72986497D01*
X78869431Y-73192732D01*
X78869432Y-73192734D01*
X78999954Y-73379141D01*
X79160858Y-73540045D01*
X79160861Y-73540047D01*
X79347266Y-73670568D01*
X79404681Y-73697341D01*
X79405275Y-73697618D01*
X79457714Y-73743791D01*
X79476866Y-73810984D01*
X79456650Y-73877865D01*
X79405275Y-73922382D01*
X79347267Y-73949431D01*
X79347265Y-73949432D01*
X79160858Y-74079954D01*
X78999954Y-74240858D01*
X78869432Y-74427265D01*
X78869431Y-74427267D01*
X78773261Y-74633502D01*
X78773258Y-74633511D01*
X78714366Y-74853302D01*
X78714364Y-74853313D01*
X78694532Y-75079998D01*
X78694532Y-75080001D01*
X78714364Y-75306686D01*
X78714366Y-75306697D01*
X78773258Y-75526488D01*
X78773261Y-75526497D01*
X78869431Y-75732732D01*
X78869432Y-75732734D01*
X78999954Y-75919141D01*
X79160858Y-76080045D01*
X79160861Y-76080047D01*
X79347266Y-76210568D01*
X79405865Y-76237893D01*
X79458305Y-76284065D01*
X79477457Y-76351258D01*
X79457242Y-76418139D01*
X79405867Y-76462657D01*
X79347515Y-76489867D01*
X79161179Y-76620342D01*
X79000342Y-76781179D01*
X78869865Y-76967517D01*
X78773734Y-77173673D01*
X78773730Y-77173682D01*
X78721127Y-77369999D01*
X78721128Y-77370000D01*
X79566988Y-77370000D01*
X79534075Y-77427007D01*
X79500000Y-77554174D01*
X79500000Y-77685826D01*
X79534075Y-77812993D01*
X79566988Y-77870000D01*
X78721128Y-77870000D01*
X78773730Y-78066317D01*
X78773734Y-78066326D01*
X78869865Y-78272482D01*
X79000342Y-78458820D01*
X79161179Y-78619657D01*
X79347518Y-78750134D01*
X79347520Y-78750135D01*
X79405865Y-78777342D01*
X79458305Y-78823514D01*
X79477457Y-78890707D01*
X79457242Y-78957589D01*
X79405867Y-79002105D01*
X79347268Y-79029431D01*
X79347264Y-79029433D01*
X79160858Y-79159954D01*
X78999954Y-79320858D01*
X78869432Y-79507265D01*
X78869431Y-79507267D01*
X78773261Y-79713502D01*
X78773258Y-79713511D01*
X78714366Y-79933302D01*
X78714364Y-79933313D01*
X78694532Y-80159998D01*
X78694532Y-80160001D01*
X78714364Y-80386686D01*
X78714366Y-80386697D01*
X78773258Y-80606488D01*
X78773261Y-80606497D01*
X78869431Y-80812732D01*
X78869432Y-80812734D01*
X78999954Y-80999141D01*
X79160858Y-81160045D01*
X79160861Y-81160047D01*
X79347266Y-81290568D01*
X79405275Y-81317618D01*
X79457714Y-81363791D01*
X79476866Y-81430984D01*
X79456650Y-81497865D01*
X79405275Y-81542382D01*
X79347267Y-81569431D01*
X79347265Y-81569432D01*
X79160858Y-81699954D01*
X78999954Y-81860858D01*
X78869432Y-82047265D01*
X78869431Y-82047267D01*
X78773261Y-82253502D01*
X78773258Y-82253511D01*
X78714366Y-82473302D01*
X78714364Y-82473313D01*
X78694532Y-82699998D01*
X78694532Y-82700001D01*
X78714364Y-82926686D01*
X78714366Y-82926697D01*
X78773258Y-83146488D01*
X78773261Y-83146497D01*
X78869431Y-83352732D01*
X78869432Y-83352734D01*
X78999954Y-83539141D01*
X79160858Y-83700045D01*
X79160861Y-83700047D01*
X79347266Y-83830568D01*
X79405275Y-83857618D01*
X79457714Y-83903791D01*
X79476866Y-83970984D01*
X79456650Y-84037865D01*
X79405275Y-84082382D01*
X79347267Y-84109431D01*
X79347265Y-84109432D01*
X79160858Y-84239954D01*
X78999954Y-84400858D01*
X78869432Y-84587265D01*
X78869431Y-84587267D01*
X78773261Y-84793502D01*
X78773258Y-84793511D01*
X78714366Y-85013302D01*
X78714364Y-85013313D01*
X78694532Y-85239998D01*
X78694532Y-85240001D01*
X78714364Y-85466686D01*
X78714366Y-85466697D01*
X78773258Y-85686488D01*
X78773261Y-85686497D01*
X78869431Y-85892732D01*
X78869432Y-85892734D01*
X78999954Y-86079141D01*
X79160858Y-86240045D01*
X79160861Y-86240047D01*
X79347266Y-86370568D01*
X79405275Y-86397618D01*
X79457714Y-86443791D01*
X79476866Y-86510984D01*
X79456650Y-86577865D01*
X79405275Y-86622382D01*
X79347267Y-86649431D01*
X79347265Y-86649432D01*
X79160858Y-86779954D01*
X78999954Y-86940858D01*
X78869432Y-87127265D01*
X78869431Y-87127267D01*
X78773261Y-87333502D01*
X78773258Y-87333511D01*
X78714366Y-87553302D01*
X78714364Y-87553313D01*
X78694532Y-87779998D01*
X78694532Y-87780001D01*
X78714364Y-88006686D01*
X78714366Y-88006697D01*
X78773258Y-88226488D01*
X78773261Y-88226497D01*
X78869431Y-88432732D01*
X78869432Y-88432734D01*
X78999954Y-88619141D01*
X79160858Y-88780045D01*
X79160861Y-88780047D01*
X79347266Y-88910568D01*
X79405275Y-88937618D01*
X79457714Y-88983791D01*
X79476866Y-89050984D01*
X79456650Y-89117865D01*
X79405275Y-89162382D01*
X79347267Y-89189431D01*
X79347265Y-89189432D01*
X79160858Y-89319954D01*
X78999954Y-89480858D01*
X78869432Y-89667265D01*
X78869431Y-89667267D01*
X78773261Y-89873502D01*
X78773258Y-89873511D01*
X78714366Y-90093302D01*
X78714364Y-90093313D01*
X78694532Y-90319998D01*
X78694532Y-90320001D01*
X78714364Y-90546686D01*
X78714366Y-90546697D01*
X78773258Y-90766488D01*
X78773261Y-90766497D01*
X78869431Y-90972732D01*
X78869432Y-90972734D01*
X78999954Y-91159141D01*
X79160858Y-91320045D01*
X79160861Y-91320047D01*
X79347266Y-91450568D01*
X79405275Y-91477618D01*
X79457714Y-91523791D01*
X79476866Y-91590984D01*
X79456650Y-91657865D01*
X79405275Y-91702382D01*
X79347267Y-91729431D01*
X79347265Y-91729432D01*
X79160858Y-91859954D01*
X78999954Y-92020858D01*
X78869432Y-92207265D01*
X78869431Y-92207267D01*
X78773261Y-92413502D01*
X78773258Y-92413511D01*
X78714366Y-92633302D01*
X78714364Y-92633313D01*
X78694532Y-92859998D01*
X78694532Y-92860001D01*
X78714364Y-93086686D01*
X78714366Y-93086697D01*
X78773258Y-93306488D01*
X78773261Y-93306497D01*
X78869431Y-93512732D01*
X78869432Y-93512734D01*
X78999954Y-93699141D01*
X79160858Y-93860045D01*
X79160861Y-93860047D01*
X79347266Y-93990568D01*
X79405275Y-94017618D01*
X79457714Y-94063791D01*
X79476866Y-94130984D01*
X79456650Y-94197865D01*
X79405275Y-94242382D01*
X79347267Y-94269431D01*
X79347265Y-94269432D01*
X79160858Y-94399954D01*
X78999954Y-94560858D01*
X78869432Y-94747265D01*
X78869431Y-94747267D01*
X78773261Y-94953502D01*
X78773258Y-94953511D01*
X78714366Y-95173302D01*
X78714364Y-95173313D01*
X78694532Y-95399998D01*
X78694532Y-95400001D01*
X78714364Y-95626686D01*
X78714366Y-95626697D01*
X78773258Y-95846488D01*
X78773261Y-95846497D01*
X78869431Y-96052732D01*
X78869432Y-96052734D01*
X78999954Y-96239141D01*
X79160858Y-96400045D01*
X79160861Y-96400047D01*
X79347266Y-96530568D01*
X79405275Y-96557618D01*
X79457714Y-96603791D01*
X79476866Y-96670984D01*
X79456650Y-96737865D01*
X79405275Y-96782382D01*
X79347267Y-96809431D01*
X79347265Y-96809432D01*
X79160858Y-96939954D01*
X78999954Y-97100858D01*
X78869432Y-97287265D01*
X78869431Y-97287267D01*
X78773261Y-97493502D01*
X78773258Y-97493511D01*
X78714366Y-97713302D01*
X78714364Y-97713313D01*
X78694532Y-97939998D01*
X78694532Y-97940001D01*
X78714364Y-98166686D01*
X78714366Y-98166697D01*
X78773258Y-98386488D01*
X78773261Y-98386497D01*
X78869431Y-98592732D01*
X78869432Y-98592734D01*
X78999954Y-98779141D01*
X79160858Y-98940045D01*
X79160861Y-98940047D01*
X79347266Y-99070568D01*
X79405275Y-99097618D01*
X79457714Y-99143791D01*
X79476866Y-99210984D01*
X79456650Y-99277865D01*
X79405275Y-99322382D01*
X79347267Y-99349431D01*
X79347265Y-99349432D01*
X79160858Y-99479954D01*
X78999954Y-99640858D01*
X78869432Y-99827265D01*
X78869431Y-99827267D01*
X78773261Y-100033502D01*
X78773258Y-100033511D01*
X78714366Y-100253302D01*
X78714364Y-100253313D01*
X78694532Y-100479998D01*
X78694532Y-100480001D01*
X78714364Y-100706686D01*
X78714366Y-100706697D01*
X78773258Y-100926488D01*
X78773261Y-100926497D01*
X78869431Y-101132732D01*
X78869432Y-101132734D01*
X78999954Y-101319141D01*
X79160858Y-101480045D01*
X79160861Y-101480047D01*
X79347266Y-101610568D01*
X79405275Y-101637618D01*
X79457714Y-101683791D01*
X79476866Y-101750984D01*
X79456650Y-101817865D01*
X79405275Y-101862382D01*
X79347267Y-101889431D01*
X79347265Y-101889432D01*
X79160858Y-102019954D01*
X78999954Y-102180858D01*
X78869432Y-102367265D01*
X78869431Y-102367267D01*
X78773261Y-102573502D01*
X78773258Y-102573511D01*
X78714366Y-102793302D01*
X78714364Y-102793313D01*
X78694532Y-103019998D01*
X78694532Y-103020001D01*
X78714364Y-103246686D01*
X78714366Y-103246697D01*
X78773258Y-103466488D01*
X78773261Y-103466497D01*
X78869431Y-103672732D01*
X78869432Y-103672734D01*
X78999954Y-103859141D01*
X79160858Y-104020045D01*
X79207693Y-104052839D01*
X79347266Y-104150568D01*
X79405275Y-104177618D01*
X79457714Y-104223791D01*
X79476866Y-104290984D01*
X79456650Y-104357865D01*
X79405275Y-104402382D01*
X79347267Y-104429431D01*
X79347265Y-104429432D01*
X79160858Y-104559954D01*
X78999954Y-104720858D01*
X78869432Y-104907265D01*
X78869431Y-104907267D01*
X78773261Y-105113502D01*
X78773258Y-105113511D01*
X78714366Y-105333302D01*
X78714364Y-105333313D01*
X78694532Y-105559998D01*
X78694532Y-105560001D01*
X78714364Y-105786686D01*
X78714366Y-105786697D01*
X78773258Y-106006488D01*
X78773261Y-106006497D01*
X78869431Y-106212732D01*
X78869432Y-106212734D01*
X78999954Y-106399141D01*
X79160858Y-106560045D01*
X79207693Y-106592839D01*
X79347266Y-106690568D01*
X79553504Y-106786739D01*
X79773308Y-106845635D01*
X79935230Y-106859801D01*
X79999998Y-106865468D01*
X80000000Y-106865468D01*
X80000002Y-106865468D01*
X80056673Y-106860509D01*
X80226692Y-106845635D01*
X80446496Y-106786739D01*
X80652734Y-106690568D01*
X80839139Y-106560047D01*
X81000047Y-106399139D01*
X81130568Y-106212734D01*
X81226739Y-106006496D01*
X81285635Y-105786692D01*
X81305468Y-105560000D01*
X81285635Y-105333308D01*
X81226739Y-105113504D01*
X81130568Y-104907266D01*
X81000047Y-104720861D01*
X81000045Y-104720858D01*
X80839141Y-104559954D01*
X80652734Y-104429432D01*
X80652728Y-104429429D01*
X80594725Y-104402382D01*
X80542285Y-104356210D01*
X80523133Y-104289017D01*
X80543348Y-104222135D01*
X80594725Y-104177618D01*
X80652734Y-104150568D01*
X80839139Y-104020047D01*
X81000047Y-103859139D01*
X81130568Y-103672734D01*
X81226739Y-103466496D01*
X81285635Y-103246692D01*
X81305468Y-103020000D01*
X81285635Y-102793308D01*
X81226739Y-102573504D01*
X81130568Y-102367266D01*
X81000047Y-102180861D01*
X81000045Y-102180858D01*
X80839141Y-102019954D01*
X80652734Y-101889432D01*
X80652728Y-101889429D01*
X80594725Y-101862382D01*
X80542285Y-101816210D01*
X80523133Y-101749017D01*
X80543348Y-101682135D01*
X80594725Y-101637618D01*
X80652734Y-101610568D01*
X80839139Y-101480047D01*
X81000047Y-101319139D01*
X81130568Y-101132734D01*
X81226739Y-100926496D01*
X81285635Y-100706692D01*
X81305468Y-100480000D01*
X81305091Y-100475695D01*
X81318856Y-100407196D01*
X81340935Y-100377207D01*
X82082747Y-99635397D01*
X82082775Y-99635381D01*
X82119078Y-99599078D01*
X82270524Y-99447631D01*
X82551036Y-99123902D01*
X82807740Y-98780987D01*
X83039325Y-98420631D01*
X83244613Y-98044673D01*
X83244616Y-98044665D01*
X83244619Y-98044661D01*
X83422551Y-97655041D01*
X83422550Y-97655041D01*
X83422557Y-97655028D01*
X83572251Y-97253680D01*
X83692932Y-96842677D01*
X83700165Y-96809429D01*
X83783983Y-96424117D01*
X83787444Y-96400045D01*
X83844944Y-96000116D01*
X83875500Y-95572853D01*
X83875500Y-95358675D01*
X83875500Y-65406092D01*
X83876097Y-65393939D01*
X83880074Y-65353556D01*
X83885313Y-65300357D01*
X83890052Y-65276533D01*
X83915575Y-65192398D01*
X83924872Y-65169954D01*
X83966318Y-65092415D01*
X83979814Y-65072218D01*
X84039533Y-64999452D01*
X84047687Y-64990455D01*
X84104301Y-64933843D01*
X84104302Y-64933840D01*
X84111363Y-64926780D01*
X84111369Y-64926772D01*
X84930044Y-64108098D01*
X84930045Y-64108095D01*
X84934473Y-64103668D01*
X84934638Y-64103485D01*
X85011940Y-64026184D01*
X85011940Y-64026183D01*
X85011953Y-64026171D01*
X85274433Y-63718847D01*
X85511991Y-63391877D01*
X85723164Y-63047277D01*
X85903570Y-62693210D01*
X85951544Y-62642417D01*
X86019365Y-62625622D01*
X86085500Y-62648159D01*
X86128951Y-62702875D01*
X86133829Y-62717414D01*
X86173729Y-62866323D01*
X86173732Y-62866330D01*
X86269863Y-63072486D01*
X86400340Y-63258824D01*
X86561177Y-63419661D01*
X86747515Y-63550138D01*
X86953671Y-63646269D01*
X86953680Y-63646273D01*
X87149997Y-63698876D01*
X87149998Y-63698875D01*
X87149998Y-62735690D01*
X87154392Y-62740084D01*
X87245604Y-62792745D01*
X87347337Y-62820004D01*
X87452659Y-62820004D01*
X87554392Y-62792745D01*
X87645604Y-62740084D01*
X87649998Y-62735690D01*
X87649998Y-63698876D01*
X87846315Y-63646273D01*
X87846324Y-63646269D01*
X88052480Y-63550138D01*
X88238818Y-63419661D01*
X88399655Y-63258824D01*
X88530132Y-63072486D01*
X88626263Y-62866330D01*
X88626267Y-62866321D01*
X88678870Y-62670004D01*
X87715684Y-62670004D01*
X87720078Y-62665610D01*
X87772739Y-62574398D01*
X87799998Y-62472665D01*
X87799998Y-62367343D01*
X87772739Y-62265610D01*
X87720078Y-62174398D01*
X87715684Y-62170004D01*
X88678870Y-62170004D01*
X88678870Y-62170003D01*
X88626267Y-61973686D01*
X88626263Y-61973677D01*
X88530132Y-61767521D01*
X88399655Y-61581183D01*
X88238818Y-61420346D01*
X88052479Y-61289869D01*
X88052477Y-61289868D01*
X87994131Y-61262661D01*
X87941691Y-61216489D01*
X87922539Y-61149296D01*
X87942754Y-61082414D01*
X87994131Y-61037897D01*
X88052736Y-61010569D01*
X88239141Y-60880048D01*
X88400049Y-60719140D01*
X88530570Y-60532735D01*
X88626741Y-60326497D01*
X88685637Y-60106693D01*
X88705470Y-59880001D01*
X88705469Y-59879995D01*
X88695119Y-59761688D01*
X88685637Y-59653309D01*
X88626741Y-59433505D01*
X88530570Y-59227267D01*
X88400049Y-59040862D01*
X88400047Y-59040859D01*
X88239143Y-58879955D01*
X88052736Y-58749433D01*
X88052734Y-58749432D01*
X87994725Y-58722382D01*
X87942286Y-58676209D01*
X87923134Y-58609016D01*
X87943350Y-58542135D01*
X87994721Y-58497620D01*
X88052734Y-58470569D01*
X88239139Y-58340048D01*
X88400047Y-58179140D01*
X88530568Y-57992735D01*
X88626739Y-57786497D01*
X88685635Y-57566693D01*
X88705468Y-57340001D01*
X88685635Y-57113309D01*
X88640634Y-56945361D01*
X88626741Y-56893512D01*
X88626738Y-56893504D01*
X88530568Y-56687267D01*
X88400047Y-56500862D01*
X88400046Y-56500861D01*
X88400045Y-56500859D01*
X88239139Y-56339953D01*
X88214535Y-56322725D01*
X88170910Y-56268148D01*
X88163718Y-56198649D01*
X88195241Y-56136295D01*
X88255471Y-56100882D01*
X88272401Y-56097862D01*
X88307483Y-56094091D01*
X88442331Y-56043796D01*
X88557546Y-55957546D01*
X88643796Y-55842331D01*
X88694091Y-55707483D01*
X88700500Y-55647873D01*
X88700499Y-53952128D01*
X88694091Y-53892517D01*
X88691458Y-53885460D01*
X88686475Y-53815769D01*
X88719959Y-53754446D01*
X88781283Y-53720961D01*
X88823827Y-53719188D01*
X89013554Y-53744167D01*
X89024181Y-53746040D01*
X89402535Y-53829921D01*
X89412961Y-53832714D01*
X89782554Y-53949248D01*
X89792704Y-53952942D01*
X90150730Y-54101242D01*
X90160521Y-54105809D01*
X90504243Y-54284739D01*
X90513610Y-54290146D01*
X90552286Y-54314786D01*
X90840442Y-54498361D01*
X90849303Y-54504566D01*
X91156733Y-54740465D01*
X91165014Y-54747414D01*
X91452883Y-55011197D01*
X91456791Y-55014938D01*
X93614173Y-57172320D01*
X93647658Y-57233643D01*
X93642674Y-57303335D01*
X93614173Y-57347682D01*
X93117257Y-57844599D01*
X93117212Y-57844623D01*
X92937948Y-58023886D01*
X92677992Y-58333690D01*
X92446054Y-58664933D01*
X92446038Y-58664959D01*
X92243847Y-59015165D01*
X92243838Y-59015182D01*
X92072942Y-59381672D01*
X92072934Y-59381691D01*
X91934629Y-59761688D01*
X91934624Y-59761703D01*
X91829964Y-60152313D01*
X91829960Y-60152330D01*
X91759741Y-60550573D01*
X91759741Y-60550576D01*
X91724498Y-60953438D01*
X91724498Y-60953439D01*
X91724500Y-61106733D01*
X91724500Y-102647804D01*
X91724504Y-102647885D01*
X91724504Y-102724899D01*
X91754032Y-103062416D01*
X91754032Y-103062420D01*
X91812863Y-103396068D01*
X91812867Y-103396085D01*
X91900552Y-103723336D01*
X92016431Y-104041715D01*
X92159616Y-104348777D01*
X92159624Y-104348792D01*
X92206180Y-104429429D01*
X92329026Y-104642204D01*
X92329030Y-104642210D01*
X92329037Y-104642221D01*
X92523359Y-104919742D01*
X92741144Y-105179286D01*
X92796321Y-105234463D01*
X92796346Y-105234490D01*
X93364994Y-105803138D01*
X93365038Y-105803186D01*
X93392131Y-105830277D01*
X93392152Y-105830316D01*
X93429810Y-105867972D01*
X93429810Y-105867973D01*
X93519619Y-105957777D01*
X93602370Y-106021271D01*
X93721142Y-106112404D01*
X93802324Y-106159272D01*
X93941125Y-106239405D01*
X94171096Y-106334658D01*
X94225219Y-106378096D01*
X94239955Y-106399142D01*
X94400858Y-106560045D01*
X94447693Y-106592839D01*
X94587266Y-106690568D01*
X94793504Y-106786739D01*
X95013308Y-106845635D01*
X95175230Y-106859801D01*
X95239998Y-106865468D01*
X95240000Y-106865468D01*
X95240002Y-106865468D01*
X95296673Y-106860509D01*
X95466692Y-106845635D01*
X95686496Y-106786739D01*
X95892734Y-106690568D01*
X96079139Y-106560047D01*
X96240047Y-106399139D01*
X96370568Y-106212734D01*
X96466739Y-106006496D01*
X96525635Y-105786692D01*
X96545468Y-105560000D01*
X96525635Y-105333308D01*
X96466739Y-105113504D01*
X96370568Y-104907266D01*
X96240047Y-104720861D01*
X96240045Y-104720858D01*
X96079141Y-104559954D01*
X95892734Y-104429432D01*
X95892728Y-104429429D01*
X95834725Y-104402382D01*
X95782285Y-104356210D01*
X95763133Y-104289017D01*
X95783348Y-104222135D01*
X95834725Y-104177618D01*
X95892734Y-104150568D01*
X96079139Y-104020047D01*
X96240047Y-103859139D01*
X96370568Y-103672734D01*
X96466739Y-103466496D01*
X96525635Y-103246692D01*
X96545468Y-103020000D01*
X96525635Y-102793308D01*
X96466739Y-102573504D01*
X96370568Y-102367266D01*
X96240047Y-102180861D01*
X96240045Y-102180858D01*
X96079141Y-102019954D01*
X95892734Y-101889432D01*
X95892728Y-101889429D01*
X95834725Y-101862382D01*
X95782285Y-101816210D01*
X95763133Y-101749017D01*
X95783348Y-101682135D01*
X95834725Y-101637618D01*
X95892734Y-101610568D01*
X96079139Y-101480047D01*
X96240047Y-101319139D01*
X96370568Y-101132734D01*
X96466739Y-100926496D01*
X96525635Y-100706692D01*
X96545468Y-100480000D01*
X96525635Y-100253308D01*
X96466739Y-100033504D01*
X96370568Y-99827266D01*
X96240047Y-99640861D01*
X96240045Y-99640858D01*
X96079141Y-99479954D01*
X95892734Y-99349432D01*
X95892728Y-99349429D01*
X95834725Y-99322382D01*
X95782285Y-99276210D01*
X95763133Y-99209017D01*
X95783348Y-99142135D01*
X95834725Y-99097618D01*
X95892734Y-99070568D01*
X96079139Y-98940047D01*
X96240047Y-98779139D01*
X96370568Y-98592734D01*
X96466739Y-98386496D01*
X96525635Y-98166692D01*
X96545468Y-97940000D01*
X96525635Y-97713308D01*
X96466739Y-97493504D01*
X96370568Y-97287266D01*
X96240047Y-97100861D01*
X96240045Y-97100858D01*
X96079141Y-96939954D01*
X95892734Y-96809432D01*
X95892728Y-96809429D01*
X95834725Y-96782382D01*
X95782285Y-96736210D01*
X95763133Y-96669017D01*
X95783348Y-96602135D01*
X95834725Y-96557618D01*
X95892734Y-96530568D01*
X96079139Y-96400047D01*
X96240047Y-96239139D01*
X96370568Y-96052734D01*
X96466739Y-95846496D01*
X96525635Y-95626692D01*
X96545468Y-95400000D01*
X96541616Y-95355977D01*
X96525635Y-95173313D01*
X96525635Y-95173308D01*
X96466739Y-94953504D01*
X96370568Y-94747266D01*
X96240047Y-94560861D01*
X96240045Y-94560858D01*
X96079141Y-94399954D01*
X95892734Y-94269432D01*
X95892728Y-94269429D01*
X95834725Y-94242382D01*
X95782285Y-94196210D01*
X95763133Y-94129017D01*
X95783348Y-94062135D01*
X95834725Y-94017618D01*
X95892734Y-93990568D01*
X96079139Y-93860047D01*
X96240047Y-93699139D01*
X96370568Y-93512734D01*
X96466739Y-93306496D01*
X96525635Y-93086692D01*
X96545468Y-92860000D01*
X96525635Y-92633308D01*
X96466739Y-92413504D01*
X96370568Y-92207266D01*
X96240047Y-92020861D01*
X96240045Y-92020858D01*
X96079141Y-91859954D01*
X95892734Y-91729432D01*
X95892728Y-91729429D01*
X95834725Y-91702382D01*
X95782285Y-91656210D01*
X95763133Y-91589017D01*
X95783348Y-91522135D01*
X95834725Y-91477618D01*
X95892734Y-91450568D01*
X96079139Y-91320047D01*
X96240047Y-91159139D01*
X96370568Y-90972734D01*
X96466739Y-90766496D01*
X96525635Y-90546692D01*
X96545468Y-90320000D01*
X96525635Y-90093308D01*
X96466739Y-89873504D01*
X96370568Y-89667266D01*
X96240047Y-89480861D01*
X96240045Y-89480858D01*
X96079141Y-89319954D01*
X95892734Y-89189432D01*
X95892728Y-89189429D01*
X95834725Y-89162382D01*
X95782285Y-89116210D01*
X95763133Y-89049017D01*
X95783348Y-88982135D01*
X95834725Y-88937618D01*
X95892734Y-88910568D01*
X96079139Y-88780047D01*
X96240047Y-88619139D01*
X96370568Y-88432734D01*
X96466739Y-88226496D01*
X96525635Y-88006692D01*
X96545468Y-87780000D01*
X96525635Y-87553308D01*
X96466739Y-87333504D01*
X96370568Y-87127266D01*
X96240047Y-86940861D01*
X96240045Y-86940858D01*
X96079141Y-86779954D01*
X95892734Y-86649432D01*
X95892728Y-86649429D01*
X95834725Y-86622382D01*
X95782285Y-86576210D01*
X95763133Y-86509017D01*
X95783348Y-86442135D01*
X95834725Y-86397618D01*
X95892734Y-86370568D01*
X96079139Y-86240047D01*
X96240047Y-86079139D01*
X96370568Y-85892734D01*
X96466739Y-85686496D01*
X96525635Y-85466692D01*
X96545468Y-85240000D01*
X96525635Y-85013308D01*
X96466739Y-84793504D01*
X96370568Y-84587266D01*
X96240047Y-84400861D01*
X96240045Y-84400858D01*
X96079141Y-84239954D01*
X95892734Y-84109432D01*
X95892728Y-84109429D01*
X95834725Y-84082382D01*
X95782285Y-84036210D01*
X95763133Y-83969017D01*
X95783348Y-83902135D01*
X95834725Y-83857618D01*
X95892734Y-83830568D01*
X96079139Y-83700047D01*
X96240047Y-83539139D01*
X96370568Y-83352734D01*
X96466739Y-83146496D01*
X96525635Y-82926692D01*
X96545468Y-82700000D01*
X96525635Y-82473308D01*
X96466739Y-82253504D01*
X96370568Y-82047266D01*
X96240047Y-81860861D01*
X96240045Y-81860858D01*
X96079141Y-81699954D01*
X95892734Y-81569432D01*
X95892728Y-81569429D01*
X95834725Y-81542382D01*
X95782285Y-81496210D01*
X95763133Y-81429017D01*
X95783348Y-81362135D01*
X95834725Y-81317618D01*
X95892734Y-81290568D01*
X96079139Y-81160047D01*
X96240047Y-80999139D01*
X96370568Y-80812734D01*
X96466739Y-80606496D01*
X96525635Y-80386692D01*
X96545468Y-80160000D01*
X96525635Y-79933308D01*
X96466739Y-79713504D01*
X96370568Y-79507266D01*
X96240047Y-79320861D01*
X96240045Y-79320858D01*
X96079141Y-79159954D01*
X95892734Y-79029432D01*
X95892728Y-79029429D01*
X95834725Y-79002382D01*
X95782285Y-78956210D01*
X95763133Y-78889017D01*
X95783348Y-78822135D01*
X95834725Y-78777618D01*
X95835319Y-78777341D01*
X95892734Y-78750568D01*
X96079139Y-78620047D01*
X96240047Y-78459139D01*
X96370568Y-78272734D01*
X96466739Y-78066496D01*
X96525635Y-77846692D01*
X96545468Y-77620000D01*
X96525635Y-77393308D01*
X96466739Y-77173504D01*
X96370568Y-76967266D01*
X96240047Y-76780861D01*
X96240045Y-76780858D01*
X96079141Y-76619954D01*
X95892734Y-76489432D01*
X95892728Y-76489429D01*
X95834725Y-76462382D01*
X95782285Y-76416210D01*
X95763133Y-76349017D01*
X95783348Y-76282135D01*
X95834725Y-76237618D01*
X95892734Y-76210568D01*
X96079139Y-76080047D01*
X96240047Y-75919139D01*
X96370568Y-75732734D01*
X96466739Y-75526496D01*
X96525635Y-75306692D01*
X96545468Y-75080000D01*
X96525635Y-74853308D01*
X96466739Y-74633504D01*
X96370568Y-74427266D01*
X96240047Y-74240861D01*
X96240045Y-74240858D01*
X96079141Y-74079954D01*
X95892734Y-73949432D01*
X95892732Y-73949431D01*
X95881275Y-73944088D01*
X95834132Y-73922105D01*
X95781694Y-73875934D01*
X95762542Y-73808740D01*
X95782758Y-73741859D01*
X95834134Y-73697341D01*
X95892484Y-73670132D01*
X96078820Y-73539657D01*
X96239657Y-73378820D01*
X96370134Y-73192482D01*
X96466265Y-72986326D01*
X96466269Y-72986317D01*
X96518872Y-72790000D01*
X95673012Y-72790000D01*
X95705925Y-72732993D01*
X95740000Y-72605826D01*
X95740000Y-72474174D01*
X95705925Y-72347007D01*
X95673012Y-72290000D01*
X96518872Y-72290000D01*
X96518872Y-72289999D01*
X96466269Y-72093682D01*
X96466265Y-72093673D01*
X96370134Y-71887517D01*
X96239657Y-71701179D01*
X96078820Y-71540342D01*
X95892482Y-71409865D01*
X95834133Y-71382657D01*
X95781694Y-71336484D01*
X95762542Y-71269291D01*
X95782758Y-71202410D01*
X95834129Y-71157895D01*
X95892734Y-71130568D01*
X96079139Y-71000047D01*
X96240047Y-70839139D01*
X96370568Y-70652734D01*
X96466739Y-70446496D01*
X96525635Y-70226692D01*
X96545468Y-70000000D01*
X96525635Y-69773308D01*
X96466739Y-69553504D01*
X96370568Y-69347266D01*
X96240047Y-69160861D01*
X96240045Y-69160858D01*
X96079141Y-68999954D01*
X95892734Y-68869432D01*
X95892732Y-68869431D01*
X95686497Y-68773261D01*
X95686488Y-68773258D01*
X95466697Y-68714366D01*
X95466693Y-68714365D01*
X95466692Y-68714365D01*
X95466691Y-68714364D01*
X95466686Y-68714364D01*
X95240002Y-68694532D01*
X95239998Y-68694532D01*
X95013313Y-68714364D01*
X95013302Y-68714366D01*
X94793511Y-68773258D01*
X94793502Y-68773261D01*
X94587267Y-68869431D01*
X94587265Y-68869432D01*
X94400858Y-68999954D01*
X94239954Y-69160858D01*
X94109432Y-69347265D01*
X94109431Y-69347267D01*
X94013261Y-69553502D01*
X94013258Y-69553511D01*
X93954366Y-69773302D01*
X93954364Y-69773313D01*
X93934532Y-69999998D01*
X93934532Y-70000001D01*
X93954364Y-70226686D01*
X93954366Y-70226697D01*
X94013258Y-70446488D01*
X94013261Y-70446497D01*
X94109431Y-70652732D01*
X94109432Y-70652734D01*
X94239954Y-70839141D01*
X94400858Y-71000045D01*
X94400861Y-71000047D01*
X94587266Y-71130568D01*
X94645865Y-71157893D01*
X94698305Y-71204065D01*
X94717457Y-71271258D01*
X94697242Y-71338139D01*
X94645867Y-71382657D01*
X94587515Y-71409867D01*
X94401179Y-71540342D01*
X94240342Y-71701179D01*
X94109865Y-71887517D01*
X94013734Y-72093673D01*
X94013730Y-72093682D01*
X93961127Y-72289999D01*
X93961128Y-72290000D01*
X94806988Y-72290000D01*
X94774075Y-72347007D01*
X94740000Y-72474174D01*
X94740000Y-72605826D01*
X94774075Y-72732993D01*
X94806988Y-72790000D01*
X93961128Y-72790000D01*
X94013730Y-72986317D01*
X94013734Y-72986326D01*
X94109865Y-73192482D01*
X94240342Y-73378820D01*
X94401179Y-73539657D01*
X94587518Y-73670134D01*
X94587520Y-73670135D01*
X94645865Y-73697342D01*
X94698305Y-73743514D01*
X94717457Y-73810707D01*
X94697242Y-73877589D01*
X94645867Y-73922105D01*
X94587268Y-73949431D01*
X94587264Y-73949433D01*
X94400858Y-74079954D01*
X94239954Y-74240858D01*
X94109432Y-74427265D01*
X94109431Y-74427267D01*
X94013261Y-74633502D01*
X94013258Y-74633511D01*
X93954366Y-74853302D01*
X93954364Y-74853313D01*
X93934532Y-75079998D01*
X93934532Y-75080001D01*
X93954364Y-75306686D01*
X93954366Y-75306697D01*
X94013258Y-75526488D01*
X94013261Y-75526497D01*
X94109431Y-75732732D01*
X94109432Y-75732734D01*
X94239954Y-75919141D01*
X94400858Y-76080045D01*
X94400861Y-76080047D01*
X94587266Y-76210568D01*
X94645275Y-76237618D01*
X94697714Y-76283791D01*
X94716866Y-76350984D01*
X94696650Y-76417865D01*
X94645275Y-76462382D01*
X94587267Y-76489431D01*
X94587265Y-76489432D01*
X94400858Y-76619954D01*
X94239954Y-76780858D01*
X94109432Y-76967265D01*
X94109431Y-76967267D01*
X94013261Y-77173502D01*
X94013258Y-77173511D01*
X93954366Y-77393302D01*
X93954364Y-77393313D01*
X93934532Y-77619998D01*
X93934532Y-77620001D01*
X93954364Y-77846686D01*
X93954366Y-77846697D01*
X94013258Y-78066488D01*
X94013261Y-78066497D01*
X94109431Y-78272732D01*
X94109432Y-78272734D01*
X94239954Y-78459141D01*
X94400858Y-78620045D01*
X94400861Y-78620047D01*
X94587266Y-78750568D01*
X94644681Y-78777341D01*
X94645275Y-78777618D01*
X94697714Y-78823791D01*
X94716866Y-78890984D01*
X94696650Y-78957865D01*
X94645275Y-79002382D01*
X94587267Y-79029431D01*
X94587265Y-79029432D01*
X94400858Y-79159954D01*
X94239954Y-79320858D01*
X94109432Y-79507265D01*
X94109431Y-79507267D01*
X94013261Y-79713502D01*
X94013258Y-79713511D01*
X93954366Y-79933302D01*
X93954364Y-79933313D01*
X93934532Y-80159998D01*
X93934532Y-80160001D01*
X93954364Y-80386686D01*
X93954366Y-80386697D01*
X94013258Y-80606488D01*
X94013261Y-80606497D01*
X94109431Y-80812732D01*
X94109432Y-80812734D01*
X94239954Y-80999141D01*
X94400858Y-81160045D01*
X94400861Y-81160047D01*
X94587266Y-81290568D01*
X94645275Y-81317618D01*
X94697714Y-81363791D01*
X94716866Y-81430984D01*
X94696650Y-81497865D01*
X94645275Y-81542382D01*
X94587267Y-81569431D01*
X94587265Y-81569432D01*
X94400858Y-81699954D01*
X94239954Y-81860858D01*
X94109432Y-82047265D01*
X94109431Y-82047267D01*
X94013261Y-82253502D01*
X94013258Y-82253511D01*
X93954366Y-82473302D01*
X93954364Y-82473313D01*
X93934532Y-82699998D01*
X93934532Y-82700001D01*
X93954364Y-82926686D01*
X93954366Y-82926697D01*
X94013258Y-83146488D01*
X94013261Y-83146497D01*
X94109431Y-83352732D01*
X94109432Y-83352734D01*
X94239954Y-83539141D01*
X94400858Y-83700045D01*
X94400861Y-83700047D01*
X94587266Y-83830568D01*
X94645275Y-83857618D01*
X94697714Y-83903791D01*
X94716866Y-83970984D01*
X94696650Y-84037865D01*
X94645275Y-84082382D01*
X94587267Y-84109431D01*
X94587265Y-84109432D01*
X94400858Y-84239954D01*
X94239954Y-84400858D01*
X94109432Y-84587265D01*
X94109431Y-84587267D01*
X94013261Y-84793502D01*
X94013258Y-84793511D01*
X93954366Y-85013302D01*
X93954364Y-85013313D01*
X93934532Y-85239998D01*
X93934532Y-85240001D01*
X93954364Y-85466686D01*
X93954366Y-85466697D01*
X94013258Y-85686488D01*
X94013261Y-85686497D01*
X94109431Y-85892732D01*
X94109432Y-85892734D01*
X94239954Y-86079141D01*
X94400858Y-86240045D01*
X94400861Y-86240047D01*
X94587266Y-86370568D01*
X94645275Y-86397618D01*
X94697714Y-86443791D01*
X94716866Y-86510984D01*
X94696650Y-86577865D01*
X94645275Y-86622382D01*
X94587267Y-86649431D01*
X94587265Y-86649432D01*
X94400858Y-86779954D01*
X94239954Y-86940858D01*
X94109432Y-87127265D01*
X94109431Y-87127267D01*
X94013261Y-87333502D01*
X94013258Y-87333511D01*
X93954366Y-87553302D01*
X93954364Y-87553313D01*
X93934532Y-87779998D01*
X93934532Y-87780001D01*
X93954364Y-88006686D01*
X93954366Y-88006697D01*
X94013258Y-88226488D01*
X94013261Y-88226497D01*
X94109431Y-88432732D01*
X94109432Y-88432734D01*
X94239954Y-88619141D01*
X94400858Y-88780045D01*
X94400861Y-88780047D01*
X94587266Y-88910568D01*
X94645275Y-88937618D01*
X94697714Y-88983791D01*
X94716866Y-89050984D01*
X94696650Y-89117865D01*
X94645275Y-89162382D01*
X94587267Y-89189431D01*
X94587265Y-89189432D01*
X94400858Y-89319954D01*
X94239954Y-89480858D01*
X94109432Y-89667265D01*
X94109431Y-89667267D01*
X94013261Y-89873502D01*
X94013258Y-89873511D01*
X93954366Y-90093302D01*
X93954364Y-90093313D01*
X93934532Y-90319998D01*
X93934532Y-90320001D01*
X93954364Y-90546686D01*
X93954366Y-90546697D01*
X94013258Y-90766488D01*
X94013261Y-90766497D01*
X94109431Y-90972732D01*
X94109432Y-90972734D01*
X94239954Y-91159141D01*
X94400858Y-91320045D01*
X94400861Y-91320047D01*
X94587266Y-91450568D01*
X94645275Y-91477618D01*
X94697714Y-91523791D01*
X94716866Y-91590984D01*
X94696650Y-91657865D01*
X94645275Y-91702382D01*
X94587267Y-91729431D01*
X94587265Y-91729432D01*
X94400858Y-91859954D01*
X94239954Y-92020858D01*
X94109432Y-92207265D01*
X94109431Y-92207267D01*
X94013261Y-92413502D01*
X94013258Y-92413511D01*
X93954366Y-92633302D01*
X93954364Y-92633313D01*
X93934532Y-92859998D01*
X93934532Y-92860001D01*
X93954364Y-93086686D01*
X93954366Y-93086697D01*
X94013258Y-93306488D01*
X94013261Y-93306497D01*
X94109431Y-93512732D01*
X94109432Y-93512734D01*
X94239954Y-93699141D01*
X94400858Y-93860045D01*
X94400861Y-93860047D01*
X94587266Y-93990568D01*
X94645275Y-94017618D01*
X94697714Y-94063791D01*
X94716866Y-94130984D01*
X94696650Y-94197865D01*
X94645275Y-94242382D01*
X94587267Y-94269431D01*
X94587265Y-94269432D01*
X94400858Y-94399954D01*
X94239954Y-94560858D01*
X94109432Y-94747265D01*
X94109431Y-94747267D01*
X94013261Y-94953502D01*
X94013258Y-94953511D01*
X93954366Y-95173302D01*
X93954364Y-95173313D01*
X93934532Y-95399998D01*
X93934532Y-95400001D01*
X93954364Y-95626686D01*
X93954366Y-95626697D01*
X94013258Y-95846488D01*
X94013261Y-95846497D01*
X94109431Y-96052732D01*
X94109432Y-96052734D01*
X94239954Y-96239141D01*
X94400858Y-96400045D01*
X94400861Y-96400047D01*
X94587266Y-96530568D01*
X94645275Y-96557618D01*
X94697714Y-96603791D01*
X94716866Y-96670984D01*
X94696650Y-96737865D01*
X94645275Y-96782382D01*
X94587267Y-96809431D01*
X94587265Y-96809432D01*
X94400858Y-96939954D01*
X94239954Y-97100858D01*
X94109432Y-97287265D01*
X94109431Y-97287267D01*
X94013261Y-97493502D01*
X94013258Y-97493511D01*
X93954366Y-97713302D01*
X93954364Y-97713313D01*
X93934532Y-97939998D01*
X93934532Y-97940001D01*
X93954364Y-98166686D01*
X93954366Y-98166697D01*
X94013258Y-98386488D01*
X94013261Y-98386497D01*
X94109431Y-98592732D01*
X94109432Y-98592734D01*
X94239954Y-98779141D01*
X94400858Y-98940045D01*
X94400861Y-98940047D01*
X94587266Y-99070568D01*
X94645275Y-99097618D01*
X94697714Y-99143791D01*
X94716866Y-99210984D01*
X94696650Y-99277865D01*
X94645275Y-99322382D01*
X94587267Y-99349431D01*
X94587265Y-99349432D01*
X94400858Y-99479954D01*
X94239954Y-99640858D01*
X94109432Y-99827265D01*
X94109431Y-99827267D01*
X94013261Y-100033502D01*
X94013258Y-100033511D01*
X93954366Y-100253302D01*
X93954364Y-100253313D01*
X93934532Y-100479998D01*
X93934532Y-100480001D01*
X93954364Y-100706686D01*
X93954366Y-100706697D01*
X94013258Y-100926488D01*
X94013261Y-100926497D01*
X94109431Y-101132732D01*
X94109432Y-101132734D01*
X94239954Y-101319141D01*
X94400858Y-101480045D01*
X94400861Y-101480047D01*
X94587266Y-101610568D01*
X94645275Y-101637618D01*
X94697714Y-101683791D01*
X94716866Y-101750984D01*
X94696650Y-101817865D01*
X94645275Y-101862382D01*
X94587267Y-101889431D01*
X94587265Y-101889432D01*
X94400858Y-102019954D01*
X94239954Y-102180858D01*
X94109432Y-102367265D01*
X94109431Y-102367267D01*
X94013261Y-102573502D01*
X94013258Y-102573511D01*
X93954366Y-102793302D01*
X93954364Y-102793313D01*
X93934532Y-103019998D01*
X93934532Y-103020001D01*
X93954364Y-103246686D01*
X93954366Y-103246697D01*
X94013258Y-103466488D01*
X94013261Y-103466497D01*
X94109431Y-103672732D01*
X94109432Y-103672734D01*
X94144868Y-103723343D01*
X94202947Y-103806288D01*
X94225274Y-103872494D01*
X94208264Y-103940261D01*
X94157315Y-103988074D01*
X94088606Y-104000752D01*
X94023949Y-103974270D01*
X94008913Y-103960039D01*
X93976400Y-103923658D01*
X93944616Y-103888092D01*
X93935952Y-103877226D01*
X93805856Y-103693870D01*
X93798458Y-103682097D01*
X93689707Y-103485328D01*
X93683674Y-103472799D01*
X93597641Y-103265095D01*
X93593048Y-103251971D01*
X93530807Y-103035929D01*
X93527715Y-103022381D01*
X93490054Y-102800723D01*
X93488500Y-102786925D01*
X93475695Y-102558892D01*
X93475500Y-102551940D01*
X93475500Y-66281040D01*
X97499497Y-66281040D01*
X97499500Y-66428415D01*
X97499500Y-73482943D01*
X97499513Y-73483218D01*
X97499513Y-73519100D01*
X97530953Y-73798165D01*
X97530957Y-73798192D01*
X97593443Y-74071975D01*
X97593445Y-74071981D01*
X97593446Y-74071985D01*
X97620753Y-74150026D01*
X97686200Y-74337072D01*
X97686201Y-74337074D01*
X97808055Y-74590115D01*
X97808056Y-74590116D01*
X97957470Y-74827912D01*
X97957476Y-74827921D01*
X97977721Y-74853308D01*
X98132579Y-75047497D01*
X98132583Y-75047501D01*
X98132587Y-75047506D01*
X98156813Y-75071732D01*
X98156824Y-75071744D01*
X98162200Y-75077120D01*
X98162201Y-75077121D01*
X98217074Y-75131994D01*
X98218077Y-75132997D01*
X98218106Y-75133028D01*
X98231870Y-75146791D01*
X98251449Y-75166370D01*
X98251479Y-75166425D01*
X98286746Y-75201692D01*
X98286746Y-75201693D01*
X98390978Y-75305924D01*
X98402535Y-75315408D01*
X98618870Y-75492947D01*
X98618877Y-75492952D01*
X98863999Y-75656734D01*
X98864001Y-75656735D01*
X99124004Y-75795706D01*
X99396376Y-75908522D01*
X99396381Y-75908524D01*
X99542130Y-75952734D01*
X99593818Y-75983714D01*
X99728597Y-76118493D01*
X99728603Y-76118498D01*
X99914158Y-76248425D01*
X99957783Y-76303002D01*
X99964977Y-76372500D01*
X99933454Y-76434855D01*
X99914158Y-76451575D01*
X99728597Y-76581505D01*
X99561505Y-76748597D01*
X99425965Y-76942169D01*
X99425964Y-76942171D01*
X99326098Y-77156335D01*
X99326094Y-77156344D01*
X99264938Y-77384586D01*
X99264936Y-77384596D01*
X99244341Y-77619999D01*
X99244341Y-77620000D01*
X99264936Y-77855403D01*
X99264938Y-77855413D01*
X99326094Y-78083655D01*
X99326096Y-78083659D01*
X99326097Y-78083663D01*
X99414145Y-78272482D01*
X99425965Y-78297830D01*
X99425967Y-78297834D01*
X99561501Y-78491395D01*
X99561506Y-78491402D01*
X99728597Y-78658493D01*
X99728603Y-78658498D01*
X99914158Y-78788425D01*
X99957783Y-78843002D01*
X99964977Y-78912500D01*
X99933454Y-78974855D01*
X99914158Y-78991575D01*
X99728597Y-79121505D01*
X99561505Y-79288597D01*
X99425965Y-79482169D01*
X99425964Y-79482171D01*
X99326098Y-79696335D01*
X99326094Y-79696344D01*
X99264938Y-79924586D01*
X99264936Y-79924596D01*
X99244341Y-80159999D01*
X99244341Y-80160000D01*
X99264936Y-80395403D01*
X99264938Y-80395413D01*
X99326094Y-80623655D01*
X99326096Y-80623659D01*
X99326097Y-80623663D01*
X99414262Y-80812732D01*
X99425965Y-80837830D01*
X99425967Y-80837834D01*
X99561501Y-81031395D01*
X99561506Y-81031402D01*
X99728597Y-81198493D01*
X99728603Y-81198498D01*
X99914158Y-81328425D01*
X99957783Y-81383002D01*
X99964977Y-81452500D01*
X99933454Y-81514855D01*
X99914158Y-81531575D01*
X99728597Y-81661505D01*
X99561505Y-81828597D01*
X99425965Y-82022169D01*
X99425964Y-82022171D01*
X99326098Y-82236335D01*
X99326094Y-82236344D01*
X99264938Y-82464586D01*
X99264936Y-82464596D01*
X99244341Y-82699999D01*
X99244341Y-82700000D01*
X99264936Y-82935403D01*
X99264938Y-82935413D01*
X99326094Y-83163655D01*
X99326096Y-83163659D01*
X99326097Y-83163663D01*
X99414262Y-83352732D01*
X99425965Y-83377830D01*
X99425967Y-83377834D01*
X99561501Y-83571395D01*
X99561506Y-83571402D01*
X99728597Y-83738493D01*
X99728603Y-83738498D01*
X99914158Y-83868425D01*
X99957783Y-83923002D01*
X99964977Y-83992500D01*
X99933454Y-84054855D01*
X99914158Y-84071575D01*
X99728597Y-84201505D01*
X99561505Y-84368597D01*
X99425965Y-84562169D01*
X99425964Y-84562171D01*
X99326098Y-84776335D01*
X99326094Y-84776344D01*
X99264938Y-85004586D01*
X99264936Y-85004596D01*
X99244341Y-85239999D01*
X99244341Y-85240000D01*
X99264936Y-85475403D01*
X99264938Y-85475413D01*
X99326094Y-85703655D01*
X99326096Y-85703659D01*
X99326097Y-85703663D01*
X99414262Y-85892732D01*
X99425965Y-85917830D01*
X99425967Y-85917834D01*
X99561501Y-86111395D01*
X99561506Y-86111402D01*
X99728597Y-86278493D01*
X99728603Y-86278498D01*
X99914158Y-86408425D01*
X99957783Y-86463002D01*
X99964977Y-86532500D01*
X99933454Y-86594855D01*
X99914158Y-86611575D01*
X99728597Y-86741505D01*
X99561505Y-86908597D01*
X99425965Y-87102169D01*
X99425964Y-87102171D01*
X99326098Y-87316335D01*
X99326094Y-87316344D01*
X99264938Y-87544586D01*
X99264936Y-87544596D01*
X99244341Y-87779999D01*
X99244341Y-87780000D01*
X99264936Y-88015403D01*
X99264938Y-88015413D01*
X99326094Y-88243655D01*
X99326096Y-88243659D01*
X99326097Y-88243663D01*
X99414262Y-88432732D01*
X99425965Y-88457830D01*
X99425967Y-88457834D01*
X99561501Y-88651395D01*
X99561506Y-88651402D01*
X99728597Y-88818493D01*
X99728603Y-88818498D01*
X99914158Y-88948425D01*
X99957783Y-89003002D01*
X99964977Y-89072500D01*
X99933454Y-89134855D01*
X99914158Y-89151575D01*
X99728597Y-89281505D01*
X99561505Y-89448597D01*
X99425965Y-89642169D01*
X99425964Y-89642171D01*
X99326098Y-89856335D01*
X99326094Y-89856344D01*
X99264938Y-90084586D01*
X99264936Y-90084596D01*
X99244341Y-90319999D01*
X99244341Y-90320000D01*
X99264936Y-90555403D01*
X99264938Y-90555413D01*
X99326094Y-90783655D01*
X99326096Y-90783659D01*
X99326097Y-90783663D01*
X99414262Y-90972732D01*
X99425965Y-90997830D01*
X99425967Y-90997834D01*
X99561501Y-91191395D01*
X99561506Y-91191402D01*
X99728597Y-91358493D01*
X99728603Y-91358498D01*
X99914158Y-91488425D01*
X99957783Y-91543002D01*
X99964977Y-91612500D01*
X99933454Y-91674855D01*
X99914158Y-91691575D01*
X99728597Y-91821505D01*
X99561505Y-91988597D01*
X99425965Y-92182169D01*
X99425964Y-92182171D01*
X99326098Y-92396335D01*
X99326094Y-92396344D01*
X99264938Y-92624586D01*
X99264936Y-92624596D01*
X99244341Y-92859999D01*
X99244341Y-92860000D01*
X99264936Y-93095403D01*
X99264938Y-93095413D01*
X99326094Y-93323655D01*
X99326096Y-93323659D01*
X99326097Y-93323663D01*
X99414262Y-93512732D01*
X99425965Y-93537830D01*
X99425967Y-93537834D01*
X99561501Y-93731395D01*
X99561506Y-93731402D01*
X99728597Y-93898493D01*
X99728603Y-93898498D01*
X99914158Y-94028425D01*
X99957783Y-94083002D01*
X99964977Y-94152500D01*
X99933454Y-94214855D01*
X99914158Y-94231575D01*
X99728597Y-94361505D01*
X99561505Y-94528597D01*
X99425965Y-94722169D01*
X99425964Y-94722171D01*
X99326098Y-94936335D01*
X99326094Y-94936344D01*
X99264938Y-95164586D01*
X99264936Y-95164596D01*
X99244341Y-95399999D01*
X99244341Y-95400000D01*
X99264936Y-95635403D01*
X99264938Y-95635413D01*
X99326094Y-95863655D01*
X99326096Y-95863659D01*
X99326097Y-95863663D01*
X99389726Y-96000115D01*
X99425965Y-96077830D01*
X99425967Y-96077834D01*
X99561501Y-96271395D01*
X99561506Y-96271402D01*
X99728597Y-96438493D01*
X99728603Y-96438498D01*
X99914158Y-96568425D01*
X99957783Y-96623002D01*
X99964977Y-96692500D01*
X99933454Y-96754855D01*
X99914158Y-96771575D01*
X99728597Y-96901505D01*
X99561505Y-97068597D01*
X99425965Y-97262169D01*
X99425964Y-97262171D01*
X99326098Y-97476335D01*
X99326094Y-97476344D01*
X99264938Y-97704586D01*
X99264936Y-97704596D01*
X99244341Y-97939999D01*
X99244341Y-97940000D01*
X99264936Y-98175403D01*
X99264938Y-98175413D01*
X99326094Y-98403655D01*
X99326096Y-98403659D01*
X99326097Y-98403663D01*
X99414262Y-98592732D01*
X99425965Y-98617830D01*
X99425967Y-98617834D01*
X99561501Y-98811395D01*
X99561506Y-98811402D01*
X99728597Y-98978493D01*
X99728603Y-98978498D01*
X99914158Y-99108425D01*
X99957783Y-99163002D01*
X99964977Y-99232500D01*
X99933454Y-99294855D01*
X99914158Y-99311575D01*
X99728597Y-99441505D01*
X99561505Y-99608597D01*
X99425965Y-99802169D01*
X99425964Y-99802171D01*
X99326098Y-100016335D01*
X99326094Y-100016344D01*
X99264938Y-100244586D01*
X99264936Y-100244596D01*
X99244341Y-100479999D01*
X99244341Y-100480000D01*
X99264936Y-100715403D01*
X99264938Y-100715413D01*
X99326094Y-100943655D01*
X99326096Y-100943659D01*
X99326097Y-100943663D01*
X99414262Y-101132732D01*
X99425965Y-101157830D01*
X99425967Y-101157834D01*
X99561501Y-101351395D01*
X99561506Y-101351402D01*
X99728597Y-101518493D01*
X99728603Y-101518498D01*
X99914158Y-101648425D01*
X99957783Y-101703002D01*
X99964977Y-101772500D01*
X99933454Y-101834855D01*
X99914158Y-101851575D01*
X99728597Y-101981505D01*
X99561505Y-102148597D01*
X99425965Y-102342169D01*
X99425964Y-102342171D01*
X99326098Y-102556335D01*
X99326094Y-102556344D01*
X99264938Y-102784586D01*
X99264936Y-102784596D01*
X99244341Y-103019999D01*
X99244341Y-103020000D01*
X99264936Y-103255403D01*
X99264938Y-103255413D01*
X99326094Y-103483655D01*
X99326096Y-103483659D01*
X99326097Y-103483663D01*
X99414262Y-103672732D01*
X99425965Y-103697830D01*
X99425967Y-103697834D01*
X99443829Y-103723343D01*
X99555557Y-103882907D01*
X99561501Y-103891395D01*
X99561506Y-103891402D01*
X99728597Y-104058493D01*
X99728603Y-104058498D01*
X99914158Y-104188425D01*
X99957783Y-104243002D01*
X99964977Y-104312500D01*
X99933454Y-104374855D01*
X99914158Y-104391575D01*
X99728597Y-104521505D01*
X99561505Y-104688597D01*
X99425965Y-104882169D01*
X99425964Y-104882171D01*
X99326098Y-105096335D01*
X99326094Y-105096344D01*
X99264938Y-105324586D01*
X99264936Y-105324596D01*
X99244341Y-105559999D01*
X99244341Y-105560000D01*
X99264936Y-105795403D01*
X99264938Y-105795413D01*
X99326094Y-106023655D01*
X99326096Y-106023659D01*
X99326097Y-106023663D01*
X99389333Y-106159272D01*
X99425965Y-106237830D01*
X99425967Y-106237834D01*
X99493763Y-106334656D01*
X99561505Y-106431401D01*
X99728599Y-106598495D01*
X99825384Y-106666265D01*
X99922165Y-106734032D01*
X99922167Y-106734033D01*
X99922170Y-106734035D01*
X100136337Y-106833903D01*
X100364592Y-106895063D01*
X100552918Y-106911539D01*
X100599999Y-106915659D01*
X100600000Y-106915659D01*
X100600001Y-106915659D01*
X100639234Y-106912226D01*
X100835408Y-106895063D01*
X101063663Y-106833903D01*
X101277830Y-106734035D01*
X101471401Y-106598495D01*
X101638495Y-106431401D01*
X101774035Y-106237830D01*
X101873903Y-106023663D01*
X101935063Y-105795408D01*
X101955659Y-105560000D01*
X101935063Y-105324592D01*
X101873903Y-105096337D01*
X101774035Y-104882171D01*
X101638495Y-104688599D01*
X101638494Y-104688597D01*
X101471402Y-104521506D01*
X101471396Y-104521501D01*
X101285842Y-104391575D01*
X101242217Y-104336998D01*
X101235023Y-104267500D01*
X101266546Y-104205145D01*
X101285842Y-104188425D01*
X101467926Y-104060928D01*
X101471401Y-104058495D01*
X101638495Y-103891401D01*
X101774035Y-103697830D01*
X101873903Y-103483663D01*
X101935063Y-103255408D01*
X101955659Y-103020000D01*
X101935063Y-102784592D01*
X101873903Y-102556337D01*
X101774035Y-102342171D01*
X101638495Y-102148599D01*
X101638494Y-102148597D01*
X101471402Y-101981506D01*
X101471396Y-101981501D01*
X101285842Y-101851575D01*
X101242217Y-101796998D01*
X101235023Y-101727500D01*
X101266546Y-101665145D01*
X101285842Y-101648425D01*
X101339909Y-101610567D01*
X101471401Y-101518495D01*
X101638495Y-101351401D01*
X101774035Y-101157830D01*
X101873903Y-100943663D01*
X101935063Y-100715408D01*
X101955659Y-100480000D01*
X101935063Y-100244592D01*
X101873903Y-100016337D01*
X101774035Y-99802171D01*
X101638495Y-99608599D01*
X101638494Y-99608597D01*
X101471402Y-99441506D01*
X101471396Y-99441501D01*
X101285842Y-99311575D01*
X101242217Y-99256998D01*
X101235023Y-99187500D01*
X101266546Y-99125145D01*
X101285842Y-99108425D01*
X101339909Y-99070567D01*
X101471401Y-98978495D01*
X101638495Y-98811401D01*
X101774035Y-98617830D01*
X101873903Y-98403663D01*
X101935063Y-98175408D01*
X101955659Y-97940000D01*
X101935063Y-97704592D01*
X101873903Y-97476337D01*
X101774035Y-97262171D01*
X101768079Y-97253664D01*
X101638494Y-97068597D01*
X101471402Y-96901506D01*
X101471396Y-96901501D01*
X101285842Y-96771575D01*
X101242217Y-96716998D01*
X101235023Y-96647500D01*
X101266546Y-96585145D01*
X101285842Y-96568425D01*
X101436764Y-96462748D01*
X101471401Y-96438495D01*
X101638495Y-96271401D01*
X101774035Y-96077830D01*
X101873903Y-95863663D01*
X101935063Y-95635408D01*
X101955659Y-95400000D01*
X101935063Y-95164592D01*
X101873903Y-94936337D01*
X101774035Y-94722171D01*
X101638495Y-94528599D01*
X101638494Y-94528597D01*
X101471402Y-94361506D01*
X101471396Y-94361501D01*
X101285842Y-94231575D01*
X101242217Y-94176998D01*
X101235023Y-94107500D01*
X101266546Y-94045145D01*
X101285842Y-94028425D01*
X101339909Y-93990567D01*
X101471401Y-93898495D01*
X101638495Y-93731401D01*
X101774035Y-93537830D01*
X101873903Y-93323663D01*
X101935063Y-93095408D01*
X101955659Y-92860000D01*
X101935063Y-92624592D01*
X101873903Y-92396337D01*
X101774035Y-92182171D01*
X101638495Y-91988599D01*
X101638494Y-91988597D01*
X101471402Y-91821506D01*
X101471396Y-91821501D01*
X101285842Y-91691575D01*
X101242217Y-91636998D01*
X101235023Y-91567500D01*
X101266546Y-91505145D01*
X101285842Y-91488425D01*
X101339909Y-91450567D01*
X101471401Y-91358495D01*
X101638495Y-91191401D01*
X101774035Y-90997830D01*
X101873903Y-90783663D01*
X101935063Y-90555408D01*
X101955659Y-90320000D01*
X101935063Y-90084592D01*
X101873903Y-89856337D01*
X101774035Y-89642171D01*
X101638495Y-89448599D01*
X101638494Y-89448597D01*
X101471402Y-89281506D01*
X101471396Y-89281501D01*
X101285842Y-89151575D01*
X101242217Y-89096998D01*
X101235023Y-89027500D01*
X101266546Y-88965145D01*
X101285842Y-88948425D01*
X101339909Y-88910567D01*
X101471401Y-88818495D01*
X101638495Y-88651401D01*
X101774035Y-88457830D01*
X101873903Y-88243663D01*
X101935063Y-88015408D01*
X101955659Y-87780000D01*
X101935063Y-87544592D01*
X101873903Y-87316337D01*
X101774035Y-87102171D01*
X101638495Y-86908599D01*
X101638494Y-86908597D01*
X101471402Y-86741506D01*
X101471396Y-86741501D01*
X101285842Y-86611575D01*
X101242217Y-86556998D01*
X101235023Y-86487500D01*
X101266546Y-86425145D01*
X101285842Y-86408425D01*
X101339909Y-86370567D01*
X101471401Y-86278495D01*
X101638495Y-86111401D01*
X101774035Y-85917830D01*
X101873903Y-85703663D01*
X101935063Y-85475408D01*
X101955659Y-85240000D01*
X101935063Y-85004592D01*
X101873903Y-84776337D01*
X101774035Y-84562171D01*
X101638495Y-84368599D01*
X101638494Y-84368597D01*
X101471402Y-84201506D01*
X101471396Y-84201501D01*
X101285842Y-84071575D01*
X101242217Y-84016998D01*
X101235023Y-83947500D01*
X101266546Y-83885145D01*
X101285842Y-83868425D01*
X101339909Y-83830567D01*
X101471401Y-83738495D01*
X101638495Y-83571401D01*
X101774035Y-83377830D01*
X101873903Y-83163663D01*
X101935063Y-82935408D01*
X101955659Y-82700000D01*
X101935063Y-82464592D01*
X101873903Y-82236337D01*
X101774035Y-82022171D01*
X101638495Y-81828599D01*
X101638494Y-81828597D01*
X101471402Y-81661506D01*
X101471396Y-81661501D01*
X101285842Y-81531575D01*
X101242217Y-81476998D01*
X101235023Y-81407500D01*
X101266546Y-81345145D01*
X101285842Y-81328425D01*
X101339909Y-81290567D01*
X101471401Y-81198495D01*
X101638495Y-81031401D01*
X101774035Y-80837830D01*
X101873903Y-80623663D01*
X101935063Y-80395408D01*
X101955659Y-80160000D01*
X101935063Y-79924592D01*
X101873903Y-79696337D01*
X101774035Y-79482171D01*
X101638495Y-79288599D01*
X101638494Y-79288597D01*
X101471402Y-79121506D01*
X101471396Y-79121501D01*
X101285842Y-78991575D01*
X101242217Y-78936998D01*
X101235023Y-78867500D01*
X101266546Y-78805145D01*
X101285842Y-78788425D01*
X101339909Y-78750567D01*
X101471401Y-78658495D01*
X101638495Y-78491401D01*
X101774035Y-78297830D01*
X101873903Y-78083663D01*
X101935063Y-77855408D01*
X101955659Y-77620000D01*
X101935063Y-77384592D01*
X101873903Y-77156337D01*
X101774035Y-76942171D01*
X101638495Y-76748599D01*
X101638494Y-76748597D01*
X101471402Y-76581506D01*
X101471396Y-76581501D01*
X101285842Y-76451575D01*
X101242217Y-76396998D01*
X101235023Y-76327500D01*
X101266546Y-76265145D01*
X101285842Y-76248425D01*
X101339910Y-76210566D01*
X101471401Y-76118495D01*
X101638495Y-75951401D01*
X101774035Y-75757830D01*
X101873903Y-75543663D01*
X101935063Y-75315408D01*
X101955659Y-75080000D01*
X101935063Y-74844592D01*
X101873903Y-74616337D01*
X101774035Y-74402171D01*
X101728456Y-74337076D01*
X101638494Y-74208597D01*
X101471402Y-74041506D01*
X101471401Y-74041505D01*
X101285405Y-73911269D01*
X101241781Y-73856692D01*
X101234588Y-73787193D01*
X101266110Y-73724839D01*
X101285405Y-73708119D01*
X101471082Y-73578105D01*
X101638105Y-73411082D01*
X101773600Y-73217578D01*
X101873429Y-73003492D01*
X101873432Y-73003486D01*
X101930636Y-72790000D01*
X101033012Y-72790000D01*
X101065925Y-72732993D01*
X101100000Y-72605826D01*
X101100000Y-72474174D01*
X101065925Y-72347007D01*
X101033012Y-72290000D01*
X101930636Y-72290000D01*
X101930635Y-72289999D01*
X101873432Y-72076513D01*
X101873429Y-72076507D01*
X101773600Y-71862422D01*
X101773599Y-71862420D01*
X101638113Y-71668926D01*
X101638108Y-71668920D01*
X101516053Y-71546865D01*
X101482568Y-71485542D01*
X101487552Y-71415850D01*
X101529424Y-71359917D01*
X101560400Y-71343002D01*
X101661037Y-71305468D01*
X101692326Y-71293798D01*
X101692326Y-71293797D01*
X101692331Y-71293796D01*
X101807546Y-71207546D01*
X101893796Y-71092331D01*
X101944091Y-70957483D01*
X101950500Y-70897873D01*
X101950499Y-69102128D01*
X101944091Y-69042517D01*
X101893796Y-68907669D01*
X101893795Y-68907668D01*
X101893793Y-68907664D01*
X101807547Y-68792455D01*
X101807544Y-68792452D01*
X101692335Y-68706206D01*
X101692328Y-68706202D01*
X101557482Y-68655908D01*
X101557483Y-68655908D01*
X101497883Y-68649501D01*
X101497881Y-68649500D01*
X101497873Y-68649500D01*
X101497864Y-68649500D01*
X99702129Y-68649500D01*
X99702120Y-68649501D01*
X99637752Y-68656420D01*
X99568992Y-68644012D01*
X99517856Y-68596400D01*
X99500500Y-68533130D01*
X99500500Y-66521129D01*
X99500501Y-66521124D01*
X99500500Y-66433283D01*
X99500882Y-66423559D01*
X99501573Y-66414775D01*
X99526454Y-66349486D01*
X99582684Y-66308013D01*
X99625191Y-66300500D01*
X99947872Y-66300500D01*
X99947873Y-66300500D01*
X100007484Y-66294092D01*
X100142332Y-66243797D01*
X100257547Y-66157547D01*
X100343797Y-66042332D01*
X100394092Y-65907484D01*
X100400501Y-65847874D01*
X100400500Y-65847846D01*
X100400679Y-65844548D01*
X100402184Y-65844628D01*
X100420113Y-65783329D01*
X100472868Y-65737518D01*
X100516464Y-65729985D01*
X101200000Y-65046449D01*
X101200000Y-65052664D01*
X101227259Y-65154397D01*
X101279920Y-65245609D01*
X101354394Y-65320083D01*
X101445606Y-65372744D01*
X101547339Y-65400003D01*
X101553553Y-65400003D01*
X100874526Y-66079028D01*
X100947513Y-66130135D01*
X100947521Y-66130139D01*
X101153668Y-66226267D01*
X101153682Y-66226272D01*
X101373389Y-66285142D01*
X101373400Y-66285144D01*
X101599998Y-66304969D01*
X101600002Y-66304969D01*
X101826599Y-66285144D01*
X101826610Y-66285142D01*
X102046317Y-66226272D01*
X102046331Y-66226267D01*
X102252478Y-66130139D01*
X102325471Y-66079027D01*
X101646447Y-65400003D01*
X101652661Y-65400003D01*
X101754394Y-65372744D01*
X101845606Y-65320083D01*
X101920080Y-65245609D01*
X101972741Y-65154397D01*
X102000000Y-65052664D01*
X102000000Y-65046450D01*
X102679024Y-65725474D01*
X102730136Y-65652481D01*
X102826264Y-65446334D01*
X102826269Y-65446320D01*
X102885139Y-65226613D01*
X102885141Y-65226602D01*
X102904966Y-65000005D01*
X102904966Y-65000000D01*
X102885141Y-64773403D01*
X102885139Y-64773392D01*
X102826269Y-64553685D01*
X102826264Y-64553671D01*
X102730136Y-64347524D01*
X102730132Y-64347516D01*
X102679025Y-64274529D01*
X102000000Y-64953554D01*
X102000000Y-64947342D01*
X101972741Y-64845609D01*
X101920080Y-64754397D01*
X101845606Y-64679923D01*
X101754394Y-64627262D01*
X101652661Y-64600003D01*
X101646445Y-64600003D01*
X102325472Y-63920977D01*
X102252478Y-63869866D01*
X102046331Y-63773738D01*
X102046317Y-63773733D01*
X101826610Y-63714863D01*
X101826599Y-63714861D01*
X101600002Y-63695037D01*
X101599998Y-63695037D01*
X101373400Y-63714861D01*
X101373389Y-63714863D01*
X101153682Y-63773733D01*
X101153673Y-63773737D01*
X100947516Y-63869869D01*
X100947512Y-63869871D01*
X100874526Y-63920976D01*
X100874526Y-63920977D01*
X101553553Y-64600003D01*
X101547339Y-64600003D01*
X101445606Y-64627262D01*
X101354394Y-64679923D01*
X101279920Y-64754397D01*
X101227259Y-64845609D01*
X101200000Y-64947342D01*
X101200000Y-64953555D01*
X100515799Y-64269354D01*
X100466806Y-64259508D01*
X100416624Y-64210892D01*
X100401982Y-64155367D01*
X100400901Y-64155424D01*
X100400855Y-64155430D01*
X100400854Y-64155427D01*
X100400677Y-64155437D01*
X100400500Y-64152136D01*
X100400500Y-64152129D01*
X100394092Y-64092518D01*
X100369346Y-64026171D01*
X100343798Y-63957672D01*
X100343794Y-63957665D01*
X100257548Y-63842456D01*
X100257545Y-63842453D01*
X100142336Y-63756207D01*
X100142329Y-63756203D01*
X100007483Y-63705909D01*
X100007484Y-63705909D01*
X99947884Y-63699502D01*
X99947882Y-63699501D01*
X99947874Y-63699501D01*
X99947865Y-63699501D01*
X98252130Y-63699501D01*
X98252124Y-63699502D01*
X98192517Y-63705909D01*
X98057672Y-63756203D01*
X98057665Y-63756207D01*
X97942456Y-63842453D01*
X97942453Y-63842456D01*
X97856207Y-63957665D01*
X97856203Y-63957672D01*
X97805909Y-64092518D01*
X97799502Y-64152117D01*
X97799502Y-64152124D01*
X97799501Y-64152136D01*
X97799501Y-65084494D01*
X97785316Y-65141130D01*
X97785396Y-65141168D01*
X97785458Y-65141194D01*
X97785456Y-65141197D01*
X97785592Y-65141261D01*
X97784936Y-65142645D01*
X97784863Y-65142938D01*
X97784293Y-65144006D01*
X97784291Y-65144010D01*
X97784291Y-65144011D01*
X97671480Y-65416368D01*
X97671477Y-65416376D01*
X97585902Y-65698489D01*
X97585902Y-65698491D01*
X97528389Y-65987645D01*
X97528389Y-65987650D01*
X97514358Y-66130135D01*
X97503165Y-66243797D01*
X97499497Y-66281040D01*
X93475500Y-66281040D01*
X93475500Y-62527973D01*
X93495185Y-62460934D01*
X93544913Y-62417844D01*
X93510439Y-62398303D01*
X93477931Y-62336456D01*
X93475500Y-62312024D01*
X93475500Y-61241860D01*
X93475501Y-61241855D01*
X93475500Y-61158673D01*
X93475649Y-61152591D01*
X93475728Y-61150978D01*
X93489067Y-60879398D01*
X93490260Y-60867294D01*
X93492249Y-60853888D01*
X93529943Y-60599758D01*
X93532316Y-60587830D01*
X93541647Y-60550579D01*
X93581153Y-60392854D01*
X93616536Y-60332609D01*
X93678875Y-60301055D01*
X93748377Y-60308213D01*
X93802976Y-60351810D01*
X93813817Y-60370576D01*
X93874168Y-60499998D01*
X93889429Y-60532726D01*
X93889430Y-60532728D01*
X94019952Y-60719135D01*
X94180856Y-60880039D01*
X94180859Y-60880041D01*
X94367264Y-61010562D01*
X94403238Y-61027337D01*
X94425275Y-61037613D01*
X94477715Y-61083785D01*
X94496867Y-61150978D01*
X94476651Y-61217860D01*
X94425278Y-61262376D01*
X94367263Y-61289429D01*
X94367260Y-61289431D01*
X94180853Y-61419953D01*
X94019949Y-61580857D01*
X93889427Y-61767264D01*
X93889426Y-61767266D01*
X93793256Y-61973501D01*
X93793253Y-61973510D01*
X93734361Y-62193301D01*
X93734359Y-62193312D01*
X93723028Y-62322831D01*
X93697575Y-62387900D01*
X93651788Y-62421055D01*
X93680703Y-62434260D01*
X93718477Y-62493038D01*
X93723028Y-62517166D01*
X93734359Y-62646685D01*
X93734361Y-62646696D01*
X93793253Y-62866487D01*
X93793256Y-62866496D01*
X93889426Y-63072731D01*
X93889427Y-63072733D01*
X94019949Y-63259140D01*
X94180853Y-63420044D01*
X94180856Y-63420046D01*
X94367261Y-63550567D01*
X94573499Y-63646738D01*
X94793303Y-63705634D01*
X94944237Y-63718839D01*
X95019993Y-63725467D01*
X95019995Y-63725467D01*
X95019997Y-63725467D01*
X95095593Y-63718853D01*
X95246687Y-63705634D01*
X95466491Y-63646738D01*
X95672729Y-63550567D01*
X95859134Y-63420046D01*
X96020042Y-63259138D01*
X96150563Y-63072733D01*
X96246734Y-62866495D01*
X96305630Y-62646691D01*
X96324482Y-62431210D01*
X96325463Y-62420000D01*
X96325463Y-62419997D01*
X96314440Y-62294004D01*
X96305630Y-62193307D01*
X96246734Y-61973503D01*
X96150563Y-61767265D01*
X96020042Y-61580860D01*
X96020040Y-61580857D01*
X95859136Y-61419953D01*
X95672729Y-61289431D01*
X95672727Y-61289430D01*
X95615321Y-61262661D01*
X95614715Y-61262378D01*
X95562277Y-61216206D01*
X95543125Y-61149013D01*
X95563341Y-61082132D01*
X95614714Y-61037616D01*
X95672732Y-61010562D01*
X95859137Y-60880041D01*
X96020045Y-60719133D01*
X96150566Y-60532728D01*
X96246737Y-60326490D01*
X96305633Y-60106686D01*
X96325466Y-59879994D01*
X96305633Y-59653302D01*
X96250871Y-59448926D01*
X96246739Y-59433505D01*
X96246736Y-59433496D01*
X96222579Y-59381691D01*
X96150566Y-59227260D01*
X96052837Y-59087687D01*
X96020043Y-59040852D01*
X95859139Y-58879948D01*
X95672742Y-58749433D01*
X95672732Y-58749426D01*
X95614726Y-58722377D01*
X95562288Y-58676205D01*
X95543137Y-58609011D01*
X95563353Y-58542130D01*
X95614726Y-58497616D01*
X95672731Y-58470568D01*
X95859136Y-58340047D01*
X96020044Y-58179139D01*
X96150565Y-57992734D01*
X96246736Y-57786496D01*
X96305632Y-57566692D01*
X96325465Y-57340000D01*
X96305632Y-57113308D01*
X96246736Y-56893504D01*
X96150565Y-56687266D01*
X96020044Y-56500861D01*
X96020042Y-56500858D01*
X95859138Y-56339954D01*
X95672732Y-56209433D01*
X95672733Y-56209433D01*
X95672731Y-56209432D01*
X95614725Y-56182383D01*
X95562287Y-56136211D01*
X95543136Y-56069017D01*
X95563352Y-56002136D01*
X95614723Y-55957622D01*
X95672738Y-55930570D01*
X95859143Y-55800049D01*
X96020051Y-55639141D01*
X96150572Y-55452736D01*
X96246743Y-55246498D01*
X96305639Y-55026694D01*
X96325472Y-54800002D01*
X96305639Y-54573310D01*
X96246743Y-54353506D01*
X96150572Y-54147268D01*
X96020051Y-53960863D01*
X96020049Y-53960860D01*
X95859145Y-53799956D01*
X95672738Y-53669434D01*
X95672736Y-53669433D01*
X95466501Y-53573263D01*
X95466492Y-53573260D01*
X95246701Y-53514368D01*
X95246697Y-53514367D01*
X95246696Y-53514367D01*
X95246695Y-53514366D01*
X95246690Y-53514366D01*
X95020006Y-53494534D01*
X95020002Y-53494534D01*
X94793317Y-53514366D01*
X94793306Y-53514368D01*
X94573515Y-53573260D01*
X94573506Y-53573263D01*
X94367271Y-53669433D01*
X94367269Y-53669434D01*
X94180862Y-53799956D01*
X94019958Y-53960860D01*
X93889436Y-54147267D01*
X93889435Y-54147269D01*
X93793265Y-54353504D01*
X93793262Y-54353513D01*
X93738622Y-54557437D01*
X93702257Y-54617098D01*
X93639410Y-54647627D01*
X93570035Y-54639332D01*
X93531166Y-54613025D01*
X92627761Y-53709620D01*
X92627619Y-53709491D01*
X92533320Y-53615192D01*
X92429719Y-53525421D01*
X92192297Y-53319694D01*
X91831084Y-53049294D01*
X91831079Y-53049291D01*
X91567656Y-52880000D01*
X91451484Y-52805341D01*
X91451477Y-52805337D01*
X91055446Y-52589087D01*
X91055439Y-52589083D01*
X90645014Y-52401649D01*
X90645001Y-52401644D01*
X90222225Y-52243955D01*
X90102666Y-52208849D01*
X89825673Y-52127515D01*
X89766895Y-52089740D01*
X89737870Y-52026184D01*
X89741948Y-51972542D01*
X89752682Y-51937155D01*
X89752687Y-51937140D01*
X89807806Y-51660041D01*
X89819630Y-51539993D01*
X96094700Y-51539993D01*
X96094700Y-51540006D01*
X96113864Y-51771297D01*
X96113866Y-51771308D01*
X96170842Y-51996300D01*
X96264075Y-52208848D01*
X96391016Y-52403147D01*
X96391019Y-52403151D01*
X96391021Y-52403153D01*
X96548216Y-52573913D01*
X96548219Y-52573915D01*
X96548222Y-52573918D01*
X96731365Y-52716464D01*
X96731371Y-52716468D01*
X96731374Y-52716470D01*
X96935497Y-52826936D01*
X97019086Y-52855632D01*
X97155015Y-52902297D01*
X97155017Y-52902297D01*
X97155019Y-52902298D01*
X97383951Y-52940500D01*
X97383952Y-52940500D01*
X97616048Y-52940500D01*
X97616049Y-52940500D01*
X97844981Y-52902298D01*
X98064503Y-52826936D01*
X98268626Y-52716470D01*
X98451784Y-52573913D01*
X98608979Y-52403153D01*
X98735924Y-52208849D01*
X98829157Y-51996300D01*
X98886134Y-51771305D01*
X98887142Y-51759139D01*
X98905300Y-51540006D01*
X98905300Y-51539993D01*
X98886135Y-51308702D01*
X98886133Y-51308691D01*
X98829157Y-51083699D01*
X98735924Y-50871151D01*
X98608983Y-50676852D01*
X98608980Y-50676849D01*
X98608979Y-50676847D01*
X98514195Y-50573884D01*
X98483275Y-50511232D01*
X98491135Y-50441806D01*
X98535283Y-50387651D01*
X98562095Y-50373722D01*
X98642326Y-50343798D01*
X98642326Y-50343797D01*
X98642331Y-50343796D01*
X98757546Y-50257546D01*
X98843796Y-50142331D01*
X98894091Y-50007483D01*
X98900500Y-49947873D01*
X98900499Y-48052128D01*
X98894091Y-47992517D01*
X98868346Y-47923492D01*
X98843797Y-47857671D01*
X98843793Y-47857664D01*
X98757547Y-47742455D01*
X98757544Y-47742452D01*
X98642335Y-47656206D01*
X98642328Y-47656202D01*
X98507482Y-47605908D01*
X98507483Y-47605908D01*
X98447883Y-47599501D01*
X98447881Y-47599500D01*
X98447873Y-47599500D01*
X98447864Y-47599500D01*
X96552129Y-47599500D01*
X96552123Y-47599501D01*
X96492516Y-47605908D01*
X96357671Y-47656202D01*
X96357664Y-47656206D01*
X96242455Y-47742452D01*
X96242452Y-47742455D01*
X96156206Y-47857664D01*
X96156202Y-47857671D01*
X96105908Y-47992517D01*
X96099501Y-48052116D01*
X96099501Y-48052123D01*
X96099500Y-48052135D01*
X96099500Y-49947870D01*
X96099501Y-49947876D01*
X96105908Y-50007483D01*
X96156202Y-50142328D01*
X96156206Y-50142335D01*
X96242452Y-50257544D01*
X96242455Y-50257547D01*
X96357664Y-50343793D01*
X96357673Y-50343798D01*
X96437904Y-50373722D01*
X96493838Y-50415593D01*
X96518256Y-50481057D01*
X96503405Y-50549330D01*
X96485802Y-50573886D01*
X96391019Y-50676849D01*
X96264075Y-50871151D01*
X96170842Y-51083699D01*
X96113866Y-51308691D01*
X96113864Y-51308702D01*
X96094700Y-51539993D01*
X89819630Y-51539993D01*
X89835500Y-51378873D01*
X89835500Y-51237609D01*
X89835500Y-51151379D01*
X89835500Y-51085758D01*
X89855185Y-51018719D01*
X89871819Y-50998077D01*
X89912413Y-50957483D01*
X89998495Y-50871401D01*
X90128425Y-50685842D01*
X90183002Y-50642217D01*
X90252500Y-50635023D01*
X90314855Y-50666546D01*
X90331575Y-50685842D01*
X90461500Y-50871395D01*
X90461505Y-50871401D01*
X90628599Y-51038495D01*
X90725384Y-51106265D01*
X90822165Y-51174032D01*
X90822167Y-51174033D01*
X90822170Y-51174035D01*
X91036337Y-51273903D01*
X91036343Y-51273904D01*
X91036344Y-51273905D01*
X91091285Y-51288626D01*
X91264592Y-51335063D01*
X91441034Y-51350500D01*
X91499999Y-51355659D01*
X91500000Y-51355659D01*
X91500001Y-51355659D01*
X91558966Y-51350500D01*
X91735408Y-51335063D01*
X91963663Y-51273903D01*
X92177830Y-51174035D01*
X92371401Y-51038495D01*
X92538495Y-50871401D01*
X92674035Y-50677830D01*
X92773903Y-50463663D01*
X92835063Y-50235408D01*
X92855659Y-50000000D01*
X92835063Y-49764592D01*
X92773903Y-49536337D01*
X92674035Y-49322171D01*
X92668425Y-49314158D01*
X92538494Y-49128597D01*
X92371402Y-48961506D01*
X92371401Y-48961505D01*
X92185405Y-48831269D01*
X92141781Y-48776692D01*
X92134588Y-48707193D01*
X92166110Y-48644839D01*
X92185405Y-48628119D01*
X92371082Y-48498105D01*
X92538105Y-48331082D01*
X92673600Y-48137578D01*
X92773429Y-47923492D01*
X92773432Y-47923486D01*
X92830636Y-47710000D01*
X91933012Y-47710000D01*
X91965925Y-47652993D01*
X92000000Y-47525826D01*
X92000000Y-47394174D01*
X91965925Y-47267007D01*
X91933012Y-47210000D01*
X92830636Y-47210000D01*
X92830635Y-47209999D01*
X92773432Y-46996513D01*
X92773429Y-46996507D01*
X92673600Y-46782422D01*
X92673599Y-46782420D01*
X92538113Y-46588926D01*
X92538108Y-46588920D01*
X92371082Y-46421894D01*
X92177578Y-46286399D01*
X91963492Y-46186570D01*
X91963486Y-46186567D01*
X91750000Y-46129364D01*
X91750000Y-47026988D01*
X91692993Y-46994075D01*
X91565826Y-46960000D01*
X91434174Y-46960000D01*
X91307007Y-46994075D01*
X91250000Y-47026988D01*
X91250000Y-46129364D01*
X91249999Y-46129364D01*
X91036513Y-46186567D01*
X91036507Y-46186570D01*
X90822422Y-46286399D01*
X90822420Y-46286400D01*
X90628926Y-46421886D01*
X90628920Y-46421891D01*
X90461891Y-46588920D01*
X90461890Y-46588922D01*
X90331880Y-46774595D01*
X90277303Y-46818219D01*
X90207804Y-46825412D01*
X90145450Y-46793890D01*
X90128730Y-46774594D01*
X89998494Y-46588597D01*
X89831402Y-46421506D01*
X89831395Y-46421501D01*
X89821959Y-46414894D01*
X89792521Y-46394281D01*
X89637834Y-46285967D01*
X89637830Y-46285965D01*
X89423663Y-46186097D01*
X89423659Y-46186096D01*
X89423655Y-46186094D01*
X89195413Y-46124938D01*
X89195403Y-46124936D01*
X88960001Y-46104341D01*
X88959996Y-46104341D01*
X88898599Y-46109712D01*
X88830099Y-46095945D01*
X88808089Y-46081175D01*
X88758754Y-46039779D01*
X88618870Y-45922405D01*
X88618863Y-45922400D01*
X88341665Y-45728308D01*
X88341651Y-45728299D01*
X88048576Y-45559096D01*
X88043744Y-45556843D01*
X87741860Y-45416076D01*
X87741858Y-45416075D01*
X87741846Y-45416070D01*
X87423868Y-45300341D01*
X87423832Y-45300329D01*
X87157568Y-45228988D01*
X87096963Y-45212750D01*
X87096959Y-45212749D01*
X87096941Y-45212745D01*
X86763684Y-45153987D01*
X86763671Y-45153985D01*
X86426559Y-45124498D01*
X86426556Y-45124498D01*
X86257347Y-45124500D01*
X81650828Y-45124500D01*
X81650257Y-45124527D01*
X81573437Y-45124527D01*
X81236331Y-45154014D01*
X81236318Y-45154016D01*
X80903060Y-45212774D01*
X80903043Y-45212778D01*
X80576167Y-45300359D01*
X80576139Y-45300367D01*
X80258161Y-45416099D01*
X80258156Y-45416101D01*
X79951435Y-45559123D01*
X79658363Y-45728324D01*
X79658349Y-45728333D01*
X79381151Y-45922424D01*
X79121899Y-46139959D01*
X79063227Y-46198628D01*
X79063225Y-46198631D01*
X79063221Y-46198635D01*
X79027684Y-46234171D01*
X79027681Y-46234174D01*
X79009421Y-46252433D01*
X79002012Y-46259842D01*
X79001956Y-46259872D01*
X78866806Y-46395024D01*
X78687574Y-46613422D01*
X78687569Y-46613429D01*
X78530611Y-46848339D01*
X78397429Y-47097512D01*
X78397428Y-47097516D01*
X78289312Y-47358540D01*
X78207303Y-47628894D01*
X78207303Y-47628896D01*
X78152186Y-47906004D01*
X78152186Y-47906009D01*
X78124498Y-48187176D01*
X78124500Y-48301855D01*
X78124500Y-49586233D01*
X78158143Y-49755366D01*
X78158146Y-49755378D01*
X78224138Y-49914698D01*
X78224145Y-49914711D01*
X78319954Y-50058098D01*
X78319957Y-50058102D01*
X78441897Y-50180042D01*
X78441901Y-50180045D01*
X78585288Y-50275854D01*
X78585301Y-50275861D01*
X78740150Y-50340001D01*
X78744626Y-50341855D01*
X78913766Y-50375499D01*
X78913769Y-50375500D01*
X78913771Y-50375500D01*
X79086231Y-50375500D01*
X79086232Y-50375499D01*
X79255374Y-50341855D01*
X79414705Y-50275858D01*
X79558099Y-50180045D01*
X79680045Y-50058099D01*
X79775858Y-49914705D01*
X79841855Y-49755374D01*
X79875500Y-49586229D01*
X79875500Y-48414649D01*
X79875501Y-48414644D01*
X79875500Y-48333285D01*
X79875882Y-48323559D01*
X79881960Y-48246317D01*
X79888577Y-48162223D01*
X79891618Y-48143020D01*
X79928255Y-47990407D01*
X79934263Y-47971915D01*
X79994327Y-47826903D01*
X80003150Y-47809587D01*
X80085158Y-47675757D01*
X80096589Y-47660025D01*
X80201538Y-47537143D01*
X80208110Y-47530032D01*
X80237952Y-47500191D01*
X80242971Y-47495448D01*
X80396174Y-47358540D01*
X80412844Y-47343642D01*
X80423702Y-47334983D01*
X80606665Y-47205167D01*
X80618412Y-47197786D01*
X80814759Y-47089272D01*
X80827267Y-47083248D01*
X81019219Y-47003741D01*
X81088687Y-46996275D01*
X81151166Y-47027550D01*
X81186818Y-47087640D01*
X81184323Y-47157465D01*
X81179051Y-47170708D01*
X81093735Y-47353668D01*
X81093730Y-47353682D01*
X81041127Y-47549999D01*
X81041128Y-47550000D01*
X82004314Y-47550000D01*
X81999920Y-47554394D01*
X81947259Y-47645606D01*
X81920000Y-47747339D01*
X81920000Y-47852661D01*
X81947259Y-47954394D01*
X81999920Y-48045606D01*
X82004314Y-48050000D01*
X81041128Y-48050000D01*
X81093730Y-48246317D01*
X81093734Y-48246326D01*
X81189865Y-48452482D01*
X81320342Y-48638820D01*
X81481179Y-48799657D01*
X81667518Y-48930134D01*
X81667520Y-48930135D01*
X81725865Y-48957342D01*
X81778305Y-49003514D01*
X81797457Y-49070707D01*
X81777242Y-49137589D01*
X81725867Y-49182105D01*
X81690388Y-49198650D01*
X81667264Y-49209433D01*
X81480858Y-49339954D01*
X81319954Y-49500858D01*
X81189432Y-49687265D01*
X81189431Y-49687267D01*
X81093261Y-49893502D01*
X81093258Y-49893511D01*
X81034366Y-50113302D01*
X81034364Y-50113313D01*
X81014532Y-50339998D01*
X81014532Y-50340001D01*
X81034364Y-50566686D01*
X81034366Y-50566697D01*
X81093258Y-50786488D01*
X81093261Y-50786497D01*
X81189431Y-50992732D01*
X81189432Y-50992734D01*
X81319954Y-51179141D01*
X81480858Y-51340045D01*
X81503157Y-51355659D01*
X81667266Y-51470568D01*
X81725275Y-51497618D01*
X81777714Y-51543791D01*
X81796866Y-51610984D01*
X81776650Y-51677865D01*
X81725275Y-51722382D01*
X81667267Y-51749431D01*
X81667265Y-51749432D01*
X81480858Y-51879954D01*
X81319954Y-52040858D01*
X81189432Y-52227265D01*
X81189431Y-52227267D01*
X81093261Y-52433502D01*
X81093258Y-52433511D01*
X81034366Y-52653302D01*
X81034364Y-52653313D01*
X81014532Y-52879998D01*
X81014532Y-52880001D01*
X81034364Y-53106686D01*
X81034366Y-53106697D01*
X81093258Y-53326488D01*
X81093261Y-53326497D01*
X81189431Y-53532732D01*
X81189432Y-53532734D01*
X81319954Y-53719141D01*
X81480858Y-53880045D01*
X81480861Y-53880047D01*
X81667266Y-54010568D01*
X81725275Y-54037618D01*
X81777714Y-54083791D01*
X81796866Y-54150984D01*
X81776650Y-54217865D01*
X81725275Y-54262382D01*
X81667267Y-54289431D01*
X81667265Y-54289432D01*
X81480858Y-54419954D01*
X81319954Y-54580858D01*
X81189432Y-54767265D01*
X81189431Y-54767267D01*
X81093261Y-54973502D01*
X81093258Y-54973511D01*
X81034366Y-55193302D01*
X81034364Y-55193313D01*
X81014532Y-55419998D01*
X81014532Y-55420001D01*
X81034364Y-55646686D01*
X81034366Y-55646697D01*
X81093258Y-55866488D01*
X81093261Y-55866497D01*
X81189431Y-56072732D01*
X81189432Y-56072734D01*
X81319954Y-56259141D01*
X81480858Y-56420045D01*
X81480861Y-56420047D01*
X81667266Y-56550568D01*
X81725275Y-56577618D01*
X81777714Y-56623791D01*
X81796866Y-56690984D01*
X81776650Y-56757865D01*
X81725275Y-56802382D01*
X81667267Y-56829431D01*
X81667265Y-56829432D01*
X81480858Y-56959954D01*
X81319954Y-57120858D01*
X81189432Y-57307265D01*
X81189431Y-57307267D01*
X81093261Y-57513502D01*
X81093258Y-57513511D01*
X81034366Y-57733302D01*
X81034364Y-57733313D01*
X81014532Y-57959998D01*
X81014532Y-57960001D01*
X81034364Y-58186686D01*
X81034366Y-58186697D01*
X81093258Y-58406488D01*
X81093261Y-58406497D01*
X81189431Y-58612732D01*
X81189432Y-58612734D01*
X81319954Y-58799141D01*
X81480858Y-58960045D01*
X81488342Y-58965285D01*
X81667266Y-59090568D01*
X81725275Y-59117618D01*
X81777714Y-59163791D01*
X81796866Y-59230984D01*
X81776650Y-59297865D01*
X81725275Y-59342382D01*
X81667267Y-59369431D01*
X81667265Y-59369432D01*
X81480858Y-59499954D01*
X81319954Y-59660858D01*
X81189432Y-59847265D01*
X81189431Y-59847267D01*
X81093261Y-60053502D01*
X81093258Y-60053511D01*
X81034366Y-60273302D01*
X81034364Y-60273313D01*
X81014532Y-60499998D01*
X81014532Y-60500001D01*
X81034364Y-60726686D01*
X81034366Y-60726697D01*
X81093258Y-60946488D01*
X81093261Y-60946497D01*
X81189431Y-61152732D01*
X81189432Y-61152734D01*
X81319954Y-61339141D01*
X81480858Y-61500045D01*
X81480861Y-61500047D01*
X81667266Y-61630568D01*
X81725275Y-61657618D01*
X81777714Y-61703791D01*
X81796866Y-61770984D01*
X81776650Y-61837865D01*
X81725275Y-61882382D01*
X81667267Y-61909431D01*
X81667265Y-61909432D01*
X81480858Y-62039954D01*
X81319954Y-62200858D01*
X81189432Y-62387265D01*
X81189431Y-62387267D01*
X81093261Y-62593502D01*
X81093258Y-62593511D01*
X81034366Y-62813302D01*
X81034364Y-62813313D01*
X81014532Y-63039998D01*
X81014532Y-63040001D01*
X81034364Y-63266686D01*
X81034366Y-63266697D01*
X81093258Y-63486488D01*
X81093260Y-63486493D01*
X81093261Y-63486496D01*
X81108179Y-63518487D01*
X81118670Y-63587565D01*
X81090150Y-63651348D01*
X81031673Y-63689588D01*
X80961805Y-63690141D01*
X80915265Y-63665182D01*
X80899067Y-63651348D01*
X80837151Y-63598467D01*
X80830001Y-63591857D01*
X79855948Y-62617804D01*
X79855944Y-62617799D01*
X79792783Y-62554638D01*
X79788587Y-62550231D01*
X79758618Y-62517166D01*
X79588812Y-62329817D01*
X79581094Y-62320412D01*
X79405692Y-62083913D01*
X79398931Y-62073796D01*
X79300411Y-61909429D01*
X79247548Y-61821234D01*
X79241816Y-61810509D01*
X79222656Y-61770000D01*
X79133198Y-61580860D01*
X79115925Y-61544340D01*
X79111268Y-61533098D01*
X79105489Y-61516948D01*
X79012069Y-61255865D01*
X79008540Y-61244231D01*
X79007945Y-61241855D01*
X78936988Y-60958592D01*
X78934619Y-60946685D01*
X78891411Y-60655418D01*
X78890218Y-60643308D01*
X78875649Y-60346819D01*
X78875500Y-60340733D01*
X78875500Y-59243078D01*
X78875501Y-59243073D01*
X78875500Y-59208238D01*
X78875532Y-59208128D01*
X78875531Y-59117618D01*
X78875530Y-58965285D01*
X78845467Y-58583347D01*
X78785530Y-58204946D01*
X78726721Y-57960001D01*
X78696094Y-57832437D01*
X78696091Y-57832428D01*
X78696088Y-57832414D01*
X78577694Y-57468047D01*
X78431078Y-57114093D01*
X78430678Y-57113308D01*
X78257151Y-56772751D01*
X78257148Y-56772746D01*
X78257142Y-56772734D01*
X78056960Y-56446073D01*
X78056950Y-56446059D01*
X78056942Y-56446047D01*
X77831774Y-56136137D01*
X77831773Y-56136136D01*
X77831766Y-56136126D01*
X77582948Y-55844802D01*
X77447494Y-55709350D01*
X77447494Y-55709349D01*
X77447493Y-55709349D01*
X77190161Y-55452017D01*
X77190157Y-55452012D01*
X77162139Y-55423994D01*
X77162107Y-55423936D01*
X77124866Y-55386696D01*
X77124867Y-55386696D01*
X77024977Y-55286807D01*
X76806576Y-55107574D01*
X76806574Y-55107572D01*
X76806571Y-55107570D01*
X76571660Y-54950611D01*
X76571653Y-54950608D01*
X76322488Y-54817429D01*
X76322484Y-54817428D01*
X76061473Y-54709317D01*
X76061465Y-54709314D01*
X75791105Y-54627304D01*
X75791097Y-54627302D01*
X75771348Y-54623374D01*
X75709438Y-54590987D01*
X75700554Y-54581464D01*
X75700048Y-54580861D01*
X75539141Y-54419954D01*
X75352734Y-54289432D01*
X75352728Y-54289429D01*
X75294725Y-54262382D01*
X75242285Y-54216210D01*
X75223133Y-54149017D01*
X75243348Y-54082135D01*
X75294725Y-54037618D01*
X75352734Y-54010568D01*
X75539139Y-53880047D01*
X75700047Y-53719139D01*
X75830568Y-53532734D01*
X75926739Y-53326496D01*
X75985635Y-53106692D01*
X76005468Y-52880000D01*
X76000825Y-52826936D01*
X75985635Y-52653313D01*
X75985635Y-52653308D01*
X75926739Y-52433504D01*
X75830568Y-52227266D01*
X75732839Y-52087693D01*
X75700045Y-52040858D01*
X75539141Y-51879954D01*
X75352734Y-51749432D01*
X75352728Y-51749429D01*
X75294725Y-51722382D01*
X75242285Y-51676210D01*
X75223133Y-51609017D01*
X75243348Y-51542135D01*
X75294725Y-51497618D01*
X75352734Y-51470568D01*
X75539139Y-51340047D01*
X75700047Y-51179139D01*
X75830568Y-50992734D01*
X75926739Y-50786496D01*
X75985635Y-50566692D01*
X76005468Y-50340000D01*
X75985635Y-50113308D01*
X75926739Y-49893504D01*
X75830568Y-49687266D01*
X75700047Y-49500861D01*
X75700045Y-49500858D01*
X75539143Y-49339956D01*
X75514536Y-49322726D01*
X75470912Y-49268149D01*
X75463719Y-49198650D01*
X75495241Y-49136296D01*
X75555471Y-49100882D01*
X75572404Y-49097861D01*
X75607483Y-49094091D01*
X75742331Y-49043796D01*
X75857546Y-48957546D01*
X75943796Y-48842331D01*
X75994091Y-48707483D01*
X76000500Y-48647873D01*
X76000499Y-46952128D01*
X75994091Y-46892517D01*
X75992718Y-46888837D01*
X75943797Y-46757671D01*
X75943793Y-46757664D01*
X75857547Y-46642455D01*
X75857544Y-46642452D01*
X75742335Y-46556206D01*
X75742328Y-46556202D01*
X75607482Y-46505908D01*
X75607483Y-46505908D01*
X75547883Y-46499501D01*
X75547881Y-46499500D01*
X75547873Y-46499500D01*
X75547864Y-46499500D01*
X73852129Y-46499500D01*
X73852123Y-46499501D01*
X73792516Y-46505908D01*
X73657671Y-46556202D01*
X73657664Y-46556206D01*
X73542455Y-46642452D01*
X73542452Y-46642455D01*
X73456206Y-46757664D01*
X73456202Y-46757671D01*
X73405908Y-46892517D01*
X73402009Y-46928788D01*
X73399501Y-46952123D01*
X73399500Y-46952135D01*
X73399500Y-48647870D01*
X73399501Y-48647876D01*
X73405908Y-48707483D01*
X73456202Y-48842328D01*
X73456206Y-48842335D01*
X73542452Y-48957544D01*
X73542455Y-48957547D01*
X73657664Y-49043793D01*
X73657671Y-49043797D01*
X73686006Y-49054365D01*
X73792517Y-49094091D01*
X73827596Y-49097862D01*
X73892144Y-49124599D01*
X73931993Y-49181991D01*
X73934488Y-49251816D01*
X73898836Y-49311905D01*
X73885464Y-49322725D01*
X73860858Y-49339954D01*
X73699954Y-49500858D01*
X73569432Y-49687265D01*
X73569431Y-49687267D01*
X73473261Y-49893502D01*
X73473258Y-49893511D01*
X73414366Y-50113302D01*
X73414364Y-50113313D01*
X73394532Y-50339998D01*
X71500500Y-50339998D01*
X71500500Y-49002706D01*
X71500618Y-48997297D01*
X71517386Y-48613226D01*
X71518326Y-48602495D01*
X71568152Y-48224025D01*
X71570025Y-48213405D01*
X71652649Y-47840709D01*
X71655440Y-47830295D01*
X71770230Y-47466227D01*
X71773917Y-47456095D01*
X71920003Y-47103412D01*
X71924561Y-47093638D01*
X72100822Y-46755045D01*
X72106217Y-46745700D01*
X72311325Y-46423744D01*
X72317515Y-46414905D01*
X72549896Y-46112060D01*
X72556834Y-46103791D01*
X72814726Y-45822352D01*
X72822352Y-45814726D01*
X73103791Y-45556834D01*
X73112060Y-45549896D01*
X73414905Y-45317515D01*
X73423744Y-45311325D01*
X73745700Y-45106217D01*
X73755045Y-45100822D01*
X74093638Y-44924561D01*
X74103412Y-44920003D01*
X74456095Y-44773917D01*
X74466227Y-44770230D01*
X74830295Y-44655440D01*
X74840709Y-44652649D01*
X75213405Y-44570025D01*
X75224025Y-44568152D01*
X75602495Y-44518326D01*
X75613226Y-44517386D01*
X75997297Y-44500617D01*
X76002706Y-44500500D01*
X76065892Y-44500500D01*
X98934108Y-44500500D01*
X98997294Y-44500500D01*
X99002702Y-44500617D01*
G37*
%TD.AperFunction*%
%TD*%
M02*
