%TF.GenerationSoftware,KiCad,Pcbnew,8.0.7*%
%TF.CreationDate,2025-02-21T23:23:42-08:00*%
%TF.ProjectId,Attiny2x4x8x Programmers,41747469-6e79-4327-9834-783878205072,rev?*%
%TF.SameCoordinates,Original*%
%TF.FileFunction,Legend,Bot*%
%TF.FilePolarity,Positive*%
%FSLAX46Y46*%
G04 Gerber Fmt 4.6, Leading zero omitted, Abs format (unit mm)*
G04 Created by KiCad (PCBNEW 8.0.7) date 2025-02-21 23:23:42*
%MOMM*%
%LPD*%
G01*
G04 APERTURE LIST*
%ADD10C,0.500000*%
%ADD11C,0.000000*%
G04 APERTURE END LIST*
D10*
G36*
X88734542Y-79233260D02*
G01*
X88897800Y-79312086D01*
X88906664Y-79322224D01*
X88971000Y-79494633D01*
X88954448Y-79583993D01*
X88830926Y-79716039D01*
X88791742Y-79735067D01*
X88604719Y-79824938D01*
X88432522Y-79906029D01*
X88245457Y-79991746D01*
X88054197Y-80075768D01*
X87871198Y-80150718D01*
X87720281Y-80826685D01*
X87696587Y-80929015D01*
X87654791Y-81118678D01*
X87616682Y-81308150D01*
X87582919Y-81505362D01*
X87618951Y-81511543D01*
X87820800Y-81547253D01*
X88025212Y-81585943D01*
X88217841Y-81626243D01*
X88397151Y-81670739D01*
X88531647Y-81714851D01*
X88723864Y-81796667D01*
X88890302Y-81910502D01*
X88971000Y-82077404D01*
X88970721Y-82090077D01*
X88899607Y-82258143D01*
X88890549Y-82267664D01*
X88722482Y-82336765D01*
X88631446Y-82320483D01*
X88457699Y-82262662D01*
X88069108Y-82118070D01*
X86326778Y-81738517D01*
X85484531Y-81578562D01*
X85451482Y-81568805D01*
X85279843Y-81472829D01*
X85211614Y-81303838D01*
X85234537Y-81246708D01*
X85298531Y-81180031D01*
X86116216Y-81180031D01*
X87072329Y-81386074D01*
X87099157Y-81234691D01*
X87137494Y-81026201D01*
X87173543Y-80840014D01*
X87212709Y-80650985D01*
X87258491Y-80452554D01*
X86116216Y-81180031D01*
X85298531Y-81180031D01*
X85366576Y-81109134D01*
X85508701Y-80994296D01*
X85655411Y-80886445D01*
X85831463Y-80764390D01*
X85982757Y-80663526D01*
X86150556Y-80554672D01*
X86320240Y-80446567D01*
X86484981Y-80343206D01*
X86644781Y-80244590D01*
X86837580Y-80127992D01*
X87022657Y-80018807D01*
X87200012Y-79917035D01*
X87369646Y-79822676D01*
X87373461Y-79807330D01*
X87457081Y-79643648D01*
X87634429Y-79573255D01*
X87786251Y-79616632D01*
X87977086Y-79526616D01*
X88146544Y-79448601D01*
X88328303Y-79367961D01*
X88526648Y-79286571D01*
X88714349Y-79232561D01*
X88734542Y-79233260D01*
G37*
G36*
X85788173Y-86150373D02*
G01*
X85783102Y-85963941D01*
X85772300Y-85774658D01*
X85757448Y-85570198D01*
X85744120Y-85370194D01*
X85735012Y-85182006D01*
X85732144Y-84990928D01*
X85732144Y-84810188D01*
X85932087Y-84817192D01*
X86117331Y-84826892D01*
X86332821Y-84840405D01*
X86535500Y-84854579D01*
X86759183Y-84871399D01*
X86854538Y-84878869D01*
X87072846Y-84895010D01*
X87275357Y-84908416D01*
X87462072Y-84919085D01*
X87665277Y-84928278D01*
X87873599Y-84934023D01*
X87978739Y-84934898D01*
X88161060Y-84945065D01*
X88244426Y-84952972D01*
X88424932Y-84968063D01*
X88512824Y-84971046D01*
X88698008Y-84951294D01*
X88805623Y-84915017D01*
X88947743Y-84795065D01*
X88971000Y-84693611D01*
X88909047Y-84521308D01*
X88900511Y-84511064D01*
X88733397Y-84430049D01*
X88719771Y-84429731D01*
X88606809Y-84442383D01*
X88493847Y-84455034D01*
X88303817Y-84449300D01*
X88124234Y-84438768D01*
X87931986Y-84427648D01*
X87751910Y-84422501D01*
X87554283Y-84418830D01*
X87351428Y-84409594D01*
X87155318Y-84397204D01*
X86938685Y-84380683D01*
X86742479Y-84363761D01*
X86532193Y-84345881D01*
X86341321Y-84330649D01*
X86137905Y-84315865D01*
X85935921Y-84303435D01*
X85751679Y-84295585D01*
X85732144Y-84295080D01*
X85734855Y-84063733D01*
X85732059Y-83863366D01*
X85723672Y-83679774D01*
X85706819Y-83486785D01*
X85678240Y-83294184D01*
X85655330Y-83188953D01*
X85559597Y-83028183D01*
X85408620Y-82982909D01*
X85233665Y-83044821D01*
X85228784Y-83048879D01*
X85148030Y-83215824D01*
X85148355Y-83244982D01*
X85167219Y-83431072D01*
X85189498Y-83612780D01*
X85194443Y-83651646D01*
X85213752Y-83842013D01*
X85224003Y-84032496D01*
X85224265Y-84062829D01*
X85222684Y-84254865D01*
X85219422Y-84450488D01*
X85217939Y-84525523D01*
X85214338Y-84720453D01*
X85212009Y-84902365D01*
X85211614Y-84988217D01*
X85216237Y-85178721D01*
X85226086Y-85367686D01*
X85239628Y-85569295D01*
X85251885Y-85749978D01*
X85262281Y-85942632D01*
X85267533Y-86125122D01*
X85267643Y-86150373D01*
X85333567Y-86323629D01*
X85342650Y-86332920D01*
X85508288Y-86406372D01*
X85528812Y-86407023D01*
X85703656Y-86341893D01*
X85713166Y-86332920D01*
X85787880Y-86163900D01*
X85788173Y-86150373D01*
G37*
G36*
X85788173Y-89671182D02*
G01*
X85783102Y-89484750D01*
X85772300Y-89295468D01*
X85757448Y-89091008D01*
X85744120Y-88891004D01*
X85735012Y-88702816D01*
X85732144Y-88511737D01*
X85732144Y-88330997D01*
X85932087Y-88338001D01*
X86117331Y-88347702D01*
X86332821Y-88361215D01*
X86535500Y-88375388D01*
X86759183Y-88392209D01*
X86854538Y-88399678D01*
X87072846Y-88415820D01*
X87275357Y-88429225D01*
X87462072Y-88439895D01*
X87665277Y-88449087D01*
X87873599Y-88454832D01*
X87978739Y-88455708D01*
X88161060Y-88465874D01*
X88244426Y-88473782D01*
X88424932Y-88488873D01*
X88512824Y-88491856D01*
X88698008Y-88472103D01*
X88805623Y-88435826D01*
X88947743Y-88315875D01*
X88971000Y-88214420D01*
X88909047Y-88042117D01*
X88900511Y-88031873D01*
X88733397Y-87950858D01*
X88719771Y-87950540D01*
X88606809Y-87963192D01*
X88493847Y-87975844D01*
X88303817Y-87970109D01*
X88124234Y-87959577D01*
X87931986Y-87948458D01*
X87751910Y-87943311D01*
X87554283Y-87939639D01*
X87351428Y-87930404D01*
X87155318Y-87918013D01*
X86938685Y-87901493D01*
X86742479Y-87884570D01*
X86532193Y-87866691D01*
X86341321Y-87851458D01*
X86137905Y-87836674D01*
X85935921Y-87824245D01*
X85751679Y-87816394D01*
X85732144Y-87815889D01*
X85734855Y-87584542D01*
X85732059Y-87384176D01*
X85723672Y-87200584D01*
X85706819Y-87007594D01*
X85678240Y-86814994D01*
X85655330Y-86709762D01*
X85559597Y-86548992D01*
X85408620Y-86503719D01*
X85233665Y-86565630D01*
X85228784Y-86569689D01*
X85148030Y-86736633D01*
X85148355Y-86765792D01*
X85167219Y-86951881D01*
X85189498Y-87133590D01*
X85194443Y-87172456D01*
X85213752Y-87362823D01*
X85224003Y-87553306D01*
X85224265Y-87583639D01*
X85222684Y-87775675D01*
X85219422Y-87971297D01*
X85217939Y-88046332D01*
X85214338Y-88241263D01*
X85212009Y-88423175D01*
X85211614Y-88509026D01*
X85216237Y-88699531D01*
X85226086Y-88888496D01*
X85239628Y-89090104D01*
X85251885Y-89270787D01*
X85262281Y-89463441D01*
X85267533Y-89645932D01*
X85267643Y-89671182D01*
X85333567Y-89844438D01*
X85342650Y-89853729D01*
X85508288Y-89927181D01*
X85528812Y-89927833D01*
X85703656Y-89862703D01*
X85713166Y-89853729D01*
X85787880Y-89684710D01*
X85788173Y-89671182D01*
G37*
G36*
X85674307Y-90568555D02*
G01*
X85624194Y-90391783D01*
X85598397Y-90357090D01*
X85433936Y-90269305D01*
X85414042Y-90268527D01*
X85245103Y-90341262D01*
X85230591Y-90357090D01*
X85156477Y-90523949D01*
X85153777Y-90568555D01*
X85204486Y-90744134D01*
X85230591Y-90778213D01*
X85394156Y-90865101D01*
X85414042Y-90865872D01*
X85583724Y-90793879D01*
X85598397Y-90778213D01*
X85672454Y-90605841D01*
X85674307Y-90568555D01*
G37*
G36*
X87784443Y-90683325D02*
G01*
X87977609Y-90685358D01*
X88173189Y-90689552D01*
X88248041Y-90691458D01*
X88442369Y-90696603D01*
X88625222Y-90699930D01*
X88712542Y-90700495D01*
X88884783Y-90644088D01*
X88898704Y-90631814D01*
X88970717Y-90464912D01*
X88971000Y-90451074D01*
X88907458Y-90281101D01*
X88898704Y-90272142D01*
X88726613Y-90202829D01*
X88712542Y-90202557D01*
X88518698Y-90200298D01*
X88322906Y-90195638D01*
X88248041Y-90193520D01*
X88053819Y-90188375D01*
X87871368Y-90185048D01*
X87784443Y-90184483D01*
X87603113Y-90187473D01*
X87413619Y-90195380D01*
X87223003Y-90206723D01*
X87178062Y-90209787D01*
X86983220Y-90222455D01*
X86789031Y-90231669D01*
X86602536Y-90235892D01*
X86571680Y-90235994D01*
X86396752Y-90293143D01*
X86382807Y-90305579D01*
X86310582Y-90477770D01*
X86310511Y-90484511D01*
X86374052Y-90654590D01*
X86382807Y-90663443D01*
X86550211Y-90733312D01*
X86571680Y-90733932D01*
X86753010Y-90730942D01*
X86942504Y-90723034D01*
X87133120Y-90711692D01*
X87178062Y-90708628D01*
X87372903Y-90696397D01*
X87567092Y-90687501D01*
X87753587Y-90683424D01*
X87784443Y-90683325D01*
G37*
G36*
X89086673Y-93482079D02*
G01*
X89022911Y-93303531D01*
X88860748Y-93235369D01*
X88333892Y-93163977D01*
X88144835Y-93143911D01*
X87964106Y-93132175D01*
X87807036Y-93128733D01*
X87618050Y-93135652D01*
X87579304Y-93137770D01*
X87395790Y-93146092D01*
X87350668Y-93146807D01*
X87148196Y-93137077D01*
X86960948Y-93095974D01*
X86833071Y-92968097D01*
X86831041Y-92943475D01*
X86869804Y-92750757D01*
X86972318Y-92580749D01*
X87100459Y-92448301D01*
X87159084Y-92399448D01*
X87318078Y-92288802D01*
X87496841Y-92190920D01*
X87669475Y-92115744D01*
X87857244Y-92050342D01*
X87913672Y-92033450D01*
X88102146Y-92017159D01*
X88154960Y-92010858D01*
X88335248Y-91996455D01*
X88393536Y-91995495D01*
X88579952Y-92007257D01*
X88615846Y-92010858D01*
X88801638Y-92025486D01*
X88837252Y-92026221D01*
X89008337Y-91964268D01*
X89017088Y-91955732D01*
X89086605Y-91783595D01*
X89086673Y-91776800D01*
X89025514Y-91604815D01*
X89017088Y-91596060D01*
X88849286Y-91528548D01*
X88835445Y-91528283D01*
X88648337Y-91515137D01*
X88612231Y-91511113D01*
X88430249Y-91495863D01*
X88388114Y-91494846D01*
X88188902Y-91499117D01*
X87991122Y-91508966D01*
X87789032Y-91522522D01*
X87678711Y-91530994D01*
X87489663Y-91545431D01*
X87296695Y-91557589D01*
X87109042Y-91565730D01*
X86968404Y-91568046D01*
X86779519Y-91561612D01*
X86732538Y-91559009D01*
X86547482Y-91551519D01*
X86496673Y-91550875D01*
X86325630Y-91618723D01*
X86321355Y-91623171D01*
X86252741Y-91795472D01*
X86252674Y-91802103D01*
X86326343Y-91975267D01*
X86509367Y-92050493D01*
X86587946Y-92059658D01*
X86888878Y-92066887D01*
X86722259Y-92200756D01*
X86583880Y-92335773D01*
X86455103Y-92499307D01*
X86366992Y-92664493D01*
X86315594Y-92859298D01*
X86310511Y-92943475D01*
X86331974Y-93131388D01*
X86407429Y-93305928D01*
X86537212Y-93441437D01*
X86653916Y-93510094D01*
X86837052Y-93573524D01*
X87025492Y-93607947D01*
X87222159Y-93625344D01*
X87330787Y-93629382D01*
X87576593Y-93629382D01*
X87803421Y-93626671D01*
X87987283Y-93635620D01*
X88173147Y-93657171D01*
X88325759Y-93680893D01*
X88513965Y-93709963D01*
X88693877Y-93729504D01*
X88845385Y-93736018D01*
X89015580Y-93668170D01*
X89019799Y-93663722D01*
X89086412Y-93495603D01*
X89086673Y-93482079D01*
G37*
G36*
X86706331Y-96459766D02*
G01*
X88592350Y-95580467D01*
X88761003Y-95501521D01*
X88961970Y-95409549D01*
X89151993Y-95325035D01*
X89331074Y-95247977D01*
X89499211Y-95178378D01*
X89686531Y-95104702D01*
X89745469Y-95082529D01*
X90234370Y-94914441D01*
X90381976Y-94809630D01*
X90416917Y-94685806D01*
X90358141Y-94511279D01*
X90350043Y-94501451D01*
X90185570Y-94424637D01*
X90004492Y-94458921D01*
X89829938Y-94515168D01*
X89656301Y-94579451D01*
X89452447Y-94660875D01*
X89279726Y-94733193D01*
X89090007Y-94815154D01*
X88883291Y-94906756D01*
X88736038Y-94973182D01*
X86977441Y-94063157D01*
X86791279Y-93949291D01*
X86620051Y-93882287D01*
X86594272Y-93880610D01*
X86418037Y-93941497D01*
X86396362Y-93960136D01*
X86311266Y-94121500D01*
X86310511Y-94139972D01*
X86385473Y-94307478D01*
X86401785Y-94319808D01*
X86564493Y-94428802D01*
X86743552Y-94539802D01*
X86938963Y-94652806D01*
X87150725Y-94767816D01*
X87320277Y-94855389D01*
X87499026Y-94944090D01*
X87686974Y-95033919D01*
X87884118Y-95124876D01*
X88090461Y-95216960D01*
X88161286Y-95247906D01*
X87265720Y-95623845D01*
X87099507Y-95699554D01*
X86915469Y-95786516D01*
X86742069Y-95872009D01*
X86579307Y-95956031D01*
X86469562Y-96015146D01*
X86332878Y-96136581D01*
X86310511Y-96228419D01*
X86374340Y-96397640D01*
X86388229Y-96412773D01*
X86552843Y-96492496D01*
X86572584Y-96493203D01*
X86706331Y-96459766D01*
G37*
G36*
X89017088Y-98454228D02*
G01*
X89086673Y-98622316D01*
X89013473Y-98787693D01*
X89008921Y-98791752D01*
X88834541Y-98853663D01*
X88711730Y-98853741D01*
X88480214Y-98854362D01*
X88267505Y-98855605D01*
X88073606Y-98857469D01*
X87857680Y-98860672D01*
X87637361Y-98865798D01*
X87433808Y-98873545D01*
X87449972Y-98994519D01*
X87467245Y-99183513D01*
X87465971Y-99257846D01*
X87446855Y-99472753D01*
X87404802Y-99675524D01*
X87339810Y-99866159D01*
X87251879Y-100044657D01*
X87141010Y-100211018D01*
X87070863Y-100296452D01*
X86917368Y-100442110D01*
X86746273Y-100554155D01*
X86557576Y-100632586D01*
X86351279Y-100677404D01*
X86165919Y-100689075D01*
X85991170Y-100673348D01*
X85799583Y-100615248D01*
X85621229Y-100514336D01*
X85478886Y-100393767D01*
X85346265Y-100241744D01*
X85274039Y-100139160D01*
X85170817Y-99955221D01*
X85097087Y-99765661D01*
X85052849Y-99570479D01*
X85038103Y-99369675D01*
X85038901Y-99310935D01*
X85558634Y-99310935D01*
X85560135Y-99371561D01*
X85586822Y-99568257D01*
X85646869Y-99756657D01*
X85729433Y-99919124D01*
X85839796Y-100066341D01*
X85990023Y-100180843D01*
X86173149Y-100223670D01*
X86304415Y-100212423D01*
X86481417Y-100153378D01*
X86634543Y-100043721D01*
X86750612Y-99903761D01*
X86845408Y-99728411D01*
X86903626Y-99554661D01*
X86937331Y-99364079D01*
X86946715Y-99183513D01*
X86916893Y-98904270D01*
X86000542Y-98957588D01*
X85576708Y-98963011D01*
X85563152Y-99112121D01*
X85562345Y-99128763D01*
X85558634Y-99310935D01*
X85038901Y-99310935D01*
X85040525Y-99191463D01*
X85050755Y-99000966D01*
X85055018Y-98956024D01*
X85088711Y-98770523D01*
X85121696Y-98612827D01*
X85282102Y-98521102D01*
X85465744Y-98495447D01*
X85647196Y-98490376D01*
X85997831Y-98490376D01*
X86039108Y-98489522D01*
X86236764Y-98482575D01*
X86419181Y-98473658D01*
X86630890Y-98461564D01*
X86829690Y-98449059D01*
X87048833Y-98434347D01*
X87090841Y-98431511D01*
X87291984Y-98418684D01*
X87478301Y-98408107D01*
X87682311Y-98398385D01*
X87893339Y-98391139D01*
X88098930Y-98388258D01*
X88845385Y-98388258D01*
X89017088Y-98454228D01*
G37*
G36*
X87039796Y-103161594D02*
G01*
X87217301Y-103123433D01*
X87340611Y-102988448D01*
X87351572Y-102907655D01*
X87281434Y-102737013D01*
X87103055Y-102688960D01*
X86926833Y-102680826D01*
X86715368Y-102673597D01*
X86747449Y-102482916D01*
X86802984Y-102292165D01*
X86879107Y-102126577D01*
X86941293Y-102030163D01*
X87074744Y-101883810D01*
X87230350Y-101766329D01*
X87398313Y-101673273D01*
X87439230Y-101654225D01*
X88830023Y-101659647D01*
X89005467Y-101611560D01*
X89085670Y-101438841D01*
X89086673Y-101408419D01*
X89014749Y-101233546D01*
X88831830Y-101184302D01*
X87064196Y-101184302D01*
X86874207Y-101188478D01*
X86814775Y-101190628D01*
X86632337Y-101196206D01*
X86565354Y-101196953D01*
X86382434Y-101246198D01*
X86310511Y-101421071D01*
X86387138Y-101591474D01*
X86554858Y-101659351D01*
X86710849Y-101672299D01*
X86578856Y-101827401D01*
X86469234Y-101987711D01*
X86381984Y-102153227D01*
X86317105Y-102323950D01*
X86274599Y-102499880D01*
X86254464Y-102681017D01*
X86252674Y-102754930D01*
X86290856Y-102934766D01*
X86405399Y-103062187D01*
X86581885Y-103135485D01*
X86772255Y-103161812D01*
X86864478Y-103164305D01*
X87039796Y-103161594D01*
G37*
G36*
X87906065Y-103532022D02*
G01*
X88113220Y-103557809D01*
X88303410Y-103606408D01*
X88476634Y-103677818D01*
X88632893Y-103772039D01*
X88772186Y-103889071D01*
X88810268Y-103928054D01*
X88924208Y-104071776D01*
X89017572Y-104249904D01*
X89071624Y-104442829D01*
X89086673Y-104623778D01*
X89084911Y-104690052D01*
X89058489Y-104878960D01*
X89000359Y-105053000D01*
X88910522Y-105212171D01*
X88788978Y-105356473D01*
X88635727Y-105485907D01*
X88585381Y-105520734D01*
X88426634Y-105612086D01*
X88256322Y-105683739D01*
X88074446Y-105735695D01*
X87881005Y-105767952D01*
X87676000Y-105780512D01*
X87515063Y-105777759D01*
X87331726Y-105760476D01*
X87131323Y-105721038D01*
X86945451Y-105660843D01*
X86774108Y-105579891D01*
X86640552Y-105491993D01*
X86491604Y-105348770D01*
X86387023Y-105182024D01*
X86326809Y-104991753D01*
X86310511Y-104809940D01*
X86312248Y-104776503D01*
X86831041Y-104776503D01*
X86832157Y-104811384D01*
X86878584Y-104995908D01*
X86993128Y-105137986D01*
X87175788Y-105237619D01*
X87380038Y-105288223D01*
X87577496Y-105307483D01*
X87805228Y-105307878D01*
X87871203Y-105303719D01*
X88053590Y-105269796D01*
X88228911Y-105194376D01*
X88375462Y-105079242D01*
X88458885Y-104979327D01*
X88539328Y-104812298D01*
X88566143Y-104624682D01*
X88562039Y-104555493D01*
X88506885Y-104376786D01*
X88398055Y-104230669D01*
X88372010Y-104206375D01*
X88206299Y-104100775D01*
X88022665Y-104045918D01*
X87830532Y-104030048D01*
X87718686Y-104034086D01*
X87527260Y-104061703D01*
X87348558Y-104115482D01*
X87182580Y-104195425D01*
X87080830Y-104264416D01*
X86941381Y-104408949D01*
X86858118Y-104579644D01*
X86831041Y-104776503D01*
X86312248Y-104776503D01*
X86318545Y-104655281D01*
X86351185Y-104474307D01*
X86423495Y-104275253D01*
X86531960Y-104095961D01*
X86676580Y-103936430D01*
X86824715Y-103818583D01*
X86879700Y-103781761D01*
X87051092Y-103686248D01*
X87232142Y-103613164D01*
X87422851Y-103562511D01*
X87623218Y-103534289D01*
X87833243Y-103528496D01*
X87906065Y-103532022D01*
G37*
G36*
X90153603Y-106202485D02*
G01*
X90295491Y-106324950D01*
X90364503Y-106507086D01*
X90367727Y-106521538D01*
X90398439Y-106711484D01*
X90412771Y-106893071D01*
X90416917Y-107074609D01*
X90413161Y-107214513D01*
X90393442Y-107408483D01*
X90349074Y-107610689D01*
X90281701Y-107786949D01*
X90176533Y-107956618D01*
X90063345Y-108073704D01*
X89903062Y-108185036D01*
X89731303Y-108265875D01*
X89558404Y-108322616D01*
X89473428Y-108343613D01*
X89285684Y-108378745D01*
X89101949Y-108401979D01*
X88900052Y-108418207D01*
X88712542Y-108426542D01*
X87844087Y-108485282D01*
X87728333Y-108497883D01*
X87540674Y-108524782D01*
X87357898Y-108553963D01*
X87246722Y-108572083D01*
X87050675Y-108597076D01*
X86866286Y-108607281D01*
X86779675Y-108600640D01*
X86613225Y-108511386D01*
X86559028Y-108335268D01*
X86468141Y-108254454D01*
X86372866Y-108091270D01*
X86365315Y-108070975D01*
X86322446Y-107887016D01*
X86310511Y-107694546D01*
X86311014Y-107669242D01*
X86831041Y-107669242D01*
X86832280Y-107712705D01*
X86866286Y-107895167D01*
X86883126Y-107942661D01*
X86972922Y-108106632D01*
X87006192Y-108102800D01*
X87194063Y-108080137D01*
X87387787Y-108054419D01*
X87575615Y-108025981D01*
X87760043Y-107991863D01*
X87925220Y-107949042D01*
X88091464Y-107861585D01*
X88243522Y-107743346D01*
X88371518Y-107605969D01*
X88471071Y-107434959D01*
X88508306Y-107244504D01*
X88504180Y-107160638D01*
X88454836Y-106974390D01*
X88339314Y-106825188D01*
X88202756Y-106745439D01*
X88026687Y-106698794D01*
X87832339Y-106685115D01*
X87654442Y-106696444D01*
X87468605Y-106737139D01*
X87301407Y-106807430D01*
X87135588Y-106921884D01*
X87098709Y-106955726D01*
X86974987Y-107108254D01*
X86889333Y-107288231D01*
X86845614Y-107468229D01*
X86831041Y-107669242D01*
X86311014Y-107669242D01*
X86312230Y-107608038D01*
X86331571Y-107401838D01*
X86372400Y-107210022D01*
X86434719Y-107032592D01*
X86518528Y-106869547D01*
X86623825Y-106720887D01*
X86750612Y-106586612D01*
X86777649Y-106562370D01*
X86950990Y-106433085D01*
X87110002Y-106346510D01*
X87282252Y-106279174D01*
X87467739Y-106231077D01*
X87666465Y-106202218D01*
X87878428Y-106192599D01*
X88003096Y-106197103D01*
X88206927Y-106226663D01*
X88392509Y-106283812D01*
X88559842Y-106368551D01*
X88708927Y-106480879D01*
X88747666Y-106517584D01*
X88877629Y-106677822D01*
X88967604Y-106859521D01*
X89013528Y-107036115D01*
X89028836Y-107229141D01*
X89023753Y-107318703D01*
X88977862Y-107499456D01*
X88884244Y-107662013D01*
X88767752Y-107786291D01*
X88617089Y-107898182D01*
X88450469Y-107989152D01*
X88646115Y-107984090D01*
X88859105Y-107970620D01*
X89048331Y-107949079D01*
X89239059Y-107913749D01*
X89417427Y-107859923D01*
X89527904Y-107808666D01*
X89686446Y-107696270D01*
X89800708Y-107554988D01*
X89870688Y-107384819D01*
X89896387Y-107185764D01*
X89896337Y-107074498D01*
X89884985Y-106894020D01*
X89856624Y-106713129D01*
X89833273Y-106591748D01*
X89812343Y-106408583D01*
X89882226Y-106235826D01*
X90059956Y-106187177D01*
X90153603Y-106202485D01*
G37*
D11*
%TO.C,G\u002A\u002A\u002A*%
G36*
X93835733Y-75569850D02*
G01*
X93837594Y-75612204D01*
X93838939Y-75665508D01*
X93839853Y-75731977D01*
X93840418Y-75813829D01*
X93840719Y-75913279D01*
X93840838Y-76032545D01*
X93840859Y-76173843D01*
X93840860Y-76217192D01*
X93840814Y-76357757D01*
X93840545Y-76477034D01*
X93839852Y-76577338D01*
X93838537Y-76660985D01*
X93836400Y-76730288D01*
X93833242Y-76787563D01*
X93828865Y-76835124D01*
X93823069Y-76875286D01*
X93815655Y-76910363D01*
X93806424Y-76942671D01*
X93795177Y-76974524D01*
X93781715Y-77008237D01*
X93765838Y-77046124D01*
X93728429Y-77124728D01*
X93647881Y-77251098D01*
X93549207Y-77363609D01*
X93434567Y-77460549D01*
X93306117Y-77540205D01*
X93166015Y-77600867D01*
X93016420Y-77640820D01*
X93009135Y-77641977D01*
X92970078Y-77645592D01*
X92910860Y-77648793D01*
X92834626Y-77651565D01*
X92744521Y-77653896D01*
X92643690Y-77655771D01*
X92535277Y-77657176D01*
X92422428Y-77658099D01*
X92308287Y-77658524D01*
X92196001Y-77658439D01*
X92088713Y-77657829D01*
X91989569Y-77656681D01*
X91901713Y-77654980D01*
X91828291Y-77652714D01*
X91772447Y-77649868D01*
X91737327Y-77646429D01*
X91680842Y-77635885D01*
X91531633Y-77591659D01*
X91391439Y-77526005D01*
X91262709Y-77440457D01*
X91147897Y-77336551D01*
X91049454Y-77215820D01*
X91038478Y-77199213D01*
X91003564Y-77137925D01*
X90967936Y-77064926D01*
X90935680Y-76988974D01*
X90910881Y-76918827D01*
X90883221Y-76828544D01*
X90879432Y-75758592D01*
X90877232Y-75137232D01*
X91324306Y-75137232D01*
X91327738Y-75964702D01*
X91331169Y-76792172D01*
X91371032Y-76876353D01*
X91396183Y-76924570D01*
X91425909Y-76973877D01*
X91452847Y-77011730D01*
X91498205Y-77057894D01*
X91566996Y-77110109D01*
X91644289Y-77154670D01*
X91721631Y-77186093D01*
X91723021Y-77186521D01*
X91742606Y-77192157D01*
X91762906Y-77196831D01*
X91786272Y-77200632D01*
X91815059Y-77203648D01*
X91851619Y-77205966D01*
X91898307Y-77207674D01*
X91957475Y-77208860D01*
X92031478Y-77209612D01*
X92122669Y-77210017D01*
X92233400Y-77210164D01*
X92366026Y-77210141D01*
X92453808Y-77210084D01*
X92571255Y-77209928D01*
X92668325Y-77209600D01*
X92747371Y-77208997D01*
X92810744Y-77208018D01*
X92860798Y-77206559D01*
X92899884Y-77204520D01*
X92930354Y-77201797D01*
X92954561Y-77198288D01*
X92974857Y-77193892D01*
X92993595Y-77188505D01*
X93013126Y-77182027D01*
X93022042Y-77178924D01*
X93128305Y-77129979D01*
X93217828Y-77064099D01*
X93292048Y-76979989D01*
X93352404Y-76876353D01*
X93392267Y-76792172D01*
X93392267Y-76173843D01*
X93392267Y-75555513D01*
X93348178Y-75463191D01*
X93326560Y-75422462D01*
X93265748Y-75336449D01*
X93192405Y-75262765D01*
X93112010Y-75207344D01*
X93096802Y-75199173D01*
X93072854Y-75186860D01*
X93049442Y-75176296D01*
X93024658Y-75167350D01*
X92996596Y-75159885D01*
X92963350Y-75153769D01*
X92923013Y-75148866D01*
X92873680Y-75145043D01*
X92813442Y-75142165D01*
X92740395Y-75140098D01*
X92652632Y-75138708D01*
X92548246Y-75137861D01*
X92425331Y-75137422D01*
X92281981Y-75137257D01*
X92116288Y-75137232D01*
X91324306Y-75137232D01*
X90877232Y-75137232D01*
X90875643Y-74688640D01*
X91891473Y-74688731D01*
X91983062Y-74688773D01*
X92169233Y-74689085D01*
X92339017Y-74689693D01*
X92491429Y-74690584D01*
X92625489Y-74691747D01*
X92740214Y-74693172D01*
X92834620Y-74694846D01*
X92907727Y-74696759D01*
X92958551Y-74698900D01*
X92986110Y-74701256D01*
X93041774Y-74711633D01*
X93190877Y-74755782D01*
X93331126Y-74821436D01*
X93460036Y-74907038D01*
X93575123Y-75011033D01*
X93673901Y-75131865D01*
X93681035Y-75142430D01*
X93717641Y-75205354D01*
X93754591Y-75281120D01*
X93787771Y-75360758D01*
X93813067Y-75435300D01*
X93815787Y-75444747D01*
X93821474Y-75465600D01*
X93826228Y-75486321D01*
X93830134Y-75509125D01*
X93833275Y-75536230D01*
X93834685Y-75555513D01*
X93835733Y-75569850D01*
G37*
G36*
X90274591Y-77239466D02*
G01*
X90334942Y-77261597D01*
X90388530Y-77301108D01*
X90430424Y-77356247D01*
X90432531Y-77360191D01*
X90450410Y-77419279D01*
X90447408Y-77481464D01*
X90425276Y-77541816D01*
X90385766Y-77595404D01*
X90330627Y-77637298D01*
X90326683Y-77639405D01*
X90267595Y-77657283D01*
X90205409Y-77654282D01*
X90145057Y-77632150D01*
X90091469Y-77592640D01*
X90049576Y-77537501D01*
X90047469Y-77533557D01*
X90029590Y-77474468D01*
X90032592Y-77412283D01*
X90054723Y-77351931D01*
X90094234Y-77298343D01*
X90149373Y-77256449D01*
X90153317Y-77254342D01*
X90212405Y-77236464D01*
X90274591Y-77239466D01*
G37*
G36*
X89420833Y-76816901D02*
G01*
X89456652Y-76821120D01*
X89484135Y-76832192D01*
X89513183Y-76853096D01*
X89535060Y-76871545D01*
X89562172Y-76899220D01*
X89581119Y-76928854D01*
X89593193Y-76964893D01*
X89599683Y-77011782D01*
X89601880Y-77073967D01*
X89601074Y-77155895D01*
X89599322Y-77227411D01*
X89596889Y-77280492D01*
X89593059Y-77319622D01*
X89587101Y-77349968D01*
X89578286Y-77376702D01*
X89565883Y-77404992D01*
X89534861Y-77461614D01*
X89471148Y-77540122D01*
X89391830Y-77600072D01*
X89296914Y-77641456D01*
X89275489Y-77646315D01*
X89225603Y-77652416D01*
X89159482Y-77656515D01*
X89081959Y-77658234D01*
X89068964Y-77658280D01*
X88992587Y-77657170D01*
X88934971Y-77652519D01*
X88891386Y-77642839D01*
X88857104Y-77626642D01*
X88827397Y-77602439D01*
X88797535Y-77568744D01*
X88783677Y-77550618D01*
X88769014Y-77523696D01*
X88762401Y-77492414D01*
X88760859Y-77446874D01*
X88761340Y-77417353D01*
X88765559Y-77381534D01*
X88776631Y-77354051D01*
X88797535Y-77325003D01*
X88804931Y-77316049D01*
X88838562Y-77281495D01*
X88874252Y-77258059D01*
X88917496Y-77243766D01*
X88973786Y-77236638D01*
X89048617Y-77234702D01*
X89179141Y-77234702D01*
X89179141Y-77104178D01*
X89179216Y-77086468D01*
X89182090Y-77016032D01*
X89190573Y-76962971D01*
X89206643Y-76921790D01*
X89232274Y-76886997D01*
X89269442Y-76853096D01*
X89287568Y-76839238D01*
X89314490Y-76824575D01*
X89345772Y-76817962D01*
X89391313Y-76816420D01*
X89420833Y-76816901D01*
G37*
G36*
X87827303Y-76812768D02*
G01*
X87829067Y-76812804D01*
X87900543Y-76814570D01*
X87953065Y-76817017D01*
X87991817Y-76820882D01*
X88021985Y-76826904D01*
X88048752Y-76835822D01*
X88077302Y-76848373D01*
X88161990Y-76898937D01*
X88231322Y-76966089D01*
X88284871Y-77050830D01*
X88324391Y-77131080D01*
X88324391Y-77327234D01*
X88324391Y-77523388D01*
X88287715Y-77568723D01*
X88278416Y-77579482D01*
X88243423Y-77612692D01*
X88208909Y-77637298D01*
X88172806Y-77651581D01*
X88111243Y-77657596D01*
X88049286Y-77645220D01*
X87995166Y-77615300D01*
X87987363Y-77608866D01*
X87952928Y-77575444D01*
X87929529Y-77539827D01*
X87915223Y-77496557D01*
X87908064Y-77440176D01*
X87906110Y-77365225D01*
X87906110Y-77234702D01*
X87775586Y-77234702D01*
X87757876Y-77234626D01*
X87687440Y-77231753D01*
X87634379Y-77223269D01*
X87593198Y-77207200D01*
X87558405Y-77181569D01*
X87524504Y-77144400D01*
X87510646Y-77126275D01*
X87495983Y-77099352D01*
X87489370Y-77068071D01*
X87487828Y-77022530D01*
X87488309Y-76993009D01*
X87492528Y-76957191D01*
X87503600Y-76929707D01*
X87524504Y-76900659D01*
X87542953Y-76878783D01*
X87570628Y-76851671D01*
X87600262Y-76832723D01*
X87636301Y-76820650D01*
X87683190Y-76814160D01*
X87745375Y-76811963D01*
X87827303Y-76812768D01*
G37*
G36*
X84935704Y-73839952D02*
G01*
X85278399Y-73839952D01*
X85353379Y-73840000D01*
X85446376Y-73840514D01*
X85520047Y-73842069D01*
X85577332Y-73845238D01*
X85621173Y-73850594D01*
X85654511Y-73858712D01*
X85680287Y-73870163D01*
X85701441Y-73885521D01*
X85720917Y-73905361D01*
X85741653Y-73930254D01*
X85755511Y-73948380D01*
X85770174Y-73975302D01*
X85776787Y-74006584D01*
X85778329Y-74052124D01*
X85777848Y-74081645D01*
X85773630Y-74117464D01*
X85762558Y-74144947D01*
X85741653Y-74173995D01*
X85734257Y-74182949D01*
X85700626Y-74217503D01*
X85664936Y-74240938D01*
X85621692Y-74255232D01*
X85565402Y-74262359D01*
X85490571Y-74264296D01*
X85360048Y-74264296D01*
X85360048Y-74476468D01*
X85360048Y-74688640D01*
X85570658Y-74688640D01*
X85781267Y-74688640D01*
X85789019Y-74631050D01*
X85790341Y-74622269D01*
X85812336Y-74544424D01*
X85850318Y-74466733D01*
X85899406Y-74399440D01*
X85946295Y-74358050D01*
X86011367Y-74317475D01*
X86081926Y-74286158D01*
X86148234Y-74269198D01*
X86205977Y-74261538D01*
X86213637Y-74203795D01*
X86228634Y-74143094D01*
X86259090Y-74072332D01*
X86299288Y-74006299D01*
X86344116Y-73954752D01*
X86366952Y-73936175D01*
X86414300Y-73904125D01*
X86461886Y-73877963D01*
X86480605Y-73869415D01*
X86502252Y-73860944D01*
X86525228Y-73854685D01*
X86553351Y-73850225D01*
X86590443Y-73847153D01*
X86640322Y-73845056D01*
X86706809Y-73843521D01*
X86793723Y-73842136D01*
X87057422Y-73838257D01*
X87057422Y-73626933D01*
X87057422Y-73415609D01*
X86714727Y-73415609D01*
X86639748Y-73415561D01*
X86546750Y-73415047D01*
X86473080Y-73413492D01*
X86415794Y-73410323D01*
X86371953Y-73404967D01*
X86338616Y-73396850D01*
X86312840Y-73385398D01*
X86291685Y-73370040D01*
X86272210Y-73350201D01*
X86251473Y-73325307D01*
X86237615Y-73307182D01*
X86222952Y-73280259D01*
X86216339Y-73248977D01*
X86214797Y-73203437D01*
X86215278Y-73173916D01*
X86219497Y-73138097D01*
X86230569Y-73110614D01*
X86251473Y-73081566D01*
X86257281Y-73074503D01*
X86291203Y-73039194D01*
X86326998Y-73015220D01*
X86370204Y-73000576D01*
X86426357Y-72993259D01*
X86500993Y-72991265D01*
X86629955Y-72991265D01*
X86637798Y-72932143D01*
X86652518Y-72871735D01*
X86682938Y-72800295D01*
X86723270Y-72733728D01*
X86768460Y-72681721D01*
X86791295Y-72663144D01*
X86838644Y-72631094D01*
X86886230Y-72604932D01*
X86954367Y-72572983D01*
X87560573Y-72569672D01*
X87601705Y-72569443D01*
X87737625Y-72568688D01*
X87851976Y-72568256D01*
X87946858Y-72568400D01*
X88024377Y-72569373D01*
X88086635Y-72571428D01*
X88135736Y-72574819D01*
X88173783Y-72579798D01*
X88202879Y-72586620D01*
X88225128Y-72595537D01*
X88242632Y-72606802D01*
X88257496Y-72620670D01*
X88271823Y-72637392D01*
X88287715Y-72657223D01*
X88301573Y-72675349D01*
X88316236Y-72702271D01*
X88322849Y-72733553D01*
X88324391Y-72779093D01*
X88323910Y-72808614D01*
X88319692Y-72844433D01*
X88308620Y-72871916D01*
X88287715Y-72900964D01*
X88273471Y-72918308D01*
X88253908Y-72939735D01*
X88233625Y-72956495D01*
X88209682Y-72969159D01*
X88179138Y-72978303D01*
X88139052Y-72984498D01*
X88086482Y-72988319D01*
X88018488Y-72990338D01*
X87932128Y-72991129D01*
X87824461Y-72991265D01*
X87481766Y-72991265D01*
X87481766Y-73414047D01*
X87481766Y-73836828D01*
X87540888Y-73844671D01*
X87601296Y-73859391D01*
X87672736Y-73889812D01*
X87739303Y-73930144D01*
X87791310Y-73975333D01*
X87817986Y-74007181D01*
X87864940Y-74083896D01*
X87891612Y-74167789D01*
X87900048Y-74264296D01*
X87898551Y-74307315D01*
X87882594Y-74397782D01*
X87847529Y-74477951D01*
X87791310Y-74553259D01*
X87745363Y-74594031D01*
X87679824Y-74635082D01*
X87608437Y-74666730D01*
X87540888Y-74683921D01*
X87481766Y-74691764D01*
X87481766Y-74820725D01*
X87481719Y-74834563D01*
X87478984Y-74905764D01*
X87470595Y-74959396D01*
X87454548Y-75000996D01*
X87428839Y-75036100D01*
X87391465Y-75070245D01*
X87373339Y-75084103D01*
X87346417Y-75098766D01*
X87315135Y-75105379D01*
X87269594Y-75106921D01*
X87240073Y-75106440D01*
X87204255Y-75102222D01*
X87176771Y-75091150D01*
X87147724Y-75070245D01*
X87130379Y-75056001D01*
X87108952Y-75036438D01*
X87092193Y-75016155D01*
X87079528Y-74992212D01*
X87070385Y-74961668D01*
X87064189Y-74921582D01*
X87060369Y-74869012D01*
X87058350Y-74801018D01*
X87057559Y-74714658D01*
X87057422Y-74606991D01*
X87057422Y-74264296D01*
X86846812Y-74264296D01*
X86636203Y-74264296D01*
X86628360Y-74323418D01*
X86613487Y-74384262D01*
X86583095Y-74455514D01*
X86542897Y-74521858D01*
X86497935Y-74573625D01*
X86488184Y-74582110D01*
X86419814Y-74628990D01*
X86342914Y-74664526D01*
X86267704Y-74683829D01*
X86211493Y-74691398D01*
X86203924Y-74747608D01*
X86202064Y-74759469D01*
X86179746Y-74835662D01*
X86147474Y-74900812D01*
X86142002Y-74911858D01*
X86093721Y-74977839D01*
X86047457Y-75018799D01*
X85982047Y-75059644D01*
X85910843Y-75091146D01*
X85843513Y-75108265D01*
X85784391Y-75116107D01*
X85784391Y-75538361D01*
X85784391Y-75960615D01*
X86260262Y-75964174D01*
X86736134Y-75967733D01*
X86804271Y-75999682D01*
X86832577Y-76014449D01*
X86881671Y-76045283D01*
X86922041Y-76076471D01*
X86962814Y-76122418D01*
X87003864Y-76187956D01*
X87035512Y-76259344D01*
X87052703Y-76326893D01*
X87060546Y-76386014D01*
X87189508Y-76386014D01*
X87203346Y-76386061D01*
X87274547Y-76388796D01*
X87328179Y-76397186D01*
X87369779Y-76413233D01*
X87404883Y-76438942D01*
X87439028Y-76476316D01*
X87452886Y-76494442D01*
X87467549Y-76521364D01*
X87474162Y-76552646D01*
X87475704Y-76598186D01*
X87475223Y-76627707D01*
X87471004Y-76663526D01*
X87459932Y-76691009D01*
X87439028Y-76720057D01*
X87432488Y-76727993D01*
X87398701Y-76762953D01*
X87362955Y-76786679D01*
X87319733Y-76801161D01*
X87263518Y-76808391D01*
X87188793Y-76810358D01*
X87059118Y-76810358D01*
X87055239Y-77074057D01*
X87054182Y-77142130D01*
X87052711Y-77213229D01*
X87050774Y-77266791D01*
X87047964Y-77306628D01*
X87043872Y-77336554D01*
X87038090Y-77360382D01*
X87030210Y-77381923D01*
X87019824Y-77404992D01*
X86988802Y-77461611D01*
X86925087Y-77540122D01*
X86845768Y-77600072D01*
X86750852Y-77641456D01*
X86729426Y-77646315D01*
X86679541Y-77652416D01*
X86613420Y-77656515D01*
X86535897Y-77658234D01*
X86522902Y-77658280D01*
X86446525Y-77657170D01*
X86388909Y-77652519D01*
X86345324Y-77642839D01*
X86311042Y-77626642D01*
X86281335Y-77602439D01*
X86251473Y-77568744D01*
X86237615Y-77550618D01*
X86222952Y-77523696D01*
X86216339Y-77492414D01*
X86214797Y-77446874D01*
X86215278Y-77417353D01*
X86219497Y-77381534D01*
X86230569Y-77354051D01*
X86251473Y-77325003D01*
X86258869Y-77316049D01*
X86292500Y-77281495D01*
X86328190Y-77258059D01*
X86371434Y-77243766D01*
X86427724Y-77236638D01*
X86502555Y-77234702D01*
X86633079Y-77234702D01*
X86633079Y-77024092D01*
X86633079Y-76813482D01*
X86575489Y-76805730D01*
X86566708Y-76804408D01*
X86488863Y-76782414D01*
X86411172Y-76744432D01*
X86343879Y-76695344D01*
X86302920Y-76649080D01*
X86262075Y-76583670D01*
X86230573Y-76512466D01*
X86213454Y-76445136D01*
X86205611Y-76386014D01*
X85995001Y-76386014D01*
X85784391Y-76386014D01*
X85784391Y-76516538D01*
X85784316Y-76534249D01*
X85781442Y-76604684D01*
X85772959Y-76657745D01*
X85756889Y-76698926D01*
X85731258Y-76733720D01*
X85694090Y-76767620D01*
X85675964Y-76781478D01*
X85649042Y-76796141D01*
X85617760Y-76802754D01*
X85572219Y-76804296D01*
X85542699Y-76803815D01*
X85506880Y-76799596D01*
X85479397Y-76788524D01*
X85450349Y-76767620D01*
X85443286Y-76761812D01*
X85407977Y-76727890D01*
X85384002Y-76692095D01*
X85369358Y-76648889D01*
X85362041Y-76592736D01*
X85360048Y-76518100D01*
X85360048Y-76389138D01*
X85300926Y-76381296D01*
X85240082Y-76366423D01*
X85168830Y-76336031D01*
X85102485Y-76295833D01*
X85050718Y-76250870D01*
X85044463Y-76243754D01*
X84996440Y-76174689D01*
X84960102Y-76096443D01*
X84940332Y-76019260D01*
X84932580Y-75961671D01*
X84085455Y-75961671D01*
X83238329Y-75961671D01*
X83238329Y-76173460D01*
X83238329Y-76385249D01*
X83926647Y-76388663D01*
X84614964Y-76392076D01*
X84695223Y-76431597D01*
X84777810Y-76483410D01*
X84845425Y-76552249D01*
X84897693Y-76639166D01*
X84929642Y-76707303D01*
X84929642Y-77022530D01*
X84929642Y-77337757D01*
X84897693Y-77405894D01*
X84847178Y-77490509D01*
X84780013Y-77559884D01*
X84695262Y-77613463D01*
X84678004Y-77621888D01*
X84649317Y-77634760D01*
X84622809Y-77643641D01*
X84593195Y-77649400D01*
X84555190Y-77652906D01*
X84503509Y-77655029D01*
X84432868Y-77656639D01*
X84378049Y-77657431D01*
X84309182Y-77656476D01*
X84257230Y-77651708D01*
X84217751Y-77641838D01*
X84186306Y-77625579D01*
X84158454Y-77601644D01*
X84129755Y-77568744D01*
X84115897Y-77550618D01*
X84101234Y-77523696D01*
X84094621Y-77492414D01*
X84093079Y-77446874D01*
X84093560Y-77417353D01*
X84097778Y-77381534D01*
X84108850Y-77354051D01*
X84129755Y-77325003D01*
X84137151Y-77316049D01*
X84170782Y-77281495D01*
X84206472Y-77258059D01*
X84249716Y-77243766D01*
X84306006Y-77236638D01*
X84380837Y-77234702D01*
X84511360Y-77234702D01*
X84511360Y-77022530D01*
X84511360Y-76810358D01*
X84299188Y-76810358D01*
X84087017Y-76810358D01*
X84087017Y-76940881D01*
X84086941Y-76958592D01*
X84084068Y-77029028D01*
X84075584Y-77082089D01*
X84059515Y-77123270D01*
X84033884Y-77158063D01*
X83996715Y-77191964D01*
X83978589Y-77205822D01*
X83951667Y-77220484D01*
X83920385Y-77227097D01*
X83874845Y-77228640D01*
X83845324Y-77228159D01*
X83809505Y-77223940D01*
X83782022Y-77212868D01*
X83752974Y-77191964D01*
X83744020Y-77184567D01*
X83709466Y-77150937D01*
X83686031Y-77115246D01*
X83671737Y-77072003D01*
X83664610Y-77015712D01*
X83662673Y-76940881D01*
X83662673Y-76810358D01*
X83450501Y-76810358D01*
X83238329Y-76810358D01*
X83238329Y-77022530D01*
X83238329Y-77234702D01*
X83368853Y-77234702D01*
X83386563Y-77234777D01*
X83456999Y-77237651D01*
X83510060Y-77246134D01*
X83551241Y-77262204D01*
X83586034Y-77287835D01*
X83619935Y-77325003D01*
X83633793Y-77343129D01*
X83648456Y-77370051D01*
X83655069Y-77401333D01*
X83656611Y-77446874D01*
X83656130Y-77476394D01*
X83651911Y-77512213D01*
X83640839Y-77539697D01*
X83619935Y-77568744D01*
X83609806Y-77581216D01*
X83591263Y-77602709D01*
X83572842Y-77619868D01*
X83551836Y-77633152D01*
X83525538Y-77643024D01*
X83491239Y-77649944D01*
X83446232Y-77654373D01*
X83387809Y-77656772D01*
X83313262Y-77657602D01*
X83219883Y-77657323D01*
X83104964Y-77656396D01*
X82710931Y-77652983D01*
X82642793Y-77621034D01*
X82558187Y-77570525D01*
X82488806Y-77503359D01*
X82435225Y-77418607D01*
X82395704Y-77338392D01*
X82391825Y-77074375D01*
X82387946Y-76810358D01*
X82258271Y-76810358D01*
X82242654Y-76810299D01*
X82171805Y-76807500D01*
X82118436Y-76799067D01*
X82077030Y-76783009D01*
X82042069Y-76757336D01*
X82008036Y-76720057D01*
X81994178Y-76701931D01*
X81979516Y-76675009D01*
X81972903Y-76643727D01*
X81971360Y-76598186D01*
X81971841Y-76568666D01*
X81976060Y-76532847D01*
X81987132Y-76505363D01*
X82008036Y-76476316D01*
X82013845Y-76469252D01*
X82047766Y-76433944D01*
X82083562Y-76409969D01*
X82126768Y-76395325D01*
X82182920Y-76388008D01*
X82257557Y-76386014D01*
X82386518Y-76386014D01*
X82394361Y-76326893D01*
X82409233Y-76266048D01*
X82439626Y-76194797D01*
X82479823Y-76128452D01*
X82524786Y-76076685D01*
X82534537Y-76068200D01*
X82602907Y-76021321D01*
X82679806Y-75985784D01*
X82755017Y-75966482D01*
X82811228Y-75958913D01*
X82818887Y-75901170D01*
X82834036Y-75840042D01*
X82864463Y-75769464D01*
X82904527Y-75703651D01*
X82949130Y-75652341D01*
X82956246Y-75646086D01*
X83025311Y-75598063D01*
X83103557Y-75561725D01*
X83180740Y-75541955D01*
X83238329Y-75534203D01*
X83238329Y-75323593D01*
X83238329Y-75112983D01*
X82895634Y-75112983D01*
X82820655Y-75112936D01*
X82727657Y-75112422D01*
X82653987Y-75110867D01*
X82596701Y-75107698D01*
X82552860Y-75102341D01*
X82519522Y-75094224D01*
X82493747Y-75082773D01*
X82472592Y-75067414D01*
X82453117Y-75047575D01*
X82432380Y-75022682D01*
X82418522Y-75004556D01*
X82403859Y-74977634D01*
X82397246Y-74946352D01*
X82395704Y-74900812D01*
X82396185Y-74871291D01*
X82400404Y-74835472D01*
X82411476Y-74807989D01*
X82432380Y-74778941D01*
X82438188Y-74771878D01*
X82472110Y-74736569D01*
X82507905Y-74712594D01*
X82551111Y-74697950D01*
X82607264Y-74690633D01*
X82681900Y-74688640D01*
X82810862Y-74688640D01*
X82818614Y-74631050D01*
X82819935Y-74622269D01*
X82841930Y-74544424D01*
X82879912Y-74466733D01*
X82929000Y-74399440D01*
X82975263Y-74358481D01*
X83040673Y-74317636D01*
X83111878Y-74286134D01*
X83179207Y-74269015D01*
X83214780Y-74264296D01*
X83662673Y-74264296D01*
X83662673Y-74900812D01*
X83662673Y-75537327D01*
X84299188Y-75537327D01*
X84935704Y-75537327D01*
X84935704Y-74900812D01*
X84935704Y-74264296D01*
X84299188Y-74264296D01*
X83662673Y-74264296D01*
X83214780Y-74264296D01*
X83238329Y-74261172D01*
X83238329Y-73838390D01*
X83238329Y-73415609D01*
X83107806Y-73415609D01*
X83090095Y-73415533D01*
X83019660Y-73412660D01*
X82966598Y-73404176D01*
X82925418Y-73388107D01*
X82890624Y-73362476D01*
X82856724Y-73325307D01*
X82842866Y-73307182D01*
X82828203Y-73280259D01*
X82821590Y-73248977D01*
X82820048Y-73203437D01*
X82820529Y-73173916D01*
X82824747Y-73138097D01*
X82835819Y-73110614D01*
X82856724Y-73081566D01*
X82862532Y-73074503D01*
X82896454Y-73039194D01*
X82932249Y-73015220D01*
X82975455Y-73000576D01*
X83031608Y-72993259D01*
X83106244Y-72991265D01*
X83235205Y-72991265D01*
X83662673Y-72991265D01*
X83662673Y-73415609D01*
X83662673Y-73839952D01*
X84087017Y-73839952D01*
X84511360Y-73839952D01*
X84511360Y-73629342D01*
X84511360Y-73418733D01*
X84452238Y-73410890D01*
X84391394Y-73396017D01*
X84320142Y-73365625D01*
X84253798Y-73325427D01*
X84202031Y-73280465D01*
X84195776Y-73273348D01*
X84147752Y-73204283D01*
X84111414Y-73126037D01*
X84091645Y-73048855D01*
X84083893Y-72991265D01*
X83873283Y-72991265D01*
X83662673Y-72991265D01*
X83235205Y-72991265D01*
X83243048Y-72932143D01*
X83257768Y-72871735D01*
X83288189Y-72800295D01*
X83328521Y-72733728D01*
X83373710Y-72681721D01*
X83396546Y-72663144D01*
X83443894Y-72631094D01*
X83491480Y-72604932D01*
X83559618Y-72572983D01*
X84033997Y-72569430D01*
X84508375Y-72565876D01*
X84516149Y-72507277D01*
X84530972Y-72446758D01*
X84561407Y-72375576D01*
X84601688Y-72309211D01*
X84646741Y-72257378D01*
X84678589Y-72230702D01*
X84755304Y-72183748D01*
X84839197Y-72157076D01*
X84935704Y-72148640D01*
X84978723Y-72150136D01*
X85069190Y-72166094D01*
X85149359Y-72201159D01*
X85224667Y-72257378D01*
X85265876Y-72303955D01*
X85306653Y-72369156D01*
X85338114Y-72439897D01*
X85355146Y-72506420D01*
X85362806Y-72564163D01*
X85420549Y-72571823D01*
X85481250Y-72586820D01*
X85552012Y-72617276D01*
X85618045Y-72657475D01*
X85669591Y-72702302D01*
X85688168Y-72725137D01*
X85720217Y-72772486D01*
X85746377Y-72820073D01*
X85746687Y-72820734D01*
X85759153Y-72849193D01*
X85768001Y-72875978D01*
X85773969Y-72906274D01*
X85777797Y-72945266D01*
X85780221Y-72998137D01*
X85781981Y-73070072D01*
X85782770Y-73124273D01*
X85781833Y-73193233D01*
X85777079Y-73245254D01*
X85767218Y-73284783D01*
X85750960Y-73316265D01*
X85727014Y-73344146D01*
X85694090Y-73372871D01*
X85675964Y-73386729D01*
X85649042Y-73401391D01*
X85617760Y-73408004D01*
X85572219Y-73409547D01*
X85542699Y-73409066D01*
X85506880Y-73404847D01*
X85479397Y-73393775D01*
X85450349Y-73372871D01*
X85441395Y-73365474D01*
X85406841Y-73331844D01*
X85383405Y-73296153D01*
X85369112Y-73252910D01*
X85361984Y-73196619D01*
X85360048Y-73121788D01*
X85360048Y-72991265D01*
X85147876Y-72991265D01*
X84935704Y-72991265D01*
X84935704Y-73415609D01*
X84935704Y-73418733D01*
X84935704Y-73839952D01*
G37*
G36*
X85606810Y-77239466D02*
G01*
X85667162Y-77261597D01*
X85720750Y-77301108D01*
X85762644Y-77356247D01*
X85764751Y-77360191D01*
X85782629Y-77419279D01*
X85779628Y-77481464D01*
X85757496Y-77541816D01*
X85717985Y-77595404D01*
X85662847Y-77637298D01*
X85658903Y-77639405D01*
X85599814Y-77657283D01*
X85537629Y-77654282D01*
X85477277Y-77632150D01*
X85423689Y-77592640D01*
X85381795Y-77537501D01*
X85379688Y-77533557D01*
X85361810Y-77474468D01*
X85364811Y-77412283D01*
X85386943Y-77351931D01*
X85426454Y-77298343D01*
X85481592Y-77256449D01*
X85485536Y-77254342D01*
X85544625Y-77236464D01*
X85606810Y-77239466D01*
G37*
G36*
X86031154Y-76815122D02*
G01*
X86091506Y-76837253D01*
X86145094Y-76876764D01*
X86186988Y-76931903D01*
X86189094Y-76935847D01*
X86206973Y-76994935D01*
X86203971Y-77057121D01*
X86181840Y-77117472D01*
X86142329Y-77171060D01*
X86087190Y-77212954D01*
X86083246Y-77215061D01*
X86024158Y-77232940D01*
X85961972Y-77229938D01*
X85901621Y-77207806D01*
X85848033Y-77168296D01*
X85806139Y-77113157D01*
X85804032Y-77109213D01*
X85786153Y-77050125D01*
X85789155Y-76987939D01*
X85811287Y-76927587D01*
X85850797Y-76873999D01*
X85905936Y-76832106D01*
X85909880Y-76829999D01*
X85968969Y-76812120D01*
X86031154Y-76815122D01*
G37*
G36*
X81787717Y-76815122D02*
G01*
X81848069Y-76837253D01*
X81901657Y-76876764D01*
X81943551Y-76931903D01*
X81945658Y-76935847D01*
X81963536Y-76994935D01*
X81960534Y-77057121D01*
X81938403Y-77117472D01*
X81898892Y-77171060D01*
X81843753Y-77212954D01*
X81839809Y-77215061D01*
X81780721Y-77232940D01*
X81718536Y-77229938D01*
X81658184Y-77207806D01*
X81604596Y-77168296D01*
X81562702Y-77113157D01*
X81560595Y-77109213D01*
X81542717Y-77050125D01*
X81545718Y-76987939D01*
X81567850Y-76927587D01*
X81607360Y-76873999D01*
X81662499Y-76832106D01*
X81666443Y-76829999D01*
X81725532Y-76812120D01*
X81787717Y-76815122D01*
G37*
G36*
X89805452Y-72993824D02*
G01*
X89857474Y-72998578D01*
X89897003Y-73008439D01*
X89928485Y-73024697D01*
X89956365Y-73048643D01*
X89985090Y-73081566D01*
X89998948Y-73099692D01*
X90013611Y-73126614D01*
X90020224Y-73157896D01*
X90021766Y-73203437D01*
X90021285Y-73232958D01*
X90017066Y-73268776D01*
X90005994Y-73296260D01*
X89985090Y-73325307D01*
X89978550Y-73333244D01*
X89944764Y-73368204D01*
X89909017Y-73391930D01*
X89865795Y-73406412D01*
X89809580Y-73413641D01*
X89734855Y-73415609D01*
X89605180Y-73415609D01*
X89601301Y-73679308D01*
X89600203Y-73749935D01*
X89598734Y-73820360D01*
X89596787Y-73873383D01*
X89593952Y-73912822D01*
X89589815Y-73942499D01*
X89583965Y-73966231D01*
X89575988Y-73987840D01*
X89565473Y-74011145D01*
X89550706Y-74039450D01*
X89519873Y-74088545D01*
X89488684Y-74128915D01*
X89442737Y-74169688D01*
X89377199Y-74210738D01*
X89305811Y-74242386D01*
X89238263Y-74259577D01*
X89179141Y-74267420D01*
X89179141Y-74688640D01*
X89179141Y-75109859D01*
X89238263Y-75117702D01*
X89298671Y-75132423D01*
X89370111Y-75162843D01*
X89436678Y-75203175D01*
X89488684Y-75248364D01*
X89507262Y-75271200D01*
X89539312Y-75318548D01*
X89565473Y-75366135D01*
X89574022Y-75384853D01*
X89582493Y-75406500D01*
X89588752Y-75429476D01*
X89593212Y-75457600D01*
X89596284Y-75494691D01*
X89598381Y-75544571D01*
X89599916Y-75611058D01*
X89601301Y-75697971D01*
X89605180Y-75961671D01*
X89734855Y-75961671D01*
X89750472Y-75961730D01*
X89821321Y-75964529D01*
X89874690Y-75972962D01*
X89916097Y-75989020D01*
X89951058Y-76014693D01*
X89985090Y-76051972D01*
X89998948Y-76070098D01*
X90013611Y-76097020D01*
X90020224Y-76128302D01*
X90021766Y-76173843D01*
X90021285Y-76203363D01*
X90017066Y-76239182D01*
X90005994Y-76266665D01*
X89985090Y-76295713D01*
X89975704Y-76306547D01*
X89940814Y-76339432D01*
X89906472Y-76363521D01*
X89895153Y-76368918D01*
X89880832Y-76373643D01*
X89861791Y-76377413D01*
X89835590Y-76380334D01*
X89799787Y-76382514D01*
X89751942Y-76384058D01*
X89689613Y-76385074D01*
X89610359Y-76385668D01*
X89511739Y-76385945D01*
X89391313Y-76386014D01*
X89315077Y-76386016D01*
X89202375Y-76385868D01*
X89110080Y-76385215D01*
X89035766Y-76383687D01*
X88977007Y-76380916D01*
X88931379Y-76376532D01*
X88896456Y-76370167D01*
X88869813Y-76361452D01*
X88849025Y-76350017D01*
X88831666Y-76335495D01*
X88815311Y-76317517D01*
X88797535Y-76295713D01*
X88783677Y-76277587D01*
X88769014Y-76250665D01*
X88762401Y-76219383D01*
X88760859Y-76173843D01*
X88761340Y-76144322D01*
X88765559Y-76108503D01*
X88776631Y-76081020D01*
X88797535Y-76051972D01*
X88804931Y-76043018D01*
X88838562Y-76008464D01*
X88874252Y-75985028D01*
X88917496Y-75970735D01*
X88973786Y-75963607D01*
X89048617Y-75961671D01*
X89179141Y-75961671D01*
X89179141Y-75751061D01*
X89179141Y-75540451D01*
X89120019Y-75532608D01*
X89059610Y-75517888D01*
X88988171Y-75487467D01*
X88921604Y-75447135D01*
X88869597Y-75401946D01*
X88851019Y-75379110D01*
X88818970Y-75331762D01*
X88792808Y-75284176D01*
X88784260Y-75265457D01*
X88775788Y-75243810D01*
X88769529Y-75220835D01*
X88765070Y-75192711D01*
X88761998Y-75155619D01*
X88759900Y-75105740D01*
X88758365Y-75039253D01*
X88756980Y-74952339D01*
X88753102Y-74688640D01*
X88623426Y-74688640D01*
X88607809Y-74688580D01*
X88536961Y-74685781D01*
X88483591Y-74677349D01*
X88442185Y-74661291D01*
X88407224Y-74635618D01*
X88373191Y-74598338D01*
X88359333Y-74580213D01*
X88344671Y-74553290D01*
X88338058Y-74522008D01*
X88336515Y-74476468D01*
X88336996Y-74446947D01*
X88341215Y-74411129D01*
X88352287Y-74383645D01*
X88373191Y-74354597D01*
X88379731Y-74346661D01*
X88413518Y-74311701D01*
X88449264Y-74287975D01*
X88492486Y-74273493D01*
X88548701Y-74266263D01*
X88623426Y-74264296D01*
X88753102Y-74264296D01*
X88756980Y-74000597D01*
X88758078Y-73929970D01*
X88759548Y-73859545D01*
X88761494Y-73806522D01*
X88764329Y-73767082D01*
X88768466Y-73737406D01*
X88774316Y-73713673D01*
X88782293Y-73692065D01*
X88792808Y-73668760D01*
X88807576Y-73640454D01*
X88838409Y-73591360D01*
X88869597Y-73550990D01*
X88916175Y-73509781D01*
X88981376Y-73469003D01*
X89052116Y-73437542D01*
X89118640Y-73420510D01*
X89176383Y-73412851D01*
X89184043Y-73355108D01*
X89199039Y-73294407D01*
X89229496Y-73223644D01*
X89269694Y-73157612D01*
X89314522Y-73106065D01*
X89337357Y-73087488D01*
X89384705Y-73055439D01*
X89432292Y-73029280D01*
X89432953Y-73028970D01*
X89461412Y-73016504D01*
X89488197Y-73007656D01*
X89518494Y-73001687D01*
X89557485Y-72997860D01*
X89610356Y-72995435D01*
X89682291Y-72993675D01*
X89736492Y-72992886D01*
X89805452Y-72993824D01*
G37*
G36*
X87723459Y-75119526D02*
G01*
X87759277Y-75123745D01*
X87786761Y-75134817D01*
X87815808Y-75155722D01*
X87822872Y-75161530D01*
X87858180Y-75195451D01*
X87882155Y-75231247D01*
X87896799Y-75274453D01*
X87904116Y-75330606D01*
X87906110Y-75405242D01*
X87906110Y-75534203D01*
X87965232Y-75542046D01*
X88025640Y-75556766D01*
X88097080Y-75587187D01*
X88163646Y-75627519D01*
X88215653Y-75672708D01*
X88242329Y-75704556D01*
X88289283Y-75781271D01*
X88315955Y-75865163D01*
X88324391Y-75961671D01*
X88323606Y-76007444D01*
X88319289Y-76053226D01*
X88309624Y-76091572D01*
X88292855Y-76131961D01*
X88262432Y-76187691D01*
X88199148Y-76266111D01*
X88119843Y-76326413D01*
X88023883Y-76369151D01*
X87949206Y-76383416D01*
X87861696Y-76380418D01*
X87773093Y-76359734D01*
X87689532Y-76322840D01*
X87617147Y-76271214D01*
X87576374Y-76225267D01*
X87535324Y-76159729D01*
X87503676Y-76088341D01*
X87486485Y-76020793D01*
X87478642Y-75961671D01*
X87349681Y-75961671D01*
X87335842Y-75961624D01*
X87264641Y-75958889D01*
X87211009Y-75950500D01*
X87169409Y-75934452D01*
X87134305Y-75908743D01*
X87100160Y-75871369D01*
X87086302Y-75853244D01*
X87071640Y-75826321D01*
X87065027Y-75795040D01*
X87063484Y-75749499D01*
X87063965Y-75719978D01*
X87068184Y-75684160D01*
X87079256Y-75656676D01*
X87100160Y-75627628D01*
X87107557Y-75618674D01*
X87141187Y-75584121D01*
X87176878Y-75560685D01*
X87220121Y-75546391D01*
X87276412Y-75539264D01*
X87351243Y-75537327D01*
X87481766Y-75537327D01*
X87481766Y-75406804D01*
X87481842Y-75389093D01*
X87484715Y-75318657D01*
X87493199Y-75265596D01*
X87509268Y-75224416D01*
X87534899Y-75189622D01*
X87572067Y-75155722D01*
X87590193Y-75141864D01*
X87617115Y-75127201D01*
X87648397Y-75120588D01*
X87693938Y-75119045D01*
X87723459Y-75119526D01*
G37*
G36*
X81782647Y-75119526D02*
G01*
X81818466Y-75123745D01*
X81845949Y-75134817D01*
X81874997Y-75155722D01*
X81883951Y-75163118D01*
X81918505Y-75196748D01*
X81941941Y-75232439D01*
X81956234Y-75275682D01*
X81963362Y-75331973D01*
X81965298Y-75406804D01*
X81965298Y-75537327D01*
X82095822Y-75537327D01*
X82113532Y-75537403D01*
X82183968Y-75540276D01*
X82237029Y-75548760D01*
X82278210Y-75564829D01*
X82313003Y-75590460D01*
X82346904Y-75627628D01*
X82360762Y-75645754D01*
X82375425Y-75672676D01*
X82382038Y-75703958D01*
X82383580Y-75749499D01*
X82383099Y-75779020D01*
X82378880Y-75814838D01*
X82367808Y-75842322D01*
X82346904Y-75871369D01*
X82340535Y-75879102D01*
X82306717Y-75914144D01*
X82270959Y-75937928D01*
X82227741Y-75952447D01*
X82171541Y-75959697D01*
X82096837Y-75961671D01*
X81967329Y-75961671D01*
X81963283Y-76106078D01*
X81961783Y-76154900D01*
X81959378Y-76201734D01*
X81955413Y-76233835D01*
X81948728Y-76256605D01*
X81938164Y-76275445D01*
X81922560Y-76295756D01*
X81913294Y-76306464D01*
X81878288Y-76339659D01*
X81843753Y-76364267D01*
X81807651Y-76378550D01*
X81746088Y-76384565D01*
X81684131Y-76372189D01*
X81630011Y-76342269D01*
X81617388Y-76332054D01*
X81598057Y-76315556D01*
X81582295Y-76299033D01*
X81569737Y-76280062D01*
X81560019Y-76256221D01*
X81552778Y-76225087D01*
X81547649Y-76184239D01*
X81544268Y-76131253D01*
X81542273Y-76063709D01*
X81541298Y-75979183D01*
X81540980Y-75875254D01*
X81540955Y-75749499D01*
X81540953Y-75673263D01*
X81541101Y-75560562D01*
X81541754Y-75468267D01*
X81543282Y-75393952D01*
X81546053Y-75335194D01*
X81550437Y-75289566D01*
X81556802Y-75254643D01*
X81565517Y-75228000D01*
X81576952Y-75207211D01*
X81591473Y-75189852D01*
X81609452Y-75173498D01*
X81631256Y-75155722D01*
X81649382Y-75141864D01*
X81676304Y-75127201D01*
X81707586Y-75120588D01*
X81753126Y-75119045D01*
X81782647Y-75119526D01*
G37*
G36*
X89850247Y-74693403D02*
G01*
X89910599Y-74715535D01*
X89964187Y-74755046D01*
X90006081Y-74810185D01*
X90008188Y-74814128D01*
X90026066Y-74873217D01*
X90023064Y-74935402D01*
X90000933Y-74995754D01*
X89961422Y-75049342D01*
X89906283Y-75091236D01*
X89902339Y-75093343D01*
X89843251Y-75111221D01*
X89781066Y-75108220D01*
X89720714Y-75086088D01*
X89667126Y-75046577D01*
X89625232Y-74991439D01*
X89623125Y-74987495D01*
X89605246Y-74928406D01*
X89608248Y-74866221D01*
X89630380Y-74805869D01*
X89669890Y-74752281D01*
X89725029Y-74710387D01*
X89728973Y-74708280D01*
X89788062Y-74690402D01*
X89850247Y-74693403D01*
G37*
G36*
X90274591Y-74269060D02*
G01*
X90334942Y-74291191D01*
X90388530Y-74330702D01*
X90430424Y-74385841D01*
X90432531Y-74389785D01*
X90450410Y-74448873D01*
X90447408Y-74511059D01*
X90425276Y-74571410D01*
X90385766Y-74624998D01*
X90330627Y-74666892D01*
X90326683Y-74668999D01*
X90267595Y-74686878D01*
X90205409Y-74683876D01*
X90145057Y-74661744D01*
X90091469Y-74622234D01*
X90049576Y-74567095D01*
X90047469Y-74563151D01*
X90029590Y-74504062D01*
X90032592Y-74441877D01*
X90054723Y-74381525D01*
X90094234Y-74327937D01*
X90149373Y-74286044D01*
X90153317Y-74283937D01*
X90212405Y-74266058D01*
X90274591Y-74269060D01*
G37*
G36*
X93016680Y-72144300D02*
G01*
X93131599Y-72145227D01*
X93525632Y-72148640D01*
X93593770Y-72180589D01*
X93678520Y-72231201D01*
X93747817Y-72298343D01*
X93801338Y-72383075D01*
X93840859Y-72463349D01*
X93840859Y-73296013D01*
X93840859Y-74128676D01*
X93804183Y-74173993D01*
X93794893Y-74184737D01*
X93759897Y-74217942D01*
X93725376Y-74242549D01*
X93689273Y-74256831D01*
X93627711Y-74262847D01*
X93565754Y-74250471D01*
X93511634Y-74220551D01*
X93495578Y-74207371D01*
X93474186Y-74187907D01*
X93457442Y-74167748D01*
X93444778Y-74143949D01*
X93435623Y-74113567D01*
X93429409Y-74073658D01*
X93425566Y-74021278D01*
X93423526Y-73953482D01*
X93422720Y-73867326D01*
X93422577Y-73759866D01*
X93422577Y-73418733D01*
X93363456Y-73410890D01*
X93303047Y-73396170D01*
X93231608Y-73365749D01*
X93165041Y-73325417D01*
X93113034Y-73280228D01*
X93094456Y-73257392D01*
X93062406Y-73210044D01*
X93036245Y-73162458D01*
X93027696Y-73143739D01*
X93019225Y-73122092D01*
X93012966Y-73099116D01*
X93008507Y-73070992D01*
X93005434Y-73033901D01*
X93003337Y-72984021D01*
X93001802Y-72917534D01*
X93000417Y-72830621D01*
X92996538Y-72566921D01*
X92866863Y-72566921D01*
X92851246Y-72566862D01*
X92780397Y-72564063D01*
X92727028Y-72555630D01*
X92685622Y-72539573D01*
X92650661Y-72513899D01*
X92616628Y-72476620D01*
X92602770Y-72458494D01*
X92588108Y-72431572D01*
X92581494Y-72400290D01*
X92579952Y-72354749D01*
X92580433Y-72325229D01*
X92584652Y-72289410D01*
X92595724Y-72261927D01*
X92616628Y-72232879D01*
X92626757Y-72220407D01*
X92645301Y-72198914D01*
X92663721Y-72181755D01*
X92684727Y-72168471D01*
X92711025Y-72158599D01*
X92745324Y-72151679D01*
X92790331Y-72147250D01*
X92848754Y-72144851D01*
X92923301Y-72144022D01*
X93016680Y-72144300D01*
G37*
G36*
X92391239Y-73422152D02*
G01*
X92427058Y-73426370D01*
X92454541Y-73437442D01*
X92483589Y-73458347D01*
X92492543Y-73465743D01*
X92527097Y-73499374D01*
X92550532Y-73535064D01*
X92564826Y-73578308D01*
X92571953Y-73634598D01*
X92573890Y-73709429D01*
X92573890Y-73839952D01*
X92704413Y-73839952D01*
X92722124Y-73840028D01*
X92792560Y-73842901D01*
X92845621Y-73851385D01*
X92886802Y-73867454D01*
X92921595Y-73893085D01*
X92955496Y-73930254D01*
X92969354Y-73948380D01*
X92984016Y-73975302D01*
X92990629Y-74006584D01*
X92992172Y-74052124D01*
X92991691Y-74081645D01*
X92987472Y-74117464D01*
X92976400Y-74144947D01*
X92955496Y-74173995D01*
X92946193Y-74184750D01*
X92911201Y-74217904D01*
X92876689Y-74242427D01*
X92862120Y-74249619D01*
X92841405Y-74256428D01*
X92814611Y-74260666D01*
X92777200Y-74262727D01*
X92724637Y-74263003D01*
X92652383Y-74261889D01*
X92613489Y-74261075D01*
X92553223Y-74259311D01*
X92509211Y-74256587D01*
X92476166Y-74252036D01*
X92448803Y-74244786D01*
X92421839Y-74233968D01*
X92389988Y-74218713D01*
X92307505Y-74166955D01*
X92239848Y-74098085D01*
X92187561Y-74011145D01*
X92187251Y-74010483D01*
X92174785Y-73982025D01*
X92165937Y-73955239D01*
X92159968Y-73924943D01*
X92156141Y-73885952D01*
X92153717Y-73833081D01*
X92151957Y-73761146D01*
X92151167Y-73706945D01*
X92152105Y-73637985D01*
X92156859Y-73585963D01*
X92166720Y-73546434D01*
X92182978Y-73514952D01*
X92206924Y-73487072D01*
X92239848Y-73458347D01*
X92257974Y-73444489D01*
X92284896Y-73429826D01*
X92316178Y-73423213D01*
X92361718Y-73421671D01*
X92391239Y-73422152D01*
G37*
G36*
X91542552Y-73422152D02*
G01*
X91578370Y-73426370D01*
X91605854Y-73437442D01*
X91634901Y-73458347D01*
X91656778Y-73476796D01*
X91683890Y-73504471D01*
X91702837Y-73534104D01*
X91714911Y-73570143D01*
X91721401Y-73617032D01*
X91723598Y-73679218D01*
X91722793Y-73761146D01*
X91721040Y-73832662D01*
X91718607Y-73885743D01*
X91714777Y-73924872D01*
X91708820Y-73955219D01*
X91700004Y-73981953D01*
X91687601Y-74010243D01*
X91656580Y-74066864D01*
X91592867Y-74145373D01*
X91513549Y-74205322D01*
X91418632Y-74246707D01*
X91397207Y-74251566D01*
X91347321Y-74257667D01*
X91281200Y-74261766D01*
X91203677Y-74263485D01*
X91190682Y-74263530D01*
X91114306Y-74262421D01*
X91056689Y-74257770D01*
X91013104Y-74248090D01*
X90978822Y-74231892D01*
X90949115Y-74207690D01*
X90919254Y-74173995D01*
X90905396Y-74155869D01*
X90890733Y-74128947D01*
X90884120Y-74097665D01*
X90882577Y-74052124D01*
X90883058Y-74022604D01*
X90887277Y-73986785D01*
X90898349Y-73959301D01*
X90919254Y-73930254D01*
X90926650Y-73921300D01*
X90960280Y-73886746D01*
X90995971Y-73863310D01*
X91039214Y-73849016D01*
X91095505Y-73841889D01*
X91170336Y-73839952D01*
X91300859Y-73839952D01*
X91300859Y-73709429D01*
X91300935Y-73691718D01*
X91303808Y-73621283D01*
X91312292Y-73568222D01*
X91328361Y-73527041D01*
X91353992Y-73492247D01*
X91391160Y-73458347D01*
X91409286Y-73444489D01*
X91436208Y-73429826D01*
X91467490Y-73423213D01*
X91513031Y-73421671D01*
X91542552Y-73422152D01*
G37*
G36*
X82366407Y-73840098D02*
G01*
X82458702Y-73840752D01*
X82533017Y-73842279D01*
X82591775Y-73845051D01*
X82637403Y-73849435D01*
X82672326Y-73855800D01*
X82698969Y-73864515D01*
X82719758Y-73875949D01*
X82737117Y-73890471D01*
X82753471Y-73908450D01*
X82771247Y-73930254D01*
X82785105Y-73948380D01*
X82799768Y-73975302D01*
X82806381Y-74006584D01*
X82807924Y-74052124D01*
X82807443Y-74081645D01*
X82803224Y-74117464D01*
X82792152Y-74144947D01*
X82771247Y-74173995D01*
X82761862Y-74184829D01*
X82726971Y-74217714D01*
X82692630Y-74241803D01*
X82681311Y-74247199D01*
X82666989Y-74251924D01*
X82647949Y-74255694D01*
X82621748Y-74258616D01*
X82585945Y-74260796D01*
X82538099Y-74262340D01*
X82475770Y-74263356D01*
X82396516Y-74263949D01*
X82297897Y-74264227D01*
X82177470Y-74264296D01*
X82101234Y-74264297D01*
X81988533Y-74264150D01*
X81896238Y-74263497D01*
X81821924Y-74261969D01*
X81763165Y-74259198D01*
X81717537Y-74254814D01*
X81682614Y-74248448D01*
X81655971Y-74239733D01*
X81635183Y-74228299D01*
X81617824Y-74213777D01*
X81601469Y-74195799D01*
X81583693Y-74173995D01*
X81569835Y-74155869D01*
X81555172Y-74128947D01*
X81548559Y-74097665D01*
X81547017Y-74052124D01*
X81547497Y-74022604D01*
X81551716Y-73986785D01*
X81562788Y-73959301D01*
X81583693Y-73930254D01*
X81594387Y-73917032D01*
X81611039Y-73897508D01*
X81627685Y-73881593D01*
X81646753Y-73868919D01*
X81670666Y-73859118D01*
X81701851Y-73851820D01*
X81742732Y-73846657D01*
X81795735Y-73843260D01*
X81863285Y-73841260D01*
X81947808Y-73840287D01*
X82051727Y-73839975D01*
X82177470Y-73839952D01*
X82253706Y-73839951D01*
X82366407Y-73840098D01*
G37*
G36*
X88152872Y-73420372D02*
G01*
X88213224Y-73442504D01*
X88266812Y-73482015D01*
X88308706Y-73537153D01*
X88310813Y-73541097D01*
X88328691Y-73600186D01*
X88325690Y-73662371D01*
X88303558Y-73722723D01*
X88264047Y-73776311D01*
X88208909Y-73818205D01*
X88204965Y-73820312D01*
X88145876Y-73838190D01*
X88083691Y-73835189D01*
X88023339Y-73813057D01*
X87969751Y-73773546D01*
X87927857Y-73718408D01*
X87925750Y-73714464D01*
X87907872Y-73655375D01*
X87910873Y-73593190D01*
X87933005Y-73532838D01*
X87972516Y-73479250D01*
X88027655Y-73437356D01*
X88031598Y-73435249D01*
X88090687Y-73417371D01*
X88152872Y-73420372D01*
G37*
G36*
X86031154Y-73420372D02*
G01*
X86091506Y-73442504D01*
X86145094Y-73482015D01*
X86186988Y-73537153D01*
X86189094Y-73541097D01*
X86206973Y-73600186D01*
X86203971Y-73662371D01*
X86181840Y-73722723D01*
X86142329Y-73776311D01*
X86087190Y-73818205D01*
X86083246Y-73820312D01*
X86024158Y-73838190D01*
X85961972Y-73835189D01*
X85901621Y-73813057D01*
X85848033Y-73773546D01*
X85806139Y-73718408D01*
X85804032Y-73714464D01*
X85786153Y-73655375D01*
X85789155Y-73593190D01*
X85811287Y-73532838D01*
X85850797Y-73479250D01*
X85905936Y-73437356D01*
X85909880Y-73435249D01*
X85968969Y-73417371D01*
X86031154Y-73420372D01*
G37*
G36*
X90902653Y-72991279D02*
G01*
X90992291Y-72991836D01*
X91062047Y-72993809D01*
X91115402Y-72998024D01*
X91155842Y-73005304D01*
X91186850Y-73016474D01*
X91211910Y-73032358D01*
X91234506Y-73053780D01*
X91258121Y-73081566D01*
X91271979Y-73099692D01*
X91286642Y-73126614D01*
X91293255Y-73157896D01*
X91294797Y-73203437D01*
X91294316Y-73232958D01*
X91290097Y-73268776D01*
X91279025Y-73296260D01*
X91258121Y-73325307D01*
X91248735Y-73336142D01*
X91213845Y-73369026D01*
X91179503Y-73393115D01*
X91163594Y-73400465D01*
X91144092Y-73406181D01*
X91117947Y-73410272D01*
X91081636Y-73412999D01*
X91031641Y-73414623D01*
X90964441Y-73415406D01*
X90876515Y-73415609D01*
X90850378Y-73415594D01*
X90760739Y-73415038D01*
X90690984Y-73413064D01*
X90637629Y-73408850D01*
X90597189Y-73401570D01*
X90566181Y-73390400D01*
X90541121Y-73374516D01*
X90518525Y-73353093D01*
X90494910Y-73325307D01*
X90481052Y-73307182D01*
X90466389Y-73280259D01*
X90459776Y-73248977D01*
X90458234Y-73203437D01*
X90458715Y-73173916D01*
X90462933Y-73138097D01*
X90474005Y-73110614D01*
X90494910Y-73081566D01*
X90501148Y-73073920D01*
X90524178Y-73047815D01*
X90547067Y-73027865D01*
X90573297Y-73013247D01*
X90606353Y-73003135D01*
X90649720Y-72996705D01*
X90706880Y-72993133D01*
X90781317Y-72991595D01*
X90876515Y-72991265D01*
X90902653Y-72991279D01*
G37*
G36*
X88577216Y-72996029D02*
G01*
X88637568Y-73018160D01*
X88691156Y-73057671D01*
X88733050Y-73112810D01*
X88735156Y-73116754D01*
X88753035Y-73175842D01*
X88750033Y-73238028D01*
X88727902Y-73298379D01*
X88688391Y-73351967D01*
X88633252Y-73393861D01*
X88629308Y-73395968D01*
X88570220Y-73413847D01*
X88508035Y-73410845D01*
X88447683Y-73388713D01*
X88394095Y-73349203D01*
X88352201Y-73294064D01*
X88350094Y-73290120D01*
X88332215Y-73231031D01*
X88335217Y-73168846D01*
X88357349Y-73108494D01*
X88396859Y-73054906D01*
X88451998Y-73013012D01*
X88455942Y-73010906D01*
X88515031Y-72993027D01*
X88577216Y-72996029D01*
G37*
G36*
X83016164Y-71296459D02*
G01*
X83068116Y-71301228D01*
X83107595Y-71311098D01*
X83139040Y-71327356D01*
X83166892Y-71351292D01*
X83195591Y-71384192D01*
X83209449Y-71402317D01*
X83224112Y-71429240D01*
X83230725Y-71460522D01*
X83232267Y-71506062D01*
X83231786Y-71535583D01*
X83227568Y-71571401D01*
X83216496Y-71598885D01*
X83195591Y-71627933D01*
X83188195Y-71636887D01*
X83154564Y-71671440D01*
X83118874Y-71694876D01*
X83075630Y-71709170D01*
X83019340Y-71716297D01*
X82944509Y-71718234D01*
X82813986Y-71718234D01*
X82813986Y-71930406D01*
X82813986Y-72142578D01*
X82944509Y-72142578D01*
X82962220Y-72142653D01*
X83032655Y-72145527D01*
X83085716Y-72154010D01*
X83126897Y-72170080D01*
X83161691Y-72195711D01*
X83195591Y-72232879D01*
X83209449Y-72251005D01*
X83224112Y-72277927D01*
X83230725Y-72309209D01*
X83232267Y-72354749D01*
X83231786Y-72384270D01*
X83227568Y-72420089D01*
X83216496Y-72447572D01*
X83195591Y-72476620D01*
X83189783Y-72483683D01*
X83155861Y-72518992D01*
X83120066Y-72542967D01*
X83076860Y-72557611D01*
X83020707Y-72564928D01*
X82946071Y-72566921D01*
X82817110Y-72566921D01*
X82809267Y-72626043D01*
X82794546Y-72686452D01*
X82764126Y-72757891D01*
X82723794Y-72824458D01*
X82678605Y-72876465D01*
X82655769Y-72895043D01*
X82608421Y-72927093D01*
X82560834Y-72953254D01*
X82542494Y-72961637D01*
X82520793Y-72970164D01*
X82497830Y-72976464D01*
X82469772Y-72980951D01*
X82432791Y-72984041D01*
X82383054Y-72986148D01*
X82316732Y-72987687D01*
X82229994Y-72989072D01*
X81967291Y-72992940D01*
X81963263Y-73136510D01*
X81961810Y-73183924D01*
X81959414Y-73230975D01*
X81955462Y-73263216D01*
X81948781Y-73286074D01*
X81938204Y-73304976D01*
X81922560Y-73325350D01*
X81913294Y-73336059D01*
X81878288Y-73369253D01*
X81843753Y-73393861D01*
X81807651Y-73408144D01*
X81746088Y-73414160D01*
X81684131Y-73401784D01*
X81630011Y-73371863D01*
X81608887Y-73354044D01*
X81582016Y-73326571D01*
X81563217Y-73297034D01*
X81551221Y-73261009D01*
X81544759Y-73214070D01*
X81542562Y-73151795D01*
X81543361Y-73069757D01*
X81544176Y-73030864D01*
X81545940Y-72970598D01*
X81548663Y-72926585D01*
X81553215Y-72893540D01*
X81560465Y-72866178D01*
X81571282Y-72839214D01*
X81586537Y-72807363D01*
X81638295Y-72724881D01*
X81707164Y-72657223D01*
X81794106Y-72604932D01*
X81812625Y-72596471D01*
X81834301Y-72587970D01*
X81857270Y-72581690D01*
X81885358Y-72577216D01*
X81922392Y-72574134D01*
X81972196Y-72572032D01*
X82038596Y-72570495D01*
X82125418Y-72569110D01*
X82388592Y-72565237D01*
X82392148Y-72090208D01*
X82395704Y-71615179D01*
X82427653Y-71547041D01*
X82478168Y-71462427D01*
X82545333Y-71393051D01*
X82630083Y-71339473D01*
X82647342Y-71331048D01*
X82676029Y-71318175D01*
X82702537Y-71309295D01*
X82732151Y-71303536D01*
X82770156Y-71300030D01*
X82821837Y-71297907D01*
X82892478Y-71296297D01*
X82947296Y-71295505D01*
X83016164Y-71296459D01*
G37*
G36*
X91927171Y-71720793D02*
G01*
X91979192Y-71725547D01*
X92018721Y-71735408D01*
X92050203Y-71751666D01*
X92078083Y-71775611D01*
X92106808Y-71808535D01*
X92120666Y-71826661D01*
X92135329Y-71853583D01*
X92141942Y-71884865D01*
X92143484Y-71930406D01*
X92143004Y-71959927D01*
X92138785Y-71995745D01*
X92127713Y-72023229D01*
X92106808Y-72052276D01*
X92099412Y-72061230D01*
X92065781Y-72095784D01*
X92030091Y-72119220D01*
X91986848Y-72133514D01*
X91930557Y-72140641D01*
X91855726Y-72142578D01*
X91725203Y-72142578D01*
X91725203Y-72354749D01*
X91725203Y-72566921D01*
X92067898Y-72566921D01*
X92142877Y-72566969D01*
X92235875Y-72567483D01*
X92309546Y-72569038D01*
X92366831Y-72572207D01*
X92410672Y-72577563D01*
X92444010Y-72585681D01*
X92469785Y-72597132D01*
X92490940Y-72612490D01*
X92510415Y-72632330D01*
X92531152Y-72657223D01*
X92545010Y-72675349D01*
X92559673Y-72702271D01*
X92566286Y-72733553D01*
X92567828Y-72779093D01*
X92567347Y-72808614D01*
X92563129Y-72844433D01*
X92552056Y-72871916D01*
X92531152Y-72900964D01*
X92521821Y-72911743D01*
X92486841Y-72944796D01*
X92452345Y-72969153D01*
X92450665Y-72970056D01*
X92437537Y-72976178D01*
X92421988Y-72981001D01*
X92401289Y-72984647D01*
X92372712Y-72987237D01*
X92333530Y-72988893D01*
X92281013Y-72989738D01*
X92212435Y-72989892D01*
X92125067Y-72989477D01*
X92016181Y-72988616D01*
X91622148Y-72985203D01*
X91554010Y-72953254D01*
X91525705Y-72938486D01*
X91476610Y-72907653D01*
X91436240Y-72876465D01*
X91395205Y-72830139D01*
X91354319Y-72764803D01*
X91322784Y-72693806D01*
X91305688Y-72626876D01*
X91297956Y-72568587D01*
X91035391Y-72564723D01*
X90772825Y-72560859D01*
X90692610Y-72521339D01*
X90610136Y-72469585D01*
X90542475Y-72400713D01*
X90490186Y-72313770D01*
X90489876Y-72313109D01*
X90477410Y-72284650D01*
X90468562Y-72257865D01*
X90462594Y-72227568D01*
X90458766Y-72188577D01*
X90456342Y-72135706D01*
X90454582Y-72063771D01*
X90453793Y-72009570D01*
X90454730Y-71940610D01*
X90459484Y-71888588D01*
X90469345Y-71849059D01*
X90485603Y-71817577D01*
X90509549Y-71789697D01*
X90542473Y-71760972D01*
X90560599Y-71747114D01*
X90587521Y-71732451D01*
X90618803Y-71725838D01*
X90664344Y-71724296D01*
X90693864Y-71724777D01*
X90729683Y-71728996D01*
X90757166Y-71740068D01*
X90786214Y-71760972D01*
X90795168Y-71768368D01*
X90829722Y-71801999D01*
X90853158Y-71837689D01*
X90867451Y-71880933D01*
X90874579Y-71937223D01*
X90876515Y-72012054D01*
X90876515Y-72142578D01*
X91087125Y-72142578D01*
X91297735Y-72142578D01*
X91305578Y-72083456D01*
X91320298Y-72023047D01*
X91350719Y-71951608D01*
X91391051Y-71885041D01*
X91436240Y-71833034D01*
X91459075Y-71814457D01*
X91506424Y-71782408D01*
X91554010Y-71756249D01*
X91554672Y-71755939D01*
X91583130Y-71743473D01*
X91609916Y-71734625D01*
X91640212Y-71728656D01*
X91679204Y-71724829D01*
X91732075Y-71722404D01*
X91804009Y-71720644D01*
X91858211Y-71719855D01*
X91927171Y-71720793D01*
G37*
G36*
X90274591Y-72571685D02*
G01*
X90334942Y-72593817D01*
X90388530Y-72633327D01*
X90430424Y-72688466D01*
X90432531Y-72692410D01*
X90450410Y-72751499D01*
X90447408Y-72813684D01*
X90425276Y-72874036D01*
X90385766Y-72927624D01*
X90330627Y-72969518D01*
X90326683Y-72971624D01*
X90267595Y-72989503D01*
X90205409Y-72986501D01*
X90145057Y-72964370D01*
X90091469Y-72924859D01*
X90049576Y-72869720D01*
X90047469Y-72865776D01*
X90029590Y-72806688D01*
X90032592Y-72744502D01*
X90054723Y-72684151D01*
X90094234Y-72630563D01*
X90149373Y-72588669D01*
X90153317Y-72586562D01*
X90212405Y-72568683D01*
X90274591Y-72571685D01*
G37*
G36*
X88675990Y-72144988D02*
G01*
X88677755Y-72145023D01*
X88749230Y-72146790D01*
X88801752Y-72149236D01*
X88840504Y-72153102D01*
X88870672Y-72159124D01*
X88897439Y-72168041D01*
X88925990Y-72180592D01*
X89010677Y-72231157D01*
X89080010Y-72298308D01*
X89133558Y-72383050D01*
X89173079Y-72463299D01*
X89173079Y-72659453D01*
X89173079Y-72855607D01*
X89136403Y-72900943D01*
X89127103Y-72911702D01*
X89092110Y-72944912D01*
X89057596Y-72969518D01*
X89021493Y-72983800D01*
X88959930Y-72989816D01*
X88897973Y-72977440D01*
X88843854Y-72947520D01*
X88836050Y-72941086D01*
X88801616Y-72907664D01*
X88778217Y-72872047D01*
X88763910Y-72828777D01*
X88756751Y-72772396D01*
X88754797Y-72697445D01*
X88754797Y-72566921D01*
X88624274Y-72566921D01*
X88606563Y-72566846D01*
X88536127Y-72563972D01*
X88483066Y-72555489D01*
X88441886Y-72539419D01*
X88407092Y-72513788D01*
X88373191Y-72476620D01*
X88359333Y-72458494D01*
X88344671Y-72431572D01*
X88338058Y-72400290D01*
X88336515Y-72354749D01*
X88336996Y-72325229D01*
X88341215Y-72289410D01*
X88352287Y-72261927D01*
X88373191Y-72232879D01*
X88391641Y-72211002D01*
X88419315Y-72183890D01*
X88448949Y-72164943D01*
X88484988Y-72152869D01*
X88531877Y-72146379D01*
X88594063Y-72144182D01*
X88675990Y-72144988D01*
G37*
G36*
X89850247Y-72147341D02*
G01*
X89910599Y-72169473D01*
X89964187Y-72208984D01*
X90006081Y-72264122D01*
X90008188Y-72268066D01*
X90026066Y-72327155D01*
X90023064Y-72389340D01*
X90000933Y-72449692D01*
X89961422Y-72503280D01*
X89906283Y-72545174D01*
X89902339Y-72547281D01*
X89843251Y-72565159D01*
X89781066Y-72562158D01*
X89720714Y-72540026D01*
X89667126Y-72500515D01*
X89625232Y-72445377D01*
X89623125Y-72441433D01*
X89605246Y-72382344D01*
X89608248Y-72320159D01*
X89630380Y-72259807D01*
X89669890Y-72206219D01*
X89725029Y-72164325D01*
X89728973Y-72162218D01*
X89788062Y-72144340D01*
X89850247Y-72147341D01*
G37*
G36*
X86455498Y-72147341D02*
G01*
X86515849Y-72169473D01*
X86569437Y-72208984D01*
X86611331Y-72264122D01*
X86613438Y-72268066D01*
X86631317Y-72327155D01*
X86628315Y-72389340D01*
X86606183Y-72449692D01*
X86566673Y-72503280D01*
X86511534Y-72545174D01*
X86507590Y-72547281D01*
X86448501Y-72565159D01*
X86386316Y-72562158D01*
X86325964Y-72540026D01*
X86272376Y-72500515D01*
X86230482Y-72445377D01*
X86228376Y-72441433D01*
X86210497Y-72382344D01*
X86213499Y-72320159D01*
X86235630Y-72259807D01*
X86275141Y-72206219D01*
X86330280Y-72164325D01*
X86334224Y-72162218D01*
X86393312Y-72144340D01*
X86455498Y-72147341D01*
G37*
G36*
X86450428Y-68754371D02*
G01*
X86486246Y-68758590D01*
X86513730Y-68769662D01*
X86542777Y-68790566D01*
X86549841Y-68796375D01*
X86585149Y-68830296D01*
X86609124Y-68866092D01*
X86623768Y-68909298D01*
X86631085Y-68965450D01*
X86633079Y-69040087D01*
X86633079Y-69169048D01*
X86692201Y-69176891D01*
X86753045Y-69191763D01*
X86824297Y-69222156D01*
X86890641Y-69262353D01*
X86942408Y-69307316D01*
X86948663Y-69314433D01*
X86996687Y-69383498D01*
X87033025Y-69461744D01*
X87052794Y-69538926D01*
X87060546Y-69596516D01*
X87483328Y-69596516D01*
X87906110Y-69596516D01*
X87906110Y-69465992D01*
X87906185Y-69448281D01*
X87909059Y-69377846D01*
X87917542Y-69324785D01*
X87933612Y-69283604D01*
X87959243Y-69248810D01*
X87996411Y-69214910D01*
X88014537Y-69201052D01*
X88041459Y-69186389D01*
X88072741Y-69179776D01*
X88118282Y-69178234D01*
X88147802Y-69178715D01*
X88183621Y-69182934D01*
X88211104Y-69194006D01*
X88240152Y-69214910D01*
X88249106Y-69222306D01*
X88283660Y-69255937D01*
X88307096Y-69291627D01*
X88321389Y-69334871D01*
X88328517Y-69391161D01*
X88330453Y-69465992D01*
X88330453Y-69596516D01*
X88460977Y-69596516D01*
X88478688Y-69596591D01*
X88549123Y-69599465D01*
X88602184Y-69607948D01*
X88643365Y-69624018D01*
X88678159Y-69649649D01*
X88712059Y-69686817D01*
X88725917Y-69704943D01*
X88740580Y-69731865D01*
X88747193Y-69763147D01*
X88748735Y-69808687D01*
X88748254Y-69838208D01*
X88744035Y-69874027D01*
X88732963Y-69901510D01*
X88712059Y-69930558D01*
X88704663Y-69939512D01*
X88671032Y-69974066D01*
X88635342Y-69997502D01*
X88592098Y-70011795D01*
X88535808Y-70018923D01*
X88460977Y-70020859D01*
X88330453Y-70020859D01*
X88330453Y-70363554D01*
X88330406Y-70438534D01*
X88329892Y-70531531D01*
X88328337Y-70605202D01*
X88325168Y-70662487D01*
X88319811Y-70706328D01*
X88311694Y-70739666D01*
X88300243Y-70765442D01*
X88284884Y-70786597D01*
X88265045Y-70806072D01*
X88240152Y-70826809D01*
X88222026Y-70840667D01*
X88195104Y-70855329D01*
X88163822Y-70861942D01*
X88118282Y-70863485D01*
X88088761Y-70863004D01*
X88052942Y-70858785D01*
X88025459Y-70847713D01*
X87996411Y-70826809D01*
X87979067Y-70812565D01*
X87957639Y-70793001D01*
X87940880Y-70772718D01*
X87928215Y-70748775D01*
X87919072Y-70718232D01*
X87912877Y-70678145D01*
X87909056Y-70625576D01*
X87907037Y-70557581D01*
X87906246Y-70471221D01*
X87906110Y-70363554D01*
X87906110Y-70020859D01*
X87694146Y-70020859D01*
X87482181Y-70020859D01*
X87478943Y-71013915D01*
X87475704Y-72006970D01*
X87439028Y-72052280D01*
X87429742Y-72063020D01*
X87394743Y-72096224D01*
X87360221Y-72120830D01*
X87324118Y-72135113D01*
X87262556Y-72141129D01*
X87200599Y-72128753D01*
X87146479Y-72098832D01*
X87139695Y-72093253D01*
X87104854Y-72059678D01*
X87081165Y-72024007D01*
X87066669Y-71980758D01*
X87059408Y-71924451D01*
X87057422Y-71849605D01*
X87057422Y-71719929D01*
X86793723Y-71716051D01*
X86723096Y-71714953D01*
X86652671Y-71713483D01*
X86599648Y-71711537D01*
X86560209Y-71708702D01*
X86530532Y-71704565D01*
X86506800Y-71698715D01*
X86485191Y-71690738D01*
X86461886Y-71680223D01*
X86433581Y-71665455D01*
X86384486Y-71634622D01*
X86344116Y-71603434D01*
X86303343Y-71557487D01*
X86262293Y-71491948D01*
X86230645Y-71420561D01*
X86213454Y-71353012D01*
X86205611Y-71293890D01*
X84803619Y-71293890D01*
X84629558Y-71293883D01*
X84433776Y-71293840D01*
X84259826Y-71293743D01*
X84106370Y-71293568D01*
X83972067Y-71293296D01*
X83855579Y-71292906D01*
X83755565Y-71292376D01*
X83670687Y-71291687D01*
X83599605Y-71290816D01*
X83540979Y-71289744D01*
X83493471Y-71288449D01*
X83455740Y-71286910D01*
X83426448Y-71285107D01*
X83404255Y-71283019D01*
X83387822Y-71280625D01*
X83375808Y-71277904D01*
X83366876Y-71274835D01*
X83359685Y-71271397D01*
X83349245Y-71265132D01*
X83313280Y-71236904D01*
X83281067Y-71203589D01*
X83267209Y-71185463D01*
X83252547Y-71158541D01*
X83245934Y-71127259D01*
X83244391Y-71081718D01*
X83244872Y-71052198D01*
X83249091Y-71016379D01*
X83260163Y-70988896D01*
X83281067Y-70959848D01*
X83286876Y-70952785D01*
X83320797Y-70917476D01*
X83356593Y-70893501D01*
X83399799Y-70878857D01*
X83455951Y-70871540D01*
X83530588Y-70869547D01*
X83659549Y-70869547D01*
X83667392Y-70810425D01*
X83682112Y-70750016D01*
X83712533Y-70678577D01*
X83752865Y-70612010D01*
X83798054Y-70560003D01*
X83829902Y-70533327D01*
X83906617Y-70486373D01*
X83990509Y-70459701D01*
X84087017Y-70451265D01*
X84130035Y-70452762D01*
X84220502Y-70468719D01*
X84300671Y-70503784D01*
X84375979Y-70560003D01*
X84416752Y-70605950D01*
X84457802Y-70671489D01*
X84489450Y-70742876D01*
X84506641Y-70810425D01*
X84514484Y-70869547D01*
X84725094Y-70869547D01*
X84935704Y-70869547D01*
X84935704Y-70739023D01*
X84935780Y-70721312D01*
X84938653Y-70650877D01*
X84947137Y-70597816D01*
X84963206Y-70556635D01*
X84988837Y-70521841D01*
X85026005Y-70487941D01*
X85044131Y-70474083D01*
X85071053Y-70459420D01*
X85102335Y-70452807D01*
X85147876Y-70451265D01*
X85177396Y-70451746D01*
X85213215Y-70455965D01*
X85240699Y-70467037D01*
X85269746Y-70487941D01*
X85278700Y-70495337D01*
X85313254Y-70528968D01*
X85336690Y-70564658D01*
X85350984Y-70607902D01*
X85358111Y-70664192D01*
X85360048Y-70739023D01*
X85360048Y-70869547D01*
X85572219Y-70869547D01*
X85784391Y-70869547D01*
X85784391Y-70739023D01*
X85784467Y-70721312D01*
X85787340Y-70650877D01*
X85795824Y-70597816D01*
X85811893Y-70556635D01*
X85837524Y-70521841D01*
X85874693Y-70487941D01*
X85892818Y-70474083D01*
X85919741Y-70459420D01*
X85951023Y-70452807D01*
X85996563Y-70451265D01*
X86026084Y-70451746D01*
X86061903Y-70455965D01*
X86089386Y-70467037D01*
X86118434Y-70487941D01*
X86127388Y-70495337D01*
X86161941Y-70528968D01*
X86185377Y-70564658D01*
X86199671Y-70607902D01*
X86206798Y-70664192D01*
X86208735Y-70739023D01*
X86208735Y-70869547D01*
X86420907Y-70869547D01*
X86633079Y-70869547D01*
X86633079Y-70446765D01*
X86633079Y-70023983D01*
X86573957Y-70016140D01*
X86513113Y-70001268D01*
X86441861Y-69970876D01*
X86375516Y-69930678D01*
X86323749Y-69885715D01*
X86317494Y-69878599D01*
X86269471Y-69809533D01*
X86233133Y-69731288D01*
X86213363Y-69654105D01*
X86205611Y-69596516D01*
X85864478Y-69596516D01*
X85792266Y-69596472D01*
X85698969Y-69595970D01*
X85625059Y-69594432D01*
X85567588Y-69591282D01*
X85523604Y-69585943D01*
X85490160Y-69577837D01*
X85464305Y-69566388D01*
X85443091Y-69551019D01*
X85423567Y-69531154D01*
X85402786Y-69506214D01*
X85388928Y-69488088D01*
X85374265Y-69461166D01*
X85367652Y-69429884D01*
X85366110Y-69384344D01*
X85366591Y-69354823D01*
X85370809Y-69319004D01*
X85381881Y-69291521D01*
X85402786Y-69262473D01*
X85417030Y-69245129D01*
X85436593Y-69223701D01*
X85456876Y-69206942D01*
X85480819Y-69194278D01*
X85511363Y-69185134D01*
X85551449Y-69178939D01*
X85604019Y-69175118D01*
X85672013Y-69173099D01*
X85758373Y-69172308D01*
X85866040Y-69172172D01*
X86208735Y-69172172D01*
X86208735Y-69041649D01*
X86208811Y-69023938D01*
X86211684Y-68953502D01*
X86220168Y-68900441D01*
X86236237Y-68859260D01*
X86261868Y-68824467D01*
X86299036Y-68790566D01*
X86317162Y-68776708D01*
X86344084Y-68762046D01*
X86375366Y-68755433D01*
X86420907Y-68753890D01*
X86450428Y-68754371D01*
G37*
G36*
X84113154Y-71718248D02*
G01*
X84202793Y-71718805D01*
X84272548Y-71720778D01*
X84325903Y-71724993D01*
X84366343Y-71732273D01*
X84397351Y-71743443D01*
X84422411Y-71759327D01*
X84445007Y-71780749D01*
X84468622Y-71808535D01*
X84482480Y-71826661D01*
X84497143Y-71853583D01*
X84503756Y-71884865D01*
X84505298Y-71930406D01*
X84504817Y-71959927D01*
X84500599Y-71995745D01*
X84489527Y-72023229D01*
X84468622Y-72052276D01*
X84459237Y-72063111D01*
X84424346Y-72095995D01*
X84390005Y-72120084D01*
X84374096Y-72127434D01*
X84354594Y-72133150D01*
X84328448Y-72137241D01*
X84292138Y-72139968D01*
X84242143Y-72141592D01*
X84174942Y-72142375D01*
X84087017Y-72142578D01*
X84060879Y-72142563D01*
X83971241Y-72142007D01*
X83901486Y-72140033D01*
X83848130Y-72135819D01*
X83807690Y-72128539D01*
X83776682Y-72117369D01*
X83751622Y-72101485D01*
X83729026Y-72080062D01*
X83705411Y-72052276D01*
X83691553Y-72034150D01*
X83676890Y-72007228D01*
X83670277Y-71975946D01*
X83668735Y-71930406D01*
X83669216Y-71900885D01*
X83673435Y-71865066D01*
X83684507Y-71837583D01*
X83705411Y-71808535D01*
X83711649Y-71800889D01*
X83734679Y-71774784D01*
X83757568Y-71754834D01*
X83783798Y-71740216D01*
X83816855Y-71730104D01*
X83860221Y-71723674D01*
X83917381Y-71720102D01*
X83991818Y-71718564D01*
X84087017Y-71718234D01*
X84113154Y-71718248D01*
G37*
G36*
X81787717Y-71722998D02*
G01*
X81848069Y-71745129D01*
X81901657Y-71784640D01*
X81943551Y-71839779D01*
X81945658Y-71843723D01*
X81963536Y-71902811D01*
X81960534Y-71964997D01*
X81938403Y-72025348D01*
X81898892Y-72078936D01*
X81843753Y-72120830D01*
X81839809Y-72122937D01*
X81780721Y-72140816D01*
X81718536Y-72137814D01*
X81658184Y-72115682D01*
X81604596Y-72076172D01*
X81562702Y-72021033D01*
X81560595Y-72017089D01*
X81542717Y-71958000D01*
X81545718Y-71895815D01*
X81567850Y-71835463D01*
X81607360Y-71781875D01*
X81662499Y-71739981D01*
X81666443Y-71737875D01*
X81725532Y-71719996D01*
X81787717Y-71722998D01*
G37*
G36*
X93200202Y-70872105D02*
G01*
X93252223Y-70876859D01*
X93291752Y-70886720D01*
X93323234Y-70902978D01*
X93351114Y-70926924D01*
X93379839Y-70959848D01*
X93393697Y-70977974D01*
X93408360Y-71004896D01*
X93414973Y-71036178D01*
X93416515Y-71081718D01*
X93416035Y-71111239D01*
X93411816Y-71147058D01*
X93400744Y-71174541D01*
X93379839Y-71203589D01*
X93373471Y-71211322D01*
X93339652Y-71246363D01*
X93303895Y-71270147D01*
X93260677Y-71284667D01*
X93204476Y-71291917D01*
X93129772Y-71293890D01*
X93000265Y-71293890D01*
X92996218Y-71438297D01*
X92994719Y-71487120D01*
X92992314Y-71533954D01*
X92988349Y-71566055D01*
X92981664Y-71588824D01*
X92971099Y-71607664D01*
X92955496Y-71627976D01*
X92946230Y-71638684D01*
X92911223Y-71671878D01*
X92876689Y-71696487D01*
X92840586Y-71710769D01*
X92779023Y-71716785D01*
X92717066Y-71704409D01*
X92662947Y-71674488D01*
X92641823Y-71656669D01*
X92614951Y-71629196D01*
X92596152Y-71599659D01*
X92584156Y-71563634D01*
X92577695Y-71516696D01*
X92575498Y-71454420D01*
X92576297Y-71372383D01*
X92577111Y-71333489D01*
X92578876Y-71273224D01*
X92581599Y-71229211D01*
X92586150Y-71196166D01*
X92593400Y-71168804D01*
X92604218Y-71141839D01*
X92619473Y-71109988D01*
X92671231Y-71027505D01*
X92740101Y-70959848D01*
X92827041Y-70907561D01*
X92827703Y-70907251D01*
X92856161Y-70894785D01*
X92882947Y-70885937D01*
X92913243Y-70879969D01*
X92952235Y-70876141D01*
X93005106Y-70873717D01*
X93077040Y-70871957D01*
X93131242Y-70871168D01*
X93200202Y-70872105D01*
G37*
G36*
X91123278Y-71298654D02*
G01*
X91183630Y-71320786D01*
X91237218Y-71360296D01*
X91279112Y-71415435D01*
X91281219Y-71419379D01*
X91299097Y-71478468D01*
X91296095Y-71540653D01*
X91273964Y-71601005D01*
X91234453Y-71654593D01*
X91179314Y-71696487D01*
X91175370Y-71698593D01*
X91116282Y-71716472D01*
X91054097Y-71713470D01*
X90993745Y-71691339D01*
X90940157Y-71651828D01*
X90898263Y-71596689D01*
X90896156Y-71592745D01*
X90878277Y-71533657D01*
X90881279Y-71471471D01*
X90903411Y-71411120D01*
X90942921Y-71357532D01*
X90998060Y-71315638D01*
X91002004Y-71313531D01*
X91061093Y-71295652D01*
X91123278Y-71298654D01*
G37*
G36*
X89845177Y-70027402D02*
G01*
X89880996Y-70031621D01*
X89908479Y-70042693D01*
X89937527Y-70063597D01*
X89943711Y-70068555D01*
X89961445Y-70082637D01*
X89976516Y-70095749D01*
X89989131Y-70109832D01*
X89999498Y-70126826D01*
X90007822Y-70148669D01*
X90014311Y-70177302D01*
X90019173Y-70214666D01*
X90022613Y-70262698D01*
X90024839Y-70323340D01*
X90026058Y-70398531D01*
X90026477Y-70490212D01*
X90026302Y-70600321D01*
X90025741Y-70730798D01*
X90025000Y-70883584D01*
X90021766Y-71582633D01*
X89985090Y-71627940D01*
X89975805Y-71638677D01*
X89940807Y-71671880D01*
X89906283Y-71696487D01*
X89870180Y-71710769D01*
X89808618Y-71716785D01*
X89746661Y-71704409D01*
X89692541Y-71674488D01*
X89690061Y-71672489D01*
X89672029Y-71658131D01*
X89656687Y-71644995D01*
X89643818Y-71631122D01*
X89633205Y-71614554D01*
X89624632Y-71593330D01*
X89617881Y-71565491D01*
X89612737Y-71529079D01*
X89608981Y-71482133D01*
X89606399Y-71422695D01*
X89604771Y-71348806D01*
X89603883Y-71258505D01*
X89603517Y-71149835D01*
X89603456Y-71020835D01*
X89603484Y-70869547D01*
X89603483Y-70846055D01*
X89603452Y-70698138D01*
X89603539Y-70572223D01*
X89603964Y-70466349D01*
X89604947Y-70378554D01*
X89606708Y-70306878D01*
X89609465Y-70249360D01*
X89613439Y-70204039D01*
X89618850Y-70168954D01*
X89625917Y-70142145D01*
X89634860Y-70121650D01*
X89645899Y-70105508D01*
X89659253Y-70091760D01*
X89675142Y-70078443D01*
X89693786Y-70063597D01*
X89711912Y-70049739D01*
X89738834Y-70035077D01*
X89770116Y-70028464D01*
X89815656Y-70026921D01*
X89845177Y-70027402D01*
G37*
G36*
X88780934Y-71293905D02*
G01*
X88870573Y-71294461D01*
X88940328Y-71296435D01*
X88993684Y-71300649D01*
X89034124Y-71307929D01*
X89065132Y-71319099D01*
X89090191Y-71334983D01*
X89112787Y-71356406D01*
X89136403Y-71384192D01*
X89150261Y-71402317D01*
X89164923Y-71429240D01*
X89171536Y-71460522D01*
X89173079Y-71506062D01*
X89172598Y-71535583D01*
X89168379Y-71571401D01*
X89157307Y-71598885D01*
X89136403Y-71627933D01*
X89127017Y-71638767D01*
X89092127Y-71671652D01*
X89057785Y-71695741D01*
X89041876Y-71703091D01*
X89022374Y-71708807D01*
X88996228Y-71712898D01*
X88959918Y-71715624D01*
X88909923Y-71717248D01*
X88842723Y-71718031D01*
X88754797Y-71718234D01*
X88728660Y-71718220D01*
X88639021Y-71717663D01*
X88569266Y-71715690D01*
X88515910Y-71711475D01*
X88475470Y-71704195D01*
X88444463Y-71693025D01*
X88419403Y-71677141D01*
X88396807Y-71655719D01*
X88373191Y-71627933D01*
X88359333Y-71609807D01*
X88344671Y-71582885D01*
X88338058Y-71551603D01*
X88336515Y-71506062D01*
X88336996Y-71476541D01*
X88341215Y-71440723D01*
X88352287Y-71413239D01*
X88373191Y-71384192D01*
X88379430Y-71376545D01*
X88402460Y-71350440D01*
X88425348Y-71330491D01*
X88451579Y-71315872D01*
X88484635Y-71305760D01*
X88528001Y-71299331D01*
X88585161Y-71295759D01*
X88659598Y-71294220D01*
X88754797Y-71293890D01*
X88780934Y-71293905D01*
G37*
G36*
X93041253Y-69179731D02*
G01*
X93131719Y-69195688D01*
X93211888Y-69230753D01*
X93287196Y-69286972D01*
X93327969Y-69332919D01*
X93369020Y-69398458D01*
X93400668Y-69469845D01*
X93417859Y-69537394D01*
X93425701Y-69596516D01*
X93554663Y-69596516D01*
X93568501Y-69596562D01*
X93639702Y-69599297D01*
X93693334Y-69607687D01*
X93734934Y-69623734D01*
X93770038Y-69649443D01*
X93804183Y-69686817D01*
X93818041Y-69704943D01*
X93832704Y-69731865D01*
X93839317Y-69763147D01*
X93840859Y-69808687D01*
X93840378Y-69838208D01*
X93836160Y-69874027D01*
X93825087Y-69901510D01*
X93804183Y-69930558D01*
X93793652Y-69943651D01*
X93778354Y-69961957D01*
X93763154Y-69977118D01*
X93745838Y-69989428D01*
X93724193Y-69999185D01*
X93696006Y-70006685D01*
X93659063Y-70012223D01*
X93611152Y-70016096D01*
X93550059Y-70018601D01*
X93473571Y-70020033D01*
X93379475Y-70020690D01*
X93265557Y-70020866D01*
X93129605Y-70020859D01*
X92575586Y-70020859D01*
X92571707Y-70284559D01*
X92570609Y-70355185D01*
X92569139Y-70425611D01*
X92567193Y-70478633D01*
X92564358Y-70518073D01*
X92560221Y-70547749D01*
X92554371Y-70571482D01*
X92546394Y-70593091D01*
X92535879Y-70616395D01*
X92485370Y-70701002D01*
X92418204Y-70770382D01*
X92333452Y-70823964D01*
X92253236Y-70863485D01*
X91990216Y-70867353D01*
X91727195Y-70871222D01*
X91723168Y-71014791D01*
X91721714Y-71062206D01*
X91719319Y-71109257D01*
X91715366Y-71141497D01*
X91708686Y-71164355D01*
X91698109Y-71183258D01*
X91682465Y-71203632D01*
X91673199Y-71214340D01*
X91638192Y-71247535D01*
X91603658Y-71272143D01*
X91567555Y-71286426D01*
X91505992Y-71292441D01*
X91444035Y-71280065D01*
X91389916Y-71250145D01*
X91382112Y-71243711D01*
X91347678Y-71210289D01*
X91324279Y-71174672D01*
X91309972Y-71131402D01*
X91302813Y-71075021D01*
X91300859Y-71000070D01*
X91300859Y-70869547D01*
X91088687Y-70869547D01*
X90876515Y-70869547D01*
X90876515Y-71000070D01*
X90876440Y-71017781D01*
X90873566Y-71088216D01*
X90865083Y-71141277D01*
X90849013Y-71182458D01*
X90823382Y-71217252D01*
X90786214Y-71251152D01*
X90768088Y-71265010D01*
X90741166Y-71279673D01*
X90709884Y-71286286D01*
X90664344Y-71287828D01*
X90634823Y-71287347D01*
X90599004Y-71283129D01*
X90571521Y-71272057D01*
X90542473Y-71251152D01*
X90529252Y-71240458D01*
X90509727Y-71223806D01*
X90493812Y-71207159D01*
X90481139Y-71188092D01*
X90471337Y-71164179D01*
X90464040Y-71132994D01*
X90458877Y-71092113D01*
X90455479Y-71039110D01*
X90453479Y-70971560D01*
X90452507Y-70887037D01*
X90452194Y-70783117D01*
X90452172Y-70657375D01*
X90452171Y-70581139D01*
X90452318Y-70468438D01*
X90452971Y-70376143D01*
X90454499Y-70301828D01*
X90457270Y-70243070D01*
X90461654Y-70197442D01*
X90468019Y-70162519D01*
X90476735Y-70135876D01*
X90488169Y-70115087D01*
X90502691Y-70097728D01*
X90520669Y-70081373D01*
X90542473Y-70063597D01*
X90560599Y-70049739D01*
X90587521Y-70035077D01*
X90618803Y-70028464D01*
X90664344Y-70026921D01*
X90693864Y-70027402D01*
X90729683Y-70031621D01*
X90757166Y-70042693D01*
X90786214Y-70063597D01*
X90795168Y-70070994D01*
X90829722Y-70104624D01*
X90853158Y-70140315D01*
X90867451Y-70183558D01*
X90874579Y-70239849D01*
X90876515Y-70314680D01*
X90876515Y-70445203D01*
X91088687Y-70445203D01*
X91300859Y-70445203D01*
X91300859Y-70233031D01*
X91300859Y-70020859D01*
X91170336Y-70020859D01*
X91152625Y-70020784D01*
X91082189Y-70017910D01*
X91029128Y-70009427D01*
X90987948Y-69993357D01*
X90953154Y-69967726D01*
X90919254Y-69930558D01*
X90905396Y-69912432D01*
X90890733Y-69885510D01*
X90884120Y-69854228D01*
X90882577Y-69808687D01*
X90883058Y-69779167D01*
X90887277Y-69743348D01*
X90898349Y-69715865D01*
X90919254Y-69686817D01*
X90937703Y-69664940D01*
X90965377Y-69637828D01*
X90995011Y-69618881D01*
X91031050Y-69606807D01*
X91077939Y-69600317D01*
X91140125Y-69598120D01*
X91222052Y-69598926D01*
X91223817Y-69598961D01*
X91295292Y-69600728D01*
X91347814Y-69603174D01*
X91386567Y-69607040D01*
X91416734Y-69613062D01*
X91443501Y-69621979D01*
X91472052Y-69634530D01*
X91500356Y-69649296D01*
X91549451Y-69680128D01*
X91589822Y-69711316D01*
X91630594Y-69757263D01*
X91671645Y-69822801D01*
X91703293Y-69894189D01*
X91720484Y-69961737D01*
X91728327Y-70020859D01*
X91937375Y-70020859D01*
X92146423Y-70020859D01*
X92154175Y-69963270D01*
X92155496Y-69954489D01*
X92177491Y-69876644D01*
X92215473Y-69798953D01*
X92264561Y-69731660D01*
X92311450Y-69690269D01*
X92376522Y-69649694D01*
X92447081Y-69618378D01*
X92513389Y-69601417D01*
X92571132Y-69593758D01*
X92578792Y-69536015D01*
X92593789Y-69475313D01*
X92624245Y-69404551D01*
X92664443Y-69338519D01*
X92709271Y-69286972D01*
X92741119Y-69260296D01*
X92817834Y-69213342D01*
X92901726Y-69186670D01*
X92998234Y-69178234D01*
X93041253Y-69179731D01*
G37*
G36*
X81782647Y-70451746D02*
G01*
X81818466Y-70455965D01*
X81845949Y-70467037D01*
X81874997Y-70487941D01*
X81883951Y-70495337D01*
X81918505Y-70528968D01*
X81941941Y-70564658D01*
X81956234Y-70607902D01*
X81963362Y-70664192D01*
X81965298Y-70739023D01*
X81965298Y-70869547D01*
X82095822Y-70869547D01*
X82113532Y-70869622D01*
X82183968Y-70872496D01*
X82237029Y-70880979D01*
X82278210Y-70897049D01*
X82313003Y-70922680D01*
X82346904Y-70959848D01*
X82360762Y-70977974D01*
X82375425Y-71004896D01*
X82382038Y-71036178D01*
X82383580Y-71081718D01*
X82383099Y-71111239D01*
X82378880Y-71147058D01*
X82367808Y-71174541D01*
X82346904Y-71203589D01*
X82337601Y-71214344D01*
X82302609Y-71247498D01*
X82268097Y-71272021D01*
X82253528Y-71279213D01*
X82232813Y-71286022D01*
X82206019Y-71290261D01*
X82168608Y-71292321D01*
X82116045Y-71292598D01*
X82043791Y-71291484D01*
X82004897Y-71290669D01*
X81944632Y-71288905D01*
X81900619Y-71286182D01*
X81867574Y-71281630D01*
X81840211Y-71274380D01*
X81813247Y-71263563D01*
X81781396Y-71248307D01*
X81698913Y-71196549D01*
X81631256Y-71127680D01*
X81578969Y-71040739D01*
X81578659Y-71040078D01*
X81566193Y-71011619D01*
X81557345Y-70984834D01*
X81551377Y-70954537D01*
X81547549Y-70915546D01*
X81545125Y-70862675D01*
X81543365Y-70790740D01*
X81542576Y-70736539D01*
X81543513Y-70667579D01*
X81548267Y-70615557D01*
X81558128Y-70576028D01*
X81574386Y-70544546D01*
X81598332Y-70516666D01*
X81631256Y-70487941D01*
X81649382Y-70474083D01*
X81676304Y-70459420D01*
X81707586Y-70452807D01*
X81753126Y-70451265D01*
X81782647Y-70451746D01*
G37*
G36*
X84432554Y-69598926D02*
G01*
X84434318Y-69598961D01*
X84505793Y-69600728D01*
X84558315Y-69603174D01*
X84597068Y-69607040D01*
X84627235Y-69613062D01*
X84654002Y-69621979D01*
X84682553Y-69634530D01*
X84767241Y-69685094D01*
X84836573Y-69752246D01*
X84890121Y-69836988D01*
X84929642Y-69917237D01*
X84929642Y-70113391D01*
X84929642Y-70309545D01*
X84892966Y-70354881D01*
X84883666Y-70365640D01*
X84848673Y-70398850D01*
X84814159Y-70423455D01*
X84778056Y-70437738D01*
X84716494Y-70443754D01*
X84654537Y-70431378D01*
X84600417Y-70401457D01*
X84592614Y-70395024D01*
X84558179Y-70361602D01*
X84534780Y-70325985D01*
X84520473Y-70282715D01*
X84513315Y-70226334D01*
X84511360Y-70151383D01*
X84511360Y-70020859D01*
X84380837Y-70020859D01*
X84363126Y-70020784D01*
X84292691Y-70017910D01*
X84239629Y-70009427D01*
X84198449Y-69993357D01*
X84163655Y-69967726D01*
X84129755Y-69930558D01*
X84115897Y-69912432D01*
X84101234Y-69885510D01*
X84094621Y-69854228D01*
X84093079Y-69808687D01*
X84093560Y-69779167D01*
X84097778Y-69743348D01*
X84108850Y-69715865D01*
X84129755Y-69686817D01*
X84148204Y-69664940D01*
X84175879Y-69637828D01*
X84205512Y-69618881D01*
X84241551Y-69606807D01*
X84288440Y-69600317D01*
X84350626Y-69598120D01*
X84432554Y-69598926D01*
G37*
G36*
X83060748Y-70025623D02*
G01*
X83121100Y-70047755D01*
X83174688Y-70087265D01*
X83216582Y-70142404D01*
X83218689Y-70146348D01*
X83236567Y-70205436D01*
X83233566Y-70267622D01*
X83211434Y-70327974D01*
X83171923Y-70381562D01*
X83116784Y-70423455D01*
X83112840Y-70425562D01*
X83053752Y-70443441D01*
X82991567Y-70440439D01*
X82931215Y-70418308D01*
X82877627Y-70378797D01*
X82835733Y-70323658D01*
X82833626Y-70319714D01*
X82815748Y-70260626D01*
X82818749Y-70198440D01*
X82840881Y-70138089D01*
X82880391Y-70084501D01*
X82935530Y-70042607D01*
X82939474Y-70040500D01*
X82998563Y-70022621D01*
X83060748Y-70025623D01*
G37*
G36*
X90269521Y-67905684D02*
G01*
X90305339Y-67909903D01*
X90332823Y-67920975D01*
X90361870Y-67941879D01*
X90375162Y-67952570D01*
X90393425Y-67967843D01*
X90408548Y-67983040D01*
X90420827Y-68000372D01*
X90430559Y-68022051D01*
X90438039Y-68050287D01*
X90443562Y-68087292D01*
X90447425Y-68135278D01*
X90449922Y-68196455D01*
X90451350Y-68273035D01*
X90452004Y-68367229D01*
X90452179Y-68481249D01*
X90452172Y-68617305D01*
X90452172Y-69172172D01*
X90582695Y-69172172D01*
X90600406Y-69172248D01*
X90670841Y-69175121D01*
X90723903Y-69183605D01*
X90765083Y-69199674D01*
X90799877Y-69225305D01*
X90833777Y-69262473D01*
X90847635Y-69280599D01*
X90862298Y-69307521D01*
X90868911Y-69338803D01*
X90870453Y-69384344D01*
X90869972Y-69413864D01*
X90865754Y-69449683D01*
X90854682Y-69477167D01*
X90833777Y-69506214D01*
X90824392Y-69517049D01*
X90789501Y-69549933D01*
X90755160Y-69574022D01*
X90754391Y-69574431D01*
X90745397Y-69578621D01*
X90734278Y-69582246D01*
X90719333Y-69585347D01*
X90698859Y-69587964D01*
X90671155Y-69590139D01*
X90634518Y-69591912D01*
X90587248Y-69593324D01*
X90527642Y-69594415D01*
X90453998Y-69595227D01*
X90364616Y-69595799D01*
X90257792Y-69596174D01*
X90131825Y-69596391D01*
X89985014Y-69596491D01*
X89815656Y-69596516D01*
X89759726Y-69596521D01*
X89593357Y-69596575D01*
X89449029Y-69596567D01*
X89325054Y-69596349D01*
X89219744Y-69595770D01*
X89131411Y-69594681D01*
X89058367Y-69592932D01*
X88998924Y-69590374D01*
X88951396Y-69586856D01*
X88914093Y-69582229D01*
X88885329Y-69576343D01*
X88863416Y-69569049D01*
X88846665Y-69560197D01*
X88833389Y-69549637D01*
X88821901Y-69537220D01*
X88810512Y-69522796D01*
X88797535Y-69506214D01*
X88783677Y-69488088D01*
X88769014Y-69461166D01*
X88762401Y-69429884D01*
X88760859Y-69384344D01*
X88761340Y-69354823D01*
X88765559Y-69319004D01*
X88776631Y-69291521D01*
X88797535Y-69262473D01*
X88804931Y-69253519D01*
X88838562Y-69218965D01*
X88874252Y-69195530D01*
X88917496Y-69181236D01*
X88973786Y-69174109D01*
X89048617Y-69172172D01*
X89179141Y-69172172D01*
X89179141Y-69041649D01*
X89179216Y-69023938D01*
X89182090Y-68953502D01*
X89190573Y-68900441D01*
X89206643Y-68859260D01*
X89232274Y-68824467D01*
X89269442Y-68790566D01*
X89287568Y-68776708D01*
X89314490Y-68762046D01*
X89345772Y-68755433D01*
X89391313Y-68753890D01*
X89420833Y-68754371D01*
X89456652Y-68758590D01*
X89484135Y-68769662D01*
X89513183Y-68790566D01*
X89522137Y-68797963D01*
X89556691Y-68831593D01*
X89580127Y-68867284D01*
X89594420Y-68910527D01*
X89601548Y-68966818D01*
X89603484Y-69041649D01*
X89603484Y-69172172D01*
X89815656Y-69172172D01*
X90027828Y-69172172D01*
X90027828Y-68960000D01*
X90027828Y-68747828D01*
X89897305Y-68747828D01*
X89879594Y-68747753D01*
X89809158Y-68744879D01*
X89756097Y-68736396D01*
X89714917Y-68720326D01*
X89680123Y-68694695D01*
X89646223Y-68657527D01*
X89632365Y-68639401D01*
X89617702Y-68612479D01*
X89611089Y-68581197D01*
X89609546Y-68535656D01*
X89610027Y-68506136D01*
X89614246Y-68470317D01*
X89625318Y-68442834D01*
X89646223Y-68413786D01*
X89653619Y-68404832D01*
X89687249Y-68370278D01*
X89722940Y-68346842D01*
X89766183Y-68332549D01*
X89822474Y-68325421D01*
X89897305Y-68323485D01*
X90027828Y-68323485D01*
X90027828Y-68192961D01*
X90027904Y-68175250D01*
X90030777Y-68104815D01*
X90039261Y-68051754D01*
X90055330Y-68010573D01*
X90080961Y-67975779D01*
X90118129Y-67941879D01*
X90136255Y-67928021D01*
X90163177Y-67913358D01*
X90194459Y-67906745D01*
X90240000Y-67905203D01*
X90269521Y-67905684D01*
G37*
G36*
X83688810Y-69172186D02*
G01*
X83778449Y-69172743D01*
X83848204Y-69174716D01*
X83901560Y-69178931D01*
X83941999Y-69186211D01*
X83973007Y-69197380D01*
X83998067Y-69213265D01*
X84020663Y-69234687D01*
X84044278Y-69262473D01*
X84058136Y-69280599D01*
X84072799Y-69307521D01*
X84079412Y-69338803D01*
X84080955Y-69384344D01*
X84080474Y-69413864D01*
X84076255Y-69449683D01*
X84065183Y-69477167D01*
X84044278Y-69506214D01*
X84034893Y-69517049D01*
X84000002Y-69549933D01*
X83965661Y-69574022D01*
X83949752Y-69581372D01*
X83930250Y-69587088D01*
X83904104Y-69591179D01*
X83867794Y-69593906D01*
X83817799Y-69595530D01*
X83750599Y-69596313D01*
X83662673Y-69596516D01*
X83636536Y-69596501D01*
X83546897Y-69595945D01*
X83477142Y-69593971D01*
X83423786Y-69589757D01*
X83383346Y-69582477D01*
X83352338Y-69571307D01*
X83327278Y-69555423D01*
X83304683Y-69534000D01*
X83281067Y-69506214D01*
X83267209Y-69488088D01*
X83252547Y-69461166D01*
X83245934Y-69429884D01*
X83244391Y-69384344D01*
X83244872Y-69354823D01*
X83249091Y-69319004D01*
X83260163Y-69291521D01*
X83281067Y-69262473D01*
X83287306Y-69254826D01*
X83310336Y-69228722D01*
X83333224Y-69208772D01*
X83359455Y-69194154D01*
X83392511Y-69184042D01*
X83435877Y-69177612D01*
X83493037Y-69174040D01*
X83567474Y-69172502D01*
X83662673Y-69172172D01*
X83688810Y-69172186D01*
G37*
G36*
X82928251Y-68749518D02*
G01*
X82994425Y-68751072D01*
X83045824Y-68754425D01*
X83085156Y-68760037D01*
X83115130Y-68768371D01*
X83138452Y-68779886D01*
X83157831Y-68795043D01*
X83175975Y-68814304D01*
X83195591Y-68838130D01*
X83209449Y-68856255D01*
X83224112Y-68883178D01*
X83230725Y-68914459D01*
X83232267Y-68960000D01*
X83231786Y-68989521D01*
X83227568Y-69025339D01*
X83216496Y-69052823D01*
X83195591Y-69081871D01*
X83189783Y-69088934D01*
X83155861Y-69124243D01*
X83120066Y-69148217D01*
X83076860Y-69162861D01*
X83020707Y-69170178D01*
X82946071Y-69172172D01*
X82817110Y-69172172D01*
X82809357Y-69229761D01*
X82786912Y-69318621D01*
X82742610Y-69404284D01*
X82679625Y-69478238D01*
X82600409Y-69537641D01*
X82507415Y-69579653D01*
X82487070Y-69584892D01*
X82432039Y-69591732D01*
X82368790Y-69592213D01*
X82301712Y-69583959D01*
X82208314Y-69553296D01*
X82126027Y-69502008D01*
X82056982Y-69431548D01*
X82003309Y-69343364D01*
X81989181Y-69310497D01*
X81978101Y-69272620D01*
X81972750Y-69229593D01*
X81971360Y-69171917D01*
X81971403Y-69157445D01*
X81973105Y-69106798D01*
X81978844Y-69068273D01*
X81990731Y-69032055D01*
X82010881Y-68988329D01*
X82062721Y-68905690D01*
X82131545Y-68838096D01*
X82218449Y-68785839D01*
X82286587Y-68753890D01*
X82680620Y-68750477D01*
X82740748Y-68749964D01*
X82844595Y-68749302D01*
X82928251Y-68749518D01*
G37*
G36*
X93669340Y-68752592D02*
G01*
X93729692Y-68774724D01*
X93783280Y-68814234D01*
X93825174Y-68869373D01*
X93827281Y-68873317D01*
X93845159Y-68932405D01*
X93842157Y-68994591D01*
X93820026Y-69054943D01*
X93780515Y-69108531D01*
X93725376Y-69150424D01*
X93721432Y-69152531D01*
X93662344Y-69170410D01*
X93600159Y-69167408D01*
X93539807Y-69145277D01*
X93486219Y-69105766D01*
X93444325Y-69050627D01*
X93442218Y-69046683D01*
X93424339Y-68987595D01*
X93427341Y-68925409D01*
X93449473Y-68865058D01*
X93488983Y-68811470D01*
X93544122Y-68769576D01*
X93548066Y-68767469D01*
X93607155Y-68749590D01*
X93669340Y-68752592D01*
G37*
G36*
X91123278Y-68752592D02*
G01*
X91183630Y-68774724D01*
X91237218Y-68814234D01*
X91279112Y-68869373D01*
X91281219Y-68873317D01*
X91299097Y-68932405D01*
X91296095Y-68994591D01*
X91273964Y-69054943D01*
X91234453Y-69108531D01*
X91179314Y-69150424D01*
X91175370Y-69152531D01*
X91116282Y-69170410D01*
X91054097Y-69167408D01*
X90993745Y-69145277D01*
X90940157Y-69105766D01*
X90898263Y-69050627D01*
X90896156Y-69046683D01*
X90878277Y-68987595D01*
X90881279Y-68925409D01*
X90903411Y-68865058D01*
X90942921Y-68811470D01*
X90998060Y-68769576D01*
X91002004Y-68767469D01*
X91061093Y-68749590D01*
X91123278Y-68752592D01*
G37*
G36*
X86676098Y-66633668D02*
G01*
X86766564Y-66649626D01*
X86846733Y-66684691D01*
X86922041Y-66740910D01*
X86963250Y-66787488D01*
X87004028Y-66852688D01*
X87035489Y-66923429D01*
X87052521Y-66989953D01*
X87060180Y-67047696D01*
X87117923Y-67055355D01*
X87178625Y-67070352D01*
X87249387Y-67100809D01*
X87315419Y-67141007D01*
X87366966Y-67185835D01*
X87385543Y-67208669D01*
X87417592Y-67256018D01*
X87443751Y-67303605D01*
X87444061Y-67304266D01*
X87456527Y-67332725D01*
X87465375Y-67359510D01*
X87471344Y-67389806D01*
X87475171Y-67428798D01*
X87477596Y-67481669D01*
X87479356Y-67553604D01*
X87480145Y-67607805D01*
X87479207Y-67676765D01*
X87474453Y-67728787D01*
X87464592Y-67768316D01*
X87448334Y-67799797D01*
X87424389Y-67827678D01*
X87391465Y-67856403D01*
X87373339Y-67870261D01*
X87346417Y-67884924D01*
X87315135Y-67891537D01*
X87269594Y-67893079D01*
X87240073Y-67892598D01*
X87204255Y-67888379D01*
X87176771Y-67877307D01*
X87147724Y-67856403D01*
X87138770Y-67849007D01*
X87104216Y-67815376D01*
X87080780Y-67779686D01*
X87066486Y-67736442D01*
X87059359Y-67680152D01*
X87057422Y-67605321D01*
X87057422Y-67474797D01*
X86633079Y-67474797D01*
X86208735Y-67474797D01*
X86208735Y-67817492D01*
X86208687Y-67892472D01*
X86208173Y-67985469D01*
X86206618Y-68059140D01*
X86203449Y-68116425D01*
X86198093Y-68160266D01*
X86189976Y-68193604D01*
X86178525Y-68219380D01*
X86163166Y-68240535D01*
X86143327Y-68260010D01*
X86118434Y-68280746D01*
X86100308Y-68294604D01*
X86073386Y-68309267D01*
X86042104Y-68315880D01*
X85996563Y-68317423D01*
X85967042Y-68316942D01*
X85931224Y-68312723D01*
X85903740Y-68301651D01*
X85874693Y-68280746D01*
X85857348Y-68266503D01*
X85835921Y-68246939D01*
X85819162Y-68226656D01*
X85806497Y-68202713D01*
X85797354Y-68172170D01*
X85791158Y-68132083D01*
X85787338Y-68079514D01*
X85785319Y-68011519D01*
X85784528Y-67925159D01*
X85784391Y-67817492D01*
X85784391Y-67474797D01*
X85572602Y-67474797D01*
X85360813Y-67474797D01*
X85357399Y-68162840D01*
X85353986Y-68850883D01*
X85322449Y-68918119D01*
X85291427Y-68974737D01*
X85227712Y-69053248D01*
X85148393Y-69113198D01*
X85053477Y-69154583D01*
X85047557Y-69156214D01*
X85019676Y-69160933D01*
X84977526Y-69164670D01*
X84919113Y-69167503D01*
X84842442Y-69169510D01*
X84745520Y-69170770D01*
X84626350Y-69171361D01*
X84601795Y-69171413D01*
X84493877Y-69171488D01*
X84406865Y-69170893D01*
X84337980Y-69169127D01*
X84284440Y-69165688D01*
X84243465Y-69160075D01*
X84212276Y-69151788D01*
X84188090Y-69140325D01*
X84168129Y-69125185D01*
X84149610Y-69105867D01*
X84129755Y-69081871D01*
X84115897Y-69063745D01*
X84101234Y-69036823D01*
X84094621Y-69005541D01*
X84093079Y-68960000D01*
X84093560Y-68930479D01*
X84097778Y-68894661D01*
X84108850Y-68867177D01*
X84129755Y-68838130D01*
X84143999Y-68820785D01*
X84163562Y-68799358D01*
X84183845Y-68782599D01*
X84207788Y-68769934D01*
X84238332Y-68760791D01*
X84278418Y-68754595D01*
X84330988Y-68750775D01*
X84398982Y-68748756D01*
X84485342Y-68747965D01*
X84593009Y-68747828D01*
X84935704Y-68747828D01*
X84935704Y-67768618D01*
X84935704Y-67755726D01*
X84935656Y-67575910D01*
X84935617Y-67418624D01*
X84935720Y-67282261D01*
X84936097Y-67165210D01*
X84936879Y-67065863D01*
X84938199Y-66982610D01*
X84940189Y-66913842D01*
X84942981Y-66857950D01*
X84946708Y-66813326D01*
X84951500Y-66778359D01*
X84957492Y-66751442D01*
X84964813Y-66730964D01*
X84973598Y-66715316D01*
X84983977Y-66702890D01*
X84996083Y-66692076D01*
X85010049Y-66681265D01*
X85026005Y-66668848D01*
X85044131Y-66654990D01*
X85071053Y-66640327D01*
X85102335Y-66633714D01*
X85147876Y-66632172D01*
X85177396Y-66632653D01*
X85213215Y-66636871D01*
X85240699Y-66647944D01*
X85269746Y-66668848D01*
X85278700Y-66676244D01*
X85313254Y-66709875D01*
X85336690Y-66745565D01*
X85350984Y-66788809D01*
X85358111Y-66845099D01*
X85360048Y-66919930D01*
X85360048Y-67050454D01*
X85782829Y-67050454D01*
X86205611Y-67050454D01*
X86213454Y-66991332D01*
X86228174Y-66930923D01*
X86258595Y-66859484D01*
X86298927Y-66792917D01*
X86344116Y-66740910D01*
X86375964Y-66714234D01*
X86452679Y-66667280D01*
X86536571Y-66640608D01*
X86633079Y-66632172D01*
X86676098Y-66633668D01*
G37*
G36*
X88572146Y-67905684D02*
G01*
X88607965Y-67909903D01*
X88635448Y-67920975D01*
X88664496Y-67941879D01*
X88680294Y-67954885D01*
X88704443Y-67977089D01*
X88722759Y-67999848D01*
X88735992Y-68026546D01*
X88744892Y-68060566D01*
X88750209Y-68105292D01*
X88752692Y-68164108D01*
X88753091Y-68240398D01*
X88752155Y-68337545D01*
X88748735Y-68612273D01*
X88712059Y-68657557D01*
X88702786Y-68668276D01*
X88667783Y-68701473D01*
X88633252Y-68726081D01*
X88597149Y-68740364D01*
X88535587Y-68746379D01*
X88473630Y-68734003D01*
X88419510Y-68704083D01*
X88412590Y-68698439D01*
X88386698Y-68675606D01*
X88366896Y-68652856D01*
X88352372Y-68626715D01*
X88342313Y-68593706D01*
X88335905Y-68550354D01*
X88332334Y-68493183D01*
X88330788Y-68418719D01*
X88330453Y-68323485D01*
X88330468Y-68297347D01*
X88331024Y-68207709D01*
X88332998Y-68137953D01*
X88337212Y-68084598D01*
X88344492Y-68044158D01*
X88355662Y-68013150D01*
X88371546Y-67988090D01*
X88392969Y-67965494D01*
X88420755Y-67941879D01*
X88438881Y-67928021D01*
X88465803Y-67913358D01*
X88497085Y-67906745D01*
X88542625Y-67905203D01*
X88572146Y-67905684D01*
G37*
G36*
X87723459Y-67905684D02*
G01*
X87759277Y-67909903D01*
X87786761Y-67920975D01*
X87815808Y-67941879D01*
X87837685Y-67960328D01*
X87864797Y-67988003D01*
X87883744Y-68017637D01*
X87895818Y-68053675D01*
X87902308Y-68100565D01*
X87904505Y-68162750D01*
X87903700Y-68244678D01*
X87901947Y-68316194D01*
X87899514Y-68369275D01*
X87895684Y-68408404D01*
X87889727Y-68438751D01*
X87880911Y-68465485D01*
X87868508Y-68493775D01*
X87837867Y-68549826D01*
X87774373Y-68628335D01*
X87695040Y-68688505D01*
X87599539Y-68730627D01*
X87581499Y-68735040D01*
X87548022Y-68739489D01*
X87500885Y-68742543D01*
X87437447Y-68744306D01*
X87355064Y-68744881D01*
X87251096Y-68744374D01*
X86953743Y-68741766D01*
X86873522Y-68702245D01*
X86791034Y-68650484D01*
X86723379Y-68581616D01*
X86671093Y-68494677D01*
X86670783Y-68494016D01*
X86658317Y-68465557D01*
X86649469Y-68438772D01*
X86643501Y-68408475D01*
X86639673Y-68369484D01*
X86637249Y-68316613D01*
X86635489Y-68244678D01*
X86634700Y-68190477D01*
X86635637Y-68121517D01*
X86640391Y-68069495D01*
X86650252Y-68029966D01*
X86666510Y-67998484D01*
X86690456Y-67970604D01*
X86723380Y-67941879D01*
X86741506Y-67928021D01*
X86768428Y-67913358D01*
X86799710Y-67906745D01*
X86845251Y-67905203D01*
X86874771Y-67905684D01*
X86910590Y-67909903D01*
X86938073Y-67920975D01*
X86967121Y-67941879D01*
X86976075Y-67949275D01*
X87010629Y-67982906D01*
X87034065Y-68018596D01*
X87048358Y-68061840D01*
X87055486Y-68118130D01*
X87057422Y-68192961D01*
X87057422Y-68323485D01*
X87269594Y-68323485D01*
X87481766Y-68323485D01*
X87481766Y-68192961D01*
X87481842Y-68175250D01*
X87484715Y-68104815D01*
X87493199Y-68051754D01*
X87509268Y-68010573D01*
X87534899Y-67975779D01*
X87572067Y-67941879D01*
X87590193Y-67928021D01*
X87617115Y-67913358D01*
X87648397Y-67906745D01*
X87693938Y-67905203D01*
X87723459Y-67905684D01*
G37*
G36*
X93834864Y-66226708D02*
G01*
X93836857Y-66269507D01*
X93838359Y-66323550D01*
X93839438Y-66391005D01*
X93840160Y-66474038D01*
X93840593Y-66574817D01*
X93840804Y-66695509D01*
X93840859Y-66838282D01*
X93840857Y-66901179D01*
X93840804Y-67032841D01*
X93840618Y-67143413D01*
X93840215Y-67235111D01*
X93839512Y-67310153D01*
X93838425Y-67370755D01*
X93836871Y-67419133D01*
X93834766Y-67457504D01*
X93832028Y-67488084D01*
X93828572Y-67513090D01*
X93824316Y-67534737D01*
X93819175Y-67555244D01*
X93813067Y-67576825D01*
X93786191Y-67657499D01*
X93720385Y-67798865D01*
X93635713Y-67926803D01*
X93533914Y-68039762D01*
X93416728Y-68136191D01*
X93285893Y-68214538D01*
X93143149Y-68273252D01*
X92990235Y-68310783D01*
X92979750Y-68311743D01*
X92944520Y-68313237D01*
X92888140Y-68314682D01*
X92812508Y-68316056D01*
X92719523Y-68317341D01*
X92611087Y-68318516D01*
X92489097Y-68319561D01*
X92355454Y-68320458D01*
X92212056Y-68321187D01*
X92060804Y-68321727D01*
X91903597Y-68322059D01*
X90875643Y-68323485D01*
X90877232Y-67874893D01*
X91324306Y-67874893D01*
X92121867Y-67874095D01*
X92231374Y-67873980D01*
X92382152Y-67873742D01*
X92511804Y-67873314D01*
X92622228Y-67872564D01*
X92715322Y-67871360D01*
X92792983Y-67869570D01*
X92857108Y-67867063D01*
X92909595Y-67863706D01*
X92952341Y-67859366D01*
X92987243Y-67853913D01*
X93016199Y-67847214D01*
X93041106Y-67839138D01*
X93063862Y-67829551D01*
X93086364Y-67818323D01*
X93110509Y-67805321D01*
X93137655Y-67789229D01*
X93218147Y-67725338D01*
X93289176Y-67644465D01*
X93345759Y-67551972D01*
X93392267Y-67457869D01*
X93392267Y-66838911D01*
X93392267Y-66219952D01*
X93352404Y-66135772D01*
X93337269Y-66105237D01*
X93286948Y-66023332D01*
X93227898Y-65957024D01*
X93154657Y-65899794D01*
X93139945Y-65890011D01*
X93108709Y-65869998D01*
X93079246Y-65853260D01*
X93049191Y-65839507D01*
X93016178Y-65828443D01*
X92977842Y-65819778D01*
X92931816Y-65813217D01*
X92875735Y-65808470D01*
X92807235Y-65805241D01*
X92723948Y-65803240D01*
X92623511Y-65802173D01*
X92503556Y-65801748D01*
X92361718Y-65801671D01*
X92297297Y-65801680D01*
X92165251Y-65801872D01*
X92054060Y-65802540D01*
X91961359Y-65803977D01*
X91884783Y-65806475D01*
X91821966Y-65810327D01*
X91770541Y-65815826D01*
X91728145Y-65823264D01*
X91692410Y-65832935D01*
X91660972Y-65845130D01*
X91631464Y-65860144D01*
X91601522Y-65878267D01*
X91568780Y-65899794D01*
X91543492Y-65917498D01*
X91475381Y-65976921D01*
X91419715Y-66047505D01*
X91371032Y-66135772D01*
X91331169Y-66219952D01*
X91327738Y-67047423D01*
X91324306Y-67874893D01*
X90877232Y-67874893D01*
X90879432Y-67253532D01*
X90883221Y-66183580D01*
X90910881Y-66093298D01*
X90941820Y-66004955D01*
X91010718Y-65861920D01*
X91097759Y-65734033D01*
X91202018Y-65622376D01*
X91322572Y-65528029D01*
X91458496Y-65452076D01*
X91491437Y-65436853D01*
X91530604Y-65419325D01*
X91566613Y-65404706D01*
X91601954Y-65392711D01*
X91639120Y-65383057D01*
X91680602Y-65375459D01*
X91728891Y-65369634D01*
X91786479Y-65365298D01*
X91855857Y-65362165D01*
X91939516Y-65359953D01*
X92039949Y-65358377D01*
X92159645Y-65357153D01*
X92301098Y-65355997D01*
X92389806Y-65355338D01*
X92526466Y-65354621D01*
X92642622Y-65354574D01*
X92740652Y-65355341D01*
X92822929Y-65357067D01*
X92891832Y-65359898D01*
X92949734Y-65363977D01*
X92999012Y-65369449D01*
X93042043Y-65376460D01*
X93081202Y-65385153D01*
X93118864Y-65395674D01*
X93157406Y-65408168D01*
X93225345Y-65433773D01*
X93365061Y-65504359D01*
X93489530Y-65593427D01*
X93597932Y-65700098D01*
X93689447Y-65823491D01*
X93763254Y-65962727D01*
X93818532Y-66116926D01*
X93820643Y-66124604D01*
X93825269Y-66144101D01*
X93829137Y-66166172D01*
X93832313Y-66192986D01*
X93834353Y-66219952D01*
X93834864Y-66226708D01*
G37*
G36*
X89425903Y-67903905D02*
G01*
X89486255Y-67926036D01*
X89539843Y-67965547D01*
X89581737Y-68020686D01*
X89583844Y-68024630D01*
X89601722Y-68083718D01*
X89598721Y-68145903D01*
X89576589Y-68206255D01*
X89537079Y-68259843D01*
X89481940Y-68301737D01*
X89477996Y-68303844D01*
X89418907Y-68321723D01*
X89356722Y-68318721D01*
X89296370Y-68296589D01*
X89242782Y-68257079D01*
X89200888Y-68201940D01*
X89198781Y-68197996D01*
X89180903Y-68138907D01*
X89183904Y-68076722D01*
X89206036Y-68016370D01*
X89245547Y-67962782D01*
X89300686Y-67920888D01*
X89304629Y-67918781D01*
X89363718Y-67900903D01*
X89425903Y-67903905D01*
G37*
G36*
X84512234Y-68324363D02*
G01*
X83447907Y-68320777D01*
X82383580Y-68317192D01*
X82276797Y-68283817D01*
X82181366Y-68249604D01*
X82037481Y-68178764D01*
X81909603Y-68090216D01*
X81798544Y-67984779D01*
X81705115Y-67863272D01*
X81630129Y-67726514D01*
X81574397Y-67575324D01*
X81572080Y-67567286D01*
X81566419Y-67546560D01*
X81561681Y-67525936D01*
X81557784Y-67503199D01*
X81554647Y-67476137D01*
X81552187Y-67442535D01*
X81550322Y-67400181D01*
X81548969Y-67346860D01*
X81548047Y-67280359D01*
X81547473Y-67198465D01*
X81547165Y-67098962D01*
X81547040Y-66979639D01*
X81547017Y-66838282D01*
X81547019Y-66775384D01*
X81547072Y-66643723D01*
X81547258Y-66533151D01*
X81547661Y-66441452D01*
X81548364Y-66366410D01*
X81549451Y-66305808D01*
X81551005Y-66257430D01*
X81553060Y-66219952D01*
X81995608Y-66219952D01*
X81995608Y-66838911D01*
X81995608Y-67457869D01*
X82042126Y-67551990D01*
X82055162Y-67577042D01*
X82121831Y-67675453D01*
X82203601Y-67755381D01*
X82299424Y-67815956D01*
X82408252Y-67856308D01*
X82417971Y-67858589D01*
X82438181Y-67862073D01*
X82464398Y-67865039D01*
X82498444Y-67867526D01*
X82542143Y-67869573D01*
X82597321Y-67871220D01*
X82665802Y-67872506D01*
X82749408Y-67873470D01*
X82849966Y-67874151D01*
X82969299Y-67874589D01*
X83109231Y-67874823D01*
X83271587Y-67874893D01*
X84063570Y-67874893D01*
X84060138Y-67047423D01*
X84056706Y-66219952D01*
X84016844Y-66135772D01*
X84001708Y-66105237D01*
X83951387Y-66023332D01*
X83892337Y-65957024D01*
X83819096Y-65899794D01*
X83804384Y-65890011D01*
X83773148Y-65869998D01*
X83743686Y-65853260D01*
X83713630Y-65839507D01*
X83680617Y-65828443D01*
X83642281Y-65819778D01*
X83596255Y-65813217D01*
X83540175Y-65808470D01*
X83471674Y-65805241D01*
X83388388Y-65803240D01*
X83287950Y-65802173D01*
X83167995Y-65801748D01*
X83026157Y-65801671D01*
X82961736Y-65801680D01*
X82829690Y-65801872D01*
X82718499Y-65802540D01*
X82625799Y-65803977D01*
X82549222Y-65806475D01*
X82486405Y-65810327D01*
X82434981Y-65815826D01*
X82392584Y-65823264D01*
X82356849Y-65832935D01*
X82325411Y-65845130D01*
X82295903Y-65860144D01*
X82265961Y-65878267D01*
X82233219Y-65899794D01*
X82207931Y-65917498D01*
X82139820Y-65976921D01*
X82084154Y-66047505D01*
X82035471Y-66135772D01*
X81995608Y-66219952D01*
X81553060Y-66219952D01*
X81553109Y-66219059D01*
X81555848Y-66188479D01*
X81559304Y-66163474D01*
X81563560Y-66141826D01*
X81568700Y-66121320D01*
X81574808Y-66099739D01*
X81608065Y-66001911D01*
X81675951Y-65860523D01*
X81762490Y-65733534D01*
X81866574Y-65622255D01*
X81987092Y-65527999D01*
X82122935Y-65452076D01*
X82155876Y-65436853D01*
X82195043Y-65419325D01*
X82231052Y-65404706D01*
X82266393Y-65392711D01*
X82303559Y-65383057D01*
X82345041Y-65375459D01*
X82393330Y-65369634D01*
X82450918Y-65365298D01*
X82520296Y-65362165D01*
X82603955Y-65359953D01*
X82704388Y-65358377D01*
X82824084Y-65357153D01*
X82965537Y-65355997D01*
X83042624Y-65355449D01*
X83201814Y-65354828D01*
X83337009Y-65355086D01*
X83448375Y-65356228D01*
X83536077Y-65358254D01*
X83600281Y-65361167D01*
X83641152Y-65364969D01*
X83773630Y-65393339D01*
X83916065Y-65445540D01*
X84048391Y-65517389D01*
X84168290Y-65607123D01*
X84273443Y-65712975D01*
X84361532Y-65833180D01*
X84430240Y-65965972D01*
X84437483Y-65983045D01*
X84449157Y-66010396D01*
X84459388Y-66035346D01*
X84468276Y-66059559D01*
X84475923Y-66084701D01*
X84482429Y-66112439D01*
X84487895Y-66144437D01*
X84492422Y-66182361D01*
X84496111Y-66227877D01*
X84499062Y-66282651D01*
X84501377Y-66348347D01*
X84503156Y-66426632D01*
X84504500Y-66519170D01*
X84505510Y-66627629D01*
X84506287Y-66753673D01*
X84506932Y-66898967D01*
X84507545Y-67065178D01*
X84508228Y-67253971D01*
X84510552Y-67874893D01*
X84512234Y-68324363D01*
G37*
G36*
X89850247Y-67479561D02*
G01*
X89910599Y-67501693D01*
X89964187Y-67541203D01*
X90006081Y-67596342D01*
X90008188Y-67600286D01*
X90026066Y-67659374D01*
X90023064Y-67721560D01*
X90000933Y-67781912D01*
X89961422Y-67835500D01*
X89906283Y-67877393D01*
X89902339Y-67879500D01*
X89843251Y-67897379D01*
X89781066Y-67894377D01*
X89720714Y-67872246D01*
X89667126Y-67832735D01*
X89625232Y-67777596D01*
X89623125Y-67773652D01*
X89605246Y-67714564D01*
X89608248Y-67652378D01*
X89630380Y-67592027D01*
X89669890Y-67538439D01*
X89725029Y-67496545D01*
X89728973Y-67494438D01*
X89788062Y-67476559D01*
X89850247Y-67479561D01*
G37*
G36*
X89597422Y-66626110D02*
G01*
X89597422Y-67153508D01*
X89565886Y-67220744D01*
X89535244Y-67276793D01*
X89471747Y-67355304D01*
X89392414Y-67415475D01*
X89296914Y-67457596D01*
X89278873Y-67462009D01*
X89245396Y-67466458D01*
X89198260Y-67469512D01*
X89134821Y-67471275D01*
X89052439Y-67471850D01*
X88948471Y-67471343D01*
X88651118Y-67468735D01*
X88570897Y-67429214D01*
X88488410Y-67377454D01*
X88420754Y-67308586D01*
X88368464Y-67221646D01*
X88360158Y-67203480D01*
X88351605Y-67181754D01*
X88345287Y-67158795D01*
X88340786Y-67130768D01*
X88337688Y-67093837D01*
X88335577Y-67044165D01*
X88334036Y-66977919D01*
X88332651Y-66891261D01*
X88328787Y-66629013D01*
X88272031Y-66621371D01*
X88261376Y-66619727D01*
X88184536Y-66597536D01*
X88107752Y-66559696D01*
X88041254Y-66511096D01*
X88000294Y-66464832D01*
X87959449Y-66399422D01*
X87927947Y-66328218D01*
X87910829Y-66260888D01*
X87902986Y-66201766D01*
X88754797Y-66201766D01*
X88754797Y-66413938D01*
X88754797Y-66626110D01*
X88966969Y-66626110D01*
X89179141Y-66626110D01*
X89179141Y-66413938D01*
X89179141Y-66201766D01*
X88966969Y-66201766D01*
X88754797Y-66201766D01*
X87902986Y-66201766D01*
X87774024Y-66201766D01*
X87760186Y-66201719D01*
X87688985Y-66198984D01*
X87635353Y-66190595D01*
X87593753Y-66174548D01*
X87558649Y-66148839D01*
X87524504Y-66111465D01*
X87510646Y-66093339D01*
X87495983Y-66066417D01*
X87489370Y-66035135D01*
X87487828Y-65989594D01*
X87488309Y-65960074D01*
X87492528Y-65924255D01*
X87503600Y-65896771D01*
X87524504Y-65867724D01*
X87535195Y-65854432D01*
X87550468Y-65836170D01*
X87565665Y-65821047D01*
X87582997Y-65808767D01*
X87604676Y-65799035D01*
X87632912Y-65791555D01*
X87669918Y-65786032D01*
X87717903Y-65782169D01*
X87779080Y-65779672D01*
X87855660Y-65778244D01*
X87949854Y-65777591D01*
X88063874Y-65777415D01*
X88199930Y-65777423D01*
X88754797Y-65777423D01*
X88754797Y-65646899D01*
X88754873Y-65629188D01*
X88757746Y-65558753D01*
X88766230Y-65505692D01*
X88782299Y-65464511D01*
X88807930Y-65429717D01*
X88845098Y-65395817D01*
X88863224Y-65381959D01*
X88890146Y-65367296D01*
X88921428Y-65360683D01*
X88966969Y-65359141D01*
X88996490Y-65359622D01*
X89032308Y-65363840D01*
X89059792Y-65374913D01*
X89088839Y-65395817D01*
X89095903Y-65401625D01*
X89131211Y-65435547D01*
X89155186Y-65471342D01*
X89169830Y-65514548D01*
X89177147Y-65570701D01*
X89179141Y-65645337D01*
X89179141Y-65774299D01*
X89238263Y-65782141D01*
X89298671Y-65796862D01*
X89370111Y-65827282D01*
X89436678Y-65867614D01*
X89488684Y-65912804D01*
X89507262Y-65935639D01*
X89539312Y-65982988D01*
X89565473Y-66030574D01*
X89597422Y-66098711D01*
X89597422Y-66413938D01*
X89597422Y-66626110D01*
G37*
G36*
X90269521Y-65783965D02*
G01*
X90305339Y-65788184D01*
X90332823Y-65799256D01*
X90361870Y-65820161D01*
X90379403Y-65834348D01*
X90398137Y-65850628D01*
X90413366Y-65867283D01*
X90425433Y-65886702D01*
X90434683Y-65911270D01*
X90441458Y-65943376D01*
X90446102Y-65985406D01*
X90448960Y-66039749D01*
X90450376Y-66108790D01*
X90450692Y-66194918D01*
X90450253Y-66300519D01*
X90449403Y-66427982D01*
X90446110Y-66914865D01*
X90409434Y-66960166D01*
X90400152Y-66970897D01*
X90365152Y-67004099D01*
X90330627Y-67028706D01*
X90294524Y-67042989D01*
X90232961Y-67049004D01*
X90171004Y-67036628D01*
X90116885Y-67006708D01*
X90104261Y-66996493D01*
X90084931Y-66979996D01*
X90069168Y-66963472D01*
X90056610Y-66944501D01*
X90046892Y-66920660D01*
X90039651Y-66889526D01*
X90034522Y-66848678D01*
X90031142Y-66795693D01*
X90029146Y-66728148D01*
X90028171Y-66643623D01*
X90027853Y-66539693D01*
X90027828Y-66413938D01*
X90027827Y-66337702D01*
X90027974Y-66225001D01*
X90028627Y-66132706D01*
X90030155Y-66058391D01*
X90032927Y-65999633D01*
X90037310Y-65954005D01*
X90043676Y-65919082D01*
X90052391Y-65892439D01*
X90063825Y-65871651D01*
X90078347Y-65854292D01*
X90096326Y-65837937D01*
X90118129Y-65820161D01*
X90136255Y-65806303D01*
X90163177Y-65791640D01*
X90194459Y-65785027D01*
X90240000Y-65783485D01*
X90269521Y-65783965D01*
G37*
G36*
X87304185Y-66206530D02*
G01*
X87364537Y-66228662D01*
X87418125Y-66268172D01*
X87460019Y-66323311D01*
X87462125Y-66327255D01*
X87480004Y-66386343D01*
X87477002Y-66448529D01*
X87454871Y-66508881D01*
X87415360Y-66562469D01*
X87360221Y-66604362D01*
X87356277Y-66606469D01*
X87297189Y-66624348D01*
X87235003Y-66621346D01*
X87174652Y-66599215D01*
X87121064Y-66559704D01*
X87079170Y-66504565D01*
X87077063Y-66500621D01*
X87059184Y-66441533D01*
X87062186Y-66379347D01*
X87084318Y-66318996D01*
X87123828Y-66265408D01*
X87178967Y-66223514D01*
X87182911Y-66221407D01*
X87242000Y-66203528D01*
X87304185Y-66206530D01*
G37*
G36*
X85810529Y-66201781D02*
G01*
X85900167Y-66202337D01*
X85969922Y-66204311D01*
X86023278Y-66208525D01*
X86063718Y-66215805D01*
X86094726Y-66226975D01*
X86119786Y-66242859D01*
X86142381Y-66264282D01*
X86165997Y-66292068D01*
X86179855Y-66310193D01*
X86194518Y-66337116D01*
X86201131Y-66368397D01*
X86202673Y-66413938D01*
X86202192Y-66443459D01*
X86197973Y-66479277D01*
X86186901Y-66506761D01*
X86165997Y-66535808D01*
X86156611Y-66546643D01*
X86121721Y-66579528D01*
X86087379Y-66603616D01*
X86071470Y-66610967D01*
X86051968Y-66616683D01*
X86025822Y-66620773D01*
X85989512Y-66623500D01*
X85939517Y-66625124D01*
X85872317Y-66625907D01*
X85784391Y-66626110D01*
X85758254Y-66626095D01*
X85668615Y-66625539D01*
X85598860Y-66623566D01*
X85545505Y-66619351D01*
X85505065Y-66612071D01*
X85474057Y-66600901D01*
X85448997Y-66585017D01*
X85426401Y-66563594D01*
X85402786Y-66535808D01*
X85388928Y-66517683D01*
X85374265Y-66490761D01*
X85367652Y-66459479D01*
X85366110Y-66413938D01*
X85366591Y-66384417D01*
X85370809Y-66348599D01*
X85381881Y-66321115D01*
X85402786Y-66292068D01*
X85409024Y-66284421D01*
X85432054Y-66258316D01*
X85454943Y-66238367D01*
X85481173Y-66223748D01*
X85514229Y-66213636D01*
X85557596Y-66207206D01*
X85614755Y-66203635D01*
X85689193Y-66202096D01*
X85784391Y-66201766D01*
X85810529Y-66201781D01*
G37*
G36*
X87259390Y-65355637D02*
G01*
X87311412Y-65360392D01*
X87350941Y-65370252D01*
X87382423Y-65386511D01*
X87410303Y-65410456D01*
X87439028Y-65443380D01*
X87452886Y-65461506D01*
X87467549Y-65488428D01*
X87474162Y-65519710D01*
X87475704Y-65565251D01*
X87475223Y-65594771D01*
X87471004Y-65630590D01*
X87459932Y-65658074D01*
X87439028Y-65687121D01*
X87433220Y-65694184D01*
X87399298Y-65729493D01*
X87363503Y-65753468D01*
X87320297Y-65768112D01*
X87264144Y-65775429D01*
X87189508Y-65777423D01*
X87060546Y-65777423D01*
X87052794Y-65835012D01*
X87029181Y-65926731D01*
X86984326Y-66011935D01*
X86921200Y-66085309D01*
X86842482Y-66143756D01*
X86750852Y-66184177D01*
X86729426Y-66189036D01*
X86679541Y-66195137D01*
X86613420Y-66199236D01*
X86535897Y-66200955D01*
X86522902Y-66201000D01*
X86446525Y-66199891D01*
X86388909Y-66195240D01*
X86345324Y-66185560D01*
X86311042Y-66169362D01*
X86281335Y-66145160D01*
X86251473Y-66111465D01*
X86237615Y-66093339D01*
X86222952Y-66066417D01*
X86216339Y-66035135D01*
X86214797Y-65989594D01*
X86215278Y-65960074D01*
X86219497Y-65924255D01*
X86230569Y-65896771D01*
X86251473Y-65867724D01*
X86257281Y-65860661D01*
X86291203Y-65825352D01*
X86326998Y-65801377D01*
X86370204Y-65786733D01*
X86426357Y-65779416D01*
X86500993Y-65777423D01*
X86629955Y-65777423D01*
X86637798Y-65718301D01*
X86652518Y-65657892D01*
X86682938Y-65586453D01*
X86723270Y-65519886D01*
X86768460Y-65467879D01*
X86791294Y-65449302D01*
X86838643Y-65417253D01*
X86886230Y-65391093D01*
X86886891Y-65390784D01*
X86915350Y-65378318D01*
X86942135Y-65369469D01*
X86972432Y-65363501D01*
X87011423Y-65359673D01*
X87064294Y-65357249D01*
X87136229Y-65355489D01*
X87190430Y-65354700D01*
X87259390Y-65355637D01*
G37*
G36*
X86031154Y-65357843D02*
G01*
X86091506Y-65379974D01*
X86145094Y-65419485D01*
X86186988Y-65474624D01*
X86189094Y-65478568D01*
X86206973Y-65537656D01*
X86203971Y-65599841D01*
X86181840Y-65660193D01*
X86142329Y-65713781D01*
X86087190Y-65755675D01*
X86083246Y-65757782D01*
X86024158Y-65775661D01*
X85961972Y-65772659D01*
X85901621Y-65750527D01*
X85848033Y-65711017D01*
X85806139Y-65655878D01*
X85804032Y-65651934D01*
X85786153Y-65592845D01*
X85789155Y-65530660D01*
X85811287Y-65470308D01*
X85850797Y-65416720D01*
X85905936Y-65374826D01*
X85909880Y-65372719D01*
X85968969Y-65354841D01*
X86031154Y-65357843D01*
G37*
G36*
X85182466Y-65357843D02*
G01*
X85242818Y-65379974D01*
X85296406Y-65419485D01*
X85338300Y-65474624D01*
X85340407Y-65478568D01*
X85358286Y-65537656D01*
X85355284Y-65599841D01*
X85333152Y-65660193D01*
X85293642Y-65713781D01*
X85238503Y-65755675D01*
X85234559Y-65757782D01*
X85175470Y-65775661D01*
X85113285Y-65772659D01*
X85052933Y-65750527D01*
X84999345Y-65711017D01*
X84957451Y-65655878D01*
X84955345Y-65651934D01*
X84937466Y-65592845D01*
X84940468Y-65530660D01*
X84962599Y-65470308D01*
X85002110Y-65416720D01*
X85057249Y-65374826D01*
X85061193Y-65372719D01*
X85120281Y-65354841D01*
X85182466Y-65357843D01*
G37*
G36*
X92231384Y-75539857D02*
G01*
X92233767Y-75539874D01*
X92364860Y-75540820D01*
X92474152Y-75541922D01*
X92564052Y-75543562D01*
X92636966Y-75546121D01*
X92695302Y-75549980D01*
X92741468Y-75555522D01*
X92777869Y-75563128D01*
X92806914Y-75573178D01*
X92831009Y-75586056D01*
X92852562Y-75602142D01*
X92873980Y-75621818D01*
X92897671Y-75645465D01*
X92909963Y-75658044D01*
X92934519Y-75685786D01*
X92954069Y-75713994D01*
X92969178Y-75745640D01*
X92980412Y-75783698D01*
X92988335Y-75831138D01*
X92993514Y-75890932D01*
X92996513Y-75966054D01*
X92997898Y-76059475D01*
X92998234Y-76174167D01*
X92998233Y-76185993D01*
X92998060Y-76286178D01*
X92997472Y-76365555D01*
X92996294Y-76427237D01*
X92994351Y-76474337D01*
X92991467Y-76509967D01*
X92987467Y-76537240D01*
X92982175Y-76559270D01*
X92975417Y-76579170D01*
X92961116Y-76612451D01*
X92911593Y-76688925D01*
X92845570Y-76747667D01*
X92763283Y-76788447D01*
X92759297Y-76789821D01*
X92738764Y-76795876D01*
X92715355Y-76800551D01*
X92686015Y-76803982D01*
X92647693Y-76806307D01*
X92597336Y-76807661D01*
X92531892Y-76808182D01*
X92448308Y-76808007D01*
X92343532Y-76807272D01*
X92258720Y-76806513D01*
X92172802Y-76805483D01*
X92105695Y-76804159D01*
X92054389Y-76802330D01*
X92015869Y-76799784D01*
X91987125Y-76796309D01*
X91965143Y-76791695D01*
X91946911Y-76785729D01*
X91929417Y-76778201D01*
X91911927Y-76769356D01*
X91844741Y-76720658D01*
X91788561Y-76656733D01*
X91749978Y-76584689D01*
X91747512Y-76577974D01*
X91741765Y-76560389D01*
X91737097Y-76541181D01*
X91733396Y-76517835D01*
X91730552Y-76487837D01*
X91728452Y-76448675D01*
X91726984Y-76397833D01*
X91726037Y-76332798D01*
X91725499Y-76251056D01*
X91725258Y-76150094D01*
X91725203Y-76027398D01*
X91725203Y-75536326D01*
X92231384Y-75539857D01*
G37*
G36*
X84333779Y-74693403D02*
G01*
X84394131Y-74715535D01*
X84447719Y-74755046D01*
X84489613Y-74810185D01*
X84491720Y-74814128D01*
X84509598Y-74873217D01*
X84506597Y-74935402D01*
X84484465Y-74995754D01*
X84444954Y-75049342D01*
X84389815Y-75091236D01*
X84385872Y-75093343D01*
X84326783Y-75111221D01*
X84264598Y-75108220D01*
X84204246Y-75086088D01*
X84150658Y-75046577D01*
X84108764Y-74991439D01*
X84106657Y-74987495D01*
X84088779Y-74928406D01*
X84091780Y-74866221D01*
X84113912Y-74805869D01*
X84153423Y-74752281D01*
X84208561Y-74710387D01*
X84212505Y-74708280D01*
X84271594Y-74690402D01*
X84333779Y-74693403D01*
G37*
G36*
X92382911Y-66207830D02*
G01*
X92493387Y-66208044D01*
X92583013Y-66209006D01*
X92654691Y-66211266D01*
X92711324Y-66215379D01*
X92755813Y-66221897D01*
X92791060Y-66231372D01*
X92819967Y-66244358D01*
X92845437Y-66261407D01*
X92870371Y-66283071D01*
X92897671Y-66309904D01*
X92909819Y-66322333D01*
X92934412Y-66350094D01*
X92953993Y-66378308D01*
X92969126Y-66409948D01*
X92980378Y-66447989D01*
X92988316Y-66495404D01*
X92993504Y-66555166D01*
X92996509Y-66630251D01*
X92997897Y-66723632D01*
X92998234Y-66838282D01*
X92998220Y-66878999D01*
X92997991Y-66972580D01*
X92997331Y-67046251D01*
X92996052Y-67103171D01*
X92993963Y-67146496D01*
X92990876Y-67179386D01*
X92986600Y-67204997D01*
X92980948Y-67226487D01*
X92973729Y-67247015D01*
X92952225Y-67292788D01*
X92899625Y-67364059D01*
X92831815Y-67420144D01*
X92753063Y-67456978D01*
X92739128Y-67460295D01*
X92711091Y-67464095D01*
X92670643Y-67467177D01*
X92615811Y-67469603D01*
X92544623Y-67471434D01*
X92455106Y-67472734D01*
X92345289Y-67473564D01*
X92213198Y-67473986D01*
X91725203Y-67474797D01*
X91725203Y-66984226D01*
X91725209Y-66936113D01*
X91725320Y-66821826D01*
X91725659Y-66728340D01*
X91726336Y-66653139D01*
X91727465Y-66593708D01*
X91729157Y-66547533D01*
X91731524Y-66512096D01*
X91734677Y-66484884D01*
X91738730Y-66463380D01*
X91743793Y-66445069D01*
X91749978Y-66427435D01*
X91757496Y-66409312D01*
X91801027Y-66338609D01*
X91860532Y-66277776D01*
X91929417Y-66233923D01*
X91932408Y-66232550D01*
X91949168Y-66225485D01*
X91966864Y-66219910D01*
X91988410Y-66215650D01*
X92016720Y-66212527D01*
X92054708Y-66210366D01*
X92105287Y-66208992D01*
X92171373Y-66208228D01*
X92255879Y-66207899D01*
X92361718Y-66207828D01*
X92382911Y-66207830D01*
G37*
G36*
X83036133Y-66207829D02*
G01*
X83140152Y-66207922D01*
X83223074Y-66208298D01*
X83287800Y-66209128D01*
X83337233Y-66210584D01*
X83374274Y-66212836D01*
X83401825Y-66216057D01*
X83422789Y-66220417D01*
X83440068Y-66226088D01*
X83456563Y-66233241D01*
X83479675Y-66245322D01*
X83545478Y-66294595D01*
X83600450Y-66357682D01*
X83637886Y-66427404D01*
X83640365Y-66434156D01*
X83646113Y-66451743D01*
X83650781Y-66470954D01*
X83654481Y-66494301D01*
X83657326Y-66524299D01*
X83659425Y-66563461D01*
X83660893Y-66614301D01*
X83661839Y-66679334D01*
X83662377Y-66761073D01*
X83662618Y-66862033D01*
X83662673Y-66984727D01*
X83662673Y-67475799D01*
X83156492Y-67472267D01*
X83032507Y-67471372D01*
X82930214Y-67470490D01*
X82847349Y-67469490D01*
X82781502Y-67468238D01*
X82730262Y-67466602D01*
X82691217Y-67464448D01*
X82661956Y-67461643D01*
X82640070Y-67458054D01*
X82623145Y-67453549D01*
X82608773Y-67447994D01*
X82594541Y-67441256D01*
X82594160Y-67441067D01*
X82524407Y-67395706D01*
X82464380Y-67335835D01*
X82421339Y-67268687D01*
X82415701Y-67256028D01*
X82409451Y-67238460D01*
X82404565Y-67217599D01*
X82400832Y-67190451D01*
X82398040Y-67154023D01*
X82395975Y-67105320D01*
X82394425Y-67041350D01*
X82393178Y-66959119D01*
X82392021Y-66855634D01*
X82391161Y-66766262D01*
X82390611Y-66681029D01*
X82390710Y-66614308D01*
X82391614Y-66562999D01*
X82393484Y-66524003D01*
X82396475Y-66494222D01*
X82400748Y-66470557D01*
X82406459Y-66449908D01*
X82413766Y-66429177D01*
X82420773Y-66412104D01*
X82464457Y-66339939D01*
X82524217Y-66278306D01*
X82593856Y-66233923D01*
X82596847Y-66232550D01*
X82613607Y-66225485D01*
X82631303Y-66219910D01*
X82652849Y-66215650D01*
X82681159Y-66212527D01*
X82719147Y-66210366D01*
X82769726Y-66208992D01*
X82835812Y-66208228D01*
X82920318Y-66207899D01*
X83026157Y-66207828D01*
X83036133Y-66207829D01*
G37*
%TD*%
M02*
