%TF.GenerationSoftware,KiCad,Pcbnew,8.0.7*%
%TF.CreationDate,2025-02-21T23:23:42-08:00*%
%TF.ProjectId,Attiny2x4x8x Programmers,41747469-6e79-4327-9834-783878205072,rev?*%
%TF.SameCoordinates,Original*%
%TF.FileFunction,Soldermask,Bot*%
%TF.FilePolarity,Negative*%
%FSLAX46Y46*%
G04 Gerber Fmt 4.6, Leading zero omitted, Abs format (unit mm)*
G04 Created by KiCad (PCBNEW 8.0.7) date 2025-02-21 23:23:42*
%MOMM*%
%LPD*%
G01*
G04 APERTURE LIST*
%ADD10R,1.600000X1.600000*%
%ADD11C,1.600000*%
%ADD12O,1.600000X1.600000*%
%ADD13R,1.700000X1.700000*%
%ADD14O,1.700000X1.700000*%
%ADD15R,1.295400X1.295400*%
%ADD16C,1.295400*%
%ADD17C,1.498600*%
%ADD18R,1.800000X1.800000*%
%ADD19C,1.800000*%
G04 APERTURE END LIST*
D10*
%TO.C,C1*%
X97600000Y-62900000D03*
D11*
X95100001Y-62899998D03*
%TD*%
D10*
%TO.C,A1*%
X80000000Y-70000000D03*
D12*
X80000000Y-72540000D03*
X80000000Y-75080000D03*
X80000000Y-77620000D03*
X80000000Y-80160000D03*
X80000000Y-82700000D03*
X80000000Y-85240000D03*
X80000000Y-87780000D03*
X80000000Y-90320000D03*
X80000000Y-92860000D03*
X80000000Y-95400000D03*
X80000000Y-97940000D03*
X80000000Y-100480000D03*
X80000000Y-103020000D03*
X80000000Y-105560000D03*
X95240000Y-105560000D03*
X95240000Y-103020000D03*
X95240000Y-100480000D03*
X95240000Y-97940000D03*
X95240000Y-95400000D03*
X95240000Y-92860000D03*
X95240000Y-90320000D03*
X95240000Y-87780000D03*
X95240000Y-85240000D03*
X95240000Y-82700000D03*
X95240000Y-80160000D03*
X95240000Y-77620000D03*
X95240000Y-75080000D03*
X95240000Y-72540000D03*
X95240000Y-70000000D03*
%TD*%
D13*
%TO.C,J1*%
X74800000Y-70000000D03*
D14*
X74800000Y-72540000D03*
X74800000Y-75080000D03*
X74800000Y-77620000D03*
X74800000Y-80160000D03*
X74800000Y-82700000D03*
X74800000Y-85240000D03*
X74800000Y-87780000D03*
X74800000Y-90320000D03*
X74800000Y-92860000D03*
X74800000Y-95400000D03*
X74800000Y-97940000D03*
X74800000Y-100480000D03*
X74800000Y-103020000D03*
X74800000Y-105560000D03*
%TD*%
D10*
%TO.C,U1*%
X87295000Y-48135000D03*
D12*
X84755000Y-48135000D03*
X82215000Y-48135000D03*
X79675000Y-48135000D03*
X77135000Y-48135000D03*
X74595000Y-48135000D03*
X72055000Y-48135000D03*
X72055000Y-55755000D03*
X74595000Y-55755000D03*
X77135000Y-55755000D03*
X79675000Y-55755000D03*
X82215000Y-55755000D03*
X84755000Y-55755000D03*
X87295000Y-55755000D03*
%TD*%
D15*
%TO.C,SW1*%
X102700000Y-65300000D03*
D16*
X102700000Y-63300000D03*
X102700000Y-61299999D03*
D17*
X102700000Y-67400001D03*
X102700000Y-59200000D03*
%TD*%
D13*
%TO.C,J2*%
X100600000Y-70000000D03*
D14*
X100600000Y-72540000D03*
X100600000Y-75080000D03*
X100600000Y-77620000D03*
X100600000Y-80160000D03*
X100600000Y-82700000D03*
X100600000Y-85240000D03*
X100600000Y-87780000D03*
X100600000Y-90320000D03*
X100600000Y-92860000D03*
X100600000Y-95400000D03*
X100600000Y-97940000D03*
X100600000Y-100480000D03*
X100600000Y-103020000D03*
X100600000Y-105560000D03*
%TD*%
D13*
%TO.C,J3*%
X87125000Y-41325000D03*
D14*
X87125000Y-38785000D03*
X89665000Y-41325000D03*
X89665000Y-38785000D03*
X92205000Y-41325000D03*
X92205000Y-38785000D03*
%TD*%
D10*
%TO.C,U2*%
X101555000Y-48105000D03*
D12*
X99014999Y-48105000D03*
X96474999Y-48105002D03*
X93934996Y-48104998D03*
X93935001Y-55724995D03*
X96475006Y-55724998D03*
X99015000Y-55724997D03*
X101554998Y-55725004D03*
%TD*%
D18*
%TO.C,D1*%
X86575000Y-62675000D03*
D19*
X89115000Y-62675000D03*
%TD*%
D11*
%TO.C,R1*%
X82305000Y-62650000D03*
D12*
X72145000Y-62650000D03*
%TD*%
M02*
