%TF.GenerationSoftware,KiCad,Pcbnew,8.0.7*%
%TF.CreationDate,2025-02-21T23:23:41-08:00*%
%TF.ProjectId,Attiny2x4x8x Programmers,41747469-6e79-4327-9834-783878205072,rev?*%
%TF.SameCoordinates,Original*%
%TF.FileFunction,Copper,L1,Top*%
%TF.FilePolarity,Positive*%
%FSLAX46Y46*%
G04 Gerber Fmt 4.6, Leading zero omitted, Abs format (unit mm)*
G04 Created by KiCad (PCBNEW 8.0.7) date 2025-02-21 23:23:41*
%MOMM*%
%LPD*%
G01*
G04 APERTURE LIST*
%TA.AperFunction,ComponentPad*%
%ADD10R,1.600000X1.600000*%
%TD*%
%TA.AperFunction,ComponentPad*%
%ADD11C,1.600000*%
%TD*%
%TA.AperFunction,ComponentPad*%
%ADD12O,1.600000X1.600000*%
%TD*%
%TA.AperFunction,ComponentPad*%
%ADD13R,1.700000X1.700000*%
%TD*%
%TA.AperFunction,ComponentPad*%
%ADD14O,1.700000X1.700000*%
%TD*%
%TA.AperFunction,ComponentPad*%
%ADD15R,1.295400X1.295400*%
%TD*%
%TA.AperFunction,ComponentPad*%
%ADD16C,1.295400*%
%TD*%
%TA.AperFunction,ComponentPad*%
%ADD17C,1.498600*%
%TD*%
%TA.AperFunction,ComponentPad*%
%ADD18R,1.800000X1.800000*%
%TD*%
%TA.AperFunction,ComponentPad*%
%ADD19C,1.800000*%
%TD*%
%TA.AperFunction,Conductor*%
%ADD20C,0.750000*%
%TD*%
%TA.AperFunction,Conductor*%
%ADD21C,1.000000*%
%TD*%
G04 APERTURE END LIST*
D10*
%TO.P,C1,1*%
%TO.N,Net-(C1-Pad1)*%
X97600000Y-62900000D03*
D11*
%TO.P,C1,2*%
%TO.N,GND*%
X95100001Y-62899998D03*
%TD*%
D10*
%TO.P,A1,1,D1/TX*%
%TO.N,Net-(A1-D1{slash}TX)*%
X80000000Y-70000000D03*
D12*
%TO.P,A1,2,D0/RX*%
%TO.N,Net-(A1-D0{slash}RX)*%
X80000000Y-72540000D03*
%TO.P,A1,3,~{RESET}*%
%TO.N,/RST*%
X80000000Y-75080000D03*
%TO.P,A1,4,GND*%
%TO.N,GND*%
X80000000Y-77620000D03*
%TO.P,A1,5,D2*%
%TO.N,Net-(A1-D2)*%
X80000000Y-80160000D03*
%TO.P,A1,6,D3*%
%TO.N,Net-(A1-D3)*%
X80000000Y-82700000D03*
%TO.P,A1,7,D4*%
%TO.N,Net-(A1-D4)*%
X80000000Y-85240000D03*
%TO.P,A1,8,D5*%
%TO.N,Net-(A1-D5)*%
X80000000Y-87780000D03*
%TO.P,A1,9,D6*%
%TO.N,Net-(A1-D6)*%
X80000000Y-90320000D03*
%TO.P,A1,10,D7*%
%TO.N,Net-(A1-D7)*%
X80000000Y-92860000D03*
%TO.P,A1,11,D8*%
%TO.N,Net-(A1-D8)*%
X80000000Y-95400000D03*
%TO.P,A1,12,D9*%
%TO.N,Net-(A1-D9)*%
X80000000Y-97940000D03*
%TO.P,A1,13,D10*%
%TO.N,/SS*%
X80000000Y-100480000D03*
%TO.P,A1,14,D11*%
%TO.N,/MOSI*%
X80000000Y-103020000D03*
%TO.P,A1,15,D12*%
%TO.N,/MISO*%
X80000000Y-105560000D03*
%TO.P,A1,16,D13*%
%TO.N,/SCK*%
X95240000Y-105560000D03*
%TO.P,A1,17,3V3*%
%TO.N,Net-(A1-3V3)*%
X95240000Y-103020000D03*
%TO.P,A1,18,AREF*%
%TO.N,Net-(A1-AREF)*%
X95240000Y-100480000D03*
%TO.P,A1,19,A0*%
%TO.N,Net-(A1-A0)*%
X95240000Y-97940000D03*
%TO.P,A1,20,A1*%
%TO.N,Net-(A1-A1)*%
X95240000Y-95400000D03*
%TO.P,A1,21,A2*%
%TO.N,Net-(A1-A2)*%
X95240000Y-92860000D03*
%TO.P,A1,22,A3*%
%TO.N,Net-(A1-A3)*%
X95240000Y-90320000D03*
%TO.P,A1,23,A4*%
%TO.N,Net-(A1-A4)*%
X95240000Y-87780000D03*
%TO.P,A1,24,A5*%
%TO.N,Net-(A1-A5)*%
X95240000Y-85240000D03*
%TO.P,A1,25,A6*%
%TO.N,Net-(A1-A6)*%
X95240000Y-82700000D03*
%TO.P,A1,26,A7*%
%TO.N,Net-(A1-A7)*%
X95240000Y-80160000D03*
%TO.P,A1,27,+5V*%
%TO.N,+5V*%
X95240000Y-77620000D03*
%TO.P,A1,28,~{RESET}*%
%TO.N,/RST*%
X95240000Y-75080000D03*
%TO.P,A1,29,GND*%
%TO.N,GND*%
X95240000Y-72540000D03*
%TO.P,A1,30,VIN*%
%TO.N,Net-(A1-VIN)*%
X95240000Y-70000000D03*
%TD*%
D13*
%TO.P,J1,1,Pin_1*%
%TO.N,Net-(A1-D1{slash}TX)*%
X74800000Y-70000000D03*
D14*
%TO.P,J1,2,Pin_2*%
%TO.N,Net-(A1-D0{slash}RX)*%
X74800000Y-72540000D03*
%TO.P,J1,3,Pin_3*%
%TO.N,/RST*%
X74800000Y-75080000D03*
%TO.P,J1,4,Pin_4*%
%TO.N,GND*%
X74800000Y-77620000D03*
%TO.P,J1,5,Pin_5*%
%TO.N,Net-(A1-D2)*%
X74800000Y-80160000D03*
%TO.P,J1,6,Pin_6*%
%TO.N,Net-(A1-D3)*%
X74800000Y-82700000D03*
%TO.P,J1,7,Pin_7*%
%TO.N,Net-(A1-D4)*%
X74800000Y-85240000D03*
%TO.P,J1,8,Pin_8*%
%TO.N,Net-(A1-D5)*%
X74800000Y-87780000D03*
%TO.P,J1,9,Pin_9*%
%TO.N,Net-(A1-D6)*%
X74800000Y-90320000D03*
%TO.P,J1,10,Pin_10*%
%TO.N,Net-(A1-D7)*%
X74800000Y-92860000D03*
%TO.P,J1,11,Pin_11*%
%TO.N,Net-(A1-D8)*%
X74800000Y-95400000D03*
%TO.P,J1,12,Pin_12*%
%TO.N,Net-(A1-D9)*%
X74800000Y-97940000D03*
%TO.P,J1,13,Pin_13*%
%TO.N,/SS*%
X74800000Y-100480000D03*
%TO.P,J1,14,Pin_14*%
%TO.N,/MOSI*%
X74800000Y-103020000D03*
%TO.P,J1,15,Pin_15*%
%TO.N,/MISO*%
X74800000Y-105560000D03*
%TD*%
D10*
%TO.P,U1,1,VCC*%
%TO.N,+5V*%
X87295000Y-48135000D03*
D12*
%TO.P,U1,2,XTAL1/PB0*%
%TO.N,unconnected-(U1-XTAL1{slash}PB0-Pad2)*%
X84755000Y-48135000D03*
%TO.P,U1,3,XTAL2/PB1*%
%TO.N,unconnected-(U1-XTAL2{slash}PB1-Pad3)*%
X82215000Y-48135000D03*
%TO.P,U1,4,~{RESET}/PB3*%
%TO.N,/SS*%
X79675000Y-48135000D03*
%TO.P,U1,5,PB2*%
%TO.N,unconnected-(U1-PB2-Pad5)*%
X77135000Y-48135000D03*
%TO.P,U1,6,PA7*%
%TO.N,unconnected-(U1-PA7-Pad6)*%
X74595000Y-48135000D03*
%TO.P,U1,7,PA6*%
%TO.N,/MOSI*%
X72055000Y-48135000D03*
%TO.P,U1,8,PA5*%
%TO.N,/MISO*%
X72055000Y-55755000D03*
%TO.P,U1,9,PA4*%
%TO.N,/SCK*%
X74595000Y-55755000D03*
%TO.P,U1,10,PA3*%
%TO.N,unconnected-(U1-PA3-Pad10)*%
X77135000Y-55755000D03*
%TO.P,U1,11,PA2*%
%TO.N,unconnected-(U1-PA2-Pad11)*%
X79675000Y-55755000D03*
%TO.P,U1,12,PA1*%
%TO.N,unconnected-(U1-PA1-Pad12)*%
X82215000Y-55755000D03*
%TO.P,U1,13,AREF/PA0*%
%TO.N,unconnected-(U1-AREF{slash}PA0-Pad13)*%
X84755000Y-55755000D03*
%TO.P,U1,14,GND*%
%TO.N,GND*%
X87295000Y-55755000D03*
%TD*%
D15*
%TO.P,SW1,1,1*%
%TO.N,/RST*%
X102700000Y-65300000D03*
D16*
%TO.P,SW1,2,2*%
%TO.N,Net-(C1-Pad1)*%
X102700000Y-63300000D03*
%TO.P,SW1,3,3*%
X102700000Y-61299999D03*
D17*
%TO.P,SW1,4*%
%TO.N,N/C*%
X102700000Y-67400001D03*
%TO.P,SW1,5*%
X102700000Y-59200000D03*
%TD*%
D13*
%TO.P,J2,1,Pin_1*%
%TO.N,Net-(A1-VIN)*%
X100600000Y-70000000D03*
D14*
%TO.P,J2,2,Pin_2*%
%TO.N,GND*%
X100600000Y-72540000D03*
%TO.P,J2,3,Pin_3*%
%TO.N,/RST*%
X100600000Y-75080000D03*
%TO.P,J2,4,Pin_4*%
%TO.N,+5V*%
X100600000Y-77620000D03*
%TO.P,J2,5,Pin_5*%
%TO.N,Net-(A1-A7)*%
X100600000Y-80160000D03*
%TO.P,J2,6,Pin_6*%
%TO.N,Net-(A1-A6)*%
X100600000Y-82700000D03*
%TO.P,J2,7,Pin_7*%
%TO.N,Net-(A1-A5)*%
X100600000Y-85240000D03*
%TO.P,J2,8,Pin_8*%
%TO.N,Net-(A1-A4)*%
X100600000Y-87780000D03*
%TO.P,J2,9,Pin_9*%
%TO.N,Net-(A1-A3)*%
X100600000Y-90320000D03*
%TO.P,J2,10,Pin_10*%
%TO.N,Net-(A1-A2)*%
X100600000Y-92860000D03*
%TO.P,J2,11,Pin_11*%
%TO.N,Net-(A1-A1)*%
X100600000Y-95400000D03*
%TO.P,J2,12,Pin_12*%
%TO.N,Net-(A1-A0)*%
X100600000Y-97940000D03*
%TO.P,J2,13,Pin_13*%
%TO.N,Net-(A1-AREF)*%
X100600000Y-100480000D03*
%TO.P,J2,14,Pin_14*%
%TO.N,Net-(A1-3V3)*%
X100600000Y-103020000D03*
%TO.P,J2,15,Pin_15*%
%TO.N,/SCK*%
X100600000Y-105560000D03*
%TD*%
D13*
%TO.P,J3,1,Pin_1*%
%TO.N,/MISO*%
X87125000Y-41325000D03*
D14*
%TO.P,J3,2,Pin_2*%
%TO.N,+5V*%
X87125000Y-38785000D03*
%TO.P,J3,3,Pin_3*%
%TO.N,/SCK*%
X89665000Y-41325000D03*
%TO.P,J3,4,Pin_4*%
%TO.N,/MOSI*%
X89665000Y-38785000D03*
%TO.P,J3,5,Pin_5*%
%TO.N,/SS*%
X92205000Y-41325000D03*
%TO.P,J3,6,Pin_6*%
%TO.N,GND*%
X92205000Y-38785000D03*
%TD*%
D10*
%TO.P,U2,1,~{RESET}/PB5*%
%TO.N,/SS*%
X101555000Y-48105000D03*
D12*
%TO.P,U2,2,XTAL1/PB3*%
%TO.N,unconnected-(U2-XTAL1{slash}PB3-Pad2)*%
X99014999Y-48105000D03*
%TO.P,U2,3,XTAL2/PB4*%
%TO.N,unconnected-(U2-XTAL2{slash}PB4-Pad3)*%
X96474999Y-48105002D03*
%TO.P,U2,4,GND*%
%TO.N,GND*%
X93934996Y-48104998D03*
%TO.P,U2,5,AREF/PB0*%
%TO.N,/MOSI*%
X93935001Y-55724995D03*
%TO.P,U2,6,PB1*%
%TO.N,/MISO*%
X96475006Y-55724998D03*
%TO.P,U2,7,PB2*%
%TO.N,/SCK*%
X99015000Y-55724997D03*
%TO.P,U2,8,VCC*%
%TO.N,+5V*%
X101554998Y-55725004D03*
%TD*%
D18*
%TO.P,D1,1,K*%
%TO.N,Net-(D1-K)*%
X86575000Y-62675000D03*
D19*
%TO.P,D1,2,A*%
%TO.N,/MISO*%
X89115000Y-62675000D03*
%TD*%
D11*
%TO.P,R1,1*%
%TO.N,Net-(D1-K)*%
X82305000Y-62650000D03*
D12*
%TO.P,R1,2*%
%TO.N,GND*%
X72145000Y-62650000D03*
%TD*%
D20*
%TO.N,/MISO*%
X73297480Y-56997480D02*
G75*
G03*
X77890571Y-58900024I4593120J4593080D01*
G01*
X85010185Y-58900000D02*
G75*
G02*
X88236324Y-60236316I15J-4562400D01*
G01*
X89115000Y-62357641D02*
G75*
G03*
X88236340Y-60236300I-3000000J41D01*
G01*
X85010185Y-58900000D02*
X77890571Y-58900000D01*
X73297480Y-56997480D02*
X72055000Y-55755000D01*
X89115000Y-62675000D02*
X89115000Y-62357641D01*
%TO.N,/RST*%
X104900000Y-67942641D02*
G75*
G03*
X104021341Y-65821301I-3000000J41D01*
G01*
X104900000Y-69123146D02*
G75*
G02*
X103728404Y-71951550I-4000000J46D01*
G01*
X102762732Y-65300000D02*
G75*
G02*
X104021300Y-65821342I-32J-1779900D01*
G01*
X104900000Y-67942641D02*
X104900000Y-69123146D01*
X103728427Y-71951573D02*
X100600000Y-75080000D01*
X102700000Y-65300000D02*
X102762732Y-65300000D01*
%TO.N,/MISO*%
X95775075Y-56014924D02*
X89115000Y-62675000D01*
D21*
X80767916Y-105560000D02*
X80000000Y-105560000D01*
X89115000Y-62675000D02*
X89115000Y-91931736D01*
X82939497Y-104660502D02*
X84481143Y-103118856D01*
X89115000Y-91931736D02*
G75*
G02*
X84481144Y-103118857I-15820970J-4D01*
G01*
X82939497Y-104660502D02*
G75*
G02*
X80767916Y-105560005I-2171597J2171602D01*
G01*
D20*
X96475000Y-55725000D02*
G75*
G03*
X95775060Y-56014909I0J-989900D01*
G01*
X89115000Y-62715100D02*
X89115000Y-62675000D01*
X89115000Y-62715100D02*
G75*
G02*
X89086643Y-62783552I-96800J0D01*
G01*
%TO.N,/SS*%
X86126036Y-45150000D02*
X84770713Y-45150000D01*
X89973792Y-43556207D02*
X92205000Y-41325000D01*
X96592244Y-43142244D02*
X101555000Y-48105000D01*
X81167499Y-46642499D02*
X79827027Y-47982972D01*
X84770713Y-45150000D02*
G75*
G03*
X81167496Y-46642496I-13J-5095700D01*
G01*
X96592244Y-43142244D02*
G75*
G03*
X92205000Y-41324992I-4387244J-4387256D01*
G01*
X79827027Y-47982972D02*
G75*
G03*
X79674983Y-48350000I366973J-367028D01*
G01*
X89973792Y-43556207D02*
G75*
G02*
X86126036Y-45150010I-3847792J3847807D01*
G01*
%TO.N,/SCK*%
X75572500Y-54777500D02*
X74595000Y-55755000D01*
X95728819Y-53800000D02*
X77932393Y-53800000D01*
X98052500Y-54762500D02*
X99015000Y-55725000D01*
X98052500Y-54762500D02*
G75*
G03*
X95728819Y-53799992I-2323700J-2323700D01*
G01*
X77932393Y-53800000D02*
G75*
G03*
X75572502Y-54777502I7J-3337400D01*
G01*
D21*
%TO.N,/MOSI*%
X72937622Y-101157622D02*
X74800000Y-103020000D01*
X68100000Y-54343963D02*
X68100000Y-89478570D01*
X69693792Y-50496207D02*
X72055000Y-48135000D01*
X68100000Y-89478570D02*
G75*
G03*
X72937621Y-101157623I16516680J0D01*
G01*
X69693792Y-50496207D02*
G75*
G03*
X68099959Y-54343963I3847708J-3847793D01*
G01*
%TO.N,/SCK*%
X99607500Y-56317497D02*
G75*
G02*
X100199993Y-57747918I-1430400J-1430403D01*
G01*
X100200000Y-65073654D02*
X100200000Y-57747918D01*
X99050000Y-67850000D02*
G75*
G03*
X97900019Y-70626345I2776300J-2776300D01*
G01*
X99607500Y-56317497D02*
X99015000Y-55724997D01*
X97900000Y-101019095D02*
X97900000Y-70626345D01*
X97900000Y-101019095D02*
G75*
G02*
X96570001Y-104230001I-4540900J-5D01*
G01*
X96570000Y-104230000D02*
X95240000Y-105560000D01*
X100200000Y-65073654D02*
G75*
G02*
X99049984Y-67849984I-3926400J54D01*
G01*
%TO.N,/SS*%
X73550503Y-99230503D02*
X74800000Y-100480000D01*
X69500000Y-89451723D02*
G75*
G03*
X73550505Y-99230501I13829280J3D01*
G01*
X70278724Y-53221277D02*
G75*
G03*
X69499979Y-55101288I1879976J-1880023D01*
G01*
X71093792Y-52406206D02*
X70278724Y-53221277D01*
X79217660Y-49022339D02*
G75*
G02*
X74973763Y-50780210I-4243860J4243839D01*
G01*
X74973763Y-50780200D02*
G75*
G03*
X71126027Y-52374012I-63J-5441300D01*
G01*
X79217660Y-49022339D02*
X79522972Y-48717027D01*
X71093792Y-52406206D02*
X71126007Y-52373992D01*
X69500000Y-55101288D02*
X69500000Y-89451723D01*
X79675000Y-48350000D02*
G75*
G02*
X79522982Y-48717037I-519100J0D01*
G01*
%TD*%
%TA.AperFunction,Conductor*%
%TO.N,+5V*%
G36*
X101002562Y-35500605D02*
G01*
X101449036Y-35519072D01*
X101459209Y-35519915D01*
X101900114Y-35574873D01*
X101910194Y-35576555D01*
X102345042Y-35667733D01*
X102354950Y-35670242D01*
X102780786Y-35797019D01*
X102790454Y-35800338D01*
X103131430Y-35933388D01*
X103204339Y-35961838D01*
X103213724Y-35965954D01*
X103612869Y-36161083D01*
X103621877Y-36165958D01*
X104003544Y-36393383D01*
X104012123Y-36398989D01*
X104373693Y-36657144D01*
X104381775Y-36663435D01*
X104720796Y-36950571D01*
X104728336Y-36957512D01*
X105042487Y-37271663D01*
X105049428Y-37279203D01*
X105285464Y-37557891D01*
X105336564Y-37618224D01*
X105342859Y-37626312D01*
X105601010Y-37987876D01*
X105606616Y-37996455D01*
X105834041Y-38378122D01*
X105838919Y-38387136D01*
X106034045Y-38786275D01*
X106038161Y-38795660D01*
X106199656Y-39209533D01*
X106202984Y-39219226D01*
X106329753Y-39645036D01*
X106332269Y-39654971D01*
X106423441Y-40089791D01*
X106425128Y-40099900D01*
X106480082Y-40540769D01*
X106480928Y-40550983D01*
X106499394Y-40997437D01*
X106499500Y-41002561D01*
X106499500Y-103997438D01*
X106499394Y-104002562D01*
X106480928Y-104449016D01*
X106480082Y-104459230D01*
X106425128Y-104900099D01*
X106423441Y-104910208D01*
X106332269Y-105345028D01*
X106329753Y-105354963D01*
X106202984Y-105780773D01*
X106199656Y-105790466D01*
X106038161Y-106204339D01*
X106034045Y-106213724D01*
X105838919Y-106612863D01*
X105834041Y-106621877D01*
X105606616Y-107003544D01*
X105601010Y-107012123D01*
X105342859Y-107373687D01*
X105336564Y-107381775D01*
X105049428Y-107720796D01*
X105042487Y-107728336D01*
X104728336Y-108042487D01*
X104720796Y-108049428D01*
X104381775Y-108336564D01*
X104373687Y-108342859D01*
X104012123Y-108601010D01*
X104003544Y-108606616D01*
X103621877Y-108834041D01*
X103612863Y-108838919D01*
X103213724Y-109034045D01*
X103204339Y-109038161D01*
X102790466Y-109199656D01*
X102780773Y-109202984D01*
X102354963Y-109329753D01*
X102345028Y-109332269D01*
X101910208Y-109423441D01*
X101900099Y-109425128D01*
X101459230Y-109480082D01*
X101449016Y-109480928D01*
X101002563Y-109499394D01*
X100997439Y-109499500D01*
X72002561Y-109499500D01*
X71997437Y-109499394D01*
X71550983Y-109480928D01*
X71540769Y-109480082D01*
X71099900Y-109425128D01*
X71089791Y-109423441D01*
X70654971Y-109332269D01*
X70645036Y-109329753D01*
X70219226Y-109202984D01*
X70209533Y-109199656D01*
X69795660Y-109038161D01*
X69786275Y-109034045D01*
X69387136Y-108838919D01*
X69378122Y-108834041D01*
X68996455Y-108606616D01*
X68987876Y-108601010D01*
X68626312Y-108342859D01*
X68618224Y-108336564D01*
X68279203Y-108049428D01*
X68271663Y-108042487D01*
X67957512Y-107728336D01*
X67950571Y-107720796D01*
X67663435Y-107381775D01*
X67657140Y-107373687D01*
X67398989Y-107012123D01*
X67393383Y-107003544D01*
X67180989Y-106647102D01*
X67165955Y-106621872D01*
X67161080Y-106612863D01*
X67102418Y-106492868D01*
X66965954Y-106213724D01*
X66961838Y-106204339D01*
X66888002Y-106015115D01*
X66800338Y-105790454D01*
X66797019Y-105780786D01*
X66670242Y-105354950D01*
X66667733Y-105345042D01*
X66576555Y-104910194D01*
X66574873Y-104900114D01*
X66519915Y-104459209D01*
X66519072Y-104449036D01*
X66500606Y-104002562D01*
X66500500Y-103997438D01*
X66500500Y-54117408D01*
X67199500Y-54117408D01*
X67199500Y-89573081D01*
X67199530Y-89573687D01*
X67199530Y-89881007D01*
X67199977Y-89890668D01*
X67236698Y-90684957D01*
X67310957Y-91486334D01*
X67310959Y-91486355D01*
X67422147Y-92283436D01*
X67428621Y-92318070D01*
X67529925Y-92859999D01*
X67570036Y-93074570D01*
X67754295Y-93857991D01*
X67754297Y-93857998D01*
X67974537Y-94632059D01*
X67974546Y-94632088D01*
X68158865Y-95182023D01*
X68230306Y-95395172D01*
X68521038Y-96145639D01*
X68521042Y-96145647D01*
X68521056Y-96145681D01*
X68846116Y-96881873D01*
X69204844Y-97602296D01*
X69204864Y-97602333D01*
X69493305Y-98120185D01*
X69596482Y-98305422D01*
X70020162Y-98989689D01*
X70474992Y-99653659D01*
X70475004Y-99653675D01*
X70475009Y-99653682D01*
X70774800Y-100050670D01*
X70960000Y-100295915D01*
X71469374Y-100909331D01*
X71474151Y-100915083D01*
X71474163Y-100915098D01*
X72016324Y-101509820D01*
X72016338Y-101509835D01*
X72016353Y-101509851D01*
X72016373Y-101509871D01*
X72234524Y-101728022D01*
X72234549Y-101728049D01*
X73514556Y-103008056D01*
X73548041Y-103069379D01*
X73550403Y-103084930D01*
X73563792Y-103237971D01*
X73563794Y-103237982D01*
X73620422Y-103449322D01*
X73620424Y-103449326D01*
X73620425Y-103449330D01*
X73635868Y-103482447D01*
X73712897Y-103647638D01*
X73712898Y-103647639D01*
X73838402Y-103826877D01*
X73993123Y-103981598D01*
X74161140Y-104099245D01*
X74172361Y-104107102D01*
X74323583Y-104177618D01*
X74376022Y-104223790D01*
X74395174Y-104290984D01*
X74374958Y-104357865D01*
X74323583Y-104402382D01*
X74172361Y-104472898D01*
X74172357Y-104472900D01*
X73993121Y-104598402D01*
X73838402Y-104753121D01*
X73712900Y-104932357D01*
X73712898Y-104932361D01*
X73620426Y-105130668D01*
X73620422Y-105130677D01*
X73563793Y-105342020D01*
X73563793Y-105342024D01*
X73544723Y-105559997D01*
X73544723Y-105560002D01*
X73563793Y-105777975D01*
X73563793Y-105777979D01*
X73620422Y-105989322D01*
X73620424Y-105989326D01*
X73620425Y-105989330D01*
X73623320Y-105995538D01*
X73712897Y-106187638D01*
X73712898Y-106187639D01*
X73838402Y-106366877D01*
X73993123Y-106521598D01*
X74172361Y-106647102D01*
X74370670Y-106739575D01*
X74582023Y-106796207D01*
X74764926Y-106812208D01*
X74799998Y-106815277D01*
X74800000Y-106815277D01*
X74800002Y-106815277D01*
X74828254Y-106812805D01*
X75017977Y-106796207D01*
X75229330Y-106739575D01*
X75427639Y-106647102D01*
X75606877Y-106521598D01*
X75761598Y-106366877D01*
X75887102Y-106187639D01*
X75979575Y-105989330D01*
X76036207Y-105777977D01*
X76055277Y-105560000D01*
X76036207Y-105342023D01*
X75979575Y-105130670D01*
X75887102Y-104932362D01*
X75887100Y-104932359D01*
X75887099Y-104932357D01*
X75761599Y-104753124D01*
X75724044Y-104715569D01*
X75606877Y-104598402D01*
X75427639Y-104472898D01*
X75276414Y-104402381D01*
X75223977Y-104356210D01*
X75204825Y-104289016D01*
X75225041Y-104222135D01*
X75276414Y-104177618D01*
X75427639Y-104107102D01*
X75606877Y-103981598D01*
X75761598Y-103826877D01*
X75887102Y-103647639D01*
X75979575Y-103449330D01*
X76036207Y-103237977D01*
X76055277Y-103020000D01*
X76036207Y-102802023D01*
X75979575Y-102590670D01*
X75887102Y-102392362D01*
X75887100Y-102392359D01*
X75887099Y-102392357D01*
X75761599Y-102213124D01*
X75756236Y-102207761D01*
X75606877Y-102058402D01*
X75427639Y-101932898D01*
X75276414Y-101862381D01*
X75223977Y-101816210D01*
X75204825Y-101749016D01*
X75225041Y-101682135D01*
X75276414Y-101637618D01*
X75427639Y-101567102D01*
X75606877Y-101441598D01*
X75761598Y-101286877D01*
X75887102Y-101107639D01*
X75979575Y-100909330D01*
X76036207Y-100697977D01*
X76055277Y-100480000D01*
X76036207Y-100262023D01*
X75979575Y-100050670D01*
X75887102Y-99852362D01*
X75887100Y-99852359D01*
X75887099Y-99852357D01*
X75761599Y-99673124D01*
X75688215Y-99599740D01*
X75606877Y-99518402D01*
X75427639Y-99392898D01*
X75276414Y-99322381D01*
X75223977Y-99276210D01*
X75204825Y-99209016D01*
X75225041Y-99142135D01*
X75276414Y-99097618D01*
X75427639Y-99027102D01*
X75606877Y-98901598D01*
X75761598Y-98746877D01*
X75887102Y-98567639D01*
X75979575Y-98369330D01*
X76036207Y-98157977D01*
X76055277Y-97940000D01*
X76036207Y-97722023D01*
X75979575Y-97510670D01*
X75887102Y-97312362D01*
X75887100Y-97312359D01*
X75887099Y-97312357D01*
X75761599Y-97133124D01*
X75756236Y-97127761D01*
X75606877Y-96978402D01*
X75427639Y-96852898D01*
X75276414Y-96782381D01*
X75223977Y-96736210D01*
X75204825Y-96669016D01*
X75225041Y-96602135D01*
X75276414Y-96557618D01*
X75427639Y-96487102D01*
X75606877Y-96361598D01*
X75761598Y-96206877D01*
X75887102Y-96027639D01*
X75979575Y-95829330D01*
X76036207Y-95617977D01*
X76055277Y-95400000D01*
X76054853Y-95395158D01*
X76048132Y-95318334D01*
X76036207Y-95182023D01*
X75979575Y-94970670D01*
X75887102Y-94772362D01*
X75887100Y-94772359D01*
X75887099Y-94772357D01*
X75761599Y-94593124D01*
X75756236Y-94587761D01*
X75606877Y-94438402D01*
X75427639Y-94312898D01*
X75276414Y-94242381D01*
X75223977Y-94196210D01*
X75204825Y-94129016D01*
X75225041Y-94062135D01*
X75276414Y-94017618D01*
X75427639Y-93947102D01*
X75606877Y-93821598D01*
X75761598Y-93666877D01*
X75887102Y-93487639D01*
X75979575Y-93289330D01*
X76036207Y-93077977D01*
X76055277Y-92860000D01*
X76036207Y-92642023D01*
X75979575Y-92430670D01*
X75887102Y-92232362D01*
X75887100Y-92232359D01*
X75887099Y-92232357D01*
X75761599Y-92053124D01*
X75756236Y-92047761D01*
X75606877Y-91898402D01*
X75427639Y-91772898D01*
X75276414Y-91702381D01*
X75223977Y-91656210D01*
X75204825Y-91589016D01*
X75225041Y-91522135D01*
X75276414Y-91477618D01*
X75427639Y-91407102D01*
X75606877Y-91281598D01*
X75761598Y-91126877D01*
X75887102Y-90947639D01*
X75979575Y-90749330D01*
X76036207Y-90537977D01*
X76055277Y-90320000D01*
X76036207Y-90102023D01*
X75979575Y-89890670D01*
X75887102Y-89692362D01*
X75887100Y-89692359D01*
X75887099Y-89692357D01*
X75761599Y-89513124D01*
X75698955Y-89450480D01*
X75606877Y-89358402D01*
X75427639Y-89232898D01*
X75276414Y-89162381D01*
X75223977Y-89116210D01*
X75204825Y-89049016D01*
X75225041Y-88982135D01*
X75276414Y-88937618D01*
X75427639Y-88867102D01*
X75606877Y-88741598D01*
X75761598Y-88586877D01*
X75887102Y-88407639D01*
X75979575Y-88209330D01*
X76036207Y-87997977D01*
X76055277Y-87780000D01*
X76036207Y-87562023D01*
X75979575Y-87350670D01*
X75887102Y-87152362D01*
X75887100Y-87152359D01*
X75887099Y-87152357D01*
X75761599Y-86973124D01*
X75756236Y-86967761D01*
X75606877Y-86818402D01*
X75427639Y-86692898D01*
X75276414Y-86622381D01*
X75223977Y-86576210D01*
X75204825Y-86509016D01*
X75225041Y-86442135D01*
X75276414Y-86397618D01*
X75427639Y-86327102D01*
X75606877Y-86201598D01*
X75761598Y-86046877D01*
X75887102Y-85867639D01*
X75979575Y-85669330D01*
X76036207Y-85457977D01*
X76055277Y-85240000D01*
X76036207Y-85022023D01*
X75979575Y-84810670D01*
X75887102Y-84612362D01*
X75887100Y-84612359D01*
X75887099Y-84612357D01*
X75761599Y-84433124D01*
X75756236Y-84427761D01*
X75606877Y-84278402D01*
X75427639Y-84152898D01*
X75276414Y-84082381D01*
X75223977Y-84036210D01*
X75204825Y-83969016D01*
X75225041Y-83902135D01*
X75276414Y-83857618D01*
X75427639Y-83787102D01*
X75606877Y-83661598D01*
X75761598Y-83506877D01*
X75887102Y-83327639D01*
X75979575Y-83129330D01*
X76036207Y-82917977D01*
X76055277Y-82700000D01*
X76036207Y-82482023D01*
X75979575Y-82270670D01*
X75887102Y-82072362D01*
X75887100Y-82072359D01*
X75887099Y-82072357D01*
X75761599Y-81893124D01*
X75756236Y-81887761D01*
X75606877Y-81738402D01*
X75427639Y-81612898D01*
X75276414Y-81542381D01*
X75223977Y-81496210D01*
X75204825Y-81429016D01*
X75225041Y-81362135D01*
X75276414Y-81317618D01*
X75427639Y-81247102D01*
X75606877Y-81121598D01*
X75761598Y-80966877D01*
X75887102Y-80787639D01*
X75979575Y-80589330D01*
X76036207Y-80377977D01*
X76055277Y-80160000D01*
X76036207Y-79942023D01*
X75979575Y-79730670D01*
X75887102Y-79532362D01*
X75887100Y-79532359D01*
X75887099Y-79532357D01*
X75761599Y-79353124D01*
X75756236Y-79347761D01*
X75606877Y-79198402D01*
X75427639Y-79072898D01*
X75276414Y-79002381D01*
X75223977Y-78956210D01*
X75204825Y-78889016D01*
X75225041Y-78822135D01*
X75276414Y-78777618D01*
X75427639Y-78707102D01*
X75606877Y-78581598D01*
X75761598Y-78426877D01*
X75887102Y-78247639D01*
X75979575Y-78049330D01*
X76036207Y-77837977D01*
X76055277Y-77620000D01*
X76036207Y-77402023D01*
X76001548Y-77272675D01*
X75979577Y-77190677D01*
X75979576Y-77190676D01*
X75979575Y-77190670D01*
X75887102Y-76992362D01*
X75887100Y-76992359D01*
X75887099Y-76992357D01*
X75761599Y-76813124D01*
X75756236Y-76807761D01*
X75606877Y-76658402D01*
X75427639Y-76532898D01*
X75276414Y-76462381D01*
X75223977Y-76416210D01*
X75204825Y-76349016D01*
X75225041Y-76282135D01*
X75276414Y-76237618D01*
X75427639Y-76167102D01*
X75606877Y-76041598D01*
X75761598Y-75886877D01*
X75887102Y-75707639D01*
X75979575Y-75509330D01*
X76036207Y-75297977D01*
X76055277Y-75080000D01*
X76036207Y-74862023D01*
X75979575Y-74650670D01*
X75887102Y-74452362D01*
X75887100Y-74452359D01*
X75887099Y-74452357D01*
X75761599Y-74273124D01*
X75756236Y-74267761D01*
X75606877Y-74118402D01*
X75427639Y-73992898D01*
X75276414Y-73922381D01*
X75223977Y-73876210D01*
X75204825Y-73809016D01*
X75225041Y-73742135D01*
X75276414Y-73697618D01*
X75427639Y-73627102D01*
X75606877Y-73501598D01*
X75761598Y-73346877D01*
X75887102Y-73167639D01*
X75979575Y-72969330D01*
X76036207Y-72757977D01*
X76055277Y-72540000D01*
X76036207Y-72322023D01*
X75979575Y-72110670D01*
X75887102Y-71912362D01*
X75887100Y-71912359D01*
X75887099Y-71912357D01*
X75761599Y-71733124D01*
X75756236Y-71727761D01*
X75606877Y-71578402D01*
X75460733Y-71476071D01*
X75417112Y-71421497D01*
X75409919Y-71351998D01*
X75441441Y-71289644D01*
X75501671Y-71254230D01*
X75531859Y-71250499D01*
X75681518Y-71250499D01*
X75775304Y-71235646D01*
X75888342Y-71178050D01*
X75978050Y-71088342D01*
X76035646Y-70975304D01*
X76035646Y-70975302D01*
X76035647Y-70975301D01*
X76050499Y-70881524D01*
X76050500Y-70881519D01*
X76050499Y-69118482D01*
X76035646Y-69024696D01*
X75978050Y-68911658D01*
X75978046Y-68911654D01*
X75978045Y-68911652D01*
X75888347Y-68821954D01*
X75888344Y-68821952D01*
X75888342Y-68821950D01*
X75811517Y-68782805D01*
X75775301Y-68764352D01*
X75681524Y-68749500D01*
X73918482Y-68749500D01*
X73837519Y-68762323D01*
X73824696Y-68764354D01*
X73711658Y-68821950D01*
X73711657Y-68821951D01*
X73711652Y-68821954D01*
X73621954Y-68911652D01*
X73621951Y-68911657D01*
X73621950Y-68911658D01*
X73604827Y-68945263D01*
X73564352Y-69024698D01*
X73549500Y-69118475D01*
X73549500Y-70881517D01*
X73556435Y-70925301D01*
X73564354Y-70975304D01*
X73621950Y-71088342D01*
X73621952Y-71088344D01*
X73621954Y-71088347D01*
X73711652Y-71178045D01*
X73711654Y-71178046D01*
X73711658Y-71178050D01*
X73824694Y-71235645D01*
X73824698Y-71235647D01*
X73918475Y-71250499D01*
X73918481Y-71250500D01*
X74068140Y-71250499D01*
X74135177Y-71270183D01*
X74180932Y-71322987D01*
X74190876Y-71392145D01*
X74161851Y-71455701D01*
X74139262Y-71476074D01*
X73993118Y-71578405D01*
X73838402Y-71733121D01*
X73712900Y-71912357D01*
X73712898Y-71912361D01*
X73620426Y-72110668D01*
X73620422Y-72110677D01*
X73563793Y-72322020D01*
X73563793Y-72322024D01*
X73551406Y-72463616D01*
X73544723Y-72540000D01*
X73562747Y-72746025D01*
X73563793Y-72757975D01*
X73563793Y-72757979D01*
X73620422Y-72969322D01*
X73620424Y-72969326D01*
X73620425Y-72969330D01*
X73623320Y-72975538D01*
X73712897Y-73167638D01*
X73712898Y-73167639D01*
X73838402Y-73346877D01*
X73993123Y-73501598D01*
X74161140Y-73619245D01*
X74172361Y-73627102D01*
X74323583Y-73697618D01*
X74376022Y-73743790D01*
X74395174Y-73810984D01*
X74374958Y-73877865D01*
X74323583Y-73922382D01*
X74172361Y-73992898D01*
X74172357Y-73992900D01*
X73993121Y-74118402D01*
X73838402Y-74273121D01*
X73712900Y-74452357D01*
X73712898Y-74452361D01*
X73620426Y-74650668D01*
X73620422Y-74650677D01*
X73563793Y-74862020D01*
X73563793Y-74862024D01*
X73544723Y-75079997D01*
X73544723Y-75080002D01*
X73563793Y-75297975D01*
X73563793Y-75297979D01*
X73620422Y-75509322D01*
X73620424Y-75509326D01*
X73620425Y-75509330D01*
X73623320Y-75515538D01*
X73712897Y-75707638D01*
X73712898Y-75707639D01*
X73838402Y-75886877D01*
X73993123Y-76041598D01*
X74161140Y-76159245D01*
X74172361Y-76167102D01*
X74323583Y-76237618D01*
X74376022Y-76283790D01*
X74395174Y-76350984D01*
X74374958Y-76417865D01*
X74323583Y-76462382D01*
X74172361Y-76532898D01*
X74172357Y-76532900D01*
X73993121Y-76658402D01*
X73838402Y-76813121D01*
X73712900Y-76992357D01*
X73712898Y-76992361D01*
X73620426Y-77190668D01*
X73620422Y-77190677D01*
X73563793Y-77402020D01*
X73563793Y-77402024D01*
X73544723Y-77619997D01*
X73544723Y-77620002D01*
X73563793Y-77837975D01*
X73563793Y-77837979D01*
X73620422Y-78049322D01*
X73620424Y-78049326D01*
X73620425Y-78049330D01*
X73623320Y-78055538D01*
X73712897Y-78247638D01*
X73717830Y-78254683D01*
X73838402Y-78426877D01*
X73993123Y-78581598D01*
X74160500Y-78698797D01*
X74172361Y-78707102D01*
X74323583Y-78777618D01*
X74376022Y-78823790D01*
X74395174Y-78890984D01*
X74374958Y-78957865D01*
X74323583Y-79002382D01*
X74172361Y-79072898D01*
X74172357Y-79072900D01*
X73993121Y-79198402D01*
X73838402Y-79353121D01*
X73712900Y-79532357D01*
X73712898Y-79532361D01*
X73620426Y-79730668D01*
X73620422Y-79730677D01*
X73563793Y-79942020D01*
X73563793Y-79942024D01*
X73544723Y-80159997D01*
X73544723Y-80160002D01*
X73563793Y-80377975D01*
X73563793Y-80377979D01*
X73620422Y-80589322D01*
X73620424Y-80589326D01*
X73620425Y-80589330D01*
X73623320Y-80595538D01*
X73712897Y-80787638D01*
X73712898Y-80787639D01*
X73838402Y-80966877D01*
X73993123Y-81121598D01*
X74161140Y-81239245D01*
X74172361Y-81247102D01*
X74323583Y-81317618D01*
X74376022Y-81363790D01*
X74395174Y-81430984D01*
X74374958Y-81497865D01*
X74323583Y-81542382D01*
X74172361Y-81612898D01*
X74172357Y-81612900D01*
X73993121Y-81738402D01*
X73838402Y-81893121D01*
X73712900Y-82072357D01*
X73712898Y-82072361D01*
X73620426Y-82270668D01*
X73620422Y-82270677D01*
X73563793Y-82482020D01*
X73563793Y-82482024D01*
X73544723Y-82699997D01*
X73544723Y-82700002D01*
X73563793Y-82917975D01*
X73563793Y-82917979D01*
X73620422Y-83129322D01*
X73620424Y-83129326D01*
X73620425Y-83129330D01*
X73623320Y-83135538D01*
X73712897Y-83327638D01*
X73712898Y-83327639D01*
X73838402Y-83506877D01*
X73993123Y-83661598D01*
X74161140Y-83779245D01*
X74172361Y-83787102D01*
X74323583Y-83857618D01*
X74376022Y-83903790D01*
X74395174Y-83970984D01*
X74374958Y-84037865D01*
X74323583Y-84082382D01*
X74172361Y-84152898D01*
X74172357Y-84152900D01*
X73993121Y-84278402D01*
X73838402Y-84433121D01*
X73712900Y-84612357D01*
X73712898Y-84612361D01*
X73620426Y-84810668D01*
X73620422Y-84810677D01*
X73563793Y-85022020D01*
X73563793Y-85022024D01*
X73544723Y-85239997D01*
X73544723Y-85240002D01*
X73563793Y-85457975D01*
X73563793Y-85457979D01*
X73620422Y-85669322D01*
X73620424Y-85669326D01*
X73620425Y-85669330D01*
X73623320Y-85675538D01*
X73712897Y-85867638D01*
X73712898Y-85867639D01*
X73838402Y-86046877D01*
X73993123Y-86201598D01*
X74161140Y-86319245D01*
X74172361Y-86327102D01*
X74323583Y-86397618D01*
X74376022Y-86443790D01*
X74395174Y-86510984D01*
X74374958Y-86577865D01*
X74323583Y-86622382D01*
X74172361Y-86692898D01*
X74172357Y-86692900D01*
X73993121Y-86818402D01*
X73838402Y-86973121D01*
X73712900Y-87152357D01*
X73712898Y-87152361D01*
X73620426Y-87350668D01*
X73620422Y-87350677D01*
X73563793Y-87562020D01*
X73563793Y-87562024D01*
X73544723Y-87779997D01*
X73544723Y-87780002D01*
X73563793Y-87997975D01*
X73563793Y-87997979D01*
X73620422Y-88209322D01*
X73620424Y-88209326D01*
X73620425Y-88209330D01*
X73623320Y-88215538D01*
X73712897Y-88407638D01*
X73712898Y-88407639D01*
X73838402Y-88586877D01*
X73993123Y-88741598D01*
X74161140Y-88859245D01*
X74172361Y-88867102D01*
X74323583Y-88937618D01*
X74376022Y-88983790D01*
X74395174Y-89050984D01*
X74374958Y-89117865D01*
X74323583Y-89162382D01*
X74172361Y-89232898D01*
X74172357Y-89232900D01*
X73993121Y-89358402D01*
X73838402Y-89513121D01*
X73712900Y-89692357D01*
X73712898Y-89692361D01*
X73620426Y-89890668D01*
X73620422Y-89890677D01*
X73563793Y-90102020D01*
X73563793Y-90102024D01*
X73544723Y-90319997D01*
X73544723Y-90320002D01*
X73563793Y-90537975D01*
X73563793Y-90537979D01*
X73620422Y-90749322D01*
X73620424Y-90749326D01*
X73620425Y-90749330D01*
X73647018Y-90806359D01*
X73712897Y-90947638D01*
X73712898Y-90947639D01*
X73838402Y-91126877D01*
X73993123Y-91281598D01*
X74161140Y-91399245D01*
X74172361Y-91407102D01*
X74323583Y-91477618D01*
X74376022Y-91523790D01*
X74395174Y-91590984D01*
X74374958Y-91657865D01*
X74323583Y-91702382D01*
X74172361Y-91772898D01*
X74172357Y-91772900D01*
X73993121Y-91898402D01*
X73838402Y-92053121D01*
X73712900Y-92232357D01*
X73712898Y-92232361D01*
X73620426Y-92430668D01*
X73620422Y-92430677D01*
X73563793Y-92642020D01*
X73563793Y-92642024D01*
X73544723Y-92859997D01*
X73544723Y-92860002D01*
X73563793Y-93077975D01*
X73563793Y-93077979D01*
X73620422Y-93289322D01*
X73620424Y-93289326D01*
X73620425Y-93289330D01*
X73623320Y-93295538D01*
X73712897Y-93487638D01*
X73712898Y-93487639D01*
X73838402Y-93666877D01*
X73993123Y-93821598D01*
X74161140Y-93939245D01*
X74172361Y-93947102D01*
X74323583Y-94017618D01*
X74376022Y-94063790D01*
X74395174Y-94130984D01*
X74374958Y-94197865D01*
X74323583Y-94242382D01*
X74172361Y-94312898D01*
X74172357Y-94312900D01*
X73993121Y-94438402D01*
X73838402Y-94593121D01*
X73712900Y-94772357D01*
X73712898Y-94772361D01*
X73620426Y-94970668D01*
X73620422Y-94970677D01*
X73563793Y-95182020D01*
X73563793Y-95182024D01*
X73544723Y-95399997D01*
X73544723Y-95400002D01*
X73563793Y-95617975D01*
X73563793Y-95617979D01*
X73620422Y-95829322D01*
X73620424Y-95829326D01*
X73620425Y-95829330D01*
X73623320Y-95835538D01*
X73712897Y-96027638D01*
X73712898Y-96027639D01*
X73838402Y-96206877D01*
X73993123Y-96361598D01*
X74161140Y-96479245D01*
X74172361Y-96487102D01*
X74323583Y-96557618D01*
X74376022Y-96603790D01*
X74395174Y-96670984D01*
X74374958Y-96737865D01*
X74323583Y-96782382D01*
X74172361Y-96852898D01*
X74172357Y-96852900D01*
X73993121Y-96978402D01*
X73838402Y-97133121D01*
X73712900Y-97312357D01*
X73712898Y-97312361D01*
X73620426Y-97510668D01*
X73620423Y-97510675D01*
X73584755Y-97643789D01*
X73548389Y-97703449D01*
X73485542Y-97733978D01*
X73416167Y-97725683D01*
X73370690Y-97692227D01*
X73293900Y-97602318D01*
X73283835Y-97590533D01*
X73279750Y-97585488D01*
X72871648Y-97053640D01*
X72867836Y-97048393D01*
X72803922Y-96955398D01*
X72488123Y-96495906D01*
X72484589Y-96490464D01*
X72482528Y-96487101D01*
X72134312Y-95918865D01*
X72131074Y-95913257D01*
X72088876Y-95835538D01*
X71811194Y-95324109D01*
X71808251Y-95318334D01*
X71743234Y-95182024D01*
X71519639Y-94713247D01*
X71517001Y-94707321D01*
X71482713Y-94624543D01*
X71260459Y-94087976D01*
X71258134Y-94081920D01*
X71236072Y-94019618D01*
X71034351Y-93449975D01*
X71032348Y-93443810D01*
X71018550Y-93397229D01*
X70841944Y-92801021D01*
X70840268Y-92794762D01*
X70809569Y-92666892D01*
X70683773Y-92142911D01*
X70682424Y-92136566D01*
X70666959Y-92053123D01*
X70560249Y-91477369D01*
X70559243Y-91471013D01*
X70471735Y-90806327D01*
X70471063Y-90799935D01*
X70418462Y-90131583D01*
X70418123Y-90125103D01*
X70417425Y-90098464D01*
X70400542Y-89453726D01*
X70400500Y-89450480D01*
X70400500Y-62649999D01*
X70939357Y-62649999D01*
X70939357Y-62650000D01*
X70959884Y-62871535D01*
X70959885Y-62871537D01*
X71020769Y-63085523D01*
X71020775Y-63085538D01*
X71119938Y-63284683D01*
X71119943Y-63284691D01*
X71254020Y-63462238D01*
X71418437Y-63612123D01*
X71418439Y-63612125D01*
X71607595Y-63729245D01*
X71607596Y-63729245D01*
X71607599Y-63729247D01*
X71815060Y-63809618D01*
X72033757Y-63850500D01*
X72033759Y-63850500D01*
X72256241Y-63850500D01*
X72256243Y-63850500D01*
X72474940Y-63809618D01*
X72682401Y-63729247D01*
X72871562Y-63612124D01*
X73035981Y-63462236D01*
X73170058Y-63284689D01*
X73269229Y-63085528D01*
X73330115Y-62871536D01*
X73350643Y-62650000D01*
X73350643Y-62649999D01*
X81099357Y-62649999D01*
X81099357Y-62650000D01*
X81119884Y-62871535D01*
X81119885Y-62871537D01*
X81180769Y-63085523D01*
X81180775Y-63085538D01*
X81279938Y-63284683D01*
X81279943Y-63284691D01*
X81414020Y-63462238D01*
X81578437Y-63612123D01*
X81578439Y-63612125D01*
X81767595Y-63729245D01*
X81767596Y-63729245D01*
X81767599Y-63729247D01*
X81975060Y-63809618D01*
X82193757Y-63850500D01*
X82193759Y-63850500D01*
X82416241Y-63850500D01*
X82416243Y-63850500D01*
X82634940Y-63809618D01*
X82842401Y-63729247D01*
X83031562Y-63612124D01*
X83195981Y-63462236D01*
X83330058Y-63284689D01*
X83429229Y-63085528D01*
X83490115Y-62871536D01*
X83510643Y-62650000D01*
X83490115Y-62428464D01*
X83429229Y-62214472D01*
X83417362Y-62190639D01*
X83330061Y-62015316D01*
X83330056Y-62015308D01*
X83195979Y-61837761D01*
X83031562Y-61687876D01*
X83031560Y-61687874D01*
X82842404Y-61570754D01*
X82842398Y-61570752D01*
X82634940Y-61490382D01*
X82416243Y-61449500D01*
X82193757Y-61449500D01*
X81975060Y-61490382D01*
X81855624Y-61536652D01*
X81767601Y-61570752D01*
X81767595Y-61570754D01*
X81578439Y-61687874D01*
X81578437Y-61687876D01*
X81414020Y-61837761D01*
X81279943Y-62015308D01*
X81279938Y-62015316D01*
X81180775Y-62214461D01*
X81180769Y-62214476D01*
X81119885Y-62428462D01*
X81119884Y-62428464D01*
X81099357Y-62649999D01*
X73350643Y-62649999D01*
X73330115Y-62428464D01*
X73269229Y-62214472D01*
X73257362Y-62190639D01*
X73170061Y-62015316D01*
X73170056Y-62015308D01*
X73035979Y-61837761D01*
X72871562Y-61687876D01*
X72871560Y-61687874D01*
X72682404Y-61570754D01*
X72682398Y-61570752D01*
X72474940Y-61490382D01*
X72256243Y-61449500D01*
X72033757Y-61449500D01*
X71815060Y-61490382D01*
X71695624Y-61536652D01*
X71607601Y-61570752D01*
X71607595Y-61570754D01*
X71418439Y-61687874D01*
X71418437Y-61687876D01*
X71254020Y-61837761D01*
X71119943Y-62015308D01*
X71119938Y-62015316D01*
X71020775Y-62214461D01*
X71020769Y-62214476D01*
X70959885Y-62428462D01*
X70959884Y-62428464D01*
X70939357Y-62649999D01*
X70400500Y-62649999D01*
X70400500Y-55754999D01*
X70849357Y-55754999D01*
X70849357Y-55755000D01*
X70869884Y-55976535D01*
X70869885Y-55976537D01*
X70930769Y-56190523D01*
X70930775Y-56190538D01*
X71029938Y-56389683D01*
X71029943Y-56389691D01*
X71164020Y-56567238D01*
X71328437Y-56717123D01*
X71328439Y-56717125D01*
X71517595Y-56834245D01*
X71517596Y-56834245D01*
X71517599Y-56834247D01*
X71725060Y-56914618D01*
X71943757Y-56955500D01*
X72107415Y-56955500D01*
X72174454Y-56975185D01*
X72195096Y-56991819D01*
X72807333Y-57604056D01*
X72807689Y-57604378D01*
X72890338Y-57687028D01*
X72917448Y-57714138D01*
X73275356Y-58028018D01*
X73275361Y-58028022D01*
X73275367Y-58028027D01*
X73653052Y-58317837D01*
X74048882Y-58582325D01*
X74461163Y-58820358D01*
X74888129Y-59030917D01*
X75327953Y-59213100D01*
X75778750Y-59366127D01*
X76238590Y-59489343D01*
X76705504Y-59582220D01*
X77177494Y-59644361D01*
X77177498Y-59644361D01*
X77177504Y-59644362D01*
X77177502Y-59644362D01*
X77652531Y-59675499D01*
X77652536Y-59675499D01*
X77799749Y-59675499D01*
X77799757Y-59675500D01*
X77890568Y-59675500D01*
X77972076Y-59675501D01*
X77972081Y-59675500D01*
X84928674Y-59675500D01*
X84928679Y-59675501D01*
X85007482Y-59675500D01*
X85012890Y-59675618D01*
X85023556Y-59676083D01*
X85334856Y-59689674D01*
X85345590Y-59690614D01*
X85662429Y-59732326D01*
X85673048Y-59734198D01*
X85985053Y-59803367D01*
X85995465Y-59806156D01*
X86300253Y-59902256D01*
X86310388Y-59905945D01*
X86578749Y-60017104D01*
X86605620Y-60028235D01*
X86615424Y-60032807D01*
X86617441Y-60033857D01*
X86898866Y-60180358D01*
X86908213Y-60185755D01*
X87130124Y-60327129D01*
X87177726Y-60357455D01*
X87186572Y-60363648D01*
X87440107Y-60558195D01*
X87448368Y-60565127D01*
X87611741Y-60714832D01*
X87683356Y-60780456D01*
X87692042Y-60789252D01*
X87849534Y-60965489D01*
X87858204Y-60976361D01*
X87994496Y-61168450D01*
X88001894Y-61180224D01*
X88115819Y-61386362D01*
X88121853Y-61398891D01*
X88211986Y-61616499D01*
X88216578Y-61629623D01*
X88219726Y-61640550D01*
X88219369Y-61710418D01*
X88188254Y-61762557D01*
X88114954Y-61835858D01*
X88101074Y-61855682D01*
X88046498Y-61899307D01*
X87976999Y-61906501D01*
X87914644Y-61874979D01*
X87879230Y-61814749D01*
X87875499Y-61784559D01*
X87875499Y-61743482D01*
X87870886Y-61714354D01*
X87860646Y-61649696D01*
X87803050Y-61536658D01*
X87803046Y-61536654D01*
X87803045Y-61536652D01*
X87713347Y-61446954D01*
X87713344Y-61446952D01*
X87713342Y-61446950D01*
X87636517Y-61407805D01*
X87600301Y-61389352D01*
X87506524Y-61374500D01*
X85643482Y-61374500D01*
X85568588Y-61386362D01*
X85549696Y-61389354D01*
X85436658Y-61446950D01*
X85436657Y-61446951D01*
X85436652Y-61446954D01*
X85346954Y-61536652D01*
X85346951Y-61536657D01*
X85289352Y-61649698D01*
X85274500Y-61743475D01*
X85274500Y-63606517D01*
X85279596Y-63638689D01*
X85289354Y-63700304D01*
X85346950Y-63813342D01*
X85346952Y-63813344D01*
X85346954Y-63813347D01*
X85436652Y-63903045D01*
X85436654Y-63903046D01*
X85436658Y-63903050D01*
X85549694Y-63960645D01*
X85549698Y-63960647D01*
X85643475Y-63975499D01*
X85643481Y-63975500D01*
X87506518Y-63975499D01*
X87600304Y-63960646D01*
X87713342Y-63903050D01*
X87803050Y-63813342D01*
X87860646Y-63700304D01*
X87860646Y-63700302D01*
X87860647Y-63700301D01*
X87875499Y-63606525D01*
X87875500Y-63606519D01*
X87875499Y-63565441D01*
X87895182Y-63498405D01*
X87947985Y-63452649D01*
X88017143Y-63442704D01*
X88080700Y-63471727D01*
X88101073Y-63494317D01*
X88114952Y-63514138D01*
X88114953Y-63514139D01*
X88178182Y-63577368D01*
X88211666Y-63638689D01*
X88214500Y-63665048D01*
X88214500Y-91930200D01*
X88214463Y-91933243D01*
X88196602Y-92660813D01*
X88196303Y-92666892D01*
X88142877Y-93391172D01*
X88142280Y-93397229D01*
X88053381Y-94118004D01*
X88052488Y-94124024D01*
X87928330Y-94839567D01*
X87927143Y-94845537D01*
X87768018Y-95554154D01*
X87766539Y-95560058D01*
X87572841Y-96259988D01*
X87571075Y-96265811D01*
X87474015Y-96559618D01*
X87367555Y-96881878D01*
X87343267Y-96955398D01*
X87341216Y-96961129D01*
X87079843Y-97638713D01*
X87077514Y-97644336D01*
X86783210Y-98308274D01*
X86780608Y-98313776D01*
X86454076Y-98962486D01*
X86451207Y-98967853D01*
X86093247Y-99599740D01*
X86090118Y-99604961D01*
X85701575Y-100218537D01*
X85698193Y-100223597D01*
X85280014Y-100817365D01*
X85276389Y-100822254D01*
X84829575Y-101394794D01*
X84825714Y-101399498D01*
X84351362Y-101949403D01*
X84347275Y-101953913D01*
X83845447Y-102480999D01*
X83843322Y-102483176D01*
X83786227Y-102540272D01*
X83786226Y-102540273D01*
X82305216Y-104021282D01*
X82300162Y-104026061D01*
X82126441Y-104181308D01*
X82115569Y-104189978D01*
X81928411Y-104322773D01*
X81916637Y-104330171D01*
X81715786Y-104441178D01*
X81703258Y-104447211D01*
X81491246Y-104535030D01*
X81478121Y-104539623D01*
X81257600Y-104603155D01*
X81244043Y-104606249D01*
X81017805Y-104644689D01*
X81003987Y-104646246D01*
X80844643Y-104655195D01*
X80776605Y-104639300D01*
X80754152Y-104623027D01*
X80726563Y-104597876D01*
X80726560Y-104597874D01*
X80537404Y-104480754D01*
X80537395Y-104480750D01*
X80435246Y-104441178D01*
X80343475Y-104405625D01*
X80288075Y-104363054D01*
X80264484Y-104297288D01*
X80280195Y-104229207D01*
X80330219Y-104180428D01*
X80343466Y-104174377D01*
X80537401Y-104099247D01*
X80726562Y-103982124D01*
X80890981Y-103832236D01*
X81025058Y-103654689D01*
X81124229Y-103455528D01*
X81185115Y-103241536D01*
X81205643Y-103020000D01*
X81185115Y-102798464D01*
X81124229Y-102584472D01*
X81124224Y-102584461D01*
X81025061Y-102385316D01*
X81025056Y-102385308D01*
X80890979Y-102207761D01*
X80726562Y-102057876D01*
X80726560Y-102057874D01*
X80537404Y-101940754D01*
X80537395Y-101940750D01*
X80443956Y-101904552D01*
X80343475Y-101865625D01*
X80288075Y-101823054D01*
X80264484Y-101757288D01*
X80280195Y-101689207D01*
X80330219Y-101640428D01*
X80343466Y-101634377D01*
X80537401Y-101559247D01*
X80726562Y-101442124D01*
X80890981Y-101292236D01*
X81025058Y-101114689D01*
X81124229Y-100915528D01*
X81185115Y-100701536D01*
X81205643Y-100480000D01*
X81185115Y-100258464D01*
X81124229Y-100044472D01*
X81124224Y-100044461D01*
X81025061Y-99845316D01*
X81025056Y-99845308D01*
X80890979Y-99667761D01*
X80726562Y-99517876D01*
X80726560Y-99517874D01*
X80537404Y-99400754D01*
X80537395Y-99400750D01*
X80443956Y-99364552D01*
X80343475Y-99325625D01*
X80288075Y-99283054D01*
X80264484Y-99217288D01*
X80280195Y-99149207D01*
X80330219Y-99100428D01*
X80343466Y-99094377D01*
X80537401Y-99019247D01*
X80726562Y-98902124D01*
X80890981Y-98752236D01*
X81025058Y-98574689D01*
X81124229Y-98375528D01*
X81185115Y-98161536D01*
X81205643Y-97940000D01*
X81185115Y-97718464D01*
X81124229Y-97504472D01*
X81124224Y-97504461D01*
X81025061Y-97305316D01*
X81025056Y-97305308D01*
X80890979Y-97127761D01*
X80726562Y-96977876D01*
X80726560Y-96977874D01*
X80537404Y-96860754D01*
X80537395Y-96860750D01*
X80443956Y-96824552D01*
X80343475Y-96785625D01*
X80288075Y-96743054D01*
X80264484Y-96677288D01*
X80280195Y-96609207D01*
X80330219Y-96560428D01*
X80343466Y-96554377D01*
X80537401Y-96479247D01*
X80726562Y-96362124D01*
X80890981Y-96212236D01*
X81025058Y-96034689D01*
X81124229Y-95835528D01*
X81185115Y-95621536D01*
X81205643Y-95400000D01*
X81185115Y-95178464D01*
X81124229Y-94964472D01*
X81124224Y-94964461D01*
X81025061Y-94765316D01*
X81025056Y-94765308D01*
X80890979Y-94587761D01*
X80726562Y-94437876D01*
X80726560Y-94437874D01*
X80537404Y-94320754D01*
X80537395Y-94320750D01*
X80443956Y-94284552D01*
X80343475Y-94245625D01*
X80288075Y-94203054D01*
X80264484Y-94137288D01*
X80280195Y-94069207D01*
X80330219Y-94020428D01*
X80343466Y-94014377D01*
X80537401Y-93939247D01*
X80726562Y-93822124D01*
X80890981Y-93672236D01*
X81025058Y-93494689D01*
X81124229Y-93295528D01*
X81185115Y-93081536D01*
X81205643Y-92860000D01*
X81185115Y-92638464D01*
X81124229Y-92424472D01*
X81054001Y-92283436D01*
X81025061Y-92225316D01*
X81025056Y-92225308D01*
X80890979Y-92047761D01*
X80726562Y-91897876D01*
X80726560Y-91897874D01*
X80537404Y-91780754D01*
X80537395Y-91780750D01*
X80443956Y-91744552D01*
X80343475Y-91705625D01*
X80288075Y-91663054D01*
X80264484Y-91597288D01*
X80280195Y-91529207D01*
X80330219Y-91480428D01*
X80343466Y-91474377D01*
X80537401Y-91399247D01*
X80726562Y-91282124D01*
X80890981Y-91132236D01*
X81025058Y-90954689D01*
X81124229Y-90755528D01*
X81185115Y-90541536D01*
X81205643Y-90320000D01*
X81185115Y-90098464D01*
X81124229Y-89884472D01*
X81122502Y-89881003D01*
X81025061Y-89685316D01*
X81025056Y-89685308D01*
X80890979Y-89507761D01*
X80726562Y-89357876D01*
X80726560Y-89357874D01*
X80537404Y-89240754D01*
X80537395Y-89240750D01*
X80443956Y-89204552D01*
X80343475Y-89165625D01*
X80288075Y-89123054D01*
X80264484Y-89057288D01*
X80280195Y-88989207D01*
X80330219Y-88940428D01*
X80343466Y-88934377D01*
X80537401Y-88859247D01*
X80726562Y-88742124D01*
X80890981Y-88592236D01*
X81025058Y-88414689D01*
X81124229Y-88215528D01*
X81185115Y-88001536D01*
X81205643Y-87780000D01*
X81185115Y-87558464D01*
X81124229Y-87344472D01*
X81124224Y-87344461D01*
X81025061Y-87145316D01*
X81025056Y-87145308D01*
X80890979Y-86967761D01*
X80726562Y-86817876D01*
X80726560Y-86817874D01*
X80537404Y-86700754D01*
X80537395Y-86700750D01*
X80443956Y-86664552D01*
X80343475Y-86625625D01*
X80288075Y-86583054D01*
X80264484Y-86517288D01*
X80280195Y-86449207D01*
X80330219Y-86400428D01*
X80343466Y-86394377D01*
X80537401Y-86319247D01*
X80726562Y-86202124D01*
X80890981Y-86052236D01*
X81025058Y-85874689D01*
X81124229Y-85675528D01*
X81185115Y-85461536D01*
X81205643Y-85240000D01*
X81185115Y-85018464D01*
X81124229Y-84804472D01*
X81124224Y-84804461D01*
X81025061Y-84605316D01*
X81025056Y-84605308D01*
X80890979Y-84427761D01*
X80726562Y-84277876D01*
X80726560Y-84277874D01*
X80537404Y-84160754D01*
X80537395Y-84160750D01*
X80443956Y-84124552D01*
X80343475Y-84085625D01*
X80288075Y-84043054D01*
X80264484Y-83977288D01*
X80280195Y-83909207D01*
X80330219Y-83860428D01*
X80343466Y-83854377D01*
X80537401Y-83779247D01*
X80726562Y-83662124D01*
X80890981Y-83512236D01*
X81025058Y-83334689D01*
X81124229Y-83135528D01*
X81185115Y-82921536D01*
X81205643Y-82700000D01*
X81185115Y-82478464D01*
X81124229Y-82264472D01*
X81124224Y-82264461D01*
X81025061Y-82065316D01*
X81025056Y-82065308D01*
X80890979Y-81887761D01*
X80726562Y-81737876D01*
X80726560Y-81737874D01*
X80537404Y-81620754D01*
X80537395Y-81620750D01*
X80443956Y-81584552D01*
X80343475Y-81545625D01*
X80288075Y-81503054D01*
X80264484Y-81437288D01*
X80280195Y-81369207D01*
X80330219Y-81320428D01*
X80343466Y-81314377D01*
X80537401Y-81239247D01*
X80726562Y-81122124D01*
X80890981Y-80972236D01*
X81025058Y-80794689D01*
X81124229Y-80595528D01*
X81185115Y-80381536D01*
X81205643Y-80160000D01*
X81185115Y-79938464D01*
X81124229Y-79724472D01*
X81124224Y-79724461D01*
X81025061Y-79525316D01*
X81025056Y-79525308D01*
X80890979Y-79347761D01*
X80726562Y-79197876D01*
X80726560Y-79197874D01*
X80537404Y-79080754D01*
X80537395Y-79080750D01*
X80443956Y-79044552D01*
X80343475Y-79005625D01*
X80288075Y-78963054D01*
X80264484Y-78897288D01*
X80280195Y-78829207D01*
X80330219Y-78780428D01*
X80343466Y-78774377D01*
X80537401Y-78699247D01*
X80726562Y-78582124D01*
X80890981Y-78432236D01*
X81025058Y-78254689D01*
X81124229Y-78055528D01*
X81185115Y-77841536D01*
X81205643Y-77620000D01*
X81185115Y-77398464D01*
X81124229Y-77184472D01*
X81092126Y-77120000D01*
X81025061Y-76985316D01*
X81025056Y-76985308D01*
X80890979Y-76807761D01*
X80726562Y-76657876D01*
X80726560Y-76657874D01*
X80537404Y-76540754D01*
X80537395Y-76540750D01*
X80443956Y-76504552D01*
X80343475Y-76465625D01*
X80288075Y-76423054D01*
X80264484Y-76357288D01*
X80280195Y-76289207D01*
X80330219Y-76240428D01*
X80343466Y-76234377D01*
X80537401Y-76159247D01*
X80726562Y-76042124D01*
X80890981Y-75892236D01*
X81025058Y-75714689D01*
X81124229Y-75515528D01*
X81185115Y-75301536D01*
X81205643Y-75080000D01*
X81185115Y-74858464D01*
X81124229Y-74644472D01*
X81124224Y-74644461D01*
X81025061Y-74445316D01*
X81025056Y-74445308D01*
X80890979Y-74267761D01*
X80726562Y-74117876D01*
X80726560Y-74117874D01*
X80537404Y-74000754D01*
X80537395Y-74000750D01*
X80443956Y-73964552D01*
X80343475Y-73925625D01*
X80288075Y-73883054D01*
X80264484Y-73817288D01*
X80280195Y-73749207D01*
X80330219Y-73700428D01*
X80343466Y-73694377D01*
X80537401Y-73619247D01*
X80726562Y-73502124D01*
X80890981Y-73352236D01*
X81025058Y-73174689D01*
X81124229Y-72975528D01*
X81185115Y-72761536D01*
X81205643Y-72540000D01*
X81204238Y-72524842D01*
X81185115Y-72318464D01*
X81185114Y-72318462D01*
X81124230Y-72104476D01*
X81124229Y-72104472D01*
X81112982Y-72081885D01*
X81025061Y-71905316D01*
X81025056Y-71905308D01*
X80890979Y-71727761D01*
X80726562Y-71577876D01*
X80726560Y-71577874D01*
X80537404Y-71460754D01*
X80537395Y-71460750D01*
X80484157Y-71440126D01*
X80428755Y-71397553D01*
X80405164Y-71331786D01*
X80420875Y-71263706D01*
X80470899Y-71214927D01*
X80528949Y-71200499D01*
X80831518Y-71200499D01*
X80925304Y-71185646D01*
X81038342Y-71128050D01*
X81128050Y-71038342D01*
X81185646Y-70925304D01*
X81185646Y-70925302D01*
X81185647Y-70925301D01*
X81200499Y-70831524D01*
X81200500Y-70831519D01*
X81200499Y-69168482D01*
X81185646Y-69074696D01*
X81128050Y-68961658D01*
X81128046Y-68961654D01*
X81128045Y-68961652D01*
X81038347Y-68871954D01*
X81038344Y-68871952D01*
X81038342Y-68871950D01*
X80940212Y-68821950D01*
X80925301Y-68814352D01*
X80831524Y-68799500D01*
X79168482Y-68799500D01*
X79087519Y-68812323D01*
X79074696Y-68814354D01*
X78961658Y-68871950D01*
X78961657Y-68871951D01*
X78961652Y-68871954D01*
X78871954Y-68961652D01*
X78871951Y-68961657D01*
X78814352Y-69074698D01*
X78799500Y-69168475D01*
X78799500Y-70831517D01*
X78810292Y-70899657D01*
X78814354Y-70925304D01*
X78871950Y-71038342D01*
X78871952Y-71038344D01*
X78871954Y-71038347D01*
X78961652Y-71128045D01*
X78961654Y-71128046D01*
X78961658Y-71128050D01*
X79059788Y-71178050D01*
X79074698Y-71185647D01*
X79168475Y-71200499D01*
X79168481Y-71200500D01*
X79471049Y-71200499D01*
X79538086Y-71220183D01*
X79583841Y-71272987D01*
X79593785Y-71342146D01*
X79564760Y-71405701D01*
X79515842Y-71440125D01*
X79462607Y-71460748D01*
X79462595Y-71460754D01*
X79273439Y-71577874D01*
X79273437Y-71577876D01*
X79109020Y-71727761D01*
X78974943Y-71905308D01*
X78974938Y-71905316D01*
X78875775Y-72104461D01*
X78875769Y-72104476D01*
X78814885Y-72318462D01*
X78814884Y-72318464D01*
X78794357Y-72539999D01*
X78814884Y-72761535D01*
X78814885Y-72761537D01*
X78875769Y-72975523D01*
X78875775Y-72975538D01*
X78974938Y-73174683D01*
X78974943Y-73174691D01*
X79109020Y-73352238D01*
X79273437Y-73502123D01*
X79273439Y-73502125D01*
X79462595Y-73619245D01*
X79462596Y-73619245D01*
X79462599Y-73619247D01*
X79656524Y-73694374D01*
X79711924Y-73736946D01*
X79735515Y-73802713D01*
X79719804Y-73870793D01*
X79669780Y-73919572D01*
X79656533Y-73925622D01*
X79508488Y-73982975D01*
X79462601Y-74000752D01*
X79462595Y-74000754D01*
X79273439Y-74117874D01*
X79273437Y-74117876D01*
X79109020Y-74267761D01*
X78974943Y-74445308D01*
X78974938Y-74445316D01*
X78875775Y-74644461D01*
X78875769Y-74644476D01*
X78814885Y-74858462D01*
X78814884Y-74858464D01*
X78794357Y-75079999D01*
X78794357Y-75080000D01*
X78814884Y-75301535D01*
X78814885Y-75301537D01*
X78875769Y-75515523D01*
X78875775Y-75515538D01*
X78974938Y-75714683D01*
X78974943Y-75714691D01*
X79109020Y-75892238D01*
X79273437Y-76042123D01*
X79273439Y-76042125D01*
X79462595Y-76159245D01*
X79462596Y-76159245D01*
X79462599Y-76159247D01*
X79656524Y-76234374D01*
X79711924Y-76276946D01*
X79735515Y-76342713D01*
X79719804Y-76410793D01*
X79669780Y-76459572D01*
X79656533Y-76465622D01*
X79508488Y-76522975D01*
X79462601Y-76540752D01*
X79462595Y-76540754D01*
X79273439Y-76657874D01*
X79273437Y-76657876D01*
X79109020Y-76807761D01*
X78974943Y-76985308D01*
X78974938Y-76985316D01*
X78875775Y-77184461D01*
X78875769Y-77184476D01*
X78814885Y-77398462D01*
X78814884Y-77398464D01*
X78794357Y-77619999D01*
X78794357Y-77620000D01*
X78814884Y-77841535D01*
X78814885Y-77841537D01*
X78875769Y-78055523D01*
X78875775Y-78055538D01*
X78974938Y-78254683D01*
X78974943Y-78254691D01*
X79109020Y-78432238D01*
X79273437Y-78582123D01*
X79273439Y-78582125D01*
X79462595Y-78699245D01*
X79462596Y-78699245D01*
X79462599Y-78699247D01*
X79656524Y-78774374D01*
X79711924Y-78816946D01*
X79735515Y-78882713D01*
X79719804Y-78950793D01*
X79669780Y-78999572D01*
X79656533Y-79005622D01*
X79508488Y-79062975D01*
X79462601Y-79080752D01*
X79462595Y-79080754D01*
X79273439Y-79197874D01*
X79273437Y-79197876D01*
X79109020Y-79347761D01*
X78974943Y-79525308D01*
X78974938Y-79525316D01*
X78875775Y-79724461D01*
X78875769Y-79724476D01*
X78814885Y-79938462D01*
X78814884Y-79938464D01*
X78794357Y-80159999D01*
X78794357Y-80160000D01*
X78814884Y-80381535D01*
X78814885Y-80381537D01*
X78875769Y-80595523D01*
X78875775Y-80595538D01*
X78974938Y-80794683D01*
X78974943Y-80794691D01*
X79109020Y-80972238D01*
X79273437Y-81122123D01*
X79273439Y-81122125D01*
X79462595Y-81239245D01*
X79462596Y-81239245D01*
X79462599Y-81239247D01*
X79656524Y-81314374D01*
X79711924Y-81356946D01*
X79735515Y-81422713D01*
X79719804Y-81490793D01*
X79669780Y-81539572D01*
X79656533Y-81545622D01*
X79508488Y-81602975D01*
X79462601Y-81620752D01*
X79462595Y-81620754D01*
X79273439Y-81737874D01*
X79273437Y-81737876D01*
X79109020Y-81887761D01*
X78974943Y-82065308D01*
X78974938Y-82065316D01*
X78875775Y-82264461D01*
X78875769Y-82264476D01*
X78814885Y-82478462D01*
X78814884Y-82478464D01*
X78794357Y-82699999D01*
X78794357Y-82700000D01*
X78814884Y-82921535D01*
X78814885Y-82921537D01*
X78875769Y-83135523D01*
X78875775Y-83135538D01*
X78974938Y-83334683D01*
X78974943Y-83334691D01*
X79109020Y-83512238D01*
X79273437Y-83662123D01*
X79273439Y-83662125D01*
X79462595Y-83779245D01*
X79462596Y-83779245D01*
X79462599Y-83779247D01*
X79656524Y-83854374D01*
X79711924Y-83896946D01*
X79735515Y-83962713D01*
X79719804Y-84030793D01*
X79669780Y-84079572D01*
X79656533Y-84085622D01*
X79508488Y-84142975D01*
X79462601Y-84160752D01*
X79462595Y-84160754D01*
X79273439Y-84277874D01*
X79273437Y-84277876D01*
X79109020Y-84427761D01*
X78974943Y-84605308D01*
X78974938Y-84605316D01*
X78875775Y-84804461D01*
X78875769Y-84804476D01*
X78814885Y-85018462D01*
X78814884Y-85018464D01*
X78794357Y-85239999D01*
X78794357Y-85240000D01*
X78814884Y-85461535D01*
X78814885Y-85461537D01*
X78875769Y-85675523D01*
X78875775Y-85675538D01*
X78974938Y-85874683D01*
X78974943Y-85874691D01*
X79109020Y-86052238D01*
X79273437Y-86202123D01*
X79273439Y-86202125D01*
X79462595Y-86319245D01*
X79462596Y-86319245D01*
X79462599Y-86319247D01*
X79656524Y-86394374D01*
X79711924Y-86436946D01*
X79735515Y-86502713D01*
X79719804Y-86570793D01*
X79669780Y-86619572D01*
X79656533Y-86625622D01*
X79508488Y-86682975D01*
X79462601Y-86700752D01*
X79462595Y-86700754D01*
X79273439Y-86817874D01*
X79273437Y-86817876D01*
X79109020Y-86967761D01*
X78974943Y-87145308D01*
X78974938Y-87145316D01*
X78875775Y-87344461D01*
X78875769Y-87344476D01*
X78814885Y-87558462D01*
X78814884Y-87558464D01*
X78794357Y-87779999D01*
X78794357Y-87780000D01*
X78814884Y-88001535D01*
X78814885Y-88001537D01*
X78875769Y-88215523D01*
X78875775Y-88215538D01*
X78974938Y-88414683D01*
X78974943Y-88414691D01*
X79109020Y-88592238D01*
X79273437Y-88742123D01*
X79273439Y-88742125D01*
X79462595Y-88859245D01*
X79462596Y-88859245D01*
X79462599Y-88859247D01*
X79656524Y-88934374D01*
X79711924Y-88976946D01*
X79735515Y-89042713D01*
X79719804Y-89110793D01*
X79669780Y-89159572D01*
X79656533Y-89165622D01*
X79508488Y-89222975D01*
X79462601Y-89240752D01*
X79462595Y-89240754D01*
X79273439Y-89357874D01*
X79273437Y-89357876D01*
X79109020Y-89507761D01*
X78974943Y-89685308D01*
X78974938Y-89685316D01*
X78875775Y-89884461D01*
X78875769Y-89884476D01*
X78814885Y-90098462D01*
X78814884Y-90098464D01*
X78794357Y-90319999D01*
X78794357Y-90320000D01*
X78814884Y-90541535D01*
X78814885Y-90541537D01*
X78875769Y-90755523D01*
X78875775Y-90755538D01*
X78974938Y-90954683D01*
X78974943Y-90954691D01*
X79109020Y-91132238D01*
X79273437Y-91282123D01*
X79273439Y-91282125D01*
X79462595Y-91399245D01*
X79462596Y-91399245D01*
X79462599Y-91399247D01*
X79656524Y-91474374D01*
X79711924Y-91516946D01*
X79735515Y-91582713D01*
X79719804Y-91650793D01*
X79669780Y-91699572D01*
X79656533Y-91705622D01*
X79508488Y-91762975D01*
X79462601Y-91780752D01*
X79462595Y-91780754D01*
X79273439Y-91897874D01*
X79273437Y-91897876D01*
X79109020Y-92047761D01*
X78974943Y-92225308D01*
X78974938Y-92225316D01*
X78875775Y-92424461D01*
X78875769Y-92424476D01*
X78814885Y-92638462D01*
X78814884Y-92638464D01*
X78794357Y-92859999D01*
X78794357Y-92860000D01*
X78814884Y-93081535D01*
X78814885Y-93081537D01*
X78875769Y-93295523D01*
X78875775Y-93295538D01*
X78974938Y-93494683D01*
X78974943Y-93494691D01*
X79109020Y-93672238D01*
X79273437Y-93822123D01*
X79273439Y-93822125D01*
X79462595Y-93939245D01*
X79462596Y-93939245D01*
X79462599Y-93939247D01*
X79656524Y-94014374D01*
X79711924Y-94056946D01*
X79735515Y-94122713D01*
X79719804Y-94190793D01*
X79669780Y-94239572D01*
X79656533Y-94245622D01*
X79508488Y-94302975D01*
X79462601Y-94320752D01*
X79462595Y-94320754D01*
X79273439Y-94437874D01*
X79273437Y-94437876D01*
X79109020Y-94587761D01*
X78974943Y-94765308D01*
X78974938Y-94765316D01*
X78875775Y-94964461D01*
X78875769Y-94964476D01*
X78814885Y-95178462D01*
X78814884Y-95178464D01*
X78794357Y-95399999D01*
X78794357Y-95400000D01*
X78814884Y-95621535D01*
X78814885Y-95621537D01*
X78875769Y-95835523D01*
X78875775Y-95835538D01*
X78974938Y-96034683D01*
X78974943Y-96034691D01*
X79109020Y-96212238D01*
X79273437Y-96362123D01*
X79273439Y-96362125D01*
X79462595Y-96479245D01*
X79462596Y-96479245D01*
X79462599Y-96479247D01*
X79656524Y-96554374D01*
X79711924Y-96596946D01*
X79735515Y-96662713D01*
X79719804Y-96730793D01*
X79669780Y-96779572D01*
X79656533Y-96785622D01*
X79508488Y-96842975D01*
X79462601Y-96860752D01*
X79462595Y-96860754D01*
X79273439Y-96977874D01*
X79273437Y-96977876D01*
X79109020Y-97127761D01*
X78974943Y-97305308D01*
X78974938Y-97305316D01*
X78875775Y-97504461D01*
X78875769Y-97504476D01*
X78814885Y-97718462D01*
X78814884Y-97718464D01*
X78794357Y-97939999D01*
X78794357Y-97940000D01*
X78814884Y-98161535D01*
X78814885Y-98161537D01*
X78875769Y-98375523D01*
X78875775Y-98375538D01*
X78974938Y-98574683D01*
X78974943Y-98574691D01*
X79109020Y-98752238D01*
X79273437Y-98902123D01*
X79273439Y-98902125D01*
X79462595Y-99019245D01*
X79462596Y-99019245D01*
X79462599Y-99019247D01*
X79656524Y-99094374D01*
X79711924Y-99136946D01*
X79735515Y-99202713D01*
X79719804Y-99270793D01*
X79669780Y-99319572D01*
X79656533Y-99325622D01*
X79508488Y-99382975D01*
X79462601Y-99400752D01*
X79462595Y-99400754D01*
X79273439Y-99517874D01*
X79273437Y-99517876D01*
X79109020Y-99667761D01*
X78974943Y-99845308D01*
X78974938Y-99845316D01*
X78875775Y-100044461D01*
X78875769Y-100044476D01*
X78814885Y-100258462D01*
X78814884Y-100258464D01*
X78794357Y-100479999D01*
X78794357Y-100480000D01*
X78814884Y-100701535D01*
X78814885Y-100701537D01*
X78875769Y-100915523D01*
X78875775Y-100915538D01*
X78974938Y-101114683D01*
X78974943Y-101114691D01*
X79109020Y-101292238D01*
X79273437Y-101442123D01*
X79273439Y-101442125D01*
X79462595Y-101559245D01*
X79462596Y-101559245D01*
X79462599Y-101559247D01*
X79656524Y-101634374D01*
X79711924Y-101676946D01*
X79735515Y-101742713D01*
X79719804Y-101810793D01*
X79669780Y-101859572D01*
X79656533Y-101865622D01*
X79508488Y-101922975D01*
X79462601Y-101940752D01*
X79462595Y-101940754D01*
X79273439Y-102057874D01*
X79273437Y-102057876D01*
X79109020Y-102207761D01*
X78974943Y-102385308D01*
X78974938Y-102385316D01*
X78875775Y-102584461D01*
X78875769Y-102584476D01*
X78814885Y-102798462D01*
X78814884Y-102798464D01*
X78794357Y-103019999D01*
X78794357Y-103020000D01*
X78814884Y-103241535D01*
X78814885Y-103241537D01*
X78875769Y-103455523D01*
X78875775Y-103455538D01*
X78974938Y-103654683D01*
X78974943Y-103654691D01*
X79109020Y-103832238D01*
X79273437Y-103982123D01*
X79273439Y-103982125D01*
X79462595Y-104099245D01*
X79462596Y-104099245D01*
X79462599Y-104099247D01*
X79656524Y-104174374D01*
X79711924Y-104216946D01*
X79735515Y-104282713D01*
X79719804Y-104350793D01*
X79669780Y-104399572D01*
X79656533Y-104405622D01*
X79531282Y-104454145D01*
X79462601Y-104480752D01*
X79462595Y-104480754D01*
X79273439Y-104597874D01*
X79273437Y-104597876D01*
X79109020Y-104747761D01*
X78974943Y-104925308D01*
X78974938Y-104925316D01*
X78875775Y-105124461D01*
X78875769Y-105124476D01*
X78814885Y-105338462D01*
X78814884Y-105338464D01*
X78794357Y-105559999D01*
X78794357Y-105560000D01*
X78814884Y-105781535D01*
X78814885Y-105781537D01*
X78875769Y-105995523D01*
X78875775Y-105995538D01*
X78974938Y-106194683D01*
X78974943Y-106194691D01*
X79109020Y-106372238D01*
X79273437Y-106522123D01*
X79273439Y-106522125D01*
X79462595Y-106639245D01*
X79462596Y-106639245D01*
X79462599Y-106639247D01*
X79670060Y-106719618D01*
X79888757Y-106760500D01*
X79888759Y-106760500D01*
X80111241Y-106760500D01*
X80111243Y-106760500D01*
X80329940Y-106719618D01*
X80537401Y-106639247D01*
X80726562Y-106522124D01*
X80726564Y-106522121D01*
X80726567Y-106522120D01*
X80758655Y-106492868D01*
X80821459Y-106462250D01*
X80842194Y-106460504D01*
X80941324Y-106460504D01*
X80941324Y-106460503D01*
X81286809Y-106430277D01*
X81628345Y-106370053D01*
X81963333Y-106280293D01*
X82289223Y-106161677D01*
X82603535Y-106015111D01*
X82903877Y-105841708D01*
X83187963Y-105642788D01*
X83453632Y-105419866D01*
X83506464Y-105367032D01*
X83506469Y-105367029D01*
X83513531Y-105359967D01*
X83513533Y-105359966D01*
X85078890Y-103794608D01*
X85078892Y-103794606D01*
X85117895Y-103755605D01*
X85254473Y-103619026D01*
X85391072Y-103482427D01*
X85911615Y-102911418D01*
X86405232Y-102316979D01*
X86870868Y-101700377D01*
X87307531Y-101062927D01*
X87714288Y-100405992D01*
X88090272Y-99730972D01*
X88434680Y-99039308D01*
X88746777Y-98332476D01*
X89025896Y-97611985D01*
X89271444Y-96879371D01*
X89482894Y-96136200D01*
X89659797Y-95384055D01*
X89801774Y-94624543D01*
X89908523Y-93859285D01*
X89979815Y-93089913D01*
X90015500Y-92318070D01*
X90015500Y-91931736D01*
X90015500Y-91843044D01*
X90015500Y-63665048D01*
X90035185Y-63598009D01*
X90051814Y-63577371D01*
X90115047Y-63514139D01*
X90245568Y-63327734D01*
X90341739Y-63121496D01*
X90400635Y-62901692D01*
X90400783Y-62899997D01*
X93894358Y-62899997D01*
X93894358Y-62899998D01*
X93914885Y-63121533D01*
X93914886Y-63121535D01*
X93975770Y-63335521D01*
X93975776Y-63335536D01*
X94074939Y-63534681D01*
X94074944Y-63534689D01*
X94209021Y-63712236D01*
X94373438Y-63862121D01*
X94373440Y-63862123D01*
X94562596Y-63979243D01*
X94562597Y-63979243D01*
X94562600Y-63979245D01*
X94770061Y-64059616D01*
X94988758Y-64100498D01*
X94988760Y-64100498D01*
X95211242Y-64100498D01*
X95211244Y-64100498D01*
X95429941Y-64059616D01*
X95637402Y-63979245D01*
X95826563Y-63862122D01*
X95969827Y-63731519D01*
X95990980Y-63712236D01*
X95997902Y-63703071D01*
X96125059Y-63534687D01*
X96164501Y-63455476D01*
X96212002Y-63404242D01*
X96279665Y-63386820D01*
X96346005Y-63408745D01*
X96389961Y-63463056D01*
X96399500Y-63510749D01*
X96399500Y-63731517D01*
X96410292Y-63799657D01*
X96414354Y-63825304D01*
X96471950Y-63938342D01*
X96471952Y-63938344D01*
X96471954Y-63938347D01*
X96561652Y-64028045D01*
X96561654Y-64028046D01*
X96561658Y-64028050D01*
X96674694Y-64085645D01*
X96674698Y-64085647D01*
X96762116Y-64099491D01*
X96768468Y-64100498D01*
X96768475Y-64100499D01*
X96768481Y-64100500D01*
X98431518Y-64100499D01*
X98525304Y-64085646D01*
X98638342Y-64028050D01*
X98728050Y-63938342D01*
X98785646Y-63825304D01*
X98785646Y-63825302D01*
X98785647Y-63825301D01*
X98800499Y-63731524D01*
X98800500Y-63731519D01*
X98800499Y-62068482D01*
X98785646Y-61974696D01*
X98728050Y-61861658D01*
X98728046Y-61861654D01*
X98728045Y-61861652D01*
X98638347Y-61771954D01*
X98638344Y-61771952D01*
X98638342Y-61771950D01*
X98561517Y-61732805D01*
X98525301Y-61714352D01*
X98431524Y-61699500D01*
X96768482Y-61699500D01*
X96687519Y-61712323D01*
X96674696Y-61714354D01*
X96561658Y-61771950D01*
X96561657Y-61771951D01*
X96561652Y-61771954D01*
X96471954Y-61861652D01*
X96471951Y-61861657D01*
X96414352Y-61974698D01*
X96399500Y-62068475D01*
X96399500Y-62289244D01*
X96379815Y-62356283D01*
X96327011Y-62402038D01*
X96257853Y-62411982D01*
X96194297Y-62382957D01*
X96164500Y-62344516D01*
X96125062Y-62265314D01*
X96125057Y-62265306D01*
X95990980Y-62087759D01*
X95826563Y-61937874D01*
X95826561Y-61937872D01*
X95637405Y-61820752D01*
X95637399Y-61820750D01*
X95429941Y-61740380D01*
X95211244Y-61699498D01*
X94988758Y-61699498D01*
X94770061Y-61740380D01*
X94656022Y-61784559D01*
X94562602Y-61820750D01*
X94562596Y-61820752D01*
X94373440Y-61937872D01*
X94373438Y-61937874D01*
X94209021Y-62087759D01*
X94074944Y-62265306D01*
X94074939Y-62265314D01*
X93975776Y-62464459D01*
X93975770Y-62464474D01*
X93914886Y-62678460D01*
X93914885Y-62678462D01*
X93894358Y-62899997D01*
X90400783Y-62899997D01*
X90420468Y-62675000D01*
X90408713Y-62540647D01*
X90422479Y-62472150D01*
X90444557Y-62442164D01*
X95984892Y-56901828D01*
X96046213Y-56868345D01*
X96115905Y-56873329D01*
X96117297Y-56873858D01*
X96145066Y-56884616D01*
X96363763Y-56925498D01*
X96363765Y-56925498D01*
X96586247Y-56925498D01*
X96586249Y-56925498D01*
X96804946Y-56884616D01*
X97012407Y-56804245D01*
X97201568Y-56687122D01*
X97365987Y-56537234D01*
X97500064Y-56359687D01*
X97599235Y-56160526D01*
X97625737Y-56067379D01*
X97663016Y-56008287D01*
X97726325Y-55978729D01*
X97795565Y-55988091D01*
X97848752Y-56033400D01*
X97864269Y-56067380D01*
X97890769Y-56160520D01*
X97890775Y-56160535D01*
X97989938Y-56359680D01*
X97989943Y-56359688D01*
X98124020Y-56537235D01*
X98288437Y-56687120D01*
X98288439Y-56687122D01*
X98477595Y-56804242D01*
X98477596Y-56804242D01*
X98477599Y-56804244D01*
X98685060Y-56884615D01*
X98903757Y-56925497D01*
X98903759Y-56925497D01*
X98909392Y-56926550D01*
X98908970Y-56928803D01*
X98964633Y-56950903D01*
X98982545Y-56968056D01*
X99074761Y-57076027D01*
X99078793Y-57080748D01*
X99090229Y-57096489D01*
X99172064Y-57230031D01*
X99180898Y-57247369D01*
X99240825Y-57392048D01*
X99246838Y-57410553D01*
X99283397Y-57562836D01*
X99286441Y-57582055D01*
X99299117Y-57743137D01*
X99299499Y-57752865D01*
X99299499Y-57842713D01*
X99299500Y-57842734D01*
X99299500Y-65070588D01*
X99299351Y-65076674D01*
X99285224Y-65364142D01*
X99284031Y-65376252D01*
X99242246Y-65657926D01*
X99239872Y-65669861D01*
X99170676Y-65946094D01*
X99167143Y-65957738D01*
X99071211Y-66225844D01*
X99066554Y-66237086D01*
X98944802Y-66494506D01*
X98939066Y-66505238D01*
X98792672Y-66749479D01*
X98785911Y-66759597D01*
X98616277Y-66988320D01*
X98608558Y-66997726D01*
X98415219Y-67211042D01*
X98411023Y-67215449D01*
X98279143Y-67347331D01*
X98279130Y-67347345D01*
X98032808Y-67635751D01*
X98032797Y-67635765D01*
X97809872Y-67942595D01*
X97809855Y-67942620D01*
X97611680Y-68266016D01*
X97611667Y-68266039D01*
X97439482Y-68603974D01*
X97439479Y-68603981D01*
X97294333Y-68954403D01*
X97294330Y-68954410D01*
X97177132Y-69315117D01*
X97177122Y-69315153D01*
X97088586Y-69683944D01*
X97076840Y-69758111D01*
X97029253Y-70058580D01*
X97029252Y-70058587D01*
X97029252Y-70058590D01*
X96999498Y-70436699D01*
X96999498Y-70436715D01*
X96999500Y-70626335D01*
X96999500Y-101016045D01*
X96999351Y-101022130D01*
X96982269Y-101369835D01*
X96981076Y-101381944D01*
X96930444Y-101723279D01*
X96928070Y-101735214D01*
X96844227Y-102069936D01*
X96840695Y-102081581D01*
X96724444Y-102406483D01*
X96719787Y-102417726D01*
X96609227Y-102651485D01*
X96562769Y-102703672D01*
X96495472Y-102722457D01*
X96428702Y-102701877D01*
X96383658Y-102648465D01*
X96377866Y-102632402D01*
X96364230Y-102584476D01*
X96364229Y-102584472D01*
X96364224Y-102584461D01*
X96265061Y-102385316D01*
X96265056Y-102385308D01*
X96130979Y-102207761D01*
X95966562Y-102057876D01*
X95966560Y-102057874D01*
X95777404Y-101940754D01*
X95777395Y-101940750D01*
X95683956Y-101904552D01*
X95583475Y-101865625D01*
X95528075Y-101823054D01*
X95504484Y-101757288D01*
X95520195Y-101689207D01*
X95570219Y-101640428D01*
X95583466Y-101634377D01*
X95777401Y-101559247D01*
X95966562Y-101442124D01*
X96130981Y-101292236D01*
X96265058Y-101114689D01*
X96364229Y-100915528D01*
X96425115Y-100701536D01*
X96445643Y-100480000D01*
X96425115Y-100258464D01*
X96364229Y-100044472D01*
X96364224Y-100044461D01*
X96265061Y-99845316D01*
X96265056Y-99845308D01*
X96130979Y-99667761D01*
X95966562Y-99517876D01*
X95966560Y-99517874D01*
X95777404Y-99400754D01*
X95777395Y-99400750D01*
X95683956Y-99364552D01*
X95583475Y-99325625D01*
X95528075Y-99283054D01*
X95504484Y-99217288D01*
X95520195Y-99149207D01*
X95570219Y-99100428D01*
X95583466Y-99094377D01*
X95777401Y-99019247D01*
X95966562Y-98902124D01*
X96130981Y-98752236D01*
X96265058Y-98574689D01*
X96364229Y-98375528D01*
X96425115Y-98161536D01*
X96445643Y-97940000D01*
X96425115Y-97718464D01*
X96364229Y-97504472D01*
X96364224Y-97504461D01*
X96265061Y-97305316D01*
X96265056Y-97305308D01*
X96130979Y-97127761D01*
X95966562Y-96977876D01*
X95966560Y-96977874D01*
X95777404Y-96860754D01*
X95777395Y-96860750D01*
X95683956Y-96824552D01*
X95583475Y-96785625D01*
X95528075Y-96743054D01*
X95504484Y-96677288D01*
X95520195Y-96609207D01*
X95570219Y-96560428D01*
X95583466Y-96554377D01*
X95777401Y-96479247D01*
X95966562Y-96362124D01*
X96130981Y-96212236D01*
X96265058Y-96034689D01*
X96364229Y-95835528D01*
X96425115Y-95621536D01*
X96445643Y-95400000D01*
X96425115Y-95178464D01*
X96364229Y-94964472D01*
X96364224Y-94964461D01*
X96265061Y-94765316D01*
X96265056Y-94765308D01*
X96130979Y-94587761D01*
X95966562Y-94437876D01*
X95966560Y-94437874D01*
X95777404Y-94320754D01*
X95777395Y-94320750D01*
X95683956Y-94284552D01*
X95583475Y-94245625D01*
X95528075Y-94203054D01*
X95504484Y-94137288D01*
X95520195Y-94069207D01*
X95570219Y-94020428D01*
X95583466Y-94014377D01*
X95777401Y-93939247D01*
X95966562Y-93822124D01*
X96130981Y-93672236D01*
X96265058Y-93494689D01*
X96364229Y-93295528D01*
X96425115Y-93081536D01*
X96445643Y-92860000D01*
X96425115Y-92638464D01*
X96364229Y-92424472D01*
X96294001Y-92283436D01*
X96265061Y-92225316D01*
X96265056Y-92225308D01*
X96130979Y-92047761D01*
X95966562Y-91897876D01*
X95966560Y-91897874D01*
X95777404Y-91780754D01*
X95777395Y-91780750D01*
X95683956Y-91744552D01*
X95583475Y-91705625D01*
X95528075Y-91663054D01*
X95504484Y-91597288D01*
X95520195Y-91529207D01*
X95570219Y-91480428D01*
X95583466Y-91474377D01*
X95777401Y-91399247D01*
X95966562Y-91282124D01*
X96130981Y-91132236D01*
X96265058Y-90954689D01*
X96364229Y-90755528D01*
X96425115Y-90541536D01*
X96445643Y-90320000D01*
X96425115Y-90098464D01*
X96364229Y-89884472D01*
X96362502Y-89881003D01*
X96265061Y-89685316D01*
X96265056Y-89685308D01*
X96130979Y-89507761D01*
X95966562Y-89357876D01*
X95966560Y-89357874D01*
X95777404Y-89240754D01*
X95777395Y-89240750D01*
X95683956Y-89204552D01*
X95583475Y-89165625D01*
X95528075Y-89123054D01*
X95504484Y-89057288D01*
X95520195Y-88989207D01*
X95570219Y-88940428D01*
X95583466Y-88934377D01*
X95777401Y-88859247D01*
X95966562Y-88742124D01*
X96130981Y-88592236D01*
X96265058Y-88414689D01*
X96364229Y-88215528D01*
X96425115Y-88001536D01*
X96445643Y-87780000D01*
X96425115Y-87558464D01*
X96364229Y-87344472D01*
X96364224Y-87344461D01*
X96265061Y-87145316D01*
X96265056Y-87145308D01*
X96130979Y-86967761D01*
X95966562Y-86817876D01*
X95966560Y-86817874D01*
X95777404Y-86700754D01*
X95777395Y-86700750D01*
X95683956Y-86664552D01*
X95583475Y-86625625D01*
X95528075Y-86583054D01*
X95504484Y-86517288D01*
X95520195Y-86449207D01*
X95570219Y-86400428D01*
X95583466Y-86394377D01*
X95777401Y-86319247D01*
X95966562Y-86202124D01*
X96130981Y-86052236D01*
X96265058Y-85874689D01*
X96364229Y-85675528D01*
X96425115Y-85461536D01*
X96445643Y-85240000D01*
X96425115Y-85018464D01*
X96364229Y-84804472D01*
X96364224Y-84804461D01*
X96265061Y-84605316D01*
X96265056Y-84605308D01*
X96130979Y-84427761D01*
X95966562Y-84277876D01*
X95966560Y-84277874D01*
X95777404Y-84160754D01*
X95777395Y-84160750D01*
X95683956Y-84124552D01*
X95583475Y-84085625D01*
X95528075Y-84043054D01*
X95504484Y-83977288D01*
X95520195Y-83909207D01*
X95570219Y-83860428D01*
X95583466Y-83854377D01*
X95777401Y-83779247D01*
X95966562Y-83662124D01*
X96130981Y-83512236D01*
X96265058Y-83334689D01*
X96364229Y-83135528D01*
X96425115Y-82921536D01*
X96445643Y-82700000D01*
X96425115Y-82478464D01*
X96364229Y-82264472D01*
X96364224Y-82264461D01*
X96265061Y-82065316D01*
X96265056Y-82065308D01*
X96130979Y-81887761D01*
X95966562Y-81737876D01*
X95966560Y-81737874D01*
X95777404Y-81620754D01*
X95777395Y-81620750D01*
X95683956Y-81584552D01*
X95583475Y-81545625D01*
X95528075Y-81503054D01*
X95504484Y-81437288D01*
X95520195Y-81369207D01*
X95570219Y-81320428D01*
X95583466Y-81314377D01*
X95777401Y-81239247D01*
X95966562Y-81122124D01*
X96130981Y-80972236D01*
X96265058Y-80794689D01*
X96364229Y-80595528D01*
X96425115Y-80381536D01*
X96445643Y-80160000D01*
X96425115Y-79938464D01*
X96364229Y-79724472D01*
X96364224Y-79724461D01*
X96265061Y-79525316D01*
X96265056Y-79525308D01*
X96130979Y-79347761D01*
X95966562Y-79197876D01*
X95966560Y-79197874D01*
X95777404Y-79080754D01*
X95777398Y-79080751D01*
X95647967Y-79030610D01*
X95582784Y-79005358D01*
X95527385Y-78962786D01*
X95503794Y-78897019D01*
X95519505Y-78828939D01*
X95569529Y-78780160D01*
X95582786Y-78774105D01*
X95777177Y-78698798D01*
X95777179Y-78698797D01*
X95966261Y-78581721D01*
X96130608Y-78431900D01*
X96264631Y-78254425D01*
X96363760Y-78055349D01*
X96416495Y-77870000D01*
X95673012Y-77870000D01*
X95705925Y-77812993D01*
X95740000Y-77685826D01*
X95740000Y-77554174D01*
X95705925Y-77427007D01*
X95673012Y-77370000D01*
X96416495Y-77370000D01*
X96363760Y-77184650D01*
X96264631Y-76985574D01*
X96130608Y-76808099D01*
X95966261Y-76658278D01*
X95777179Y-76541202D01*
X95777177Y-76541201D01*
X95582786Y-76465894D01*
X95527384Y-76423321D01*
X95503794Y-76357554D01*
X95519505Y-76289474D01*
X95569529Y-76240695D01*
X95582772Y-76234646D01*
X95777401Y-76159247D01*
X95966562Y-76042124D01*
X96130981Y-75892236D01*
X96265058Y-75714689D01*
X96364229Y-75515528D01*
X96425115Y-75301536D01*
X96445643Y-75080000D01*
X96425115Y-74858464D01*
X96364229Y-74644472D01*
X96364224Y-74644461D01*
X96265061Y-74445316D01*
X96265056Y-74445308D01*
X96130979Y-74267761D01*
X95966562Y-74117876D01*
X95966560Y-74117874D01*
X95777404Y-74000754D01*
X95777395Y-74000750D01*
X95683956Y-73964552D01*
X95583475Y-73925625D01*
X95528075Y-73883054D01*
X95504484Y-73817288D01*
X95520195Y-73749207D01*
X95570219Y-73700428D01*
X95583466Y-73694377D01*
X95777401Y-73619247D01*
X95966562Y-73502124D01*
X96130981Y-73352236D01*
X96265058Y-73174689D01*
X96364229Y-72975528D01*
X96425115Y-72761536D01*
X96445643Y-72540000D01*
X96444238Y-72524842D01*
X96425115Y-72318464D01*
X96425114Y-72318462D01*
X96364230Y-72104476D01*
X96364229Y-72104472D01*
X96352982Y-72081885D01*
X96265061Y-71905316D01*
X96265056Y-71905308D01*
X96130979Y-71727761D01*
X95966562Y-71577876D01*
X95966560Y-71577874D01*
X95777404Y-71460754D01*
X95777395Y-71460750D01*
X95676070Y-71421497D01*
X95583475Y-71385625D01*
X95528075Y-71343054D01*
X95504484Y-71277288D01*
X95520195Y-71209207D01*
X95570219Y-71160428D01*
X95583466Y-71154377D01*
X95777401Y-71079247D01*
X95966562Y-70962124D01*
X96130981Y-70812236D01*
X96265058Y-70634689D01*
X96364229Y-70435528D01*
X96425115Y-70221536D01*
X96445643Y-70000000D01*
X96425115Y-69778464D01*
X96364229Y-69564472D01*
X96364224Y-69564461D01*
X96265061Y-69365316D01*
X96265056Y-69365308D01*
X96130979Y-69187761D01*
X95966562Y-69037876D01*
X95966560Y-69037874D01*
X95777404Y-68920754D01*
X95777398Y-68920752D01*
X95569940Y-68840382D01*
X95351243Y-68799500D01*
X95128757Y-68799500D01*
X94910060Y-68840382D01*
X94778864Y-68891207D01*
X94702601Y-68920752D01*
X94702595Y-68920754D01*
X94513439Y-69037874D01*
X94513437Y-69037876D01*
X94349020Y-69187761D01*
X94214943Y-69365308D01*
X94214938Y-69365316D01*
X94115775Y-69564461D01*
X94115769Y-69564476D01*
X94054885Y-69778462D01*
X94054884Y-69778464D01*
X94034357Y-69999999D01*
X94034357Y-70000000D01*
X94054884Y-70221535D01*
X94054885Y-70221537D01*
X94115769Y-70435523D01*
X94115775Y-70435538D01*
X94214938Y-70634683D01*
X94214943Y-70634691D01*
X94349020Y-70812238D01*
X94513437Y-70962123D01*
X94513439Y-70962125D01*
X94702595Y-71079245D01*
X94702596Y-71079245D01*
X94702599Y-71079247D01*
X94896524Y-71154374D01*
X94951924Y-71196946D01*
X94975515Y-71262713D01*
X94959804Y-71330793D01*
X94909780Y-71379572D01*
X94896533Y-71385622D01*
X94755846Y-71440125D01*
X94702601Y-71460752D01*
X94702595Y-71460754D01*
X94513439Y-71577874D01*
X94513437Y-71577876D01*
X94349020Y-71727761D01*
X94214943Y-71905308D01*
X94214938Y-71905316D01*
X94115775Y-72104461D01*
X94115769Y-72104476D01*
X94054885Y-72318462D01*
X94054884Y-72318464D01*
X94034357Y-72539999D01*
X94054884Y-72761535D01*
X94054885Y-72761537D01*
X94115769Y-72975523D01*
X94115775Y-72975538D01*
X94214938Y-73174683D01*
X94214943Y-73174691D01*
X94349020Y-73352238D01*
X94513437Y-73502123D01*
X94513439Y-73502125D01*
X94702595Y-73619245D01*
X94702596Y-73619245D01*
X94702599Y-73619247D01*
X94896524Y-73694374D01*
X94951924Y-73736946D01*
X94975515Y-73802713D01*
X94959804Y-73870793D01*
X94909780Y-73919572D01*
X94896533Y-73925622D01*
X94748488Y-73982975D01*
X94702601Y-74000752D01*
X94702595Y-74000754D01*
X94513439Y-74117874D01*
X94513437Y-74117876D01*
X94349020Y-74267761D01*
X94214943Y-74445308D01*
X94214938Y-74445316D01*
X94115775Y-74644461D01*
X94115769Y-74644476D01*
X94054885Y-74858462D01*
X94054884Y-74858464D01*
X94034357Y-75079999D01*
X94034357Y-75080000D01*
X94054884Y-75301535D01*
X94054885Y-75301537D01*
X94115769Y-75515523D01*
X94115775Y-75515538D01*
X94214938Y-75714683D01*
X94214943Y-75714691D01*
X94349020Y-75892238D01*
X94513437Y-76042123D01*
X94513439Y-76042125D01*
X94702595Y-76159245D01*
X94702596Y-76159245D01*
X94702599Y-76159247D01*
X94897215Y-76234642D01*
X94952614Y-76277213D01*
X94976205Y-76342980D01*
X94960494Y-76411060D01*
X94910470Y-76459839D01*
X94897213Y-76465893D01*
X94702831Y-76541197D01*
X94702820Y-76541202D01*
X94513738Y-76658278D01*
X94349391Y-76808099D01*
X94215368Y-76985574D01*
X94116239Y-77184650D01*
X94063505Y-77370000D01*
X94806988Y-77370000D01*
X94774075Y-77427007D01*
X94740000Y-77554174D01*
X94740000Y-77685826D01*
X94774075Y-77812993D01*
X94806988Y-77870000D01*
X94063505Y-77870000D01*
X94116239Y-78055349D01*
X94215368Y-78254425D01*
X94349391Y-78431900D01*
X94513738Y-78581721D01*
X94702820Y-78698797D01*
X94702822Y-78698798D01*
X94897213Y-78774105D01*
X94952614Y-78816678D01*
X94976205Y-78882445D01*
X94960494Y-78950525D01*
X94910470Y-78999304D01*
X94897213Y-79005359D01*
X94702601Y-79080751D01*
X94702595Y-79080754D01*
X94513439Y-79197874D01*
X94513437Y-79197876D01*
X94349020Y-79347761D01*
X94214943Y-79525308D01*
X94214938Y-79525316D01*
X94115775Y-79724461D01*
X94115769Y-79724476D01*
X94054885Y-79938462D01*
X94054884Y-79938464D01*
X94034357Y-80159999D01*
X94034357Y-80160000D01*
X94054884Y-80381535D01*
X94054885Y-80381537D01*
X94115769Y-80595523D01*
X94115775Y-80595538D01*
X94214938Y-80794683D01*
X94214943Y-80794691D01*
X94349020Y-80972238D01*
X94513437Y-81122123D01*
X94513439Y-81122125D01*
X94702595Y-81239245D01*
X94702596Y-81239245D01*
X94702599Y-81239247D01*
X94896524Y-81314374D01*
X94951924Y-81356946D01*
X94975515Y-81422713D01*
X94959804Y-81490793D01*
X94909780Y-81539572D01*
X94896533Y-81545622D01*
X94748488Y-81602975D01*
X94702601Y-81620752D01*
X94702595Y-81620754D01*
X94513439Y-81737874D01*
X94513437Y-81737876D01*
X94349020Y-81887761D01*
X94214943Y-82065308D01*
X94214938Y-82065316D01*
X94115775Y-82264461D01*
X94115769Y-82264476D01*
X94054885Y-82478462D01*
X94054884Y-82478464D01*
X94034357Y-82699999D01*
X94034357Y-82700000D01*
X94054884Y-82921535D01*
X94054885Y-82921537D01*
X94115769Y-83135523D01*
X94115775Y-83135538D01*
X94214938Y-83334683D01*
X94214943Y-83334691D01*
X94349020Y-83512238D01*
X94513437Y-83662123D01*
X94513439Y-83662125D01*
X94702595Y-83779245D01*
X94702596Y-83779245D01*
X94702599Y-83779247D01*
X94896524Y-83854374D01*
X94951924Y-83896946D01*
X94975515Y-83962713D01*
X94959804Y-84030793D01*
X94909780Y-84079572D01*
X94896533Y-84085622D01*
X94748488Y-84142975D01*
X94702601Y-84160752D01*
X94702595Y-84160754D01*
X94513439Y-84277874D01*
X94513437Y-84277876D01*
X94349020Y-84427761D01*
X94214943Y-84605308D01*
X94214938Y-84605316D01*
X94115775Y-84804461D01*
X94115769Y-84804476D01*
X94054885Y-85018462D01*
X94054884Y-85018464D01*
X94034357Y-85239999D01*
X94034357Y-85240000D01*
X94054884Y-85461535D01*
X94054885Y-85461537D01*
X94115769Y-85675523D01*
X94115775Y-85675538D01*
X94214938Y-85874683D01*
X94214943Y-85874691D01*
X94349020Y-86052238D01*
X94513437Y-86202123D01*
X94513439Y-86202125D01*
X94702595Y-86319245D01*
X94702596Y-86319245D01*
X94702599Y-86319247D01*
X94896524Y-86394374D01*
X94951924Y-86436946D01*
X94975515Y-86502713D01*
X94959804Y-86570793D01*
X94909780Y-86619572D01*
X94896533Y-86625622D01*
X94748488Y-86682975D01*
X94702601Y-86700752D01*
X94702595Y-86700754D01*
X94513439Y-86817874D01*
X94513437Y-86817876D01*
X94349020Y-86967761D01*
X94214943Y-87145308D01*
X94214938Y-87145316D01*
X94115775Y-87344461D01*
X94115769Y-87344476D01*
X94054885Y-87558462D01*
X94054884Y-87558464D01*
X94034357Y-87779999D01*
X94034357Y-87780000D01*
X94054884Y-88001535D01*
X94054885Y-88001537D01*
X94115769Y-88215523D01*
X94115775Y-88215538D01*
X94214938Y-88414683D01*
X94214943Y-88414691D01*
X94349020Y-88592238D01*
X94513437Y-88742123D01*
X94513439Y-88742125D01*
X94702595Y-88859245D01*
X94702596Y-88859245D01*
X94702599Y-88859247D01*
X94896524Y-88934374D01*
X94951924Y-88976946D01*
X94975515Y-89042713D01*
X94959804Y-89110793D01*
X94909780Y-89159572D01*
X94896533Y-89165622D01*
X94748488Y-89222975D01*
X94702601Y-89240752D01*
X94702595Y-89240754D01*
X94513439Y-89357874D01*
X94513437Y-89357876D01*
X94349020Y-89507761D01*
X94214943Y-89685308D01*
X94214938Y-89685316D01*
X94115775Y-89884461D01*
X94115769Y-89884476D01*
X94054885Y-90098462D01*
X94054884Y-90098464D01*
X94034357Y-90319999D01*
X94034357Y-90320000D01*
X94054884Y-90541535D01*
X94054885Y-90541537D01*
X94115769Y-90755523D01*
X94115775Y-90755538D01*
X94214938Y-90954683D01*
X94214943Y-90954691D01*
X94349020Y-91132238D01*
X94513437Y-91282123D01*
X94513439Y-91282125D01*
X94702595Y-91399245D01*
X94702596Y-91399245D01*
X94702599Y-91399247D01*
X94896524Y-91474374D01*
X94951924Y-91516946D01*
X94975515Y-91582713D01*
X94959804Y-91650793D01*
X94909780Y-91699572D01*
X94896533Y-91705622D01*
X94748488Y-91762975D01*
X94702601Y-91780752D01*
X94702595Y-91780754D01*
X94513439Y-91897874D01*
X94513437Y-91897876D01*
X94349020Y-92047761D01*
X94214943Y-92225308D01*
X94214938Y-92225316D01*
X94115775Y-92424461D01*
X94115769Y-92424476D01*
X94054885Y-92638462D01*
X94054884Y-92638464D01*
X94034357Y-92859999D01*
X94034357Y-92860000D01*
X94054884Y-93081535D01*
X94054885Y-93081537D01*
X94115769Y-93295523D01*
X94115775Y-93295538D01*
X94214938Y-93494683D01*
X94214943Y-93494691D01*
X94349020Y-93672238D01*
X94513437Y-93822123D01*
X94513439Y-93822125D01*
X94702595Y-93939245D01*
X94702596Y-93939245D01*
X94702599Y-93939247D01*
X94896524Y-94014374D01*
X94951924Y-94056946D01*
X94975515Y-94122713D01*
X94959804Y-94190793D01*
X94909780Y-94239572D01*
X94896533Y-94245622D01*
X94748488Y-94302975D01*
X94702601Y-94320752D01*
X94702595Y-94320754D01*
X94513439Y-94437874D01*
X94513437Y-94437876D01*
X94349020Y-94587761D01*
X94214943Y-94765308D01*
X94214938Y-94765316D01*
X94115775Y-94964461D01*
X94115769Y-94964476D01*
X94054885Y-95178462D01*
X94054884Y-95178464D01*
X94034357Y-95399999D01*
X94034357Y-95400000D01*
X94054884Y-95621535D01*
X94054885Y-95621537D01*
X94115769Y-95835523D01*
X94115775Y-95835538D01*
X94214938Y-96034683D01*
X94214943Y-96034691D01*
X94349020Y-96212238D01*
X94513437Y-96362123D01*
X94513439Y-96362125D01*
X94702595Y-96479245D01*
X94702596Y-96479245D01*
X94702599Y-96479247D01*
X94896524Y-96554374D01*
X94951924Y-96596946D01*
X94975515Y-96662713D01*
X94959804Y-96730793D01*
X94909780Y-96779572D01*
X94896533Y-96785622D01*
X94748488Y-96842975D01*
X94702601Y-96860752D01*
X94702595Y-96860754D01*
X94513439Y-96977874D01*
X94513437Y-96977876D01*
X94349020Y-97127761D01*
X94214943Y-97305308D01*
X94214938Y-97305316D01*
X94115775Y-97504461D01*
X94115769Y-97504476D01*
X94054885Y-97718462D01*
X94054884Y-97718464D01*
X94034357Y-97939999D01*
X94034357Y-97940000D01*
X94054884Y-98161535D01*
X94054885Y-98161537D01*
X94115769Y-98375523D01*
X94115775Y-98375538D01*
X94214938Y-98574683D01*
X94214943Y-98574691D01*
X94349020Y-98752238D01*
X94513437Y-98902123D01*
X94513439Y-98902125D01*
X94702595Y-99019245D01*
X94702596Y-99019245D01*
X94702599Y-99019247D01*
X94896524Y-99094374D01*
X94951924Y-99136946D01*
X94975515Y-99202713D01*
X94959804Y-99270793D01*
X94909780Y-99319572D01*
X94896533Y-99325622D01*
X94748488Y-99382975D01*
X94702601Y-99400752D01*
X94702595Y-99400754D01*
X94513439Y-99517874D01*
X94513437Y-99517876D01*
X94349020Y-99667761D01*
X94214943Y-99845308D01*
X94214938Y-99845316D01*
X94115775Y-100044461D01*
X94115769Y-100044476D01*
X94054885Y-100258462D01*
X94054884Y-100258464D01*
X94034357Y-100479999D01*
X94034357Y-100480000D01*
X94054884Y-100701535D01*
X94054885Y-100701537D01*
X94115769Y-100915523D01*
X94115775Y-100915538D01*
X94214938Y-101114683D01*
X94214943Y-101114691D01*
X94349020Y-101292238D01*
X94513437Y-101442123D01*
X94513439Y-101442125D01*
X94702595Y-101559245D01*
X94702596Y-101559245D01*
X94702599Y-101559247D01*
X94896524Y-101634374D01*
X94951924Y-101676946D01*
X94975515Y-101742713D01*
X94959804Y-101810793D01*
X94909780Y-101859572D01*
X94896533Y-101865622D01*
X94748488Y-101922975D01*
X94702601Y-101940752D01*
X94702595Y-101940754D01*
X94513439Y-102057874D01*
X94513437Y-102057876D01*
X94349020Y-102207761D01*
X94214943Y-102385308D01*
X94214938Y-102385316D01*
X94115775Y-102584461D01*
X94115769Y-102584476D01*
X94054885Y-102798462D01*
X94054884Y-102798464D01*
X94034357Y-103019999D01*
X94034357Y-103020000D01*
X94054884Y-103241535D01*
X94054885Y-103241537D01*
X94115769Y-103455523D01*
X94115775Y-103455538D01*
X94214938Y-103654683D01*
X94214943Y-103654691D01*
X94349020Y-103832238D01*
X94513437Y-103982123D01*
X94513439Y-103982125D01*
X94702595Y-104099245D01*
X94702596Y-104099245D01*
X94702599Y-104099247D01*
X94896524Y-104174374D01*
X94951924Y-104216946D01*
X94975515Y-104282713D01*
X94959804Y-104350793D01*
X94909780Y-104399572D01*
X94896533Y-104405622D01*
X94771282Y-104454145D01*
X94702601Y-104480752D01*
X94702595Y-104480754D01*
X94513439Y-104597874D01*
X94513437Y-104597876D01*
X94349020Y-104747761D01*
X94214943Y-104925308D01*
X94214938Y-104925316D01*
X94115775Y-105124461D01*
X94115769Y-105124476D01*
X94054885Y-105338462D01*
X94054884Y-105338464D01*
X94034357Y-105559999D01*
X94034357Y-105560000D01*
X94054884Y-105781535D01*
X94054885Y-105781537D01*
X94115769Y-105995523D01*
X94115775Y-105995538D01*
X94214938Y-106194683D01*
X94214943Y-106194691D01*
X94349020Y-106372238D01*
X94513437Y-106522123D01*
X94513439Y-106522125D01*
X94702595Y-106639245D01*
X94702596Y-106639245D01*
X94702599Y-106639247D01*
X94910060Y-106719618D01*
X95128757Y-106760500D01*
X95128759Y-106760500D01*
X95351241Y-106760500D01*
X95351243Y-106760500D01*
X95569940Y-106719618D01*
X95777401Y-106639247D01*
X95966562Y-106522124D01*
X96130981Y-106372236D01*
X96265058Y-106194689D01*
X96364229Y-105995528D01*
X96425115Y-105781536D01*
X96434582Y-105679365D01*
X96460368Y-105614429D01*
X96470363Y-105603135D01*
X97170430Y-104903070D01*
X97170434Y-104903067D01*
X97206750Y-104866750D01*
X97206751Y-104866751D01*
X97357925Y-104715576D01*
X97635621Y-104390436D01*
X97886950Y-104044511D01*
X98110364Y-103679933D01*
X98304484Y-103298950D01*
X98468114Y-102903911D01*
X98600245Y-102497252D01*
X98700063Y-102081479D01*
X98766952Y-101659156D01*
X98800500Y-101232887D01*
X98800500Y-101019094D01*
X98800500Y-100930403D01*
X98800500Y-70715031D01*
X98800501Y-70715026D01*
X98800500Y-70629382D01*
X98800649Y-70623300D01*
X98809813Y-70436715D01*
X98814768Y-70335824D01*
X98815961Y-70323720D01*
X98854353Y-70064892D01*
X98857742Y-70042039D01*
X98860115Y-70030112D01*
X98929307Y-69753872D01*
X98932827Y-69742267D01*
X99028771Y-69474114D01*
X99033425Y-69462881D01*
X99047507Y-69433108D01*
X99113405Y-69293775D01*
X99159863Y-69241589D01*
X99227160Y-69222803D01*
X99293930Y-69243383D01*
X99338974Y-69296795D01*
X99349500Y-69346792D01*
X99349500Y-70881517D01*
X99356435Y-70925301D01*
X99364354Y-70975304D01*
X99421950Y-71088342D01*
X99421952Y-71088344D01*
X99421954Y-71088347D01*
X99511652Y-71178045D01*
X99511654Y-71178046D01*
X99511658Y-71178050D01*
X99624694Y-71235645D01*
X99624698Y-71235647D01*
X99718475Y-71250499D01*
X99718481Y-71250500D01*
X99868140Y-71250499D01*
X99935177Y-71270183D01*
X99980932Y-71322987D01*
X99990876Y-71392145D01*
X99961851Y-71455701D01*
X99939262Y-71476074D01*
X99793118Y-71578405D01*
X99638402Y-71733121D01*
X99512900Y-71912357D01*
X99512898Y-71912361D01*
X99420426Y-72110668D01*
X99420422Y-72110677D01*
X99363793Y-72322020D01*
X99363793Y-72322024D01*
X99351406Y-72463616D01*
X99344723Y-72540000D01*
X99362747Y-72746025D01*
X99363793Y-72757975D01*
X99363793Y-72757979D01*
X99420422Y-72969322D01*
X99420424Y-72969326D01*
X99420425Y-72969330D01*
X99423320Y-72975538D01*
X99512897Y-73167638D01*
X99512898Y-73167639D01*
X99638402Y-73346877D01*
X99793123Y-73501598D01*
X99961140Y-73619245D01*
X99972361Y-73627102D01*
X100123583Y-73697618D01*
X100176022Y-73743790D01*
X100195174Y-73810984D01*
X100174958Y-73877865D01*
X100123583Y-73922382D01*
X99972361Y-73992898D01*
X99972357Y-73992900D01*
X99793121Y-74118402D01*
X99638402Y-74273121D01*
X99512900Y-74452357D01*
X99512898Y-74452361D01*
X99420426Y-74650668D01*
X99420422Y-74650677D01*
X99363793Y-74862020D01*
X99363793Y-74862024D01*
X99344723Y-75079997D01*
X99344723Y-75080002D01*
X99363793Y-75297975D01*
X99363793Y-75297979D01*
X99420422Y-75509322D01*
X99420424Y-75509326D01*
X99420425Y-75509330D01*
X99423320Y-75515538D01*
X99512897Y-75707638D01*
X99512898Y-75707639D01*
X99638402Y-75886877D01*
X99793123Y-76041598D01*
X99961140Y-76159245D01*
X99972361Y-76167102D01*
X100124175Y-76237894D01*
X100176614Y-76284066D01*
X100195766Y-76351260D01*
X100175550Y-76418141D01*
X100124175Y-76462658D01*
X99972612Y-76533333D01*
X99972608Y-76533335D01*
X99793450Y-76658783D01*
X99793444Y-76658788D01*
X99638788Y-76813444D01*
X99638783Y-76813450D01*
X99513335Y-76992608D01*
X99513333Y-76992612D01*
X99420898Y-77190840D01*
X99420894Y-77190849D01*
X99372891Y-77369999D01*
X99372892Y-77370000D01*
X100166988Y-77370000D01*
X100134075Y-77427007D01*
X100100000Y-77554174D01*
X100100000Y-77685826D01*
X100134075Y-77812993D01*
X100166988Y-77870000D01*
X99372892Y-77870000D01*
X99420894Y-78049150D01*
X99420898Y-78049159D01*
X99513333Y-78247387D01*
X99638787Y-78426554D01*
X99793445Y-78581212D01*
X99972613Y-78706667D01*
X99972615Y-78706668D01*
X100124174Y-78777341D01*
X100176614Y-78823513D01*
X100195766Y-78890706D01*
X100175551Y-78957588D01*
X100124176Y-79002105D01*
X99972358Y-79072900D01*
X99972357Y-79072900D01*
X99793121Y-79198402D01*
X99638402Y-79353121D01*
X99512900Y-79532357D01*
X99512898Y-79532361D01*
X99420426Y-79730668D01*
X99420422Y-79730677D01*
X99363793Y-79942020D01*
X99363793Y-79942024D01*
X99344723Y-80159997D01*
X99344723Y-80160002D01*
X99363793Y-80377975D01*
X99363793Y-80377979D01*
X99420422Y-80589322D01*
X99420424Y-80589326D01*
X99420425Y-80589330D01*
X99423320Y-80595538D01*
X99512897Y-80787638D01*
X99512898Y-80787639D01*
X99638402Y-80966877D01*
X99793123Y-81121598D01*
X99961140Y-81239245D01*
X99972361Y-81247102D01*
X100123583Y-81317618D01*
X100176022Y-81363790D01*
X100195174Y-81430984D01*
X100174958Y-81497865D01*
X100123583Y-81542382D01*
X99972361Y-81612898D01*
X99972357Y-81612900D01*
X99793121Y-81738402D01*
X99638402Y-81893121D01*
X99512900Y-82072357D01*
X99512898Y-82072361D01*
X99420426Y-82270668D01*
X99420422Y-82270677D01*
X99363793Y-82482020D01*
X99363793Y-82482024D01*
X99344723Y-82699997D01*
X99344723Y-82700002D01*
X99363793Y-82917975D01*
X99363793Y-82917979D01*
X99420422Y-83129322D01*
X99420424Y-83129326D01*
X99420425Y-83129330D01*
X99423320Y-83135538D01*
X99512897Y-83327638D01*
X99512898Y-83327639D01*
X99638402Y-83506877D01*
X99793123Y-83661598D01*
X99961140Y-83779245D01*
X99972361Y-83787102D01*
X100123583Y-83857618D01*
X100176022Y-83903790D01*
X100195174Y-83970984D01*
X100174958Y-84037865D01*
X100123583Y-84082382D01*
X99972361Y-84152898D01*
X99972357Y-84152900D01*
X99793121Y-84278402D01*
X99638402Y-84433121D01*
X99512900Y-84612357D01*
X99512898Y-84612361D01*
X99420426Y-84810668D01*
X99420422Y-84810677D01*
X99363793Y-85022020D01*
X99363793Y-85022024D01*
X99344723Y-85239997D01*
X99344723Y-85240002D01*
X99363793Y-85457975D01*
X99363793Y-85457979D01*
X99420422Y-85669322D01*
X99420424Y-85669326D01*
X99420425Y-85669330D01*
X99423320Y-85675538D01*
X99512897Y-85867638D01*
X99512898Y-85867639D01*
X99638402Y-86046877D01*
X99793123Y-86201598D01*
X99961140Y-86319245D01*
X99972361Y-86327102D01*
X100123583Y-86397618D01*
X100176022Y-86443790D01*
X100195174Y-86510984D01*
X100174958Y-86577865D01*
X100123583Y-86622382D01*
X99972361Y-86692898D01*
X99972357Y-86692900D01*
X99793121Y-86818402D01*
X99638402Y-86973121D01*
X99512900Y-87152357D01*
X99512898Y-87152361D01*
X99420426Y-87350668D01*
X99420422Y-87350677D01*
X99363793Y-87562020D01*
X99363793Y-87562024D01*
X99344723Y-87779997D01*
X99344723Y-87780002D01*
X99363793Y-87997975D01*
X99363793Y-87997979D01*
X99420422Y-88209322D01*
X99420424Y-88209326D01*
X99420425Y-88209330D01*
X99423320Y-88215538D01*
X99512897Y-88407638D01*
X99512898Y-88407639D01*
X99638402Y-88586877D01*
X99793123Y-88741598D01*
X99961140Y-88859245D01*
X99972361Y-88867102D01*
X100123583Y-88937618D01*
X100176022Y-88983790D01*
X100195174Y-89050984D01*
X100174958Y-89117865D01*
X100123583Y-89162382D01*
X99972361Y-89232898D01*
X99972357Y-89232900D01*
X99793121Y-89358402D01*
X99638402Y-89513121D01*
X99512900Y-89692357D01*
X99512898Y-89692361D01*
X99420426Y-89890668D01*
X99420422Y-89890677D01*
X99363793Y-90102020D01*
X99363793Y-90102024D01*
X99344723Y-90319997D01*
X99344723Y-90320002D01*
X99363793Y-90537975D01*
X99363793Y-90537979D01*
X99420422Y-90749322D01*
X99420424Y-90749326D01*
X99420425Y-90749330D01*
X99447018Y-90806359D01*
X99512897Y-90947638D01*
X99512898Y-90947639D01*
X99638402Y-91126877D01*
X99793123Y-91281598D01*
X99961140Y-91399245D01*
X99972361Y-91407102D01*
X100123583Y-91477618D01*
X100176022Y-91523790D01*
X100195174Y-91590984D01*
X100174958Y-91657865D01*
X100123583Y-91702382D01*
X99972361Y-91772898D01*
X99972357Y-91772900D01*
X99793121Y-91898402D01*
X99638402Y-92053121D01*
X99512900Y-92232357D01*
X99512898Y-92232361D01*
X99420426Y-92430668D01*
X99420422Y-92430677D01*
X99363793Y-92642020D01*
X99363793Y-92642024D01*
X99344723Y-92859997D01*
X99344723Y-92860002D01*
X99363793Y-93077975D01*
X99363793Y-93077979D01*
X99420422Y-93289322D01*
X99420424Y-93289326D01*
X99420425Y-93289330D01*
X99423320Y-93295538D01*
X99512897Y-93487638D01*
X99512898Y-93487639D01*
X99638402Y-93666877D01*
X99793123Y-93821598D01*
X99961140Y-93939245D01*
X99972361Y-93947102D01*
X100123583Y-94017618D01*
X100176022Y-94063790D01*
X100195174Y-94130984D01*
X100174958Y-94197865D01*
X100123583Y-94242382D01*
X99972361Y-94312898D01*
X99972357Y-94312900D01*
X99793121Y-94438402D01*
X99638402Y-94593121D01*
X99512900Y-94772357D01*
X99512898Y-94772361D01*
X99420426Y-94970668D01*
X99420422Y-94970677D01*
X99363793Y-95182020D01*
X99363793Y-95182024D01*
X99344723Y-95399997D01*
X99344723Y-95400002D01*
X99363793Y-95617975D01*
X99363793Y-95617979D01*
X99420422Y-95829322D01*
X99420424Y-95829326D01*
X99420425Y-95829330D01*
X99423320Y-95835538D01*
X99512897Y-96027638D01*
X99512898Y-96027639D01*
X99638402Y-96206877D01*
X99793123Y-96361598D01*
X99961140Y-96479245D01*
X99972361Y-96487102D01*
X100123583Y-96557618D01*
X100176022Y-96603790D01*
X100195174Y-96670984D01*
X100174958Y-96737865D01*
X100123583Y-96782382D01*
X99972361Y-96852898D01*
X99972357Y-96852900D01*
X99793121Y-96978402D01*
X99638402Y-97133121D01*
X99512900Y-97312357D01*
X99512898Y-97312361D01*
X99420426Y-97510668D01*
X99420422Y-97510677D01*
X99363793Y-97722020D01*
X99363793Y-97722024D01*
X99344723Y-97939997D01*
X99344723Y-97940002D01*
X99363793Y-98157975D01*
X99363793Y-98157979D01*
X99420422Y-98369322D01*
X99420424Y-98369326D01*
X99420425Y-98369330D01*
X99423320Y-98375538D01*
X99512897Y-98567638D01*
X99512898Y-98567639D01*
X99638402Y-98746877D01*
X99793123Y-98901598D01*
X99918930Y-98989689D01*
X99972361Y-99027102D01*
X100123583Y-99097618D01*
X100176022Y-99143790D01*
X100195174Y-99210984D01*
X100174958Y-99277865D01*
X100123583Y-99322382D01*
X99972361Y-99392898D01*
X99972357Y-99392900D01*
X99793121Y-99518402D01*
X99638402Y-99673121D01*
X99512900Y-99852357D01*
X99512898Y-99852361D01*
X99420426Y-100050668D01*
X99420422Y-100050677D01*
X99363793Y-100262020D01*
X99363793Y-100262024D01*
X99344723Y-100479997D01*
X99344723Y-100480002D01*
X99363793Y-100697975D01*
X99363793Y-100697979D01*
X99420422Y-100909322D01*
X99420424Y-100909326D01*
X99420425Y-100909330D01*
X99423320Y-100915538D01*
X99512897Y-101107638D01*
X99512898Y-101107639D01*
X99638402Y-101286877D01*
X99793123Y-101441598D01*
X99961140Y-101559245D01*
X99972361Y-101567102D01*
X100123583Y-101637618D01*
X100176022Y-101683790D01*
X100195174Y-101750984D01*
X100174958Y-101817865D01*
X100123583Y-101862382D01*
X99972361Y-101932898D01*
X99972357Y-101932900D01*
X99793121Y-102058402D01*
X99638402Y-102213121D01*
X99512900Y-102392357D01*
X99512898Y-102392361D01*
X99420426Y-102590668D01*
X99420422Y-102590677D01*
X99363793Y-102802020D01*
X99363793Y-102802023D01*
X99344723Y-103020000D01*
X99363792Y-103237971D01*
X99363793Y-103237975D01*
X99363793Y-103237979D01*
X99420422Y-103449322D01*
X99420424Y-103449326D01*
X99420425Y-103449330D01*
X99435868Y-103482447D01*
X99512897Y-103647638D01*
X99512898Y-103647639D01*
X99638402Y-103826877D01*
X99793123Y-103981598D01*
X99961140Y-104099245D01*
X99972361Y-104107102D01*
X100123583Y-104177618D01*
X100176022Y-104223790D01*
X100195174Y-104290984D01*
X100174958Y-104357865D01*
X100123583Y-104402382D01*
X99972361Y-104472898D01*
X99972357Y-104472900D01*
X99793121Y-104598402D01*
X99638402Y-104753121D01*
X99512900Y-104932357D01*
X99512898Y-104932361D01*
X99420426Y-105130668D01*
X99420422Y-105130677D01*
X99363793Y-105342020D01*
X99363793Y-105342024D01*
X99344723Y-105559997D01*
X99344723Y-105560002D01*
X99363793Y-105777975D01*
X99363793Y-105777979D01*
X99420422Y-105989322D01*
X99420424Y-105989326D01*
X99420425Y-105989330D01*
X99423320Y-105995538D01*
X99512897Y-106187638D01*
X99512898Y-106187639D01*
X99638402Y-106366877D01*
X99793123Y-106521598D01*
X99972361Y-106647102D01*
X100170670Y-106739575D01*
X100382023Y-106796207D01*
X100564926Y-106812208D01*
X100599998Y-106815277D01*
X100600000Y-106815277D01*
X100600002Y-106815277D01*
X100628254Y-106812805D01*
X100817977Y-106796207D01*
X101029330Y-106739575D01*
X101227639Y-106647102D01*
X101406877Y-106521598D01*
X101561598Y-106366877D01*
X101687102Y-106187639D01*
X101779575Y-105989330D01*
X101836207Y-105777977D01*
X101855277Y-105560000D01*
X101836207Y-105342023D01*
X101779575Y-105130670D01*
X101687102Y-104932362D01*
X101687100Y-104932359D01*
X101687099Y-104932357D01*
X101561599Y-104753124D01*
X101524044Y-104715569D01*
X101406877Y-104598402D01*
X101227639Y-104472898D01*
X101076414Y-104402381D01*
X101023977Y-104356210D01*
X101004825Y-104289016D01*
X101025041Y-104222135D01*
X101076414Y-104177618D01*
X101227639Y-104107102D01*
X101406877Y-103981598D01*
X101561598Y-103826877D01*
X101687102Y-103647639D01*
X101779575Y-103449330D01*
X101836207Y-103237977D01*
X101855277Y-103020000D01*
X101836207Y-102802023D01*
X101779575Y-102590670D01*
X101687102Y-102392362D01*
X101687100Y-102392359D01*
X101687099Y-102392357D01*
X101561599Y-102213124D01*
X101556236Y-102207761D01*
X101406877Y-102058402D01*
X101227639Y-101932898D01*
X101076414Y-101862381D01*
X101023977Y-101816210D01*
X101004825Y-101749016D01*
X101025041Y-101682135D01*
X101076414Y-101637618D01*
X101227639Y-101567102D01*
X101406877Y-101441598D01*
X101561598Y-101286877D01*
X101687102Y-101107639D01*
X101779575Y-100909330D01*
X101836207Y-100697977D01*
X101855277Y-100480000D01*
X101836207Y-100262023D01*
X101779575Y-100050670D01*
X101687102Y-99852362D01*
X101687100Y-99852359D01*
X101687099Y-99852357D01*
X101561599Y-99673124D01*
X101488215Y-99599740D01*
X101406877Y-99518402D01*
X101227639Y-99392898D01*
X101076414Y-99322381D01*
X101023977Y-99276210D01*
X101004825Y-99209016D01*
X101025041Y-99142135D01*
X101076414Y-99097618D01*
X101227639Y-99027102D01*
X101406877Y-98901598D01*
X101561598Y-98746877D01*
X101687102Y-98567639D01*
X101779575Y-98369330D01*
X101836207Y-98157977D01*
X101855277Y-97940000D01*
X101836207Y-97722023D01*
X101779575Y-97510670D01*
X101687102Y-97312362D01*
X101687100Y-97312359D01*
X101687099Y-97312357D01*
X101561599Y-97133124D01*
X101556236Y-97127761D01*
X101406877Y-96978402D01*
X101227639Y-96852898D01*
X101076414Y-96782381D01*
X101023977Y-96736210D01*
X101004825Y-96669016D01*
X101025041Y-96602135D01*
X101076414Y-96557618D01*
X101227639Y-96487102D01*
X101406877Y-96361598D01*
X101561598Y-96206877D01*
X101687102Y-96027639D01*
X101779575Y-95829330D01*
X101836207Y-95617977D01*
X101855277Y-95400000D01*
X101854853Y-95395158D01*
X101848132Y-95318334D01*
X101836207Y-95182023D01*
X101779575Y-94970670D01*
X101687102Y-94772362D01*
X101687100Y-94772359D01*
X101687099Y-94772357D01*
X101561599Y-94593124D01*
X101556236Y-94587761D01*
X101406877Y-94438402D01*
X101227639Y-94312898D01*
X101076414Y-94242381D01*
X101023977Y-94196210D01*
X101004825Y-94129016D01*
X101025041Y-94062135D01*
X101076414Y-94017618D01*
X101227639Y-93947102D01*
X101406877Y-93821598D01*
X101561598Y-93666877D01*
X101687102Y-93487639D01*
X101779575Y-93289330D01*
X101836207Y-93077977D01*
X101855277Y-92860000D01*
X101836207Y-92642023D01*
X101779575Y-92430670D01*
X101687102Y-92232362D01*
X101687100Y-92232359D01*
X101687099Y-92232357D01*
X101561599Y-92053124D01*
X101556236Y-92047761D01*
X101406877Y-91898402D01*
X101227639Y-91772898D01*
X101076414Y-91702381D01*
X101023977Y-91656210D01*
X101004825Y-91589016D01*
X101025041Y-91522135D01*
X101076414Y-91477618D01*
X101227639Y-91407102D01*
X101406877Y-91281598D01*
X101561598Y-91126877D01*
X101687102Y-90947639D01*
X101779575Y-90749330D01*
X101836207Y-90537977D01*
X101855277Y-90320000D01*
X101836207Y-90102023D01*
X101779575Y-89890670D01*
X101687102Y-89692362D01*
X101687100Y-89692359D01*
X101687099Y-89692357D01*
X101561599Y-89513124D01*
X101498955Y-89450480D01*
X101406877Y-89358402D01*
X101227639Y-89232898D01*
X101076414Y-89162381D01*
X101023977Y-89116210D01*
X101004825Y-89049016D01*
X101025041Y-88982135D01*
X101076414Y-88937618D01*
X101227639Y-88867102D01*
X101406877Y-88741598D01*
X101561598Y-88586877D01*
X101687102Y-88407639D01*
X101779575Y-88209330D01*
X101836207Y-87997977D01*
X101855277Y-87780000D01*
X101836207Y-87562023D01*
X101779575Y-87350670D01*
X101687102Y-87152362D01*
X101687100Y-87152359D01*
X101687099Y-87152357D01*
X101561599Y-86973124D01*
X101556236Y-86967761D01*
X101406877Y-86818402D01*
X101227639Y-86692898D01*
X101076414Y-86622381D01*
X101023977Y-86576210D01*
X101004825Y-86509016D01*
X101025041Y-86442135D01*
X101076414Y-86397618D01*
X101227639Y-86327102D01*
X101406877Y-86201598D01*
X101561598Y-86046877D01*
X101687102Y-85867639D01*
X101779575Y-85669330D01*
X101836207Y-85457977D01*
X101855277Y-85240000D01*
X101836207Y-85022023D01*
X101779575Y-84810670D01*
X101687102Y-84612362D01*
X101687100Y-84612359D01*
X101687099Y-84612357D01*
X101561599Y-84433124D01*
X101556236Y-84427761D01*
X101406877Y-84278402D01*
X101227639Y-84152898D01*
X101076414Y-84082381D01*
X101023977Y-84036210D01*
X101004825Y-83969016D01*
X101025041Y-83902135D01*
X101076414Y-83857618D01*
X101227639Y-83787102D01*
X101406877Y-83661598D01*
X101561598Y-83506877D01*
X101687102Y-83327639D01*
X101779575Y-83129330D01*
X101836207Y-82917977D01*
X101855277Y-82700000D01*
X101836207Y-82482023D01*
X101779575Y-82270670D01*
X101687102Y-82072362D01*
X101687100Y-82072359D01*
X101687099Y-82072357D01*
X101561599Y-81893124D01*
X101556236Y-81887761D01*
X101406877Y-81738402D01*
X101227639Y-81612898D01*
X101076414Y-81542381D01*
X101023977Y-81496210D01*
X101004825Y-81429016D01*
X101025041Y-81362135D01*
X101076414Y-81317618D01*
X101227639Y-81247102D01*
X101406877Y-81121598D01*
X101561598Y-80966877D01*
X101687102Y-80787639D01*
X101779575Y-80589330D01*
X101836207Y-80377977D01*
X101855277Y-80160000D01*
X101836207Y-79942023D01*
X101779575Y-79730670D01*
X101687102Y-79532362D01*
X101687100Y-79532359D01*
X101687099Y-79532357D01*
X101561599Y-79353124D01*
X101556236Y-79347761D01*
X101406877Y-79198402D01*
X101238856Y-79080752D01*
X101227638Y-79072897D01*
X101075824Y-79002105D01*
X101023385Y-78955932D01*
X101004233Y-78888739D01*
X101024449Y-78821858D01*
X101075825Y-78777341D01*
X101227384Y-78706668D01*
X101227386Y-78706667D01*
X101406554Y-78581212D01*
X101561212Y-78426554D01*
X101686666Y-78247387D01*
X101779101Y-78049159D01*
X101779105Y-78049150D01*
X101827108Y-77870000D01*
X101033012Y-77870000D01*
X101065925Y-77812993D01*
X101100000Y-77685826D01*
X101100000Y-77554174D01*
X101065925Y-77427007D01*
X101033012Y-77370000D01*
X101827108Y-77370000D01*
X101827108Y-77369999D01*
X101779105Y-77190849D01*
X101779101Y-77190840D01*
X101686666Y-76992612D01*
X101686664Y-76992608D01*
X101561216Y-76813450D01*
X101561211Y-76813444D01*
X101406554Y-76658787D01*
X101227387Y-76533333D01*
X101075824Y-76462658D01*
X101023385Y-76416486D01*
X101004233Y-76349292D01*
X101024449Y-76282411D01*
X101075822Y-76237895D01*
X101227639Y-76167102D01*
X101406877Y-76041598D01*
X101561598Y-75886877D01*
X101687102Y-75707639D01*
X101779575Y-75509330D01*
X101836207Y-75297977D01*
X101855277Y-75080000D01*
X101847560Y-74991799D01*
X101861326Y-74923302D01*
X101883404Y-74893316D01*
X104236722Y-72540000D01*
X104276784Y-72499939D01*
X104276783Y-72499938D01*
X104313092Y-72463631D01*
X104313100Y-72463621D01*
X104330797Y-72445925D01*
X104330798Y-72445922D01*
X104335052Y-72441669D01*
X104335466Y-72441210D01*
X104409436Y-72367243D01*
X104653149Y-72081897D01*
X104873723Y-71778309D01*
X105069798Y-71458350D01*
X105240165Y-71123994D01*
X105383773Y-70777302D01*
X105499738Y-70420412D01*
X105587344Y-70055523D01*
X105646052Y-69684885D01*
X105675498Y-69310784D01*
X105675498Y-69207130D01*
X105675500Y-69207121D01*
X105675500Y-69074696D01*
X105675501Y-69041647D01*
X105675500Y-69041642D01*
X105675500Y-67866261D01*
X105675500Y-67860295D01*
X105675471Y-67859722D01*
X105675473Y-67777810D01*
X105660985Y-67612178D01*
X105646746Y-67449395D01*
X105646744Y-67449382D01*
X105638037Y-67400001D01*
X105622083Y-67309510D01*
X105589504Y-67124733D01*
X105589502Y-67124726D01*
X105589499Y-67124707D01*
X105504175Y-66806256D01*
X105504171Y-66806245D01*
X105504169Y-66806238D01*
X105391426Y-66496467D01*
X105391424Y-66496464D01*
X105391421Y-66496454D01*
X105252094Y-66197659D01*
X105180126Y-66073004D01*
X105125980Y-65979217D01*
X105087256Y-65912143D01*
X104992708Y-65777112D01*
X104898159Y-65642079D01*
X104792203Y-65515804D01*
X104686247Y-65389527D01*
X104569688Y-65272965D01*
X104512053Y-65215329D01*
X104512049Y-65215327D01*
X104507646Y-65210923D01*
X104507244Y-65210561D01*
X104468195Y-65171511D01*
X104243803Y-64992558D01*
X104243804Y-64992558D01*
X104243802Y-64992557D01*
X104000781Y-64839852D01*
X104000777Y-64839850D01*
X103818395Y-64752015D01*
X103766537Y-64705192D01*
X103748199Y-64640296D01*
X103748199Y-64620782D01*
X103748198Y-64620775D01*
X103733346Y-64526996D01*
X103675750Y-64413958D01*
X103675746Y-64413954D01*
X103675745Y-64413952D01*
X103586047Y-64324254D01*
X103586044Y-64324252D01*
X103586042Y-64324250D01*
X103473004Y-64266654D01*
X103473002Y-64266653D01*
X103464309Y-64262224D01*
X103465100Y-64260670D01*
X103416941Y-64227736D01*
X103389746Y-64163376D01*
X103401665Y-64094530D01*
X103434276Y-64053394D01*
X103440272Y-64048471D01*
X103444776Y-64044776D01*
X103575764Y-63885167D01*
X103673096Y-63703070D01*
X103733034Y-63505483D01*
X103753272Y-63300000D01*
X103733034Y-63094517D01*
X103673096Y-62896930D01*
X103575764Y-62714833D01*
X103575763Y-62714831D01*
X103444776Y-62555223D01*
X103285168Y-62424236D01*
X103285165Y-62424234D01*
X103257331Y-62409357D01*
X103207487Y-62360395D01*
X103192026Y-62292257D01*
X103215858Y-62226578D01*
X103257328Y-62190642D01*
X103285167Y-62175763D01*
X103444776Y-62044775D01*
X103575764Y-61885166D01*
X103673096Y-61703069D01*
X103733034Y-61505482D01*
X103753272Y-61299999D01*
X103733034Y-61094516D01*
X103673096Y-60896929D01*
X103613054Y-60784597D01*
X103575765Y-60714833D01*
X103575763Y-60714830D01*
X103444776Y-60555222D01*
X103285168Y-60424236D01*
X103285167Y-60424235D01*
X103272524Y-60417477D01*
X103222680Y-60368516D01*
X103207219Y-60300378D01*
X103231050Y-60234698D01*
X103274685Y-60197633D01*
X103302622Y-60183399D01*
X103302621Y-60183399D01*
X103302626Y-60183397D01*
X103337738Y-60157885D01*
X103345317Y-60152796D01*
X103395878Y-60121491D01*
X103422380Y-60097331D01*
X103433032Y-60088651D01*
X103449044Y-60077018D01*
X103492226Y-60033834D01*
X103496324Y-60029921D01*
X103553353Y-59977934D01*
X103564281Y-59963462D01*
X103575565Y-59950496D01*
X103577018Y-59949044D01*
X103623275Y-59885376D01*
X103624641Y-59883532D01*
X103624653Y-59883516D01*
X103681768Y-59807885D01*
X103726721Y-59717604D01*
X103727145Y-59716763D01*
X103765561Y-59641370D01*
X103765564Y-59641359D01*
X103767425Y-59636868D01*
X103767669Y-59636969D01*
X103771310Y-59628059D01*
X103771762Y-59627150D01*
X103776750Y-59617135D01*
X103798794Y-59539658D01*
X103799471Y-59537279D01*
X103800807Y-59532893D01*
X103821487Y-59469249D01*
X103821487Y-59469248D01*
X103821486Y-59469248D01*
X103821488Y-59469245D01*
X103823661Y-59455521D01*
X103826866Y-59440994D01*
X103835065Y-59412180D01*
X103841094Y-59347106D01*
X103842092Y-59339153D01*
X103849800Y-59290488D01*
X103849800Y-59258893D01*
X103850329Y-59247452D01*
X103854726Y-59200000D01*
X103854726Y-59199998D01*
X103850329Y-59152546D01*
X103849800Y-59141105D01*
X103849800Y-59109509D01*
X103842092Y-59060844D01*
X103841094Y-59052887D01*
X103839058Y-59030919D01*
X103835065Y-58987820D01*
X103826864Y-58958998D01*
X103823662Y-58944484D01*
X103821488Y-58930755D01*
X103800799Y-58867081D01*
X103799480Y-58862754D01*
X103776750Y-58782865D01*
X103771302Y-58771925D01*
X103767669Y-58763033D01*
X103767426Y-58763134D01*
X103765559Y-58758626D01*
X103727211Y-58683366D01*
X103726694Y-58682341D01*
X103681768Y-58592115D01*
X103624598Y-58516410D01*
X103623250Y-58514589D01*
X103577018Y-58450956D01*
X103575557Y-58449495D01*
X103564284Y-58436540D01*
X103553356Y-58422070D01*
X103553353Y-58422066D01*
X103496326Y-58370079D01*
X103492206Y-58366144D01*
X103449048Y-58322985D01*
X103441963Y-58317837D01*
X103433024Y-58311342D01*
X103422377Y-58302665D01*
X103395880Y-58278510D01*
X103382295Y-58270099D01*
X103345317Y-58247202D01*
X103337743Y-58242116D01*
X103302626Y-58216603D01*
X103300430Y-58215484D01*
X103269219Y-58199581D01*
X103260239Y-58194524D01*
X103214712Y-58166335D01*
X103214708Y-58166333D01*
X103214706Y-58166332D01*
X103175764Y-58151245D01*
X103164271Y-58146107D01*
X103152604Y-58140163D01*
X103141371Y-58134439D01*
X103088899Y-58117389D01*
X103082426Y-58115086D01*
X103016007Y-58089355D01*
X103016000Y-58089353D01*
X102992365Y-58084935D01*
X102976841Y-58080980D01*
X102969245Y-58078512D01*
X102969243Y-58078511D01*
X102969241Y-58078511D01*
X102897335Y-58067122D01*
X102893951Y-58066538D01*
X102806545Y-58050200D01*
X102593455Y-58050200D01*
X102593453Y-58050200D01*
X102506058Y-58066536D01*
X102502675Y-58067120D01*
X102430756Y-58078511D01*
X102430750Y-58078513D01*
X102423147Y-58080983D01*
X102407629Y-58084936D01*
X102383997Y-58089354D01*
X102383987Y-58089356D01*
X102317561Y-58115090D01*
X102311089Y-58117393D01*
X102258634Y-58134437D01*
X102258620Y-58134443D01*
X102235728Y-58146107D01*
X102224231Y-58151247D01*
X102185299Y-58166329D01*
X102185296Y-58166331D01*
X102185295Y-58166331D01*
X102185294Y-58166332D01*
X102139749Y-58194531D01*
X102130780Y-58199581D01*
X102097379Y-58216599D01*
X102097366Y-58216607D01*
X102062269Y-58242106D01*
X102054668Y-58247211D01*
X102004120Y-58278510D01*
X101977616Y-58302671D01*
X101966972Y-58311345D01*
X101950953Y-58322984D01*
X101907789Y-58366147D01*
X101903649Y-58370100D01*
X101846648Y-58422063D01*
X101846645Y-58422067D01*
X101835711Y-58436545D01*
X101824461Y-58449475D01*
X101822986Y-58450949D01*
X101822985Y-58450951D01*
X101776760Y-58514573D01*
X101775399Y-58516410D01*
X101718235Y-58592110D01*
X101718231Y-58592117D01*
X101673324Y-58682301D01*
X101672809Y-58683322D01*
X101634439Y-58758629D01*
X101632577Y-58763125D01*
X101632338Y-58763026D01*
X101628703Y-58771910D01*
X101623255Y-58782852D01*
X101623251Y-58782862D01*
X101623250Y-58782865D01*
X101617943Y-58801517D01*
X101600528Y-58862721D01*
X101599194Y-58867100D01*
X101578510Y-58930761D01*
X101576336Y-58944484D01*
X101573132Y-58959006D01*
X101564935Y-58987818D01*
X101558905Y-59052883D01*
X101557908Y-59060834D01*
X101550200Y-59109508D01*
X101550200Y-59141105D01*
X101549671Y-59152546D01*
X101545274Y-59199998D01*
X101545274Y-59200000D01*
X101549671Y-59247452D01*
X101550200Y-59258893D01*
X101550200Y-59290491D01*
X101557908Y-59339164D01*
X101558905Y-59347117D01*
X101564934Y-59412175D01*
X101564934Y-59412177D01*
X101573133Y-59440994D01*
X101576338Y-59455522D01*
X101578511Y-59469241D01*
X101578513Y-59469248D01*
X101599193Y-59532897D01*
X101600528Y-59537278D01*
X101613315Y-59582220D01*
X101623250Y-59617135D01*
X101628696Y-59628073D01*
X101632331Y-59636962D01*
X101632572Y-59636863D01*
X101634436Y-59641364D01*
X101672853Y-59716763D01*
X101673367Y-59717784D01*
X101718232Y-59807885D01*
X101775346Y-59883516D01*
X101776709Y-59885356D01*
X101822981Y-59949043D01*
X101824443Y-59950505D01*
X101835715Y-59963458D01*
X101846647Y-59977934D01*
X101903672Y-60029919D01*
X101907792Y-60033854D01*
X101950956Y-60077018D01*
X101950959Y-60077020D01*
X101966966Y-60088650D01*
X101977619Y-60097331D01*
X102004119Y-60121489D01*
X102004121Y-60121490D01*
X102004122Y-60121491D01*
X102054658Y-60152782D01*
X102054665Y-60152786D01*
X102062270Y-60157894D01*
X102097364Y-60183390D01*
X102097374Y-60183397D01*
X102097386Y-60183403D01*
X102125314Y-60197633D01*
X102176111Y-60245606D01*
X102192908Y-60313426D01*
X102170372Y-60379562D01*
X102127477Y-60417476D01*
X102114834Y-60424233D01*
X102114831Y-60424235D01*
X101955223Y-60555222D01*
X101824236Y-60714830D01*
X101824234Y-60714833D01*
X101726904Y-60896927D01*
X101666966Y-61094513D01*
X101646728Y-61299999D01*
X101666966Y-61505484D01*
X101726904Y-61703070D01*
X101824234Y-61885164D01*
X101824236Y-61885167D01*
X101955223Y-62044775D01*
X102114830Y-62175761D01*
X102114831Y-62175761D01*
X102114833Y-62175763D01*
X102142668Y-62190640D01*
X102192512Y-62239602D01*
X102207973Y-62307739D01*
X102184142Y-62373419D01*
X102142669Y-62409357D01*
X102114831Y-62424236D01*
X101955223Y-62555223D01*
X101824236Y-62714831D01*
X101824234Y-62714834D01*
X101726904Y-62896928D01*
X101666966Y-63094514D01*
X101646728Y-63300000D01*
X101666966Y-63505485D01*
X101726904Y-63703071D01*
X101824234Y-63885165D01*
X101824236Y-63885168D01*
X101955225Y-64044777D01*
X101965724Y-64053394D01*
X102005060Y-64111139D01*
X102006931Y-64180983D01*
X101970745Y-64240752D01*
X101935279Y-64261413D01*
X101935692Y-64262224D01*
X101926998Y-64266653D01*
X101926996Y-64266654D01*
X101813958Y-64324250D01*
X101813957Y-64324251D01*
X101813952Y-64324254D01*
X101724254Y-64413952D01*
X101724251Y-64413957D01*
X101666652Y-64526998D01*
X101651800Y-64620775D01*
X101651800Y-65979217D01*
X101657635Y-66016057D01*
X101666654Y-66073004D01*
X101724250Y-66186042D01*
X101724252Y-66186044D01*
X101724254Y-66186047D01*
X101813952Y-66275745D01*
X101813954Y-66275746D01*
X101813958Y-66275750D01*
X101916426Y-66327960D01*
X101967222Y-66375935D01*
X101984017Y-66443756D01*
X101961479Y-66509891D01*
X101947811Y-66526127D01*
X101907790Y-66566147D01*
X101903649Y-66570101D01*
X101846648Y-66622064D01*
X101846645Y-66622068D01*
X101835711Y-66636546D01*
X101824461Y-66649476D01*
X101822986Y-66650950D01*
X101822985Y-66650952D01*
X101776760Y-66714574D01*
X101775399Y-66716411D01*
X101718235Y-66792111D01*
X101718231Y-66792118D01*
X101673324Y-66882302D01*
X101672809Y-66883323D01*
X101634439Y-66958630D01*
X101632577Y-66963126D01*
X101632338Y-66963027D01*
X101628703Y-66971911D01*
X101623255Y-66982853D01*
X101623251Y-66982863D01*
X101623250Y-66982866D01*
X101619022Y-66997726D01*
X101600528Y-67062722D01*
X101599194Y-67067101D01*
X101578510Y-67130762D01*
X101576336Y-67144485D01*
X101573132Y-67159007D01*
X101564935Y-67187819D01*
X101558905Y-67252884D01*
X101557908Y-67260835D01*
X101550200Y-67309509D01*
X101550200Y-67341106D01*
X101549671Y-67352547D01*
X101545274Y-67399999D01*
X101545274Y-67400001D01*
X101549671Y-67447453D01*
X101550200Y-67458894D01*
X101550200Y-67490492D01*
X101557908Y-67539165D01*
X101558905Y-67547118D01*
X101564934Y-67612176D01*
X101564934Y-67612178D01*
X101573133Y-67640995D01*
X101576338Y-67655523D01*
X101578511Y-67669242D01*
X101578513Y-67669249D01*
X101599193Y-67732898D01*
X101600528Y-67737279D01*
X101623250Y-67817136D01*
X101628696Y-67828074D01*
X101632331Y-67836963D01*
X101632572Y-67836864D01*
X101634436Y-67841365D01*
X101672853Y-67916764D01*
X101673367Y-67917785D01*
X101718232Y-68007886D01*
X101775346Y-68083517D01*
X101776709Y-68085357D01*
X101822981Y-68149044D01*
X101824443Y-68150506D01*
X101835715Y-68163459D01*
X101846647Y-68177935D01*
X101903672Y-68229920D01*
X101907792Y-68233855D01*
X101950956Y-68277019D01*
X101950959Y-68277021D01*
X101966966Y-68288651D01*
X101977619Y-68297332D01*
X102004119Y-68321490D01*
X102004121Y-68321491D01*
X102004122Y-68321492D01*
X102054658Y-68352783D01*
X102054665Y-68352787D01*
X102062270Y-68357895D01*
X102097364Y-68383391D01*
X102097374Y-68383398D01*
X102130792Y-68400425D01*
X102139758Y-68405474D01*
X102185294Y-68433669D01*
X102224226Y-68448751D01*
X102224234Y-68448754D01*
X102235733Y-68453895D01*
X102258630Y-68465562D01*
X102311115Y-68482615D01*
X102317520Y-68484893D01*
X102383994Y-68510646D01*
X102407631Y-68515064D01*
X102423152Y-68519018D01*
X102430755Y-68521489D01*
X102502733Y-68532888D01*
X102506023Y-68533456D01*
X102593455Y-68549801D01*
X102593457Y-68549801D01*
X102806544Y-68549801D01*
X102806545Y-68549801D01*
X102893923Y-68533466D01*
X102897281Y-68532887D01*
X102949256Y-68524654D01*
X102969245Y-68521489D01*
X102976845Y-68519019D01*
X102992367Y-68515064D01*
X103016006Y-68510646D01*
X103082461Y-68484900D01*
X103088859Y-68482623D01*
X103141370Y-68465562D01*
X103164265Y-68453895D01*
X103175756Y-68448757D01*
X103214706Y-68433669D01*
X103260258Y-68405462D01*
X103269205Y-68400425D01*
X103302626Y-68383398D01*
X103337738Y-68357886D01*
X103345317Y-68352797D01*
X103395878Y-68321492D01*
X103422380Y-68297332D01*
X103433032Y-68288652D01*
X103449044Y-68277019D01*
X103492226Y-68233835D01*
X103496324Y-68229922D01*
X103553353Y-68177935D01*
X103564281Y-68163463D01*
X103575565Y-68150497D01*
X103577018Y-68149045D01*
X103623275Y-68085377D01*
X103624641Y-68083533D01*
X103624653Y-68083517D01*
X103681768Y-68007886D01*
X103726721Y-67917605D01*
X103727145Y-67916764D01*
X103765561Y-67841371D01*
X103765564Y-67841360D01*
X103767425Y-67836869D01*
X103767669Y-67836970D01*
X103771310Y-67828060D01*
X103771762Y-67827151D01*
X103776750Y-67817136D01*
X103799471Y-67737279D01*
X103800807Y-67732894D01*
X103821487Y-67669250D01*
X103821487Y-67669249D01*
X103821486Y-67669249D01*
X103821488Y-67669246D01*
X103823661Y-67655522D01*
X103826866Y-67640995D01*
X103835065Y-67612181D01*
X103840108Y-67557748D01*
X103865893Y-67492812D01*
X103922693Y-67452124D01*
X103992474Y-67448603D01*
X104053081Y-67483367D01*
X104085272Y-67545379D01*
X104085827Y-67548420D01*
X104109320Y-67686699D01*
X104110877Y-67700517D01*
X104124304Y-67939669D01*
X104124499Y-67946620D01*
X104124499Y-68031733D01*
X104124500Y-68031750D01*
X104124500Y-69120083D01*
X104124351Y-69126169D01*
X104109268Y-69433108D01*
X104108075Y-69445218D01*
X104063428Y-69746177D01*
X104061054Y-69758111D01*
X103987125Y-70053246D01*
X103983592Y-70064892D01*
X103881088Y-70351358D01*
X103876431Y-70362600D01*
X103746347Y-70637634D01*
X103740611Y-70648366D01*
X103584188Y-70909336D01*
X103577427Y-70919453D01*
X103396181Y-71163831D01*
X103388461Y-71173238D01*
X103181649Y-71401415D01*
X103177453Y-71405822D01*
X103120008Y-71463267D01*
X103119990Y-71463286D01*
X102058434Y-72524842D01*
X101997111Y-72558327D01*
X101927419Y-72553343D01*
X101871486Y-72511471D01*
X101847225Y-72447968D01*
X101836207Y-72322023D01*
X101779575Y-72110670D01*
X101687102Y-71912362D01*
X101687100Y-71912359D01*
X101687099Y-71912357D01*
X101561599Y-71733124D01*
X101556236Y-71727761D01*
X101406877Y-71578402D01*
X101260733Y-71476071D01*
X101217112Y-71421497D01*
X101209919Y-71351998D01*
X101241441Y-71289644D01*
X101301671Y-71254230D01*
X101331859Y-71250499D01*
X101481518Y-71250499D01*
X101575304Y-71235646D01*
X101688342Y-71178050D01*
X101778050Y-71088342D01*
X101835646Y-70975304D01*
X101835646Y-70975302D01*
X101835647Y-70975301D01*
X101850499Y-70881524D01*
X101850500Y-70881519D01*
X101850499Y-69118482D01*
X101835646Y-69024696D01*
X101778050Y-68911658D01*
X101778046Y-68911654D01*
X101778045Y-68911652D01*
X101688347Y-68821954D01*
X101688344Y-68821952D01*
X101688342Y-68821950D01*
X101611517Y-68782805D01*
X101575301Y-68764352D01*
X101481524Y-68749500D01*
X99728318Y-68749500D01*
X99661279Y-68729815D01*
X99615524Y-68677011D01*
X99605580Y-68607853D01*
X99634605Y-68544297D01*
X99636380Y-68542294D01*
X99684422Y-68489287D01*
X99688588Y-68484912D01*
X99749464Y-68424035D01*
X99749467Y-68424029D01*
X99753749Y-68419748D01*
X99754040Y-68419427D01*
X99773050Y-68400417D01*
X99820834Y-68352634D01*
X100067165Y-68064218D01*
X100290108Y-67757365D01*
X100488289Y-67433966D01*
X100488304Y-67433937D01*
X100660480Y-67096028D01*
X100660480Y-67096027D01*
X100660480Y-67096025D01*
X100660486Y-67096015D01*
X100805637Y-66745596D01*
X100922848Y-66384868D01*
X101011395Y-66016057D01*
X101070734Y-65641435D01*
X101100497Y-65263312D01*
X101100497Y-65170991D01*
X101100500Y-65170971D01*
X101100500Y-65042618D01*
X101100501Y-64984975D01*
X101100500Y-64984969D01*
X101100500Y-57659227D01*
X101100500Y-57652953D01*
X101100494Y-57652837D01*
X101100495Y-57604307D01*
X101072343Y-57318452D01*
X101016307Y-57036733D01*
X101009922Y-57015687D01*
X101009299Y-56945821D01*
X101046547Y-56886708D01*
X101109841Y-56857117D01*
X101173377Y-56864066D01*
X101225188Y-56884138D01*
X101304998Y-56899056D01*
X101304998Y-56040690D01*
X101309392Y-56045084D01*
X101400604Y-56097745D01*
X101502337Y-56125004D01*
X101607659Y-56125004D01*
X101709392Y-56097745D01*
X101800604Y-56045084D01*
X101804998Y-56040690D01*
X101804998Y-56899056D01*
X101884802Y-56884139D01*
X102092175Y-56803802D01*
X102092177Y-56803801D01*
X102281259Y-56686725D01*
X102445606Y-56536904D01*
X102579629Y-56359429D01*
X102678758Y-56160353D01*
X102731493Y-55975004D01*
X101870684Y-55975004D01*
X101875078Y-55970610D01*
X101927739Y-55879398D01*
X101954998Y-55777665D01*
X101954998Y-55672343D01*
X101927739Y-55570610D01*
X101875078Y-55479398D01*
X101870684Y-55475004D01*
X102731493Y-55475004D01*
X102678758Y-55289654D01*
X102579629Y-55090578D01*
X102445606Y-54913103D01*
X102281259Y-54763282D01*
X102092177Y-54646206D01*
X102092175Y-54646205D01*
X101884797Y-54565868D01*
X101804998Y-54550950D01*
X101804998Y-55409318D01*
X101800604Y-55404924D01*
X101709392Y-55352263D01*
X101607659Y-55325004D01*
X101502337Y-55325004D01*
X101400604Y-55352263D01*
X101309392Y-55404924D01*
X101304998Y-55409318D01*
X101304998Y-54550950D01*
X101225198Y-54565868D01*
X101017820Y-54646205D01*
X101017818Y-54646206D01*
X100828736Y-54763282D01*
X100664389Y-54913103D01*
X100530366Y-55090578D01*
X100431237Y-55289655D01*
X100431234Y-55289661D01*
X100404525Y-55383536D01*
X100367246Y-55442630D01*
X100303936Y-55472187D01*
X100234697Y-55462825D01*
X100181510Y-55417515D01*
X100165993Y-55383536D01*
X100157809Y-55354773D01*
X100139229Y-55289469D01*
X100139223Y-55289456D01*
X100040061Y-55090313D01*
X100040056Y-55090305D01*
X99905979Y-54912758D01*
X99741562Y-54762873D01*
X99741560Y-54762871D01*
X99552404Y-54645751D01*
X99552398Y-54645749D01*
X99344940Y-54565379D01*
X99126243Y-54524497D01*
X99126241Y-54524497D01*
X98962581Y-54524497D01*
X98895542Y-54504812D01*
X98874900Y-54488178D01*
X98665570Y-54278848D01*
X98665566Y-54278843D01*
X98658497Y-54271774D01*
X98600861Y-54214139D01*
X98600859Y-54214137D01*
X98542743Y-54156020D01*
X98542621Y-54155909D01*
X98475462Y-54088750D01*
X98203771Y-53860773D01*
X97913241Y-53657341D01*
X97913238Y-53657339D01*
X97913235Y-53657337D01*
X97616023Y-53485741D01*
X97606085Y-53480003D01*
X97606069Y-53479995D01*
X97284637Y-53330108D01*
X96951364Y-53208804D01*
X96951358Y-53208802D01*
X96951354Y-53208801D01*
X96734165Y-53150604D01*
X96608768Y-53117004D01*
X96608757Y-53117002D01*
X96259484Y-53055414D01*
X96259487Y-53055414D01*
X95906162Y-53024500D01*
X95906160Y-53024500D01*
X95805199Y-53024500D01*
X95728824Y-53024500D01*
X95728809Y-53024499D01*
X95647315Y-53024499D01*
X95647314Y-53024499D01*
X95641202Y-53024499D01*
X95641182Y-53024500D01*
X77983755Y-53024500D01*
X77983748Y-53024498D01*
X77752818Y-53024498D01*
X77752817Y-53024499D01*
X77395036Y-53055801D01*
X77041356Y-53118165D01*
X77041349Y-53118166D01*
X76855439Y-53167981D01*
X76694443Y-53211121D01*
X76694440Y-53211122D01*
X76694439Y-53211122D01*
X76505929Y-53279734D01*
X76356957Y-53333956D01*
X76356953Y-53333957D01*
X76356947Y-53333960D01*
X76356939Y-53333963D01*
X76031470Y-53485733D01*
X76031454Y-53485741D01*
X75720440Y-53665306D01*
X75720425Y-53665315D01*
X75426231Y-53871312D01*
X75151113Y-54102164D01*
X75039141Y-54214137D01*
X75024139Y-54229139D01*
X74974434Y-54278843D01*
X74966502Y-54286775D01*
X74966501Y-54286776D01*
X74735097Y-54518181D01*
X74673774Y-54551666D01*
X74647416Y-54554500D01*
X74483757Y-54554500D01*
X74265060Y-54595382D01*
X74135043Y-54645751D01*
X74057601Y-54675752D01*
X74057595Y-54675754D01*
X73868439Y-54792874D01*
X73868437Y-54792876D01*
X73704020Y-54942761D01*
X73569943Y-55120308D01*
X73569938Y-55120316D01*
X73470775Y-55319461D01*
X73470769Y-55319476D01*
X73444266Y-55412627D01*
X73406987Y-55471721D01*
X73343677Y-55501278D01*
X73274438Y-55491916D01*
X73221251Y-55446606D01*
X73205734Y-55412627D01*
X73179230Y-55319476D01*
X73179229Y-55319472D01*
X73164382Y-55289655D01*
X73080061Y-55120316D01*
X73080056Y-55120308D01*
X72945979Y-54942761D01*
X72781562Y-54792876D01*
X72781560Y-54792874D01*
X72592404Y-54675754D01*
X72592398Y-54675752D01*
X72384940Y-54595382D01*
X72166243Y-54554500D01*
X71943757Y-54554500D01*
X71725060Y-54595382D01*
X71595043Y-54645751D01*
X71517601Y-54675752D01*
X71517595Y-54675754D01*
X71328439Y-54792874D01*
X71328437Y-54792876D01*
X71164020Y-54942761D01*
X71029943Y-55120308D01*
X71029938Y-55120316D01*
X70930775Y-55319461D01*
X70930769Y-55319476D01*
X70869885Y-55533462D01*
X70869884Y-55533464D01*
X70849357Y-55754999D01*
X70400500Y-55754999D01*
X70400500Y-55105344D01*
X70400766Y-55097234D01*
X70410891Y-54942764D01*
X70415011Y-54879906D01*
X70417128Y-54863830D01*
X70433663Y-54780703D01*
X70458827Y-54654197D01*
X70463019Y-54638549D01*
X70531728Y-54436147D01*
X70537935Y-54421165D01*
X70583494Y-54328780D01*
X70632469Y-54229471D01*
X70640570Y-54215438D01*
X70759330Y-54037705D01*
X70769194Y-54024852D01*
X70913009Y-53860865D01*
X70918533Y-53854967D01*
X70978181Y-53795321D01*
X70978183Y-53795317D01*
X70981793Y-53791708D01*
X70981806Y-53791693D01*
X71695252Y-53078244D01*
X71695273Y-53078226D01*
X71700053Y-53073445D01*
X71700059Y-53073442D01*
X71750055Y-53023443D01*
X71760855Y-53012642D01*
X71764705Y-53008955D01*
X72050864Y-52746727D01*
X72059134Y-52739788D01*
X72364830Y-52505211D01*
X72373677Y-52499014D01*
X72698685Y-52291955D01*
X72708032Y-52286559D01*
X73049851Y-52108614D01*
X73059609Y-52104065D01*
X73415638Y-51956590D01*
X73425773Y-51952901D01*
X73793307Y-51837017D01*
X73803707Y-51834230D01*
X74179941Y-51750821D01*
X74190572Y-51748948D01*
X74572605Y-51698654D01*
X74583378Y-51697712D01*
X74970187Y-51680826D01*
X74975578Y-51680709D01*
X75220273Y-51680711D01*
X75712049Y-51645541D01*
X76200062Y-51575377D01*
X76200063Y-51575376D01*
X76200068Y-51575376D01*
X76681813Y-51470581D01*
X76681811Y-51470581D01*
X76681827Y-51470578D01*
X76954995Y-51390368D01*
X77154871Y-51331681D01*
X77154874Y-51331679D01*
X77154887Y-51331676D01*
X77616833Y-51159380D01*
X77734409Y-51105685D01*
X78065299Y-50954574D01*
X78065303Y-50954571D01*
X78065311Y-50954568D01*
X78498034Y-50718284D01*
X78912799Y-50451731D01*
X79307491Y-50156268D01*
X79680098Y-49833400D01*
X79791692Y-49721805D01*
X79791696Y-49721803D01*
X80092041Y-49421455D01*
X80092115Y-49421390D01*
X80097046Y-49416458D01*
X80097050Y-49416456D01*
X80123434Y-49390068D01*
X80123473Y-49390047D01*
X80159769Y-49353746D01*
X80159770Y-49353747D01*
X80225555Y-49287956D01*
X80243460Y-49264620D01*
X80331377Y-49150030D01*
X80364480Y-49120082D01*
X80401562Y-49097124D01*
X80544865Y-48966486D01*
X80565979Y-48947238D01*
X80574075Y-48936518D01*
X80700058Y-48769689D01*
X80799229Y-48570528D01*
X80825734Y-48477371D01*
X80863013Y-48418278D01*
X80926323Y-48388721D01*
X80995562Y-48398083D01*
X81048749Y-48443393D01*
X81064266Y-48477372D01*
X81090769Y-48570523D01*
X81090775Y-48570538D01*
X81189938Y-48769683D01*
X81189943Y-48769691D01*
X81324020Y-48947238D01*
X81488437Y-49097123D01*
X81488439Y-49097125D01*
X81677595Y-49214245D01*
X81677596Y-49214245D01*
X81677599Y-49214247D01*
X81885060Y-49294618D01*
X82103757Y-49335500D01*
X82103759Y-49335500D01*
X82326241Y-49335500D01*
X82326243Y-49335500D01*
X82544940Y-49294618D01*
X82752401Y-49214247D01*
X82941562Y-49097124D01*
X83084865Y-48966486D01*
X83105979Y-48947238D01*
X83114075Y-48936518D01*
X83240058Y-48769689D01*
X83339229Y-48570528D01*
X83365734Y-48477371D01*
X83403013Y-48418278D01*
X83466323Y-48388721D01*
X83535562Y-48398083D01*
X83588749Y-48443393D01*
X83604266Y-48477372D01*
X83630769Y-48570523D01*
X83630775Y-48570538D01*
X83729938Y-48769683D01*
X83729943Y-48769691D01*
X83864020Y-48947238D01*
X84028437Y-49097123D01*
X84028439Y-49097125D01*
X84217595Y-49214245D01*
X84217596Y-49214245D01*
X84217599Y-49214247D01*
X84425060Y-49294618D01*
X84643757Y-49335500D01*
X84643759Y-49335500D01*
X84866241Y-49335500D01*
X84866243Y-49335500D01*
X85084940Y-49294618D01*
X85292401Y-49214247D01*
X85481562Y-49097124D01*
X85624865Y-48966486D01*
X85645979Y-48947238D01*
X85654075Y-48936518D01*
X85780058Y-48769689D01*
X85835930Y-48657484D01*
X85860000Y-48609145D01*
X85907503Y-48557907D01*
X85975165Y-48540486D01*
X86041506Y-48562411D01*
X86085461Y-48616723D01*
X86095000Y-48664416D01*
X86095000Y-48966479D01*
X86109835Y-49060149D01*
X86109837Y-49060155D01*
X86167356Y-49173041D01*
X86167363Y-49173050D01*
X86256949Y-49262636D01*
X86256953Y-49262639D01*
X86369855Y-49320166D01*
X86463514Y-49334999D01*
X87044999Y-49334999D01*
X87045000Y-49334998D01*
X87045000Y-48450686D01*
X87049394Y-48455080D01*
X87140606Y-48507741D01*
X87242339Y-48535000D01*
X87347661Y-48535000D01*
X87449394Y-48507741D01*
X87540606Y-48455080D01*
X87545000Y-48450686D01*
X87545000Y-49334999D01*
X88126479Y-49334999D01*
X88220149Y-49320164D01*
X88220155Y-49320162D01*
X88333041Y-49262643D01*
X88333050Y-49262636D01*
X88422636Y-49173050D01*
X88422639Y-49173046D01*
X88480166Y-49060144D01*
X88495000Y-48966486D01*
X88495000Y-48385000D01*
X87610686Y-48385000D01*
X87615080Y-48380606D01*
X87667741Y-48289394D01*
X87695000Y-48187661D01*
X87695000Y-48082339D01*
X87667741Y-47980606D01*
X87615080Y-47889394D01*
X87610686Y-47885000D01*
X88494999Y-47885000D01*
X88494999Y-47303520D01*
X88480164Y-47209850D01*
X88480162Y-47209844D01*
X88422643Y-47096958D01*
X88422636Y-47096949D01*
X88333050Y-47007363D01*
X88333046Y-47007360D01*
X88220144Y-46949833D01*
X88126486Y-46935000D01*
X87545000Y-46935000D01*
X87545000Y-47819314D01*
X87540606Y-47814920D01*
X87449394Y-47762259D01*
X87347661Y-47735000D01*
X87242339Y-47735000D01*
X87140606Y-47762259D01*
X87049394Y-47814920D01*
X87045000Y-47819314D01*
X87045000Y-46935000D01*
X86463520Y-46935000D01*
X86369850Y-46949835D01*
X86369844Y-46949837D01*
X86256958Y-47007356D01*
X86256949Y-47007363D01*
X86167363Y-47096949D01*
X86167360Y-47096953D01*
X86109833Y-47209855D01*
X86095000Y-47303514D01*
X86095000Y-47605582D01*
X86075315Y-47672621D01*
X86022511Y-47718376D01*
X85953353Y-47728320D01*
X85889797Y-47699295D01*
X85860000Y-47660854D01*
X85780061Y-47500316D01*
X85780056Y-47500308D01*
X85645979Y-47322761D01*
X85481562Y-47172876D01*
X85481560Y-47172874D01*
X85292404Y-47055754D01*
X85292398Y-47055752D01*
X85084940Y-46975382D01*
X84866243Y-46934500D01*
X84643757Y-46934500D01*
X84425060Y-46975382D01*
X84295043Y-47025751D01*
X84217601Y-47055752D01*
X84217595Y-47055754D01*
X84028439Y-47172874D01*
X84028437Y-47172876D01*
X83864020Y-47322761D01*
X83729943Y-47500308D01*
X83729938Y-47500316D01*
X83630775Y-47699461D01*
X83630769Y-47699476D01*
X83604266Y-47792627D01*
X83566987Y-47851721D01*
X83503677Y-47881278D01*
X83434438Y-47871916D01*
X83381251Y-47826606D01*
X83365734Y-47792627D01*
X83339230Y-47699476D01*
X83339229Y-47699472D01*
X83324289Y-47669468D01*
X83240061Y-47500316D01*
X83240056Y-47500308D01*
X83105979Y-47322761D01*
X82941562Y-47172876D01*
X82941560Y-47172874D01*
X82752404Y-47055754D01*
X82752398Y-47055752D01*
X82544940Y-46975382D01*
X82408288Y-46949837D01*
X82333889Y-46935929D01*
X82271608Y-46904260D01*
X82236336Y-46843948D01*
X82239270Y-46774140D01*
X82279479Y-46717000D01*
X82281083Y-46715746D01*
X82288459Y-46710086D01*
X82297290Y-46703902D01*
X82606056Y-46507198D01*
X82615401Y-46501803D01*
X82940120Y-46332765D01*
X82949894Y-46328207D01*
X83288129Y-46188106D01*
X83298250Y-46184422D01*
X83647419Y-46074330D01*
X83657819Y-46071543D01*
X84015253Y-45992303D01*
X84025864Y-45990432D01*
X84388833Y-45942647D01*
X84399563Y-45941708D01*
X84768133Y-45925617D01*
X84773519Y-45925500D01*
X84852219Y-45925501D01*
X84852224Y-45925500D01*
X86044528Y-45925500D01*
X86044533Y-45925501D01*
X86074668Y-45925500D01*
X86074700Y-45925509D01*
X86126041Y-45925509D01*
X86126041Y-45925510D01*
X86348083Y-45925509D01*
X86791036Y-45893826D01*
X87230600Y-45830623D01*
X87664535Y-45736225D01*
X88090631Y-45611110D01*
X88506715Y-45455917D01*
X88910668Y-45271437D01*
X89300432Y-45058610D01*
X89674019Y-44818519D01*
X90029527Y-44552390D01*
X90365144Y-44261577D01*
X90522152Y-44104569D01*
X90579788Y-44046935D01*
X90579790Y-44046930D01*
X90586849Y-44039872D01*
X90586855Y-44039864D01*
X92018315Y-42608405D01*
X92079636Y-42574922D01*
X92116798Y-42572560D01*
X92205000Y-42580277D01*
X92205002Y-42580277D01*
X92233254Y-42577805D01*
X92422977Y-42561207D01*
X92634330Y-42504575D01*
X92832639Y-42412102D01*
X93011877Y-42286598D01*
X93071520Y-42226954D01*
X93132840Y-42193471D01*
X93183387Y-42193020D01*
X93467597Y-42249553D01*
X93477057Y-42251824D01*
X93648944Y-42300301D01*
X93877952Y-42364888D01*
X93887211Y-42367895D01*
X94253562Y-42503050D01*
X94278015Y-42512071D01*
X94287011Y-42515797D01*
X94665296Y-42690189D01*
X94673948Y-42694597D01*
X94832578Y-42783434D01*
X95037394Y-42898136D01*
X95045693Y-42903222D01*
X95202271Y-43007844D01*
X95392030Y-43134636D01*
X95399904Y-43140356D01*
X95727030Y-43398242D01*
X95734427Y-43404560D01*
X96042261Y-43689119D01*
X96045771Y-43692494D01*
X96108583Y-43755306D01*
X96108589Y-43755311D01*
X99046097Y-46692819D01*
X99079582Y-46754142D01*
X99074598Y-46823834D01*
X99032726Y-46879767D01*
X98967262Y-46904184D01*
X98958416Y-46904500D01*
X98903756Y-46904500D01*
X98685059Y-46945382D01*
X98553863Y-46996207D01*
X98477600Y-47025752D01*
X98477594Y-47025754D01*
X98288438Y-47142874D01*
X98288436Y-47142876D01*
X98124019Y-47292761D01*
X97989942Y-47470308D01*
X97989937Y-47470316D01*
X97890774Y-47669461D01*
X97890769Y-47669474D01*
X97864264Y-47762629D01*
X97826984Y-47821722D01*
X97763674Y-47851279D01*
X97694435Y-47841917D01*
X97641249Y-47796606D01*
X97625735Y-47762637D01*
X97599228Y-47669474D01*
X97594936Y-47660854D01*
X97500060Y-47470318D01*
X97500055Y-47470310D01*
X97365978Y-47292763D01*
X97201561Y-47142878D01*
X97201559Y-47142876D01*
X97012403Y-47025756D01*
X97012397Y-47025754D01*
X96804939Y-46945384D01*
X96586242Y-46904502D01*
X96363756Y-46904502D01*
X96145059Y-46945384D01*
X96063568Y-46976954D01*
X95937600Y-47025754D01*
X95937594Y-47025756D01*
X95748438Y-47142876D01*
X95748436Y-47142878D01*
X95584019Y-47292763D01*
X95449942Y-47470310D01*
X95449937Y-47470318D01*
X95350774Y-47669463D01*
X95350769Y-47669476D01*
X95324264Y-47762633D01*
X95286985Y-47821726D01*
X95223675Y-47851283D01*
X95154435Y-47841921D01*
X95101249Y-47796611D01*
X95085732Y-47762632D01*
X95067711Y-47699295D01*
X95059225Y-47669470D01*
X95054935Y-47660854D01*
X94960057Y-47470314D01*
X94960052Y-47470306D01*
X94825975Y-47292759D01*
X94661558Y-47142874D01*
X94661556Y-47142872D01*
X94472400Y-47025752D01*
X94472394Y-47025750D01*
X94264936Y-46945380D01*
X94046239Y-46904498D01*
X93823753Y-46904498D01*
X93605056Y-46945380D01*
X93473860Y-46996205D01*
X93397597Y-47025750D01*
X93397591Y-47025752D01*
X93208435Y-47142872D01*
X93208433Y-47142874D01*
X93044016Y-47292759D01*
X92909939Y-47470306D01*
X92909934Y-47470314D01*
X92810771Y-47669459D01*
X92810765Y-47669474D01*
X92749881Y-47883460D01*
X92749880Y-47883462D01*
X92729353Y-48104997D01*
X92729353Y-48104998D01*
X92749880Y-48326533D01*
X92749881Y-48326535D01*
X92810765Y-48540521D01*
X92810771Y-48540536D01*
X92909934Y-48739681D01*
X92909939Y-48739689D01*
X93044016Y-48917236D01*
X93208433Y-49067121D01*
X93208435Y-49067123D01*
X93397591Y-49184243D01*
X93397592Y-49184243D01*
X93397595Y-49184245D01*
X93605056Y-49264616D01*
X93823753Y-49305498D01*
X93823755Y-49305498D01*
X94046237Y-49305498D01*
X94046239Y-49305498D01*
X94264936Y-49264616D01*
X94472397Y-49184245D01*
X94661558Y-49067122D01*
X94804822Y-48936519D01*
X94825975Y-48917236D01*
X94937398Y-48769689D01*
X94960054Y-48739687D01*
X95059225Y-48540526D01*
X95085732Y-48447362D01*
X95123008Y-48388274D01*
X95186318Y-48358716D01*
X95255557Y-48368078D01*
X95308744Y-48413387D01*
X95324262Y-48447366D01*
X95350769Y-48540527D01*
X95350774Y-48540540D01*
X95449937Y-48739685D01*
X95449942Y-48739693D01*
X95584019Y-48917240D01*
X95748436Y-49067125D01*
X95748438Y-49067127D01*
X95937594Y-49184247D01*
X95937595Y-49184247D01*
X95937598Y-49184249D01*
X96145059Y-49264620D01*
X96363756Y-49305502D01*
X96363758Y-49305502D01*
X96586240Y-49305502D01*
X96586242Y-49305502D01*
X96804939Y-49264620D01*
X97012400Y-49184249D01*
X97201561Y-49067126D01*
X97365980Y-48917238D01*
X97500057Y-48739691D01*
X97599228Y-48540530D01*
X97625733Y-48447371D01*
X97663012Y-48388280D01*
X97726321Y-48358722D01*
X97795561Y-48368084D01*
X97848747Y-48413393D01*
X97864265Y-48447373D01*
X97890768Y-48540523D01*
X97890774Y-48540538D01*
X97989937Y-48739683D01*
X97989942Y-48739691D01*
X98124019Y-48917238D01*
X98288436Y-49067123D01*
X98288438Y-49067125D01*
X98477594Y-49184245D01*
X98477595Y-49184245D01*
X98477598Y-49184247D01*
X98685059Y-49264618D01*
X98903756Y-49305500D01*
X98903758Y-49305500D01*
X99126240Y-49305500D01*
X99126242Y-49305500D01*
X99344939Y-49264618D01*
X99552400Y-49184247D01*
X99741561Y-49067124D01*
X99905980Y-48917236D01*
X100040057Y-48739689D01*
X100077539Y-48664416D01*
X100119500Y-48580147D01*
X100167002Y-48528909D01*
X100234665Y-48511488D01*
X100301006Y-48533413D01*
X100344961Y-48587725D01*
X100354500Y-48635418D01*
X100354500Y-48936517D01*
X100359247Y-48966486D01*
X100369354Y-49030304D01*
X100426950Y-49143342D01*
X100426952Y-49143344D01*
X100426954Y-49143347D01*
X100516652Y-49233045D01*
X100516654Y-49233046D01*
X100516658Y-49233050D01*
X100624397Y-49287946D01*
X100629698Y-49290647D01*
X100717116Y-49304491D01*
X100723468Y-49305498D01*
X100723475Y-49305499D01*
X100723481Y-49305500D01*
X102386518Y-49305499D01*
X102480304Y-49290646D01*
X102593342Y-49233050D01*
X102683050Y-49143342D01*
X102740646Y-49030304D01*
X102740646Y-49030302D01*
X102740647Y-49030301D01*
X102753802Y-48947238D01*
X102755500Y-48936519D01*
X102755499Y-47273482D01*
X102740646Y-47179696D01*
X102683050Y-47066658D01*
X102683046Y-47066654D01*
X102683045Y-47066652D01*
X102593347Y-46976954D01*
X102593344Y-46976952D01*
X102593342Y-46976950D01*
X102504468Y-46931666D01*
X102480301Y-46919352D01*
X102386524Y-46904500D01*
X102386519Y-46904500D01*
X101502584Y-46904500D01*
X101435545Y-46884815D01*
X101414903Y-46868181D01*
X97205310Y-42658588D01*
X97205308Y-42658585D01*
X97123165Y-42576442D01*
X97123162Y-42576440D01*
X97082188Y-42535466D01*
X97082064Y-42535354D01*
X96964323Y-42417613D01*
X96771467Y-42250503D01*
X96587511Y-42091104D01*
X96188388Y-41792325D01*
X96188383Y-41792322D01*
X96013276Y-41679788D01*
X95768950Y-41522770D01*
X95331355Y-41283826D01*
X95331350Y-41283823D01*
X95331343Y-41283819D01*
X94877839Y-41076712D01*
X94877836Y-41076710D01*
X94553955Y-40955909D01*
X94410683Y-40902472D01*
X94387518Y-40895670D01*
X93932299Y-40762005D01*
X93932289Y-40762002D01*
X93445115Y-40656024D01*
X93295924Y-40634574D01*
X93232368Y-40605549D01*
X93211998Y-40582961D01*
X93166598Y-40518123D01*
X93011877Y-40363402D01*
X92832639Y-40237898D01*
X92681414Y-40167381D01*
X92628977Y-40121210D01*
X92609825Y-40054016D01*
X92630041Y-39987135D01*
X92681414Y-39942618D01*
X92832639Y-39872102D01*
X93011877Y-39746598D01*
X93166598Y-39591877D01*
X93292102Y-39412639D01*
X93384575Y-39214330D01*
X93441207Y-39002977D01*
X93460277Y-38785000D01*
X93441207Y-38567023D01*
X93393006Y-38387136D01*
X93384577Y-38355677D01*
X93384576Y-38355676D01*
X93384575Y-38355670D01*
X93292102Y-38157362D01*
X93292099Y-38157358D01*
X93292099Y-38157357D01*
X93166599Y-37978124D01*
X93148870Y-37960395D01*
X93011877Y-37823402D01*
X92873978Y-37726844D01*
X92832638Y-37697897D01*
X92679122Y-37626312D01*
X92634330Y-37605425D01*
X92634326Y-37605424D01*
X92634322Y-37605422D01*
X92422977Y-37548793D01*
X92205002Y-37529723D01*
X92204998Y-37529723D01*
X92097760Y-37539105D01*
X91987023Y-37548793D01*
X91987020Y-37548793D01*
X91775677Y-37605422D01*
X91775668Y-37605426D01*
X91577361Y-37697898D01*
X91577357Y-37697900D01*
X91398121Y-37823402D01*
X91243402Y-37978121D01*
X91117900Y-38157357D01*
X91117898Y-38157361D01*
X91047382Y-38308583D01*
X91001209Y-38361022D01*
X90934016Y-38380174D01*
X90867135Y-38359958D01*
X90822618Y-38308583D01*
X90808118Y-38277488D01*
X90752102Y-38157362D01*
X90752099Y-38157358D01*
X90752099Y-38157357D01*
X90626599Y-37978124D01*
X90608870Y-37960395D01*
X90471877Y-37823402D01*
X90333978Y-37726844D01*
X90292638Y-37697897D01*
X90139122Y-37626312D01*
X90094330Y-37605425D01*
X90094326Y-37605424D01*
X90094322Y-37605422D01*
X89882977Y-37548793D01*
X89665002Y-37529723D01*
X89664998Y-37529723D01*
X89557760Y-37539105D01*
X89447023Y-37548793D01*
X89447020Y-37548793D01*
X89235677Y-37605422D01*
X89235668Y-37605426D01*
X89037361Y-37697898D01*
X89037357Y-37697900D01*
X88858121Y-37823402D01*
X88703402Y-37978121D01*
X88577900Y-38157357D01*
X88577900Y-38157358D01*
X88577898Y-38157361D01*
X88577898Y-38157362D01*
X88565197Y-38184597D01*
X88507105Y-38309176D01*
X88460932Y-38361615D01*
X88393738Y-38380766D01*
X88326857Y-38360550D01*
X88282341Y-38309175D01*
X88211666Y-38157612D01*
X88211664Y-38157608D01*
X88086216Y-37978450D01*
X88086211Y-37978444D01*
X87931554Y-37823787D01*
X87752387Y-37698333D01*
X87554159Y-37605898D01*
X87554150Y-37605894D01*
X87375000Y-37557891D01*
X87375000Y-38351988D01*
X87317993Y-38319075D01*
X87190826Y-38285000D01*
X87059174Y-38285000D01*
X86932007Y-38319075D01*
X86875000Y-38351988D01*
X86875000Y-37557892D01*
X86874999Y-37557891D01*
X86695849Y-37605894D01*
X86695840Y-37605898D01*
X86497612Y-37698333D01*
X86497608Y-37698335D01*
X86318450Y-37823783D01*
X86318444Y-37823788D01*
X86163788Y-37978444D01*
X86163783Y-37978450D01*
X86038335Y-38157608D01*
X86038333Y-38157612D01*
X85945898Y-38355840D01*
X85945894Y-38355849D01*
X85897891Y-38534999D01*
X85897892Y-38535000D01*
X86691988Y-38535000D01*
X86659075Y-38592007D01*
X86625000Y-38719174D01*
X86625000Y-38850826D01*
X86659075Y-38977993D01*
X86691988Y-39035000D01*
X85897892Y-39035000D01*
X85945894Y-39214150D01*
X85945898Y-39214159D01*
X86038333Y-39412387D01*
X86163787Y-39591554D01*
X86318442Y-39746209D01*
X86318450Y-39746216D01*
X86465134Y-39848925D01*
X86508759Y-39903502D01*
X86515953Y-39973000D01*
X86484430Y-40035355D01*
X86424200Y-40070769D01*
X86394012Y-40074500D01*
X86243482Y-40074500D01*
X86162519Y-40087323D01*
X86149696Y-40089354D01*
X86036658Y-40146950D01*
X86036657Y-40146951D01*
X86036652Y-40146954D01*
X85946954Y-40236652D01*
X85946951Y-40236657D01*
X85946950Y-40236658D01*
X85929112Y-40271666D01*
X85889352Y-40349698D01*
X85874500Y-40443475D01*
X85874500Y-42206517D01*
X85881316Y-42249552D01*
X85889354Y-42300304D01*
X85946950Y-42413342D01*
X85946952Y-42413344D01*
X85946954Y-42413347D01*
X86036652Y-42503045D01*
X86036654Y-42503046D01*
X86036658Y-42503050D01*
X86149694Y-42560645D01*
X86149698Y-42560647D01*
X86243475Y-42575499D01*
X86243481Y-42575500D01*
X88006518Y-42575499D01*
X88100304Y-42560646D01*
X88213342Y-42503050D01*
X88303050Y-42413342D01*
X88360646Y-42300304D01*
X88360646Y-42300302D01*
X88360647Y-42300301D01*
X88375499Y-42206524D01*
X88375500Y-42206519D01*
X88375499Y-42056859D01*
X88395183Y-41989823D01*
X88447987Y-41944068D01*
X88517145Y-41934124D01*
X88580701Y-41963149D01*
X88601073Y-41985738D01*
X88674852Y-42091104D01*
X88703402Y-42131877D01*
X88858123Y-42286598D01*
X89037361Y-42412102D01*
X89235670Y-42504575D01*
X89447023Y-42561207D01*
X89572968Y-42572225D01*
X89638036Y-42597677D01*
X89679015Y-42654268D01*
X89682893Y-42724030D01*
X89649841Y-42783434D01*
X89427344Y-43005931D01*
X89423436Y-43009672D01*
X89129308Y-43279190D01*
X89121021Y-43286144D01*
X88806669Y-43527355D01*
X88797808Y-43533560D01*
X88463619Y-43746462D01*
X88454251Y-43751870D01*
X88102796Y-43934826D01*
X88092992Y-43939398D01*
X87726919Y-44091032D01*
X87716754Y-44094732D01*
X87338860Y-44213883D01*
X87328411Y-44216683D01*
X86941563Y-44302446D01*
X86930910Y-44304324D01*
X86538073Y-44356045D01*
X86527297Y-44356988D01*
X86196731Y-44371422D01*
X86128961Y-44374382D01*
X86123553Y-44374500D01*
X84688259Y-44374500D01*
X84688159Y-44374505D01*
X84561021Y-44374505D01*
X84142710Y-44404422D01*
X83727590Y-44464106D01*
X83317807Y-44553248D01*
X83317797Y-44553251D01*
X82915420Y-44671398D01*
X82522451Y-44817967D01*
X82140993Y-44992172D01*
X82140986Y-44992176D01*
X81772905Y-45193163D01*
X81420093Y-45419901D01*
X81420088Y-45419904D01*
X81084361Y-45671226D01*
X80767415Y-45945862D01*
X80767389Y-45945886D01*
X80676263Y-46037011D01*
X80676257Y-46037017D01*
X79815095Y-46898181D01*
X79753772Y-46931666D01*
X79727414Y-46934500D01*
X79563757Y-46934500D01*
X79345060Y-46975382D01*
X79215043Y-47025751D01*
X79137601Y-47055752D01*
X79137595Y-47055754D01*
X78948439Y-47172874D01*
X78948437Y-47172876D01*
X78784020Y-47322761D01*
X78649943Y-47500308D01*
X78649938Y-47500316D01*
X78550775Y-47699461D01*
X78550769Y-47699476D01*
X78524266Y-47792627D01*
X78486987Y-47851721D01*
X78423677Y-47881278D01*
X78354438Y-47871916D01*
X78301251Y-47826606D01*
X78285734Y-47792627D01*
X78259230Y-47699476D01*
X78259229Y-47699472D01*
X78244289Y-47669468D01*
X78160061Y-47500316D01*
X78160056Y-47500308D01*
X78025979Y-47322761D01*
X77861562Y-47172876D01*
X77861560Y-47172874D01*
X77672404Y-47055754D01*
X77672398Y-47055752D01*
X77464940Y-46975382D01*
X77246243Y-46934500D01*
X77023757Y-46934500D01*
X76805060Y-46975382D01*
X76675043Y-47025751D01*
X76597601Y-47055752D01*
X76597595Y-47055754D01*
X76408439Y-47172874D01*
X76408437Y-47172876D01*
X76244020Y-47322761D01*
X76109943Y-47500308D01*
X76109938Y-47500316D01*
X76010775Y-47699461D01*
X76010769Y-47699476D01*
X75984266Y-47792627D01*
X75946987Y-47851721D01*
X75883677Y-47881278D01*
X75814438Y-47871916D01*
X75761251Y-47826606D01*
X75745734Y-47792627D01*
X75719230Y-47699476D01*
X75719229Y-47699472D01*
X75704289Y-47669468D01*
X75620061Y-47500316D01*
X75620056Y-47500308D01*
X75485979Y-47322761D01*
X75321562Y-47172876D01*
X75321560Y-47172874D01*
X75132404Y-47055754D01*
X75132398Y-47055752D01*
X74924940Y-46975382D01*
X74706243Y-46934500D01*
X74483757Y-46934500D01*
X74265060Y-46975382D01*
X74135043Y-47025751D01*
X74057601Y-47055752D01*
X74057595Y-47055754D01*
X73868439Y-47172874D01*
X73868437Y-47172876D01*
X73704020Y-47322761D01*
X73569943Y-47500308D01*
X73569938Y-47500316D01*
X73470775Y-47699461D01*
X73470769Y-47699476D01*
X73444266Y-47792627D01*
X73406987Y-47851721D01*
X73343677Y-47881278D01*
X73274438Y-47871916D01*
X73221251Y-47826606D01*
X73205734Y-47792627D01*
X73179230Y-47699476D01*
X73179229Y-47699472D01*
X73164289Y-47669468D01*
X73080061Y-47500316D01*
X73080056Y-47500308D01*
X72945979Y-47322761D01*
X72781562Y-47172876D01*
X72781560Y-47172874D01*
X72592404Y-47055754D01*
X72592398Y-47055752D01*
X72384940Y-46975382D01*
X72166243Y-46934500D01*
X71943757Y-46934500D01*
X71725060Y-46975382D01*
X71595043Y-47025751D01*
X71517601Y-47055752D01*
X71517595Y-47055754D01*
X71328439Y-47172874D01*
X71328437Y-47172876D01*
X71164020Y-47322761D01*
X71029943Y-47500308D01*
X71029938Y-47500316D01*
X70930775Y-47699461D01*
X70930769Y-47699476D01*
X70869885Y-47913462D01*
X70869885Y-47913464D01*
X70860417Y-48015632D01*
X70834630Y-48080569D01*
X70824627Y-48091871D01*
X69143807Y-49772692D01*
X69143806Y-49772693D01*
X68896940Y-50019551D01*
X68896914Y-50019579D01*
X68600251Y-50361939D01*
X68328779Y-50724576D01*
X68328776Y-50724580D01*
X68083848Y-51105687D01*
X67866743Y-51503278D01*
X67866739Y-51503286D01*
X67715601Y-51834224D01*
X67678536Y-51915383D01*
X67520238Y-52339787D01*
X67520226Y-52339823D01*
X67392600Y-52774462D01*
X67392596Y-52774477D01*
X67296297Y-53217136D01*
X67231822Y-53665546D01*
X67199500Y-54117408D01*
X66500500Y-54117408D01*
X66500500Y-41002561D01*
X66500606Y-40997437D01*
X66504815Y-40895670D01*
X66519072Y-40550961D01*
X66519915Y-40540792D01*
X66574874Y-40099881D01*
X66576554Y-40089809D01*
X66667734Y-39654951D01*
X66670241Y-39645055D01*
X66797022Y-39219205D01*
X66800336Y-39209553D01*
X66961840Y-38795654D01*
X66965954Y-38786275D01*
X67161088Y-38387120D01*
X67165949Y-38378136D01*
X67393389Y-37996445D01*
X67398982Y-37987885D01*
X67657153Y-37626294D01*
X67663422Y-37618240D01*
X67950581Y-37279191D01*
X67957500Y-37271675D01*
X68271675Y-36957500D01*
X68279191Y-36950581D01*
X68618240Y-36663422D01*
X68626294Y-36657153D01*
X68987885Y-36398982D01*
X68996445Y-36393389D01*
X69378136Y-36165949D01*
X69387120Y-36161088D01*
X69786280Y-35965951D01*
X69795654Y-35961840D01*
X70209553Y-35800336D01*
X70219205Y-35797022D01*
X70645055Y-35670241D01*
X70654951Y-35667734D01*
X71089809Y-35576554D01*
X71099881Y-35574874D01*
X71540792Y-35519915D01*
X71550961Y-35519072D01*
X71997437Y-35500605D01*
X72002561Y-35500500D01*
X72065892Y-35500500D01*
X100934108Y-35500500D01*
X100997439Y-35500500D01*
X101002562Y-35500605D01*
G37*
%TD.AperFunction*%
%TD*%
M02*
