%TF.GenerationSoftware,KiCad,Pcbnew,8.0.7*%
%TF.CreationDate,2025-02-21T23:23:42-08:00*%
%TF.ProjectId,Attiny2x4x8x Programmers,41747469-6e79-4327-9834-783878205072,rev?*%
%TF.SameCoordinates,Original*%
%TF.FileFunction,Copper,L2,Bot*%
%TF.FilePolarity,Positive*%
%FSLAX46Y46*%
G04 Gerber Fmt 4.6, Leading zero omitted, Abs format (unit mm)*
G04 Created by KiCad (PCBNEW 8.0.7) date 2025-02-21 23:23:42*
%MOMM*%
%LPD*%
G01*
G04 APERTURE LIST*
%TA.AperFunction,ComponentPad*%
%ADD10R,1.600000X1.600000*%
%TD*%
%TA.AperFunction,ComponentPad*%
%ADD11C,1.600000*%
%TD*%
%TA.AperFunction,ComponentPad*%
%ADD12O,1.600000X1.600000*%
%TD*%
%TA.AperFunction,ComponentPad*%
%ADD13R,1.700000X1.700000*%
%TD*%
%TA.AperFunction,ComponentPad*%
%ADD14O,1.700000X1.700000*%
%TD*%
%TA.AperFunction,ComponentPad*%
%ADD15R,1.295400X1.295400*%
%TD*%
%TA.AperFunction,ComponentPad*%
%ADD16C,1.295400*%
%TD*%
%TA.AperFunction,ComponentPad*%
%ADD17C,1.498600*%
%TD*%
%TA.AperFunction,ComponentPad*%
%ADD18R,1.800000X1.800000*%
%TD*%
%TA.AperFunction,ComponentPad*%
%ADD19C,1.800000*%
%TD*%
%TA.AperFunction,Conductor*%
%ADD20C,1.500000*%
%TD*%
%TA.AperFunction,Conductor*%
%ADD21C,0.750000*%
%TD*%
%TA.AperFunction,Conductor*%
%ADD22C,1.000000*%
%TD*%
G04 APERTURE END LIST*
D10*
%TO.P,C1,1*%
%TO.N,Net-(C1-Pad1)*%
X97600000Y-62900000D03*
D11*
%TO.P,C1,2*%
%TO.N,GND*%
X95100001Y-62899998D03*
%TD*%
D10*
%TO.P,A1,1,D1/TX*%
%TO.N,Net-(A1-D1{slash}TX)*%
X80000000Y-70000000D03*
D12*
%TO.P,A1,2,D0/RX*%
%TO.N,Net-(A1-D0{slash}RX)*%
X80000000Y-72540000D03*
%TO.P,A1,3,~{RESET}*%
%TO.N,/RST*%
X80000000Y-75080000D03*
%TO.P,A1,4,GND*%
%TO.N,GND*%
X80000000Y-77620000D03*
%TO.P,A1,5,D2*%
%TO.N,Net-(A1-D2)*%
X80000000Y-80160000D03*
%TO.P,A1,6,D3*%
%TO.N,Net-(A1-D3)*%
X80000000Y-82700000D03*
%TO.P,A1,7,D4*%
%TO.N,Net-(A1-D4)*%
X80000000Y-85240000D03*
%TO.P,A1,8,D5*%
%TO.N,Net-(A1-D5)*%
X80000000Y-87780000D03*
%TO.P,A1,9,D6*%
%TO.N,Net-(A1-D6)*%
X80000000Y-90320000D03*
%TO.P,A1,10,D7*%
%TO.N,Net-(A1-D7)*%
X80000000Y-92860000D03*
%TO.P,A1,11,D8*%
%TO.N,Net-(A1-D8)*%
X80000000Y-95400000D03*
%TO.P,A1,12,D9*%
%TO.N,Net-(A1-D9)*%
X80000000Y-97940000D03*
%TO.P,A1,13,D10*%
%TO.N,/SS*%
X80000000Y-100480000D03*
%TO.P,A1,14,D11*%
%TO.N,/MOSI*%
X80000000Y-103020000D03*
%TO.P,A1,15,D12*%
%TO.N,/MISO*%
X80000000Y-105560000D03*
%TO.P,A1,16,D13*%
%TO.N,/SCK*%
X95240000Y-105560000D03*
%TO.P,A1,17,3V3*%
%TO.N,Net-(A1-3V3)*%
X95240000Y-103020000D03*
%TO.P,A1,18,AREF*%
%TO.N,Net-(A1-AREF)*%
X95240000Y-100480000D03*
%TO.P,A1,19,A0*%
%TO.N,Net-(A1-A0)*%
X95240000Y-97940000D03*
%TO.P,A1,20,A1*%
%TO.N,Net-(A1-A1)*%
X95240000Y-95400000D03*
%TO.P,A1,21,A2*%
%TO.N,Net-(A1-A2)*%
X95240000Y-92860000D03*
%TO.P,A1,22,A3*%
%TO.N,Net-(A1-A3)*%
X95240000Y-90320000D03*
%TO.P,A1,23,A4*%
%TO.N,Net-(A1-A4)*%
X95240000Y-87780000D03*
%TO.P,A1,24,A5*%
%TO.N,Net-(A1-A5)*%
X95240000Y-85240000D03*
%TO.P,A1,25,A6*%
%TO.N,Net-(A1-A6)*%
X95240000Y-82700000D03*
%TO.P,A1,26,A7*%
%TO.N,Net-(A1-A7)*%
X95240000Y-80160000D03*
%TO.P,A1,27,+5V*%
%TO.N,+5V*%
X95240000Y-77620000D03*
%TO.P,A1,28,~{RESET}*%
%TO.N,/RST*%
X95240000Y-75080000D03*
%TO.P,A1,29,GND*%
%TO.N,GND*%
X95240000Y-72540000D03*
%TO.P,A1,30,VIN*%
%TO.N,Net-(A1-VIN)*%
X95240000Y-70000000D03*
%TD*%
D13*
%TO.P,J1,1,Pin_1*%
%TO.N,Net-(A1-D1{slash}TX)*%
X74800000Y-70000000D03*
D14*
%TO.P,J1,2,Pin_2*%
%TO.N,Net-(A1-D0{slash}RX)*%
X74800000Y-72540000D03*
%TO.P,J1,3,Pin_3*%
%TO.N,/RST*%
X74800000Y-75080000D03*
%TO.P,J1,4,Pin_4*%
%TO.N,GND*%
X74800000Y-77620000D03*
%TO.P,J1,5,Pin_5*%
%TO.N,Net-(A1-D2)*%
X74800000Y-80160000D03*
%TO.P,J1,6,Pin_6*%
%TO.N,Net-(A1-D3)*%
X74800000Y-82700000D03*
%TO.P,J1,7,Pin_7*%
%TO.N,Net-(A1-D4)*%
X74800000Y-85240000D03*
%TO.P,J1,8,Pin_8*%
%TO.N,Net-(A1-D5)*%
X74800000Y-87780000D03*
%TO.P,J1,9,Pin_9*%
%TO.N,Net-(A1-D6)*%
X74800000Y-90320000D03*
%TO.P,J1,10,Pin_10*%
%TO.N,Net-(A1-D7)*%
X74800000Y-92860000D03*
%TO.P,J1,11,Pin_11*%
%TO.N,Net-(A1-D8)*%
X74800000Y-95400000D03*
%TO.P,J1,12,Pin_12*%
%TO.N,Net-(A1-D9)*%
X74800000Y-97940000D03*
%TO.P,J1,13,Pin_13*%
%TO.N,/SS*%
X74800000Y-100480000D03*
%TO.P,J1,14,Pin_14*%
%TO.N,/MOSI*%
X74800000Y-103020000D03*
%TO.P,J1,15,Pin_15*%
%TO.N,/MISO*%
X74800000Y-105560000D03*
%TD*%
D10*
%TO.P,U1,1,VCC*%
%TO.N,+5V*%
X87295000Y-48135000D03*
D12*
%TO.P,U1,2,XTAL1/PB0*%
%TO.N,unconnected-(U1-XTAL1{slash}PB0-Pad2)*%
X84755000Y-48135000D03*
%TO.P,U1,3,XTAL2/PB1*%
%TO.N,unconnected-(U1-XTAL2{slash}PB1-Pad3)*%
X82215000Y-48135000D03*
%TO.P,U1,4,~{RESET}/PB3*%
%TO.N,/SS*%
X79675000Y-48135000D03*
%TO.P,U1,5,PB2*%
%TO.N,unconnected-(U1-PB2-Pad5)*%
X77135000Y-48135000D03*
%TO.P,U1,6,PA7*%
%TO.N,unconnected-(U1-PA7-Pad6)*%
X74595000Y-48135000D03*
%TO.P,U1,7,PA6*%
%TO.N,/MOSI*%
X72055000Y-48135000D03*
%TO.P,U1,8,PA5*%
%TO.N,/MISO*%
X72055000Y-55755000D03*
%TO.P,U1,9,PA4*%
%TO.N,/SCK*%
X74595000Y-55755000D03*
%TO.P,U1,10,PA3*%
%TO.N,unconnected-(U1-PA3-Pad10)*%
X77135000Y-55755000D03*
%TO.P,U1,11,PA2*%
%TO.N,unconnected-(U1-PA2-Pad11)*%
X79675000Y-55755000D03*
%TO.P,U1,12,PA1*%
%TO.N,unconnected-(U1-PA1-Pad12)*%
X82215000Y-55755000D03*
%TO.P,U1,13,AREF/PA0*%
%TO.N,unconnected-(U1-AREF{slash}PA0-Pad13)*%
X84755000Y-55755000D03*
%TO.P,U1,14,GND*%
%TO.N,GND*%
X87295000Y-55755000D03*
%TD*%
D15*
%TO.P,SW1,1,1*%
%TO.N,/RST*%
X102700000Y-65300000D03*
D16*
%TO.P,SW1,2,2*%
%TO.N,Net-(C1-Pad1)*%
X102700000Y-63300000D03*
%TO.P,SW1,3,3*%
X102700000Y-61299999D03*
D17*
%TO.P,SW1,4*%
%TO.N,N/C*%
X102700000Y-67400001D03*
%TO.P,SW1,5*%
X102700000Y-59200000D03*
%TD*%
D13*
%TO.P,J2,1,Pin_1*%
%TO.N,Net-(A1-VIN)*%
X100600000Y-70000000D03*
D14*
%TO.P,J2,2,Pin_2*%
%TO.N,GND*%
X100600000Y-72540000D03*
%TO.P,J2,3,Pin_3*%
%TO.N,/RST*%
X100600000Y-75080000D03*
%TO.P,J2,4,Pin_4*%
%TO.N,+5V*%
X100600000Y-77620000D03*
%TO.P,J2,5,Pin_5*%
%TO.N,Net-(A1-A7)*%
X100600000Y-80160000D03*
%TO.P,J2,6,Pin_6*%
%TO.N,Net-(A1-A6)*%
X100600000Y-82700000D03*
%TO.P,J2,7,Pin_7*%
%TO.N,Net-(A1-A5)*%
X100600000Y-85240000D03*
%TO.P,J2,8,Pin_8*%
%TO.N,Net-(A1-A4)*%
X100600000Y-87780000D03*
%TO.P,J2,9,Pin_9*%
%TO.N,Net-(A1-A3)*%
X100600000Y-90320000D03*
%TO.P,J2,10,Pin_10*%
%TO.N,Net-(A1-A2)*%
X100600000Y-92860000D03*
%TO.P,J2,11,Pin_11*%
%TO.N,Net-(A1-A1)*%
X100600000Y-95400000D03*
%TO.P,J2,12,Pin_12*%
%TO.N,Net-(A1-A0)*%
X100600000Y-97940000D03*
%TO.P,J2,13,Pin_13*%
%TO.N,Net-(A1-AREF)*%
X100600000Y-100480000D03*
%TO.P,J2,14,Pin_14*%
%TO.N,Net-(A1-3V3)*%
X100600000Y-103020000D03*
%TO.P,J2,15,Pin_15*%
%TO.N,/SCK*%
X100600000Y-105560000D03*
%TD*%
D13*
%TO.P,J3,1,Pin_1*%
%TO.N,/MISO*%
X87125000Y-41325000D03*
D14*
%TO.P,J3,2,Pin_2*%
%TO.N,+5V*%
X87125000Y-38785000D03*
%TO.P,J3,3,Pin_3*%
%TO.N,/SCK*%
X89665000Y-41325000D03*
%TO.P,J3,4,Pin_4*%
%TO.N,/MOSI*%
X89665000Y-38785000D03*
%TO.P,J3,5,Pin_5*%
%TO.N,/SS*%
X92205000Y-41325000D03*
%TO.P,J3,6,Pin_6*%
%TO.N,GND*%
X92205000Y-38785000D03*
%TD*%
D10*
%TO.P,U2,1,~{RESET}/PB5*%
%TO.N,/SS*%
X101555000Y-48105000D03*
D12*
%TO.P,U2,2,XTAL1/PB3*%
%TO.N,unconnected-(U2-XTAL1{slash}PB3-Pad2)*%
X99014999Y-48105000D03*
%TO.P,U2,3,XTAL2/PB4*%
%TO.N,unconnected-(U2-XTAL2{slash}PB4-Pad3)*%
X96474999Y-48105002D03*
%TO.P,U2,4,GND*%
%TO.N,GND*%
X93934996Y-48104998D03*
%TO.P,U2,5,AREF/PB0*%
%TO.N,/MOSI*%
X93935001Y-55724995D03*
%TO.P,U2,6,PB1*%
%TO.N,/MISO*%
X96475006Y-55724998D03*
%TO.P,U2,7,PB2*%
%TO.N,/SCK*%
X99015000Y-55724997D03*
%TO.P,U2,8,VCC*%
%TO.N,+5V*%
X101554998Y-55725004D03*
%TD*%
D18*
%TO.P,D1,1,K*%
%TO.N,Net-(D1-K)*%
X86575000Y-62675000D03*
D19*
%TO.P,D1,2,A*%
%TO.N,/MISO*%
X89115000Y-62675000D03*
%TD*%
D11*
%TO.P,R1,1*%
%TO.N,Net-(D1-K)*%
X82305000Y-62650000D03*
D12*
%TO.P,R1,2*%
%TO.N,GND*%
X72145000Y-62650000D03*
%TD*%
D20*
%TO.N,+5V*%
X95240000Y-77620000D02*
X100600000Y-77620000D01*
D21*
%TO.N,/SCK*%
X94056904Y-50999996D02*
G75*
G02*
X92642692Y-50414214I-4J1999996D01*
G01*
X94056904Y-50999996D02*
X94159156Y-50999995D01*
X90900000Y-46207046D02*
G75*
G03*
X92642688Y-50414218I5949780J-4D01*
G01*
X96789520Y-52089520D02*
X98017994Y-53317994D01*
X90900000Y-44306534D02*
X90900000Y-46207046D01*
X98017994Y-53317994D02*
G75*
G02*
X99015012Y-55724997I-2406994J-2407006D01*
G01*
X94159156Y-50999995D02*
G75*
G02*
X96789540Y-52089500I44J-3719905D01*
G01*
X89665000Y-41325000D02*
G75*
G02*
X90899978Y-44306534I-2981500J-2981500D01*
G01*
%TO.N,/MISO*%
X89700000Y-46268427D02*
G75*
G03*
X88025285Y-42225253I-5717900J27D01*
G01*
X89700000Y-47657339D02*
G75*
G02*
X88821312Y-49778670I-3000100J39D01*
G01*
X85389958Y-51200000D02*
G75*
G03*
X88821348Y-49778706I42J4852700D01*
G01*
X73966615Y-53843385D02*
G75*
G02*
X80348310Y-51200013I6381685J-6381715D01*
G01*
X88025269Y-42225269D02*
X87125000Y-41325000D01*
X89700000Y-47657339D02*
X89700000Y-46268427D01*
X80348310Y-51200000D02*
X85389958Y-51200000D01*
X72055000Y-55755000D02*
X73966615Y-53843385D01*
D20*
%TO.N,Net-(C1-Pad1)*%
X101099999Y-62900000D02*
X102700000Y-61299999D01*
X97600000Y-62900000D02*
X101099999Y-62900000D01*
X102700000Y-63300000D02*
X102700000Y-61299999D01*
X102300000Y-62900000D02*
X102700000Y-63300000D01*
X97600000Y-62900000D02*
X102300000Y-62900000D01*
%TO.N,Net-(D1-K)*%
X82305000Y-62650000D02*
X86550000Y-62650000D01*
X86550000Y-62650000D02*
X86575000Y-62675000D01*
%TO.N,/MISO*%
X74800000Y-105560000D02*
X80000000Y-105560000D01*
%TO.N,Net-(A1-D7)*%
X74800000Y-92860000D02*
X80000000Y-92860000D01*
%TO.N,Net-(A1-A7)*%
X100600000Y-80160000D02*
X95240000Y-80160000D01*
%TO.N,Net-(A1-D5)*%
X74800000Y-87780000D02*
X80000000Y-87780000D01*
%TO.N,Net-(A1-3V3)*%
X100600000Y-103020000D02*
X95240000Y-103020000D01*
%TO.N,Net-(A1-A3)*%
X100600000Y-90320000D02*
X95240000Y-90320000D01*
%TO.N,Net-(A1-D1{slash}TX)*%
X74800000Y-70000000D02*
X80000000Y-70000000D01*
%TO.N,Net-(A1-A1)*%
X100600000Y-95400000D02*
X95240000Y-95400000D01*
%TO.N,Net-(A1-D6)*%
X74800000Y-90320000D02*
X80000000Y-90320000D01*
%TO.N,Net-(A1-VIN)*%
X100600000Y-70000000D02*
X95240000Y-70000000D01*
%TO.N,/SS*%
X74800000Y-100480000D02*
X80000000Y-100480000D01*
%TO.N,Net-(A1-D4)*%
X74800000Y-85240000D02*
X80000000Y-85240000D01*
%TO.N,Net-(A1-D8)*%
X74800000Y-95400000D02*
X80000000Y-95400000D01*
%TO.N,Net-(A1-D3)*%
X74800000Y-82700000D02*
X80000000Y-82700000D01*
%TO.N,Net-(A1-A4)*%
X100600000Y-87780000D02*
X95240000Y-87780000D01*
%TO.N,Net-(A1-A6)*%
X100600000Y-82700000D02*
X95240000Y-82700000D01*
%TO.N,/SCK*%
X100600000Y-105560000D02*
X95240000Y-105560000D01*
%TO.N,Net-(A1-A2)*%
X100600000Y-92860000D02*
X95240000Y-92860000D01*
%TO.N,Net-(A1-A5)*%
X100600000Y-85240000D02*
X95240000Y-85240000D01*
%TO.N,Net-(A1-D2)*%
X74800000Y-80160000D02*
X80000000Y-80160000D01*
%TO.N,Net-(A1-A0)*%
X100600000Y-97940000D02*
X95240000Y-97940000D01*
%TO.N,Net-(A1-AREF)*%
X100600000Y-100480000D02*
X95240000Y-100480000D01*
%TO.N,Net-(A1-D9)*%
X74800000Y-97940000D02*
X80000000Y-97940000D01*
%TO.N,Net-(A1-D0{slash}RX)*%
X74800000Y-72540000D02*
X80000000Y-72540000D01*
%TO.N,/RST*%
X100600000Y-75080000D02*
X95240000Y-75080000D01*
X74800000Y-75080000D02*
X80000000Y-75080000D01*
D22*
%TO.N,/MOSI*%
X92000000Y-92506036D02*
X92000000Y-59028248D01*
D20*
X80000000Y-103020000D02*
X74800000Y-103020000D01*
D22*
X92967500Y-56692495D02*
X93935001Y-55724995D01*
X85062289Y-101697710D02*
X90406207Y-96353792D01*
X81870000Y-103020000D02*
X80000000Y-103020000D01*
X85062289Y-101697710D02*
G75*
G02*
X81870000Y-103019993I-3192289J3192310D01*
G01*
X92967500Y-56692495D02*
G75*
G03*
X92000047Y-59028248I2335800J-2335705D01*
G01*
X92000000Y-92506036D02*
G75*
G02*
X90406200Y-96353785I-5441600J36D01*
G01*
D21*
X89665000Y-38437500D02*
X89665000Y-38785000D01*
X89419280Y-37844280D02*
G75*
G02*
X89665011Y-38437500I-593180J-593220D01*
G01*
X89419280Y-37844280D02*
G75*
G03*
X87562127Y-37074993I-1857180J-1857120D01*
G01*
X87562127Y-37075000D02*
G75*
G03*
X79970393Y-40219586I-27J-10736300D01*
G01*
X79970403Y-40219596D02*
X72055000Y-48135000D01*
%TD*%
%TA.AperFunction,Conductor*%
%TO.N,GND*%
G36*
X79668533Y-76250185D02*
G01*
X79714288Y-76302989D01*
X79724232Y-76372147D01*
X79695207Y-76435703D01*
X79646288Y-76470127D01*
X79462822Y-76541201D01*
X79462820Y-76541202D01*
X79273738Y-76658278D01*
X79109391Y-76808099D01*
X78975368Y-76985574D01*
X78876239Y-77184650D01*
X78823505Y-77370000D01*
X79566988Y-77370000D01*
X79534075Y-77427007D01*
X79500000Y-77554174D01*
X79500000Y-77685826D01*
X79534075Y-77812993D01*
X79566988Y-77870000D01*
X78823505Y-77870000D01*
X78876239Y-78055349D01*
X78975368Y-78254425D01*
X79109391Y-78431900D01*
X79273738Y-78581721D01*
X79462820Y-78698797D01*
X79462822Y-78698798D01*
X79646288Y-78769873D01*
X79701689Y-78812446D01*
X79725280Y-78878213D01*
X79709569Y-78946293D01*
X79659545Y-78995072D01*
X79601494Y-79009500D01*
X75337288Y-79009500D01*
X75270249Y-78989815D01*
X75224494Y-78937011D01*
X75214550Y-78867853D01*
X75243575Y-78804297D01*
X75284883Y-78773118D01*
X75427387Y-78706667D01*
X75606554Y-78581212D01*
X75761212Y-78426554D01*
X75886666Y-78247387D01*
X75979101Y-78049159D01*
X75979105Y-78049150D01*
X76027108Y-77870000D01*
X75233012Y-77870000D01*
X75265925Y-77812993D01*
X75300000Y-77685826D01*
X75300000Y-77554174D01*
X75265925Y-77427007D01*
X75233012Y-77370000D01*
X76027108Y-77370000D01*
X76027108Y-77369999D01*
X75979105Y-77190849D01*
X75979101Y-77190840D01*
X75886666Y-76992612D01*
X75886664Y-76992608D01*
X75761216Y-76813450D01*
X75761211Y-76813444D01*
X75606554Y-76658787D01*
X75427387Y-76533332D01*
X75284883Y-76466882D01*
X75232444Y-76420710D01*
X75213292Y-76353516D01*
X75233508Y-76286635D01*
X75286673Y-76241300D01*
X75337288Y-76230500D01*
X79601494Y-76230500D01*
X79668533Y-76250185D01*
G37*
%TD.AperFunction*%
%TA.AperFunction,Conductor*%
G36*
X99500487Y-71170185D02*
G01*
X99506329Y-71174179D01*
X99511653Y-71178046D01*
X99511655Y-71178047D01*
X99511658Y-71178050D01*
X99624694Y-71235645D01*
X99624698Y-71235647D01*
X99718475Y-71250499D01*
X99718481Y-71250500D01*
X99869012Y-71250499D01*
X99936049Y-71270183D01*
X99981804Y-71322987D01*
X99991748Y-71392145D01*
X99962723Y-71455701D01*
X99940134Y-71476073D01*
X99793453Y-71578781D01*
X99793444Y-71578788D01*
X99638788Y-71733444D01*
X99638783Y-71733450D01*
X99513335Y-71912608D01*
X99513333Y-71912612D01*
X99420898Y-72110840D01*
X99420894Y-72110849D01*
X99372891Y-72289999D01*
X99372892Y-72290000D01*
X100166988Y-72290000D01*
X100134075Y-72347007D01*
X100100000Y-72474174D01*
X100100000Y-72605826D01*
X100134075Y-72732993D01*
X100166988Y-72790000D01*
X99372892Y-72790000D01*
X99420894Y-72969150D01*
X99420898Y-72969159D01*
X99513333Y-73167387D01*
X99638787Y-73346554D01*
X99793445Y-73501212D01*
X99972612Y-73626667D01*
X100115117Y-73693118D01*
X100167556Y-73739290D01*
X100186708Y-73806484D01*
X100166492Y-73873365D01*
X100113327Y-73918700D01*
X100062712Y-73929500D01*
X95638506Y-73929500D01*
X95571467Y-73909815D01*
X95525712Y-73857011D01*
X95515768Y-73787853D01*
X95544793Y-73724297D01*
X95593712Y-73689873D01*
X95777177Y-73618798D01*
X95777179Y-73618797D01*
X95966261Y-73501721D01*
X96130608Y-73351900D01*
X96264631Y-73174425D01*
X96363760Y-72975349D01*
X96416495Y-72790000D01*
X95673012Y-72790000D01*
X95705925Y-72732993D01*
X95740000Y-72605826D01*
X95740000Y-72474174D01*
X95705925Y-72347007D01*
X95673012Y-72290000D01*
X96416495Y-72290000D01*
X96363760Y-72104650D01*
X96264631Y-71905574D01*
X96130608Y-71728099D01*
X95966261Y-71578278D01*
X95777179Y-71461202D01*
X95777177Y-71461201D01*
X95593712Y-71390127D01*
X95538311Y-71347554D01*
X95514720Y-71281787D01*
X95530431Y-71213707D01*
X95580455Y-71164928D01*
X95638506Y-71150500D01*
X99433448Y-71150500D01*
X99500487Y-71170185D01*
G37*
%TD.AperFunction*%
%TA.AperFunction,Conductor*%
G36*
X101002562Y-35500605D02*
G01*
X101449036Y-35519072D01*
X101459209Y-35519915D01*
X101900114Y-35574873D01*
X101910194Y-35576555D01*
X102345042Y-35667733D01*
X102354950Y-35670242D01*
X102780786Y-35797019D01*
X102790454Y-35800338D01*
X103131430Y-35933388D01*
X103204339Y-35961838D01*
X103213724Y-35965954D01*
X103612869Y-36161083D01*
X103621872Y-36165955D01*
X103845990Y-36299501D01*
X104003544Y-36393383D01*
X104012123Y-36398989D01*
X104373693Y-36657144D01*
X104381770Y-36663431D01*
X104519402Y-36779999D01*
X104720796Y-36950571D01*
X104728336Y-36957512D01*
X105042487Y-37271663D01*
X105049428Y-37279203D01*
X105192996Y-37448713D01*
X105285464Y-37557891D01*
X105336564Y-37618224D01*
X105342857Y-37626310D01*
X105359409Y-37649492D01*
X105601010Y-37987876D01*
X105606616Y-37996455D01*
X105834041Y-38378122D01*
X105838919Y-38387136D01*
X106034045Y-38786275D01*
X106038161Y-38795660D01*
X106199656Y-39209533D01*
X106202984Y-39219226D01*
X106329753Y-39645036D01*
X106332269Y-39654971D01*
X106423441Y-40089791D01*
X106425128Y-40099900D01*
X106480082Y-40540769D01*
X106480928Y-40550983D01*
X106499394Y-40997437D01*
X106499500Y-41002561D01*
X106499500Y-103997438D01*
X106499394Y-104002562D01*
X106480928Y-104449016D01*
X106480082Y-104459230D01*
X106425128Y-104900099D01*
X106423441Y-104910208D01*
X106332269Y-105345028D01*
X106329753Y-105354963D01*
X106202984Y-105780773D01*
X106199656Y-105790466D01*
X106038161Y-106204339D01*
X106034045Y-106213724D01*
X105838919Y-106612863D01*
X105834041Y-106621877D01*
X105606616Y-107003544D01*
X105601010Y-107012123D01*
X105342859Y-107373687D01*
X105336564Y-107381775D01*
X105049428Y-107720796D01*
X105042487Y-107728336D01*
X104728336Y-108042487D01*
X104720796Y-108049428D01*
X104381775Y-108336564D01*
X104373687Y-108342859D01*
X104012123Y-108601010D01*
X104003544Y-108606616D01*
X103621877Y-108834041D01*
X103612863Y-108838919D01*
X103213724Y-109034045D01*
X103204339Y-109038161D01*
X102790466Y-109199656D01*
X102780773Y-109202984D01*
X102354963Y-109329753D01*
X102345028Y-109332269D01*
X101910208Y-109423441D01*
X101900099Y-109425128D01*
X101459230Y-109480082D01*
X101449016Y-109480928D01*
X101002563Y-109499394D01*
X100997439Y-109499500D01*
X72002561Y-109499500D01*
X71997437Y-109499394D01*
X71550983Y-109480928D01*
X71540769Y-109480082D01*
X71099900Y-109425128D01*
X71089791Y-109423441D01*
X70654971Y-109332269D01*
X70645036Y-109329753D01*
X70219226Y-109202984D01*
X70209533Y-109199656D01*
X69795660Y-109038161D01*
X69786275Y-109034045D01*
X69387136Y-108838919D01*
X69378122Y-108834041D01*
X68996455Y-108606616D01*
X68987876Y-108601010D01*
X68626312Y-108342859D01*
X68618224Y-108336564D01*
X68279203Y-108049428D01*
X68271663Y-108042487D01*
X67957512Y-107728336D01*
X67950571Y-107720796D01*
X67663435Y-107381775D01*
X67657140Y-107373687D01*
X67398989Y-107012123D01*
X67393383Y-107003544D01*
X67223756Y-106718874D01*
X67165955Y-106621872D01*
X67161080Y-106612863D01*
X66965954Y-106213724D01*
X66961838Y-106204339D01*
X66877941Y-105989330D01*
X66800338Y-105790454D01*
X66797019Y-105780786D01*
X66670242Y-105354950D01*
X66667733Y-105345042D01*
X66576555Y-104910194D01*
X66574873Y-104900114D01*
X66519915Y-104459209D01*
X66519072Y-104449036D01*
X66500606Y-104002562D01*
X66500500Y-103997438D01*
X66500500Y-62400000D01*
X70968505Y-62400000D01*
X71829314Y-62400000D01*
X71824920Y-62404394D01*
X71772259Y-62495606D01*
X71745000Y-62597339D01*
X71745000Y-62702661D01*
X71772259Y-62804394D01*
X71824920Y-62895606D01*
X71829314Y-62900000D01*
X70968505Y-62900000D01*
X71021239Y-63085349D01*
X71120368Y-63284425D01*
X71254391Y-63461900D01*
X71418738Y-63611721D01*
X71607820Y-63728797D01*
X71607822Y-63728798D01*
X71815195Y-63809135D01*
X71895000Y-63824052D01*
X71895000Y-62965686D01*
X71899394Y-62970080D01*
X71990606Y-63022741D01*
X72092339Y-63050000D01*
X72197661Y-63050000D01*
X72299394Y-63022741D01*
X72390606Y-62970080D01*
X72395000Y-62965686D01*
X72395000Y-63824052D01*
X72474804Y-63809135D01*
X72682177Y-63728798D01*
X72682179Y-63728797D01*
X72871261Y-63611721D01*
X73035608Y-63461900D01*
X73169631Y-63284425D01*
X73268760Y-63085349D01*
X73321495Y-62900000D01*
X72460686Y-62900000D01*
X72465080Y-62895606D01*
X72517741Y-62804394D01*
X72545000Y-62702661D01*
X72545000Y-62649999D01*
X81099357Y-62649999D01*
X81099357Y-62650000D01*
X81119884Y-62871535D01*
X81119885Y-62871537D01*
X81180769Y-63085523D01*
X81180775Y-63085538D01*
X81279938Y-63284683D01*
X81279943Y-63284691D01*
X81414020Y-63462238D01*
X81578437Y-63612123D01*
X81578439Y-63612125D01*
X81767595Y-63729245D01*
X81767596Y-63729245D01*
X81767599Y-63729247D01*
X81975060Y-63809618D01*
X82193757Y-63850500D01*
X82193759Y-63850500D01*
X82416241Y-63850500D01*
X82416243Y-63850500D01*
X82634940Y-63809618D01*
X82636861Y-63808873D01*
X82638889Y-63808494D01*
X82640455Y-63808049D01*
X82640496Y-63808194D01*
X82681655Y-63800500D01*
X85282746Y-63800500D01*
X85349785Y-63820185D01*
X85370422Y-63836814D01*
X85436658Y-63903050D01*
X85549674Y-63960635D01*
X85549698Y-63960647D01*
X85643475Y-63975499D01*
X85643481Y-63975500D01*
X87506518Y-63975499D01*
X87600304Y-63960646D01*
X87713342Y-63903050D01*
X87803050Y-63813342D01*
X87860646Y-63700304D01*
X87860646Y-63700302D01*
X87860647Y-63700301D01*
X87875499Y-63606525D01*
X87875500Y-63606519D01*
X87875499Y-63565441D01*
X87895182Y-63498405D01*
X87947985Y-63452649D01*
X88017143Y-63442704D01*
X88080700Y-63471727D01*
X88101073Y-63494317D01*
X88114954Y-63514141D01*
X88275858Y-63675045D01*
X88275861Y-63675047D01*
X88462266Y-63805568D01*
X88668504Y-63901739D01*
X88668509Y-63901740D01*
X88668511Y-63901741D01*
X88687683Y-63906878D01*
X88888308Y-63960635D01*
X89050230Y-63974801D01*
X89114998Y-63980468D01*
X89115000Y-63980468D01*
X89115002Y-63980468D01*
X89171796Y-63975499D01*
X89341692Y-63960635D01*
X89561496Y-63901739D01*
X89767734Y-63805568D01*
X89954139Y-63675047D01*
X90115047Y-63514139D01*
X90245568Y-63327734D01*
X90341739Y-63121496D01*
X90400635Y-62901692D01*
X90420468Y-62675000D01*
X90400635Y-62448308D01*
X90351671Y-62265572D01*
X90341741Y-62228511D01*
X90341738Y-62228502D01*
X90335279Y-62214650D01*
X90245568Y-62022266D01*
X90116614Y-61838099D01*
X90115045Y-61835858D01*
X89954141Y-61674954D01*
X89767734Y-61544432D01*
X89767732Y-61544431D01*
X89561497Y-61448261D01*
X89561488Y-61448258D01*
X89341697Y-61389366D01*
X89341693Y-61389365D01*
X89341692Y-61389365D01*
X89341691Y-61389364D01*
X89341686Y-61389364D01*
X89115002Y-61369532D01*
X89114998Y-61369532D01*
X88888313Y-61389364D01*
X88888302Y-61389366D01*
X88668511Y-61448258D01*
X88668502Y-61448261D01*
X88462267Y-61544431D01*
X88462265Y-61544432D01*
X88275858Y-61674954D01*
X88114954Y-61835858D01*
X88101074Y-61855682D01*
X88046498Y-61899307D01*
X87976999Y-61906501D01*
X87914644Y-61874979D01*
X87879230Y-61814749D01*
X87875499Y-61784559D01*
X87875499Y-61743482D01*
X87870886Y-61714354D01*
X87860646Y-61649696D01*
X87803050Y-61536658D01*
X87803046Y-61536654D01*
X87803045Y-61536652D01*
X87713347Y-61446954D01*
X87713344Y-61446952D01*
X87713342Y-61446950D01*
X87636517Y-61407805D01*
X87600301Y-61389352D01*
X87506524Y-61374500D01*
X85643482Y-61374500D01*
X85562519Y-61387323D01*
X85549696Y-61389354D01*
X85436658Y-61446950D01*
X85436657Y-61446951D01*
X85436652Y-61446954D01*
X85420426Y-61463181D01*
X85359103Y-61496666D01*
X85332745Y-61499500D01*
X82681655Y-61499500D01*
X82640496Y-61491805D01*
X82640455Y-61491951D01*
X82638889Y-61491505D01*
X82636861Y-61491126D01*
X82634940Y-61490382D01*
X82416243Y-61449500D01*
X82193757Y-61449500D01*
X81975060Y-61490382D01*
X81855624Y-61536652D01*
X81767601Y-61570752D01*
X81767595Y-61570754D01*
X81578439Y-61687874D01*
X81578437Y-61687876D01*
X81414020Y-61837761D01*
X81279943Y-62015308D01*
X81279938Y-62015316D01*
X81180775Y-62214461D01*
X81180769Y-62214476D01*
X81119885Y-62428462D01*
X81119884Y-62428464D01*
X81099357Y-62649999D01*
X72545000Y-62649999D01*
X72545000Y-62597339D01*
X72517741Y-62495606D01*
X72465080Y-62404394D01*
X72460686Y-62400000D01*
X73321495Y-62400000D01*
X73268760Y-62214650D01*
X73169631Y-62015574D01*
X73035608Y-61838099D01*
X72871261Y-61688278D01*
X72682179Y-61571202D01*
X72682177Y-61571201D01*
X72474799Y-61490864D01*
X72395000Y-61475946D01*
X72395000Y-62334314D01*
X72390606Y-62329920D01*
X72299394Y-62277259D01*
X72197661Y-62250000D01*
X72092339Y-62250000D01*
X71990606Y-62277259D01*
X71899394Y-62329920D01*
X71895000Y-62334314D01*
X71895000Y-61475946D01*
X71815200Y-61490864D01*
X71607822Y-61571201D01*
X71607820Y-61571202D01*
X71418738Y-61688278D01*
X71254391Y-61838099D01*
X71120368Y-62015574D01*
X71021239Y-62214650D01*
X70968505Y-62400000D01*
X66500500Y-62400000D01*
X66500500Y-48134999D01*
X70849357Y-48134999D01*
X70849357Y-48135000D01*
X70869884Y-48356535D01*
X70869885Y-48356537D01*
X70930769Y-48570523D01*
X70930775Y-48570538D01*
X71029938Y-48769683D01*
X71029943Y-48769691D01*
X71164020Y-48947238D01*
X71328437Y-49097123D01*
X71328439Y-49097125D01*
X71517595Y-49214245D01*
X71517596Y-49214245D01*
X71517599Y-49214247D01*
X71725060Y-49294618D01*
X71943757Y-49335500D01*
X71943759Y-49335500D01*
X72166241Y-49335500D01*
X72166243Y-49335500D01*
X72384940Y-49294618D01*
X72592401Y-49214247D01*
X72781562Y-49097124D01*
X72945981Y-48947236D01*
X73080058Y-48769689D01*
X73179229Y-48570528D01*
X73205734Y-48477371D01*
X73243013Y-48418278D01*
X73306323Y-48388721D01*
X73375562Y-48398083D01*
X73428749Y-48443393D01*
X73444266Y-48477372D01*
X73470769Y-48570523D01*
X73470775Y-48570538D01*
X73569938Y-48769683D01*
X73569943Y-48769691D01*
X73704020Y-48947238D01*
X73868437Y-49097123D01*
X73868439Y-49097125D01*
X74057595Y-49214245D01*
X74057596Y-49214245D01*
X74057599Y-49214247D01*
X74265060Y-49294618D01*
X74483757Y-49335500D01*
X74483759Y-49335500D01*
X74706241Y-49335500D01*
X74706243Y-49335500D01*
X74924940Y-49294618D01*
X75132401Y-49214247D01*
X75321562Y-49097124D01*
X75485981Y-48947236D01*
X75620058Y-48769689D01*
X75719229Y-48570528D01*
X75745734Y-48477371D01*
X75783013Y-48418278D01*
X75846323Y-48388721D01*
X75915562Y-48398083D01*
X75968749Y-48443393D01*
X75984266Y-48477372D01*
X76010769Y-48570523D01*
X76010775Y-48570538D01*
X76109938Y-48769683D01*
X76109943Y-48769691D01*
X76244020Y-48947238D01*
X76408437Y-49097123D01*
X76408439Y-49097125D01*
X76597595Y-49214245D01*
X76597596Y-49214245D01*
X76597599Y-49214247D01*
X76805060Y-49294618D01*
X77023757Y-49335500D01*
X77023759Y-49335500D01*
X77246241Y-49335500D01*
X77246243Y-49335500D01*
X77464940Y-49294618D01*
X77672401Y-49214247D01*
X77861562Y-49097124D01*
X78025981Y-48947236D01*
X78160058Y-48769689D01*
X78259229Y-48570528D01*
X78285734Y-48477371D01*
X78323013Y-48418278D01*
X78386323Y-48388721D01*
X78455562Y-48398083D01*
X78508749Y-48443393D01*
X78524266Y-48477372D01*
X78550769Y-48570523D01*
X78550775Y-48570538D01*
X78649938Y-48769683D01*
X78649943Y-48769691D01*
X78784020Y-48947238D01*
X78948437Y-49097123D01*
X78948439Y-49097125D01*
X79137595Y-49214245D01*
X79137596Y-49214245D01*
X79137599Y-49214247D01*
X79345060Y-49294618D01*
X79563757Y-49335500D01*
X79563759Y-49335500D01*
X79786241Y-49335500D01*
X79786243Y-49335500D01*
X80004940Y-49294618D01*
X80212401Y-49214247D01*
X80401562Y-49097124D01*
X80565981Y-48947236D01*
X80700058Y-48769689D01*
X80799229Y-48570528D01*
X80825734Y-48477371D01*
X80863013Y-48418278D01*
X80926323Y-48388721D01*
X80995562Y-48398083D01*
X81048749Y-48443393D01*
X81064266Y-48477372D01*
X81090769Y-48570523D01*
X81090775Y-48570538D01*
X81189938Y-48769683D01*
X81189943Y-48769691D01*
X81324020Y-48947238D01*
X81488437Y-49097123D01*
X81488439Y-49097125D01*
X81677595Y-49214245D01*
X81677596Y-49214245D01*
X81677599Y-49214247D01*
X81885060Y-49294618D01*
X82103757Y-49335500D01*
X82103759Y-49335500D01*
X82326241Y-49335500D01*
X82326243Y-49335500D01*
X82544940Y-49294618D01*
X82752401Y-49214247D01*
X82941562Y-49097124D01*
X83105981Y-48947236D01*
X83240058Y-48769689D01*
X83339229Y-48570528D01*
X83365734Y-48477371D01*
X83403013Y-48418278D01*
X83466323Y-48388721D01*
X83535562Y-48398083D01*
X83588749Y-48443393D01*
X83604266Y-48477372D01*
X83630769Y-48570523D01*
X83630775Y-48570538D01*
X83729938Y-48769683D01*
X83729943Y-48769691D01*
X83864020Y-48947238D01*
X84028437Y-49097123D01*
X84028439Y-49097125D01*
X84217595Y-49214245D01*
X84217596Y-49214245D01*
X84217599Y-49214247D01*
X84425060Y-49294618D01*
X84643757Y-49335500D01*
X84643759Y-49335500D01*
X84866241Y-49335500D01*
X84866243Y-49335500D01*
X85084940Y-49294618D01*
X85292401Y-49214247D01*
X85481562Y-49097124D01*
X85645981Y-48947236D01*
X85780058Y-48769689D01*
X85859500Y-48610149D01*
X85907002Y-48558911D01*
X85974665Y-48541490D01*
X86041006Y-48563415D01*
X86084961Y-48617727D01*
X86094500Y-48665420D01*
X86094500Y-48966517D01*
X86104603Y-49030304D01*
X86109354Y-49060304D01*
X86166950Y-49173342D01*
X86166952Y-49173344D01*
X86166954Y-49173347D01*
X86256652Y-49263045D01*
X86256654Y-49263046D01*
X86256658Y-49263050D01*
X86369696Y-49320646D01*
X86369698Y-49320647D01*
X86463475Y-49335499D01*
X86463481Y-49335500D01*
X87821506Y-49335499D01*
X87888545Y-49355184D01*
X87934300Y-49407987D01*
X87944244Y-49477146D01*
X87915219Y-49540702D01*
X87896991Y-49557876D01*
X87732828Y-49683840D01*
X87723967Y-49690044D01*
X87433120Y-49875330D01*
X87423752Y-49880739D01*
X87117847Y-50039980D01*
X87108043Y-50044551D01*
X86789439Y-50176518D01*
X86779273Y-50180218D01*
X86450381Y-50283914D01*
X86439933Y-50286714D01*
X86103237Y-50361355D01*
X86092583Y-50363233D01*
X85750684Y-50408241D01*
X85739908Y-50409184D01*
X85391771Y-50424381D01*
X85386363Y-50424499D01*
X85302343Y-50424499D01*
X85302323Y-50424500D01*
X80265948Y-50424500D01*
X80265665Y-50424514D01*
X80052160Y-50424514D01*
X79460963Y-50460274D01*
X78872991Y-50531667D01*
X78290415Y-50638427D01*
X77715344Y-50780168D01*
X77715328Y-50780173D01*
X77149886Y-50956371D01*
X76596092Y-51166395D01*
X76055976Y-51409480D01*
X75531533Y-51684728D01*
X75531531Y-51684729D01*
X75024679Y-51991130D01*
X75024669Y-51991137D01*
X74537223Y-52327596D01*
X74070990Y-52692865D01*
X73627660Y-53085619D01*
X73465195Y-53248081D01*
X73465189Y-53248085D01*
X73358193Y-53355082D01*
X73358175Y-53355101D01*
X72195097Y-54518181D01*
X72133774Y-54551666D01*
X72107416Y-54554500D01*
X71943757Y-54554500D01*
X71725060Y-54595382D01*
X71595043Y-54645751D01*
X71517601Y-54675752D01*
X71517595Y-54675754D01*
X71328439Y-54792874D01*
X71328437Y-54792876D01*
X71164020Y-54942761D01*
X71029943Y-55120308D01*
X71029938Y-55120316D01*
X70930775Y-55319461D01*
X70930769Y-55319476D01*
X70869885Y-55533462D01*
X70869884Y-55533464D01*
X70849357Y-55754999D01*
X70849357Y-55755000D01*
X70869884Y-55976535D01*
X70869885Y-55976537D01*
X70930769Y-56190523D01*
X70930775Y-56190538D01*
X71029938Y-56389683D01*
X71029943Y-56389691D01*
X71164020Y-56567238D01*
X71328437Y-56717123D01*
X71328439Y-56717125D01*
X71517595Y-56834245D01*
X71517596Y-56834245D01*
X71517599Y-56834247D01*
X71725060Y-56914618D01*
X71943757Y-56955500D01*
X71943759Y-56955500D01*
X72166241Y-56955500D01*
X72166243Y-56955500D01*
X72384940Y-56914618D01*
X72592401Y-56834247D01*
X72781562Y-56717124D01*
X72945981Y-56567236D01*
X73080058Y-56389689D01*
X73179229Y-56190528D01*
X73205734Y-56097371D01*
X73243013Y-56038278D01*
X73306323Y-56008721D01*
X73375562Y-56018083D01*
X73428749Y-56063393D01*
X73444266Y-56097372D01*
X73470769Y-56190523D01*
X73470775Y-56190538D01*
X73569938Y-56389683D01*
X73569943Y-56389691D01*
X73704020Y-56567238D01*
X73868437Y-56717123D01*
X73868439Y-56717125D01*
X74057595Y-56834245D01*
X74057596Y-56834245D01*
X74057599Y-56834247D01*
X74265060Y-56914618D01*
X74483757Y-56955500D01*
X74483759Y-56955500D01*
X74706241Y-56955500D01*
X74706243Y-56955500D01*
X74924940Y-56914618D01*
X75132401Y-56834247D01*
X75321562Y-56717124D01*
X75485981Y-56567236D01*
X75620058Y-56389689D01*
X75719229Y-56190528D01*
X75745734Y-56097371D01*
X75783013Y-56038278D01*
X75846323Y-56008721D01*
X75915562Y-56018083D01*
X75968749Y-56063393D01*
X75984266Y-56097372D01*
X76010769Y-56190523D01*
X76010775Y-56190538D01*
X76109938Y-56389683D01*
X76109943Y-56389691D01*
X76244020Y-56567238D01*
X76408437Y-56717123D01*
X76408439Y-56717125D01*
X76597595Y-56834245D01*
X76597596Y-56834245D01*
X76597599Y-56834247D01*
X76805060Y-56914618D01*
X77023757Y-56955500D01*
X77023759Y-56955500D01*
X77246241Y-56955500D01*
X77246243Y-56955500D01*
X77464940Y-56914618D01*
X77672401Y-56834247D01*
X77861562Y-56717124D01*
X78025981Y-56567236D01*
X78160058Y-56389689D01*
X78259229Y-56190528D01*
X78285734Y-56097371D01*
X78323013Y-56038278D01*
X78386323Y-56008721D01*
X78455562Y-56018083D01*
X78508749Y-56063393D01*
X78524266Y-56097372D01*
X78550769Y-56190523D01*
X78550775Y-56190538D01*
X78649938Y-56389683D01*
X78649943Y-56389691D01*
X78784020Y-56567238D01*
X78948437Y-56717123D01*
X78948439Y-56717125D01*
X79137595Y-56834245D01*
X79137596Y-56834245D01*
X79137599Y-56834247D01*
X79345060Y-56914618D01*
X79563757Y-56955500D01*
X79563759Y-56955500D01*
X79786241Y-56955500D01*
X79786243Y-56955500D01*
X80004940Y-56914618D01*
X80212401Y-56834247D01*
X80401562Y-56717124D01*
X80565981Y-56567236D01*
X80700058Y-56389689D01*
X80799229Y-56190528D01*
X80825734Y-56097371D01*
X80863013Y-56038278D01*
X80926323Y-56008721D01*
X80995562Y-56018083D01*
X81048749Y-56063393D01*
X81064266Y-56097372D01*
X81090769Y-56190523D01*
X81090775Y-56190538D01*
X81189938Y-56389683D01*
X81189943Y-56389691D01*
X81324020Y-56567238D01*
X81488437Y-56717123D01*
X81488439Y-56717125D01*
X81677595Y-56834245D01*
X81677596Y-56834245D01*
X81677599Y-56834247D01*
X81885060Y-56914618D01*
X82103757Y-56955500D01*
X82103759Y-56955500D01*
X82326241Y-56955500D01*
X82326243Y-56955500D01*
X82544940Y-56914618D01*
X82752401Y-56834247D01*
X82941562Y-56717124D01*
X83105981Y-56567236D01*
X83240058Y-56389689D01*
X83339229Y-56190528D01*
X83365734Y-56097371D01*
X83403013Y-56038278D01*
X83466323Y-56008721D01*
X83535562Y-56018083D01*
X83588749Y-56063393D01*
X83604266Y-56097372D01*
X83630769Y-56190523D01*
X83630775Y-56190538D01*
X83729938Y-56389683D01*
X83729943Y-56389691D01*
X83864020Y-56567238D01*
X84028437Y-56717123D01*
X84028439Y-56717125D01*
X84217595Y-56834245D01*
X84217596Y-56834245D01*
X84217599Y-56834247D01*
X84425060Y-56914618D01*
X84643757Y-56955500D01*
X84643759Y-56955500D01*
X84866241Y-56955500D01*
X84866243Y-56955500D01*
X85084940Y-56914618D01*
X85292401Y-56834247D01*
X85481562Y-56717124D01*
X85645981Y-56567236D01*
X85780058Y-56389689D01*
X85879229Y-56190528D01*
X85905995Y-56096455D01*
X85943272Y-56037367D01*
X86006581Y-56007809D01*
X86075821Y-56017171D01*
X86129007Y-56062480D01*
X86144525Y-56096460D01*
X86171236Y-56190342D01*
X86171239Y-56190348D01*
X86270368Y-56389425D01*
X86404391Y-56566900D01*
X86568738Y-56716721D01*
X86757820Y-56833797D01*
X86757822Y-56833798D01*
X86965195Y-56914135D01*
X87045000Y-56929052D01*
X87045000Y-56070686D01*
X87049394Y-56075080D01*
X87140606Y-56127741D01*
X87242339Y-56155000D01*
X87347661Y-56155000D01*
X87449394Y-56127741D01*
X87540606Y-56075080D01*
X87545000Y-56070686D01*
X87545000Y-56929052D01*
X87624804Y-56914135D01*
X87832177Y-56833798D01*
X87832179Y-56833797D01*
X88021261Y-56716721D01*
X88185608Y-56566900D01*
X88319631Y-56389425D01*
X88418760Y-56190349D01*
X88471495Y-56005000D01*
X87610686Y-56005000D01*
X87615080Y-56000606D01*
X87667741Y-55909394D01*
X87695000Y-55807661D01*
X87695000Y-55702339D01*
X87667741Y-55600606D01*
X87615080Y-55509394D01*
X87610686Y-55505000D01*
X88471495Y-55505000D01*
X88418760Y-55319650D01*
X88319631Y-55120574D01*
X88185608Y-54943099D01*
X88021261Y-54793278D01*
X87832179Y-54676202D01*
X87832177Y-54676201D01*
X87624799Y-54595864D01*
X87545000Y-54580946D01*
X87545000Y-55439314D01*
X87540606Y-55434920D01*
X87449394Y-55382259D01*
X87347661Y-55355000D01*
X87242339Y-55355000D01*
X87140606Y-55382259D01*
X87049394Y-55434920D01*
X87045000Y-55439314D01*
X87045000Y-54580946D01*
X86965200Y-54595864D01*
X86757822Y-54676201D01*
X86757820Y-54676202D01*
X86568738Y-54793278D01*
X86404391Y-54943099D01*
X86270368Y-55120574D01*
X86171239Y-55319651D01*
X86171237Y-55319655D01*
X86144525Y-55413540D01*
X86107246Y-55472633D01*
X86043936Y-55502190D01*
X85974697Y-55492828D01*
X85921510Y-55447518D01*
X85905994Y-55413541D01*
X85879229Y-55319472D01*
X85864293Y-55289476D01*
X85780061Y-55120316D01*
X85780056Y-55120308D01*
X85645979Y-54942761D01*
X85481562Y-54792876D01*
X85481560Y-54792874D01*
X85292404Y-54675754D01*
X85292398Y-54675752D01*
X85277078Y-54669817D01*
X85084940Y-54595382D01*
X84866243Y-54554500D01*
X84643757Y-54554500D01*
X84425060Y-54595382D01*
X84295043Y-54645751D01*
X84217601Y-54675752D01*
X84217595Y-54675754D01*
X84028439Y-54792874D01*
X84028437Y-54792876D01*
X83864020Y-54942761D01*
X83729943Y-55120308D01*
X83729938Y-55120316D01*
X83630775Y-55319461D01*
X83630769Y-55319476D01*
X83604266Y-55412627D01*
X83566987Y-55471721D01*
X83503677Y-55501278D01*
X83434438Y-55491916D01*
X83381251Y-55446606D01*
X83365734Y-55412627D01*
X83339230Y-55319476D01*
X83339229Y-55319472D01*
X83324293Y-55289476D01*
X83240061Y-55120316D01*
X83240056Y-55120308D01*
X83105979Y-54942761D01*
X82941562Y-54792876D01*
X82941560Y-54792874D01*
X82752404Y-54675754D01*
X82752398Y-54675752D01*
X82737078Y-54669817D01*
X82544940Y-54595382D01*
X82326243Y-54554500D01*
X82103757Y-54554500D01*
X81885060Y-54595382D01*
X81755043Y-54645751D01*
X81677601Y-54675752D01*
X81677595Y-54675754D01*
X81488439Y-54792874D01*
X81488437Y-54792876D01*
X81324020Y-54942761D01*
X81189943Y-55120308D01*
X81189938Y-55120316D01*
X81090775Y-55319461D01*
X81090769Y-55319476D01*
X81064266Y-55412627D01*
X81026987Y-55471721D01*
X80963677Y-55501278D01*
X80894438Y-55491916D01*
X80841251Y-55446606D01*
X80825734Y-55412627D01*
X80799230Y-55319476D01*
X80799229Y-55319472D01*
X80784293Y-55289476D01*
X80700061Y-55120316D01*
X80700056Y-55120308D01*
X80565979Y-54942761D01*
X80401562Y-54792876D01*
X80401560Y-54792874D01*
X80212404Y-54675754D01*
X80212398Y-54675752D01*
X80197078Y-54669817D01*
X80004940Y-54595382D01*
X79786243Y-54554500D01*
X79563757Y-54554500D01*
X79345060Y-54595382D01*
X79215043Y-54645751D01*
X79137601Y-54675752D01*
X79137595Y-54675754D01*
X78948439Y-54792874D01*
X78948437Y-54792876D01*
X78784020Y-54942761D01*
X78649943Y-55120308D01*
X78649938Y-55120316D01*
X78550775Y-55319461D01*
X78550769Y-55319476D01*
X78524266Y-55412627D01*
X78486987Y-55471721D01*
X78423677Y-55501278D01*
X78354438Y-55491916D01*
X78301251Y-55446606D01*
X78285734Y-55412627D01*
X78259230Y-55319476D01*
X78259229Y-55319472D01*
X78244293Y-55289476D01*
X78160061Y-55120316D01*
X78160056Y-55120308D01*
X78025979Y-54942761D01*
X77861562Y-54792876D01*
X77861560Y-54792874D01*
X77672404Y-54675754D01*
X77672398Y-54675752D01*
X77657078Y-54669817D01*
X77464940Y-54595382D01*
X77246243Y-54554500D01*
X77023757Y-54554500D01*
X76805060Y-54595382D01*
X76675043Y-54645751D01*
X76597601Y-54675752D01*
X76597595Y-54675754D01*
X76408439Y-54792874D01*
X76408437Y-54792876D01*
X76244020Y-54942761D01*
X76109943Y-55120308D01*
X76109938Y-55120316D01*
X76010775Y-55319461D01*
X76010769Y-55319476D01*
X75984266Y-55412627D01*
X75946987Y-55471721D01*
X75883677Y-55501278D01*
X75814438Y-55491916D01*
X75761251Y-55446606D01*
X75745734Y-55412627D01*
X75719230Y-55319476D01*
X75719229Y-55319472D01*
X75704293Y-55289476D01*
X75620061Y-55120316D01*
X75620056Y-55120308D01*
X75485979Y-54942761D01*
X75321562Y-54792876D01*
X75321560Y-54792874D01*
X75132404Y-54675754D01*
X75132398Y-54675752D01*
X75117078Y-54669817D01*
X74924940Y-54595382D01*
X74706243Y-54554500D01*
X74654996Y-54554500D01*
X74587957Y-54534815D01*
X74542202Y-54482011D01*
X74532258Y-54412853D01*
X74561283Y-54349297D01*
X74570231Y-54339997D01*
X74800817Y-54124030D01*
X74906031Y-54025485D01*
X74912084Y-54020176D01*
X75323169Y-53682808D01*
X75329584Y-53677888D01*
X75761798Y-53368169D01*
X75768539Y-53363666D01*
X75782313Y-53355101D01*
X76220084Y-53082877D01*
X76227090Y-53078833D01*
X76696035Y-52828178D01*
X76703307Y-52824592D01*
X77187657Y-52605136D01*
X77195118Y-52602046D01*
X77692777Y-52414741D01*
X77700430Y-52412143D01*
X78209303Y-52257779D01*
X78217093Y-52255692D01*
X78734976Y-52134939D01*
X78742867Y-52133369D01*
X79267551Y-52046744D01*
X79275534Y-52045693D01*
X79804728Y-51993573D01*
X79812802Y-51993043D01*
X80346728Y-51975565D01*
X80350769Y-51975500D01*
X85472101Y-51975500D01*
X85472884Y-51975461D01*
X85611082Y-51975462D01*
X86051982Y-51940767D01*
X86488799Y-51871585D01*
X86918843Y-51768345D01*
X87339460Y-51631682D01*
X87748059Y-51462439D01*
X88142119Y-51261660D01*
X88519211Y-51030582D01*
X88877011Y-50770630D01*
X89213312Y-50483406D01*
X89306387Y-50390332D01*
X89306413Y-50390309D01*
X89312047Y-50384673D01*
X89312053Y-50384671D01*
X89369678Y-50327045D01*
X89427314Y-50269411D01*
X89427317Y-50269405D01*
X89432124Y-50264599D01*
X89432300Y-50264401D01*
X89486238Y-50210464D01*
X89698153Y-49957911D01*
X89887250Y-49687850D01*
X89887663Y-49687135D01*
X90052081Y-49402353D01*
X90052085Y-49402344D01*
X90052090Y-49402336D01*
X90191421Y-49103541D01*
X90304180Y-48793741D01*
X90342801Y-48649606D01*
X90379165Y-48589949D01*
X90442012Y-48559420D01*
X90511388Y-48567715D01*
X90565266Y-48612200D01*
X90578755Y-48638365D01*
X90616548Y-48739691D01*
X90632458Y-48782346D01*
X90832023Y-49219325D01*
X90839518Y-49233050D01*
X91062254Y-49640956D01*
X91062258Y-49640962D01*
X91062259Y-49640964D01*
X91062260Y-49640966D01*
X91092391Y-49687850D01*
X91321979Y-50045091D01*
X91609873Y-50429666D01*
X91924470Y-50792724D01*
X91924483Y-50792737D01*
X91924484Y-50792738D01*
X92033580Y-50901834D01*
X92094328Y-50962580D01*
X92156730Y-51024982D01*
X92156805Y-51025049D01*
X92190740Y-51058985D01*
X92190745Y-51058989D01*
X92190747Y-51058991D01*
X92401550Y-51231991D01*
X92510394Y-51304718D01*
X92628280Y-51383487D01*
X92628286Y-51383490D01*
X92628294Y-51383496D01*
X92868797Y-51512047D01*
X93120741Y-51616405D01*
X93381702Y-51695566D01*
X93381716Y-51695568D01*
X93381721Y-51695570D01*
X93439182Y-51706999D01*
X93649165Y-51748767D01*
X93920554Y-51775496D01*
X93980527Y-51775496D01*
X93980532Y-51775497D01*
X94065536Y-51775496D01*
X94077657Y-51775496D01*
X94138414Y-51775496D01*
X94148404Y-51775496D01*
X94148416Y-51775495D01*
X94156116Y-51775495D01*
X94162198Y-51775643D01*
X94441693Y-51789371D01*
X94453792Y-51790563D01*
X94727573Y-51831171D01*
X94739495Y-51833542D01*
X94891368Y-51871583D01*
X95007970Y-51900789D01*
X95019615Y-51904321D01*
X95280208Y-51997559D01*
X95291450Y-52002216D01*
X95383371Y-52045690D01*
X95541654Y-52120550D01*
X95552358Y-52126271D01*
X95789771Y-52268566D01*
X95799881Y-52275321D01*
X96022197Y-52440198D01*
X96031603Y-52447918D01*
X96238499Y-52635434D01*
X96242907Y-52639630D01*
X96296142Y-52692864D01*
X96296143Y-52692865D01*
X97407658Y-53804380D01*
X97407668Y-53804391D01*
X97411998Y-53808721D01*
X97411999Y-53808722D01*
X97467192Y-53863915D01*
X97471953Y-53868952D01*
X97661410Y-54080953D01*
X97670080Y-54091825D01*
X97832588Y-54320858D01*
X97839987Y-54332632D01*
X97975837Y-54578433D01*
X97981870Y-54590961D01*
X98089341Y-54850419D01*
X98093934Y-54863546D01*
X98095341Y-54868430D01*
X98094984Y-54938298D01*
X98075142Y-54977481D01*
X97989946Y-55090301D01*
X97989938Y-55090314D01*
X97890775Y-55289458D01*
X97890770Y-55289471D01*
X97864268Y-55382615D01*
X97826988Y-55441708D01*
X97763678Y-55471265D01*
X97694439Y-55461903D01*
X97641253Y-55416592D01*
X97625739Y-55382623D01*
X97599235Y-55289470D01*
X97599230Y-55289459D01*
X97500067Y-55090314D01*
X97500062Y-55090306D01*
X97365985Y-54912759D01*
X97201568Y-54762874D01*
X97201566Y-54762872D01*
X97012410Y-54645752D01*
X97012404Y-54645750D01*
X96804946Y-54565380D01*
X96586249Y-54524498D01*
X96363763Y-54524498D01*
X96145066Y-54565380D01*
X96095090Y-54584741D01*
X95937607Y-54645750D01*
X95937601Y-54645752D01*
X95748445Y-54762872D01*
X95748443Y-54762874D01*
X95584026Y-54912759D01*
X95449949Y-55090306D01*
X95449944Y-55090314D01*
X95350781Y-55289459D01*
X95350777Y-55289469D01*
X95324269Y-55382634D01*
X95286989Y-55441727D01*
X95223679Y-55471284D01*
X95154439Y-55461920D01*
X95101254Y-55416610D01*
X95085740Y-55382642D01*
X95059230Y-55289467D01*
X94975131Y-55120574D01*
X94960062Y-55090311D01*
X94960057Y-55090303D01*
X94825980Y-54912756D01*
X94661563Y-54762871D01*
X94661561Y-54762869D01*
X94472405Y-54645749D01*
X94472399Y-54645747D01*
X94264941Y-54565377D01*
X94046244Y-54524495D01*
X93823758Y-54524495D01*
X93605061Y-54565377D01*
X93473865Y-54616202D01*
X93397602Y-54645747D01*
X93397596Y-54645749D01*
X93208440Y-54762869D01*
X93208438Y-54762871D01*
X93044021Y-54912756D01*
X92909944Y-55090303D01*
X92909939Y-55090311D01*
X92810776Y-55289456D01*
X92810770Y-55289471D01*
X92749886Y-55503457D01*
X92749886Y-55503459D01*
X92740418Y-55605627D01*
X92714631Y-55670564D01*
X92704628Y-55681866D01*
X92367088Y-56019406D01*
X92366940Y-56019486D01*
X92200931Y-56185502D01*
X92200913Y-56185521D01*
X91964974Y-56466714D01*
X91789643Y-56717124D01*
X91754431Y-56767414D01*
X91754424Y-56767424D01*
X91754424Y-56767426D01*
X91570900Y-57085310D01*
X91570887Y-57085336D01*
X91415773Y-57417996D01*
X91415769Y-57418005D01*
X91415767Y-57418011D01*
X91332251Y-57647481D01*
X91290223Y-57762958D01*
X91290221Y-57762966D01*
X91195224Y-58117518D01*
X91195222Y-58117526D01*
X91131482Y-58479053D01*
X91099497Y-58844714D01*
X91099497Y-58844721D01*
X91099500Y-59028235D01*
X91099500Y-92503323D01*
X91099382Y-92508732D01*
X91082454Y-92896400D01*
X91081511Y-92907177D01*
X91031214Y-93289202D01*
X91029336Y-93299855D01*
X90945932Y-93676056D01*
X90943132Y-93686505D01*
X90827261Y-94053998D01*
X90823561Y-94064163D01*
X90676101Y-94420159D01*
X90671529Y-94429963D01*
X90493604Y-94771755D01*
X90488195Y-94781124D01*
X90281162Y-95106098D01*
X90274958Y-95114958D01*
X90040386Y-95420659D01*
X90033433Y-95428946D01*
X89771124Y-95715207D01*
X89767382Y-95719115D01*
X84432464Y-101054035D01*
X84432455Y-101054044D01*
X84427687Y-101058811D01*
X84423288Y-101062999D01*
X84167261Y-101295047D01*
X84157854Y-101302767D01*
X83882767Y-101506784D01*
X83872650Y-101513544D01*
X83578895Y-101689614D01*
X83568163Y-101695351D01*
X83258546Y-101841788D01*
X83247310Y-101846441D01*
X83030184Y-101924130D01*
X82924852Y-101961819D01*
X82913207Y-101965351D01*
X82580981Y-102048569D01*
X82569046Y-102050943D01*
X82230270Y-102101195D01*
X82218161Y-102102388D01*
X82042134Y-102111036D01*
X81872875Y-102119351D01*
X81866820Y-102119500D01*
X80842198Y-102119500D01*
X80775159Y-102099815D01*
X80758663Y-102087140D01*
X80726562Y-102057876D01*
X80726559Y-102057874D01*
X80726558Y-102057873D01*
X80537404Y-101940754D01*
X80537395Y-101940750D01*
X80443956Y-101904552D01*
X80343475Y-101865625D01*
X80288075Y-101823054D01*
X80264484Y-101757288D01*
X80280195Y-101689207D01*
X80330219Y-101640428D01*
X80343466Y-101634377D01*
X80537401Y-101559247D01*
X80726562Y-101442124D01*
X80883410Y-101299138D01*
X80890979Y-101292238D01*
X80895025Y-101286881D01*
X81025058Y-101114689D01*
X81124229Y-100915528D01*
X81185115Y-100701536D01*
X81205643Y-100480000D01*
X81185115Y-100258464D01*
X81124229Y-100044472D01*
X81124224Y-100044461D01*
X81025061Y-99845316D01*
X81025056Y-99845308D01*
X80890979Y-99667761D01*
X80726562Y-99517876D01*
X80726560Y-99517874D01*
X80537404Y-99400754D01*
X80537395Y-99400750D01*
X80443956Y-99364552D01*
X80343475Y-99325625D01*
X80288075Y-99283054D01*
X80264484Y-99217288D01*
X80280195Y-99149207D01*
X80330219Y-99100428D01*
X80343466Y-99094377D01*
X80537401Y-99019247D01*
X80726562Y-98902124D01*
X80890981Y-98752236D01*
X81025058Y-98574689D01*
X81124229Y-98375528D01*
X81185115Y-98161536D01*
X81205643Y-97940000D01*
X81185115Y-97718464D01*
X81124229Y-97504472D01*
X81124224Y-97504461D01*
X81025061Y-97305316D01*
X81025056Y-97305308D01*
X80890979Y-97127761D01*
X80726562Y-96977876D01*
X80726560Y-96977874D01*
X80537404Y-96860754D01*
X80537395Y-96860750D01*
X80443956Y-96824552D01*
X80343475Y-96785625D01*
X80288075Y-96743054D01*
X80264484Y-96677288D01*
X80280195Y-96609207D01*
X80330219Y-96560428D01*
X80343466Y-96554377D01*
X80537401Y-96479247D01*
X80726562Y-96362124D01*
X80890981Y-96212236D01*
X81025058Y-96034689D01*
X81124229Y-95835528D01*
X81185115Y-95621536D01*
X81205643Y-95400000D01*
X81185115Y-95178464D01*
X81124229Y-94964472D01*
X81109347Y-94934585D01*
X81025061Y-94765316D01*
X81025056Y-94765308D01*
X80890979Y-94587761D01*
X80726562Y-94437876D01*
X80726560Y-94437874D01*
X80537404Y-94320754D01*
X80537395Y-94320750D01*
X80443956Y-94284552D01*
X80343475Y-94245625D01*
X80288075Y-94203054D01*
X80264484Y-94137288D01*
X80280195Y-94069207D01*
X80330219Y-94020428D01*
X80343466Y-94014377D01*
X80537401Y-93939247D01*
X80726562Y-93822124D01*
X80875329Y-93686505D01*
X80890979Y-93672238D01*
X80895025Y-93666881D01*
X81025058Y-93494689D01*
X81124229Y-93295528D01*
X81185115Y-93081536D01*
X81205643Y-92860000D01*
X81185115Y-92638464D01*
X81124229Y-92424472D01*
X81120683Y-92417350D01*
X81025061Y-92225316D01*
X81025056Y-92225308D01*
X80890979Y-92047761D01*
X80726562Y-91897876D01*
X80726560Y-91897874D01*
X80537404Y-91780754D01*
X80537395Y-91780750D01*
X80443956Y-91744552D01*
X80343475Y-91705625D01*
X80288075Y-91663054D01*
X80264484Y-91597288D01*
X80280195Y-91529207D01*
X80330219Y-91480428D01*
X80343466Y-91474377D01*
X80537401Y-91399247D01*
X80726562Y-91282124D01*
X80890981Y-91132236D01*
X81025058Y-90954689D01*
X81124229Y-90755528D01*
X81185115Y-90541536D01*
X81205643Y-90320000D01*
X81185115Y-90098464D01*
X81124229Y-89884472D01*
X81124224Y-89884461D01*
X81025061Y-89685316D01*
X81025056Y-89685308D01*
X80890979Y-89507761D01*
X80726562Y-89357876D01*
X80726560Y-89357874D01*
X80537404Y-89240754D01*
X80537395Y-89240750D01*
X80443956Y-89204552D01*
X80343475Y-89165625D01*
X80288075Y-89123054D01*
X80264484Y-89057288D01*
X80280195Y-88989207D01*
X80330219Y-88940428D01*
X80343466Y-88934377D01*
X80537401Y-88859247D01*
X80726562Y-88742124D01*
X80890981Y-88592236D01*
X81025058Y-88414689D01*
X81124229Y-88215528D01*
X81185115Y-88001536D01*
X81205643Y-87780000D01*
X81185115Y-87558464D01*
X81124229Y-87344472D01*
X81124224Y-87344461D01*
X81025061Y-87145316D01*
X81025056Y-87145308D01*
X80890979Y-86967761D01*
X80726562Y-86817876D01*
X80726560Y-86817874D01*
X80537404Y-86700754D01*
X80537395Y-86700750D01*
X80443956Y-86664552D01*
X80343475Y-86625625D01*
X80288075Y-86583054D01*
X80264484Y-86517288D01*
X80280195Y-86449207D01*
X80330219Y-86400428D01*
X80343466Y-86394377D01*
X80537401Y-86319247D01*
X80726562Y-86202124D01*
X80890981Y-86052236D01*
X81025058Y-85874689D01*
X81124229Y-85675528D01*
X81185115Y-85461536D01*
X81205643Y-85240000D01*
X81185115Y-85018464D01*
X81124229Y-84804472D01*
X81124224Y-84804461D01*
X81025061Y-84605316D01*
X81025056Y-84605308D01*
X80890979Y-84427761D01*
X80726562Y-84277876D01*
X80726560Y-84277874D01*
X80537404Y-84160754D01*
X80537395Y-84160750D01*
X80443956Y-84124552D01*
X80343475Y-84085625D01*
X80288075Y-84043054D01*
X80264484Y-83977288D01*
X80280195Y-83909207D01*
X80330219Y-83860428D01*
X80343466Y-83854377D01*
X80537401Y-83779247D01*
X80726562Y-83662124D01*
X80890981Y-83512236D01*
X81025058Y-83334689D01*
X81124229Y-83135528D01*
X81185115Y-82921536D01*
X81205643Y-82700000D01*
X81185115Y-82478464D01*
X81124229Y-82264472D01*
X81124224Y-82264461D01*
X81025061Y-82065316D01*
X81025056Y-82065308D01*
X80890979Y-81887761D01*
X80726562Y-81737876D01*
X80726560Y-81737874D01*
X80537404Y-81620754D01*
X80537395Y-81620750D01*
X80443956Y-81584552D01*
X80343475Y-81545625D01*
X80288075Y-81503054D01*
X80264484Y-81437288D01*
X80280195Y-81369207D01*
X80330219Y-81320428D01*
X80343466Y-81314377D01*
X80537401Y-81239247D01*
X80726562Y-81122124D01*
X80890981Y-80972236D01*
X81025058Y-80794689D01*
X81124229Y-80595528D01*
X81185115Y-80381536D01*
X81205643Y-80160000D01*
X81185115Y-79938464D01*
X81124229Y-79724472D01*
X81124224Y-79724461D01*
X81025061Y-79525316D01*
X81025056Y-79525308D01*
X80890979Y-79347761D01*
X80726562Y-79197876D01*
X80726560Y-79197874D01*
X80537404Y-79080754D01*
X80537398Y-79080751D01*
X80407967Y-79030610D01*
X80342784Y-79005358D01*
X80287385Y-78962786D01*
X80263794Y-78897019D01*
X80279505Y-78828939D01*
X80329529Y-78780160D01*
X80342786Y-78774105D01*
X80537177Y-78698798D01*
X80537179Y-78698797D01*
X80726261Y-78581721D01*
X80890608Y-78431900D01*
X81024631Y-78254425D01*
X81123760Y-78055349D01*
X81176495Y-77870000D01*
X80433012Y-77870000D01*
X80465925Y-77812993D01*
X80500000Y-77685826D01*
X80500000Y-77554174D01*
X80465925Y-77427007D01*
X80433012Y-77370000D01*
X81176495Y-77370000D01*
X81123760Y-77184650D01*
X81024631Y-76985574D01*
X80890608Y-76808099D01*
X80726261Y-76658278D01*
X80537179Y-76541202D01*
X80537177Y-76541201D01*
X80342786Y-76465894D01*
X80287384Y-76423321D01*
X80263794Y-76357554D01*
X80279505Y-76289474D01*
X80329529Y-76240695D01*
X80342772Y-76234646D01*
X80537401Y-76159247D01*
X80726562Y-76042124D01*
X80890981Y-75892236D01*
X81025058Y-75714689D01*
X81124229Y-75515528D01*
X81185115Y-75301536D01*
X81205643Y-75080000D01*
X81185115Y-74858464D01*
X81124229Y-74644472D01*
X81124224Y-74644461D01*
X81025061Y-74445316D01*
X81025056Y-74445308D01*
X80890979Y-74267761D01*
X80726562Y-74117876D01*
X80726560Y-74117874D01*
X80537404Y-74000754D01*
X80537395Y-74000750D01*
X80443956Y-73964552D01*
X80343475Y-73925625D01*
X80288075Y-73883054D01*
X80264484Y-73817288D01*
X80280195Y-73749207D01*
X80330219Y-73700428D01*
X80343466Y-73694377D01*
X80537401Y-73619247D01*
X80726562Y-73502124D01*
X80890981Y-73352236D01*
X81025058Y-73174689D01*
X81124229Y-72975528D01*
X81185115Y-72761536D01*
X81205643Y-72540000D01*
X81185115Y-72318464D01*
X81124229Y-72104472D01*
X81092126Y-72040000D01*
X81025061Y-71905316D01*
X81025056Y-71905308D01*
X80890979Y-71727761D01*
X80726562Y-71577876D01*
X80726560Y-71577874D01*
X80537404Y-71460754D01*
X80537395Y-71460750D01*
X80484157Y-71440126D01*
X80428755Y-71397553D01*
X80405164Y-71331786D01*
X80420875Y-71263706D01*
X80470899Y-71214927D01*
X80528949Y-71200499D01*
X80831518Y-71200499D01*
X80925304Y-71185646D01*
X81038342Y-71128050D01*
X81128050Y-71038342D01*
X81185646Y-70925304D01*
X81185646Y-70925302D01*
X81185647Y-70925301D01*
X81200499Y-70831524D01*
X81200500Y-70831519D01*
X81200499Y-69168482D01*
X81185646Y-69074696D01*
X81128050Y-68961658D01*
X81128046Y-68961654D01*
X81128045Y-68961652D01*
X81038347Y-68871954D01*
X81038344Y-68871952D01*
X81038342Y-68871950D01*
X80955648Y-68829815D01*
X80925301Y-68814352D01*
X80831524Y-68799500D01*
X79168482Y-68799500D01*
X79074694Y-68814354D01*
X79032243Y-68835985D01*
X78975948Y-68849500D01*
X75966552Y-68849500D01*
X75899513Y-68829815D01*
X75893671Y-68825821D01*
X75888346Y-68821953D01*
X75888343Y-68821951D01*
X75888342Y-68821950D01*
X75812481Y-68783297D01*
X75775301Y-68764352D01*
X75681524Y-68749500D01*
X73918482Y-68749500D01*
X73837519Y-68762323D01*
X73824696Y-68764354D01*
X73711658Y-68821950D01*
X73711657Y-68821951D01*
X73711652Y-68821954D01*
X73621954Y-68911652D01*
X73621951Y-68911657D01*
X73621950Y-68911658D01*
X73602751Y-68949337D01*
X73564352Y-69024698D01*
X73549500Y-69118475D01*
X73549500Y-70881517D01*
X73556435Y-70925301D01*
X73564354Y-70975304D01*
X73621950Y-71088342D01*
X73621952Y-71088344D01*
X73621954Y-71088347D01*
X73711652Y-71178045D01*
X73711654Y-71178046D01*
X73711658Y-71178050D01*
X73824694Y-71235645D01*
X73824698Y-71235647D01*
X73918475Y-71250499D01*
X73918481Y-71250500D01*
X74068140Y-71250499D01*
X74135177Y-71270183D01*
X74180932Y-71322987D01*
X74190876Y-71392145D01*
X74161851Y-71455701D01*
X74139262Y-71476074D01*
X73993118Y-71578405D01*
X73838402Y-71733121D01*
X73712900Y-71912357D01*
X73712898Y-71912361D01*
X73620426Y-72110668D01*
X73620422Y-72110677D01*
X73563793Y-72322020D01*
X73563793Y-72322024D01*
X73544723Y-72539997D01*
X73544723Y-72540002D01*
X73563793Y-72757975D01*
X73563793Y-72757979D01*
X73620422Y-72969322D01*
X73620424Y-72969326D01*
X73620425Y-72969330D01*
X73623320Y-72975538D01*
X73712897Y-73167638D01*
X73717830Y-73174683D01*
X73838402Y-73346877D01*
X73993123Y-73501598D01*
X74160500Y-73618797D01*
X74172361Y-73627102D01*
X74323583Y-73697618D01*
X74376022Y-73743790D01*
X74395174Y-73810984D01*
X74374958Y-73877865D01*
X74323583Y-73922382D01*
X74172361Y-73992898D01*
X74172357Y-73992900D01*
X73993121Y-74118402D01*
X73838402Y-74273121D01*
X73712900Y-74452357D01*
X73712898Y-74452361D01*
X73620426Y-74650668D01*
X73620422Y-74650677D01*
X73563793Y-74862020D01*
X73563793Y-74862024D01*
X73544723Y-75079997D01*
X73544723Y-75080002D01*
X73563793Y-75297975D01*
X73563793Y-75297979D01*
X73620422Y-75509322D01*
X73620424Y-75509326D01*
X73620425Y-75509330D01*
X73623320Y-75515538D01*
X73712897Y-75707638D01*
X73712898Y-75707639D01*
X73838402Y-75886877D01*
X73993123Y-76041598D01*
X74172361Y-76167102D01*
X74308318Y-76230500D01*
X74324175Y-76237894D01*
X74376614Y-76284066D01*
X74395766Y-76351260D01*
X74375550Y-76418141D01*
X74324175Y-76462658D01*
X74172612Y-76533333D01*
X74172608Y-76533335D01*
X73993450Y-76658783D01*
X73993444Y-76658788D01*
X73838788Y-76813444D01*
X73838783Y-76813450D01*
X73713335Y-76992608D01*
X73713333Y-76992612D01*
X73620898Y-77190840D01*
X73620894Y-77190849D01*
X73572891Y-77369999D01*
X73572892Y-77370000D01*
X74366988Y-77370000D01*
X74334075Y-77427007D01*
X74300000Y-77554174D01*
X74300000Y-77685826D01*
X74334075Y-77812993D01*
X74366988Y-77870000D01*
X73572892Y-77870000D01*
X73620894Y-78049150D01*
X73620898Y-78049159D01*
X73713333Y-78247387D01*
X73838787Y-78426554D01*
X73993445Y-78581212D01*
X74172613Y-78706667D01*
X74172615Y-78706668D01*
X74324174Y-78777341D01*
X74376614Y-78823513D01*
X74395766Y-78890706D01*
X74375551Y-78957588D01*
X74324176Y-79002105D01*
X74172358Y-79072900D01*
X74172357Y-79072900D01*
X73993121Y-79198402D01*
X73838402Y-79353121D01*
X73712900Y-79532357D01*
X73712898Y-79532361D01*
X73620426Y-79730668D01*
X73620422Y-79730677D01*
X73563793Y-79942020D01*
X73563793Y-79942024D01*
X73544723Y-80159997D01*
X73544723Y-80160002D01*
X73563793Y-80377975D01*
X73563793Y-80377979D01*
X73620422Y-80589322D01*
X73620424Y-80589326D01*
X73620425Y-80589330D01*
X73623320Y-80595538D01*
X73712897Y-80787638D01*
X73712898Y-80787639D01*
X73838402Y-80966877D01*
X73993123Y-81121598D01*
X74161140Y-81239245D01*
X74172361Y-81247102D01*
X74323583Y-81317618D01*
X74376022Y-81363790D01*
X74395174Y-81430984D01*
X74374958Y-81497865D01*
X74323583Y-81542382D01*
X74172361Y-81612898D01*
X74172357Y-81612900D01*
X73993121Y-81738402D01*
X73838402Y-81893121D01*
X73712900Y-82072357D01*
X73712898Y-82072361D01*
X73620426Y-82270668D01*
X73620422Y-82270677D01*
X73563793Y-82482020D01*
X73563793Y-82482024D01*
X73544723Y-82699997D01*
X73544723Y-82700002D01*
X73563793Y-82917975D01*
X73563793Y-82917979D01*
X73620422Y-83129322D01*
X73620424Y-83129326D01*
X73620425Y-83129330D01*
X73623320Y-83135538D01*
X73712897Y-83327638D01*
X73712898Y-83327639D01*
X73838402Y-83506877D01*
X73993123Y-83661598D01*
X74161140Y-83779245D01*
X74172361Y-83787102D01*
X74323583Y-83857618D01*
X74376022Y-83903790D01*
X74395174Y-83970984D01*
X74374958Y-84037865D01*
X74323583Y-84082382D01*
X74172361Y-84152898D01*
X74172357Y-84152900D01*
X73993121Y-84278402D01*
X73838402Y-84433121D01*
X73712900Y-84612357D01*
X73712898Y-84612361D01*
X73620426Y-84810668D01*
X73620422Y-84810677D01*
X73563793Y-85022020D01*
X73563793Y-85022024D01*
X73544723Y-85239997D01*
X73544723Y-85240002D01*
X73563793Y-85457975D01*
X73563793Y-85457979D01*
X73620422Y-85669322D01*
X73620424Y-85669326D01*
X73620425Y-85669330D01*
X73623320Y-85675538D01*
X73712897Y-85867638D01*
X73712898Y-85867639D01*
X73838402Y-86046877D01*
X73993123Y-86201598D01*
X74161140Y-86319245D01*
X74172361Y-86327102D01*
X74323583Y-86397618D01*
X74376022Y-86443790D01*
X74395174Y-86510984D01*
X74374958Y-86577865D01*
X74323583Y-86622382D01*
X74172361Y-86692898D01*
X74172357Y-86692900D01*
X73993121Y-86818402D01*
X73838402Y-86973121D01*
X73712900Y-87152357D01*
X73712898Y-87152361D01*
X73620426Y-87350668D01*
X73620422Y-87350677D01*
X73563793Y-87562020D01*
X73563793Y-87562024D01*
X73544723Y-87779997D01*
X73544723Y-87780002D01*
X73563793Y-87997975D01*
X73563793Y-87997979D01*
X73620422Y-88209322D01*
X73620424Y-88209326D01*
X73620425Y-88209330D01*
X73623320Y-88215538D01*
X73712897Y-88407638D01*
X73712898Y-88407639D01*
X73838402Y-88586877D01*
X73993123Y-88741598D01*
X74161140Y-88859245D01*
X74172361Y-88867102D01*
X74323583Y-88937618D01*
X74376022Y-88983790D01*
X74395174Y-89050984D01*
X74374958Y-89117865D01*
X74323583Y-89162382D01*
X74172361Y-89232898D01*
X74172357Y-89232900D01*
X73993121Y-89358402D01*
X73838402Y-89513121D01*
X73712900Y-89692357D01*
X73712898Y-89692361D01*
X73620426Y-89890668D01*
X73620422Y-89890677D01*
X73563793Y-90102020D01*
X73563793Y-90102024D01*
X73544723Y-90319997D01*
X73544723Y-90320002D01*
X73563793Y-90537975D01*
X73563793Y-90537979D01*
X73620422Y-90749322D01*
X73620424Y-90749326D01*
X73620425Y-90749330D01*
X73623320Y-90755538D01*
X73712897Y-90947638D01*
X73712898Y-90947639D01*
X73838402Y-91126877D01*
X73993123Y-91281598D01*
X74161140Y-91399245D01*
X74172361Y-91407102D01*
X74323583Y-91477618D01*
X74376022Y-91523790D01*
X74395174Y-91590984D01*
X74374958Y-91657865D01*
X74323583Y-91702382D01*
X74172361Y-91772898D01*
X74172357Y-91772900D01*
X73993121Y-91898402D01*
X73838402Y-92053121D01*
X73712900Y-92232357D01*
X73712898Y-92232361D01*
X73620426Y-92430668D01*
X73620422Y-92430677D01*
X73563793Y-92642020D01*
X73563793Y-92642024D01*
X73544723Y-92859997D01*
X73544723Y-92860002D01*
X73563793Y-93077975D01*
X73563793Y-93077979D01*
X73620422Y-93289322D01*
X73620424Y-93289326D01*
X73620425Y-93289330D01*
X73623320Y-93295538D01*
X73712897Y-93487638D01*
X73712898Y-93487639D01*
X73838402Y-93666877D01*
X73993123Y-93821598D01*
X74161140Y-93939245D01*
X74172361Y-93947102D01*
X74323583Y-94017618D01*
X74376022Y-94063790D01*
X74395174Y-94130984D01*
X74374958Y-94197865D01*
X74323583Y-94242382D01*
X74172361Y-94312898D01*
X74172357Y-94312900D01*
X73993121Y-94438402D01*
X73838402Y-94593121D01*
X73712900Y-94772357D01*
X73712898Y-94772361D01*
X73620426Y-94970668D01*
X73620422Y-94970677D01*
X73563793Y-95182020D01*
X73563793Y-95182024D01*
X73544723Y-95399997D01*
X73544723Y-95400002D01*
X73563793Y-95617975D01*
X73563793Y-95617979D01*
X73620422Y-95829322D01*
X73620424Y-95829326D01*
X73620425Y-95829330D01*
X73623320Y-95835538D01*
X73712897Y-96027638D01*
X73712898Y-96027639D01*
X73838402Y-96206877D01*
X73993123Y-96361598D01*
X74161140Y-96479245D01*
X74172361Y-96487102D01*
X74323583Y-96557618D01*
X74376022Y-96603790D01*
X74395174Y-96670984D01*
X74374958Y-96737865D01*
X74323583Y-96782382D01*
X74172361Y-96852898D01*
X74172357Y-96852900D01*
X73993121Y-96978402D01*
X73838402Y-97133121D01*
X73712900Y-97312357D01*
X73712898Y-97312361D01*
X73620426Y-97510668D01*
X73620422Y-97510677D01*
X73563793Y-97722020D01*
X73563793Y-97722024D01*
X73544723Y-97939997D01*
X73544723Y-97940002D01*
X73563793Y-98157975D01*
X73563793Y-98157979D01*
X73620422Y-98369322D01*
X73620424Y-98369326D01*
X73620425Y-98369330D01*
X73623320Y-98375538D01*
X73712897Y-98567638D01*
X73712898Y-98567639D01*
X73838402Y-98746877D01*
X73993123Y-98901598D01*
X74161140Y-99019245D01*
X74172361Y-99027102D01*
X74323583Y-99097618D01*
X74376022Y-99143790D01*
X74395174Y-99210984D01*
X74374958Y-99277865D01*
X74323583Y-99322382D01*
X74172361Y-99392898D01*
X74172357Y-99392900D01*
X73993121Y-99518402D01*
X73838402Y-99673121D01*
X73712900Y-99852357D01*
X73712898Y-99852361D01*
X73620426Y-100050668D01*
X73620422Y-100050677D01*
X73563793Y-100262020D01*
X73563793Y-100262024D01*
X73544723Y-100479997D01*
X73544723Y-100480002D01*
X73563793Y-100697975D01*
X73563793Y-100697979D01*
X73620422Y-100909322D01*
X73620424Y-100909326D01*
X73620425Y-100909330D01*
X73623320Y-100915538D01*
X73712897Y-101107638D01*
X73712898Y-101107639D01*
X73838402Y-101286877D01*
X73993123Y-101441598D01*
X74161140Y-101559245D01*
X74172361Y-101567102D01*
X74323583Y-101637618D01*
X74376022Y-101683790D01*
X74395174Y-101750984D01*
X74374958Y-101817865D01*
X74323583Y-101862382D01*
X74172361Y-101932898D01*
X74172357Y-101932900D01*
X73993121Y-102058402D01*
X73838402Y-102213121D01*
X73712900Y-102392357D01*
X73712898Y-102392361D01*
X73620426Y-102590668D01*
X73620422Y-102590677D01*
X73563793Y-102802020D01*
X73563793Y-102802024D01*
X73544723Y-103019997D01*
X73544723Y-103020002D01*
X73563793Y-103237975D01*
X73563793Y-103237979D01*
X73620422Y-103449322D01*
X73620424Y-103449326D01*
X73620425Y-103449330D01*
X73623320Y-103455538D01*
X73712897Y-103647638D01*
X73712898Y-103647639D01*
X73838402Y-103826877D01*
X73993123Y-103981598D01*
X74161140Y-104099245D01*
X74172361Y-104107102D01*
X74323583Y-104177618D01*
X74376022Y-104223790D01*
X74395174Y-104290984D01*
X74374958Y-104357865D01*
X74323583Y-104402382D01*
X74172361Y-104472898D01*
X74172357Y-104472900D01*
X73993121Y-104598402D01*
X73838402Y-104753121D01*
X73712900Y-104932357D01*
X73712898Y-104932361D01*
X73620426Y-105130668D01*
X73620422Y-105130677D01*
X73563793Y-105342020D01*
X73563793Y-105342024D01*
X73544723Y-105559997D01*
X73544723Y-105560002D01*
X73563793Y-105777975D01*
X73563793Y-105777979D01*
X73620422Y-105989322D01*
X73620424Y-105989326D01*
X73620425Y-105989330D01*
X73623320Y-105995538D01*
X73712897Y-106187638D01*
X73712898Y-106187639D01*
X73838402Y-106366877D01*
X73993123Y-106521598D01*
X74172361Y-106647102D01*
X74370670Y-106739575D01*
X74582023Y-106796207D01*
X74764926Y-106812208D01*
X74799998Y-106815277D01*
X74800000Y-106815277D01*
X74800002Y-106815277D01*
X74828254Y-106812805D01*
X75017977Y-106796207D01*
X75229330Y-106739575D01*
X75266767Y-106722117D01*
X75319171Y-106710500D01*
X79623345Y-106710500D01*
X79664503Y-106718194D01*
X79664545Y-106718049D01*
X79666110Y-106718494D01*
X79668138Y-106718873D01*
X79670060Y-106719618D01*
X79888757Y-106760500D01*
X79888759Y-106760500D01*
X80111241Y-106760500D01*
X80111243Y-106760500D01*
X80329940Y-106719618D01*
X80537401Y-106639247D01*
X80726562Y-106522124D01*
X80890981Y-106372236D01*
X81025058Y-106194689D01*
X81124229Y-105995528D01*
X81185115Y-105781536D01*
X81205643Y-105560000D01*
X81185115Y-105338464D01*
X81124229Y-105124472D01*
X81124224Y-105124461D01*
X81025061Y-104925316D01*
X81025056Y-104925308D01*
X80890979Y-104747761D01*
X80726562Y-104597876D01*
X80726560Y-104597874D01*
X80537404Y-104480754D01*
X80537395Y-104480750D01*
X80443956Y-104444552D01*
X80343475Y-104405625D01*
X80288075Y-104363054D01*
X80264484Y-104297288D01*
X80280195Y-104229207D01*
X80330219Y-104180428D01*
X80343466Y-104174377D01*
X80537401Y-104099247D01*
X80726562Y-103982124D01*
X80758660Y-103952862D01*
X80821464Y-103922246D01*
X80842198Y-103920500D01*
X81964744Y-103920500D01*
X81964886Y-103920493D01*
X82082751Y-103920493D01*
X82082759Y-103920493D01*
X82506964Y-103887107D01*
X82927243Y-103820542D01*
X83341003Y-103721207D01*
X83745695Y-103589716D01*
X84138822Y-103426878D01*
X84517961Y-103233698D01*
X84880775Y-103011367D01*
X85225026Y-102761255D01*
X85548593Y-102484904D01*
X85627412Y-102406083D01*
X85627422Y-102406076D01*
X85636323Y-102397174D01*
X85636325Y-102397174D01*
X90970033Y-97063463D01*
X90970038Y-97063460D01*
X90980242Y-97053255D01*
X90980244Y-97053255D01*
X91042958Y-96990540D01*
X91105670Y-96927828D01*
X91105673Y-96927822D01*
X91110170Y-96923326D01*
X91110288Y-96923194D01*
X91203115Y-96830369D01*
X91499774Y-96488005D01*
X91771255Y-96125350D01*
X92016172Y-95744251D01*
X92233278Y-95346652D01*
X92421467Y-94934578D01*
X92579780Y-94510128D01*
X92707410Y-94075467D01*
X92803706Y-93632807D01*
X92868179Y-93184406D01*
X92900499Y-92732548D01*
X92900500Y-92506042D01*
X92900500Y-92417350D01*
X92900500Y-69999999D01*
X94034357Y-69999999D01*
X94034357Y-70000000D01*
X94054884Y-70221535D01*
X94054885Y-70221537D01*
X94115769Y-70435523D01*
X94115775Y-70435538D01*
X94214938Y-70634683D01*
X94214943Y-70634691D01*
X94349020Y-70812238D01*
X94513437Y-70962123D01*
X94513439Y-70962125D01*
X94702595Y-71079245D01*
X94702596Y-71079245D01*
X94702599Y-71079247D01*
X94897215Y-71154642D01*
X94952614Y-71197213D01*
X94976205Y-71262980D01*
X94960494Y-71331060D01*
X94910470Y-71379839D01*
X94897213Y-71385893D01*
X94702831Y-71461197D01*
X94702820Y-71461202D01*
X94513738Y-71578278D01*
X94349391Y-71728099D01*
X94215368Y-71905574D01*
X94116239Y-72104650D01*
X94063505Y-72290000D01*
X94806988Y-72290000D01*
X94774075Y-72347007D01*
X94740000Y-72474174D01*
X94740000Y-72605826D01*
X94774075Y-72732993D01*
X94806988Y-72790000D01*
X94063505Y-72790000D01*
X94116239Y-72975349D01*
X94215368Y-73174425D01*
X94349391Y-73351900D01*
X94513738Y-73501721D01*
X94702820Y-73618797D01*
X94702822Y-73618798D01*
X94897213Y-73694105D01*
X94952614Y-73736678D01*
X94976205Y-73802445D01*
X94960494Y-73870525D01*
X94910470Y-73919304D01*
X94897213Y-73925359D01*
X94702601Y-74000751D01*
X94702595Y-74000754D01*
X94513439Y-74117874D01*
X94513437Y-74117876D01*
X94349020Y-74267761D01*
X94214943Y-74445308D01*
X94214938Y-74445316D01*
X94115775Y-74644461D01*
X94115769Y-74644476D01*
X94054885Y-74858462D01*
X94054884Y-74858464D01*
X94034357Y-75079999D01*
X94034357Y-75080000D01*
X94054884Y-75301535D01*
X94054885Y-75301537D01*
X94115769Y-75515523D01*
X94115775Y-75515538D01*
X94214938Y-75714683D01*
X94214943Y-75714691D01*
X94349020Y-75892238D01*
X94513437Y-76042123D01*
X94513439Y-76042125D01*
X94702595Y-76159245D01*
X94702596Y-76159245D01*
X94702599Y-76159247D01*
X94896524Y-76234374D01*
X94951924Y-76276946D01*
X94975515Y-76342713D01*
X94959804Y-76410793D01*
X94909780Y-76459572D01*
X94896533Y-76465622D01*
X94748488Y-76522975D01*
X94702601Y-76540752D01*
X94702595Y-76540754D01*
X94513439Y-76657874D01*
X94513437Y-76657876D01*
X94349020Y-76807761D01*
X94214943Y-76985308D01*
X94214938Y-76985316D01*
X94115775Y-77184461D01*
X94115769Y-77184476D01*
X94054885Y-77398462D01*
X94054884Y-77398464D01*
X94034357Y-77619999D01*
X94034357Y-77620000D01*
X94054884Y-77841535D01*
X94054885Y-77841537D01*
X94115769Y-78055523D01*
X94115775Y-78055538D01*
X94214938Y-78254683D01*
X94214943Y-78254691D01*
X94349020Y-78432238D01*
X94513437Y-78582123D01*
X94513439Y-78582125D01*
X94702595Y-78699245D01*
X94702596Y-78699245D01*
X94702599Y-78699247D01*
X94896524Y-78774374D01*
X94951924Y-78816946D01*
X94975515Y-78882713D01*
X94959804Y-78950793D01*
X94909780Y-78999572D01*
X94896533Y-79005622D01*
X94748488Y-79062975D01*
X94702601Y-79080752D01*
X94702595Y-79080754D01*
X94513439Y-79197874D01*
X94513437Y-79197876D01*
X94349020Y-79347761D01*
X94214943Y-79525308D01*
X94214938Y-79525316D01*
X94115775Y-79724461D01*
X94115769Y-79724476D01*
X94054885Y-79938462D01*
X94054884Y-79938464D01*
X94034357Y-80159999D01*
X94034357Y-80160000D01*
X94054884Y-80381535D01*
X94054885Y-80381537D01*
X94115769Y-80595523D01*
X94115775Y-80595538D01*
X94214938Y-80794683D01*
X94214943Y-80794691D01*
X94349020Y-80972238D01*
X94513437Y-81122123D01*
X94513439Y-81122125D01*
X94702595Y-81239245D01*
X94702596Y-81239245D01*
X94702599Y-81239247D01*
X94896524Y-81314374D01*
X94951924Y-81356946D01*
X94975515Y-81422713D01*
X94959804Y-81490793D01*
X94909780Y-81539572D01*
X94896533Y-81545622D01*
X94748488Y-81602975D01*
X94702601Y-81620752D01*
X94702595Y-81620754D01*
X94513439Y-81737874D01*
X94513437Y-81737876D01*
X94349020Y-81887761D01*
X94214943Y-82065308D01*
X94214938Y-82065316D01*
X94115775Y-82264461D01*
X94115769Y-82264476D01*
X94054885Y-82478462D01*
X94054884Y-82478464D01*
X94034357Y-82699999D01*
X94034357Y-82700000D01*
X94054884Y-82921535D01*
X94054885Y-82921537D01*
X94115769Y-83135523D01*
X94115775Y-83135538D01*
X94214938Y-83334683D01*
X94214943Y-83334691D01*
X94349020Y-83512238D01*
X94513437Y-83662123D01*
X94513439Y-83662125D01*
X94702595Y-83779245D01*
X94702596Y-83779245D01*
X94702599Y-83779247D01*
X94896524Y-83854374D01*
X94951924Y-83896946D01*
X94975515Y-83962713D01*
X94959804Y-84030793D01*
X94909780Y-84079572D01*
X94896533Y-84085622D01*
X94748488Y-84142975D01*
X94702601Y-84160752D01*
X94702595Y-84160754D01*
X94513439Y-84277874D01*
X94513437Y-84277876D01*
X94349020Y-84427761D01*
X94214943Y-84605308D01*
X94214938Y-84605316D01*
X94115775Y-84804461D01*
X94115769Y-84804476D01*
X94054885Y-85018462D01*
X94054884Y-85018464D01*
X94034357Y-85239999D01*
X94034357Y-85240000D01*
X94054884Y-85461535D01*
X94054885Y-85461537D01*
X94115769Y-85675523D01*
X94115775Y-85675538D01*
X94214938Y-85874683D01*
X94214943Y-85874691D01*
X94349020Y-86052238D01*
X94513437Y-86202123D01*
X94513439Y-86202125D01*
X94702595Y-86319245D01*
X94702596Y-86319245D01*
X94702599Y-86319247D01*
X94896524Y-86394374D01*
X94951924Y-86436946D01*
X94975515Y-86502713D01*
X94959804Y-86570793D01*
X94909780Y-86619572D01*
X94896533Y-86625622D01*
X94748488Y-86682975D01*
X94702601Y-86700752D01*
X94702595Y-86700754D01*
X94513439Y-86817874D01*
X94513437Y-86817876D01*
X94349020Y-86967761D01*
X94214943Y-87145308D01*
X94214938Y-87145316D01*
X94115775Y-87344461D01*
X94115769Y-87344476D01*
X94054885Y-87558462D01*
X94054884Y-87558464D01*
X94034357Y-87779999D01*
X94034357Y-87780000D01*
X94054884Y-88001535D01*
X94054885Y-88001537D01*
X94115769Y-88215523D01*
X94115775Y-88215538D01*
X94214938Y-88414683D01*
X94214943Y-88414691D01*
X94349020Y-88592238D01*
X94513437Y-88742123D01*
X94513439Y-88742125D01*
X94702595Y-88859245D01*
X94702596Y-88859245D01*
X94702599Y-88859247D01*
X94896524Y-88934374D01*
X94951924Y-88976946D01*
X94975515Y-89042713D01*
X94959804Y-89110793D01*
X94909780Y-89159572D01*
X94896533Y-89165622D01*
X94748488Y-89222975D01*
X94702601Y-89240752D01*
X94702595Y-89240754D01*
X94513439Y-89357874D01*
X94513437Y-89357876D01*
X94349020Y-89507761D01*
X94214943Y-89685308D01*
X94214938Y-89685316D01*
X94115775Y-89884461D01*
X94115769Y-89884476D01*
X94054885Y-90098462D01*
X94054884Y-90098464D01*
X94034357Y-90319999D01*
X94034357Y-90320000D01*
X94054884Y-90541535D01*
X94054885Y-90541537D01*
X94115769Y-90755523D01*
X94115775Y-90755538D01*
X94214938Y-90954683D01*
X94214943Y-90954691D01*
X94349020Y-91132238D01*
X94513437Y-91282123D01*
X94513439Y-91282125D01*
X94702595Y-91399245D01*
X94702596Y-91399245D01*
X94702599Y-91399247D01*
X94896524Y-91474374D01*
X94951924Y-91516946D01*
X94975515Y-91582713D01*
X94959804Y-91650793D01*
X94909780Y-91699572D01*
X94896533Y-91705622D01*
X94748488Y-91762975D01*
X94702601Y-91780752D01*
X94702595Y-91780754D01*
X94513439Y-91897874D01*
X94513437Y-91897876D01*
X94349020Y-92047761D01*
X94214943Y-92225308D01*
X94214938Y-92225316D01*
X94115775Y-92424461D01*
X94115769Y-92424476D01*
X94054885Y-92638462D01*
X94054884Y-92638464D01*
X94034357Y-92859999D01*
X94034357Y-92860000D01*
X94054884Y-93081535D01*
X94054885Y-93081537D01*
X94115769Y-93295523D01*
X94115775Y-93295538D01*
X94214938Y-93494683D01*
X94214943Y-93494691D01*
X94349020Y-93672238D01*
X94513437Y-93822123D01*
X94513439Y-93822125D01*
X94702595Y-93939245D01*
X94702596Y-93939245D01*
X94702599Y-93939247D01*
X94896524Y-94014374D01*
X94951924Y-94056946D01*
X94975515Y-94122713D01*
X94959804Y-94190793D01*
X94909780Y-94239572D01*
X94896533Y-94245622D01*
X94748488Y-94302975D01*
X94702601Y-94320752D01*
X94702595Y-94320754D01*
X94513439Y-94437874D01*
X94513437Y-94437876D01*
X94349020Y-94587761D01*
X94214943Y-94765308D01*
X94214938Y-94765316D01*
X94115775Y-94964461D01*
X94115769Y-94964476D01*
X94054885Y-95178462D01*
X94054884Y-95178464D01*
X94034357Y-95399999D01*
X94034357Y-95400000D01*
X94054884Y-95621535D01*
X94054885Y-95621537D01*
X94115769Y-95835523D01*
X94115775Y-95835538D01*
X94214938Y-96034683D01*
X94214943Y-96034691D01*
X94349020Y-96212238D01*
X94513437Y-96362123D01*
X94513439Y-96362125D01*
X94702595Y-96479245D01*
X94702596Y-96479245D01*
X94702599Y-96479247D01*
X94896524Y-96554374D01*
X94951924Y-96596946D01*
X94975515Y-96662713D01*
X94959804Y-96730793D01*
X94909780Y-96779572D01*
X94896533Y-96785622D01*
X94781029Y-96830369D01*
X94702601Y-96860752D01*
X94702595Y-96860754D01*
X94513439Y-96977874D01*
X94513437Y-96977876D01*
X94349020Y-97127761D01*
X94214943Y-97305308D01*
X94214938Y-97305316D01*
X94115775Y-97504461D01*
X94115769Y-97504476D01*
X94054885Y-97718462D01*
X94054884Y-97718464D01*
X94034357Y-97939999D01*
X94034357Y-97940000D01*
X94054884Y-98161535D01*
X94054885Y-98161537D01*
X94115769Y-98375523D01*
X94115775Y-98375538D01*
X94214938Y-98574683D01*
X94214943Y-98574691D01*
X94349020Y-98752238D01*
X94513437Y-98902123D01*
X94513439Y-98902125D01*
X94702595Y-99019245D01*
X94702596Y-99019245D01*
X94702599Y-99019247D01*
X94896524Y-99094374D01*
X94951924Y-99136946D01*
X94975515Y-99202713D01*
X94959804Y-99270793D01*
X94909780Y-99319572D01*
X94896533Y-99325622D01*
X94748488Y-99382975D01*
X94702601Y-99400752D01*
X94702595Y-99400754D01*
X94513439Y-99517874D01*
X94513437Y-99517876D01*
X94349020Y-99667761D01*
X94214943Y-99845308D01*
X94214938Y-99845316D01*
X94115775Y-100044461D01*
X94115769Y-100044476D01*
X94054885Y-100258462D01*
X94054884Y-100258464D01*
X94034357Y-100479999D01*
X94034357Y-100480000D01*
X94054884Y-100701535D01*
X94054885Y-100701537D01*
X94115769Y-100915523D01*
X94115775Y-100915538D01*
X94214938Y-101114683D01*
X94214943Y-101114691D01*
X94349020Y-101292238D01*
X94513437Y-101442123D01*
X94513439Y-101442125D01*
X94702595Y-101559245D01*
X94702596Y-101559245D01*
X94702599Y-101559247D01*
X94896524Y-101634374D01*
X94951924Y-101676946D01*
X94975515Y-101742713D01*
X94959804Y-101810793D01*
X94909780Y-101859572D01*
X94896533Y-101865622D01*
X94748488Y-101922975D01*
X94702601Y-101940752D01*
X94702595Y-101940754D01*
X94513439Y-102057874D01*
X94513437Y-102057876D01*
X94349020Y-102207761D01*
X94214943Y-102385308D01*
X94214938Y-102385316D01*
X94115775Y-102584461D01*
X94115769Y-102584476D01*
X94054885Y-102798462D01*
X94054884Y-102798464D01*
X94034357Y-103019999D01*
X94034357Y-103020000D01*
X94054884Y-103241535D01*
X94054885Y-103241537D01*
X94115769Y-103455523D01*
X94115775Y-103455538D01*
X94214938Y-103654683D01*
X94214943Y-103654691D01*
X94349020Y-103832238D01*
X94513437Y-103982123D01*
X94513439Y-103982125D01*
X94702595Y-104099245D01*
X94702596Y-104099245D01*
X94702599Y-104099247D01*
X94896524Y-104174374D01*
X94951924Y-104216946D01*
X94975515Y-104282713D01*
X94959804Y-104350793D01*
X94909780Y-104399572D01*
X94896533Y-104405622D01*
X94771282Y-104454145D01*
X94702601Y-104480752D01*
X94702595Y-104480754D01*
X94513439Y-104597874D01*
X94513437Y-104597876D01*
X94349020Y-104747761D01*
X94214943Y-104925308D01*
X94214938Y-104925316D01*
X94115775Y-105124461D01*
X94115769Y-105124476D01*
X94054885Y-105338462D01*
X94054884Y-105338464D01*
X94034357Y-105559999D01*
X94034357Y-105560000D01*
X94054884Y-105781535D01*
X94054885Y-105781537D01*
X94115769Y-105995523D01*
X94115775Y-105995538D01*
X94214938Y-106194683D01*
X94214943Y-106194691D01*
X94349020Y-106372238D01*
X94513437Y-106522123D01*
X94513439Y-106522125D01*
X94702595Y-106639245D01*
X94702596Y-106639245D01*
X94702599Y-106639247D01*
X94910060Y-106719618D01*
X95128757Y-106760500D01*
X95128759Y-106760500D01*
X95351241Y-106760500D01*
X95351243Y-106760500D01*
X95569940Y-106719618D01*
X95571861Y-106718873D01*
X95573889Y-106718494D01*
X95575455Y-106718049D01*
X95575496Y-106718194D01*
X95616655Y-106710500D01*
X100080829Y-106710500D01*
X100133232Y-106722117D01*
X100170670Y-106739575D01*
X100382023Y-106796207D01*
X100564926Y-106812208D01*
X100599998Y-106815277D01*
X100600000Y-106815277D01*
X100600002Y-106815277D01*
X100628254Y-106812805D01*
X100817977Y-106796207D01*
X101029330Y-106739575D01*
X101227639Y-106647102D01*
X101406877Y-106521598D01*
X101561598Y-106366877D01*
X101687102Y-106187639D01*
X101779575Y-105989330D01*
X101836207Y-105777977D01*
X101855277Y-105560000D01*
X101836207Y-105342023D01*
X101779575Y-105130670D01*
X101687102Y-104932362D01*
X101687100Y-104932359D01*
X101687099Y-104932357D01*
X101561599Y-104753124D01*
X101536809Y-104728334D01*
X101406877Y-104598402D01*
X101227639Y-104472898D01*
X101076414Y-104402381D01*
X101023977Y-104356210D01*
X101004825Y-104289016D01*
X101025041Y-104222135D01*
X101076414Y-104177618D01*
X101227639Y-104107102D01*
X101406877Y-103981598D01*
X101561598Y-103826877D01*
X101687102Y-103647639D01*
X101779575Y-103449330D01*
X101836207Y-103237977D01*
X101855277Y-103020000D01*
X101854520Y-103011352D01*
X101851569Y-102977618D01*
X101836207Y-102802023D01*
X101779575Y-102590670D01*
X101687102Y-102392362D01*
X101687100Y-102392359D01*
X101687099Y-102392357D01*
X101561599Y-102213124D01*
X101556236Y-102207761D01*
X101406877Y-102058402D01*
X101227639Y-101932898D01*
X101076414Y-101862381D01*
X101023977Y-101816210D01*
X101004825Y-101749016D01*
X101025041Y-101682135D01*
X101076414Y-101637618D01*
X101227639Y-101567102D01*
X101406877Y-101441598D01*
X101561598Y-101286877D01*
X101687102Y-101107639D01*
X101779575Y-100909330D01*
X101836207Y-100697977D01*
X101855277Y-100480000D01*
X101836207Y-100262023D01*
X101779575Y-100050670D01*
X101687102Y-99852362D01*
X101687100Y-99852359D01*
X101687099Y-99852357D01*
X101561599Y-99673124D01*
X101556236Y-99667761D01*
X101406877Y-99518402D01*
X101227639Y-99392898D01*
X101076414Y-99322381D01*
X101023977Y-99276210D01*
X101004825Y-99209016D01*
X101025041Y-99142135D01*
X101076414Y-99097618D01*
X101227639Y-99027102D01*
X101406877Y-98901598D01*
X101561598Y-98746877D01*
X101687102Y-98567639D01*
X101779575Y-98369330D01*
X101836207Y-98157977D01*
X101855277Y-97940000D01*
X101836207Y-97722023D01*
X101779575Y-97510670D01*
X101687102Y-97312362D01*
X101687100Y-97312359D01*
X101687099Y-97312357D01*
X101561599Y-97133124D01*
X101491935Y-97063460D01*
X101406877Y-96978402D01*
X101227639Y-96852898D01*
X101076414Y-96782381D01*
X101023977Y-96736210D01*
X101004825Y-96669016D01*
X101025041Y-96602135D01*
X101076414Y-96557618D01*
X101227639Y-96487102D01*
X101406877Y-96361598D01*
X101561598Y-96206877D01*
X101687102Y-96027639D01*
X101779575Y-95829330D01*
X101836207Y-95617977D01*
X101855277Y-95400000D01*
X101836207Y-95182023D01*
X101779575Y-94970670D01*
X101687102Y-94772362D01*
X101687100Y-94772359D01*
X101687099Y-94772357D01*
X101561599Y-94593124D01*
X101556236Y-94587761D01*
X101406877Y-94438402D01*
X101227639Y-94312898D01*
X101076414Y-94242381D01*
X101023977Y-94196210D01*
X101004825Y-94129016D01*
X101025041Y-94062135D01*
X101076414Y-94017618D01*
X101227639Y-93947102D01*
X101406877Y-93821598D01*
X101561598Y-93666877D01*
X101687102Y-93487639D01*
X101779575Y-93289330D01*
X101836207Y-93077977D01*
X101855277Y-92860000D01*
X101836207Y-92642023D01*
X101779575Y-92430670D01*
X101687102Y-92232362D01*
X101687100Y-92232359D01*
X101687099Y-92232357D01*
X101561599Y-92053124D01*
X101556236Y-92047761D01*
X101406877Y-91898402D01*
X101227639Y-91772898D01*
X101076414Y-91702381D01*
X101023977Y-91656210D01*
X101004825Y-91589016D01*
X101025041Y-91522135D01*
X101076414Y-91477618D01*
X101227639Y-91407102D01*
X101406877Y-91281598D01*
X101561598Y-91126877D01*
X101687102Y-90947639D01*
X101779575Y-90749330D01*
X101836207Y-90537977D01*
X101855277Y-90320000D01*
X101836207Y-90102023D01*
X101779575Y-89890670D01*
X101687102Y-89692362D01*
X101687100Y-89692359D01*
X101687099Y-89692357D01*
X101561599Y-89513124D01*
X101556236Y-89507761D01*
X101406877Y-89358402D01*
X101227639Y-89232898D01*
X101076414Y-89162381D01*
X101023977Y-89116210D01*
X101004825Y-89049016D01*
X101025041Y-88982135D01*
X101076414Y-88937618D01*
X101227639Y-88867102D01*
X101406877Y-88741598D01*
X101561598Y-88586877D01*
X101687102Y-88407639D01*
X101779575Y-88209330D01*
X101836207Y-87997977D01*
X101855277Y-87780000D01*
X101836207Y-87562023D01*
X101779575Y-87350670D01*
X101687102Y-87152362D01*
X101687100Y-87152359D01*
X101687099Y-87152357D01*
X101561599Y-86973124D01*
X101556236Y-86967761D01*
X101406877Y-86818402D01*
X101227639Y-86692898D01*
X101076414Y-86622381D01*
X101023977Y-86576210D01*
X101004825Y-86509016D01*
X101025041Y-86442135D01*
X101076414Y-86397618D01*
X101227639Y-86327102D01*
X101406877Y-86201598D01*
X101561598Y-86046877D01*
X101687102Y-85867639D01*
X101779575Y-85669330D01*
X101836207Y-85457977D01*
X101855277Y-85240000D01*
X101836207Y-85022023D01*
X101779575Y-84810670D01*
X101687102Y-84612362D01*
X101687100Y-84612359D01*
X101687099Y-84612357D01*
X101561599Y-84433124D01*
X101556236Y-84427761D01*
X101406877Y-84278402D01*
X101227639Y-84152898D01*
X101076414Y-84082381D01*
X101023977Y-84036210D01*
X101004825Y-83969016D01*
X101025041Y-83902135D01*
X101076414Y-83857618D01*
X101227639Y-83787102D01*
X101406877Y-83661598D01*
X101561598Y-83506877D01*
X101687102Y-83327639D01*
X101779575Y-83129330D01*
X101836207Y-82917977D01*
X101855277Y-82700000D01*
X101836207Y-82482023D01*
X101779575Y-82270670D01*
X101687102Y-82072362D01*
X101687100Y-82072359D01*
X101687099Y-82072357D01*
X101561599Y-81893124D01*
X101556236Y-81887761D01*
X101406877Y-81738402D01*
X101227639Y-81612898D01*
X101076414Y-81542381D01*
X101023977Y-81496210D01*
X101004825Y-81429016D01*
X101025041Y-81362135D01*
X101076414Y-81317618D01*
X101227639Y-81247102D01*
X101406877Y-81121598D01*
X101561598Y-80966877D01*
X101687102Y-80787639D01*
X101779575Y-80589330D01*
X101836207Y-80377977D01*
X101855277Y-80160000D01*
X101836207Y-79942023D01*
X101779575Y-79730670D01*
X101687102Y-79532362D01*
X101687100Y-79532359D01*
X101687099Y-79532357D01*
X101561599Y-79353124D01*
X101556236Y-79347761D01*
X101406877Y-79198402D01*
X101227639Y-79072898D01*
X101076414Y-79002381D01*
X101023977Y-78956210D01*
X101004825Y-78889016D01*
X101025041Y-78822135D01*
X101076414Y-78777618D01*
X101227639Y-78707102D01*
X101406877Y-78581598D01*
X101561598Y-78426877D01*
X101687102Y-78247639D01*
X101779575Y-78049330D01*
X101836207Y-77837977D01*
X101855277Y-77620000D01*
X101836207Y-77402023D01*
X101801548Y-77272675D01*
X101779577Y-77190677D01*
X101779576Y-77190676D01*
X101779575Y-77190670D01*
X101687102Y-76992362D01*
X101687100Y-76992359D01*
X101687099Y-76992357D01*
X101561599Y-76813124D01*
X101556236Y-76807761D01*
X101406877Y-76658402D01*
X101227639Y-76532898D01*
X101076414Y-76462381D01*
X101023977Y-76416210D01*
X101004825Y-76349016D01*
X101025041Y-76282135D01*
X101076414Y-76237618D01*
X101227639Y-76167102D01*
X101406877Y-76041598D01*
X101561598Y-75886877D01*
X101687102Y-75707639D01*
X101779575Y-75509330D01*
X101836207Y-75297977D01*
X101855277Y-75080000D01*
X101836207Y-74862023D01*
X101779575Y-74650670D01*
X101687102Y-74452362D01*
X101687100Y-74452359D01*
X101687099Y-74452357D01*
X101561599Y-74273124D01*
X101556236Y-74267761D01*
X101406877Y-74118402D01*
X101238857Y-74000753D01*
X101227638Y-73992897D01*
X101075824Y-73922105D01*
X101023385Y-73875932D01*
X101004233Y-73808739D01*
X101024449Y-73741858D01*
X101075825Y-73697341D01*
X101227384Y-73626668D01*
X101227386Y-73626667D01*
X101406554Y-73501212D01*
X101561212Y-73346554D01*
X101686666Y-73167387D01*
X101779101Y-72969159D01*
X101779105Y-72969150D01*
X101827108Y-72790000D01*
X101033012Y-72790000D01*
X101065925Y-72732993D01*
X101100000Y-72605826D01*
X101100000Y-72474174D01*
X101065925Y-72347007D01*
X101033012Y-72290000D01*
X101827108Y-72290000D01*
X101827108Y-72289999D01*
X101779105Y-72110849D01*
X101779101Y-72110840D01*
X101686666Y-71912612D01*
X101686664Y-71912608D01*
X101561216Y-71733450D01*
X101561211Y-71733444D01*
X101406554Y-71578787D01*
X101259864Y-71476074D01*
X101216240Y-71421497D01*
X101209047Y-71351998D01*
X101240569Y-71289644D01*
X101300799Y-71254230D01*
X101330987Y-71250499D01*
X101481518Y-71250499D01*
X101575304Y-71235646D01*
X101688342Y-71178050D01*
X101778050Y-71088342D01*
X101835646Y-70975304D01*
X101835646Y-70975302D01*
X101835647Y-70975301D01*
X101850499Y-70881524D01*
X101850500Y-70881519D01*
X101850499Y-69118482D01*
X101835646Y-69024696D01*
X101778050Y-68911658D01*
X101778046Y-68911654D01*
X101778045Y-68911652D01*
X101688347Y-68821954D01*
X101688344Y-68821952D01*
X101688342Y-68821950D01*
X101611517Y-68782805D01*
X101575301Y-68764352D01*
X101481524Y-68749500D01*
X99718482Y-68749500D01*
X99637519Y-68762323D01*
X99624696Y-68764354D01*
X99511658Y-68821950D01*
X99511657Y-68821950D01*
X99511653Y-68821953D01*
X99506329Y-68825821D01*
X99440522Y-68849298D01*
X99433448Y-68849500D01*
X95616655Y-68849500D01*
X95575496Y-68841805D01*
X95575455Y-68841951D01*
X95573889Y-68841505D01*
X95571861Y-68841126D01*
X95569940Y-68840382D01*
X95351243Y-68799500D01*
X95128757Y-68799500D01*
X94910060Y-68840382D01*
X94778864Y-68891207D01*
X94702601Y-68920752D01*
X94702595Y-68920754D01*
X94513439Y-69037874D01*
X94513437Y-69037876D01*
X94349020Y-69187761D01*
X94214943Y-69365308D01*
X94214938Y-69365316D01*
X94115775Y-69564461D01*
X94115769Y-69564476D01*
X94054885Y-69778462D01*
X94054884Y-69778464D01*
X94034357Y-69999999D01*
X92900500Y-69999999D01*
X92900500Y-62899997D01*
X93894860Y-62899997D01*
X93894860Y-62899998D01*
X93915379Y-63121437D01*
X93976241Y-63335348D01*
X94075365Y-63534417D01*
X94075367Y-63534419D01*
X94091139Y-63555304D01*
X94700001Y-62946443D01*
X94700001Y-62952659D01*
X94727260Y-63054392D01*
X94779921Y-63145604D01*
X94854395Y-63220078D01*
X94945607Y-63272739D01*
X95047340Y-63299998D01*
X95053555Y-63299998D01*
X94446672Y-63906878D01*
X94562824Y-63978796D01*
X94562825Y-63978797D01*
X94770196Y-64059132D01*
X94988808Y-64099998D01*
X95211194Y-64099998D01*
X95429805Y-64059132D01*
X95637178Y-63978796D01*
X95637179Y-63978795D01*
X95753328Y-63906878D01*
X95146448Y-63299998D01*
X95152662Y-63299998D01*
X95254395Y-63272739D01*
X95345607Y-63220078D01*
X95420081Y-63145604D01*
X95472742Y-63054392D01*
X95500001Y-62952659D01*
X95500001Y-62946444D01*
X96108861Y-63555304D01*
X96108862Y-63555304D01*
X96124632Y-63534423D01*
X96124633Y-63534421D01*
X96164499Y-63454359D01*
X96212002Y-63403121D01*
X96279664Y-63385699D01*
X96346005Y-63407624D01*
X96389961Y-63461935D01*
X96399500Y-63509628D01*
X96399500Y-63731517D01*
X96410292Y-63799657D01*
X96414354Y-63825304D01*
X96471950Y-63938342D01*
X96471952Y-63938344D01*
X96471954Y-63938347D01*
X96561652Y-64028045D01*
X96561654Y-64028046D01*
X96561658Y-64028050D01*
X96674694Y-64085645D01*
X96674698Y-64085647D01*
X96762116Y-64099491D01*
X96765311Y-64099998D01*
X96768475Y-64100499D01*
X96768481Y-64100500D01*
X98431518Y-64100499D01*
X98525304Y-64085646D01*
X98567757Y-64064014D01*
X98624052Y-64050500D01*
X101004318Y-64050500D01*
X101004342Y-64050501D01*
X101009453Y-64050501D01*
X101195656Y-64050501D01*
X101195680Y-64050500D01*
X101772084Y-64050500D01*
X101839123Y-64070185D01*
X101859765Y-64086819D01*
X101880909Y-64107963D01*
X101914394Y-64169286D01*
X101909410Y-64238978D01*
X101867538Y-64294911D01*
X101849524Y-64306128D01*
X101813959Y-64324249D01*
X101813952Y-64324254D01*
X101724254Y-64413952D01*
X101724251Y-64413957D01*
X101666652Y-64526998D01*
X101651800Y-64620775D01*
X101651800Y-65979217D01*
X101662592Y-66047357D01*
X101666654Y-66073004D01*
X101724250Y-66186042D01*
X101724252Y-66186044D01*
X101724254Y-66186047D01*
X101813952Y-66275745D01*
X101813954Y-66275746D01*
X101813958Y-66275750D01*
X101916426Y-66327960D01*
X101967222Y-66375935D01*
X101984017Y-66443756D01*
X101961479Y-66509891D01*
X101947811Y-66526127D01*
X101907790Y-66566147D01*
X101903649Y-66570101D01*
X101846648Y-66622064D01*
X101846645Y-66622068D01*
X101835711Y-66636546D01*
X101824461Y-66649476D01*
X101822986Y-66650950D01*
X101822985Y-66650952D01*
X101776760Y-66714574D01*
X101775399Y-66716411D01*
X101718235Y-66792111D01*
X101718231Y-66792118D01*
X101673324Y-66882302D01*
X101672809Y-66883323D01*
X101634439Y-66958630D01*
X101632577Y-66963126D01*
X101632338Y-66963027D01*
X101628703Y-66971911D01*
X101623255Y-66982853D01*
X101623251Y-66982864D01*
X101600528Y-67062722D01*
X101599194Y-67067101D01*
X101578510Y-67130762D01*
X101576336Y-67144485D01*
X101573132Y-67159007D01*
X101564935Y-67187819D01*
X101558905Y-67252884D01*
X101557908Y-67260835D01*
X101550200Y-67309509D01*
X101550200Y-67341106D01*
X101549671Y-67352547D01*
X101545274Y-67399999D01*
X101545274Y-67400001D01*
X101549671Y-67447453D01*
X101550200Y-67458894D01*
X101550200Y-67490492D01*
X101557908Y-67539165D01*
X101558905Y-67547118D01*
X101564934Y-67612176D01*
X101564934Y-67612178D01*
X101573133Y-67640995D01*
X101576338Y-67655523D01*
X101578511Y-67669242D01*
X101578513Y-67669249D01*
X101599193Y-67732898D01*
X101600528Y-67737279D01*
X101623250Y-67817136D01*
X101628696Y-67828074D01*
X101632331Y-67836963D01*
X101632572Y-67836864D01*
X101634436Y-67841365D01*
X101672853Y-67916764D01*
X101673367Y-67917785D01*
X101718232Y-68007886D01*
X101775346Y-68083517D01*
X101776709Y-68085357D01*
X101822981Y-68149044D01*
X101824443Y-68150506D01*
X101835715Y-68163459D01*
X101846647Y-68177935D01*
X101903672Y-68229920D01*
X101907792Y-68233855D01*
X101950956Y-68277019D01*
X101950959Y-68277021D01*
X101966966Y-68288651D01*
X101977619Y-68297332D01*
X102004119Y-68321490D01*
X102004121Y-68321491D01*
X102004122Y-68321492D01*
X102054658Y-68352783D01*
X102054665Y-68352787D01*
X102062270Y-68357895D01*
X102097364Y-68383391D01*
X102097374Y-68383398D01*
X102130792Y-68400425D01*
X102139758Y-68405474D01*
X102185294Y-68433669D01*
X102224226Y-68448751D01*
X102224234Y-68448754D01*
X102235733Y-68453895D01*
X102258630Y-68465562D01*
X102311115Y-68482615D01*
X102317520Y-68484893D01*
X102383994Y-68510646D01*
X102407631Y-68515064D01*
X102423152Y-68519018D01*
X102430755Y-68521489D01*
X102502733Y-68532888D01*
X102506023Y-68533456D01*
X102593455Y-68549801D01*
X102593457Y-68549801D01*
X102806544Y-68549801D01*
X102806545Y-68549801D01*
X102893923Y-68533466D01*
X102897281Y-68532887D01*
X102949256Y-68524654D01*
X102969245Y-68521489D01*
X102976845Y-68519019D01*
X102992367Y-68515064D01*
X103016006Y-68510646D01*
X103082461Y-68484900D01*
X103088859Y-68482623D01*
X103141370Y-68465562D01*
X103164265Y-68453895D01*
X103175756Y-68448757D01*
X103214706Y-68433669D01*
X103260258Y-68405462D01*
X103269205Y-68400425D01*
X103302626Y-68383398D01*
X103337738Y-68357886D01*
X103345317Y-68352797D01*
X103395878Y-68321492D01*
X103422380Y-68297332D01*
X103433032Y-68288652D01*
X103449044Y-68277019D01*
X103492226Y-68233835D01*
X103496324Y-68229922D01*
X103553353Y-68177935D01*
X103564281Y-68163463D01*
X103575565Y-68150497D01*
X103577018Y-68149045D01*
X103623275Y-68085377D01*
X103624641Y-68083533D01*
X103624653Y-68083517D01*
X103681768Y-68007886D01*
X103726721Y-67917605D01*
X103727145Y-67916764D01*
X103765561Y-67841371D01*
X103765564Y-67841360D01*
X103767425Y-67836869D01*
X103767669Y-67836970D01*
X103771310Y-67828060D01*
X103771762Y-67827151D01*
X103776750Y-67817136D01*
X103799471Y-67737279D01*
X103800807Y-67732894D01*
X103821487Y-67669250D01*
X103821487Y-67669249D01*
X103821486Y-67669249D01*
X103821488Y-67669246D01*
X103823661Y-67655522D01*
X103826866Y-67640995D01*
X103835065Y-67612181D01*
X103841094Y-67547107D01*
X103842092Y-67539154D01*
X103849800Y-67490489D01*
X103849800Y-67458894D01*
X103850329Y-67447453D01*
X103854726Y-67400001D01*
X103854726Y-67399999D01*
X103850329Y-67352547D01*
X103849800Y-67341106D01*
X103849800Y-67309510D01*
X103842092Y-67260845D01*
X103841094Y-67252888D01*
X103835065Y-67187823D01*
X103835065Y-67187821D01*
X103826864Y-67158999D01*
X103823662Y-67144485D01*
X103821488Y-67130756D01*
X103800799Y-67067082D01*
X103799480Y-67062755D01*
X103776750Y-66982866D01*
X103771302Y-66971926D01*
X103767669Y-66963034D01*
X103767426Y-66963135D01*
X103765559Y-66958627D01*
X103727211Y-66883367D01*
X103726694Y-66882342D01*
X103681768Y-66792116D01*
X103624598Y-66716411D01*
X103623250Y-66714590D01*
X103577018Y-66650957D01*
X103575557Y-66649496D01*
X103564284Y-66636541D01*
X103553356Y-66622071D01*
X103553353Y-66622067D01*
X103496326Y-66570080D01*
X103492206Y-66566145D01*
X103452186Y-66526124D01*
X103418701Y-66464801D01*
X103423687Y-66395109D01*
X103465559Y-66339176D01*
X103483562Y-66327966D01*
X103586042Y-66275750D01*
X103675750Y-66186042D01*
X103733346Y-66073004D01*
X103733346Y-66073002D01*
X103733347Y-66073001D01*
X103748199Y-65979224D01*
X103748200Y-65979219D01*
X103748199Y-64620782D01*
X103733346Y-64526996D01*
X103675750Y-64413958D01*
X103675746Y-64413954D01*
X103675745Y-64413952D01*
X103586047Y-64324254D01*
X103586043Y-64324251D01*
X103586042Y-64324250D01*
X103550474Y-64306127D01*
X103499680Y-64258155D01*
X103482885Y-64190334D01*
X103505422Y-64124199D01*
X103519079Y-64107974D01*
X103577553Y-64049501D01*
X103683996Y-63902994D01*
X103766211Y-63741639D01*
X103822171Y-63569409D01*
X103828150Y-63531660D01*
X103850501Y-63390546D01*
X103850501Y-63209453D01*
X103850501Y-63205052D01*
X103850500Y-63205037D01*
X103850500Y-61395681D01*
X103850501Y-61395656D01*
X103850501Y-61209454D01*
X103850501Y-61209453D01*
X103822171Y-61030590D01*
X103766211Y-60858360D01*
X103766209Y-60858354D01*
X103683995Y-60697004D01*
X103673896Y-60683103D01*
X103673896Y-60683102D01*
X103577555Y-60550501D01*
X103577550Y-60550495D01*
X103449499Y-60422444D01*
X103350577Y-60350573D01*
X103307912Y-60295243D01*
X103301933Y-60225630D01*
X103334539Y-60163835D01*
X103358185Y-60144828D01*
X103395878Y-60121491D01*
X103422380Y-60097331D01*
X103433032Y-60088651D01*
X103449044Y-60077018D01*
X103492226Y-60033834D01*
X103496324Y-60029921D01*
X103553353Y-59977934D01*
X103564281Y-59963462D01*
X103575565Y-59950496D01*
X103577018Y-59949044D01*
X103623275Y-59885376D01*
X103624641Y-59883532D01*
X103624653Y-59883516D01*
X103681768Y-59807885D01*
X103726721Y-59717604D01*
X103727145Y-59716763D01*
X103765561Y-59641370D01*
X103765564Y-59641359D01*
X103767425Y-59636868D01*
X103767669Y-59636969D01*
X103771310Y-59628059D01*
X103771762Y-59627150D01*
X103776750Y-59617135D01*
X103799471Y-59537278D01*
X103800807Y-59532893D01*
X103821487Y-59469249D01*
X103821487Y-59469248D01*
X103821486Y-59469248D01*
X103821488Y-59469245D01*
X103823661Y-59455521D01*
X103826866Y-59440994D01*
X103835065Y-59412180D01*
X103841094Y-59347106D01*
X103842092Y-59339153D01*
X103849800Y-59290488D01*
X103849800Y-59258893D01*
X103850329Y-59247452D01*
X103854726Y-59200000D01*
X103854726Y-59199998D01*
X103850329Y-59152546D01*
X103849800Y-59141105D01*
X103849800Y-59109509D01*
X103842092Y-59060844D01*
X103841094Y-59052887D01*
X103835065Y-58987822D01*
X103835065Y-58987820D01*
X103826864Y-58958998D01*
X103823662Y-58944484D01*
X103821488Y-58930755D01*
X103800799Y-58867081D01*
X103799480Y-58862754D01*
X103776750Y-58782865D01*
X103771302Y-58771925D01*
X103767669Y-58763033D01*
X103767426Y-58763134D01*
X103765559Y-58758626D01*
X103727211Y-58683366D01*
X103726694Y-58682341D01*
X103681768Y-58592115D01*
X103624598Y-58516410D01*
X103623250Y-58514589D01*
X103577018Y-58450956D01*
X103575557Y-58449495D01*
X103564284Y-58436540D01*
X103553356Y-58422070D01*
X103553353Y-58422066D01*
X103496326Y-58370079D01*
X103492206Y-58366144D01*
X103449048Y-58322985D01*
X103449044Y-58322982D01*
X103433024Y-58311342D01*
X103422377Y-58302665D01*
X103395880Y-58278510D01*
X103382295Y-58270099D01*
X103345317Y-58247202D01*
X103337743Y-58242116D01*
X103302626Y-58216603D01*
X103300430Y-58215484D01*
X103269219Y-58199581D01*
X103260239Y-58194524D01*
X103214712Y-58166335D01*
X103214708Y-58166333D01*
X103214706Y-58166332D01*
X103175764Y-58151245D01*
X103164271Y-58146107D01*
X103152604Y-58140163D01*
X103141371Y-58134439D01*
X103088899Y-58117389D01*
X103082426Y-58115086D01*
X103016007Y-58089355D01*
X103016000Y-58089353D01*
X102992365Y-58084935D01*
X102976841Y-58080980D01*
X102969245Y-58078512D01*
X102969243Y-58078511D01*
X102969241Y-58078511D01*
X102897335Y-58067122D01*
X102893951Y-58066538D01*
X102806545Y-58050200D01*
X102593455Y-58050200D01*
X102593453Y-58050200D01*
X102506058Y-58066536D01*
X102502675Y-58067120D01*
X102430756Y-58078511D01*
X102430750Y-58078513D01*
X102423147Y-58080983D01*
X102407629Y-58084936D01*
X102383997Y-58089354D01*
X102383987Y-58089356D01*
X102317561Y-58115090D01*
X102311089Y-58117393D01*
X102258634Y-58134437D01*
X102258620Y-58134443D01*
X102235728Y-58146107D01*
X102224231Y-58151247D01*
X102185299Y-58166329D01*
X102185296Y-58166331D01*
X102185295Y-58166331D01*
X102185294Y-58166332D01*
X102139749Y-58194531D01*
X102130780Y-58199581D01*
X102097379Y-58216599D01*
X102097366Y-58216607D01*
X102062269Y-58242106D01*
X102054668Y-58247211D01*
X102004120Y-58278510D01*
X101977616Y-58302671D01*
X101966972Y-58311345D01*
X101950953Y-58322984D01*
X101907789Y-58366147D01*
X101903649Y-58370100D01*
X101846648Y-58422063D01*
X101846645Y-58422067D01*
X101835711Y-58436545D01*
X101824461Y-58449475D01*
X101822986Y-58450949D01*
X101822985Y-58450951D01*
X101776760Y-58514573D01*
X101775399Y-58516410D01*
X101718235Y-58592110D01*
X101718231Y-58592117D01*
X101673324Y-58682301D01*
X101672809Y-58683322D01*
X101634439Y-58758629D01*
X101632577Y-58763125D01*
X101632338Y-58763026D01*
X101628703Y-58771910D01*
X101623255Y-58782852D01*
X101623251Y-58782863D01*
X101600528Y-58862721D01*
X101599194Y-58867100D01*
X101578510Y-58930761D01*
X101576336Y-58944484D01*
X101573132Y-58959006D01*
X101564935Y-58987818D01*
X101558905Y-59052883D01*
X101557908Y-59060834D01*
X101550200Y-59109508D01*
X101550200Y-59141105D01*
X101549671Y-59152546D01*
X101545274Y-59199998D01*
X101545274Y-59200000D01*
X101549671Y-59247452D01*
X101550200Y-59258893D01*
X101550200Y-59290491D01*
X101557908Y-59339164D01*
X101558905Y-59347117D01*
X101564934Y-59412175D01*
X101564934Y-59412177D01*
X101573133Y-59440994D01*
X101576338Y-59455522D01*
X101578511Y-59469241D01*
X101578513Y-59469248D01*
X101599193Y-59532897D01*
X101600528Y-59537278D01*
X101623250Y-59617135D01*
X101628696Y-59628073D01*
X101632331Y-59636962D01*
X101632572Y-59636863D01*
X101634436Y-59641364D01*
X101672853Y-59716763D01*
X101673367Y-59717784D01*
X101718232Y-59807885D01*
X101775346Y-59883516D01*
X101776709Y-59885356D01*
X101822981Y-59949043D01*
X101824443Y-59950505D01*
X101835715Y-59963458D01*
X101846647Y-59977934D01*
X101903672Y-60029919D01*
X101907792Y-60033854D01*
X101950956Y-60077018D01*
X101950959Y-60077020D01*
X101966966Y-60088650D01*
X101977619Y-60097331D01*
X102004119Y-60121489D01*
X102041814Y-60144829D01*
X102088449Y-60196857D01*
X102099553Y-60265839D01*
X102071600Y-60329873D01*
X102049421Y-60350574D01*
X101950505Y-60422440D01*
X101950500Y-60422444D01*
X101822444Y-60550501D01*
X100659765Y-61713181D01*
X100598442Y-61746666D01*
X100572084Y-61749500D01*
X98624052Y-61749500D01*
X98567758Y-61735985D01*
X98525301Y-61714352D01*
X98431524Y-61699500D01*
X96768482Y-61699500D01*
X96687519Y-61712323D01*
X96674696Y-61714354D01*
X96561658Y-61771950D01*
X96561657Y-61771951D01*
X96561652Y-61771954D01*
X96471954Y-61861652D01*
X96471951Y-61861657D01*
X96414352Y-61974698D01*
X96399500Y-62068475D01*
X96399500Y-62290364D01*
X96379815Y-62357403D01*
X96327011Y-62403158D01*
X96257853Y-62413102D01*
X96194297Y-62384077D01*
X96164500Y-62345635D01*
X96124637Y-62265579D01*
X96124632Y-62265572D01*
X96108861Y-62244689D01*
X95500001Y-62853550D01*
X95500001Y-62847337D01*
X95472742Y-62745604D01*
X95420081Y-62654392D01*
X95345607Y-62579918D01*
X95254395Y-62527257D01*
X95152662Y-62499998D01*
X95146448Y-62499998D01*
X95753328Y-61893116D01*
X95753327Y-61893115D01*
X95637182Y-61821201D01*
X95637176Y-61821198D01*
X95429805Y-61740863D01*
X95211194Y-61699998D01*
X94988808Y-61699998D01*
X94770196Y-61740863D01*
X94562825Y-61821198D01*
X94562819Y-61821202D01*
X94446673Y-61893115D01*
X94446672Y-61893116D01*
X95053555Y-62499998D01*
X95047340Y-62499998D01*
X94945607Y-62527257D01*
X94854395Y-62579918D01*
X94779921Y-62654392D01*
X94727260Y-62745604D01*
X94700001Y-62847337D01*
X94700001Y-62853551D01*
X94091139Y-62244689D01*
X94091138Y-62244689D01*
X94075370Y-62265569D01*
X93976241Y-62464647D01*
X93915379Y-62678558D01*
X93894860Y-62899997D01*
X92900500Y-62899997D01*
X92900500Y-59116931D01*
X92900501Y-59116926D01*
X92900500Y-59031711D01*
X92900695Y-59024762D01*
X92905202Y-58944484D01*
X92915214Y-58766145D01*
X92916768Y-58752354D01*
X92959570Y-58500422D01*
X92962660Y-58486882D01*
X93033398Y-58241327D01*
X93037983Y-58228224D01*
X93135771Y-57992127D01*
X93141800Y-57979610D01*
X93265404Y-57755955D01*
X93272791Y-57744198D01*
X93420660Y-57535788D01*
X93429314Y-57524935D01*
X93601346Y-57332422D01*
X93606093Y-57327400D01*
X93623597Y-57309896D01*
X93972435Y-56961057D01*
X94033757Y-56927574D01*
X94041591Y-56926364D01*
X94046240Y-56925495D01*
X94046244Y-56925495D01*
X94264941Y-56884613D01*
X94472402Y-56804242D01*
X94661563Y-56687119D01*
X94825982Y-56537231D01*
X94960059Y-56359684D01*
X95059230Y-56160523D01*
X95085737Y-56067359D01*
X95123016Y-56008266D01*
X95186326Y-55978709D01*
X95255565Y-55988071D01*
X95308752Y-56033381D01*
X95324269Y-56067360D01*
X95350775Y-56160521D01*
X95350781Y-56160536D01*
X95449944Y-56359681D01*
X95449949Y-56359689D01*
X95584026Y-56537236D01*
X95748443Y-56687121D01*
X95748445Y-56687123D01*
X95937601Y-56804243D01*
X95937602Y-56804243D01*
X95937605Y-56804245D01*
X96145066Y-56884616D01*
X96363763Y-56925498D01*
X96363765Y-56925498D01*
X96586247Y-56925498D01*
X96586249Y-56925498D01*
X96804946Y-56884616D01*
X97012407Y-56804245D01*
X97201568Y-56687122D01*
X97365978Y-56537242D01*
X97365985Y-56537236D01*
X97365988Y-56537233D01*
X97500064Y-56359687D01*
X97599235Y-56160526D01*
X97625737Y-56067379D01*
X97663016Y-56008287D01*
X97726325Y-55978729D01*
X97795565Y-55988091D01*
X97848752Y-56033400D01*
X97864269Y-56067380D01*
X97890769Y-56160520D01*
X97890775Y-56160535D01*
X97989938Y-56359680D01*
X97989943Y-56359688D01*
X98124020Y-56537235D01*
X98288437Y-56687120D01*
X98288439Y-56687122D01*
X98477595Y-56804242D01*
X98477596Y-56804242D01*
X98477599Y-56804244D01*
X98685060Y-56884615D01*
X98903757Y-56925497D01*
X98903759Y-56925497D01*
X99126241Y-56925497D01*
X99126243Y-56925497D01*
X99344940Y-56884615D01*
X99552401Y-56804244D01*
X99741562Y-56687121D01*
X99905971Y-56537242D01*
X99905979Y-56537235D01*
X99905983Y-56537231D01*
X100040058Y-56359686D01*
X100139229Y-56160525D01*
X100165732Y-56067375D01*
X100203011Y-56008282D01*
X100266321Y-55978725D01*
X100335560Y-55988087D01*
X100388747Y-56033397D01*
X100404264Y-56067376D01*
X100430767Y-56160527D01*
X100430773Y-56160542D01*
X100529936Y-56359687D01*
X100529941Y-56359695D01*
X100664018Y-56537242D01*
X100816086Y-56675870D01*
X100828429Y-56687122D01*
X100828435Y-56687127D01*
X100828437Y-56687129D01*
X101017593Y-56804249D01*
X101017594Y-56804249D01*
X101017597Y-56804251D01*
X101225058Y-56884622D01*
X101443755Y-56925504D01*
X101443757Y-56925504D01*
X101666239Y-56925504D01*
X101666241Y-56925504D01*
X101884938Y-56884622D01*
X102092399Y-56804251D01*
X102281560Y-56687128D01*
X102445979Y-56537240D01*
X102580056Y-56359693D01*
X102679227Y-56160532D01*
X102740113Y-55946540D01*
X102760641Y-55725004D01*
X102760640Y-55724998D01*
X102740113Y-55503468D01*
X102740112Y-55503466D01*
X102740109Y-55503457D01*
X102679227Y-55289476D01*
X102679222Y-55289465D01*
X102580059Y-55090320D01*
X102580054Y-55090312D01*
X102445977Y-54912765D01*
X102281560Y-54762880D01*
X102281558Y-54762878D01*
X102092402Y-54645758D01*
X102092396Y-54645756D01*
X102092386Y-54645752D01*
X101884938Y-54565386D01*
X101666241Y-54524504D01*
X101443755Y-54524504D01*
X101225058Y-54565386D01*
X101093862Y-54616211D01*
X101017599Y-54645756D01*
X101017593Y-54645758D01*
X100828437Y-54762878D01*
X100828435Y-54762880D01*
X100664018Y-54912765D01*
X100529941Y-55090312D01*
X100529936Y-55090320D01*
X100430773Y-55289465D01*
X100430769Y-55289475D01*
X100404265Y-55382626D01*
X100366985Y-55441719D01*
X100303675Y-55471276D01*
X100234435Y-55461912D01*
X100181250Y-55416602D01*
X100165736Y-55382632D01*
X100139229Y-55289469D01*
X100055129Y-55120574D01*
X100040061Y-55090313D01*
X100040056Y-55090305D01*
X99905979Y-54912758D01*
X99741563Y-54762874D01*
X99741562Y-54762873D01*
X99709709Y-54743150D01*
X99663075Y-54691123D01*
X99655214Y-54669822D01*
X99600867Y-54466993D01*
X99476042Y-54124040D01*
X99430091Y-54025499D01*
X99329006Y-53808722D01*
X99321801Y-53793271D01*
X99139318Y-53477203D01*
X98929983Y-53178243D01*
X98929982Y-53178242D01*
X98929978Y-53178236D01*
X98695386Y-52898662D01*
X98566362Y-52769638D01*
X98566357Y-52769634D01*
X98566354Y-52769631D01*
X98508719Y-52711996D01*
X98508718Y-52711995D01*
X98504388Y-52707665D01*
X98504377Y-52707655D01*
X97400894Y-51604172D01*
X97400878Y-51604154D01*
X97374214Y-51577490D01*
X97374164Y-51577399D01*
X97199109Y-51402349D01*
X97176640Y-51383496D01*
X97031445Y-51261665D01*
X96898397Y-51150026D01*
X96576849Y-50924882D01*
X96576835Y-50924873D01*
X96536929Y-50901834D01*
X96347917Y-50792710D01*
X96236883Y-50728606D01*
X96043488Y-50638427D01*
X95881108Y-50562710D01*
X95881105Y-50562709D01*
X95881101Y-50562707D01*
X95881096Y-50562705D01*
X95512250Y-50428460D01*
X95512222Y-50428452D01*
X95261799Y-50361355D01*
X95133059Y-50326861D01*
X95133055Y-50326860D01*
X95133041Y-50326857D01*
X94746484Y-50258702D01*
X94746476Y-50258701D01*
X94746475Y-50258701D01*
X94648711Y-50250148D01*
X94355424Y-50224492D01*
X94355421Y-50224492D01*
X94355418Y-50224492D01*
X94187960Y-50224493D01*
X94187960Y-50224494D01*
X94065520Y-50224496D01*
X94061777Y-50224496D01*
X94052048Y-50224114D01*
X93875076Y-50210186D01*
X93855858Y-50207142D01*
X93688001Y-50166844D01*
X93669495Y-50160831D01*
X93510008Y-50094769D01*
X93492672Y-50085936D01*
X93345482Y-49995739D01*
X93329740Y-49984301D01*
X93196573Y-49870566D01*
X93186049Y-49860448D01*
X92918545Y-49571069D01*
X92912221Y-49563666D01*
X92666701Y-49252230D01*
X92660999Y-49244380D01*
X92440672Y-48914642D01*
X92435604Y-48906372D01*
X92241829Y-48560366D01*
X92237412Y-48551698D01*
X92232267Y-48540538D01*
X92071392Y-48191575D01*
X92067667Y-48182580D01*
X91946814Y-47854998D01*
X92758501Y-47854998D01*
X93619310Y-47854998D01*
X93614916Y-47859392D01*
X93562255Y-47950604D01*
X93534996Y-48052337D01*
X93534996Y-48157659D01*
X93562255Y-48259392D01*
X93614916Y-48350604D01*
X93619310Y-48354998D01*
X92758501Y-48354998D01*
X92811235Y-48540347D01*
X92910364Y-48739423D01*
X93044387Y-48916898D01*
X93208734Y-49066719D01*
X93397816Y-49183795D01*
X93397818Y-49183796D01*
X93605191Y-49264133D01*
X93684996Y-49279050D01*
X93684996Y-48420684D01*
X93689390Y-48425078D01*
X93780602Y-48477739D01*
X93882335Y-48504998D01*
X93987657Y-48504998D01*
X94089390Y-48477739D01*
X94180602Y-48425078D01*
X94184996Y-48420684D01*
X94184996Y-49279050D01*
X94264800Y-49264133D01*
X94472173Y-49183796D01*
X94472175Y-49183795D01*
X94661257Y-49066719D01*
X94825604Y-48916898D01*
X94959627Y-48739423D01*
X95058756Y-48540347D01*
X95085470Y-48446455D01*
X95122749Y-48387361D01*
X95186058Y-48357803D01*
X95255298Y-48367164D01*
X95308485Y-48412474D01*
X95324003Y-48446454D01*
X95350768Y-48540525D01*
X95350774Y-48540540D01*
X95449937Y-48739685D01*
X95449942Y-48739693D01*
X95584019Y-48917240D01*
X95748436Y-49067125D01*
X95748438Y-49067127D01*
X95937594Y-49184247D01*
X95937595Y-49184247D01*
X95937598Y-49184249D01*
X96145059Y-49264620D01*
X96363756Y-49305502D01*
X96363758Y-49305502D01*
X96586240Y-49305502D01*
X96586242Y-49305502D01*
X96804939Y-49264620D01*
X97012400Y-49184249D01*
X97201561Y-49067126D01*
X97365980Y-48917238D01*
X97500057Y-48739691D01*
X97599228Y-48540530D01*
X97625733Y-48447371D01*
X97663012Y-48388280D01*
X97726321Y-48358722D01*
X97795561Y-48368084D01*
X97848747Y-48413393D01*
X97864265Y-48447373D01*
X97890768Y-48540523D01*
X97890774Y-48540538D01*
X97989937Y-48739683D01*
X97989942Y-48739691D01*
X98124019Y-48917238D01*
X98288436Y-49067123D01*
X98288438Y-49067125D01*
X98477594Y-49184245D01*
X98477595Y-49184245D01*
X98477598Y-49184247D01*
X98685059Y-49264618D01*
X98903756Y-49305500D01*
X98903758Y-49305500D01*
X99126240Y-49305500D01*
X99126242Y-49305500D01*
X99344939Y-49264618D01*
X99552400Y-49184247D01*
X99741561Y-49067124D01*
X99905980Y-48917236D01*
X100040057Y-48739689D01*
X100119500Y-48580147D01*
X100167002Y-48528909D01*
X100234665Y-48511488D01*
X100301006Y-48533413D01*
X100344961Y-48587725D01*
X100354500Y-48635418D01*
X100354500Y-48936517D01*
X100358998Y-48964916D01*
X100369354Y-49030304D01*
X100426950Y-49143342D01*
X100426952Y-49143344D01*
X100426954Y-49143347D01*
X100516652Y-49233045D01*
X100516654Y-49233046D01*
X100516658Y-49233050D01*
X100606938Y-49279050D01*
X100629698Y-49290647D01*
X100723475Y-49305499D01*
X100723481Y-49305500D01*
X102386518Y-49305499D01*
X102480304Y-49290646D01*
X102593342Y-49233050D01*
X102683050Y-49143342D01*
X102740646Y-49030304D01*
X102740646Y-49030302D01*
X102740647Y-49030301D01*
X102753802Y-48947238D01*
X102755500Y-48936519D01*
X102755499Y-47273482D01*
X102740646Y-47179696D01*
X102683050Y-47066658D01*
X102683046Y-47066654D01*
X102683045Y-47066652D01*
X102593347Y-46976954D01*
X102593344Y-46976952D01*
X102593342Y-46976950D01*
X102503051Y-46930944D01*
X102480301Y-46919352D01*
X102386524Y-46904500D01*
X100723482Y-46904500D01*
X100642519Y-46917323D01*
X100629696Y-46919354D01*
X100516658Y-46976950D01*
X100516657Y-46976951D01*
X100516652Y-46976954D01*
X100426954Y-47066652D01*
X100426951Y-47066657D01*
X100369352Y-47179698D01*
X100354500Y-47273475D01*
X100354500Y-47574580D01*
X100334815Y-47641619D01*
X100282011Y-47687374D01*
X100212853Y-47697318D01*
X100149297Y-47668293D01*
X100119500Y-47629852D01*
X100040060Y-47470316D01*
X100040055Y-47470308D01*
X99905978Y-47292761D01*
X99741561Y-47142876D01*
X99741559Y-47142874D01*
X99552403Y-47025754D01*
X99552397Y-47025752D01*
X99528386Y-47016450D01*
X99344939Y-46945382D01*
X99126242Y-46904500D01*
X98903756Y-46904500D01*
X98685059Y-46945382D01*
X98553863Y-46996207D01*
X98477600Y-47025752D01*
X98477594Y-47025754D01*
X98288438Y-47142874D01*
X98288436Y-47142876D01*
X98124019Y-47292761D01*
X97989942Y-47470308D01*
X97989937Y-47470316D01*
X97890774Y-47669461D01*
X97890769Y-47669474D01*
X97864264Y-47762629D01*
X97826984Y-47821722D01*
X97763674Y-47851279D01*
X97694435Y-47841917D01*
X97641249Y-47796606D01*
X97625735Y-47762637D01*
X97599228Y-47669474D01*
X97594436Y-47659850D01*
X97500060Y-47470318D01*
X97500055Y-47470310D01*
X97365978Y-47292763D01*
X97201561Y-47142878D01*
X97201559Y-47142876D01*
X97012403Y-47025756D01*
X97012397Y-47025754D01*
X96804939Y-46945384D01*
X96586242Y-46904502D01*
X96363756Y-46904502D01*
X96145059Y-46945384D01*
X96063568Y-46976954D01*
X95937600Y-47025754D01*
X95937594Y-47025756D01*
X95748438Y-47142876D01*
X95748436Y-47142878D01*
X95584019Y-47292763D01*
X95449942Y-47470310D01*
X95449937Y-47470318D01*
X95350774Y-47669463D01*
X95350769Y-47669476D01*
X95324004Y-47763546D01*
X95286725Y-47822639D01*
X95223415Y-47852196D01*
X95154175Y-47842834D01*
X95100989Y-47797524D01*
X95085471Y-47763544D01*
X95058756Y-47669648D01*
X94959627Y-47470572D01*
X94825604Y-47293097D01*
X94661257Y-47143276D01*
X94472175Y-47026200D01*
X94472173Y-47026199D01*
X94264795Y-46945862D01*
X94184996Y-46930944D01*
X94184996Y-47789312D01*
X94180602Y-47784918D01*
X94089390Y-47732257D01*
X93987657Y-47704998D01*
X93882335Y-47704998D01*
X93780602Y-47732257D01*
X93689390Y-47784918D01*
X93684996Y-47789312D01*
X93684996Y-46930944D01*
X93605196Y-46945862D01*
X93397818Y-47026199D01*
X93397816Y-47026200D01*
X93208734Y-47143276D01*
X93044387Y-47293097D01*
X92910364Y-47470572D01*
X92811235Y-47669648D01*
X92758501Y-47854998D01*
X91946814Y-47854998D01*
X91930409Y-47810532D01*
X91927405Y-47801289D01*
X91819762Y-47419618D01*
X91817490Y-47410154D01*
X91800107Y-47322764D01*
X91740126Y-47021221D01*
X91738604Y-47011611D01*
X91738053Y-47006954D01*
X91691992Y-46617797D01*
X91691231Y-46608123D01*
X91675596Y-46210178D01*
X91675500Y-46205310D01*
X91675500Y-44224095D01*
X91675477Y-44223642D01*
X91675479Y-44110403D01*
X91644704Y-43719337D01*
X91583341Y-43331892D01*
X91583340Y-43331888D01*
X91583339Y-43331881D01*
X91491769Y-42950454D01*
X91370553Y-42577385D01*
X91370551Y-42577379D01*
X91352439Y-42533654D01*
X91344971Y-42464186D01*
X91376246Y-42401707D01*
X91436335Y-42366055D01*
X91506160Y-42368549D01*
X91538121Y-42384626D01*
X91577361Y-42412102D01*
X91775670Y-42504575D01*
X91987023Y-42561207D01*
X92169926Y-42577208D01*
X92204998Y-42580277D01*
X92205000Y-42580277D01*
X92205002Y-42580277D01*
X92233254Y-42577805D01*
X92422977Y-42561207D01*
X92634330Y-42504575D01*
X92832639Y-42412102D01*
X93011877Y-42286598D01*
X93166598Y-42131877D01*
X93292102Y-41952639D01*
X93384575Y-41754330D01*
X93441207Y-41542977D01*
X93460277Y-41325000D01*
X93441207Y-41107023D01*
X93406548Y-40977675D01*
X93384577Y-40895677D01*
X93384576Y-40895676D01*
X93384575Y-40895670D01*
X93292102Y-40697362D01*
X93292100Y-40697359D01*
X93292099Y-40697357D01*
X93166599Y-40518124D01*
X93091950Y-40443475D01*
X93011877Y-40363402D01*
X92832639Y-40237898D01*
X92832640Y-40237898D01*
X92832638Y-40237897D01*
X92680824Y-40167105D01*
X92628385Y-40120932D01*
X92609233Y-40053739D01*
X92629449Y-39986858D01*
X92680825Y-39942341D01*
X92832384Y-39871668D01*
X92832386Y-39871667D01*
X93011554Y-39746212D01*
X93166212Y-39591554D01*
X93291666Y-39412387D01*
X93384101Y-39214159D01*
X93384105Y-39214150D01*
X93432108Y-39035000D01*
X92638012Y-39035000D01*
X92670925Y-38977993D01*
X92705000Y-38850826D01*
X92705000Y-38719174D01*
X92670925Y-38592007D01*
X92638012Y-38535000D01*
X93432108Y-38535000D01*
X93432108Y-38534999D01*
X93384105Y-38355849D01*
X93384101Y-38355840D01*
X93291666Y-38157612D01*
X93291664Y-38157608D01*
X93166216Y-37978450D01*
X93166211Y-37978444D01*
X93011554Y-37823787D01*
X92832387Y-37698333D01*
X92634159Y-37605898D01*
X92634150Y-37605894D01*
X92455000Y-37557891D01*
X92455000Y-38351988D01*
X92397993Y-38319075D01*
X92270826Y-38285000D01*
X92139174Y-38285000D01*
X92012007Y-38319075D01*
X91955000Y-38351988D01*
X91955000Y-37557892D01*
X91954999Y-37557891D01*
X91775849Y-37605894D01*
X91775840Y-37605898D01*
X91577612Y-37698333D01*
X91577608Y-37698335D01*
X91398450Y-37823783D01*
X91398444Y-37823788D01*
X91243788Y-37978444D01*
X91243783Y-37978450D01*
X91118335Y-38157608D01*
X91118333Y-38157612D01*
X91047658Y-38309175D01*
X91001485Y-38361614D01*
X90934292Y-38380766D01*
X90867411Y-38360550D01*
X90822894Y-38309175D01*
X90788691Y-38235828D01*
X90752102Y-38157362D01*
X90752100Y-38157359D01*
X90752099Y-38157357D01*
X90626599Y-37978124D01*
X90557300Y-37908825D01*
X90471877Y-37823402D01*
X90292639Y-37697898D01*
X90292636Y-37697897D01*
X90292634Y-37697895D01*
X90292635Y-37697895D01*
X90287854Y-37695666D01*
X90235417Y-37649492D01*
X90232877Y-37645288D01*
X90194988Y-37579666D01*
X90171291Y-37538623D01*
X90042450Y-37370723D01*
X90042447Y-37370720D01*
X90042444Y-37370716D01*
X90003944Y-37332219D01*
X90003942Y-37332216D01*
X89905200Y-37233481D01*
X89905164Y-37233449D01*
X89849476Y-37177757D01*
X89591102Y-36965709D01*
X89591095Y-36965703D01*
X89578837Y-36957512D01*
X89313195Y-36780010D01*
X89313174Y-36779997D01*
X89088686Y-36660002D01*
X89018396Y-36622430D01*
X89018385Y-36622425D01*
X89018380Y-36622423D01*
X88709594Y-36494515D01*
X88709592Y-36494514D01*
X88389741Y-36397483D01*
X88389732Y-36397481D01*
X88389731Y-36397481D01*
X88323809Y-36384367D01*
X88061912Y-36332269D01*
X88061906Y-36332268D01*
X87729255Y-36299500D01*
X87643639Y-36299500D01*
X87643637Y-36299500D01*
X87562136Y-36299500D01*
X87562121Y-36299499D01*
X87480627Y-36299499D01*
X87480626Y-36299499D01*
X87474655Y-36299499D01*
X87474353Y-36299514D01*
X87239139Y-36299514D01*
X86594174Y-36335733D01*
X86594170Y-36335733D01*
X86594160Y-36335734D01*
X85952299Y-36408053D01*
X85952246Y-36408060D01*
X85315405Y-36516261D01*
X84685629Y-36660002D01*
X84685628Y-36660002D01*
X84064875Y-36838838D01*
X83455141Y-37052192D01*
X83455135Y-37052194D01*
X82858339Y-37299394D01*
X82276345Y-37579666D01*
X82276342Y-37579667D01*
X81710951Y-37892148D01*
X81163996Y-38235822D01*
X80637144Y-38609643D01*
X80132100Y-39012401D01*
X79650440Y-39442838D01*
X79478060Y-39615217D01*
X79477968Y-39615306D01*
X72195097Y-46898181D01*
X72133774Y-46931666D01*
X72107416Y-46934500D01*
X71943757Y-46934500D01*
X71725060Y-46975382D01*
X71619052Y-47016450D01*
X71517601Y-47055752D01*
X71517595Y-47055754D01*
X71328439Y-47172874D01*
X71328437Y-47172876D01*
X71164020Y-47322761D01*
X71029943Y-47500308D01*
X71029938Y-47500316D01*
X70930775Y-47699461D01*
X70930769Y-47699476D01*
X70869885Y-47913462D01*
X70869884Y-47913464D01*
X70849357Y-48134999D01*
X66500500Y-48134999D01*
X66500500Y-41002561D01*
X66500606Y-40997437D01*
X66504815Y-40895668D01*
X66519072Y-40550961D01*
X66519915Y-40540792D01*
X66574874Y-40099881D01*
X66576554Y-40089809D01*
X66667734Y-39654951D01*
X66670241Y-39645055D01*
X66797022Y-39219205D01*
X66800336Y-39209553D01*
X66961840Y-38795654D01*
X66965954Y-38786275D01*
X67161088Y-38387120D01*
X67165949Y-38378136D01*
X67393389Y-37996445D01*
X67398982Y-37987885D01*
X67657153Y-37626294D01*
X67663422Y-37618240D01*
X67950581Y-37279191D01*
X67957500Y-37271675D01*
X68271675Y-36957500D01*
X68279191Y-36950581D01*
X68618240Y-36663422D01*
X68626294Y-36657153D01*
X68987885Y-36398982D01*
X68996445Y-36393389D01*
X69378136Y-36165949D01*
X69387120Y-36161088D01*
X69786280Y-35965951D01*
X69795654Y-35961840D01*
X70209553Y-35800336D01*
X70219205Y-35797022D01*
X70645055Y-35670241D01*
X70654951Y-35667734D01*
X71089809Y-35576554D01*
X71099881Y-35574874D01*
X71540792Y-35519915D01*
X71550961Y-35519072D01*
X71997437Y-35500605D01*
X72002561Y-35500500D01*
X72065892Y-35500500D01*
X100934108Y-35500500D01*
X100997439Y-35500500D01*
X101002562Y-35500605D01*
G37*
%TD.AperFunction*%
%TD*%
M02*
