%TF.GenerationSoftware,KiCad,Pcbnew,8.0.7*%
%TF.CreationDate,2025-01-25T19:28:51-08:00*%
%TF.ProjectId,Attiny2x4x8x Programmers,41747469-6e79-4327-9834-783878205072,rev?*%
%TF.SameCoordinates,Original*%
%TF.FileFunction,Copper,L1,Top*%
%TF.FilePolarity,Positive*%
%FSLAX46Y46*%
G04 Gerber Fmt 4.6, Leading zero omitted, Abs format (unit mm)*
G04 Created by KiCad (PCBNEW 8.0.7) date 2025-01-25 19:28:51*
%MOMM*%
%LPD*%
G01*
G04 APERTURE LIST*
%TA.AperFunction,ComponentPad*%
%ADD10R,1.600000X1.600000*%
%TD*%
%TA.AperFunction,ComponentPad*%
%ADD11C,1.600000*%
%TD*%
%TA.AperFunction,ComponentPad*%
%ADD12O,1.600000X1.600000*%
%TD*%
%TA.AperFunction,ComponentPad*%
%ADD13R,1.700000X1.700000*%
%TD*%
%TA.AperFunction,ComponentPad*%
%ADD14O,1.700000X1.700000*%
%TD*%
%TA.AperFunction,ComponentPad*%
%ADD15R,1.800000X1.800000*%
%TD*%
%TA.AperFunction,ComponentPad*%
%ADD16C,1.800000*%
%TD*%
%TA.AperFunction,ViaPad*%
%ADD17C,0.600000*%
%TD*%
%TA.AperFunction,Conductor*%
%ADD18C,0.750000*%
%TD*%
%TA.AperFunction,Conductor*%
%ADD19C,1.000000*%
%TD*%
%TA.AperFunction,Conductor*%
%ADD20C,1.500000*%
%TD*%
G04 APERTURE END LIST*
D10*
%TO.P,C1,1*%
%TO.N,/RST*%
X99100001Y-65000001D03*
D11*
%TO.P,C1,2*%
%TO.N,GND*%
X101600000Y-65000003D03*
%TD*%
D10*
%TO.P,A1,1,D1/TX*%
%TO.N,Net-(A1-D1{slash}TX)*%
X80000000Y-70000000D03*
D12*
%TO.P,A1,2,D0/RX*%
%TO.N,Net-(A1-D0{slash}RX)*%
X80000000Y-72540000D03*
%TO.P,A1,3,~{RESET}*%
%TO.N,/RST*%
X80000000Y-75080000D03*
%TO.P,A1,4,GND*%
%TO.N,GND*%
X80000000Y-77620000D03*
%TO.P,A1,5,D2*%
%TO.N,Net-(A1-D2)*%
X80000000Y-80160000D03*
%TO.P,A1,6,D3*%
%TO.N,Net-(A1-D3)*%
X80000000Y-82700000D03*
%TO.P,A1,7,D4*%
%TO.N,Net-(A1-D4)*%
X80000000Y-85240000D03*
%TO.P,A1,8,D5*%
%TO.N,Net-(A1-D5)*%
X80000000Y-87780000D03*
%TO.P,A1,9,D6*%
%TO.N,Net-(A1-D6)*%
X80000000Y-90320000D03*
%TO.P,A1,10,D7*%
%TO.N,Net-(A1-D7)*%
X80000000Y-92860000D03*
%TO.P,A1,11,D8*%
%TO.N,Net-(A1-D8)*%
X80000000Y-95400000D03*
%TO.P,A1,12,D9*%
%TO.N,Net-(A1-D9)*%
X80000000Y-97940000D03*
%TO.P,A1,13,D10*%
%TO.N,/SS*%
X80000000Y-100480000D03*
%TO.P,A1,14,D11*%
%TO.N,/MOSI*%
X80000000Y-103020000D03*
%TO.P,A1,15,D12*%
%TO.N,/MISO*%
X80000000Y-105560000D03*
%TO.P,A1,16,D13*%
%TO.N,/SCK*%
X95240000Y-105560000D03*
%TO.P,A1,17,3V3*%
%TO.N,Net-(A1-3V3)*%
X95240000Y-103020000D03*
%TO.P,A1,18,AREF*%
%TO.N,Net-(A1-AREF)*%
X95240000Y-100480000D03*
%TO.P,A1,19,A0*%
%TO.N,Net-(A1-A0)*%
X95240000Y-97940000D03*
%TO.P,A1,20,A1*%
%TO.N,Net-(A1-A1)*%
X95240000Y-95400000D03*
%TO.P,A1,21,A2*%
%TO.N,Net-(A1-A2)*%
X95240000Y-92860000D03*
%TO.P,A1,22,A3*%
%TO.N,Net-(A1-A3)*%
X95240000Y-90320000D03*
%TO.P,A1,23,A4*%
%TO.N,Net-(A1-A4)*%
X95240000Y-87780000D03*
%TO.P,A1,24,A5*%
%TO.N,Net-(A1-A5)*%
X95240000Y-85240000D03*
%TO.P,A1,25,A6*%
%TO.N,Net-(A1-A6)*%
X95240000Y-82700000D03*
%TO.P,A1,26,A7*%
%TO.N,Net-(A1-A7)*%
X95240000Y-80160000D03*
%TO.P,A1,27,+5V*%
%TO.N,+5V*%
X95240000Y-77620000D03*
%TO.P,A1,28,~{RESET}*%
%TO.N,/RST*%
X95240000Y-75080000D03*
%TO.P,A1,29,GND*%
%TO.N,GND*%
X95240000Y-72540000D03*
%TO.P,A1,30,VIN*%
%TO.N,Net-(A1-VIN)*%
X95240000Y-70000000D03*
%TD*%
D13*
%TO.P,J1,1,Pin_1*%
%TO.N,Net-(A1-D1{slash}TX)*%
X74800000Y-70000000D03*
D14*
%TO.P,J1,2,Pin_2*%
%TO.N,Net-(A1-D0{slash}RX)*%
X74800000Y-72540000D03*
%TO.P,J1,3,Pin_3*%
%TO.N,/RST*%
X74800000Y-75080000D03*
%TO.P,J1,4,Pin_4*%
%TO.N,GND*%
X74800000Y-77620000D03*
%TO.P,J1,5,Pin_5*%
%TO.N,Net-(A1-D2)*%
X74800000Y-80160000D03*
%TO.P,J1,6,Pin_6*%
%TO.N,Net-(A1-D3)*%
X74800000Y-82700000D03*
%TO.P,J1,7,Pin_7*%
%TO.N,Net-(A1-D4)*%
X74800000Y-85240000D03*
%TO.P,J1,8,Pin_8*%
%TO.N,Net-(A1-D5)*%
X74800000Y-87780000D03*
%TO.P,J1,9,Pin_9*%
%TO.N,Net-(A1-D6)*%
X74800000Y-90320000D03*
%TO.P,J1,10,Pin_10*%
%TO.N,Net-(A1-D7)*%
X74800000Y-92860000D03*
%TO.P,J1,11,Pin_11*%
%TO.N,Net-(A1-D8)*%
X74800000Y-95400000D03*
%TO.P,J1,12,Pin_12*%
%TO.N,Net-(A1-D9)*%
X74800000Y-97940000D03*
%TO.P,J1,13,Pin_13*%
%TO.N,/SS*%
X74800000Y-100480000D03*
%TO.P,J1,14,Pin_14*%
%TO.N,/MOSI*%
X74800000Y-103020000D03*
%TO.P,J1,15,Pin_15*%
%TO.N,/MISO*%
X74800000Y-105560000D03*
%TD*%
D10*
%TO.P,U1,1,VCC*%
%TO.N,+5V*%
X74700000Y-47800000D03*
D12*
%TO.P,U1,2,XTAL1/PB0*%
%TO.N,unconnected-(U1-XTAL1{slash}PB0-Pad2)*%
X74700000Y-50340000D03*
%TO.P,U1,3,XTAL2/PB1*%
%TO.N,unconnected-(U1-XTAL2{slash}PB1-Pad3)*%
X74700000Y-52880000D03*
%TO.P,U1,4,~{RESET}/PB3*%
%TO.N,/SS*%
X74700000Y-55420000D03*
%TO.P,U1,5,PB2*%
%TO.N,unconnected-(U1-PB2-Pad5)*%
X74700000Y-57960000D03*
%TO.P,U1,6,PA7*%
%TO.N,unconnected-(U1-PA7-Pad6)*%
X74700000Y-60500000D03*
%TO.P,U1,7,PA6*%
%TO.N,/MOSI*%
X74700000Y-63040000D03*
%TO.P,U1,8,PA5*%
%TO.N,/MISO*%
X82320000Y-63040000D03*
%TO.P,U1,9,PA4*%
%TO.N,/SCK*%
X82320000Y-60500000D03*
%TO.P,U1,10,PA3*%
%TO.N,unconnected-(U1-PA3-Pad10)*%
X82320000Y-57960000D03*
%TO.P,U1,11,PA2*%
%TO.N,unconnected-(U1-PA2-Pad11)*%
X82320000Y-55420000D03*
%TO.P,U1,12,PA1*%
%TO.N,unconnected-(U1-PA1-Pad12)*%
X82320000Y-52880000D03*
%TO.P,U1,13,AREF/PA0*%
%TO.N,unconnected-(U1-AREF{slash}PA0-Pad13)*%
X82320000Y-50340000D03*
%TO.P,U1,14,GND*%
%TO.N,GND*%
X82320000Y-47800000D03*
%TD*%
D13*
%TO.P,J2,1,Pin_1*%
%TO.N,Net-(A1-VIN)*%
X100600000Y-70000000D03*
D14*
%TO.P,J2,2,Pin_2*%
%TO.N,GND*%
X100600000Y-72540000D03*
%TO.P,J2,3,Pin_3*%
%TO.N,/RST*%
X100600000Y-75080000D03*
%TO.P,J2,4,Pin_4*%
%TO.N,+5V*%
X100600000Y-77620000D03*
%TO.P,J2,5,Pin_5*%
%TO.N,Net-(A1-A7)*%
X100600000Y-80160000D03*
%TO.P,J2,6,Pin_6*%
%TO.N,Net-(A1-A6)*%
X100600000Y-82700000D03*
%TO.P,J2,7,Pin_7*%
%TO.N,Net-(A1-A5)*%
X100600000Y-85240000D03*
%TO.P,J2,8,Pin_8*%
%TO.N,Net-(A1-A4)*%
X100600000Y-87780000D03*
%TO.P,J2,9,Pin_9*%
%TO.N,Net-(A1-A3)*%
X100600000Y-90320000D03*
%TO.P,J2,10,Pin_10*%
%TO.N,Net-(A1-A2)*%
X100600000Y-92860000D03*
%TO.P,J2,11,Pin_11*%
%TO.N,Net-(A1-A1)*%
X100600000Y-95400000D03*
%TO.P,J2,12,Pin_12*%
%TO.N,Net-(A1-A0)*%
X100600000Y-97940000D03*
%TO.P,J2,13,Pin_13*%
%TO.N,Net-(A1-AREF)*%
X100600000Y-100480000D03*
%TO.P,J2,14,Pin_14*%
%TO.N,Net-(A1-3V3)*%
X100600000Y-103020000D03*
%TO.P,J2,15,Pin_15*%
%TO.N,/SCK*%
X100600000Y-105560000D03*
%TD*%
D13*
%TO.P,J3,1,Pin_1*%
%TO.N,/MISO*%
X86420000Y-50000000D03*
D14*
%TO.P,J3,2,Pin_2*%
%TO.N,+5V*%
X86420000Y-47460000D03*
%TO.P,J3,3,Pin_3*%
%TO.N,/SCK*%
X88960000Y-50000000D03*
%TO.P,J3,4,Pin_4*%
%TO.N,/MOSI*%
X88960000Y-47460000D03*
%TO.P,J3,5,Pin_5*%
%TO.N,/SS*%
X91500000Y-50000000D03*
%TO.P,J3,6,Pin_6*%
%TO.N,GND*%
X91500000Y-47460000D03*
%TD*%
D10*
%TO.P,U2,1,~{RESET}/PB5*%
%TO.N,/SS*%
X87400000Y-54800000D03*
D12*
%TO.P,U2,2,XTAL1/PB3*%
%TO.N,unconnected-(U2-XTAL1{slash}PB3-Pad2)*%
X87400000Y-57340001D03*
%TO.P,U2,3,XTAL2/PB4*%
%TO.N,unconnected-(U2-XTAL2{slash}PB4-Pad3)*%
X87400002Y-59880001D03*
%TO.P,U2,4,GND*%
%TO.N,GND*%
X87399998Y-62420004D03*
%TO.P,U2,5,AREF/PB0*%
%TO.N,/MOSI*%
X95019995Y-62419999D03*
%TO.P,U2,6,PB1*%
%TO.N,/MISO*%
X95019998Y-59879994D03*
%TO.P,U2,7,PB2*%
%TO.N,/SCK*%
X95019997Y-57340000D03*
%TO.P,U2,8,VCC*%
%TO.N,+5V*%
X95020004Y-54800002D03*
%TD*%
D15*
%TO.P,D1,1,K*%
%TO.N,Net-(D1-K)*%
X97500000Y-49000000D03*
D16*
%TO.P,D1,2,A*%
%TO.N,/MISO*%
X97500000Y-51540000D03*
%TD*%
D11*
%TO.P,R1,1*%
%TO.N,Net-(D1-K)*%
X101999997Y-50919998D03*
D12*
%TO.P,R1,2*%
%TO.N,GND*%
X101999997Y-61079998D03*
%TD*%
D17*
%TO.N,/MOSI*%
X79000000Y-49500000D03*
%TD*%
D18*
%TO.N,/MISO*%
X95019998Y-59879994D02*
X96035534Y-58864458D01*
X86171573Y-50248427D02*
X86420000Y-50000000D01*
X96184048Y-60184048D02*
X96389997Y-60389997D01*
X87293792Y-73206207D02*
X95945405Y-64554594D01*
X95449996Y-59879994D02*
X95019998Y-59879994D01*
X82815534Y-63535534D02*
X82320000Y-63040000D01*
X82320000Y-62940000D02*
X82320000Y-62560000D01*
X97500000Y-55328924D02*
X97500000Y-51540000D01*
X95019998Y-59879994D02*
X91493784Y-63406207D01*
X80420000Y-105560000D02*
X80000000Y-105560000D01*
D19*
X80000000Y-105560000D02*
X74800000Y-105560000D01*
D18*
X82320000Y-63040000D02*
X83535534Y-61824466D01*
X85700000Y-77053963D02*
X85700000Y-98446036D01*
X85000000Y-58288932D02*
X85000000Y-53076854D01*
X96900000Y-61621253D02*
X96900000Y-62250000D01*
X81136984Y-105263015D02*
X84106207Y-102293792D01*
X87646028Y-65000000D02*
X86351068Y-65000000D01*
X96035534Y-58864458D02*
G75*
G03*
X97500017Y-55328924I-3535534J3535558D01*
G01*
X86351068Y-65000000D02*
G75*
G02*
X82815550Y-63535518I32J5000000D01*
G01*
X96389997Y-60389997D02*
G75*
G02*
X96900021Y-61621253I-1231297J-1231303D01*
G01*
X85000000Y-58288932D02*
G75*
G02*
X83535518Y-61824450I-5000000J32D01*
G01*
X91493784Y-63406207D02*
G75*
G02*
X87646028Y-65000005I-3847784J3847807D01*
G01*
X96900000Y-62250000D02*
G75*
G02*
X95945408Y-64554597I-3259200J0D01*
G01*
X96184048Y-60184048D02*
G75*
G03*
X95449996Y-59879997I-734048J-734052D01*
G01*
X85700000Y-98446036D02*
G75*
G02*
X84106200Y-102293785I-5441600J36D01*
G01*
X85000000Y-53076854D02*
G75*
G02*
X86171596Y-50248450I4000000J-46D01*
G01*
X87293792Y-73206207D02*
G75*
G03*
X85699959Y-77053963I3847708J-3847793D01*
G01*
X81136984Y-105263015D02*
G75*
G02*
X80420000Y-105559990I-716984J717015D01*
G01*
D19*
%TO.N,Net-(A1-D7)*%
X74800000Y-92860000D02*
X80000000Y-92860000D01*
%TO.N,Net-(A1-A7)*%
X100600000Y-80160000D02*
X95240000Y-80160000D01*
%TO.N,Net-(A1-D5)*%
X74800000Y-87780000D02*
X80000000Y-87780000D01*
%TO.N,Net-(A1-3V3)*%
X95240000Y-103020000D02*
X100600000Y-103020000D01*
%TO.N,Net-(A1-A3)*%
X100600000Y-90320000D02*
X95240000Y-90320000D01*
D20*
%TO.N,GND*%
X95240000Y-72540000D02*
X100600000Y-72540000D01*
D19*
%TO.N,Net-(A1-D1{slash}TX)*%
X80000000Y-70000000D02*
X74800000Y-70000000D01*
%TO.N,Net-(A1-A1)*%
X100600000Y-95400000D02*
X95240000Y-95400000D01*
%TO.N,Net-(A1-D6)*%
X80000000Y-90320000D02*
X74800000Y-90320000D01*
%TO.N,Net-(A1-VIN)*%
X95240000Y-70000000D02*
X100600000Y-70000000D01*
D18*
%TO.N,/SS*%
X91500000Y-51257359D02*
X91500000Y-50000000D01*
X90078680Y-53921320D02*
X90621321Y-53378679D01*
X87400000Y-54800000D02*
X87957359Y-54800000D01*
D19*
X74800000Y-100480000D02*
X80000000Y-100480000D01*
D18*
X87957359Y-54800000D02*
G75*
G03*
X90078700Y-53921340I41J3000000D01*
G01*
X91500000Y-51257359D02*
G75*
G02*
X90621341Y-53378699I-3000000J-41D01*
G01*
D19*
%TO.N,Net-(A1-D4)*%
X80000000Y-85240000D02*
X74800000Y-85240000D01*
%TO.N,Net-(A1-D8)*%
X80000000Y-95400000D02*
X74800000Y-95400000D01*
%TO.N,Net-(A1-D3)*%
X74800000Y-82700000D02*
X80000000Y-82700000D01*
%TO.N,Net-(A1-A4)*%
X95240000Y-87780000D02*
X100600000Y-87780000D01*
%TO.N,Net-(A1-A6)*%
X95240000Y-82700000D02*
X100600000Y-82700000D01*
%TO.N,/SCK*%
X100600000Y-105560000D02*
X95240000Y-105560000D01*
%TO.N,Net-(A1-A2)*%
X100600000Y-92860000D02*
X95240000Y-92860000D01*
%TO.N,Net-(A1-A5)*%
X100600000Y-85240000D02*
X95240000Y-85240000D01*
%TO.N,Net-(A1-D2)*%
X80000000Y-80160000D02*
X74800000Y-80160000D01*
%TO.N,Net-(A1-A0)*%
X95240000Y-97940000D02*
X100600000Y-97940000D01*
%TO.N,Net-(A1-AREF)*%
X100600000Y-100480000D02*
X95240000Y-100480000D01*
%TO.N,Net-(A1-D9)*%
X80000000Y-97940000D02*
X74800000Y-97940000D01*
%TO.N,Net-(A1-D0{slash}RX)*%
X74800000Y-72540000D02*
X80000000Y-72540000D01*
%TO.N,/RST*%
X80000000Y-75080000D02*
X74800000Y-75080000D01*
X95240000Y-75080000D02*
X100600000Y-75080000D01*
D18*
%TO.N,/MOSI*%
X90850000Y-67150000D02*
X89854548Y-68145451D01*
X90850000Y-67150000D02*
X90576244Y-67423756D01*
X76363961Y-61376039D02*
X74700000Y-63040000D01*
X92656853Y-65343146D02*
X90850000Y-67150000D01*
X79000000Y-49500000D02*
X79000000Y-55012078D01*
X80390000Y-103020000D02*
X79610000Y-103020000D01*
X82289999Y-101509999D02*
X81055771Y-102744228D01*
D19*
X79610000Y-103020000D02*
X74800000Y-103020000D01*
D18*
X94822002Y-63177996D02*
X92656853Y-65343146D01*
X74700000Y-63040000D02*
X76023961Y-64363961D01*
X89854548Y-68145451D02*
X85393792Y-72606207D01*
X95019995Y-62700002D02*
X95019995Y-62419999D01*
X83800000Y-76453963D02*
X83800000Y-97864537D01*
X90576244Y-67423756D02*
X89776244Y-67423756D01*
X82387922Y-67000000D02*
X88746036Y-67000000D01*
X83800000Y-97864537D02*
G75*
G02*
X82289989Y-101509989I-5155500J37D01*
G01*
X81055771Y-102744228D02*
G75*
G02*
X80390000Y-103020012I-665771J665728D01*
G01*
X88746036Y-67000000D02*
G75*
G03*
X92656841Y-65343134I-45336J5550900D01*
G01*
X79000000Y-55012078D02*
G75*
G02*
X76363972Y-61376050I-9000000J-22D01*
G01*
X85393792Y-72606207D02*
G75*
G03*
X83799959Y-76453963I3847708J-3847793D01*
G01*
X89854548Y-68145451D02*
G75*
G03*
X88746046Y-67000038I-865848J271151D01*
G01*
X76023961Y-64363961D02*
G75*
G03*
X82387922Y-66999984I6363939J6363961D01*
G01*
X95019995Y-62700002D02*
G75*
G02*
X94822004Y-63177998I-675995J2D01*
G01*
D19*
%TO.N,Net-(D1-K)*%
X101544465Y-50464466D02*
X101999997Y-50919998D01*
X97500000Y-49000000D02*
X98008931Y-49000000D01*
X101544465Y-50464466D02*
G75*
G03*
X98008931Y-48999978I-3535565J-3535534D01*
G01*
%TD*%
%TA.AperFunction,Conductor*%
%TO.N,+5V*%
G36*
X99706281Y-76100185D02*
G01*
X99726923Y-76116819D01*
X99728599Y-76118495D01*
X99899115Y-76237892D01*
X99914594Y-76248730D01*
X99958219Y-76303307D01*
X99965413Y-76372805D01*
X99933890Y-76435160D01*
X99914595Y-76451880D01*
X99728922Y-76581890D01*
X99728920Y-76581891D01*
X99561891Y-76748920D01*
X99561886Y-76748926D01*
X99426400Y-76942420D01*
X99426399Y-76942422D01*
X99326570Y-77156507D01*
X99326567Y-77156513D01*
X99269364Y-77369999D01*
X99269364Y-77370000D01*
X100166988Y-77370000D01*
X100134075Y-77427007D01*
X100100000Y-77554174D01*
X100100000Y-77685826D01*
X100134075Y-77812993D01*
X100166988Y-77870000D01*
X99269364Y-77870000D01*
X99326567Y-78083486D01*
X99326570Y-78083492D01*
X99426399Y-78297578D01*
X99561894Y-78491082D01*
X99728917Y-78658105D01*
X99914595Y-78788119D01*
X99958219Y-78842696D01*
X99965412Y-78912195D01*
X99933890Y-78974549D01*
X99914595Y-78991269D01*
X99728594Y-79121508D01*
X99726922Y-79123181D01*
X99726000Y-79123684D01*
X99724449Y-79124986D01*
X99724187Y-79124674D01*
X99665599Y-79156666D01*
X99639241Y-79159500D01*
X96117588Y-79159500D01*
X96050549Y-79139815D01*
X96046465Y-79137075D01*
X96028754Y-79124674D01*
X95892734Y-79029432D01*
X95834132Y-79002105D01*
X95781694Y-78955934D01*
X95762542Y-78888740D01*
X95782758Y-78821859D01*
X95834134Y-78777341D01*
X95892484Y-78750132D01*
X96078820Y-78619657D01*
X96239657Y-78458820D01*
X96370134Y-78272482D01*
X96466265Y-78066326D01*
X96466269Y-78066317D01*
X96518872Y-77870000D01*
X95673012Y-77870000D01*
X95705925Y-77812993D01*
X95740000Y-77685826D01*
X95740000Y-77554174D01*
X95705925Y-77427007D01*
X95673012Y-77370000D01*
X96518872Y-77370000D01*
X96518872Y-77369999D01*
X96466269Y-77173682D01*
X96466265Y-77173673D01*
X96370134Y-76967517D01*
X96239657Y-76781179D01*
X96078820Y-76620342D01*
X95892482Y-76489865D01*
X95834133Y-76462657D01*
X95781694Y-76416484D01*
X95762542Y-76349291D01*
X95782758Y-76282410D01*
X95834129Y-76237895D01*
X95892734Y-76210568D01*
X96046465Y-76102924D01*
X96112671Y-76080598D01*
X96117588Y-76080500D01*
X99639242Y-76080500D01*
X99706281Y-76100185D01*
G37*
%TD.AperFunction*%
%TA.AperFunction,Conductor*%
G36*
X99002702Y-44500617D02*
G01*
X99386771Y-44517386D01*
X99397506Y-44518326D01*
X99775971Y-44568152D01*
X99786597Y-44570025D01*
X100159284Y-44652648D01*
X100169710Y-44655442D01*
X100533765Y-44770227D01*
X100543911Y-44773920D01*
X100896578Y-44920000D01*
X100906369Y-44924566D01*
X101244942Y-45100816D01*
X101254310Y-45106224D01*
X101576244Y-45311318D01*
X101585105Y-45317523D01*
X101887930Y-45549889D01*
X101896217Y-45556843D01*
X102177635Y-45814715D01*
X102185284Y-45822364D01*
X102443156Y-46103782D01*
X102450110Y-46112069D01*
X102682476Y-46414894D01*
X102688681Y-46423755D01*
X102893775Y-46745689D01*
X102899183Y-46755057D01*
X103075430Y-47093623D01*
X103080002Y-47103427D01*
X103226075Y-47456078D01*
X103229775Y-47466244D01*
X103344554Y-47830278D01*
X103347354Y-47840727D01*
X103429971Y-48213389D01*
X103431849Y-48224042D01*
X103481671Y-48602473D01*
X103482614Y-48613249D01*
X103499382Y-48997291D01*
X103499500Y-49002700D01*
X103499500Y-50549597D01*
X103479815Y-50616636D01*
X103427011Y-50662391D01*
X103357853Y-50672335D01*
X103294297Y-50643310D01*
X103256523Y-50584532D01*
X103255725Y-50581690D01*
X103226738Y-50473509D01*
X103226735Y-50473500D01*
X103130565Y-50267264D01*
X103000044Y-50080859D01*
X103000042Y-50080856D01*
X102839138Y-49919952D01*
X102652731Y-49789430D01*
X102652729Y-49789429D01*
X102446494Y-49693259D01*
X102446485Y-49693256D01*
X102226694Y-49634364D01*
X102226684Y-49634362D01*
X102163287Y-49628816D01*
X102098219Y-49603363D01*
X102092892Y-49599001D01*
X101776450Y-49324800D01*
X101433327Y-49067938D01*
X101267716Y-48961505D01*
X101072763Y-48836215D01*
X101072750Y-48836207D01*
X100696575Y-48630798D01*
X100696570Y-48630796D01*
X100696567Y-48630794D01*
X100518916Y-48549662D01*
X100306698Y-48452743D01*
X99905095Y-48302950D01*
X99493835Y-48182190D01*
X99075028Y-48091083D01*
X98995441Y-48079639D01*
X98931886Y-48050613D01*
X98898753Y-47999057D01*
X98896802Y-47999785D01*
X98843797Y-47857671D01*
X98843793Y-47857664D01*
X98757547Y-47742455D01*
X98757544Y-47742452D01*
X98642335Y-47656206D01*
X98642328Y-47656202D01*
X98507482Y-47605908D01*
X98507483Y-47605908D01*
X98447883Y-47599501D01*
X98447881Y-47599500D01*
X98447873Y-47599500D01*
X98447864Y-47599500D01*
X96552129Y-47599500D01*
X96552123Y-47599501D01*
X96492516Y-47605908D01*
X96357671Y-47656202D01*
X96357664Y-47656206D01*
X96242455Y-47742452D01*
X96242452Y-47742455D01*
X96156206Y-47857664D01*
X96156202Y-47857671D01*
X96105908Y-47992517D01*
X96099501Y-48052116D01*
X96099500Y-48052135D01*
X96099500Y-49947870D01*
X96099501Y-49947876D01*
X96105908Y-50007483D01*
X96156202Y-50142328D01*
X96156206Y-50142335D01*
X96242452Y-50257544D01*
X96242455Y-50257547D01*
X96357664Y-50343793D01*
X96357673Y-50343798D01*
X96437904Y-50373722D01*
X96493838Y-50415593D01*
X96518256Y-50481057D01*
X96503405Y-50549330D01*
X96485802Y-50573886D01*
X96391019Y-50676849D01*
X96264075Y-50871151D01*
X96170842Y-51083699D01*
X96113866Y-51308691D01*
X96113864Y-51308702D01*
X96094700Y-51539993D01*
X96094700Y-51540006D01*
X96113864Y-51771297D01*
X96113866Y-51771308D01*
X96170842Y-51996300D01*
X96264075Y-52208848D01*
X96391016Y-52403147D01*
X96391019Y-52403151D01*
X96391021Y-52403153D01*
X96548216Y-52573913D01*
X96548219Y-52573915D01*
X96548219Y-52573916D01*
X96565255Y-52587175D01*
X96576660Y-52596051D01*
X96617474Y-52652760D01*
X96624500Y-52693906D01*
X96624500Y-55326212D01*
X96624382Y-55331622D01*
X96609039Y-55682986D01*
X96608096Y-55693762D01*
X96562543Y-56039757D01*
X96560665Y-56050410D01*
X96485127Y-56391131D01*
X96482327Y-56401580D01*
X96390639Y-56692374D01*
X96351706Y-56750391D01*
X96287587Y-56778150D01*
X96218639Y-56766836D01*
X96166753Y-56720043D01*
X96159996Y-56707491D01*
X96152947Y-56692374D01*
X96150565Y-56687266D01*
X96020044Y-56500861D01*
X96020042Y-56500858D01*
X95859138Y-56339954D01*
X95672731Y-56209432D01*
X95672729Y-56209431D01*
X95649607Y-56198649D01*
X95614134Y-56182107D01*
X95561697Y-56135937D01*
X95542545Y-56068743D01*
X95562761Y-56001862D01*
X95614137Y-55957345D01*
X95672483Y-55930137D01*
X95672485Y-55930136D01*
X95858824Y-55799659D01*
X96019661Y-55638822D01*
X96150138Y-55452484D01*
X96246269Y-55246328D01*
X96246273Y-55246319D01*
X96298876Y-55050002D01*
X95335690Y-55050002D01*
X95340084Y-55045608D01*
X95392745Y-54954396D01*
X95420004Y-54852663D01*
X95420004Y-54747341D01*
X95392745Y-54645608D01*
X95340084Y-54554396D01*
X95335690Y-54550002D01*
X96298876Y-54550002D01*
X96298876Y-54550001D01*
X96246273Y-54353684D01*
X96246269Y-54353675D01*
X96150138Y-54147519D01*
X96019661Y-53961181D01*
X95858824Y-53800344D01*
X95672486Y-53669867D01*
X95466332Y-53573736D01*
X95270004Y-53521129D01*
X95270004Y-54484316D01*
X95265610Y-54479922D01*
X95174398Y-54427261D01*
X95072665Y-54400002D01*
X94967343Y-54400002D01*
X94865610Y-54427261D01*
X94774398Y-54479922D01*
X94770004Y-54484316D01*
X94770004Y-53521129D01*
X94573675Y-53573736D01*
X94367521Y-53669867D01*
X94181183Y-53800344D01*
X94020346Y-53961181D01*
X93889869Y-54147519D01*
X93793738Y-54353675D01*
X93793734Y-54353684D01*
X93741131Y-54550001D01*
X93741132Y-54550002D01*
X94704318Y-54550002D01*
X94699924Y-54554396D01*
X94647263Y-54645608D01*
X94620004Y-54747341D01*
X94620004Y-54852663D01*
X94647263Y-54954396D01*
X94699924Y-55045608D01*
X94704318Y-55050002D01*
X93741132Y-55050002D01*
X93793734Y-55246319D01*
X93793738Y-55246328D01*
X93889869Y-55452484D01*
X94020346Y-55638822D01*
X94181183Y-55799659D01*
X94367519Y-55930134D01*
X94425863Y-55957340D01*
X94478303Y-56003513D01*
X94497455Y-56070706D01*
X94477240Y-56137587D01*
X94425865Y-56182104D01*
X94367269Y-56209428D01*
X94367262Y-56209432D01*
X94180855Y-56339954D01*
X94019951Y-56500858D01*
X93889429Y-56687265D01*
X93889428Y-56687267D01*
X93793258Y-56893502D01*
X93793255Y-56893511D01*
X93734363Y-57113302D01*
X93734361Y-57113313D01*
X93714529Y-57339998D01*
X93714529Y-57340001D01*
X93734361Y-57566686D01*
X93734363Y-57566697D01*
X93793255Y-57786488D01*
X93793258Y-57786497D01*
X93889428Y-57992732D01*
X93889429Y-57992734D01*
X94019951Y-58179141D01*
X94180855Y-58340045D01*
X94180858Y-58340047D01*
X94367263Y-58470568D01*
X94425267Y-58497615D01*
X94477705Y-58543787D01*
X94496857Y-58610981D01*
X94476641Y-58677862D01*
X94425266Y-58722379D01*
X94367265Y-58749425D01*
X94367263Y-58749426D01*
X94180856Y-58879948D01*
X94019952Y-59040852D01*
X93889430Y-59227259D01*
X93889429Y-59227261D01*
X93793259Y-59433496D01*
X93793256Y-59433505D01*
X93734364Y-59653296D01*
X93734362Y-59653307D01*
X93718738Y-59831898D01*
X93714530Y-59879994D01*
X93714531Y-59880001D01*
X93714907Y-59884305D01*
X93701137Y-59952804D01*
X93679059Y-59982787D01*
X90876648Y-62785198D01*
X90872740Y-62788940D01*
X90585015Y-63052590D01*
X90576728Y-63059543D01*
X90269303Y-63295438D01*
X90260442Y-63301643D01*
X89933611Y-63509857D01*
X89924243Y-63515265D01*
X89580527Y-63694192D01*
X89570723Y-63698764D01*
X89212709Y-63847059D01*
X89202544Y-63850759D01*
X88832970Y-63967286D01*
X88822521Y-63970086D01*
X88444191Y-64053961D01*
X88433538Y-64055839D01*
X88049349Y-64106420D01*
X88038572Y-64107363D01*
X87648817Y-64124382D01*
X87643408Y-64124500D01*
X86353782Y-64124500D01*
X86348372Y-64124382D01*
X85997007Y-64109039D01*
X85986231Y-64108096D01*
X85640236Y-64062542D01*
X85629583Y-64060664D01*
X85288862Y-63985126D01*
X85278413Y-63982326D01*
X84945577Y-63877381D01*
X84935412Y-63873681D01*
X84612990Y-63740127D01*
X84603186Y-63735555D01*
X84293636Y-63574412D01*
X84284267Y-63569003D01*
X84255336Y-63550572D01*
X84154746Y-63486488D01*
X83989929Y-63381487D01*
X83981068Y-63375282D01*
X83704201Y-63162832D01*
X83695924Y-63155888D01*
X83665693Y-63128186D01*
X83629567Y-63068382D01*
X83626579Y-63045340D01*
X83625940Y-63045397D01*
X83625468Y-63040000D01*
X83625091Y-63035695D01*
X83638856Y-62967196D01*
X83660935Y-62937208D01*
X84215579Y-62382565D01*
X84215579Y-62382564D01*
X84219905Y-62378239D01*
X84220207Y-62377903D01*
X84302969Y-62295144D01*
X84577808Y-61977967D01*
X84829318Y-61641991D01*
X85056220Y-61288929D01*
X85257356Y-60920580D01*
X85431703Y-60538820D01*
X85578371Y-60145595D01*
X85696612Y-59742909D01*
X85785826Y-59332813D01*
X85845556Y-58917399D01*
X85875499Y-58498781D01*
X85875500Y-58288938D01*
X85875500Y-58202708D01*
X85875500Y-57617110D01*
X85895185Y-57550071D01*
X85947989Y-57504316D01*
X86017147Y-57494372D01*
X86080703Y-57523397D01*
X86118477Y-57582175D01*
X86119275Y-57585017D01*
X86173258Y-57786489D01*
X86173261Y-57786498D01*
X86269431Y-57992733D01*
X86269432Y-57992735D01*
X86399954Y-58179142D01*
X86560858Y-58340046D01*
X86560861Y-58340048D01*
X86747266Y-58470569D01*
X86805275Y-58497619D01*
X86857715Y-58543791D01*
X86876867Y-58610984D01*
X86856652Y-58677866D01*
X86805277Y-58722383D01*
X86747266Y-58749434D01*
X86560860Y-58879955D01*
X86399956Y-59040859D01*
X86269434Y-59227266D01*
X86269433Y-59227268D01*
X86173263Y-59433503D01*
X86173260Y-59433512D01*
X86114368Y-59653303D01*
X86114366Y-59653314D01*
X86094534Y-59879999D01*
X86094534Y-59880002D01*
X86114366Y-60106687D01*
X86114368Y-60106698D01*
X86173260Y-60326489D01*
X86173263Y-60326498D01*
X86269433Y-60532733D01*
X86269434Y-60532735D01*
X86399956Y-60719142D01*
X86560860Y-60880046D01*
X86560863Y-60880048D01*
X86747268Y-61010569D01*
X86805277Y-61037619D01*
X86857717Y-61083791D01*
X86876869Y-61150984D01*
X86856654Y-61217866D01*
X86805279Y-61262383D01*
X86747262Y-61289437D01*
X86560856Y-61419958D01*
X86399952Y-61580862D01*
X86269430Y-61767269D01*
X86269429Y-61767271D01*
X86173259Y-61973506D01*
X86173256Y-61973515D01*
X86114364Y-62193306D01*
X86114362Y-62193317D01*
X86094530Y-62420002D01*
X86094530Y-62420005D01*
X86114362Y-62646690D01*
X86114364Y-62646701D01*
X86173256Y-62866492D01*
X86173259Y-62866501D01*
X86269429Y-63072736D01*
X86269430Y-63072738D01*
X86399952Y-63259145D01*
X86560856Y-63420049D01*
X86560859Y-63420051D01*
X86747264Y-63550572D01*
X86953502Y-63646743D01*
X87173306Y-63705639D01*
X87335228Y-63719805D01*
X87399996Y-63725472D01*
X87399998Y-63725472D01*
X87400000Y-63725472D01*
X87456671Y-63720513D01*
X87626690Y-63705639D01*
X87846494Y-63646743D01*
X88052732Y-63550572D01*
X88239137Y-63420051D01*
X88400045Y-63259143D01*
X88530566Y-63072738D01*
X88626737Y-62866500D01*
X88685633Y-62646696D01*
X88705466Y-62420004D01*
X88685633Y-62193312D01*
X88632525Y-61995110D01*
X88626739Y-61973515D01*
X88626736Y-61973506D01*
X88601383Y-61919137D01*
X88530566Y-61767270D01*
X88400045Y-61580865D01*
X88400043Y-61580862D01*
X88239139Y-61419958D01*
X88052732Y-61289436D01*
X88052730Y-61289435D01*
X87994721Y-61262385D01*
X87942282Y-61216212D01*
X87923130Y-61149019D01*
X87943346Y-61082138D01*
X87994718Y-61037623D01*
X88052736Y-61010569D01*
X88239141Y-60880048D01*
X88400049Y-60719140D01*
X88530570Y-60532735D01*
X88626741Y-60326497D01*
X88685637Y-60106693D01*
X88702636Y-59912385D01*
X88705470Y-59880002D01*
X88705470Y-59879999D01*
X88697978Y-59794363D01*
X88685637Y-59653309D01*
X88626741Y-59433505D01*
X88530570Y-59227267D01*
X88400049Y-59040862D01*
X88400047Y-59040859D01*
X88239143Y-58879955D01*
X88052736Y-58749433D01*
X88052734Y-58749432D01*
X87994725Y-58722382D01*
X87942286Y-58676209D01*
X87923134Y-58609016D01*
X87943350Y-58542135D01*
X87994721Y-58497620D01*
X88052734Y-58470569D01*
X88239139Y-58340048D01*
X88400047Y-58179140D01*
X88530568Y-57992735D01*
X88626739Y-57786497D01*
X88685635Y-57566693D01*
X88705468Y-57340001D01*
X88685635Y-57113309D01*
X88626739Y-56893505D01*
X88530568Y-56687267D01*
X88400047Y-56500862D01*
X88400046Y-56500861D01*
X88400045Y-56500859D01*
X88239139Y-56339953D01*
X88214535Y-56322725D01*
X88170910Y-56268148D01*
X88163718Y-56198649D01*
X88195241Y-56136295D01*
X88255471Y-56100882D01*
X88272401Y-56097862D01*
X88307483Y-56094091D01*
X88442331Y-56043796D01*
X88557546Y-55957546D01*
X88643796Y-55842331D01*
X88694091Y-55707483D01*
X88695319Y-55696060D01*
X88722056Y-55631511D01*
X88779448Y-55591663D01*
X88794337Y-55587895D01*
X88794318Y-55587807D01*
X88796949Y-55587223D01*
X88796957Y-55587222D01*
X88796964Y-55587220D01*
X88796969Y-55587219D01*
X89123832Y-55499641D01*
X89123837Y-55499639D01*
X89123842Y-55499638D01*
X89123847Y-55499636D01*
X89123860Y-55499632D01*
X89342652Y-55420000D01*
X89441850Y-55383896D01*
X89748560Y-55240879D01*
X90041638Y-55071675D01*
X90318854Y-54877571D01*
X90578097Y-54660044D01*
X90631397Y-54606744D01*
X90631409Y-54606734D01*
X90636776Y-54601366D01*
X90636779Y-54601365D01*
X90718644Y-54519500D01*
X90758720Y-54479425D01*
X90758720Y-54479424D01*
X90765778Y-54472367D01*
X90765789Y-54472353D01*
X91172354Y-54065788D01*
X91172368Y-54065777D01*
X91204062Y-54034084D01*
X91204147Y-54034037D01*
X91240418Y-53997764D01*
X91240419Y-53997765D01*
X91360067Y-53878115D01*
X91577595Y-53618870D01*
X91771700Y-53341653D01*
X91940906Y-53048572D01*
X92083924Y-52741860D01*
X92199665Y-52423850D01*
X92205211Y-52403153D01*
X92210989Y-52381587D01*
X92287250Y-52096963D01*
X92346012Y-51763686D01*
X92346012Y-51763681D01*
X92346014Y-51763671D01*
X92375501Y-51426562D01*
X92375502Y-51426556D01*
X92375500Y-51257347D01*
X92375500Y-51237479D01*
X92375500Y-51085758D01*
X92395185Y-51018719D01*
X92411819Y-50998077D01*
X92473679Y-50936217D01*
X92538495Y-50871401D01*
X92674035Y-50677830D01*
X92773903Y-50463663D01*
X92835063Y-50235408D01*
X92855659Y-50000000D01*
X92835063Y-49764592D01*
X92773903Y-49536337D01*
X92674035Y-49322171D01*
X92668425Y-49314158D01*
X92538494Y-49128597D01*
X92371402Y-48961506D01*
X92371396Y-48961501D01*
X92185842Y-48831575D01*
X92142217Y-48776998D01*
X92135023Y-48707500D01*
X92166546Y-48645145D01*
X92185842Y-48628425D01*
X92222905Y-48602473D01*
X92371401Y-48498495D01*
X92538495Y-48331401D01*
X92674035Y-48137830D01*
X92773903Y-47923663D01*
X92835063Y-47695408D01*
X92855659Y-47460000D01*
X92835063Y-47224592D01*
X92773903Y-46996337D01*
X92674035Y-46782171D01*
X92668731Y-46774595D01*
X92538494Y-46588597D01*
X92371402Y-46421506D01*
X92371395Y-46421501D01*
X92361959Y-46414894D01*
X92332521Y-46394281D01*
X92177834Y-46285967D01*
X92177830Y-46285965D01*
X92177828Y-46285964D01*
X91963663Y-46186097D01*
X91963659Y-46186096D01*
X91963655Y-46186094D01*
X91735413Y-46124938D01*
X91735403Y-46124936D01*
X91500001Y-46104341D01*
X91499999Y-46104341D01*
X91264596Y-46124936D01*
X91264586Y-46124938D01*
X91036344Y-46186094D01*
X91036335Y-46186098D01*
X90822171Y-46285964D01*
X90822169Y-46285965D01*
X90628597Y-46421505D01*
X90461505Y-46588597D01*
X90331575Y-46774158D01*
X90276998Y-46817783D01*
X90207500Y-46824977D01*
X90145145Y-46793454D01*
X90128425Y-46774158D01*
X89998494Y-46588597D01*
X89831402Y-46421506D01*
X89831395Y-46421501D01*
X89821959Y-46414894D01*
X89792521Y-46394281D01*
X89637834Y-46285967D01*
X89637830Y-46285965D01*
X89637828Y-46285964D01*
X89423663Y-46186097D01*
X89423659Y-46186096D01*
X89423655Y-46186094D01*
X89195413Y-46124938D01*
X89195403Y-46124936D01*
X88960001Y-46104341D01*
X88959999Y-46104341D01*
X88724596Y-46124936D01*
X88724586Y-46124938D01*
X88496344Y-46186094D01*
X88496335Y-46186098D01*
X88282171Y-46285964D01*
X88282169Y-46285965D01*
X88088597Y-46421505D01*
X87921508Y-46588594D01*
X87791269Y-46774595D01*
X87736692Y-46818219D01*
X87667193Y-46825412D01*
X87604839Y-46793890D01*
X87588119Y-46774594D01*
X87458113Y-46588926D01*
X87458108Y-46588920D01*
X87291082Y-46421894D01*
X87097578Y-46286399D01*
X86883492Y-46186570D01*
X86883486Y-46186567D01*
X86670000Y-46129364D01*
X86670000Y-47026988D01*
X86612993Y-46994075D01*
X86485826Y-46960000D01*
X86354174Y-46960000D01*
X86227007Y-46994075D01*
X86170000Y-47026988D01*
X86170000Y-46129364D01*
X86169999Y-46129364D01*
X85956513Y-46186567D01*
X85956507Y-46186570D01*
X85742422Y-46286399D01*
X85742420Y-46286400D01*
X85548926Y-46421886D01*
X85548920Y-46421891D01*
X85381891Y-46588920D01*
X85381886Y-46588926D01*
X85246400Y-46782420D01*
X85246399Y-46782422D01*
X85146570Y-46996507D01*
X85146567Y-46996513D01*
X85089364Y-47209999D01*
X85089364Y-47210000D01*
X85986988Y-47210000D01*
X85954075Y-47267007D01*
X85920000Y-47394174D01*
X85920000Y-47525826D01*
X85954075Y-47652993D01*
X85986988Y-47710000D01*
X85089364Y-47710000D01*
X85146567Y-47923486D01*
X85146570Y-47923492D01*
X85246399Y-48137578D01*
X85381894Y-48331082D01*
X85503946Y-48453134D01*
X85537431Y-48514457D01*
X85532447Y-48584149D01*
X85490575Y-48640082D01*
X85459598Y-48656997D01*
X85327671Y-48706202D01*
X85327664Y-48706206D01*
X85212455Y-48792452D01*
X85212452Y-48792455D01*
X85126206Y-48907664D01*
X85126202Y-48907671D01*
X85075908Y-49042517D01*
X85069501Y-49102116D01*
X85069500Y-49102135D01*
X85069500Y-50151780D01*
X85049815Y-50218819D01*
X85045818Y-50224666D01*
X84943063Y-50366095D01*
X84742886Y-50692748D01*
X84742876Y-50692766D01*
X84568954Y-51034099D01*
X84422335Y-51388060D01*
X84303942Y-51752422D01*
X84214501Y-52124954D01*
X84154565Y-52503345D01*
X84154564Y-52503357D01*
X84124502Y-52885281D01*
X84124501Y-52885292D01*
X84124500Y-52990621D01*
X84124500Y-53076844D01*
X84124499Y-53169185D01*
X84124500Y-53169206D01*
X84124500Y-58286218D01*
X84124382Y-58291628D01*
X84109039Y-58642992D01*
X84108096Y-58653768D01*
X84062542Y-58999763D01*
X84060664Y-59010416D01*
X83985126Y-59351137D01*
X83982326Y-59361586D01*
X83877381Y-59694422D01*
X83873681Y-59704587D01*
X83751186Y-60000311D01*
X83707344Y-60054715D01*
X83641050Y-60076779D01*
X83573351Y-60059499D01*
X83525741Y-60008362D01*
X83524262Y-60005304D01*
X83450568Y-59847266D01*
X83320047Y-59660861D01*
X83320045Y-59660858D01*
X83159141Y-59499954D01*
X82972734Y-59369432D01*
X82972728Y-59369429D01*
X82944834Y-59356422D01*
X82914724Y-59342381D01*
X82862285Y-59296210D01*
X82843133Y-59229017D01*
X82863348Y-59162135D01*
X82914725Y-59117618D01*
X82972734Y-59090568D01*
X83159139Y-58960047D01*
X83320047Y-58799139D01*
X83450568Y-58612734D01*
X83546739Y-58406496D01*
X83605635Y-58186692D01*
X83625468Y-57960000D01*
X83605635Y-57733308D01*
X83546739Y-57513504D01*
X83450568Y-57307266D01*
X83320047Y-57120861D01*
X83320045Y-57120858D01*
X83159141Y-56959954D01*
X82972734Y-56829432D01*
X82972728Y-56829429D01*
X82914725Y-56802382D01*
X82862285Y-56756210D01*
X82843133Y-56689017D01*
X82863348Y-56622135D01*
X82914725Y-56577618D01*
X82972734Y-56550568D01*
X83159139Y-56420047D01*
X83320047Y-56259139D01*
X83450568Y-56072734D01*
X83546739Y-55866496D01*
X83605635Y-55646692D01*
X83625468Y-55420000D01*
X83622309Y-55383898D01*
X83617500Y-55328927D01*
X83605635Y-55193308D01*
X83557074Y-55012076D01*
X83546741Y-54973511D01*
X83546738Y-54973502D01*
X83502004Y-54877571D01*
X83450568Y-54767266D01*
X83320047Y-54580861D01*
X83320045Y-54580858D01*
X83159141Y-54419954D01*
X82972734Y-54289432D01*
X82972728Y-54289429D01*
X82914725Y-54262382D01*
X82862285Y-54216210D01*
X82843133Y-54149017D01*
X82863348Y-54082135D01*
X82914725Y-54037618D01*
X82972734Y-54010568D01*
X83159139Y-53880047D01*
X83320047Y-53719139D01*
X83450568Y-53532734D01*
X83546739Y-53326496D01*
X83605635Y-53106692D01*
X83625468Y-52880000D01*
X83605635Y-52653308D01*
X83546739Y-52433504D01*
X83450568Y-52227266D01*
X83352839Y-52087693D01*
X83320045Y-52040858D01*
X83159141Y-51879954D01*
X82972734Y-51749432D01*
X82972728Y-51749429D01*
X82945038Y-51736517D01*
X82914724Y-51722381D01*
X82862285Y-51676210D01*
X82843133Y-51609017D01*
X82863348Y-51542135D01*
X82914725Y-51497618D01*
X82972734Y-51470568D01*
X83159139Y-51340047D01*
X83320047Y-51179139D01*
X83450568Y-50992734D01*
X83546739Y-50786496D01*
X83605635Y-50566692D01*
X83625468Y-50340000D01*
X83605635Y-50113308D01*
X83546739Y-49893504D01*
X83450568Y-49687266D01*
X83320047Y-49500861D01*
X83320045Y-49500858D01*
X83159141Y-49339954D01*
X82972734Y-49209432D01*
X82972728Y-49209429D01*
X82914725Y-49182382D01*
X82862285Y-49136210D01*
X82843133Y-49069017D01*
X82863348Y-49002135D01*
X82914725Y-48957618D01*
X82915643Y-48957190D01*
X82972734Y-48930568D01*
X83159139Y-48800047D01*
X83320047Y-48639139D01*
X83450568Y-48452734D01*
X83546739Y-48246496D01*
X83605635Y-48026692D01*
X83625468Y-47800000D01*
X83622581Y-47767007D01*
X83616317Y-47695403D01*
X83605635Y-47573308D01*
X83546739Y-47353504D01*
X83450568Y-47147266D01*
X83344886Y-46996335D01*
X83320045Y-46960858D01*
X83159141Y-46799954D01*
X82972734Y-46669432D01*
X82972732Y-46669431D01*
X82766497Y-46573261D01*
X82766488Y-46573258D01*
X82546697Y-46514366D01*
X82546693Y-46514365D01*
X82546692Y-46514365D01*
X82546691Y-46514364D01*
X82546686Y-46514364D01*
X82320002Y-46494532D01*
X82319998Y-46494532D01*
X82093313Y-46514364D01*
X82093302Y-46514366D01*
X81873511Y-46573258D01*
X81873502Y-46573261D01*
X81667267Y-46669431D01*
X81667265Y-46669432D01*
X81480858Y-46799954D01*
X81319954Y-46960858D01*
X81189432Y-47147265D01*
X81189431Y-47147267D01*
X81093261Y-47353502D01*
X81093258Y-47353511D01*
X81034366Y-47573302D01*
X81034364Y-47573313D01*
X81014532Y-47799998D01*
X81014532Y-47800001D01*
X81034364Y-48026686D01*
X81034366Y-48026697D01*
X81093258Y-48246488D01*
X81093261Y-48246497D01*
X81189431Y-48452732D01*
X81189432Y-48452734D01*
X81319954Y-48639141D01*
X81480858Y-48800045D01*
X81480861Y-48800047D01*
X81667266Y-48930568D01*
X81724357Y-48957190D01*
X81725275Y-48957618D01*
X81777714Y-49003791D01*
X81796866Y-49070984D01*
X81776650Y-49137865D01*
X81725275Y-49182382D01*
X81667267Y-49209431D01*
X81667265Y-49209432D01*
X81480858Y-49339954D01*
X81319954Y-49500858D01*
X81189432Y-49687265D01*
X81189431Y-49687267D01*
X81093261Y-49893502D01*
X81093258Y-49893511D01*
X81034366Y-50113302D01*
X81034364Y-50113313D01*
X81014532Y-50339998D01*
X81014532Y-50340001D01*
X81034364Y-50566686D01*
X81034366Y-50566697D01*
X81093258Y-50786488D01*
X81093261Y-50786497D01*
X81189431Y-50992732D01*
X81189432Y-50992734D01*
X81319954Y-51179141D01*
X81480858Y-51340045D01*
X81480861Y-51340047D01*
X81667266Y-51470568D01*
X81725275Y-51497618D01*
X81777714Y-51543791D01*
X81796866Y-51610984D01*
X81776650Y-51677865D01*
X81725275Y-51722382D01*
X81667267Y-51749431D01*
X81667265Y-51749432D01*
X81480858Y-51879954D01*
X81319954Y-52040858D01*
X81189432Y-52227265D01*
X81189431Y-52227267D01*
X81093261Y-52433502D01*
X81093258Y-52433511D01*
X81034366Y-52653302D01*
X81034364Y-52653313D01*
X81014532Y-52879998D01*
X81014532Y-52880001D01*
X81034364Y-53106686D01*
X81034366Y-53106697D01*
X81093258Y-53326488D01*
X81093261Y-53326497D01*
X81189431Y-53532732D01*
X81189432Y-53532734D01*
X81319954Y-53719141D01*
X81480858Y-53880045D01*
X81480861Y-53880047D01*
X81667266Y-54010568D01*
X81717696Y-54034084D01*
X81725275Y-54037618D01*
X81777714Y-54083791D01*
X81796866Y-54150984D01*
X81776650Y-54217865D01*
X81725275Y-54262382D01*
X81667267Y-54289431D01*
X81667265Y-54289432D01*
X81480858Y-54419954D01*
X81319954Y-54580858D01*
X81189432Y-54767265D01*
X81189431Y-54767267D01*
X81093261Y-54973502D01*
X81093258Y-54973511D01*
X81034366Y-55193302D01*
X81034364Y-55193313D01*
X81014532Y-55419998D01*
X81014532Y-55420001D01*
X81034364Y-55646686D01*
X81034366Y-55646697D01*
X81093258Y-55866488D01*
X81093261Y-55866497D01*
X81189431Y-56072732D01*
X81189432Y-56072734D01*
X81319954Y-56259141D01*
X81480858Y-56420045D01*
X81480861Y-56420047D01*
X81667266Y-56550568D01*
X81725275Y-56577618D01*
X81777714Y-56623791D01*
X81796866Y-56690984D01*
X81776650Y-56757865D01*
X81725275Y-56802382D01*
X81667267Y-56829431D01*
X81667265Y-56829432D01*
X81480858Y-56959954D01*
X81319954Y-57120858D01*
X81189432Y-57307265D01*
X81189431Y-57307267D01*
X81093261Y-57513502D01*
X81093258Y-57513511D01*
X81034366Y-57733302D01*
X81034364Y-57733313D01*
X81014532Y-57959998D01*
X81014532Y-57960001D01*
X81034364Y-58186686D01*
X81034366Y-58186697D01*
X81093258Y-58406488D01*
X81093261Y-58406497D01*
X81189431Y-58612732D01*
X81189432Y-58612734D01*
X81319954Y-58799141D01*
X81480858Y-58960045D01*
X81480861Y-58960047D01*
X81667266Y-59090568D01*
X81725275Y-59117618D01*
X81777714Y-59163791D01*
X81796866Y-59230984D01*
X81776650Y-59297865D01*
X81725275Y-59342382D01*
X81667267Y-59369431D01*
X81667265Y-59369432D01*
X81480858Y-59499954D01*
X81319954Y-59660858D01*
X81189432Y-59847265D01*
X81189431Y-59847267D01*
X81093261Y-60053502D01*
X81093258Y-60053511D01*
X81034366Y-60273302D01*
X81034364Y-60273313D01*
X81014532Y-60499998D01*
X81014532Y-60500001D01*
X81034364Y-60726686D01*
X81034366Y-60726697D01*
X81093258Y-60946488D01*
X81093261Y-60946497D01*
X81189431Y-61152732D01*
X81189432Y-61152734D01*
X81319954Y-61339141D01*
X81480858Y-61500045D01*
X81480861Y-61500047D01*
X81667266Y-61630568D01*
X81725273Y-61657617D01*
X81777713Y-61703789D01*
X81796865Y-61770982D01*
X81776650Y-61837864D01*
X81725276Y-61882380D01*
X81667269Y-61909430D01*
X81667268Y-61909430D01*
X81480858Y-62039954D01*
X81319954Y-62200858D01*
X81189432Y-62387265D01*
X81189431Y-62387267D01*
X81093261Y-62593502D01*
X81093258Y-62593511D01*
X81034366Y-62813302D01*
X81034364Y-62813313D01*
X81014532Y-63039998D01*
X81014532Y-63040001D01*
X81034364Y-63266686D01*
X81034366Y-63266697D01*
X81093258Y-63486488D01*
X81093261Y-63486497D01*
X81189431Y-63692732D01*
X81189432Y-63692734D01*
X81319954Y-63879141D01*
X81480858Y-64040045D01*
X81510305Y-64060664D01*
X81667266Y-64170568D01*
X81873504Y-64266739D01*
X82093308Y-64325635D01*
X82320000Y-64345468D01*
X82334803Y-64344172D01*
X82403299Y-64357936D01*
X82426815Y-64373988D01*
X82662026Y-64577802D01*
X82662033Y-64577808D01*
X82998009Y-64829318D01*
X83351071Y-65056220D01*
X83719420Y-65257356D01*
X83954340Y-65364642D01*
X84101166Y-65431697D01*
X84101170Y-65431698D01*
X84101180Y-65431703D01*
X84494405Y-65578371D01*
X84897091Y-65696612D01*
X85204361Y-65763456D01*
X85307181Y-65785825D01*
X85307185Y-65785825D01*
X85307187Y-65785826D01*
X85722601Y-65845556D01*
X86111275Y-65873357D01*
X86141218Y-65875499D01*
X86141219Y-65875499D01*
X86254837Y-65875499D01*
X86254849Y-65875500D01*
X86264839Y-65875500D01*
X86351062Y-65875500D01*
X86437292Y-65875500D01*
X87559803Y-65875500D01*
X87594667Y-65875500D01*
X87594680Y-65875503D01*
X87646033Y-65875503D01*
X87646033Y-65875504D01*
X87871646Y-65875503D01*
X88321724Y-65843311D01*
X88768358Y-65779093D01*
X89020657Y-65724208D01*
X89209265Y-65683179D01*
X89209268Y-65683178D01*
X89209273Y-65683177D01*
X89642222Y-65556050D01*
X90064999Y-65398362D01*
X90475449Y-65210915D01*
X90871482Y-64994665D01*
X91251079Y-64750713D01*
X91612305Y-64480303D01*
X91953321Y-64184813D01*
X92044815Y-64093317D01*
X92044820Y-64093314D01*
X92051881Y-64086253D01*
X92051883Y-64086252D01*
X93531159Y-62606975D01*
X93592480Y-62573492D01*
X93662172Y-62578476D01*
X93718105Y-62620348D01*
X93738613Y-62662565D01*
X93793256Y-62866497D01*
X93793480Y-62867112D01*
X93793498Y-62867400D01*
X93794657Y-62871725D01*
X93793788Y-62871957D01*
X93797916Y-62936841D01*
X93764642Y-62997210D01*
X92102934Y-64658920D01*
X92094691Y-64666453D01*
X92093393Y-64667535D01*
X92035657Y-64726191D01*
X92034967Y-64726886D01*
X92033913Y-64727940D01*
X92030727Y-64731014D01*
X91738423Y-65003156D01*
X91730194Y-65010173D01*
X91417218Y-65254307D01*
X91408410Y-65260580D01*
X91075348Y-65476521D01*
X91066026Y-65482003D01*
X90715419Y-65668102D01*
X90705655Y-65672751D01*
X90340161Y-65827598D01*
X90330029Y-65831378D01*
X89952442Y-65953788D01*
X89942020Y-65956671D01*
X89555209Y-66045716D01*
X89544574Y-66047681D01*
X89195934Y-66096465D01*
X89159213Y-66096112D01*
X89143592Y-66093619D01*
X88888238Y-66089721D01*
X88888237Y-66089721D01*
X88888233Y-66089721D01*
X88747043Y-66107855D01*
X88634934Y-66122254D01*
X88634930Y-66122254D01*
X88630539Y-66122819D01*
X88630509Y-66122593D01*
X88611418Y-66124500D01*
X82389961Y-66124500D01*
X82385904Y-66124434D01*
X81860604Y-66107238D01*
X81852507Y-66106707D01*
X81331500Y-66055394D01*
X81323455Y-66054335D01*
X80806906Y-65969054D01*
X80798956Y-65967472D01*
X80541676Y-65907484D01*
X80289097Y-65848591D01*
X80281259Y-65846491D01*
X79780257Y-65694514D01*
X79772588Y-65691911D01*
X79282576Y-65507485D01*
X79275115Y-65504394D01*
X78798237Y-65288325D01*
X78790960Y-65284736D01*
X78329244Y-65037944D01*
X78322217Y-65033887D01*
X77877632Y-64757427D01*
X77870885Y-64752919D01*
X77445330Y-64447972D01*
X77438893Y-64443033D01*
X77034190Y-64110904D01*
X77028089Y-64105553D01*
X76644849Y-63746611D01*
X76641933Y-63743789D01*
X76040938Y-63142794D01*
X76007453Y-63081471D01*
X76005091Y-63044304D01*
X76005468Y-63040000D01*
X76005091Y-63035695D01*
X76018856Y-62967196D01*
X76040935Y-62937207D01*
X76946704Y-62031440D01*
X76946754Y-62031412D01*
X76983045Y-61995121D01*
X77194050Y-61784115D01*
X77589809Y-61337394D01*
X77957874Y-60867592D01*
X78296901Y-60376424D01*
X78605654Y-59865682D01*
X78883006Y-59337230D01*
X79127944Y-58792996D01*
X79339576Y-58234966D01*
X79495896Y-57733313D01*
X79517125Y-57665187D01*
X79536885Y-57585017D01*
X79659953Y-57085705D01*
X79767129Y-56500861D01*
X79767530Y-56498674D01*
X79780588Y-56391131D01*
X79839467Y-55906206D01*
X79875500Y-55310482D01*
X79875500Y-55012076D01*
X79875500Y-54925847D01*
X79875500Y-49413771D01*
X79875500Y-49413768D01*
X79875499Y-49413766D01*
X79859524Y-49333454D01*
X79841855Y-49244626D01*
X79815730Y-49181555D01*
X79775861Y-49085301D01*
X79775854Y-49085288D01*
X79680045Y-48941901D01*
X79680042Y-48941897D01*
X79558102Y-48819957D01*
X79558098Y-48819954D01*
X79414711Y-48724145D01*
X79414698Y-48724138D01*
X79255378Y-48658146D01*
X79255366Y-48658143D01*
X79086232Y-48624500D01*
X79086229Y-48624500D01*
X78913771Y-48624500D01*
X78913768Y-48624500D01*
X78744633Y-48658143D01*
X78744621Y-48658146D01*
X78585301Y-48724138D01*
X78585288Y-48724145D01*
X78441901Y-48819954D01*
X78441897Y-48819957D01*
X78319957Y-48941897D01*
X78319954Y-48941901D01*
X78224145Y-49085288D01*
X78224138Y-49085301D01*
X78158146Y-49244621D01*
X78158143Y-49244633D01*
X78124500Y-49413766D01*
X78124500Y-55010039D01*
X78124434Y-55014096D01*
X78107238Y-55539395D01*
X78106707Y-55547492D01*
X78055394Y-56068499D01*
X78054335Y-56076544D01*
X77969055Y-56593089D01*
X77967472Y-56601047D01*
X77848591Y-57110902D01*
X77846491Y-57118740D01*
X77694514Y-57619742D01*
X77691907Y-57627420D01*
X77507489Y-58117412D01*
X77504390Y-58124895D01*
X77288325Y-58601762D01*
X77284736Y-58609039D01*
X77037944Y-59070755D01*
X77033887Y-59077782D01*
X76757427Y-59522367D01*
X76752919Y-59529114D01*
X76447972Y-59954669D01*
X76443033Y-59961106D01*
X76188301Y-60271500D01*
X76130555Y-60310835D01*
X76060710Y-60312706D01*
X76000942Y-60276519D01*
X75972672Y-60224929D01*
X75926741Y-60053511D01*
X75926738Y-60053502D01*
X75904244Y-60005263D01*
X75830568Y-59847266D01*
X75700047Y-59660861D01*
X75700045Y-59660858D01*
X75539141Y-59499954D01*
X75352734Y-59369432D01*
X75352728Y-59369429D01*
X75324834Y-59356422D01*
X75294724Y-59342381D01*
X75242285Y-59296210D01*
X75223133Y-59229017D01*
X75243348Y-59162135D01*
X75294725Y-59117618D01*
X75352734Y-59090568D01*
X75539139Y-58960047D01*
X75700047Y-58799139D01*
X75830568Y-58612734D01*
X75926739Y-58406496D01*
X75985635Y-58186692D01*
X76005468Y-57960000D01*
X75985635Y-57733308D01*
X75926739Y-57513504D01*
X75830568Y-57307266D01*
X75700047Y-57120861D01*
X75700045Y-57120858D01*
X75539141Y-56959954D01*
X75352734Y-56829432D01*
X75352728Y-56829429D01*
X75294725Y-56802382D01*
X75242285Y-56756210D01*
X75223133Y-56689017D01*
X75243348Y-56622135D01*
X75294725Y-56577618D01*
X75352734Y-56550568D01*
X75539139Y-56420047D01*
X75700047Y-56259139D01*
X75830568Y-56072734D01*
X75926739Y-55866496D01*
X75985635Y-55646692D01*
X76005468Y-55420000D01*
X76002309Y-55383898D01*
X75997500Y-55328927D01*
X75985635Y-55193308D01*
X75937074Y-55012076D01*
X75926741Y-54973511D01*
X75926738Y-54973502D01*
X75882004Y-54877571D01*
X75830568Y-54767266D01*
X75700047Y-54580861D01*
X75700045Y-54580858D01*
X75539141Y-54419954D01*
X75352734Y-54289432D01*
X75352728Y-54289429D01*
X75294725Y-54262382D01*
X75242285Y-54216210D01*
X75223133Y-54149017D01*
X75243348Y-54082135D01*
X75294725Y-54037618D01*
X75352734Y-54010568D01*
X75539139Y-53880047D01*
X75700047Y-53719139D01*
X75830568Y-53532734D01*
X75926739Y-53326496D01*
X75985635Y-53106692D01*
X76005468Y-52880000D01*
X75985635Y-52653308D01*
X75926739Y-52433504D01*
X75830568Y-52227266D01*
X75732839Y-52087693D01*
X75700045Y-52040858D01*
X75539141Y-51879954D01*
X75352734Y-51749432D01*
X75352728Y-51749429D01*
X75325038Y-51736517D01*
X75294724Y-51722381D01*
X75242285Y-51676210D01*
X75223133Y-51609017D01*
X75243348Y-51542135D01*
X75294725Y-51497618D01*
X75352734Y-51470568D01*
X75539139Y-51340047D01*
X75700047Y-51179139D01*
X75830568Y-50992734D01*
X75926739Y-50786496D01*
X75985635Y-50566692D01*
X76005468Y-50340000D01*
X75985635Y-50113308D01*
X75926739Y-49893504D01*
X75830568Y-49687266D01*
X75700047Y-49500861D01*
X75700045Y-49500858D01*
X75539143Y-49339956D01*
X75513912Y-49322289D01*
X75470287Y-49267712D01*
X75463095Y-49198213D01*
X75494617Y-49135859D01*
X75554847Y-49100445D01*
X75571781Y-49097424D01*
X75607380Y-49093596D01*
X75742086Y-49043354D01*
X75742093Y-49043350D01*
X75857187Y-48957190D01*
X75857190Y-48957187D01*
X75943350Y-48842093D01*
X75943354Y-48842086D01*
X75993596Y-48707379D01*
X75993598Y-48707372D01*
X75999999Y-48647844D01*
X76000000Y-48647827D01*
X76000000Y-48050000D01*
X75015686Y-48050000D01*
X75020080Y-48045606D01*
X75072741Y-47954394D01*
X75100000Y-47852661D01*
X75100000Y-47747339D01*
X75072741Y-47645606D01*
X75020080Y-47554394D01*
X75015686Y-47550000D01*
X76000000Y-47550000D01*
X76000000Y-46952172D01*
X75999999Y-46952155D01*
X75993598Y-46892627D01*
X75993596Y-46892620D01*
X75943354Y-46757913D01*
X75943350Y-46757906D01*
X75857190Y-46642812D01*
X75857187Y-46642809D01*
X75742093Y-46556649D01*
X75742086Y-46556645D01*
X75607379Y-46506403D01*
X75607372Y-46506401D01*
X75547844Y-46500000D01*
X74950000Y-46500000D01*
X74950000Y-47484314D01*
X74945606Y-47479920D01*
X74854394Y-47427259D01*
X74752661Y-47400000D01*
X74647339Y-47400000D01*
X74545606Y-47427259D01*
X74454394Y-47479920D01*
X74450000Y-47484314D01*
X74450000Y-46500000D01*
X73852155Y-46500000D01*
X73792627Y-46506401D01*
X73792620Y-46506403D01*
X73657913Y-46556645D01*
X73657906Y-46556649D01*
X73542812Y-46642809D01*
X73542809Y-46642812D01*
X73456649Y-46757906D01*
X73456645Y-46757913D01*
X73406403Y-46892620D01*
X73406401Y-46892627D01*
X73400000Y-46952155D01*
X73400000Y-47550000D01*
X74384314Y-47550000D01*
X74379920Y-47554394D01*
X74327259Y-47645606D01*
X74300000Y-47747339D01*
X74300000Y-47852661D01*
X74327259Y-47954394D01*
X74379920Y-48045606D01*
X74384314Y-48050000D01*
X73400000Y-48050000D01*
X73400000Y-48647844D01*
X73406401Y-48707372D01*
X73406403Y-48707379D01*
X73456645Y-48842086D01*
X73456649Y-48842093D01*
X73542809Y-48957187D01*
X73542812Y-48957190D01*
X73657906Y-49043350D01*
X73657913Y-49043354D01*
X73792620Y-49093596D01*
X73792627Y-49093598D01*
X73828218Y-49097425D01*
X73892769Y-49124163D01*
X73932618Y-49181555D01*
X73935111Y-49251380D01*
X73899459Y-49311469D01*
X73886088Y-49322287D01*
X73860861Y-49339951D01*
X73699954Y-49500858D01*
X73569432Y-49687265D01*
X73569431Y-49687267D01*
X73473261Y-49893502D01*
X73473258Y-49893511D01*
X73414366Y-50113302D01*
X73414364Y-50113313D01*
X73394532Y-50339998D01*
X73394532Y-50340001D01*
X73414364Y-50566686D01*
X73414366Y-50566697D01*
X73473258Y-50786488D01*
X73473261Y-50786497D01*
X73569431Y-50992732D01*
X73569432Y-50992734D01*
X73699954Y-51179141D01*
X73860858Y-51340045D01*
X73860861Y-51340047D01*
X74047266Y-51470568D01*
X74105275Y-51497618D01*
X74157714Y-51543791D01*
X74176866Y-51610984D01*
X74156650Y-51677865D01*
X74105275Y-51722382D01*
X74047267Y-51749431D01*
X74047265Y-51749432D01*
X73860858Y-51879954D01*
X73699954Y-52040858D01*
X73569432Y-52227265D01*
X73569431Y-52227267D01*
X73473261Y-52433502D01*
X73473258Y-52433511D01*
X73414366Y-52653302D01*
X73414364Y-52653313D01*
X73394532Y-52879998D01*
X73394532Y-52880001D01*
X73414364Y-53106686D01*
X73414366Y-53106697D01*
X73473258Y-53326488D01*
X73473261Y-53326497D01*
X73569431Y-53532732D01*
X73569432Y-53532734D01*
X73699954Y-53719141D01*
X73860858Y-53880045D01*
X73860861Y-53880047D01*
X74047266Y-54010568D01*
X74097696Y-54034084D01*
X74105275Y-54037618D01*
X74157714Y-54083791D01*
X74176866Y-54150984D01*
X74156650Y-54217865D01*
X74105275Y-54262382D01*
X74047267Y-54289431D01*
X74047265Y-54289432D01*
X73860858Y-54419954D01*
X73699954Y-54580858D01*
X73569432Y-54767265D01*
X73569431Y-54767267D01*
X73473261Y-54973502D01*
X73473258Y-54973511D01*
X73414366Y-55193302D01*
X73414364Y-55193313D01*
X73394532Y-55419998D01*
X73394532Y-55420001D01*
X73414364Y-55646686D01*
X73414366Y-55646697D01*
X73473258Y-55866488D01*
X73473261Y-55866497D01*
X73569431Y-56072732D01*
X73569432Y-56072734D01*
X73699954Y-56259141D01*
X73860858Y-56420045D01*
X73860861Y-56420047D01*
X74047266Y-56550568D01*
X74105275Y-56577618D01*
X74157714Y-56623791D01*
X74176866Y-56690984D01*
X74156650Y-56757865D01*
X74105275Y-56802382D01*
X74047267Y-56829431D01*
X74047265Y-56829432D01*
X73860858Y-56959954D01*
X73699954Y-57120858D01*
X73569432Y-57307265D01*
X73569431Y-57307267D01*
X73473261Y-57513502D01*
X73473258Y-57513511D01*
X73414366Y-57733302D01*
X73414364Y-57733313D01*
X73394532Y-57959998D01*
X73394532Y-57960001D01*
X73414364Y-58186686D01*
X73414366Y-58186697D01*
X73473258Y-58406488D01*
X73473261Y-58406497D01*
X73569431Y-58612732D01*
X73569432Y-58612734D01*
X73699954Y-58799141D01*
X73860858Y-58960045D01*
X73860861Y-58960047D01*
X74047266Y-59090568D01*
X74105275Y-59117618D01*
X74157714Y-59163791D01*
X74176866Y-59230984D01*
X74156650Y-59297865D01*
X74105275Y-59342382D01*
X74047267Y-59369431D01*
X74047265Y-59369432D01*
X73860858Y-59499954D01*
X73699954Y-59660858D01*
X73569432Y-59847265D01*
X73569431Y-59847267D01*
X73473261Y-60053502D01*
X73473258Y-60053511D01*
X73414366Y-60273302D01*
X73414364Y-60273313D01*
X73394532Y-60499998D01*
X73394532Y-60500001D01*
X73414364Y-60726686D01*
X73414366Y-60726697D01*
X73473258Y-60946488D01*
X73473261Y-60946497D01*
X73569431Y-61152732D01*
X73569432Y-61152734D01*
X73699954Y-61339141D01*
X73860858Y-61500045D01*
X73860861Y-61500047D01*
X74047266Y-61630568D01*
X74105275Y-61657618D01*
X74157714Y-61703791D01*
X74176866Y-61770984D01*
X74156650Y-61837865D01*
X74105275Y-61882382D01*
X74047267Y-61909431D01*
X74047265Y-61909432D01*
X73860858Y-62039954D01*
X73699954Y-62200858D01*
X73569432Y-62387265D01*
X73569431Y-62387267D01*
X73473261Y-62593502D01*
X73473258Y-62593511D01*
X73414366Y-62813302D01*
X73414364Y-62813313D01*
X73394532Y-63039998D01*
X73394532Y-63040001D01*
X73414364Y-63266686D01*
X73414366Y-63266697D01*
X73473258Y-63486488D01*
X73473261Y-63486497D01*
X73569431Y-63692732D01*
X73569432Y-63692734D01*
X73699954Y-63879141D01*
X73860858Y-64040045D01*
X73890305Y-64060664D01*
X74047266Y-64170568D01*
X74253504Y-64266739D01*
X74473308Y-64325635D01*
X74700000Y-64345468D01*
X74704301Y-64345091D01*
X74772800Y-64358854D01*
X74802794Y-64380938D01*
X75368560Y-64946704D01*
X75368587Y-64946754D01*
X75615859Y-65194025D01*
X75615895Y-65194059D01*
X76062594Y-65589799D01*
X76062595Y-65589800D01*
X76062602Y-65589805D01*
X76062606Y-65589809D01*
X76532408Y-65957874D01*
X77023575Y-66296900D01*
X77023585Y-66296907D01*
X77534308Y-66605648D01*
X77534318Y-66605654D01*
X78062770Y-66883006D01*
X78607004Y-67127944D01*
X78607011Y-67127946D01*
X78607014Y-67127948D01*
X78731256Y-67175066D01*
X79165034Y-67339576D01*
X79373860Y-67404648D01*
X79734812Y-67517125D01*
X79734823Y-67517127D01*
X79734824Y-67517128D01*
X80314295Y-67659953D01*
X80674854Y-67726027D01*
X80901325Y-67767530D01*
X80901329Y-67767530D01*
X80901332Y-67767531D01*
X81493794Y-67839467D01*
X82089518Y-67875500D01*
X82301693Y-67875500D01*
X88586992Y-67875500D01*
X88654031Y-67895185D01*
X88699786Y-67947989D01*
X88709730Y-68017147D01*
X88680705Y-68080703D01*
X88674673Y-68087181D01*
X84709763Y-72052091D01*
X84709216Y-72052694D01*
X84615243Y-72146665D01*
X84615217Y-72146692D01*
X84319719Y-72487707D01*
X84049319Y-72848912D01*
X84049316Y-72848916D01*
X83805355Y-73228519D01*
X83614248Y-73578498D01*
X83589103Y-73624546D01*
X83568085Y-73670568D01*
X83401648Y-74035003D01*
X83243971Y-74457743D01*
X83243959Y-74457779D01*
X83116832Y-74890722D01*
X83020914Y-75331627D01*
X82956695Y-75778266D01*
X82924500Y-76228343D01*
X82924500Y-97861823D01*
X82924382Y-97867233D01*
X82908447Y-98232147D01*
X82907504Y-98242923D01*
X82860180Y-98602365D01*
X82858302Y-98613018D01*
X82779828Y-98966980D01*
X82777028Y-98977429D01*
X82668006Y-99323200D01*
X82664306Y-99333365D01*
X82525562Y-99668319D01*
X82520990Y-99678123D01*
X82353582Y-99999709D01*
X82348173Y-100009077D01*
X82153382Y-100314836D01*
X82147178Y-100323697D01*
X81926457Y-100611346D01*
X81919503Y-100619634D01*
X81672516Y-100889171D01*
X81668775Y-100893078D01*
X81366975Y-101194878D01*
X81305652Y-101228363D01*
X81235960Y-101223379D01*
X81180027Y-101181507D01*
X81155610Y-101116043D01*
X81166910Y-101054796D01*
X81226739Y-100926496D01*
X81285635Y-100706692D01*
X81305468Y-100480000D01*
X81285635Y-100253308D01*
X81226739Y-100033504D01*
X81130568Y-99827266D01*
X81000047Y-99640861D01*
X81000045Y-99640858D01*
X80839141Y-99479954D01*
X80652734Y-99349432D01*
X80652728Y-99349429D01*
X80618278Y-99333365D01*
X80594724Y-99322381D01*
X80542285Y-99276210D01*
X80523133Y-99209017D01*
X80543348Y-99142135D01*
X80594725Y-99097618D01*
X80652734Y-99070568D01*
X80839139Y-98940047D01*
X81000047Y-98779139D01*
X81130568Y-98592734D01*
X81226739Y-98386496D01*
X81285635Y-98166692D01*
X81305468Y-97940000D01*
X81285635Y-97713308D01*
X81226739Y-97493504D01*
X81130568Y-97287266D01*
X81000047Y-97100861D01*
X81000045Y-97100858D01*
X80839141Y-96939954D01*
X80652734Y-96809432D01*
X80652728Y-96809429D01*
X80594725Y-96782382D01*
X80542285Y-96736210D01*
X80523133Y-96669017D01*
X80543348Y-96602135D01*
X80594725Y-96557618D01*
X80652734Y-96530568D01*
X80839139Y-96400047D01*
X81000047Y-96239139D01*
X81130568Y-96052734D01*
X81226739Y-95846496D01*
X81285635Y-95626692D01*
X81305468Y-95400000D01*
X81285635Y-95173308D01*
X81226739Y-94953504D01*
X81130568Y-94747266D01*
X81000047Y-94560861D01*
X81000045Y-94560858D01*
X80839141Y-94399954D01*
X80652734Y-94269432D01*
X80652728Y-94269429D01*
X80594725Y-94242382D01*
X80542285Y-94196210D01*
X80523133Y-94129017D01*
X80543348Y-94062135D01*
X80594725Y-94017618D01*
X80652734Y-93990568D01*
X80839139Y-93860047D01*
X81000047Y-93699139D01*
X81130568Y-93512734D01*
X81226739Y-93306496D01*
X81285635Y-93086692D01*
X81305468Y-92860000D01*
X81285635Y-92633308D01*
X81226739Y-92413504D01*
X81130568Y-92207266D01*
X81000047Y-92020861D01*
X81000045Y-92020858D01*
X80839141Y-91859954D01*
X80652734Y-91729432D01*
X80652728Y-91729429D01*
X80594725Y-91702382D01*
X80542285Y-91656210D01*
X80523133Y-91589017D01*
X80543348Y-91522135D01*
X80594725Y-91477618D01*
X80652734Y-91450568D01*
X80839139Y-91320047D01*
X81000047Y-91159139D01*
X81130568Y-90972734D01*
X81226739Y-90766496D01*
X81285635Y-90546692D01*
X81305468Y-90320000D01*
X81285635Y-90093308D01*
X81226739Y-89873504D01*
X81130568Y-89667266D01*
X81000047Y-89480861D01*
X81000045Y-89480858D01*
X80839141Y-89319954D01*
X80652734Y-89189432D01*
X80652728Y-89189429D01*
X80594725Y-89162382D01*
X80542285Y-89116210D01*
X80523133Y-89049017D01*
X80543348Y-88982135D01*
X80594725Y-88937618D01*
X80652734Y-88910568D01*
X80839139Y-88780047D01*
X81000047Y-88619139D01*
X81130568Y-88432734D01*
X81226739Y-88226496D01*
X81285635Y-88006692D01*
X81305468Y-87780000D01*
X81285635Y-87553308D01*
X81226739Y-87333504D01*
X81130568Y-87127266D01*
X81000047Y-86940861D01*
X81000045Y-86940858D01*
X80839141Y-86779954D01*
X80652734Y-86649432D01*
X80652728Y-86649429D01*
X80594725Y-86622382D01*
X80542285Y-86576210D01*
X80523133Y-86509017D01*
X80543348Y-86442135D01*
X80594725Y-86397618D01*
X80652734Y-86370568D01*
X80839139Y-86240047D01*
X81000047Y-86079139D01*
X81130568Y-85892734D01*
X81226739Y-85686496D01*
X81285635Y-85466692D01*
X81305468Y-85240000D01*
X81285635Y-85013308D01*
X81226739Y-84793504D01*
X81130568Y-84587266D01*
X81000047Y-84400861D01*
X81000045Y-84400858D01*
X80839141Y-84239954D01*
X80652734Y-84109432D01*
X80652728Y-84109429D01*
X80594725Y-84082382D01*
X80542285Y-84036210D01*
X80523133Y-83969017D01*
X80543348Y-83902135D01*
X80594725Y-83857618D01*
X80652734Y-83830568D01*
X80839139Y-83700047D01*
X81000047Y-83539139D01*
X81130568Y-83352734D01*
X81226739Y-83146496D01*
X81285635Y-82926692D01*
X81305468Y-82700000D01*
X81285635Y-82473308D01*
X81226739Y-82253504D01*
X81130568Y-82047266D01*
X81000047Y-81860861D01*
X81000045Y-81860858D01*
X80839141Y-81699954D01*
X80652734Y-81569432D01*
X80652728Y-81569429D01*
X80594725Y-81542382D01*
X80542285Y-81496210D01*
X80523133Y-81429017D01*
X80543348Y-81362135D01*
X80594725Y-81317618D01*
X80652734Y-81290568D01*
X80839139Y-81160047D01*
X81000047Y-80999139D01*
X81130568Y-80812734D01*
X81226739Y-80606496D01*
X81285635Y-80386692D01*
X81305468Y-80160000D01*
X81285635Y-79933308D01*
X81226739Y-79713504D01*
X81130568Y-79507266D01*
X81000047Y-79320861D01*
X81000045Y-79320858D01*
X80839141Y-79159954D01*
X80652734Y-79029432D01*
X80652728Y-79029429D01*
X80594725Y-79002382D01*
X80542285Y-78956210D01*
X80523133Y-78889017D01*
X80543348Y-78822135D01*
X80594725Y-78777618D01*
X80595319Y-78777341D01*
X80652734Y-78750568D01*
X80839139Y-78620047D01*
X81000047Y-78459139D01*
X81130568Y-78272734D01*
X81226739Y-78066496D01*
X81285635Y-77846692D01*
X81305468Y-77620000D01*
X81285635Y-77393308D01*
X81226739Y-77173504D01*
X81130568Y-76967266D01*
X81000047Y-76780861D01*
X81000045Y-76780858D01*
X80839141Y-76619954D01*
X80652734Y-76489432D01*
X80652728Y-76489429D01*
X80594725Y-76462382D01*
X80542285Y-76416210D01*
X80523133Y-76349017D01*
X80543348Y-76282135D01*
X80594725Y-76237618D01*
X80614613Y-76228344D01*
X80652734Y-76210568D01*
X80839139Y-76080047D01*
X81000047Y-75919139D01*
X81130568Y-75732734D01*
X81226739Y-75526496D01*
X81285635Y-75306692D01*
X81305468Y-75080000D01*
X81285635Y-74853308D01*
X81226739Y-74633504D01*
X81130568Y-74427266D01*
X81000047Y-74240861D01*
X81000045Y-74240858D01*
X80839141Y-74079954D01*
X80652734Y-73949432D01*
X80652728Y-73949429D01*
X80594725Y-73922382D01*
X80542285Y-73876210D01*
X80523133Y-73809017D01*
X80543348Y-73742135D01*
X80594725Y-73697618D01*
X80652734Y-73670568D01*
X80839139Y-73540047D01*
X81000047Y-73379139D01*
X81130568Y-73192734D01*
X81226739Y-72986496D01*
X81285635Y-72766692D01*
X81305468Y-72540000D01*
X81285635Y-72313308D01*
X81226739Y-72093504D01*
X81130568Y-71887266D01*
X81000047Y-71700861D01*
X81000045Y-71700858D01*
X80839143Y-71539956D01*
X80814536Y-71522726D01*
X80770912Y-71468149D01*
X80763719Y-71398650D01*
X80795241Y-71336296D01*
X80855471Y-71300882D01*
X80872404Y-71297861D01*
X80907483Y-71294091D01*
X81042331Y-71243796D01*
X81157546Y-71157546D01*
X81243796Y-71042331D01*
X81294091Y-70907483D01*
X81300500Y-70847873D01*
X81300499Y-69152128D01*
X81294091Y-69092517D01*
X81275442Y-69042517D01*
X81243797Y-68957671D01*
X81243793Y-68957664D01*
X81157547Y-68842455D01*
X81157544Y-68842452D01*
X81042335Y-68756206D01*
X81042328Y-68756202D01*
X80907482Y-68705908D01*
X80907483Y-68705908D01*
X80847883Y-68699501D01*
X80847881Y-68699500D01*
X80847873Y-68699500D01*
X80847864Y-68699500D01*
X79152129Y-68699500D01*
X79152123Y-68699501D01*
X79092516Y-68705908D01*
X78957671Y-68756202D01*
X78957664Y-68756206D01*
X78842456Y-68842452D01*
X78842455Y-68842453D01*
X78842454Y-68842454D01*
X78779155Y-68927011D01*
X78762087Y-68949811D01*
X78706153Y-68991682D01*
X78662820Y-68999500D01*
X76214141Y-68999500D01*
X76147102Y-68979815D01*
X76101347Y-68927011D01*
X76097969Y-68918859D01*
X76093796Y-68907669D01*
X76093793Y-68907665D01*
X76093793Y-68907664D01*
X76007547Y-68792455D01*
X76007544Y-68792452D01*
X75892335Y-68706206D01*
X75892328Y-68706202D01*
X75757482Y-68655908D01*
X75757483Y-68655908D01*
X75697883Y-68649501D01*
X75697881Y-68649500D01*
X75697873Y-68649500D01*
X75697864Y-68649500D01*
X73902129Y-68649500D01*
X73902123Y-68649501D01*
X73842516Y-68655908D01*
X73707671Y-68706202D01*
X73707664Y-68706206D01*
X73592455Y-68792452D01*
X73592452Y-68792455D01*
X73506206Y-68907664D01*
X73506202Y-68907671D01*
X73455908Y-69042517D01*
X73450533Y-69092516D01*
X73449501Y-69102123D01*
X73449500Y-69102135D01*
X73449500Y-70897870D01*
X73449501Y-70897876D01*
X73455908Y-70957483D01*
X73506202Y-71092328D01*
X73506206Y-71092335D01*
X73592452Y-71207544D01*
X73592455Y-71207547D01*
X73707664Y-71293793D01*
X73707671Y-71293797D01*
X73839081Y-71342810D01*
X73895015Y-71384681D01*
X73919432Y-71450145D01*
X73904580Y-71518418D01*
X73883430Y-71546673D01*
X73761503Y-71668600D01*
X73625965Y-71862169D01*
X73625964Y-71862171D01*
X73526098Y-72076335D01*
X73526094Y-72076344D01*
X73464938Y-72304586D01*
X73464936Y-72304596D01*
X73444341Y-72539999D01*
X73444341Y-72540000D01*
X73464936Y-72775403D01*
X73464938Y-72775413D01*
X73526094Y-73003655D01*
X73526096Y-73003659D01*
X73526097Y-73003663D01*
X73565284Y-73087699D01*
X73625965Y-73217830D01*
X73625967Y-73217834D01*
X73761501Y-73411395D01*
X73761506Y-73411402D01*
X73928597Y-73578493D01*
X73928603Y-73578498D01*
X74114158Y-73708425D01*
X74157783Y-73763002D01*
X74164977Y-73832500D01*
X74133454Y-73894855D01*
X74114158Y-73911575D01*
X73928597Y-74041505D01*
X73761505Y-74208597D01*
X73625965Y-74402169D01*
X73625964Y-74402171D01*
X73526098Y-74616335D01*
X73526094Y-74616344D01*
X73464938Y-74844586D01*
X73464936Y-74844596D01*
X73444341Y-75079999D01*
X73444341Y-75080000D01*
X73464936Y-75315403D01*
X73464938Y-75315413D01*
X73526094Y-75543655D01*
X73526096Y-75543659D01*
X73526097Y-75543663D01*
X73614262Y-75732732D01*
X73625965Y-75757830D01*
X73625967Y-75757834D01*
X73761501Y-75951395D01*
X73761506Y-75951402D01*
X73928597Y-76118493D01*
X73928603Y-76118498D01*
X74114158Y-76248425D01*
X74157783Y-76303002D01*
X74164977Y-76372500D01*
X74133454Y-76434855D01*
X74114158Y-76451575D01*
X73928597Y-76581505D01*
X73761505Y-76748597D01*
X73625965Y-76942169D01*
X73625964Y-76942171D01*
X73526098Y-77156335D01*
X73526094Y-77156344D01*
X73464938Y-77384586D01*
X73464936Y-77384596D01*
X73444341Y-77619999D01*
X73444341Y-77620000D01*
X73464936Y-77855403D01*
X73464938Y-77855413D01*
X73526094Y-78083655D01*
X73526096Y-78083659D01*
X73526097Y-78083663D01*
X73614145Y-78272482D01*
X73625965Y-78297830D01*
X73625967Y-78297834D01*
X73761501Y-78491395D01*
X73761506Y-78491402D01*
X73928597Y-78658493D01*
X73928603Y-78658498D01*
X74114158Y-78788425D01*
X74157783Y-78843002D01*
X74164977Y-78912500D01*
X74133454Y-78974855D01*
X74114158Y-78991575D01*
X73928597Y-79121505D01*
X73761505Y-79288597D01*
X73625965Y-79482169D01*
X73625964Y-79482171D01*
X73526098Y-79696335D01*
X73526094Y-79696344D01*
X73464938Y-79924586D01*
X73464936Y-79924596D01*
X73444341Y-80159999D01*
X73444341Y-80160000D01*
X73464936Y-80395403D01*
X73464938Y-80395413D01*
X73526094Y-80623655D01*
X73526096Y-80623659D01*
X73526097Y-80623663D01*
X73614262Y-80812732D01*
X73625965Y-80837830D01*
X73625967Y-80837834D01*
X73761501Y-81031395D01*
X73761506Y-81031402D01*
X73928597Y-81198493D01*
X73928603Y-81198498D01*
X74114158Y-81328425D01*
X74157783Y-81383002D01*
X74164977Y-81452500D01*
X74133454Y-81514855D01*
X74114158Y-81531575D01*
X73928597Y-81661505D01*
X73761505Y-81828597D01*
X73625965Y-82022169D01*
X73625964Y-82022171D01*
X73526098Y-82236335D01*
X73526094Y-82236344D01*
X73464938Y-82464586D01*
X73464936Y-82464596D01*
X73444341Y-82699999D01*
X73444341Y-82700000D01*
X73464936Y-82935403D01*
X73464938Y-82935413D01*
X73526094Y-83163655D01*
X73526096Y-83163659D01*
X73526097Y-83163663D01*
X73614262Y-83352732D01*
X73625965Y-83377830D01*
X73625967Y-83377834D01*
X73761501Y-83571395D01*
X73761506Y-83571402D01*
X73928597Y-83738493D01*
X73928603Y-83738498D01*
X74114158Y-83868425D01*
X74157783Y-83923002D01*
X74164977Y-83992500D01*
X74133454Y-84054855D01*
X74114158Y-84071575D01*
X73928597Y-84201505D01*
X73761505Y-84368597D01*
X73625965Y-84562169D01*
X73625964Y-84562171D01*
X73526098Y-84776335D01*
X73526094Y-84776344D01*
X73464938Y-85004586D01*
X73464936Y-85004596D01*
X73444341Y-85239999D01*
X73444341Y-85240000D01*
X73464936Y-85475403D01*
X73464938Y-85475413D01*
X73526094Y-85703655D01*
X73526096Y-85703659D01*
X73526097Y-85703663D01*
X73614262Y-85892732D01*
X73625965Y-85917830D01*
X73625967Y-85917834D01*
X73761501Y-86111395D01*
X73761506Y-86111402D01*
X73928597Y-86278493D01*
X73928603Y-86278498D01*
X74114158Y-86408425D01*
X74157783Y-86463002D01*
X74164977Y-86532500D01*
X74133454Y-86594855D01*
X74114158Y-86611575D01*
X73928597Y-86741505D01*
X73761505Y-86908597D01*
X73625965Y-87102169D01*
X73625964Y-87102171D01*
X73526098Y-87316335D01*
X73526094Y-87316344D01*
X73464938Y-87544586D01*
X73464936Y-87544596D01*
X73444341Y-87779999D01*
X73444341Y-87780000D01*
X73464936Y-88015403D01*
X73464938Y-88015413D01*
X73526094Y-88243655D01*
X73526096Y-88243659D01*
X73526097Y-88243663D01*
X73614262Y-88432732D01*
X73625965Y-88457830D01*
X73625967Y-88457834D01*
X73761501Y-88651395D01*
X73761506Y-88651402D01*
X73928597Y-88818493D01*
X73928603Y-88818498D01*
X74114158Y-88948425D01*
X74157783Y-89003002D01*
X74164977Y-89072500D01*
X74133454Y-89134855D01*
X74114158Y-89151575D01*
X73928597Y-89281505D01*
X73761505Y-89448597D01*
X73625965Y-89642169D01*
X73625964Y-89642171D01*
X73526098Y-89856335D01*
X73526094Y-89856344D01*
X73464938Y-90084586D01*
X73464936Y-90084596D01*
X73444341Y-90319999D01*
X73444341Y-90320000D01*
X73464936Y-90555403D01*
X73464938Y-90555413D01*
X73526094Y-90783655D01*
X73526096Y-90783659D01*
X73526097Y-90783663D01*
X73614262Y-90972732D01*
X73625965Y-90997830D01*
X73625967Y-90997834D01*
X73761501Y-91191395D01*
X73761506Y-91191402D01*
X73928597Y-91358493D01*
X73928603Y-91358498D01*
X74114158Y-91488425D01*
X74157783Y-91543002D01*
X74164977Y-91612500D01*
X74133454Y-91674855D01*
X74114158Y-91691575D01*
X73928597Y-91821505D01*
X73761505Y-91988597D01*
X73625965Y-92182169D01*
X73625964Y-92182171D01*
X73526098Y-92396335D01*
X73526094Y-92396344D01*
X73464938Y-92624586D01*
X73464936Y-92624596D01*
X73444341Y-92859999D01*
X73444341Y-92860000D01*
X73464936Y-93095403D01*
X73464938Y-93095413D01*
X73526094Y-93323655D01*
X73526096Y-93323659D01*
X73526097Y-93323663D01*
X73614262Y-93512732D01*
X73625965Y-93537830D01*
X73625967Y-93537834D01*
X73761501Y-93731395D01*
X73761506Y-93731402D01*
X73928597Y-93898493D01*
X73928603Y-93898498D01*
X74114158Y-94028425D01*
X74157783Y-94083002D01*
X74164977Y-94152500D01*
X74133454Y-94214855D01*
X74114158Y-94231575D01*
X73928597Y-94361505D01*
X73761505Y-94528597D01*
X73625965Y-94722169D01*
X73625964Y-94722171D01*
X73526098Y-94936335D01*
X73526094Y-94936344D01*
X73464938Y-95164586D01*
X73464936Y-95164596D01*
X73444341Y-95399999D01*
X73444341Y-95400000D01*
X73464936Y-95635403D01*
X73464938Y-95635413D01*
X73526094Y-95863655D01*
X73526096Y-95863659D01*
X73526097Y-95863663D01*
X73614262Y-96052732D01*
X73625965Y-96077830D01*
X73625967Y-96077834D01*
X73761501Y-96271395D01*
X73761506Y-96271402D01*
X73928597Y-96438493D01*
X73928603Y-96438498D01*
X74114158Y-96568425D01*
X74157783Y-96623002D01*
X74164977Y-96692500D01*
X74133454Y-96754855D01*
X74114158Y-96771575D01*
X73928597Y-96901505D01*
X73761505Y-97068597D01*
X73625965Y-97262169D01*
X73625964Y-97262171D01*
X73526098Y-97476335D01*
X73526094Y-97476344D01*
X73464938Y-97704586D01*
X73464936Y-97704596D01*
X73444341Y-97939999D01*
X73444341Y-97940000D01*
X73464936Y-98175403D01*
X73464938Y-98175413D01*
X73526094Y-98403655D01*
X73526096Y-98403659D01*
X73526097Y-98403663D01*
X73545859Y-98446042D01*
X73625965Y-98617830D01*
X73625967Y-98617834D01*
X73761501Y-98811395D01*
X73761506Y-98811402D01*
X73928597Y-98978493D01*
X73928603Y-98978498D01*
X74114158Y-99108425D01*
X74157783Y-99163002D01*
X74164977Y-99232500D01*
X74133454Y-99294855D01*
X74114158Y-99311575D01*
X73928597Y-99441505D01*
X73761505Y-99608597D01*
X73625965Y-99802169D01*
X73625964Y-99802171D01*
X73526098Y-100016335D01*
X73526094Y-100016344D01*
X73464938Y-100244586D01*
X73464936Y-100244596D01*
X73444341Y-100479999D01*
X73444341Y-100480000D01*
X73464936Y-100715403D01*
X73464938Y-100715413D01*
X73526094Y-100943655D01*
X73526096Y-100943659D01*
X73526097Y-100943663D01*
X73577917Y-101054791D01*
X73625965Y-101157830D01*
X73625967Y-101157834D01*
X73761501Y-101351395D01*
X73761506Y-101351402D01*
X73928597Y-101518493D01*
X73928603Y-101518498D01*
X74114158Y-101648425D01*
X74157783Y-101703002D01*
X74164977Y-101772500D01*
X74133454Y-101834855D01*
X74114158Y-101851575D01*
X73928597Y-101981505D01*
X73761505Y-102148597D01*
X73625965Y-102342169D01*
X73625964Y-102342171D01*
X73526098Y-102556335D01*
X73526094Y-102556344D01*
X73464938Y-102784586D01*
X73464936Y-102784596D01*
X73444341Y-103019999D01*
X73444341Y-103020000D01*
X73464936Y-103255403D01*
X73464938Y-103255413D01*
X73526094Y-103483655D01*
X73526096Y-103483659D01*
X73526097Y-103483663D01*
X73576852Y-103592507D01*
X73625965Y-103697830D01*
X73625967Y-103697834D01*
X73761501Y-103891395D01*
X73761506Y-103891402D01*
X73928597Y-104058493D01*
X73928603Y-104058498D01*
X74114158Y-104188425D01*
X74157783Y-104243002D01*
X74164977Y-104312500D01*
X74133454Y-104374855D01*
X74114158Y-104391575D01*
X73928597Y-104521505D01*
X73761505Y-104688597D01*
X73625965Y-104882169D01*
X73625964Y-104882171D01*
X73526098Y-105096335D01*
X73526094Y-105096344D01*
X73464938Y-105324586D01*
X73464936Y-105324596D01*
X73444341Y-105559999D01*
X73444341Y-105560000D01*
X73464936Y-105795403D01*
X73464938Y-105795413D01*
X73526094Y-106023655D01*
X73526096Y-106023659D01*
X73526097Y-106023663D01*
X73589333Y-106159272D01*
X73625965Y-106237830D01*
X73625967Y-106237834D01*
X73681658Y-106317368D01*
X73761505Y-106431401D01*
X73928599Y-106598495D01*
X74025384Y-106666265D01*
X74122165Y-106734032D01*
X74122167Y-106734033D01*
X74122170Y-106734035D01*
X74336337Y-106833903D01*
X74564592Y-106895063D01*
X74752918Y-106911539D01*
X74799999Y-106915659D01*
X74800000Y-106915659D01*
X74800001Y-106915659D01*
X74839234Y-106912226D01*
X75035408Y-106895063D01*
X75263663Y-106833903D01*
X75477830Y-106734035D01*
X75671401Y-106598495D01*
X75673077Y-106596819D01*
X75673995Y-106596317D01*
X75675544Y-106595018D01*
X75675805Y-106595329D01*
X75734400Y-106563334D01*
X75760758Y-106560500D01*
X79122412Y-106560500D01*
X79189451Y-106580185D01*
X79193523Y-106582917D01*
X79347266Y-106690568D01*
X79553504Y-106786739D01*
X79773308Y-106845635D01*
X79935230Y-106859801D01*
X79999998Y-106865468D01*
X80000000Y-106865468D01*
X80000002Y-106865468D01*
X80056673Y-106860509D01*
X80226692Y-106845635D01*
X80446496Y-106786739D01*
X80652734Y-106690568D01*
X80839139Y-106560047D01*
X80865431Y-106533755D01*
X81000041Y-106399146D01*
X81000043Y-106399143D01*
X81000047Y-106399139D01*
X81026886Y-106360806D01*
X81081008Y-106317369D01*
X81257472Y-106244279D01*
X81471971Y-106120441D01*
X81598098Y-106023664D01*
X81668461Y-105969675D01*
X81668465Y-105969670D01*
X81668472Y-105969666D01*
X81689414Y-105948723D01*
X81689449Y-105948693D01*
X81695080Y-105943061D01*
X81695083Y-105943060D01*
X81756043Y-105882100D01*
X81817017Y-105821128D01*
X81817019Y-105821123D01*
X81822854Y-105815289D01*
X81822861Y-105815280D01*
X84786252Y-102851891D01*
X84786253Y-102851888D01*
X84790743Y-102847399D01*
X84790870Y-102847257D01*
X84884806Y-102753323D01*
X85180296Y-102412308D01*
X85450706Y-102051082D01*
X85470712Y-102019953D01*
X85500429Y-101973710D01*
X85694658Y-101671486D01*
X85910908Y-101275454D01*
X86098355Y-100865005D01*
X86256044Y-100442228D01*
X86383171Y-100009280D01*
X86383216Y-100009077D01*
X86466156Y-99627810D01*
X86479088Y-99568366D01*
X86543306Y-99121732D01*
X86575499Y-98671655D01*
X86575500Y-98446042D01*
X86575500Y-98359813D01*
X86575500Y-77056676D01*
X86575618Y-77051267D01*
X86580382Y-76942169D01*
X86592642Y-76661400D01*
X86593581Y-76650666D01*
X86644168Y-76266443D01*
X86646040Y-76255824D01*
X86729924Y-75877464D01*
X86732713Y-75867052D01*
X86849254Y-75497445D01*
X86852943Y-75487310D01*
X87001255Y-75129261D01*
X87005804Y-75119507D01*
X87184758Y-74775748D01*
X87190151Y-74766406D01*
X87398378Y-74439562D01*
X87404571Y-74430720D01*
X87407221Y-74427267D01*
X87640488Y-74123274D01*
X87647418Y-74115015D01*
X87911699Y-73826609D01*
X87915401Y-73822741D01*
X87973831Y-73764313D01*
X87973832Y-73764310D01*
X87980893Y-73757250D01*
X87980899Y-73757242D01*
X91738143Y-69999998D01*
X93934532Y-69999998D01*
X93934532Y-70000001D01*
X93954364Y-70226686D01*
X93954366Y-70226697D01*
X94013258Y-70446488D01*
X94013261Y-70446497D01*
X94109431Y-70652732D01*
X94109432Y-70652734D01*
X94239954Y-70839141D01*
X94400858Y-71000045D01*
X94400861Y-71000047D01*
X94587266Y-71130568D01*
X94645275Y-71157618D01*
X94697714Y-71203791D01*
X94716866Y-71270984D01*
X94696650Y-71337865D01*
X94645275Y-71382381D01*
X94628272Y-71390310D01*
X94587267Y-71409431D01*
X94587265Y-71409432D01*
X94400858Y-71539954D01*
X94239954Y-71700858D01*
X94109432Y-71887265D01*
X94109431Y-71887267D01*
X94013261Y-72093502D01*
X94013258Y-72093511D01*
X93954366Y-72313302D01*
X93954364Y-72313313D01*
X93934532Y-72539998D01*
X93934532Y-72540001D01*
X93954364Y-72766686D01*
X93954366Y-72766697D01*
X94013258Y-72986488D01*
X94013261Y-72986497D01*
X94109431Y-73192732D01*
X94109432Y-73192734D01*
X94239954Y-73379141D01*
X94400858Y-73540045D01*
X94400861Y-73540047D01*
X94587266Y-73670568D01*
X94645275Y-73697618D01*
X94697714Y-73743791D01*
X94716866Y-73810984D01*
X94696650Y-73877865D01*
X94645275Y-73922382D01*
X94587267Y-73949431D01*
X94587265Y-73949432D01*
X94400858Y-74079954D01*
X94239954Y-74240858D01*
X94109432Y-74427265D01*
X94109431Y-74427267D01*
X94013261Y-74633502D01*
X94013258Y-74633511D01*
X93954366Y-74853302D01*
X93954364Y-74853313D01*
X93934532Y-75079998D01*
X93934532Y-75080001D01*
X93954364Y-75306686D01*
X93954366Y-75306697D01*
X94013258Y-75526488D01*
X94013261Y-75526497D01*
X94109431Y-75732732D01*
X94109432Y-75732734D01*
X94239954Y-75919141D01*
X94400858Y-76080045D01*
X94400861Y-76080047D01*
X94587266Y-76210568D01*
X94645865Y-76237893D01*
X94698305Y-76284065D01*
X94717457Y-76351258D01*
X94697242Y-76418139D01*
X94645867Y-76462657D01*
X94587515Y-76489867D01*
X94401179Y-76620342D01*
X94240342Y-76781179D01*
X94109865Y-76967517D01*
X94013734Y-77173673D01*
X94013730Y-77173682D01*
X93961127Y-77369999D01*
X93961128Y-77370000D01*
X94806988Y-77370000D01*
X94774075Y-77427007D01*
X94740000Y-77554174D01*
X94740000Y-77685826D01*
X94774075Y-77812993D01*
X94806988Y-77870000D01*
X93961128Y-77870000D01*
X94013730Y-78066317D01*
X94013734Y-78066326D01*
X94109865Y-78272482D01*
X94240342Y-78458820D01*
X94401179Y-78619657D01*
X94587518Y-78750134D01*
X94587520Y-78750135D01*
X94645865Y-78777342D01*
X94698305Y-78823514D01*
X94717457Y-78890707D01*
X94697242Y-78957589D01*
X94645867Y-79002105D01*
X94587268Y-79029431D01*
X94587264Y-79029433D01*
X94400858Y-79159954D01*
X94239954Y-79320858D01*
X94109432Y-79507265D01*
X94109431Y-79507267D01*
X94013261Y-79713502D01*
X94013258Y-79713511D01*
X93954366Y-79933302D01*
X93954364Y-79933313D01*
X93934532Y-80159998D01*
X93934532Y-80160001D01*
X93954364Y-80386686D01*
X93954366Y-80386697D01*
X94013258Y-80606488D01*
X94013261Y-80606497D01*
X94109431Y-80812732D01*
X94109432Y-80812734D01*
X94239954Y-80999141D01*
X94400858Y-81160045D01*
X94400861Y-81160047D01*
X94587266Y-81290568D01*
X94645275Y-81317618D01*
X94697714Y-81363791D01*
X94716866Y-81430984D01*
X94696650Y-81497865D01*
X94645275Y-81542382D01*
X94587267Y-81569431D01*
X94587265Y-81569432D01*
X94400858Y-81699954D01*
X94239954Y-81860858D01*
X94109432Y-82047265D01*
X94109431Y-82047267D01*
X94013261Y-82253502D01*
X94013258Y-82253511D01*
X93954366Y-82473302D01*
X93954364Y-82473313D01*
X93934532Y-82699998D01*
X93934532Y-82700001D01*
X93954364Y-82926686D01*
X93954366Y-82926697D01*
X94013258Y-83146488D01*
X94013261Y-83146497D01*
X94109431Y-83352732D01*
X94109432Y-83352734D01*
X94239954Y-83539141D01*
X94400858Y-83700045D01*
X94400861Y-83700047D01*
X94587266Y-83830568D01*
X94645275Y-83857618D01*
X94697714Y-83903791D01*
X94716866Y-83970984D01*
X94696650Y-84037865D01*
X94645275Y-84082382D01*
X94587267Y-84109431D01*
X94587265Y-84109432D01*
X94400858Y-84239954D01*
X94239954Y-84400858D01*
X94109432Y-84587265D01*
X94109431Y-84587267D01*
X94013261Y-84793502D01*
X94013258Y-84793511D01*
X93954366Y-85013302D01*
X93954364Y-85013313D01*
X93934532Y-85239998D01*
X93934532Y-85240001D01*
X93954364Y-85466686D01*
X93954366Y-85466697D01*
X94013258Y-85686488D01*
X94013261Y-85686497D01*
X94109431Y-85892732D01*
X94109432Y-85892734D01*
X94239954Y-86079141D01*
X94400858Y-86240045D01*
X94400861Y-86240047D01*
X94587266Y-86370568D01*
X94645275Y-86397618D01*
X94697714Y-86443791D01*
X94716866Y-86510984D01*
X94696650Y-86577865D01*
X94645275Y-86622382D01*
X94587267Y-86649431D01*
X94587265Y-86649432D01*
X94400858Y-86779954D01*
X94239954Y-86940858D01*
X94109432Y-87127265D01*
X94109431Y-87127267D01*
X94013261Y-87333502D01*
X94013258Y-87333511D01*
X93954366Y-87553302D01*
X93954364Y-87553313D01*
X93934532Y-87779998D01*
X93934532Y-87780001D01*
X93954364Y-88006686D01*
X93954366Y-88006697D01*
X94013258Y-88226488D01*
X94013261Y-88226497D01*
X94109431Y-88432732D01*
X94109432Y-88432734D01*
X94239954Y-88619141D01*
X94400858Y-88780045D01*
X94400861Y-88780047D01*
X94587266Y-88910568D01*
X94645275Y-88937618D01*
X94697714Y-88983791D01*
X94716866Y-89050984D01*
X94696650Y-89117865D01*
X94645275Y-89162382D01*
X94587267Y-89189431D01*
X94587265Y-89189432D01*
X94400858Y-89319954D01*
X94239954Y-89480858D01*
X94109432Y-89667265D01*
X94109431Y-89667267D01*
X94013261Y-89873502D01*
X94013258Y-89873511D01*
X93954366Y-90093302D01*
X93954364Y-90093313D01*
X93934532Y-90319998D01*
X93934532Y-90320001D01*
X93954364Y-90546686D01*
X93954366Y-90546697D01*
X94013258Y-90766488D01*
X94013261Y-90766497D01*
X94109431Y-90972732D01*
X94109432Y-90972734D01*
X94239954Y-91159141D01*
X94400858Y-91320045D01*
X94400861Y-91320047D01*
X94587266Y-91450568D01*
X94645275Y-91477618D01*
X94697714Y-91523791D01*
X94716866Y-91590984D01*
X94696650Y-91657865D01*
X94645275Y-91702382D01*
X94587267Y-91729431D01*
X94587265Y-91729432D01*
X94400858Y-91859954D01*
X94239954Y-92020858D01*
X94109432Y-92207265D01*
X94109431Y-92207267D01*
X94013261Y-92413502D01*
X94013258Y-92413511D01*
X93954366Y-92633302D01*
X93954364Y-92633313D01*
X93934532Y-92859998D01*
X93934532Y-92860001D01*
X93954364Y-93086686D01*
X93954366Y-93086697D01*
X94013258Y-93306488D01*
X94013261Y-93306497D01*
X94109431Y-93512732D01*
X94109432Y-93512734D01*
X94239954Y-93699141D01*
X94400858Y-93860045D01*
X94400861Y-93860047D01*
X94587266Y-93990568D01*
X94645275Y-94017618D01*
X94697714Y-94063791D01*
X94716866Y-94130984D01*
X94696650Y-94197865D01*
X94645275Y-94242382D01*
X94587267Y-94269431D01*
X94587265Y-94269432D01*
X94400858Y-94399954D01*
X94239954Y-94560858D01*
X94109432Y-94747265D01*
X94109431Y-94747267D01*
X94013261Y-94953502D01*
X94013258Y-94953511D01*
X93954366Y-95173302D01*
X93954364Y-95173313D01*
X93934532Y-95399998D01*
X93934532Y-95400001D01*
X93954364Y-95626686D01*
X93954366Y-95626697D01*
X94013258Y-95846488D01*
X94013261Y-95846497D01*
X94109431Y-96052732D01*
X94109432Y-96052734D01*
X94239954Y-96239141D01*
X94400858Y-96400045D01*
X94400861Y-96400047D01*
X94587266Y-96530568D01*
X94645275Y-96557618D01*
X94697714Y-96603791D01*
X94716866Y-96670984D01*
X94696650Y-96737865D01*
X94645275Y-96782382D01*
X94587267Y-96809431D01*
X94587265Y-96809432D01*
X94400858Y-96939954D01*
X94239954Y-97100858D01*
X94109432Y-97287265D01*
X94109431Y-97287267D01*
X94013261Y-97493502D01*
X94013258Y-97493511D01*
X93954366Y-97713302D01*
X93954364Y-97713313D01*
X93934532Y-97939998D01*
X93934532Y-97940001D01*
X93954364Y-98166686D01*
X93954366Y-98166697D01*
X94013258Y-98386488D01*
X94013261Y-98386497D01*
X94109431Y-98592732D01*
X94109432Y-98592734D01*
X94239954Y-98779141D01*
X94400858Y-98940045D01*
X94400861Y-98940047D01*
X94587266Y-99070568D01*
X94645275Y-99097618D01*
X94697714Y-99143791D01*
X94716866Y-99210984D01*
X94696650Y-99277865D01*
X94645275Y-99322381D01*
X94628272Y-99330310D01*
X94587267Y-99349431D01*
X94587265Y-99349432D01*
X94400858Y-99479954D01*
X94239954Y-99640858D01*
X94109432Y-99827265D01*
X94109431Y-99827267D01*
X94013261Y-100033502D01*
X94013258Y-100033511D01*
X93954366Y-100253302D01*
X93954364Y-100253313D01*
X93934532Y-100479998D01*
X93934532Y-100480001D01*
X93954364Y-100706686D01*
X93954366Y-100706697D01*
X94013258Y-100926488D01*
X94013261Y-100926497D01*
X94109431Y-101132732D01*
X94109432Y-101132734D01*
X94239954Y-101319141D01*
X94400858Y-101480045D01*
X94400861Y-101480047D01*
X94587266Y-101610568D01*
X94645275Y-101637618D01*
X94697714Y-101683791D01*
X94716866Y-101750984D01*
X94696650Y-101817865D01*
X94645275Y-101862382D01*
X94587267Y-101889431D01*
X94587265Y-101889432D01*
X94400858Y-102019954D01*
X94239954Y-102180858D01*
X94109432Y-102367265D01*
X94109431Y-102367267D01*
X94013261Y-102573502D01*
X94013258Y-102573511D01*
X93954366Y-102793302D01*
X93954364Y-102793313D01*
X93934532Y-103019998D01*
X93934532Y-103020001D01*
X93954364Y-103246686D01*
X93954366Y-103246697D01*
X94013258Y-103466488D01*
X94013261Y-103466497D01*
X94109431Y-103672732D01*
X94109432Y-103672734D01*
X94239954Y-103859141D01*
X94400858Y-104020045D01*
X94400861Y-104020047D01*
X94587266Y-104150568D01*
X94645275Y-104177618D01*
X94697714Y-104223791D01*
X94716866Y-104290984D01*
X94696650Y-104357865D01*
X94645275Y-104402382D01*
X94587267Y-104429431D01*
X94587265Y-104429432D01*
X94400858Y-104559954D01*
X94239954Y-104720858D01*
X94109432Y-104907265D01*
X94109431Y-104907267D01*
X94013261Y-105113502D01*
X94013258Y-105113511D01*
X93954366Y-105333302D01*
X93954364Y-105333313D01*
X93934532Y-105559998D01*
X93934532Y-105560001D01*
X93954364Y-105786686D01*
X93954366Y-105786697D01*
X94013258Y-106006488D01*
X94013261Y-106006497D01*
X94109431Y-106212732D01*
X94109432Y-106212734D01*
X94239954Y-106399141D01*
X94400858Y-106560045D01*
X94429621Y-106580185D01*
X94587266Y-106690568D01*
X94793504Y-106786739D01*
X95013308Y-106845635D01*
X95175230Y-106859801D01*
X95239998Y-106865468D01*
X95240000Y-106865468D01*
X95240002Y-106865468D01*
X95296673Y-106860509D01*
X95466692Y-106845635D01*
X95686496Y-106786739D01*
X95892734Y-106690568D01*
X96046465Y-106582924D01*
X96112671Y-106560598D01*
X96117588Y-106560500D01*
X99639242Y-106560500D01*
X99706281Y-106580185D01*
X99726923Y-106596819D01*
X99728599Y-106598495D01*
X99825384Y-106666265D01*
X99922165Y-106734032D01*
X99922167Y-106734033D01*
X99922170Y-106734035D01*
X100136337Y-106833903D01*
X100364592Y-106895063D01*
X100552918Y-106911539D01*
X100599999Y-106915659D01*
X100600000Y-106915659D01*
X100600001Y-106915659D01*
X100639234Y-106912226D01*
X100835408Y-106895063D01*
X101063663Y-106833903D01*
X101277830Y-106734035D01*
X101471401Y-106598495D01*
X101638495Y-106431401D01*
X101774035Y-106237830D01*
X101873903Y-106023663D01*
X101935063Y-105795408D01*
X101955659Y-105560000D01*
X101935063Y-105324592D01*
X101873903Y-105096337D01*
X101774035Y-104882171D01*
X101638495Y-104688599D01*
X101638494Y-104688597D01*
X101471402Y-104521506D01*
X101471396Y-104521501D01*
X101285842Y-104391575D01*
X101242217Y-104336998D01*
X101235023Y-104267500D01*
X101266546Y-104205145D01*
X101285842Y-104188425D01*
X101339909Y-104150567D01*
X101471401Y-104058495D01*
X101638495Y-103891401D01*
X101774035Y-103697830D01*
X101873903Y-103483663D01*
X101935063Y-103255408D01*
X101955659Y-103020000D01*
X101935063Y-102784592D01*
X101873903Y-102556337D01*
X101774035Y-102342171D01*
X101638495Y-102148599D01*
X101638494Y-102148597D01*
X101471402Y-101981506D01*
X101471396Y-101981501D01*
X101285842Y-101851575D01*
X101242217Y-101796998D01*
X101235023Y-101727500D01*
X101266546Y-101665145D01*
X101285842Y-101648425D01*
X101339909Y-101610567D01*
X101471401Y-101518495D01*
X101638495Y-101351401D01*
X101774035Y-101157830D01*
X101873903Y-100943663D01*
X101935063Y-100715408D01*
X101955659Y-100480000D01*
X101935063Y-100244592D01*
X101873903Y-100016337D01*
X101774035Y-99802171D01*
X101683813Y-99673319D01*
X101638494Y-99608597D01*
X101471402Y-99441506D01*
X101471396Y-99441501D01*
X101285842Y-99311575D01*
X101242217Y-99256998D01*
X101235023Y-99187500D01*
X101266546Y-99125145D01*
X101285842Y-99108425D01*
X101339909Y-99070567D01*
X101471401Y-98978495D01*
X101638495Y-98811401D01*
X101774035Y-98617830D01*
X101873903Y-98403663D01*
X101935063Y-98175408D01*
X101955659Y-97940000D01*
X101935063Y-97704592D01*
X101873903Y-97476337D01*
X101774035Y-97262171D01*
X101638495Y-97068599D01*
X101638494Y-97068597D01*
X101471402Y-96901506D01*
X101471396Y-96901501D01*
X101285842Y-96771575D01*
X101242217Y-96716998D01*
X101235023Y-96647500D01*
X101266546Y-96585145D01*
X101285842Y-96568425D01*
X101339909Y-96530567D01*
X101471401Y-96438495D01*
X101638495Y-96271401D01*
X101774035Y-96077830D01*
X101873903Y-95863663D01*
X101935063Y-95635408D01*
X101955659Y-95400000D01*
X101935063Y-95164592D01*
X101873903Y-94936337D01*
X101774035Y-94722171D01*
X101638495Y-94528599D01*
X101638494Y-94528597D01*
X101471402Y-94361506D01*
X101471396Y-94361501D01*
X101285842Y-94231575D01*
X101242217Y-94176998D01*
X101235023Y-94107500D01*
X101266546Y-94045145D01*
X101285842Y-94028425D01*
X101339909Y-93990567D01*
X101471401Y-93898495D01*
X101638495Y-93731401D01*
X101774035Y-93537830D01*
X101873903Y-93323663D01*
X101935063Y-93095408D01*
X101955659Y-92860000D01*
X101935063Y-92624592D01*
X101873903Y-92396337D01*
X101774035Y-92182171D01*
X101638495Y-91988599D01*
X101638494Y-91988597D01*
X101471402Y-91821506D01*
X101471396Y-91821501D01*
X101285842Y-91691575D01*
X101242217Y-91636998D01*
X101235023Y-91567500D01*
X101266546Y-91505145D01*
X101285842Y-91488425D01*
X101339909Y-91450567D01*
X101471401Y-91358495D01*
X101638495Y-91191401D01*
X101774035Y-90997830D01*
X101873903Y-90783663D01*
X101935063Y-90555408D01*
X101955659Y-90320000D01*
X101935063Y-90084592D01*
X101873903Y-89856337D01*
X101774035Y-89642171D01*
X101638495Y-89448599D01*
X101638494Y-89448597D01*
X101471402Y-89281506D01*
X101471396Y-89281501D01*
X101285842Y-89151575D01*
X101242217Y-89096998D01*
X101235023Y-89027500D01*
X101266546Y-88965145D01*
X101285842Y-88948425D01*
X101339909Y-88910567D01*
X101471401Y-88818495D01*
X101638495Y-88651401D01*
X101774035Y-88457830D01*
X101873903Y-88243663D01*
X101935063Y-88015408D01*
X101955659Y-87780000D01*
X101935063Y-87544592D01*
X101873903Y-87316337D01*
X101774035Y-87102171D01*
X101638495Y-86908599D01*
X101638494Y-86908597D01*
X101471402Y-86741506D01*
X101471396Y-86741501D01*
X101285842Y-86611575D01*
X101242217Y-86556998D01*
X101235023Y-86487500D01*
X101266546Y-86425145D01*
X101285842Y-86408425D01*
X101339909Y-86370567D01*
X101471401Y-86278495D01*
X101638495Y-86111401D01*
X101774035Y-85917830D01*
X101873903Y-85703663D01*
X101935063Y-85475408D01*
X101955659Y-85240000D01*
X101935063Y-85004592D01*
X101873903Y-84776337D01*
X101774035Y-84562171D01*
X101638495Y-84368599D01*
X101638494Y-84368597D01*
X101471402Y-84201506D01*
X101471396Y-84201501D01*
X101285842Y-84071575D01*
X101242217Y-84016998D01*
X101235023Y-83947500D01*
X101266546Y-83885145D01*
X101285842Y-83868425D01*
X101339909Y-83830567D01*
X101471401Y-83738495D01*
X101638495Y-83571401D01*
X101774035Y-83377830D01*
X101873903Y-83163663D01*
X101935063Y-82935408D01*
X101955659Y-82700000D01*
X101935063Y-82464592D01*
X101873903Y-82236337D01*
X101774035Y-82022171D01*
X101638495Y-81828599D01*
X101638494Y-81828597D01*
X101471402Y-81661506D01*
X101471396Y-81661501D01*
X101285842Y-81531575D01*
X101242217Y-81476998D01*
X101235023Y-81407500D01*
X101266546Y-81345145D01*
X101285842Y-81328425D01*
X101339909Y-81290567D01*
X101471401Y-81198495D01*
X101638495Y-81031401D01*
X101774035Y-80837830D01*
X101873903Y-80623663D01*
X101935063Y-80395408D01*
X101955659Y-80160000D01*
X101935063Y-79924592D01*
X101873903Y-79696337D01*
X101774035Y-79482171D01*
X101638495Y-79288599D01*
X101638494Y-79288597D01*
X101471402Y-79121506D01*
X101471401Y-79121505D01*
X101285405Y-78991269D01*
X101241781Y-78936692D01*
X101234588Y-78867193D01*
X101266110Y-78804839D01*
X101285405Y-78788119D01*
X101471082Y-78658105D01*
X101638105Y-78491082D01*
X101773600Y-78297578D01*
X101873429Y-78083492D01*
X101873432Y-78083486D01*
X101930636Y-77870000D01*
X101033012Y-77870000D01*
X101065925Y-77812993D01*
X101100000Y-77685826D01*
X101100000Y-77554174D01*
X101065925Y-77427007D01*
X101033012Y-77370000D01*
X101930636Y-77370000D01*
X101930635Y-77369999D01*
X101873432Y-77156513D01*
X101873429Y-77156507D01*
X101773600Y-76942422D01*
X101773599Y-76942420D01*
X101638113Y-76748926D01*
X101638108Y-76748920D01*
X101471078Y-76581890D01*
X101285405Y-76451879D01*
X101241780Y-76397302D01*
X101234588Y-76327804D01*
X101266110Y-76265449D01*
X101285406Y-76248730D01*
X101300883Y-76237893D01*
X101471401Y-76118495D01*
X101638495Y-75951401D01*
X101774035Y-75757830D01*
X101873903Y-75543663D01*
X101935063Y-75315408D01*
X101955659Y-75080000D01*
X101935063Y-74844592D01*
X101873903Y-74616337D01*
X101774035Y-74402171D01*
X101649662Y-74224546D01*
X101638494Y-74208597D01*
X101471402Y-74041506D01*
X101471396Y-74041501D01*
X101285842Y-73911575D01*
X101242217Y-73856998D01*
X101235023Y-73787500D01*
X101266546Y-73725145D01*
X101285842Y-73708425D01*
X101405633Y-73624546D01*
X101471401Y-73578495D01*
X101638495Y-73411401D01*
X101774035Y-73217830D01*
X101873903Y-73003663D01*
X101935063Y-72775408D01*
X101955659Y-72540000D01*
X101935063Y-72304592D01*
X101873903Y-72076337D01*
X101774035Y-71862171D01*
X101638495Y-71668599D01*
X101516567Y-71546671D01*
X101483084Y-71485351D01*
X101488068Y-71415659D01*
X101529939Y-71359725D01*
X101560915Y-71342810D01*
X101692331Y-71293796D01*
X101807546Y-71207546D01*
X101893796Y-71092331D01*
X101944091Y-70957483D01*
X101950500Y-70897873D01*
X101950499Y-69102128D01*
X101944091Y-69042517D01*
X101893796Y-68907669D01*
X101893795Y-68907668D01*
X101893793Y-68907664D01*
X101807547Y-68792455D01*
X101807544Y-68792452D01*
X101692335Y-68706206D01*
X101692328Y-68706202D01*
X101557482Y-68655908D01*
X101557483Y-68655908D01*
X101497883Y-68649501D01*
X101497881Y-68649500D01*
X101497873Y-68649500D01*
X101497864Y-68649500D01*
X99702129Y-68649500D01*
X99702123Y-68649501D01*
X99642516Y-68655908D01*
X99507671Y-68706202D01*
X99507664Y-68706206D01*
X99392455Y-68792452D01*
X99392452Y-68792455D01*
X99306206Y-68907664D01*
X99306204Y-68907668D01*
X99306204Y-68907669D01*
X99302039Y-68918834D01*
X99260171Y-68974766D01*
X99194707Y-68999184D01*
X99185859Y-68999500D01*
X96117588Y-68999500D01*
X96050549Y-68979815D01*
X96046465Y-68977075D01*
X96043167Y-68974766D01*
X95892734Y-68869432D01*
X95834876Y-68842452D01*
X95686497Y-68773261D01*
X95686488Y-68773258D01*
X95466697Y-68714366D01*
X95466693Y-68714365D01*
X95466692Y-68714365D01*
X95466691Y-68714364D01*
X95466686Y-68714364D01*
X95240002Y-68694532D01*
X95239998Y-68694532D01*
X95013313Y-68714364D01*
X95013302Y-68714366D01*
X94793511Y-68773258D01*
X94793502Y-68773261D01*
X94587267Y-68869431D01*
X94587265Y-68869432D01*
X94400858Y-68999954D01*
X94239954Y-69160858D01*
X94109432Y-69347265D01*
X94109431Y-69347267D01*
X94013261Y-69553502D01*
X94013258Y-69553511D01*
X93954366Y-69773302D01*
X93954364Y-69773313D01*
X93934532Y-69999998D01*
X91738143Y-69999998D01*
X96533130Y-65205012D01*
X96533139Y-65205007D01*
X96564479Y-65173666D01*
X96564481Y-65173667D01*
X96692131Y-65046017D01*
X96924208Y-64769437D01*
X97131297Y-64473683D01*
X97311820Y-64161005D01*
X97315956Y-64152136D01*
X97799501Y-64152136D01*
X97799501Y-65847871D01*
X97799502Y-65847877D01*
X97805909Y-65907484D01*
X97856203Y-66042329D01*
X97856207Y-66042336D01*
X97942453Y-66157545D01*
X97942456Y-66157548D01*
X98057665Y-66243794D01*
X98057672Y-66243798D01*
X98192518Y-66294092D01*
X98192517Y-66294092D01*
X98199445Y-66294836D01*
X98252128Y-66300501D01*
X99947873Y-66300500D01*
X100007484Y-66294092D01*
X100142332Y-66243797D01*
X100257547Y-66157547D01*
X100343797Y-66042332D01*
X100394092Y-65907484D01*
X100394093Y-65907473D01*
X100395367Y-65902086D01*
X100429939Y-65841369D01*
X100491848Y-65808981D01*
X100561440Y-65815205D01*
X100603726Y-65842916D01*
X100760858Y-66000048D01*
X100760861Y-66000050D01*
X100947266Y-66130571D01*
X101153504Y-66226742D01*
X101373308Y-66285638D01*
X101535230Y-66299804D01*
X101599998Y-66305471D01*
X101600000Y-66305471D01*
X101600002Y-66305471D01*
X101656830Y-66300499D01*
X101826692Y-66285638D01*
X102046496Y-66226742D01*
X102252734Y-66130571D01*
X102439139Y-66000050D01*
X102600047Y-65839142D01*
X102730568Y-65652737D01*
X102826739Y-65446499D01*
X102885635Y-65226695D01*
X102904578Y-65010173D01*
X102905468Y-65000004D01*
X102905468Y-65000001D01*
X102885635Y-64773316D01*
X102885635Y-64773311D01*
X102826739Y-64553507D01*
X102730568Y-64347269D01*
X102620849Y-64190573D01*
X102600045Y-64160861D01*
X102439141Y-63999957D01*
X102252734Y-63869435D01*
X102252732Y-63869434D01*
X102046497Y-63773264D01*
X102046488Y-63773261D01*
X101826697Y-63714369D01*
X101826693Y-63714368D01*
X101826692Y-63714368D01*
X101826691Y-63714367D01*
X101826686Y-63714367D01*
X101600002Y-63694535D01*
X101599998Y-63694535D01*
X101373313Y-63714367D01*
X101373302Y-63714369D01*
X101153511Y-63773261D01*
X101153502Y-63773264D01*
X100947267Y-63869434D01*
X100947265Y-63869435D01*
X100760862Y-63999954D01*
X100603727Y-64157089D01*
X100542404Y-64190573D01*
X100472712Y-64185589D01*
X100416779Y-64143717D01*
X100395369Y-64097923D01*
X100394091Y-64092514D01*
X100343798Y-63957672D01*
X100343794Y-63957665D01*
X100257548Y-63842456D01*
X100257545Y-63842453D01*
X100142336Y-63756207D01*
X100142329Y-63756203D01*
X100007483Y-63705909D01*
X100007484Y-63705909D01*
X99947884Y-63699502D01*
X99947882Y-63699501D01*
X99947874Y-63699501D01*
X99947865Y-63699501D01*
X98252130Y-63699501D01*
X98252124Y-63699502D01*
X98192517Y-63705909D01*
X98057672Y-63756203D01*
X98057665Y-63756207D01*
X97942456Y-63842453D01*
X97942453Y-63842456D01*
X97856207Y-63957665D01*
X97856203Y-63957672D01*
X97805909Y-64092518D01*
X97799502Y-64152117D01*
X97799501Y-64152136D01*
X97315956Y-64152136D01*
X97315960Y-64152128D01*
X97416985Y-63935478D01*
X97464406Y-63833784D01*
X97492642Y-63756207D01*
X97507869Y-63714369D01*
X97587891Y-63494509D01*
X97681337Y-63145763D01*
X97744033Y-62790199D01*
X97775500Y-62430524D01*
X97775500Y-62250000D01*
X97775500Y-62163771D01*
X97775500Y-61713601D01*
X97775501Y-61713560D01*
X97775501Y-61707464D01*
X97775502Y-61707459D01*
X97775501Y-61672611D01*
X97775521Y-61672540D01*
X97775520Y-61621229D01*
X97775521Y-61621229D01*
X97775517Y-61474276D01*
X97772493Y-61447447D01*
X97764993Y-61380895D01*
X97742603Y-61182219D01*
X97742601Y-61182210D01*
X97742601Y-61182208D01*
X97677199Y-60895693D01*
X97677197Y-60895684D01*
X97580122Y-60618273D01*
X97580118Y-60618264D01*
X97452600Y-60353479D01*
X97452597Y-60353474D01*
X97296229Y-60104619D01*
X97296227Y-60104617D01*
X97276556Y-60079951D01*
X97112979Y-59874835D01*
X97070042Y-59831898D01*
X96848005Y-59609861D01*
X96848000Y-59609852D01*
X96775811Y-59537663D01*
X96742326Y-59476340D01*
X96747310Y-59406648D01*
X96775814Y-59362298D01*
X96781691Y-59356422D01*
X96802974Y-59335139D01*
X97077812Y-59017961D01*
X97329322Y-58681985D01*
X97556224Y-58328922D01*
X97757360Y-57960573D01*
X97931706Y-57578812D01*
X98078373Y-57185587D01*
X98196614Y-56782901D01*
X98202061Y-56757865D01*
X98285826Y-56372810D01*
X98290550Y-56339954D01*
X98345557Y-55957390D01*
X98375499Y-55538772D01*
X98375500Y-55328928D01*
X98375500Y-55242699D01*
X98375500Y-52693906D01*
X98395185Y-52626867D01*
X98423338Y-52596052D01*
X98451784Y-52573913D01*
X98608979Y-52403153D01*
X98735924Y-52208849D01*
X98829157Y-51996300D01*
X98886134Y-51771305D01*
X98886135Y-51771297D01*
X98905300Y-51540006D01*
X98905300Y-51539993D01*
X98886135Y-51308702D01*
X98886133Y-51308691D01*
X98829157Y-51083699D01*
X98735924Y-50871151D01*
X98608983Y-50676852D01*
X98608980Y-50676849D01*
X98608979Y-50676847D01*
X98514195Y-50573884D01*
X98483275Y-50511232D01*
X98491135Y-50441806D01*
X98535283Y-50387651D01*
X98562095Y-50373722D01*
X98642326Y-50343798D01*
X98642326Y-50343797D01*
X98642331Y-50343796D01*
X98757546Y-50257546D01*
X98827899Y-50163565D01*
X98883832Y-50121696D01*
X98953524Y-50116712D01*
X98954005Y-50116818D01*
X99038784Y-50135614D01*
X99049226Y-50138411D01*
X99371675Y-50240081D01*
X99381826Y-50243776D01*
X99438532Y-50267265D01*
X99694181Y-50373160D01*
X99703985Y-50377732D01*
X100003873Y-50533845D01*
X100013220Y-50539242D01*
X100230765Y-50677834D01*
X100298372Y-50720905D01*
X100307233Y-50727110D01*
X100575449Y-50932922D01*
X100583735Y-50939875D01*
X100670523Y-51019402D01*
X100706651Y-51079206D01*
X100710278Y-51100015D01*
X100714361Y-51146685D01*
X100714363Y-51146695D01*
X100773255Y-51366486D01*
X100773258Y-51366495D01*
X100869428Y-51572730D01*
X100869429Y-51572732D01*
X100999951Y-51759139D01*
X101160855Y-51920043D01*
X101160858Y-51920045D01*
X101347263Y-52050566D01*
X101553501Y-52146737D01*
X101773305Y-52205633D01*
X101935227Y-52219799D01*
X101999995Y-52225466D01*
X101999997Y-52225466D01*
X101999999Y-52225466D01*
X102056670Y-52220507D01*
X102226689Y-52205633D01*
X102446493Y-52146737D01*
X102652731Y-52050566D01*
X102839136Y-51920045D01*
X103000044Y-51759137D01*
X103130565Y-51572732D01*
X103226736Y-51366494D01*
X103255725Y-51258304D01*
X103292090Y-51198644D01*
X103354937Y-51168115D01*
X103424312Y-51176410D01*
X103478190Y-51220895D01*
X103499465Y-51287447D01*
X103499500Y-51290398D01*
X103499500Y-60709597D01*
X103479815Y-60776636D01*
X103427011Y-60822391D01*
X103357853Y-60832335D01*
X103294297Y-60803310D01*
X103256523Y-60744532D01*
X103255725Y-60741690D01*
X103226738Y-60633509D01*
X103226735Y-60633500D01*
X103130565Y-60427264D01*
X103000044Y-60240859D01*
X103000042Y-60240856D01*
X102839138Y-60079952D01*
X102652731Y-59949430D01*
X102652729Y-59949429D01*
X102446494Y-59853259D01*
X102446485Y-59853256D01*
X102226694Y-59794364D01*
X102226690Y-59794363D01*
X102226689Y-59794363D01*
X102226688Y-59794362D01*
X102226683Y-59794362D01*
X101999999Y-59774530D01*
X101999995Y-59774530D01*
X101773310Y-59794362D01*
X101773299Y-59794364D01*
X101553508Y-59853256D01*
X101553499Y-59853259D01*
X101347264Y-59949429D01*
X101347262Y-59949430D01*
X101160855Y-60079952D01*
X100999951Y-60240856D01*
X100869429Y-60427263D01*
X100869428Y-60427265D01*
X100773258Y-60633500D01*
X100773255Y-60633509D01*
X100714363Y-60853300D01*
X100714361Y-60853311D01*
X100694529Y-61079996D01*
X100694529Y-61079999D01*
X100714361Y-61306684D01*
X100714363Y-61306695D01*
X100773255Y-61526486D01*
X100773258Y-61526495D01*
X100869428Y-61732730D01*
X100869429Y-61732732D01*
X100999951Y-61919139D01*
X101160855Y-62080043D01*
X101160858Y-62080045D01*
X101347263Y-62210566D01*
X101553501Y-62306737D01*
X101773305Y-62365633D01*
X101935227Y-62379799D01*
X101999995Y-62385466D01*
X101999997Y-62385466D01*
X101999999Y-62385466D01*
X102056670Y-62380507D01*
X102226689Y-62365633D01*
X102446493Y-62306737D01*
X102652731Y-62210566D01*
X102839136Y-62080045D01*
X103000044Y-61919137D01*
X103130565Y-61732732D01*
X103226736Y-61526494D01*
X103255725Y-61418304D01*
X103292090Y-61358644D01*
X103354937Y-61328115D01*
X103424312Y-61336410D01*
X103478190Y-61380895D01*
X103499465Y-61447447D01*
X103499500Y-61450398D01*
X103499500Y-104997293D01*
X103499382Y-105002702D01*
X103482614Y-105386750D01*
X103481671Y-105397526D01*
X103431849Y-105775957D01*
X103429971Y-105786610D01*
X103347354Y-106159272D01*
X103344554Y-106169721D01*
X103229775Y-106533755D01*
X103226075Y-106543921D01*
X103080002Y-106896572D01*
X103075430Y-106906376D01*
X102899183Y-107244942D01*
X102893775Y-107254310D01*
X102688681Y-107576244D01*
X102682476Y-107585105D01*
X102450110Y-107887930D01*
X102443156Y-107896217D01*
X102185284Y-108177635D01*
X102177635Y-108185284D01*
X101896217Y-108443156D01*
X101887930Y-108450110D01*
X101585105Y-108682476D01*
X101576244Y-108688681D01*
X101254310Y-108893775D01*
X101244942Y-108899183D01*
X100906376Y-109075430D01*
X100896572Y-109080002D01*
X100543921Y-109226075D01*
X100533755Y-109229775D01*
X100169721Y-109344554D01*
X100159272Y-109347354D01*
X99786610Y-109429971D01*
X99775957Y-109431849D01*
X99397526Y-109481671D01*
X99386750Y-109482614D01*
X99002703Y-109499382D01*
X98997294Y-109499500D01*
X76002706Y-109499500D01*
X75997297Y-109499382D01*
X75613249Y-109482614D01*
X75602473Y-109481671D01*
X75224042Y-109431849D01*
X75213389Y-109429971D01*
X74840727Y-109347354D01*
X74830278Y-109344554D01*
X74466244Y-109229775D01*
X74456078Y-109226075D01*
X74103427Y-109080002D01*
X74093623Y-109075430D01*
X73755057Y-108899183D01*
X73745689Y-108893775D01*
X73423755Y-108688681D01*
X73414894Y-108682476D01*
X73112069Y-108450110D01*
X73103782Y-108443156D01*
X72822364Y-108185284D01*
X72814715Y-108177635D01*
X72556843Y-107896217D01*
X72549889Y-107887930D01*
X72317523Y-107585105D01*
X72311318Y-107576244D01*
X72106224Y-107254310D01*
X72100816Y-107244942D01*
X71973924Y-107001185D01*
X71924566Y-106906369D01*
X71919997Y-106896572D01*
X71919371Y-106895061D01*
X71773920Y-106543911D01*
X71770224Y-106533755D01*
X71655442Y-106169710D01*
X71652648Y-106159284D01*
X71570025Y-105786597D01*
X71568152Y-105775971D01*
X71518326Y-105397506D01*
X71517386Y-105386771D01*
X71500618Y-105002702D01*
X71500500Y-104997293D01*
X71500500Y-49002700D01*
X71500618Y-48997291D01*
X71502180Y-48961505D01*
X71517386Y-48613227D01*
X71518326Y-48602495D01*
X71568152Y-48224025D01*
X71570025Y-48213405D01*
X71652649Y-47840709D01*
X71655440Y-47830295D01*
X71770230Y-47466227D01*
X71773917Y-47456095D01*
X71920003Y-47103412D01*
X71924561Y-47093638D01*
X72100822Y-46755045D01*
X72106217Y-46745700D01*
X72311325Y-46423744D01*
X72317515Y-46414905D01*
X72549896Y-46112060D01*
X72556834Y-46103791D01*
X72814726Y-45822352D01*
X72822352Y-45814726D01*
X73103791Y-45556834D01*
X73112060Y-45549896D01*
X73414905Y-45317515D01*
X73423744Y-45311325D01*
X73745700Y-45106217D01*
X73755045Y-45100822D01*
X74093638Y-44924561D01*
X74103412Y-44920003D01*
X74456095Y-44773917D01*
X74466227Y-44770230D01*
X74830295Y-44655440D01*
X74840709Y-44652649D01*
X75213405Y-44570025D01*
X75224025Y-44568152D01*
X75602495Y-44518326D01*
X75613226Y-44517386D01*
X75997297Y-44500617D01*
X76002706Y-44500500D01*
X76065892Y-44500500D01*
X98934108Y-44500500D01*
X98997294Y-44500500D01*
X99002702Y-44500617D01*
G37*
%TD.AperFunction*%
%TD*%
M02*
