M48
; DRILL file {KiCad 8.0.7} date 2025-01-29T15:55:00-0800
; FORMAT={-:-/ absolute / inch / decimal}
; #@! TF.CreationDate,2025-01-29T15:55:00-08:00
; #@! TF.GenerationSoftware,Kicad,Pcbnew,8.0.7
; #@! TF.FileFunction,Plated,1,2,PTH
FMAT,2
INCH
; #@! TA.AperFunction,Plated,PTH,ComponentDrill
T1C0.0315
; #@! TA.AperFunction,Plated,PTH,ComponentDrill
T2C0.0354
; #@! TA.AperFunction,Plated,PTH,ComponentDrill
T3C0.0394
%
G90
G05
T1
X2.9409Y-1.8961
X2.9409Y-1.9961
X2.9409Y-2.0961
X2.9409Y-2.1961
X2.9409Y-2.2961
X2.9409Y-2.3961
X2.9409Y-2.4961
X3.2409Y-1.8961
X3.2409Y-1.9961
X3.2409Y-2.0961
X3.2409Y-2.1961
X3.2409Y-2.2961
X3.2409Y-2.3961
X3.2409Y-2.4961
X3.4409Y-2.4575
X3.4409Y-2.1575
X3.4409Y-2.2575
X3.4409Y-2.3575
X3.7409Y-2.4575
X3.7409Y-2.2575
X3.7409Y-2.3575
X3.7409Y-2.1575
X3.9016Y-2.5591
X4.0Y-2.5591
X4.0157Y-2.0047
X4.0157Y-2.4047
T2
X3.8465Y-1.9291
X3.8465Y-2.0291
T3
X2.9449Y-2.7559
X2.9449Y-2.8559
X2.9449Y-2.9559
X2.9449Y-3.0559
X2.9449Y-3.1559
X2.9449Y-3.2559
X2.9449Y-3.3559
X2.9449Y-3.4559
X2.9449Y-3.5559
X2.9449Y-3.6559
X2.9449Y-3.7559
X2.9449Y-3.8559
X2.9449Y-3.9559
X2.9449Y-4.0559
X2.9449Y-4.1559
X3.1496Y-2.7559
X3.1496Y-2.8559
X3.1496Y-2.9559
X3.1496Y-3.0559
X3.1496Y-3.1559
X3.1496Y-3.2559
X3.1496Y-3.3559
X3.1496Y-3.4559
X3.1496Y-3.5559
X3.1496Y-3.6559
X3.1496Y-3.7559
X3.1496Y-3.8559
X3.1496Y-3.9559
X3.1496Y-4.0559
X3.1496Y-4.1559
X3.4654Y-1.8882
X3.4654Y-1.9882
X3.5654Y-1.8882
X3.5654Y-1.9882
X3.6654Y-1.8882
X3.6654Y-1.9882
X3.7496Y-2.7559
X3.7496Y-2.8559
X3.7496Y-2.9559
X3.7496Y-3.0559
X3.7496Y-3.1559
X3.7496Y-3.2559
X3.7496Y-3.3559
X3.7496Y-3.4559
X3.7496Y-3.5559
X3.7496Y-3.6559
X3.7496Y-3.7559
X3.7496Y-3.8559
X3.7496Y-3.9559
X3.7496Y-4.0559
X3.7496Y-4.1559
X3.9606Y-2.7559
X3.9606Y-2.8559
X3.9606Y-2.9559
X3.9606Y-3.0559
X3.9606Y-3.1559
X3.9606Y-3.2559
X3.9606Y-3.3559
X3.9606Y-3.4559
X3.9606Y-3.5559
X3.9606Y-3.6559
X3.9606Y-3.7559
X3.9606Y-3.8559
X3.9606Y-3.9559
X3.9606Y-4.0559
X3.9606Y-4.1559
M30
