M48
; DRILL file {KiCad 9.0.0} date 2025-03-04T00:13:21-0800
; FORMAT={-:-/ absolute / inch / decimal}
; #@! TF.CreationDate,2025-03-04T00:13:21-08:00
; #@! TF.GenerationSoftware,Kicad,Pcbnew,9.0.0
; #@! TF.FileFunction,Plated,1,2,PTH
FMAT,2
INCH
; #@! TA.AperFunction,Plated,PTH,ComponentDrill
T1C0.0310
; #@! TA.AperFunction,Plated,PTH,ComponentDrill
T2C0.0315
; #@! TA.AperFunction,Plated,PTH,ComponentDrill
T3C0.0354
; #@! TA.AperFunction,Plated,PTH,ComponentDrill
T4C0.0394
; #@! TA.AperFunction,Plated,PTH,ComponentDrill
T5C0.0590
%
G90
G05
T1
X5.2244Y-2.8071
X5.2244Y-2.8858
X5.2244Y-2.9646
T2
X4.0179Y-2.2888
X4.0179Y-2.5888
X4.0215Y-2.8602
X4.1179Y-2.2888
X4.1179Y-2.5888
X4.2179Y-2.2888
X4.2179Y-2.5888
X4.3179Y-2.2888
X4.3179Y-2.5888
X4.4179Y-2.2888
X4.4179Y-2.5888
X4.4215Y-2.8602
X4.5179Y-2.2888
X4.5179Y-2.5888
X4.6179Y-2.2888
X4.6179Y-2.5888
X4.8793Y-2.2876
X4.8793Y-2.5876
X4.9252Y-2.8701
X4.9793Y-2.2876
X4.9793Y-2.5876
X5.0236Y-2.8701
X5.0793Y-2.2876
X5.0793Y-2.5876
X5.1793Y-2.5876
X5.1793Y-2.2876
T3
X4.5896Y-2.8612
X4.6896Y-2.8612
T4
X4.126Y-3.1496
X4.126Y-3.2496
X4.126Y-3.3496
X4.126Y-3.4496
X4.126Y-3.5496
X4.126Y-3.6496
X4.126Y-3.7496
X4.126Y-3.8496
X4.126Y-3.9496
X4.126Y-4.0496
X4.126Y-4.1496
X4.126Y-4.2496
X4.126Y-4.3496
X4.126Y-4.4496
X4.126Y-4.5496
X4.3307Y-3.1496
X4.3307Y-3.2496
X4.3307Y-3.3496
X4.3307Y-3.4496
X4.3307Y-3.5496
X4.3307Y-3.6496
X4.3307Y-3.7496
X4.3307Y-3.8496
X4.3307Y-3.9496
X4.3307Y-4.0496
X4.3307Y-4.1496
X4.3307Y-4.2496
X4.3307Y-4.3496
X4.3307Y-4.4496
X4.3307Y-4.5496
X4.6112Y-1.9207
X4.6112Y-2.0207
X4.7112Y-1.9207
X4.7112Y-2.0207
X4.8112Y-1.9207
X4.8112Y-2.0207
X4.9307Y-3.1496
X4.9307Y-3.2496
X4.9307Y-3.3496
X4.9307Y-3.4496
X4.9307Y-3.5496
X4.9307Y-3.6496
X4.9307Y-3.7496
X4.9307Y-3.8496
X4.9307Y-3.9496
X4.9307Y-4.0496
X4.9307Y-4.1496
X4.9307Y-4.2496
X4.9307Y-4.3496
X4.9307Y-4.4496
X4.9307Y-4.5496
X5.1417Y-3.1496
X5.1417Y-3.2496
X5.1417Y-3.3496
X5.1417Y-3.4496
X5.1417Y-3.5496
X5.1417Y-3.6496
X5.1417Y-3.7496
X5.1417Y-3.8496
X5.1417Y-3.9496
X5.1417Y-4.0496
X5.1417Y-4.1496
X5.1417Y-4.2496
X5.1417Y-4.3496
X5.1417Y-4.4496
X5.1417Y-4.5496
T5
X5.2244Y-2.7244
X5.2244Y-3.0472
M30
