%TF.GenerationSoftware,KiCad,Pcbnew,9.0.0*%
%TF.CreationDate,2025-03-04T00:13:22-08:00*%
%TF.ProjectId,NanoProgrammers,4e616e6f-5072-46f6-9772-616d6d657273,rev?*%
%TF.SameCoordinates,Original*%
%TF.FileFunction,Soldermask,Bot*%
%TF.FilePolarity,Negative*%
%FSLAX46Y46*%
G04 Gerber Fmt 4.6, Leading zero omitted, Abs format (unit mm)*
G04 Created by KiCad (PCBNEW 9.0.0) date 2025-03-04 00:13:22*
%MOMM*%
%LPD*%
G01*
G04 APERTURE LIST*
%ADD10R,1.800000X1.800000*%
%ADD11C,1.800000*%
%ADD12R,1.295400X1.295400*%
%ADD13C,1.295400*%
%ADD14C,1.498600*%
%ADD15R,1.600000X1.600000*%
%ADD16O,1.600000X1.600000*%
%ADD17R,1.700000X1.700000*%
%ADD18O,1.700000X1.700000*%
%ADD19C,1.600000*%
G04 APERTURE END LIST*
D10*
%TO.C,D1*%
X116575000Y-72675000D03*
D11*
X119115000Y-72675000D03*
%TD*%
D12*
%TO.C,SW1*%
X132700000Y-75300000D03*
D13*
X132700000Y-73300000D03*
X132700000Y-71299999D03*
D14*
X132700000Y-77400001D03*
X132700000Y-69200000D03*
%TD*%
D15*
%TO.C,U1*%
X117295000Y-58135000D03*
D16*
X114755000Y-58135000D03*
X112215000Y-58135000D03*
X109675000Y-58135000D03*
X107135000Y-58135000D03*
X104595000Y-58135000D03*
X102055000Y-58135000D03*
X102055000Y-65755000D03*
X104595000Y-65755000D03*
X107135000Y-65755000D03*
X109675000Y-65755000D03*
X112215000Y-65755000D03*
X114755000Y-65755000D03*
X117295000Y-65755000D03*
%TD*%
D17*
%TO.C,J3*%
X117125000Y-51325000D03*
D18*
X117125000Y-48785000D03*
X119665000Y-51325000D03*
X119665000Y-48785000D03*
X122205000Y-51325000D03*
X122205000Y-48785000D03*
%TD*%
D15*
%TO.C,U2*%
X131555000Y-58105000D03*
D16*
X129014999Y-58105000D03*
X126474999Y-58105002D03*
X123934996Y-58104998D03*
X123935001Y-65724995D03*
X126475006Y-65724998D03*
X129015000Y-65724997D03*
X131554998Y-65725004D03*
%TD*%
D15*
%TO.C,C1*%
X127600000Y-72900000D03*
D19*
X125100001Y-72899998D03*
%TD*%
D15*
%TO.C,A1*%
X110000000Y-80000000D03*
D16*
X110000000Y-82540000D03*
X110000000Y-85080000D03*
X110000000Y-87620000D03*
X110000000Y-90160000D03*
X110000000Y-92700000D03*
X110000000Y-95240000D03*
X110000000Y-97780000D03*
X110000000Y-100320000D03*
X110000000Y-102860000D03*
X110000000Y-105400000D03*
X110000000Y-107940000D03*
X110000000Y-110480000D03*
X110000000Y-113020000D03*
X110000000Y-115560000D03*
X125240000Y-115560000D03*
X125240000Y-113020000D03*
X125240000Y-110480000D03*
X125240000Y-107940000D03*
X125240000Y-105400000D03*
X125240000Y-102860000D03*
X125240000Y-100320000D03*
X125240000Y-97780000D03*
X125240000Y-95240000D03*
X125240000Y-92700000D03*
X125240000Y-90160000D03*
X125240000Y-87620000D03*
X125240000Y-85080000D03*
X125240000Y-82540000D03*
X125240000Y-80000000D03*
%TD*%
D19*
%TO.C,R1*%
X112305000Y-72650000D03*
D16*
X102145000Y-72650000D03*
%TD*%
D17*
%TO.C,J1*%
X104800000Y-80000000D03*
D18*
X104800000Y-82540000D03*
X104800000Y-85080000D03*
X104800000Y-87620000D03*
X104800000Y-90160000D03*
X104800000Y-92700000D03*
X104800000Y-95240000D03*
X104800000Y-97780000D03*
X104800000Y-100320000D03*
X104800000Y-102860000D03*
X104800000Y-105400000D03*
X104800000Y-107940000D03*
X104800000Y-110480000D03*
X104800000Y-113020000D03*
X104800000Y-115560000D03*
%TD*%
D17*
%TO.C,J2*%
X130600000Y-80000000D03*
D18*
X130600000Y-82540000D03*
X130600000Y-85080000D03*
X130600000Y-87620000D03*
X130600000Y-90160000D03*
X130600000Y-92700000D03*
X130600000Y-95240000D03*
X130600000Y-97780000D03*
X130600000Y-100320000D03*
X130600000Y-102860000D03*
X130600000Y-105400000D03*
X130600000Y-107940000D03*
X130600000Y-110480000D03*
X130600000Y-113020000D03*
X130600000Y-115560000D03*
%TD*%
M02*
