%TF.GenerationSoftware,KiCad,Pcbnew,9.0.0*%
%TF.CreationDate,2025-03-04T00:13:22-08:00*%
%TF.ProjectId,NanoProgrammers,4e616e6f-5072-46f6-9772-616d6d657273,rev?*%
%TF.SameCoordinates,Original*%
%TF.FileFunction,Copper,L2,Bot*%
%TF.FilePolarity,Positive*%
%FSLAX46Y46*%
G04 Gerber Fmt 4.6, Leading zero omitted, Abs format (unit mm)*
G04 Created by KiCad (PCBNEW 9.0.0) date 2025-03-04 00:13:22*
%MOMM*%
%LPD*%
G01*
G04 APERTURE LIST*
%TA.AperFunction,ComponentPad*%
%ADD10R,1.800000X1.800000*%
%TD*%
%TA.AperFunction,ComponentPad*%
%ADD11C,1.800000*%
%TD*%
%TA.AperFunction,ComponentPad*%
%ADD12R,1.295400X1.295400*%
%TD*%
%TA.AperFunction,ComponentPad*%
%ADD13C,1.295400*%
%TD*%
%TA.AperFunction,ComponentPad*%
%ADD14C,1.498600*%
%TD*%
%TA.AperFunction,ComponentPad*%
%ADD15R,1.600000X1.600000*%
%TD*%
%TA.AperFunction,ComponentPad*%
%ADD16O,1.600000X1.600000*%
%TD*%
%TA.AperFunction,ComponentPad*%
%ADD17R,1.700000X1.700000*%
%TD*%
%TA.AperFunction,ComponentPad*%
%ADD18O,1.700000X1.700000*%
%TD*%
%TA.AperFunction,ComponentPad*%
%ADD19C,1.600000*%
%TD*%
%TA.AperFunction,Conductor*%
%ADD20C,1.000000*%
%TD*%
%TA.AperFunction,Conductor*%
%ADD21C,0.750000*%
%TD*%
%TA.AperFunction,Conductor*%
%ADD22C,1.500000*%
%TD*%
G04 APERTURE END LIST*
D10*
%TO.P,D1,1,K*%
%TO.N,Net-(D1-K)*%
X116575000Y-72675000D03*
D11*
%TO.P,D1,2,A*%
%TO.N,/MISO*%
X119115000Y-72675000D03*
%TD*%
D12*
%TO.P,SW1,1,1*%
%TO.N,/RST*%
X132700000Y-75300000D03*
D13*
%TO.P,SW1,2,2*%
%TO.N,Net-(C1-Pad1)*%
X132700000Y-73300000D03*
%TO.P,SW1,3,3*%
X132700000Y-71299999D03*
D14*
%TO.P,SW1,4*%
%TO.N,N/C*%
X132700000Y-77400001D03*
%TO.P,SW1,5*%
X132700000Y-69200000D03*
%TD*%
D15*
%TO.P,U1,1,VCC*%
%TO.N,+5V*%
X117295000Y-58135000D03*
D16*
%TO.P,U1,2,XTAL1/PB0*%
%TO.N,unconnected-(U1-XTAL1{slash}PB0-Pad2)*%
X114755000Y-58135000D03*
%TO.P,U1,3,XTAL2/PB1*%
%TO.N,unconnected-(U1-XTAL2{slash}PB1-Pad3)*%
X112215000Y-58135000D03*
%TO.P,U1,4,~{RESET}/PB3*%
%TO.N,/SS*%
X109675000Y-58135000D03*
%TO.P,U1,5,PB2*%
%TO.N,unconnected-(U1-PB2-Pad5)*%
X107135000Y-58135000D03*
%TO.P,U1,6,PA7*%
%TO.N,unconnected-(U1-PA7-Pad6)*%
X104595000Y-58135000D03*
%TO.P,U1,7,PA6*%
%TO.N,/MOSI*%
X102055000Y-58135000D03*
%TO.P,U1,8,PA5*%
%TO.N,/MISO*%
X102055000Y-65755000D03*
%TO.P,U1,9,PA4*%
%TO.N,/SCK*%
X104595000Y-65755000D03*
%TO.P,U1,10,PA3*%
%TO.N,unconnected-(U1-PA3-Pad10)*%
X107135000Y-65755000D03*
%TO.P,U1,11,PA2*%
%TO.N,unconnected-(U1-PA2-Pad11)*%
X109675000Y-65755000D03*
%TO.P,U1,12,PA1*%
%TO.N,unconnected-(U1-PA1-Pad12)*%
X112215000Y-65755000D03*
%TO.P,U1,13,AREF/PA0*%
%TO.N,unconnected-(U1-AREF{slash}PA0-Pad13)*%
X114755000Y-65755000D03*
%TO.P,U1,14,GND*%
%TO.N,GND*%
X117295000Y-65755000D03*
%TD*%
D17*
%TO.P,J3,1,Pin_1*%
%TO.N,/MISO*%
X117125000Y-51325000D03*
D18*
%TO.P,J3,2,Pin_2*%
%TO.N,+5V*%
X117125000Y-48785000D03*
%TO.P,J3,3,Pin_3*%
%TO.N,/SCK*%
X119665000Y-51325000D03*
%TO.P,J3,4,Pin_4*%
%TO.N,/MOSI*%
X119665000Y-48785000D03*
%TO.P,J3,5,Pin_5*%
%TO.N,/SS*%
X122205000Y-51325000D03*
%TO.P,J3,6,Pin_6*%
%TO.N,GND*%
X122205000Y-48785000D03*
%TD*%
D15*
%TO.P,U2,1,~{RESET}/PB5*%
%TO.N,/SS*%
X131555000Y-58105000D03*
D16*
%TO.P,U2,2,XTAL1/PB3*%
%TO.N,unconnected-(U2-XTAL1{slash}PB3-Pad2)*%
X129014999Y-58105000D03*
%TO.P,U2,3,XTAL2/PB4*%
%TO.N,unconnected-(U2-XTAL2{slash}PB4-Pad3)*%
X126474999Y-58105002D03*
%TO.P,U2,4,GND*%
%TO.N,GND*%
X123934996Y-58104998D03*
%TO.P,U2,5,AREF/PB0*%
%TO.N,/MOSI*%
X123935001Y-65724995D03*
%TO.P,U2,6,PB1*%
%TO.N,/MISO*%
X126475006Y-65724998D03*
%TO.P,U2,7,PB2*%
%TO.N,/SCK*%
X129015000Y-65724997D03*
%TO.P,U2,8,VCC*%
%TO.N,+5V*%
X131554998Y-65725004D03*
%TD*%
D15*
%TO.P,C1,1*%
%TO.N,Net-(C1-Pad1)*%
X127600000Y-72900000D03*
D19*
%TO.P,C1,2*%
%TO.N,GND*%
X125100001Y-72899998D03*
%TD*%
D15*
%TO.P,A1,1,D1/TX*%
%TO.N,Net-(A1-D1{slash}TX)*%
X110000000Y-80000000D03*
D16*
%TO.P,A1,2,D0/RX*%
%TO.N,Net-(A1-D0{slash}RX)*%
X110000000Y-82540000D03*
%TO.P,A1,3,~{RESET}*%
%TO.N,/RST*%
X110000000Y-85080000D03*
%TO.P,A1,4,GND*%
%TO.N,GND*%
X110000000Y-87620000D03*
%TO.P,A1,5,D2*%
%TO.N,Net-(A1-D2)*%
X110000000Y-90160000D03*
%TO.P,A1,6,D3*%
%TO.N,Net-(A1-D3)*%
X110000000Y-92700000D03*
%TO.P,A1,7,D4*%
%TO.N,Net-(A1-D4)*%
X110000000Y-95240000D03*
%TO.P,A1,8,D5*%
%TO.N,Net-(A1-D5)*%
X110000000Y-97780000D03*
%TO.P,A1,9,D6*%
%TO.N,Net-(A1-D6)*%
X110000000Y-100320000D03*
%TO.P,A1,10,D7*%
%TO.N,Net-(A1-D7)*%
X110000000Y-102860000D03*
%TO.P,A1,11,D8*%
%TO.N,Net-(A1-D8)*%
X110000000Y-105400000D03*
%TO.P,A1,12,D9*%
%TO.N,Net-(A1-D9)*%
X110000000Y-107940000D03*
%TO.P,A1,13,D10*%
%TO.N,/SS*%
X110000000Y-110480000D03*
%TO.P,A1,14,D11*%
%TO.N,/MOSI*%
X110000000Y-113020000D03*
%TO.P,A1,15,D12*%
%TO.N,/MISO*%
X110000000Y-115560000D03*
%TO.P,A1,16,D13*%
%TO.N,/SCK*%
X125240000Y-115560000D03*
%TO.P,A1,17,3V3*%
%TO.N,Net-(A1-3V3)*%
X125240000Y-113020000D03*
%TO.P,A1,18,AREF*%
%TO.N,Net-(A1-AREF)*%
X125240000Y-110480000D03*
%TO.P,A1,19,A0*%
%TO.N,Net-(A1-A0)*%
X125240000Y-107940000D03*
%TO.P,A1,20,A1*%
%TO.N,Net-(A1-A1)*%
X125240000Y-105400000D03*
%TO.P,A1,21,A2*%
%TO.N,Net-(A1-A2)*%
X125240000Y-102860000D03*
%TO.P,A1,22,A3*%
%TO.N,Net-(A1-A3)*%
X125240000Y-100320000D03*
%TO.P,A1,23,A4*%
%TO.N,Net-(A1-A4)*%
X125240000Y-97780000D03*
%TO.P,A1,24,A5*%
%TO.N,Net-(A1-A5)*%
X125240000Y-95240000D03*
%TO.P,A1,25,A6*%
%TO.N,Net-(A1-A6)*%
X125240000Y-92700000D03*
%TO.P,A1,26,A7*%
%TO.N,Net-(A1-A7)*%
X125240000Y-90160000D03*
%TO.P,A1,27,+5V*%
%TO.N,+5V*%
X125240000Y-87620000D03*
%TO.P,A1,28,~{RESET}*%
%TO.N,/RST*%
X125240000Y-85080000D03*
%TO.P,A1,29,GND*%
%TO.N,GND*%
X125240000Y-82540000D03*
%TO.P,A1,30,VIN*%
%TO.N,Net-(A1-VIN)*%
X125240000Y-80000000D03*
%TD*%
D19*
%TO.P,R1,1*%
%TO.N,Net-(D1-K)*%
X112305000Y-72650000D03*
D16*
%TO.P,R1,2*%
%TO.N,GND*%
X102145000Y-72650000D03*
%TD*%
D17*
%TO.P,J1,1,Pin_1*%
%TO.N,Net-(A1-D1{slash}TX)*%
X104800000Y-80000000D03*
D18*
%TO.P,J1,2,Pin_2*%
%TO.N,Net-(A1-D0{slash}RX)*%
X104800000Y-82540000D03*
%TO.P,J1,3,Pin_3*%
%TO.N,/RST*%
X104800000Y-85080000D03*
%TO.P,J1,4,Pin_4*%
%TO.N,GND*%
X104800000Y-87620000D03*
%TO.P,J1,5,Pin_5*%
%TO.N,Net-(A1-D2)*%
X104800000Y-90160000D03*
%TO.P,J1,6,Pin_6*%
%TO.N,Net-(A1-D3)*%
X104800000Y-92700000D03*
%TO.P,J1,7,Pin_7*%
%TO.N,Net-(A1-D4)*%
X104800000Y-95240000D03*
%TO.P,J1,8,Pin_8*%
%TO.N,Net-(A1-D5)*%
X104800000Y-97780000D03*
%TO.P,J1,9,Pin_9*%
%TO.N,Net-(A1-D6)*%
X104800000Y-100320000D03*
%TO.P,J1,10,Pin_10*%
%TO.N,Net-(A1-D7)*%
X104800000Y-102860000D03*
%TO.P,J1,11,Pin_11*%
%TO.N,Net-(A1-D8)*%
X104800000Y-105400000D03*
%TO.P,J1,12,Pin_12*%
%TO.N,Net-(A1-D9)*%
X104800000Y-107940000D03*
%TO.P,J1,13,Pin_13*%
%TO.N,/SS*%
X104800000Y-110480000D03*
%TO.P,J1,14,Pin_14*%
%TO.N,/MOSI*%
X104800000Y-113020000D03*
%TO.P,J1,15,Pin_15*%
%TO.N,/MISO*%
X104800000Y-115560000D03*
%TD*%
D17*
%TO.P,J2,1,Pin_1*%
%TO.N,Net-(A1-VIN)*%
X130600000Y-80000000D03*
D18*
%TO.P,J2,2,Pin_2*%
%TO.N,GND*%
X130600000Y-82540000D03*
%TO.P,J2,3,Pin_3*%
%TO.N,/RST*%
X130600000Y-85080000D03*
%TO.P,J2,4,Pin_4*%
%TO.N,+5V*%
X130600000Y-87620000D03*
%TO.P,J2,5,Pin_5*%
%TO.N,Net-(A1-A7)*%
X130600000Y-90160000D03*
%TO.P,J2,6,Pin_6*%
%TO.N,Net-(A1-A6)*%
X130600000Y-92700000D03*
%TO.P,J2,7,Pin_7*%
%TO.N,Net-(A1-A5)*%
X130600000Y-95240000D03*
%TO.P,J2,8,Pin_8*%
%TO.N,Net-(A1-A4)*%
X130600000Y-97780000D03*
%TO.P,J2,9,Pin_9*%
%TO.N,Net-(A1-A3)*%
X130600000Y-100320000D03*
%TO.P,J2,10,Pin_10*%
%TO.N,Net-(A1-A2)*%
X130600000Y-102860000D03*
%TO.P,J2,11,Pin_11*%
%TO.N,Net-(A1-A1)*%
X130600000Y-105400000D03*
%TO.P,J2,12,Pin_12*%
%TO.N,Net-(A1-A0)*%
X130600000Y-107940000D03*
%TO.P,J2,13,Pin_13*%
%TO.N,Net-(A1-AREF)*%
X130600000Y-110480000D03*
%TO.P,J2,14,Pin_14*%
%TO.N,Net-(A1-3V3)*%
X130600000Y-113020000D03*
%TO.P,J2,15,Pin_15*%
%TO.N,/SCK*%
X130600000Y-115560000D03*
%TD*%
D20*
%TO.N,/MOSI*%
X122000000Y-102506036D02*
X122000000Y-69028248D01*
D21*
X109970403Y-50219596D02*
X102055000Y-58135000D01*
D20*
X111870000Y-113020000D02*
X110000000Y-113020000D01*
X115062289Y-111697710D02*
X120406207Y-106353792D01*
X122967500Y-66692495D02*
X123935001Y-65724995D01*
D21*
X119665000Y-48437500D02*
X119665000Y-48785000D01*
D22*
X110000000Y-113020000D02*
X104800000Y-113020000D01*
D20*
X115062289Y-111697710D02*
G75*
G02*
X111870000Y-113019993I-3192289J3192310D01*
G01*
D21*
X119419280Y-47844280D02*
G75*
G03*
X117562127Y-47074993I-1857180J-1857120D01*
G01*
D20*
X122000000Y-102506036D02*
G75*
G02*
X120406200Y-106353785I-5441600J36D01*
G01*
X122967500Y-66692495D02*
G75*
G03*
X122000047Y-69028248I2335800J-2335705D01*
G01*
D21*
X119419280Y-47844280D02*
G75*
G02*
X119665011Y-48437500I-593180J-593220D01*
G01*
X117562127Y-47075000D02*
G75*
G03*
X109970393Y-50219586I-27J-10736300D01*
G01*
D22*
%TO.N,/RST*%
X130600000Y-85080000D02*
X125240000Y-85080000D01*
X104800000Y-85080000D02*
X110000000Y-85080000D01*
D21*
%TO.N,/SCK*%
X120900000Y-54306534D02*
X120900000Y-56207046D01*
X126789520Y-62089520D02*
X128017994Y-63317994D01*
D22*
X130600000Y-115560000D02*
X125240000Y-115560000D01*
D21*
X124056904Y-60999996D02*
X124159156Y-60999995D01*
X128017994Y-63317994D02*
G75*
G02*
X129015012Y-65724997I-2406994J-2407006D01*
G01*
X124056904Y-60999996D02*
G75*
G02*
X122642692Y-60414214I-4J1999996D01*
G01*
X124159156Y-60999995D02*
G75*
G02*
X126789540Y-62089500I44J-3719905D01*
G01*
X120900000Y-56207046D02*
G75*
G03*
X122642709Y-60414197I5949800J46D01*
G01*
X119665000Y-51325000D02*
G75*
G02*
X120899978Y-54306534I-2981500J-2981500D01*
G01*
D22*
%TO.N,/SS*%
X104800000Y-110480000D02*
X110000000Y-110480000D01*
D21*
%TO.N,/MISO*%
X102055000Y-65755000D02*
X103966615Y-63843385D01*
X118025269Y-52225269D02*
X117125000Y-51325000D01*
X110348310Y-61200000D02*
X115389958Y-61200000D01*
D22*
X104800000Y-115560000D02*
X110000000Y-115560000D01*
D21*
X119700000Y-57657339D02*
X119700000Y-56268427D01*
X119700000Y-57657339D02*
G75*
G02*
X118821312Y-59778670I-3000100J39D01*
G01*
X103966615Y-63843385D02*
G75*
G02*
X110348310Y-61200013I6381685J-6381715D01*
G01*
X115389958Y-61200000D02*
G75*
G03*
X118821348Y-59778706I42J4852700D01*
G01*
X119700000Y-56268427D02*
G75*
G03*
X118025285Y-52225253I-5717900J27D01*
G01*
D22*
%TO.N,Net-(A1-A3)*%
X130600000Y-100320000D02*
X125240000Y-100320000D01*
%TO.N,Net-(A1-A6)*%
X130600000Y-92700000D02*
X125240000Y-92700000D01*
%TO.N,+5V*%
X125240000Y-87620000D02*
X130600000Y-87620000D01*
%TO.N,Net-(A1-A1)*%
X130600000Y-105400000D02*
X125240000Y-105400000D01*
%TO.N,Net-(A1-A7)*%
X130600000Y-90160000D02*
X125240000Y-90160000D01*
%TO.N,Net-(A1-D6)*%
X104800000Y-100320000D02*
X110000000Y-100320000D01*
%TO.N,Net-(A1-D4)*%
X104800000Y-95240000D02*
X110000000Y-95240000D01*
%TO.N,Net-(A1-D7)*%
X104800000Y-102860000D02*
X110000000Y-102860000D01*
%TO.N,Net-(A1-D5)*%
X104800000Y-97780000D02*
X110000000Y-97780000D01*
%TO.N,Net-(A1-D1{slash}TX)*%
X104800000Y-80000000D02*
X110000000Y-80000000D01*
%TO.N,Net-(A1-VIN)*%
X130600000Y-80000000D02*
X125240000Y-80000000D01*
%TO.N,Net-(A1-3V3)*%
X130600000Y-113020000D02*
X125240000Y-113020000D01*
%TO.N,Net-(A1-D3)*%
X104800000Y-92700000D02*
X110000000Y-92700000D01*
%TO.N,Net-(A1-A4)*%
X130600000Y-97780000D02*
X125240000Y-97780000D01*
%TO.N,Net-(A1-D8)*%
X104800000Y-105400000D02*
X110000000Y-105400000D01*
%TO.N,Net-(C1-Pad1)*%
X131099999Y-72900000D02*
X132700000Y-71299999D01*
X127600000Y-72900000D02*
X132300000Y-72900000D01*
X132300000Y-72900000D02*
X132700000Y-73300000D01*
X132700000Y-73300000D02*
X132700000Y-71299999D01*
X127600000Y-72900000D02*
X131099999Y-72900000D01*
%TO.N,Net-(A1-D2)*%
X104800000Y-90160000D02*
X110000000Y-90160000D01*
%TO.N,Net-(A1-D0{slash}RX)*%
X104800000Y-82540000D02*
X110000000Y-82540000D01*
%TO.N,Net-(D1-K)*%
X116550000Y-72650000D02*
X116575000Y-72675000D01*
X112305000Y-72650000D02*
X116550000Y-72650000D01*
%TO.N,Net-(A1-A2)*%
X130600000Y-102860000D02*
X125240000Y-102860000D01*
%TO.N,Net-(A1-A5)*%
X130600000Y-95240000D02*
X125240000Y-95240000D01*
%TO.N,Net-(A1-A0)*%
X130600000Y-107940000D02*
X125240000Y-107940000D01*
%TO.N,Net-(A1-D9)*%
X104800000Y-107940000D02*
X110000000Y-107940000D01*
%TO.N,Net-(A1-AREF)*%
X130600000Y-110480000D02*
X125240000Y-110480000D01*
%TD*%
%TA.AperFunction,Conductor*%
%TO.N,GND*%
G36*
X109248558Y-86350185D02*
G01*
X109294313Y-86402989D01*
X109304257Y-86472147D01*
X109275232Y-86535703D01*
X109254405Y-86554818D01*
X109153105Y-86628417D01*
X109153104Y-86628417D01*
X109008417Y-86773104D01*
X109008417Y-86773105D01*
X108888140Y-86938650D01*
X108795244Y-87120970D01*
X108732009Y-87315586D01*
X108723391Y-87370000D01*
X109566988Y-87370000D01*
X109534075Y-87427007D01*
X109500000Y-87554174D01*
X109500000Y-87685826D01*
X109534075Y-87812993D01*
X109566988Y-87870000D01*
X108723391Y-87870000D01*
X108732009Y-87924413D01*
X108795244Y-88119029D01*
X108888140Y-88301349D01*
X109008417Y-88466894D01*
X109008417Y-88466895D01*
X109153104Y-88611582D01*
X109254405Y-88685182D01*
X109297070Y-88740512D01*
X109303049Y-88810126D01*
X109270443Y-88871920D01*
X109209604Y-88906278D01*
X109181519Y-88909500D01*
X105703546Y-88909500D01*
X105636507Y-88889815D01*
X105590752Y-88837011D01*
X105580808Y-88767853D01*
X105609833Y-88704297D01*
X105630661Y-88685182D01*
X105679459Y-88649727D01*
X105679464Y-88649723D01*
X105829723Y-88499464D01*
X105829727Y-88499459D01*
X105954620Y-88327557D01*
X106051095Y-88138217D01*
X106116757Y-87936129D01*
X106116757Y-87936126D01*
X106127231Y-87870000D01*
X105233012Y-87870000D01*
X105265925Y-87812993D01*
X105300000Y-87685826D01*
X105300000Y-87554174D01*
X105265925Y-87427007D01*
X105233012Y-87370000D01*
X106127231Y-87370000D01*
X106116757Y-87303873D01*
X106116757Y-87303870D01*
X106051095Y-87101782D01*
X105954620Y-86912442D01*
X105829727Y-86740540D01*
X105829723Y-86740535D01*
X105679464Y-86590276D01*
X105679459Y-86590272D01*
X105630661Y-86554818D01*
X105587995Y-86499488D01*
X105582016Y-86429875D01*
X105614622Y-86368080D01*
X105675460Y-86333723D01*
X105703546Y-86330500D01*
X109181519Y-86330500D01*
X109248558Y-86350185D01*
G37*
%TD.AperFunction*%
%TA.AperFunction,Conductor*%
G36*
X129459555Y-81261471D02*
G01*
X129471971Y-81267072D01*
X129507669Y-81293796D01*
X129642517Y-81344091D01*
X129642736Y-81344114D01*
X129647259Y-81346155D01*
X129670749Y-81366321D01*
X129695531Y-81384873D01*
X129697025Y-81388879D01*
X129700272Y-81391667D01*
X129709131Y-81421335D01*
X129719949Y-81450337D01*
X129719039Y-81454516D01*
X129720264Y-81458616D01*
X129711677Y-81488362D01*
X129705098Y-81518610D01*
X129701596Y-81523287D01*
X129700887Y-81525745D01*
X129697614Y-81528606D01*
X129683947Y-81546865D01*
X129570271Y-81660541D01*
X129445379Y-81832442D01*
X129348904Y-82021782D01*
X129283242Y-82223870D01*
X129283242Y-82223873D01*
X129272769Y-82290000D01*
X130166988Y-82290000D01*
X130134075Y-82347007D01*
X130100000Y-82474174D01*
X130100000Y-82605826D01*
X130134075Y-82732993D01*
X130166988Y-82790000D01*
X129272769Y-82790000D01*
X129283242Y-82856126D01*
X129283242Y-82856129D01*
X129348904Y-83058217D01*
X129445379Y-83247557D01*
X129570272Y-83419459D01*
X129570276Y-83419464D01*
X129720535Y-83569723D01*
X129720540Y-83569727D01*
X129769339Y-83605182D01*
X129812005Y-83660512D01*
X129817984Y-83730125D01*
X129785378Y-83791920D01*
X129724540Y-83826277D01*
X129696454Y-83829500D01*
X126058481Y-83829500D01*
X125991442Y-83809815D01*
X125945687Y-83757011D01*
X125935743Y-83687853D01*
X125964768Y-83624297D01*
X125985595Y-83605182D01*
X126086894Y-83531582D01*
X126086895Y-83531582D01*
X126231582Y-83386895D01*
X126231582Y-83386894D01*
X126351859Y-83221349D01*
X126444755Y-83039029D01*
X126507990Y-82844413D01*
X126516609Y-82790000D01*
X125673012Y-82790000D01*
X125705925Y-82732993D01*
X125740000Y-82605826D01*
X125740000Y-82474174D01*
X125705925Y-82347007D01*
X125673012Y-82290000D01*
X126516609Y-82290000D01*
X126507990Y-82235586D01*
X126444755Y-82040970D01*
X126351859Y-81858650D01*
X126231582Y-81693105D01*
X126231582Y-81693104D01*
X126086895Y-81548417D01*
X125985595Y-81474818D01*
X125942930Y-81419488D01*
X125936951Y-81349874D01*
X125969557Y-81288080D01*
X126030396Y-81253722D01*
X126058481Y-81250500D01*
X129408561Y-81250500D01*
X129459555Y-81261471D01*
G37*
%TD.AperFunction*%
%TA.AperFunction,Conductor*%
G36*
X131002562Y-45500605D02*
G01*
X131449036Y-45519072D01*
X131459209Y-45519915D01*
X131900114Y-45574873D01*
X131910194Y-45576555D01*
X132345042Y-45667733D01*
X132354950Y-45670242D01*
X132780786Y-45797019D01*
X132790454Y-45800338D01*
X133131430Y-45933388D01*
X133204339Y-45961838D01*
X133213724Y-45965954D01*
X133612869Y-46161083D01*
X133621872Y-46165955D01*
X133847437Y-46300363D01*
X134003544Y-46393383D01*
X134012123Y-46398989D01*
X134373693Y-46657144D01*
X134381770Y-46663431D01*
X134476331Y-46743520D01*
X134720796Y-46950571D01*
X134728336Y-46957512D01*
X135042487Y-47271663D01*
X135049428Y-47279203D01*
X135070985Y-47304655D01*
X135228635Y-47490793D01*
X135336564Y-47618224D01*
X135342859Y-47626312D01*
X135601010Y-47987876D01*
X135606616Y-47996455D01*
X135834041Y-48378122D01*
X135838919Y-48387136D01*
X136034045Y-48786275D01*
X136038161Y-48795660D01*
X136199656Y-49209533D01*
X136202984Y-49219226D01*
X136329753Y-49645036D01*
X136332269Y-49654971D01*
X136423441Y-50089791D01*
X136425128Y-50099900D01*
X136480082Y-50540769D01*
X136480928Y-50550983D01*
X136499394Y-50997437D01*
X136499500Y-51002561D01*
X136499500Y-113997438D01*
X136499394Y-114002562D01*
X136480928Y-114449016D01*
X136480082Y-114459230D01*
X136425128Y-114900099D01*
X136423441Y-114910208D01*
X136332269Y-115345028D01*
X136329753Y-115354963D01*
X136202984Y-115780773D01*
X136199656Y-115790466D01*
X136038161Y-116204339D01*
X136034045Y-116213724D01*
X135838919Y-116612863D01*
X135834041Y-116621877D01*
X135606616Y-117003544D01*
X135601010Y-117012123D01*
X135342859Y-117373687D01*
X135336564Y-117381775D01*
X135049428Y-117720796D01*
X135042487Y-117728336D01*
X134728336Y-118042487D01*
X134720796Y-118049428D01*
X134381775Y-118336564D01*
X134373687Y-118342859D01*
X134012123Y-118601010D01*
X134003544Y-118606616D01*
X133621877Y-118834041D01*
X133612863Y-118838919D01*
X133213724Y-119034045D01*
X133204339Y-119038161D01*
X132790466Y-119199656D01*
X132780773Y-119202984D01*
X132354963Y-119329753D01*
X132345028Y-119332269D01*
X131910208Y-119423441D01*
X131900099Y-119425128D01*
X131459230Y-119480082D01*
X131449016Y-119480928D01*
X131002563Y-119499394D01*
X130997439Y-119499500D01*
X102002561Y-119499500D01*
X101997437Y-119499394D01*
X101550983Y-119480928D01*
X101540769Y-119480082D01*
X101099900Y-119425128D01*
X101089791Y-119423441D01*
X100654971Y-119332269D01*
X100645036Y-119329753D01*
X100219226Y-119202984D01*
X100209533Y-119199656D01*
X99795660Y-119038161D01*
X99786275Y-119034045D01*
X99387136Y-118838919D01*
X99378122Y-118834041D01*
X98996455Y-118606616D01*
X98987876Y-118601010D01*
X98626312Y-118342859D01*
X98618224Y-118336564D01*
X98279203Y-118049428D01*
X98271663Y-118042487D01*
X97957512Y-117728336D01*
X97950571Y-117720796D01*
X97663435Y-117381775D01*
X97657140Y-117373687D01*
X97398989Y-117012123D01*
X97393383Y-117003544D01*
X97165958Y-116621877D01*
X97161080Y-116612863D01*
X97149956Y-116590109D01*
X96979588Y-116241613D01*
X96965954Y-116213724D01*
X96961838Y-116204339D01*
X96829245Y-115864534D01*
X96800338Y-115790454D01*
X96797019Y-115780786D01*
X96670242Y-115354950D01*
X96667733Y-115345042D01*
X96576555Y-114910194D01*
X96574873Y-114900114D01*
X96519915Y-114459209D01*
X96519072Y-114449036D01*
X96500606Y-114002562D01*
X96500500Y-113997438D01*
X96500500Y-72400000D01*
X100868391Y-72400000D01*
X101829314Y-72400000D01*
X101824920Y-72404394D01*
X101772259Y-72495606D01*
X101745000Y-72597339D01*
X101745000Y-72702661D01*
X101772259Y-72804394D01*
X101824920Y-72895606D01*
X101829314Y-72900000D01*
X100868391Y-72900000D01*
X100877009Y-72954413D01*
X100940244Y-73149029D01*
X101033140Y-73331349D01*
X101153417Y-73496894D01*
X101153417Y-73496895D01*
X101298104Y-73641582D01*
X101463650Y-73761859D01*
X101645968Y-73854754D01*
X101840578Y-73917988D01*
X101895000Y-73926607D01*
X101895000Y-72965686D01*
X101899394Y-72970080D01*
X101990606Y-73022741D01*
X102092339Y-73050000D01*
X102197661Y-73050000D01*
X102299394Y-73022741D01*
X102390606Y-72970080D01*
X102395000Y-72965686D01*
X102395000Y-73926606D01*
X102449421Y-73917988D01*
X102644031Y-73854754D01*
X102826349Y-73761859D01*
X102991894Y-73641582D01*
X102991895Y-73641582D01*
X103136582Y-73496895D01*
X103136582Y-73496894D01*
X103256859Y-73331349D01*
X103349755Y-73149029D01*
X103412990Y-72954413D01*
X103421609Y-72900000D01*
X102460686Y-72900000D01*
X102465080Y-72895606D01*
X102517741Y-72804394D01*
X102545000Y-72702661D01*
X102545000Y-72597339D01*
X102531685Y-72547648D01*
X111004500Y-72547648D01*
X111004500Y-72752351D01*
X111036522Y-72954534D01*
X111099781Y-73149223D01*
X111192715Y-73331613D01*
X111313028Y-73497213D01*
X111457786Y-73641971D01*
X111603549Y-73747872D01*
X111623390Y-73762287D01*
X111712092Y-73807483D01*
X111805776Y-73855218D01*
X111805778Y-73855218D01*
X111805781Y-73855220D01*
X111859924Y-73872812D01*
X112000465Y-73918477D01*
X112055742Y-73927232D01*
X112202648Y-73950500D01*
X112202649Y-73950500D01*
X112407351Y-73950500D01*
X112407352Y-73950500D01*
X112609534Y-73918477D01*
X112637714Y-73909320D01*
X112646184Y-73906569D01*
X112684502Y-73900500D01*
X115234046Y-73900500D01*
X115301085Y-73920185D01*
X115310157Y-73927495D01*
X115310355Y-73927232D01*
X115432664Y-74018793D01*
X115432671Y-74018797D01*
X115567517Y-74069091D01*
X115567516Y-74069091D01*
X115574444Y-74069835D01*
X115627127Y-74075500D01*
X117522872Y-74075499D01*
X117582483Y-74069091D01*
X117717331Y-74018796D01*
X117832546Y-73932546D01*
X117918796Y-73817331D01*
X117946429Y-73743243D01*
X117948601Y-73737420D01*
X117990471Y-73681486D01*
X118055936Y-73657068D01*
X118124209Y-73671919D01*
X118152464Y-73693071D01*
X118202636Y-73743243D01*
X118202641Y-73743247D01*
X118304603Y-73817326D01*
X118380978Y-73872815D01*
X118509375Y-73938237D01*
X118577393Y-73972895D01*
X118577396Y-73972896D01*
X118682221Y-74006955D01*
X118787049Y-74041015D01*
X119004778Y-74075500D01*
X119004779Y-74075500D01*
X119225221Y-74075500D01*
X119225222Y-74075500D01*
X119442951Y-74041015D01*
X119652606Y-73972895D01*
X119849022Y-73872815D01*
X120027365Y-73743242D01*
X120183242Y-73587365D01*
X120312815Y-73409022D01*
X120412895Y-73212606D01*
X120481015Y-73002951D01*
X120515500Y-72785222D01*
X120515500Y-72564778D01*
X120481015Y-72347049D01*
X120424813Y-72174075D01*
X120412896Y-72137396D01*
X120412895Y-72137393D01*
X120369443Y-72052116D01*
X120312815Y-71940978D01*
X120254501Y-71860715D01*
X120183247Y-71762641D01*
X120183243Y-71762636D01*
X120027363Y-71606756D01*
X120027358Y-71606752D01*
X119849025Y-71477187D01*
X119849024Y-71477186D01*
X119849022Y-71477185D01*
X119731791Y-71417452D01*
X119652606Y-71377104D01*
X119652603Y-71377103D01*
X119442952Y-71308985D01*
X119334086Y-71291742D01*
X119225222Y-71274500D01*
X119004778Y-71274500D01*
X118932201Y-71285995D01*
X118787047Y-71308985D01*
X118577396Y-71377103D01*
X118577393Y-71377104D01*
X118380974Y-71477187D01*
X118202641Y-71606752D01*
X118202636Y-71606756D01*
X118152463Y-71656929D01*
X118091140Y-71690413D01*
X118021448Y-71685428D01*
X117965515Y-71643557D01*
X117948601Y-71612580D01*
X117918797Y-71532671D01*
X117918793Y-71532664D01*
X117832547Y-71417455D01*
X117832544Y-71417452D01*
X117717335Y-71331206D01*
X117717328Y-71331202D01*
X117582482Y-71280908D01*
X117582483Y-71280908D01*
X117522883Y-71274501D01*
X117522881Y-71274500D01*
X117522873Y-71274500D01*
X117522864Y-71274500D01*
X115627129Y-71274500D01*
X115627123Y-71274501D01*
X115567516Y-71280908D01*
X115432671Y-71331202D01*
X115432668Y-71331204D01*
X115374476Y-71374767D01*
X115309011Y-71399184D01*
X115300165Y-71399500D01*
X112684502Y-71399500D01*
X112646184Y-71393431D01*
X112609535Y-71381523D01*
X112508443Y-71365511D01*
X112407352Y-71349500D01*
X112202648Y-71349500D01*
X112178329Y-71353351D01*
X112000465Y-71381522D01*
X111805776Y-71444781D01*
X111623386Y-71537715D01*
X111457786Y-71658028D01*
X111313028Y-71802786D01*
X111192715Y-71968386D01*
X111099781Y-72150776D01*
X111036522Y-72345465D01*
X111004500Y-72547648D01*
X102531685Y-72547648D01*
X102517741Y-72495606D01*
X102465080Y-72404394D01*
X102460686Y-72400000D01*
X103421609Y-72400000D01*
X103412990Y-72345586D01*
X103349755Y-72150970D01*
X103256859Y-71968650D01*
X103136582Y-71803105D01*
X103136582Y-71803104D01*
X102991895Y-71658417D01*
X102826349Y-71538140D01*
X102644029Y-71445244D01*
X102449413Y-71382009D01*
X102395000Y-71373390D01*
X102395000Y-72334314D01*
X102390606Y-72329920D01*
X102299394Y-72277259D01*
X102197661Y-72250000D01*
X102092339Y-72250000D01*
X101990606Y-72277259D01*
X101899394Y-72329920D01*
X101895000Y-72334314D01*
X101895000Y-71373390D01*
X101840586Y-71382009D01*
X101645970Y-71445244D01*
X101463650Y-71538140D01*
X101298105Y-71658417D01*
X101298104Y-71658417D01*
X101153417Y-71803104D01*
X101153417Y-71803105D01*
X101033140Y-71968650D01*
X100940244Y-72150970D01*
X100877009Y-72345586D01*
X100868391Y-72400000D01*
X96500500Y-72400000D01*
X96500500Y-58032648D01*
X100754500Y-58032648D01*
X100754500Y-58237351D01*
X100786522Y-58439534D01*
X100849781Y-58634223D01*
X100942715Y-58816613D01*
X101063028Y-58982213D01*
X101207786Y-59126971D01*
X101332098Y-59217287D01*
X101373390Y-59247287D01*
X101462212Y-59292544D01*
X101555776Y-59340218D01*
X101555778Y-59340218D01*
X101555781Y-59340220D01*
X101656624Y-59372986D01*
X101750465Y-59403477D01*
X101851557Y-59419488D01*
X101952648Y-59435500D01*
X101952649Y-59435500D01*
X102157351Y-59435500D01*
X102157352Y-59435500D01*
X102359534Y-59403477D01*
X102554219Y-59340220D01*
X102736610Y-59247287D01*
X102832901Y-59177328D01*
X102902213Y-59126971D01*
X102902215Y-59126968D01*
X102902219Y-59126966D01*
X103046966Y-58982219D01*
X103046968Y-58982215D01*
X103046971Y-58982213D01*
X103167284Y-58816614D01*
X103167285Y-58816613D01*
X103167287Y-58816610D01*
X103214516Y-58723917D01*
X103262489Y-58673123D01*
X103330310Y-58656328D01*
X103396445Y-58678865D01*
X103435485Y-58723919D01*
X103482715Y-58816614D01*
X103603028Y-58982213D01*
X103747786Y-59126971D01*
X103872098Y-59217287D01*
X103913390Y-59247287D01*
X104002212Y-59292544D01*
X104095776Y-59340218D01*
X104095778Y-59340218D01*
X104095781Y-59340220D01*
X104196624Y-59372986D01*
X104290465Y-59403477D01*
X104391557Y-59419488D01*
X104492648Y-59435500D01*
X104492649Y-59435500D01*
X104697351Y-59435500D01*
X104697352Y-59435500D01*
X104899534Y-59403477D01*
X105094219Y-59340220D01*
X105276610Y-59247287D01*
X105372901Y-59177328D01*
X105442213Y-59126971D01*
X105442215Y-59126968D01*
X105442219Y-59126966D01*
X105586966Y-58982219D01*
X105586968Y-58982215D01*
X105586971Y-58982213D01*
X105707284Y-58816614D01*
X105707285Y-58816613D01*
X105707287Y-58816610D01*
X105754516Y-58723917D01*
X105802489Y-58673123D01*
X105870310Y-58656328D01*
X105936445Y-58678865D01*
X105975485Y-58723919D01*
X106022715Y-58816614D01*
X106143028Y-58982213D01*
X106287786Y-59126971D01*
X106412098Y-59217287D01*
X106453390Y-59247287D01*
X106542212Y-59292544D01*
X106635776Y-59340218D01*
X106635778Y-59340218D01*
X106635781Y-59340220D01*
X106736624Y-59372986D01*
X106830465Y-59403477D01*
X106931557Y-59419488D01*
X107032648Y-59435500D01*
X107032649Y-59435500D01*
X107237351Y-59435500D01*
X107237352Y-59435500D01*
X107439534Y-59403477D01*
X107634219Y-59340220D01*
X107816610Y-59247287D01*
X107912901Y-59177328D01*
X107982213Y-59126971D01*
X107982215Y-59126968D01*
X107982219Y-59126966D01*
X108126966Y-58982219D01*
X108126968Y-58982215D01*
X108126971Y-58982213D01*
X108247284Y-58816614D01*
X108247285Y-58816613D01*
X108247287Y-58816610D01*
X108294516Y-58723917D01*
X108342489Y-58673123D01*
X108410310Y-58656328D01*
X108476445Y-58678865D01*
X108515485Y-58723919D01*
X108562715Y-58816614D01*
X108683028Y-58982213D01*
X108827786Y-59126971D01*
X108952098Y-59217287D01*
X108993390Y-59247287D01*
X109082212Y-59292544D01*
X109175776Y-59340218D01*
X109175778Y-59340218D01*
X109175781Y-59340220D01*
X109276624Y-59372986D01*
X109370465Y-59403477D01*
X109471557Y-59419488D01*
X109572648Y-59435500D01*
X109572649Y-59435500D01*
X109777351Y-59435500D01*
X109777352Y-59435500D01*
X109979534Y-59403477D01*
X110174219Y-59340220D01*
X110356610Y-59247287D01*
X110452901Y-59177328D01*
X110522213Y-59126971D01*
X110522215Y-59126968D01*
X110522219Y-59126966D01*
X110666966Y-58982219D01*
X110666968Y-58982215D01*
X110666971Y-58982213D01*
X110787284Y-58816614D01*
X110787285Y-58816613D01*
X110787287Y-58816610D01*
X110834516Y-58723917D01*
X110882489Y-58673123D01*
X110950310Y-58656328D01*
X111016445Y-58678865D01*
X111055485Y-58723919D01*
X111102715Y-58816614D01*
X111223028Y-58982213D01*
X111367786Y-59126971D01*
X111492098Y-59217287D01*
X111533390Y-59247287D01*
X111622212Y-59292544D01*
X111715776Y-59340218D01*
X111715778Y-59340218D01*
X111715781Y-59340220D01*
X111816624Y-59372986D01*
X111910465Y-59403477D01*
X112011557Y-59419488D01*
X112112648Y-59435500D01*
X112112649Y-59435500D01*
X112317351Y-59435500D01*
X112317352Y-59435500D01*
X112519534Y-59403477D01*
X112714219Y-59340220D01*
X112896610Y-59247287D01*
X112992901Y-59177328D01*
X113062213Y-59126971D01*
X113062215Y-59126968D01*
X113062219Y-59126966D01*
X113206966Y-58982219D01*
X113206968Y-58982215D01*
X113206971Y-58982213D01*
X113327284Y-58816614D01*
X113327285Y-58816613D01*
X113327287Y-58816610D01*
X113374516Y-58723917D01*
X113422489Y-58673123D01*
X113490310Y-58656328D01*
X113556445Y-58678865D01*
X113595485Y-58723919D01*
X113642715Y-58816614D01*
X113763028Y-58982213D01*
X113907786Y-59126971D01*
X114032098Y-59217287D01*
X114073390Y-59247287D01*
X114162212Y-59292544D01*
X114255776Y-59340218D01*
X114255778Y-59340218D01*
X114255781Y-59340220D01*
X114356624Y-59372986D01*
X114450465Y-59403477D01*
X114551557Y-59419488D01*
X114652648Y-59435500D01*
X114652649Y-59435500D01*
X114857351Y-59435500D01*
X114857352Y-59435500D01*
X115059534Y-59403477D01*
X115254219Y-59340220D01*
X115436610Y-59247287D01*
X115532901Y-59177328D01*
X115602213Y-59126971D01*
X115602215Y-59126968D01*
X115602219Y-59126966D01*
X115746966Y-58982219D01*
X115773330Y-58945930D01*
X115828658Y-58903265D01*
X115898271Y-58897284D01*
X115960067Y-58929889D01*
X115994426Y-58990726D01*
X115996938Y-59005559D01*
X116000907Y-59042480D01*
X116051202Y-59177328D01*
X116051206Y-59177335D01*
X116137452Y-59292544D01*
X116137455Y-59292547D01*
X116252664Y-59378793D01*
X116252671Y-59378797D01*
X116387517Y-59429091D01*
X116387516Y-59429091D01*
X116394444Y-59429835D01*
X116447127Y-59435500D01*
X117512158Y-59435499D01*
X117512404Y-59435571D01*
X117512651Y-59435500D01*
X117545855Y-59445393D01*
X117579197Y-59455183D01*
X117579365Y-59455377D01*
X117579612Y-59455451D01*
X117602189Y-59481717D01*
X117624952Y-59507987D01*
X117624988Y-59508242D01*
X117625156Y-59508437D01*
X117629958Y-59542804D01*
X117634896Y-59577146D01*
X117634789Y-59577379D01*
X117634825Y-59577634D01*
X117620293Y-59609120D01*
X117605871Y-59640702D01*
X117605617Y-59640920D01*
X117605547Y-59641074D01*
X117578782Y-59664080D01*
X117383121Y-59788727D01*
X117373753Y-59794136D01*
X117075586Y-59949349D01*
X117065794Y-59953914D01*
X116781338Y-60071738D01*
X116755242Y-60082547D01*
X116745077Y-60086246D01*
X116424498Y-60187322D01*
X116414049Y-60190122D01*
X116085873Y-60262874D01*
X116075219Y-60264752D01*
X115741969Y-60308622D01*
X115731193Y-60309565D01*
X115391774Y-60324381D01*
X115386367Y-60324499D01*
X115344453Y-60324499D01*
X115303736Y-60324499D01*
X115303731Y-60324499D01*
X115297604Y-60324500D01*
X115297603Y-60324499D01*
X115297603Y-60324500D01*
X110256099Y-60324500D01*
X110255816Y-60324514D01*
X110049138Y-60324514D01*
X109451909Y-60360639D01*
X108857934Y-60432760D01*
X108269423Y-60540608D01*
X108269419Y-60540609D01*
X107688478Y-60683796D01*
X107688462Y-60683800D01*
X107117254Y-60861797D01*
X107117236Y-60861803D01*
X106557806Y-61073965D01*
X106012186Y-61319527D01*
X105482378Y-61597591D01*
X104970359Y-61907115D01*
X104970349Y-61907122D01*
X104477938Y-62247008D01*
X104006930Y-62616016D01*
X104006929Y-62616017D01*
X103559095Y-63012762D01*
X103559094Y-63012763D01*
X103408522Y-63163332D01*
X103408516Y-63163340D01*
X102153675Y-64418181D01*
X102092352Y-64451666D01*
X102065994Y-64454500D01*
X101952648Y-64454500D01*
X101928329Y-64458351D01*
X101750465Y-64486522D01*
X101555776Y-64549781D01*
X101373386Y-64642715D01*
X101207786Y-64763028D01*
X101063028Y-64907786D01*
X100942715Y-65073386D01*
X100849781Y-65255776D01*
X100786522Y-65450465D01*
X100754500Y-65652648D01*
X100754500Y-65857351D01*
X100786522Y-66059534D01*
X100849781Y-66254223D01*
X100942715Y-66436613D01*
X101063028Y-66602213D01*
X101207786Y-66746971D01*
X101362749Y-66859556D01*
X101373390Y-66867287D01*
X101489607Y-66926503D01*
X101555776Y-66960218D01*
X101555778Y-66960218D01*
X101555781Y-66960220D01*
X101658120Y-66993472D01*
X101750465Y-67023477D01*
X101849060Y-67039093D01*
X101952648Y-67055500D01*
X101952649Y-67055500D01*
X102157351Y-67055500D01*
X102157352Y-67055500D01*
X102359534Y-67023477D01*
X102554219Y-66960220D01*
X102736610Y-66867287D01*
X102829590Y-66799732D01*
X102902213Y-66746971D01*
X102902215Y-66746968D01*
X102902219Y-66746966D01*
X103046966Y-66602219D01*
X103046968Y-66602215D01*
X103046971Y-66602213D01*
X103167284Y-66436614D01*
X103167285Y-66436613D01*
X103167287Y-66436610D01*
X103214516Y-66343917D01*
X103262489Y-66293123D01*
X103330310Y-66276328D01*
X103396445Y-66298865D01*
X103435485Y-66343919D01*
X103482715Y-66436614D01*
X103603028Y-66602213D01*
X103747786Y-66746971D01*
X103902749Y-66859556D01*
X103913390Y-66867287D01*
X104029607Y-66926503D01*
X104095776Y-66960218D01*
X104095778Y-66960218D01*
X104095781Y-66960220D01*
X104198120Y-66993472D01*
X104290465Y-67023477D01*
X104389060Y-67039093D01*
X104492648Y-67055500D01*
X104492649Y-67055500D01*
X104697351Y-67055500D01*
X104697352Y-67055500D01*
X104899534Y-67023477D01*
X105094219Y-66960220D01*
X105276610Y-66867287D01*
X105369590Y-66799732D01*
X105442213Y-66746971D01*
X105442215Y-66746968D01*
X105442219Y-66746966D01*
X105586966Y-66602219D01*
X105586968Y-66602215D01*
X105586971Y-66602213D01*
X105707284Y-66436614D01*
X105707285Y-66436613D01*
X105707287Y-66436610D01*
X105754516Y-66343917D01*
X105802489Y-66293123D01*
X105870310Y-66276328D01*
X105936445Y-66298865D01*
X105975485Y-66343919D01*
X106022715Y-66436614D01*
X106143028Y-66602213D01*
X106287786Y-66746971D01*
X106442749Y-66859556D01*
X106453390Y-66867287D01*
X106569607Y-66926503D01*
X106635776Y-66960218D01*
X106635778Y-66960218D01*
X106635781Y-66960220D01*
X106738120Y-66993472D01*
X106830465Y-67023477D01*
X106929060Y-67039093D01*
X107032648Y-67055500D01*
X107032649Y-67055500D01*
X107237351Y-67055500D01*
X107237352Y-67055500D01*
X107439534Y-67023477D01*
X107634219Y-66960220D01*
X107816610Y-66867287D01*
X107909590Y-66799732D01*
X107982213Y-66746971D01*
X107982215Y-66746968D01*
X107982219Y-66746966D01*
X108126966Y-66602219D01*
X108126968Y-66602215D01*
X108126971Y-66602213D01*
X108247284Y-66436614D01*
X108247285Y-66436613D01*
X108247287Y-66436610D01*
X108294516Y-66343917D01*
X108342489Y-66293123D01*
X108410310Y-66276328D01*
X108476445Y-66298865D01*
X108515485Y-66343919D01*
X108562715Y-66436614D01*
X108683028Y-66602213D01*
X108827786Y-66746971D01*
X108982749Y-66859556D01*
X108993390Y-66867287D01*
X109109607Y-66926503D01*
X109175776Y-66960218D01*
X109175778Y-66960218D01*
X109175781Y-66960220D01*
X109278120Y-66993472D01*
X109370465Y-67023477D01*
X109469060Y-67039093D01*
X109572648Y-67055500D01*
X109572649Y-67055500D01*
X109777351Y-67055500D01*
X109777352Y-67055500D01*
X109979534Y-67023477D01*
X110174219Y-66960220D01*
X110356610Y-66867287D01*
X110449590Y-66799732D01*
X110522213Y-66746971D01*
X110522215Y-66746968D01*
X110522219Y-66746966D01*
X110666966Y-66602219D01*
X110666968Y-66602215D01*
X110666971Y-66602213D01*
X110787284Y-66436614D01*
X110787285Y-66436613D01*
X110787287Y-66436610D01*
X110834516Y-66343917D01*
X110882489Y-66293123D01*
X110950310Y-66276328D01*
X111016445Y-66298865D01*
X111055485Y-66343919D01*
X111102715Y-66436614D01*
X111223028Y-66602213D01*
X111367786Y-66746971D01*
X111522749Y-66859556D01*
X111533390Y-66867287D01*
X111649607Y-66926503D01*
X111715776Y-66960218D01*
X111715778Y-66960218D01*
X111715781Y-66960220D01*
X111818120Y-66993472D01*
X111910465Y-67023477D01*
X112009060Y-67039093D01*
X112112648Y-67055500D01*
X112112649Y-67055500D01*
X112317351Y-67055500D01*
X112317352Y-67055500D01*
X112519534Y-67023477D01*
X112714219Y-66960220D01*
X112896610Y-66867287D01*
X112989590Y-66799732D01*
X113062213Y-66746971D01*
X113062215Y-66746968D01*
X113062219Y-66746966D01*
X113206966Y-66602219D01*
X113206968Y-66602215D01*
X113206971Y-66602213D01*
X113327284Y-66436614D01*
X113327285Y-66436613D01*
X113327287Y-66436610D01*
X113374516Y-66343917D01*
X113422489Y-66293123D01*
X113490310Y-66276328D01*
X113556445Y-66298865D01*
X113595485Y-66343919D01*
X113642715Y-66436614D01*
X113763028Y-66602213D01*
X113907786Y-66746971D01*
X114062749Y-66859556D01*
X114073390Y-66867287D01*
X114189607Y-66926503D01*
X114255776Y-66960218D01*
X114255778Y-66960218D01*
X114255781Y-66960220D01*
X114358120Y-66993472D01*
X114450465Y-67023477D01*
X114549060Y-67039093D01*
X114652648Y-67055500D01*
X114652649Y-67055500D01*
X114857351Y-67055500D01*
X114857352Y-67055500D01*
X115059534Y-67023477D01*
X115254219Y-66960220D01*
X115436610Y-66867287D01*
X115529590Y-66799732D01*
X115602213Y-66746971D01*
X115602215Y-66746968D01*
X115602219Y-66746966D01*
X115746966Y-66602219D01*
X115746968Y-66602215D01*
X115746971Y-66602213D01*
X115867284Y-66436614D01*
X115867285Y-66436613D01*
X115867287Y-66436610D01*
X115914795Y-66343369D01*
X115962770Y-66292574D01*
X116030591Y-66275779D01*
X116096725Y-66298316D01*
X116135765Y-66343370D01*
X116183140Y-66436349D01*
X116303417Y-66601894D01*
X116303417Y-66601895D01*
X116448104Y-66746582D01*
X116613650Y-66866859D01*
X116795968Y-66959754D01*
X116990578Y-67022988D01*
X117045000Y-67031607D01*
X117045000Y-66070686D01*
X117049394Y-66075080D01*
X117140606Y-66127741D01*
X117242339Y-66155000D01*
X117347661Y-66155000D01*
X117449394Y-66127741D01*
X117540606Y-66075080D01*
X117545000Y-66070686D01*
X117545000Y-67031606D01*
X117599421Y-67022988D01*
X117794031Y-66959754D01*
X117976349Y-66866859D01*
X118141894Y-66746582D01*
X118141895Y-66746582D01*
X118286582Y-66601895D01*
X118286582Y-66601894D01*
X118406859Y-66436349D01*
X118499755Y-66254029D01*
X118562990Y-66059413D01*
X118571609Y-66005000D01*
X117610686Y-66005000D01*
X117615080Y-66000606D01*
X117667741Y-65909394D01*
X117695000Y-65807661D01*
X117695000Y-65702339D01*
X117667741Y-65600606D01*
X117615080Y-65509394D01*
X117610686Y-65505000D01*
X118571609Y-65505000D01*
X118562990Y-65450586D01*
X118499755Y-65255970D01*
X118406859Y-65073650D01*
X118286582Y-64908105D01*
X118286582Y-64908104D01*
X118141895Y-64763417D01*
X117976349Y-64643140D01*
X117794029Y-64550244D01*
X117599413Y-64487009D01*
X117545000Y-64478390D01*
X117545000Y-65439314D01*
X117540606Y-65434920D01*
X117449394Y-65382259D01*
X117347661Y-65355000D01*
X117242339Y-65355000D01*
X117140606Y-65382259D01*
X117049394Y-65434920D01*
X117045000Y-65439314D01*
X117045000Y-64478390D01*
X116990586Y-64487009D01*
X116795970Y-64550244D01*
X116613650Y-64643140D01*
X116448105Y-64763417D01*
X116448104Y-64763417D01*
X116303417Y-64908104D01*
X116303417Y-64908105D01*
X116183140Y-65073650D01*
X116135765Y-65166629D01*
X116087790Y-65217425D01*
X116019969Y-65234220D01*
X115953834Y-65211682D01*
X115914795Y-65166629D01*
X115899225Y-65136072D01*
X115867287Y-65073390D01*
X115845493Y-65043393D01*
X115746971Y-64907786D01*
X115602213Y-64763028D01*
X115436613Y-64642715D01*
X115436612Y-64642714D01*
X115436610Y-64642713D01*
X115377398Y-64612543D01*
X115254223Y-64549781D01*
X115059534Y-64486522D01*
X114884995Y-64458878D01*
X114857352Y-64454500D01*
X114652648Y-64454500D01*
X114628329Y-64458351D01*
X114450465Y-64486522D01*
X114255776Y-64549781D01*
X114073386Y-64642715D01*
X113907786Y-64763028D01*
X113763028Y-64907786D01*
X113642715Y-65073386D01*
X113595485Y-65166080D01*
X113547510Y-65216876D01*
X113479689Y-65233671D01*
X113413554Y-65211134D01*
X113374515Y-65166080D01*
X113373883Y-65164840D01*
X113327287Y-65073390D01*
X113305493Y-65043393D01*
X113206971Y-64907786D01*
X113062213Y-64763028D01*
X112896613Y-64642715D01*
X112896612Y-64642714D01*
X112896610Y-64642713D01*
X112837398Y-64612543D01*
X112714223Y-64549781D01*
X112519534Y-64486522D01*
X112344995Y-64458878D01*
X112317352Y-64454500D01*
X112112648Y-64454500D01*
X112088329Y-64458351D01*
X111910465Y-64486522D01*
X111715776Y-64549781D01*
X111533386Y-64642715D01*
X111367786Y-64763028D01*
X111223028Y-64907786D01*
X111102715Y-65073386D01*
X111055485Y-65166080D01*
X111007510Y-65216876D01*
X110939689Y-65233671D01*
X110873554Y-65211134D01*
X110834515Y-65166080D01*
X110833883Y-65164840D01*
X110787287Y-65073390D01*
X110765493Y-65043393D01*
X110666971Y-64907786D01*
X110522213Y-64763028D01*
X110356613Y-64642715D01*
X110356612Y-64642714D01*
X110356610Y-64642713D01*
X110297398Y-64612543D01*
X110174223Y-64549781D01*
X109979534Y-64486522D01*
X109804995Y-64458878D01*
X109777352Y-64454500D01*
X109572648Y-64454500D01*
X109548329Y-64458351D01*
X109370465Y-64486522D01*
X109175776Y-64549781D01*
X108993386Y-64642715D01*
X108827786Y-64763028D01*
X108683028Y-64907786D01*
X108562715Y-65073386D01*
X108515485Y-65166080D01*
X108467510Y-65216876D01*
X108399689Y-65233671D01*
X108333554Y-65211134D01*
X108294515Y-65166080D01*
X108293883Y-65164840D01*
X108247287Y-65073390D01*
X108225493Y-65043393D01*
X108126971Y-64907786D01*
X107982213Y-64763028D01*
X107816613Y-64642715D01*
X107816612Y-64642714D01*
X107816610Y-64642713D01*
X107757398Y-64612543D01*
X107634223Y-64549781D01*
X107439534Y-64486522D01*
X107264995Y-64458878D01*
X107237352Y-64454500D01*
X107032648Y-64454500D01*
X107008329Y-64458351D01*
X106830465Y-64486522D01*
X106635776Y-64549781D01*
X106453386Y-64642715D01*
X106287786Y-64763028D01*
X106143028Y-64907786D01*
X106022715Y-65073386D01*
X105975485Y-65166080D01*
X105927510Y-65216876D01*
X105859689Y-65233671D01*
X105793554Y-65211134D01*
X105754515Y-65166080D01*
X105753883Y-65164840D01*
X105707287Y-65073390D01*
X105685493Y-65043393D01*
X105586971Y-64907786D01*
X105442213Y-64763028D01*
X105276613Y-64642715D01*
X105276612Y-64642714D01*
X105276610Y-64642713D01*
X105217398Y-64612543D01*
X105094223Y-64549781D01*
X104899535Y-64486523D01*
X104859519Y-64480185D01*
X104846328Y-64473931D01*
X104831806Y-64472414D01*
X104815388Y-64459263D01*
X104796385Y-64450255D01*
X104788668Y-64437862D01*
X104777273Y-64428735D01*
X104770571Y-64408799D01*
X104759454Y-64390944D01*
X104759662Y-64376344D01*
X104755011Y-64362506D01*
X104760151Y-64342111D01*
X104760452Y-64321081D01*
X104768827Y-64307693D01*
X104772088Y-64294756D01*
X104794153Y-64267209D01*
X104920904Y-64148494D01*
X104971965Y-64100669D01*
X104978018Y-64095360D01*
X105384045Y-63762143D01*
X105390460Y-63757223D01*
X105817354Y-63451316D01*
X105824095Y-63446813D01*
X106270084Y-63169480D01*
X106277090Y-63165436D01*
X106740288Y-62917852D01*
X106747518Y-62914286D01*
X107225914Y-62697529D01*
X107233386Y-62694434D01*
X107724921Y-62509434D01*
X107732574Y-62506836D01*
X108235186Y-62354371D01*
X108242975Y-62352284D01*
X108754485Y-62233018D01*
X108762376Y-62231448D01*
X109280603Y-62145888D01*
X109288586Y-62144837D01*
X109811267Y-62093359D01*
X109819342Y-62092829D01*
X110346728Y-62075565D01*
X110350769Y-62075500D01*
X115482019Y-62075500D01*
X115482791Y-62075461D01*
X115615011Y-62075463D01*
X116063744Y-62040151D01*
X116508323Y-61969741D01*
X116508325Y-61969740D01*
X116508328Y-61969740D01*
X116676990Y-61929249D01*
X116946007Y-61864666D01*
X117374098Y-61725575D01*
X117789956Y-61553325D01*
X118191018Y-61348978D01*
X118574811Y-61113794D01*
X118938968Y-60849223D01*
X119281245Y-60556896D01*
X119379417Y-60458724D01*
X119379426Y-60458719D01*
X119440388Y-60397756D01*
X119501361Y-60336783D01*
X119501363Y-60336779D01*
X119505776Y-60332367D01*
X119505960Y-60332164D01*
X119560034Y-60278090D01*
X119571819Y-60264045D01*
X119777564Y-60018845D01*
X119971669Y-59741630D01*
X120140876Y-59448554D01*
X120283896Y-59141846D01*
X120358999Y-58935503D01*
X120400424Y-58879243D01*
X120465692Y-58854308D01*
X120534081Y-58868618D01*
X120583876Y-58917630D01*
X120588311Y-58926401D01*
X120742559Y-59264148D01*
X120976216Y-59692046D01*
X121141578Y-59949349D01*
X121239806Y-60102191D01*
X121239809Y-60102195D01*
X121531970Y-60492468D01*
X121587799Y-60556896D01*
X121851251Y-60860929D01*
X121851265Y-60860943D01*
X121851266Y-60860944D01*
X121989135Y-60998810D01*
X121989149Y-60998823D01*
X122023617Y-61033291D01*
X122082150Y-61091825D01*
X122082156Y-61091829D01*
X122083021Y-61092693D01*
X122084598Y-61094270D01*
X122084602Y-61094272D01*
X122089457Y-61099122D01*
X122089461Y-61099131D01*
X122089499Y-61099164D01*
X122123510Y-61133176D01*
X122341908Y-61312409D01*
X122576822Y-61469373D01*
X122825990Y-61602555D01*
X123087012Y-61710673D01*
X123357375Y-61792686D01*
X123357381Y-61792687D01*
X123357384Y-61792688D01*
X123357395Y-61792691D01*
X123512241Y-61823490D01*
X123634474Y-61847804D01*
X123915642Y-61875496D01*
X123970679Y-61875496D01*
X123970684Y-61875497D01*
X124062254Y-61875496D01*
X124072937Y-61875496D01*
X124143135Y-61875496D01*
X124150731Y-61875496D01*
X124150747Y-61875495D01*
X124156117Y-61875495D01*
X124162199Y-61875643D01*
X124431892Y-61888889D01*
X124443990Y-61890081D01*
X124708064Y-61929250D01*
X124719987Y-61931621D01*
X124872172Y-61969740D01*
X124978942Y-61996483D01*
X124990589Y-62000015D01*
X125241953Y-62089952D01*
X125253179Y-62094603D01*
X125494513Y-62208741D01*
X125505230Y-62214469D01*
X125559523Y-62247010D01*
X125734213Y-62351712D01*
X125744330Y-62358472D01*
X125958757Y-62517499D01*
X125968158Y-62525214D01*
X126167794Y-62706149D01*
X126172203Y-62710347D01*
X127396465Y-63934609D01*
X127401243Y-63939663D01*
X127545140Y-64100683D01*
X127583224Y-64143298D01*
X127591889Y-64154162D01*
X127710325Y-64321081D01*
X127747919Y-64374065D01*
X127755317Y-64385839D01*
X127885741Y-64621822D01*
X127891774Y-64634350D01*
X127977079Y-64840294D01*
X127984548Y-64909763D01*
X127962837Y-64960631D01*
X127902713Y-65043386D01*
X127902709Y-65043393D01*
X127855486Y-65136072D01*
X127807511Y-65186867D01*
X127739690Y-65203662D01*
X127673555Y-65181124D01*
X127634517Y-65136071D01*
X127602712Y-65073650D01*
X127587293Y-65043388D01*
X127587291Y-65043385D01*
X127587290Y-65043383D01*
X127466977Y-64877784D01*
X127322219Y-64733026D01*
X127156619Y-64612713D01*
X127156618Y-64612712D01*
X127156616Y-64612711D01*
X127099659Y-64583689D01*
X126974229Y-64519779D01*
X126779540Y-64456520D01*
X126604109Y-64428735D01*
X126577358Y-64424498D01*
X126372654Y-64424498D01*
X126348335Y-64428349D01*
X126170471Y-64456520D01*
X125975782Y-64519779D01*
X125793392Y-64612713D01*
X125627792Y-64733026D01*
X125483034Y-64877784D01*
X125362718Y-65043387D01*
X125362717Y-65043389D01*
X125315488Y-65136081D01*
X125267514Y-65186877D01*
X125199693Y-65203672D01*
X125133558Y-65181134D01*
X125094519Y-65136081D01*
X125094518Y-65136079D01*
X125047288Y-65043385D01*
X125039557Y-65032744D01*
X124926972Y-64877781D01*
X124782214Y-64733023D01*
X124616614Y-64612710D01*
X124616613Y-64612709D01*
X124616611Y-64612708D01*
X124559654Y-64583686D01*
X124434224Y-64519776D01*
X124239535Y-64456517D01*
X124064123Y-64428735D01*
X124037353Y-64424495D01*
X123832649Y-64424495D01*
X123808330Y-64428346D01*
X123630466Y-64456517D01*
X123435777Y-64519776D01*
X123253387Y-64612710D01*
X123087787Y-64733023D01*
X122943029Y-64877781D01*
X122822716Y-65043381D01*
X122729782Y-65225773D01*
X122666523Y-65420463D01*
X122643074Y-65568509D01*
X122613144Y-65631644D01*
X122608282Y-65636791D01*
X122329214Y-65915859D01*
X122329212Y-65915862D01*
X122325587Y-65919487D01*
X122325580Y-65919492D01*
X122306120Y-65938952D01*
X122296372Y-65948700D01*
X122296226Y-65948779D01*
X122127132Y-66117881D01*
X122127114Y-66117900D01*
X121885558Y-66405787D01*
X121670026Y-66713612D01*
X121670016Y-66713627D01*
X121670011Y-66713635D01*
X121670004Y-66713645D01*
X121670004Y-66713647D01*
X121482114Y-67039093D01*
X121482105Y-67039110D01*
X121323295Y-67379696D01*
X121194760Y-67732860D01*
X121194758Y-67732868D01*
X121097501Y-68095855D01*
X121097499Y-68095863D01*
X121032243Y-68465989D01*
X120999497Y-68840349D01*
X120999497Y-68840356D01*
X120999500Y-69028233D01*
X120999500Y-102503321D01*
X120999382Y-102508731D01*
X120982834Y-102887685D01*
X120981891Y-102898461D01*
X120932733Y-103271837D01*
X120930855Y-103282490D01*
X120849340Y-103650173D01*
X120846540Y-103660622D01*
X120733292Y-104019795D01*
X120729592Y-104029960D01*
X120585470Y-104377897D01*
X120580898Y-104387701D01*
X120407005Y-104721745D01*
X120401597Y-104731113D01*
X120199242Y-105048747D01*
X120193037Y-105057608D01*
X119963776Y-105356388D01*
X119956822Y-105364675D01*
X119700401Y-105644509D01*
X119696660Y-105648417D01*
X114420388Y-110924689D01*
X114420386Y-110924693D01*
X114356974Y-110988103D01*
X114352567Y-110992298D01*
X114103822Y-111217746D01*
X114094415Y-111225466D01*
X113827210Y-111423637D01*
X113817093Y-111430397D01*
X113531756Y-111601422D01*
X113521024Y-111607159D01*
X113220287Y-111749396D01*
X113209044Y-111754053D01*
X112895814Y-111866128D01*
X112884169Y-111869660D01*
X112561473Y-111950490D01*
X112549538Y-111952864D01*
X112220466Y-112001677D01*
X112208357Y-112002870D01*
X112032882Y-112011491D01*
X111872875Y-112019351D01*
X111866821Y-112019500D01*
X110875762Y-112019500D01*
X110808723Y-111999815D01*
X110802877Y-111995818D01*
X110681613Y-111907715D01*
X110681612Y-111907714D01*
X110681610Y-111907713D01*
X110588917Y-111860483D01*
X110538123Y-111812511D01*
X110521328Y-111744690D01*
X110543865Y-111678555D01*
X110588917Y-111639516D01*
X110681610Y-111592287D01*
X110702770Y-111576913D01*
X110847213Y-111471971D01*
X110847215Y-111471968D01*
X110847219Y-111471966D01*
X110991966Y-111327219D01*
X110991968Y-111327215D01*
X110991971Y-111327213D01*
X111093247Y-111187816D01*
X111112287Y-111161610D01*
X111205220Y-110979219D01*
X111268477Y-110784534D01*
X111300500Y-110582352D01*
X111300500Y-110377648D01*
X111268477Y-110175466D01*
X111264673Y-110163760D01*
X111205218Y-109980776D01*
X111171503Y-109914607D01*
X111112287Y-109798390D01*
X111104556Y-109787749D01*
X110991971Y-109632786D01*
X110847213Y-109488028D01*
X110681614Y-109367715D01*
X110675006Y-109364348D01*
X110588917Y-109320483D01*
X110538123Y-109272511D01*
X110521328Y-109204690D01*
X110543865Y-109138555D01*
X110588917Y-109099516D01*
X110681610Y-109052287D01*
X110702770Y-109036913D01*
X110847213Y-108931971D01*
X110847215Y-108931968D01*
X110847219Y-108931966D01*
X110991966Y-108787219D01*
X110991968Y-108787215D01*
X110991971Y-108787213D01*
X111093247Y-108647816D01*
X111112287Y-108621610D01*
X111205220Y-108439219D01*
X111268477Y-108244534D01*
X111300500Y-108042352D01*
X111300500Y-107837648D01*
X111268477Y-107635466D01*
X111264673Y-107623760D01*
X111205218Y-107440776D01*
X111171503Y-107374607D01*
X111112287Y-107258390D01*
X111104556Y-107247749D01*
X110991971Y-107092786D01*
X110847213Y-106948028D01*
X110681614Y-106827715D01*
X110675006Y-106824348D01*
X110588917Y-106780483D01*
X110538123Y-106732511D01*
X110521328Y-106664690D01*
X110543865Y-106598555D01*
X110588917Y-106559516D01*
X110681610Y-106512287D01*
X110702770Y-106496913D01*
X110847213Y-106391971D01*
X110847215Y-106391968D01*
X110847219Y-106391966D01*
X110991966Y-106247219D01*
X110991968Y-106247215D01*
X110991971Y-106247213D01*
X111093247Y-106107816D01*
X111112287Y-106081610D01*
X111205220Y-105899219D01*
X111268477Y-105704534D01*
X111300500Y-105502352D01*
X111300500Y-105297648D01*
X111268477Y-105095466D01*
X111264673Y-105083760D01*
X111205218Y-104900776D01*
X111171503Y-104834607D01*
X111112287Y-104718390D01*
X111104556Y-104707749D01*
X110991971Y-104552786D01*
X110847213Y-104408028D01*
X110681614Y-104287715D01*
X110675006Y-104284348D01*
X110588917Y-104240483D01*
X110538123Y-104192511D01*
X110521328Y-104124690D01*
X110543865Y-104058555D01*
X110588917Y-104019516D01*
X110681610Y-103972287D01*
X110702770Y-103956913D01*
X110847213Y-103851971D01*
X110847215Y-103851968D01*
X110847219Y-103851966D01*
X110991966Y-103707219D01*
X110991968Y-103707215D01*
X110991971Y-103707213D01*
X111093247Y-103567816D01*
X111112287Y-103541610D01*
X111205220Y-103359219D01*
X111268477Y-103164534D01*
X111300500Y-102962352D01*
X111300500Y-102757648D01*
X111277461Y-102612189D01*
X111268477Y-102555465D01*
X111205218Y-102360776D01*
X111171503Y-102294607D01*
X111112287Y-102178390D01*
X111104556Y-102167749D01*
X110991971Y-102012786D01*
X110847213Y-101868028D01*
X110681614Y-101747715D01*
X110675006Y-101744348D01*
X110588917Y-101700483D01*
X110538123Y-101652511D01*
X110521328Y-101584690D01*
X110543865Y-101518555D01*
X110588917Y-101479516D01*
X110681610Y-101432287D01*
X110702770Y-101416913D01*
X110847213Y-101311971D01*
X110847215Y-101311968D01*
X110847219Y-101311966D01*
X110991966Y-101167219D01*
X110991968Y-101167215D01*
X110991971Y-101167213D01*
X111093247Y-101027816D01*
X111112287Y-101001610D01*
X111205220Y-100819219D01*
X111268477Y-100624534D01*
X111300500Y-100422352D01*
X111300500Y-100217648D01*
X111268477Y-100015466D01*
X111264673Y-100003760D01*
X111205218Y-99820776D01*
X111171503Y-99754607D01*
X111112287Y-99638390D01*
X111104556Y-99627749D01*
X110991971Y-99472786D01*
X110847213Y-99328028D01*
X110681614Y-99207715D01*
X110675006Y-99204348D01*
X110588917Y-99160483D01*
X110538123Y-99112511D01*
X110521328Y-99044690D01*
X110543865Y-98978555D01*
X110588917Y-98939516D01*
X110681610Y-98892287D01*
X110702770Y-98876913D01*
X110847213Y-98771971D01*
X110847215Y-98771968D01*
X110847219Y-98771966D01*
X110991966Y-98627219D01*
X110991968Y-98627215D01*
X110991971Y-98627213D01*
X111093247Y-98487816D01*
X111112287Y-98461610D01*
X111205220Y-98279219D01*
X111268477Y-98084534D01*
X111300500Y-97882352D01*
X111300500Y-97677648D01*
X111268477Y-97475466D01*
X111264673Y-97463760D01*
X111205218Y-97280776D01*
X111171503Y-97214607D01*
X111112287Y-97098390D01*
X111104556Y-97087749D01*
X110991971Y-96932786D01*
X110847213Y-96788028D01*
X110681614Y-96667715D01*
X110675006Y-96664348D01*
X110588917Y-96620483D01*
X110538123Y-96572511D01*
X110521328Y-96504690D01*
X110543865Y-96438555D01*
X110588917Y-96399516D01*
X110681610Y-96352287D01*
X110702770Y-96336913D01*
X110847213Y-96231971D01*
X110847215Y-96231968D01*
X110847219Y-96231966D01*
X110991966Y-96087219D01*
X110991968Y-96087215D01*
X110991971Y-96087213D01*
X111093247Y-95947816D01*
X111112287Y-95921610D01*
X111205220Y-95739219D01*
X111268477Y-95544534D01*
X111300500Y-95342352D01*
X111300500Y-95137648D01*
X111268477Y-94935466D01*
X111264673Y-94923760D01*
X111205218Y-94740776D01*
X111171503Y-94674607D01*
X111112287Y-94558390D01*
X111104556Y-94547749D01*
X110991971Y-94392786D01*
X110847213Y-94248028D01*
X110681614Y-94127715D01*
X110675006Y-94124348D01*
X110588917Y-94080483D01*
X110538123Y-94032511D01*
X110521328Y-93964690D01*
X110543865Y-93898555D01*
X110588917Y-93859516D01*
X110681610Y-93812287D01*
X110702770Y-93796913D01*
X110847213Y-93691971D01*
X110847215Y-93691968D01*
X110847219Y-93691966D01*
X110991966Y-93547219D01*
X110991968Y-93547215D01*
X110991971Y-93547213D01*
X111093247Y-93407816D01*
X111112287Y-93381610D01*
X111205220Y-93199219D01*
X111268477Y-93004534D01*
X111300500Y-92802352D01*
X111300500Y-92597648D01*
X111268477Y-92395466D01*
X111264673Y-92383760D01*
X111205218Y-92200776D01*
X111171503Y-92134607D01*
X111112287Y-92018390D01*
X111104556Y-92007749D01*
X110991971Y-91852786D01*
X110847213Y-91708028D01*
X110681614Y-91587715D01*
X110675006Y-91584348D01*
X110588917Y-91540483D01*
X110538123Y-91492511D01*
X110521328Y-91424690D01*
X110543865Y-91358555D01*
X110588917Y-91319516D01*
X110681610Y-91272287D01*
X110702770Y-91256913D01*
X110847213Y-91151971D01*
X110847215Y-91151968D01*
X110847219Y-91151966D01*
X110991966Y-91007219D01*
X110991968Y-91007215D01*
X110991971Y-91007213D01*
X111093247Y-90867816D01*
X111112287Y-90841610D01*
X111205220Y-90659219D01*
X111268477Y-90464534D01*
X111300500Y-90262352D01*
X111300500Y-90057648D01*
X111268477Y-89855466D01*
X111264673Y-89843760D01*
X111205218Y-89660776D01*
X111171503Y-89594607D01*
X111112287Y-89478390D01*
X111104556Y-89467749D01*
X110991971Y-89312786D01*
X110847213Y-89168028D01*
X110681611Y-89047713D01*
X110588369Y-89000203D01*
X110537574Y-88952229D01*
X110520779Y-88884407D01*
X110543317Y-88818273D01*
X110588371Y-88779234D01*
X110681347Y-88731861D01*
X110846894Y-88611582D01*
X110846895Y-88611582D01*
X110991582Y-88466895D01*
X110991582Y-88466894D01*
X111111859Y-88301349D01*
X111204755Y-88119029D01*
X111267990Y-87924413D01*
X111276609Y-87870000D01*
X110433012Y-87870000D01*
X110465925Y-87812993D01*
X110500000Y-87685826D01*
X110500000Y-87554174D01*
X110465925Y-87427007D01*
X110433012Y-87370000D01*
X111276609Y-87370000D01*
X111267990Y-87315586D01*
X111204755Y-87120970D01*
X111111859Y-86938650D01*
X110991582Y-86773105D01*
X110991582Y-86773104D01*
X110846895Y-86628417D01*
X110681349Y-86508140D01*
X110588370Y-86460765D01*
X110537574Y-86412790D01*
X110520779Y-86344969D01*
X110543316Y-86278835D01*
X110588370Y-86239795D01*
X110588920Y-86239515D01*
X110681610Y-86192287D01*
X110702770Y-86176913D01*
X110847213Y-86071971D01*
X110847215Y-86071968D01*
X110847219Y-86071966D01*
X110991966Y-85927219D01*
X110991968Y-85927215D01*
X110991971Y-85927213D01*
X111093247Y-85787816D01*
X111112287Y-85761610D01*
X111205220Y-85579219D01*
X111268477Y-85384534D01*
X111300500Y-85182352D01*
X111300500Y-84977648D01*
X111268477Y-84775466D01*
X111264673Y-84763760D01*
X111205218Y-84580776D01*
X111171503Y-84514607D01*
X111112287Y-84398390D01*
X111104556Y-84387749D01*
X110991971Y-84232786D01*
X110847213Y-84088028D01*
X110681614Y-83967715D01*
X110675006Y-83964348D01*
X110588917Y-83920483D01*
X110538123Y-83872511D01*
X110521328Y-83804690D01*
X110543865Y-83738555D01*
X110588917Y-83699516D01*
X110681610Y-83652287D01*
X110746445Y-83605182D01*
X110847213Y-83531971D01*
X110847215Y-83531968D01*
X110847219Y-83531966D01*
X110991966Y-83387219D01*
X110991968Y-83387215D01*
X110991971Y-83387213D01*
X111093247Y-83247816D01*
X111112287Y-83221610D01*
X111205220Y-83039219D01*
X111268477Y-82844534D01*
X111300500Y-82642352D01*
X111300500Y-82437648D01*
X111286144Y-82347007D01*
X111268477Y-82235465D01*
X111205218Y-82040776D01*
X111112419Y-81858650D01*
X111112287Y-81858390D01*
X111093435Y-81832442D01*
X110991971Y-81692786D01*
X110847219Y-81548034D01*
X110820478Y-81528606D01*
X110810929Y-81521668D01*
X110768264Y-81466339D01*
X110762285Y-81396726D01*
X110794890Y-81334931D01*
X110855728Y-81300573D01*
X110870562Y-81298060D01*
X110907483Y-81294091D01*
X111015718Y-81253722D01*
X111042331Y-81243796D01*
X111157546Y-81157546D01*
X111243796Y-81042331D01*
X111294091Y-80907483D01*
X111300500Y-80847873D01*
X111300499Y-79152128D01*
X111294091Y-79092517D01*
X111275442Y-79042517D01*
X111243797Y-78957671D01*
X111243793Y-78957664D01*
X111157547Y-78842455D01*
X111157544Y-78842452D01*
X111042335Y-78756206D01*
X111042328Y-78756202D01*
X110907482Y-78705908D01*
X110907483Y-78705908D01*
X110847883Y-78699501D01*
X110847881Y-78699500D01*
X110847873Y-78699500D01*
X110847864Y-78699500D01*
X109152129Y-78699500D01*
X109152123Y-78699501D01*
X109092516Y-78705908D01*
X108996604Y-78741682D01*
X108953271Y-78749500D01*
X105991439Y-78749500D01*
X105924400Y-78729815D01*
X105917128Y-78724767D01*
X105892331Y-78706204D01*
X105892328Y-78706202D01*
X105757482Y-78655908D01*
X105757483Y-78655908D01*
X105697883Y-78649501D01*
X105697881Y-78649500D01*
X105697873Y-78649500D01*
X105697864Y-78649500D01*
X103902129Y-78649500D01*
X103902123Y-78649501D01*
X103842516Y-78655908D01*
X103707671Y-78706202D01*
X103707664Y-78706206D01*
X103592455Y-78792452D01*
X103592452Y-78792455D01*
X103506206Y-78907664D01*
X103506202Y-78907671D01*
X103455908Y-79042517D01*
X103450533Y-79092516D01*
X103449501Y-79102123D01*
X103449500Y-79102135D01*
X103449500Y-80897870D01*
X103449501Y-80897876D01*
X103455908Y-80957483D01*
X103506202Y-81092328D01*
X103506206Y-81092335D01*
X103592452Y-81207544D01*
X103592455Y-81207547D01*
X103707664Y-81293793D01*
X103707671Y-81293797D01*
X103839082Y-81342810D01*
X103895016Y-81384681D01*
X103919433Y-81450145D01*
X103904582Y-81518418D01*
X103883431Y-81546673D01*
X103769889Y-81660215D01*
X103644951Y-81832179D01*
X103548444Y-82021585D01*
X103482753Y-82223760D01*
X103449500Y-82433713D01*
X103449500Y-82646286D01*
X103482753Y-82856239D01*
X103548444Y-83058414D01*
X103644951Y-83247820D01*
X103769890Y-83419786D01*
X103920213Y-83570109D01*
X104092182Y-83695050D01*
X104100946Y-83699516D01*
X104151742Y-83747491D01*
X104168536Y-83815312D01*
X104145998Y-83881447D01*
X104100946Y-83920484D01*
X104092182Y-83924949D01*
X103920213Y-84049890D01*
X103769890Y-84200213D01*
X103644951Y-84372179D01*
X103548444Y-84561585D01*
X103482753Y-84763760D01*
X103449500Y-84973713D01*
X103449500Y-85186286D01*
X103482753Y-85396239D01*
X103548444Y-85598414D01*
X103644951Y-85787820D01*
X103769890Y-85959786D01*
X103920213Y-86110109D01*
X104092179Y-86235048D01*
X104092181Y-86235049D01*
X104092184Y-86235051D01*
X104101493Y-86239794D01*
X104152290Y-86287766D01*
X104169087Y-86355587D01*
X104146552Y-86421722D01*
X104101502Y-86460762D01*
X104092443Y-86465378D01*
X103920540Y-86590272D01*
X103920535Y-86590276D01*
X103770276Y-86740535D01*
X103770272Y-86740540D01*
X103645379Y-86912442D01*
X103548904Y-87101782D01*
X103483242Y-87303870D01*
X103483242Y-87303873D01*
X103472769Y-87370000D01*
X104366988Y-87370000D01*
X104334075Y-87427007D01*
X104300000Y-87554174D01*
X104300000Y-87685826D01*
X104334075Y-87812993D01*
X104366988Y-87870000D01*
X103472769Y-87870000D01*
X103483242Y-87936126D01*
X103483242Y-87936129D01*
X103548904Y-88138217D01*
X103645379Y-88327557D01*
X103770272Y-88499459D01*
X103770276Y-88499464D01*
X103920535Y-88649723D01*
X103920540Y-88649727D01*
X104092444Y-88774622D01*
X104101495Y-88779234D01*
X104152292Y-88827208D01*
X104169087Y-88895029D01*
X104146550Y-88961164D01*
X104101499Y-89000202D01*
X104092182Y-89004949D01*
X103920213Y-89129890D01*
X103769890Y-89280213D01*
X103644951Y-89452179D01*
X103548444Y-89641585D01*
X103482753Y-89843760D01*
X103449500Y-90053713D01*
X103449500Y-90266286D01*
X103482753Y-90476239D01*
X103548444Y-90678414D01*
X103644951Y-90867820D01*
X103769890Y-91039786D01*
X103920213Y-91190109D01*
X104092182Y-91315050D01*
X104100946Y-91319516D01*
X104151742Y-91367491D01*
X104168536Y-91435312D01*
X104145998Y-91501447D01*
X104100946Y-91540484D01*
X104092182Y-91544949D01*
X103920213Y-91669890D01*
X103769890Y-91820213D01*
X103644951Y-91992179D01*
X103548444Y-92181585D01*
X103482753Y-92383760D01*
X103449500Y-92593713D01*
X103449500Y-92806286D01*
X103482753Y-93016239D01*
X103548444Y-93218414D01*
X103644951Y-93407820D01*
X103769890Y-93579786D01*
X103920213Y-93730109D01*
X104092182Y-93855050D01*
X104100946Y-93859516D01*
X104151742Y-93907491D01*
X104168536Y-93975312D01*
X104145998Y-94041447D01*
X104100946Y-94080484D01*
X104092182Y-94084949D01*
X103920213Y-94209890D01*
X103769890Y-94360213D01*
X103644951Y-94532179D01*
X103548444Y-94721585D01*
X103482753Y-94923760D01*
X103449500Y-95133713D01*
X103449500Y-95346286D01*
X103482753Y-95556239D01*
X103548444Y-95758414D01*
X103644951Y-95947820D01*
X103769890Y-96119786D01*
X103920213Y-96270109D01*
X104092182Y-96395050D01*
X104100946Y-96399516D01*
X104151742Y-96447491D01*
X104168536Y-96515312D01*
X104145998Y-96581447D01*
X104100946Y-96620484D01*
X104092182Y-96624949D01*
X103920213Y-96749890D01*
X103769890Y-96900213D01*
X103644951Y-97072179D01*
X103548444Y-97261585D01*
X103482753Y-97463760D01*
X103449500Y-97673713D01*
X103449500Y-97886286D01*
X103482753Y-98096239D01*
X103548444Y-98298414D01*
X103644951Y-98487820D01*
X103769890Y-98659786D01*
X103920213Y-98810109D01*
X104092182Y-98935050D01*
X104100946Y-98939516D01*
X104151742Y-98987491D01*
X104168536Y-99055312D01*
X104145998Y-99121447D01*
X104100946Y-99160484D01*
X104092182Y-99164949D01*
X103920213Y-99289890D01*
X103769890Y-99440213D01*
X103644951Y-99612179D01*
X103548444Y-99801585D01*
X103482753Y-100003760D01*
X103449500Y-100213713D01*
X103449500Y-100426286D01*
X103482753Y-100636239D01*
X103548444Y-100838414D01*
X103644951Y-101027820D01*
X103769890Y-101199786D01*
X103920213Y-101350109D01*
X104092182Y-101475050D01*
X104100946Y-101479516D01*
X104151742Y-101527491D01*
X104168536Y-101595312D01*
X104145998Y-101661447D01*
X104100946Y-101700484D01*
X104092182Y-101704949D01*
X103920213Y-101829890D01*
X103769890Y-101980213D01*
X103644951Y-102152179D01*
X103548444Y-102341585D01*
X103482753Y-102543760D01*
X103480899Y-102555466D01*
X103449500Y-102753713D01*
X103449500Y-102966287D01*
X103482754Y-103176243D01*
X103515560Y-103277210D01*
X103548444Y-103378414D01*
X103644951Y-103567820D01*
X103769890Y-103739786D01*
X103920213Y-103890109D01*
X104092182Y-104015050D01*
X104100946Y-104019516D01*
X104151742Y-104067491D01*
X104168536Y-104135312D01*
X104145998Y-104201447D01*
X104100946Y-104240484D01*
X104092182Y-104244949D01*
X103920213Y-104369890D01*
X103769890Y-104520213D01*
X103644951Y-104692179D01*
X103548444Y-104881585D01*
X103482753Y-105083760D01*
X103449500Y-105293713D01*
X103449500Y-105506286D01*
X103482753Y-105716239D01*
X103548444Y-105918414D01*
X103644951Y-106107820D01*
X103769890Y-106279786D01*
X103920213Y-106430109D01*
X104092182Y-106555050D01*
X104100946Y-106559516D01*
X104151742Y-106607491D01*
X104168536Y-106675312D01*
X104145998Y-106741447D01*
X104100946Y-106780484D01*
X104092182Y-106784949D01*
X103920213Y-106909890D01*
X103769890Y-107060213D01*
X103644951Y-107232179D01*
X103548444Y-107421585D01*
X103482753Y-107623760D01*
X103449500Y-107833713D01*
X103449500Y-108046286D01*
X103482753Y-108256239D01*
X103548444Y-108458414D01*
X103644951Y-108647820D01*
X103769890Y-108819786D01*
X103920213Y-108970109D01*
X104092182Y-109095050D01*
X104100946Y-109099516D01*
X104151742Y-109147491D01*
X104168536Y-109215312D01*
X104145998Y-109281447D01*
X104100946Y-109320484D01*
X104092182Y-109324949D01*
X103920213Y-109449890D01*
X103769890Y-109600213D01*
X103644951Y-109772179D01*
X103548444Y-109961585D01*
X103482753Y-110163760D01*
X103480899Y-110175466D01*
X103449500Y-110373713D01*
X103449500Y-110586287D01*
X103482754Y-110796243D01*
X103546456Y-110992298D01*
X103548444Y-110998414D01*
X103644951Y-111187820D01*
X103769890Y-111359786D01*
X103920213Y-111510109D01*
X104092182Y-111635050D01*
X104100946Y-111639516D01*
X104151742Y-111687491D01*
X104168536Y-111755312D01*
X104145998Y-111821447D01*
X104100946Y-111860484D01*
X104092182Y-111864949D01*
X103920213Y-111989890D01*
X103769890Y-112140213D01*
X103644951Y-112312179D01*
X103548444Y-112501585D01*
X103482753Y-112703760D01*
X103449500Y-112913713D01*
X103449500Y-113126286D01*
X103480341Y-113321013D01*
X103482754Y-113336243D01*
X103541733Y-113517762D01*
X103548444Y-113538414D01*
X103644951Y-113727820D01*
X103769890Y-113899786D01*
X103920213Y-114050109D01*
X104092182Y-114175050D01*
X104100946Y-114179516D01*
X104151742Y-114227491D01*
X104168536Y-114295312D01*
X104145998Y-114361447D01*
X104100946Y-114400484D01*
X104092182Y-114404949D01*
X103920213Y-114529890D01*
X103769890Y-114680213D01*
X103644951Y-114852179D01*
X103548444Y-115041585D01*
X103482753Y-115243760D01*
X103449500Y-115453713D01*
X103449500Y-115666286D01*
X103482753Y-115876239D01*
X103548444Y-116078414D01*
X103644951Y-116267820D01*
X103769890Y-116439786D01*
X103920213Y-116590109D01*
X104092179Y-116715048D01*
X104092181Y-116715049D01*
X104092184Y-116715051D01*
X104281588Y-116811557D01*
X104483757Y-116877246D01*
X104693713Y-116910500D01*
X104693714Y-116910500D01*
X104906286Y-116910500D01*
X104906287Y-116910500D01*
X105116243Y-116877246D01*
X105266341Y-116828476D01*
X105302988Y-116816569D01*
X105341306Y-116810500D01*
X109620498Y-116810500D01*
X109658816Y-116816569D01*
X109672260Y-116820937D01*
X109695466Y-116828477D01*
X109897648Y-116860500D01*
X109897649Y-116860500D01*
X110102351Y-116860500D01*
X110102352Y-116860500D01*
X110304534Y-116828477D01*
X110499219Y-116765220D01*
X110681610Y-116672287D01*
X110794726Y-116590104D01*
X110847213Y-116551971D01*
X110847215Y-116551968D01*
X110847219Y-116551966D01*
X110991966Y-116407219D01*
X110991968Y-116407215D01*
X110991971Y-116407213D01*
X111093247Y-116267816D01*
X111112287Y-116241610D01*
X111205220Y-116059219D01*
X111268477Y-115864534D01*
X111300500Y-115662352D01*
X111300500Y-115457648D01*
X111283457Y-115350047D01*
X111268477Y-115255465D01*
X111205218Y-115060776D01*
X111171503Y-114994607D01*
X111112287Y-114878390D01*
X111104556Y-114867749D01*
X110991971Y-114712786D01*
X110847213Y-114568028D01*
X110681614Y-114447715D01*
X110675006Y-114444348D01*
X110588917Y-114400483D01*
X110538123Y-114352511D01*
X110521328Y-114284690D01*
X110543865Y-114218555D01*
X110588917Y-114179516D01*
X110681610Y-114132287D01*
X110802877Y-114044181D01*
X110868683Y-114020702D01*
X110875762Y-114020500D01*
X111974594Y-114020500D01*
X111974736Y-114020493D01*
X112086680Y-114020493D01*
X112086688Y-114020493D01*
X112518727Y-113986491D01*
X112946767Y-113918696D01*
X113368168Y-113817527D01*
X113780333Y-113683607D01*
X114180720Y-113517762D01*
X114566860Y-113321015D01*
X114936374Y-113094578D01*
X115286983Y-112839847D01*
X115616525Y-112558393D01*
X115769747Y-112405172D01*
X115769747Y-112405173D01*
X115835303Y-112339617D01*
X115835305Y-112339613D01*
X121183346Y-106991574D01*
X121183346Y-106991573D01*
X121187691Y-106987229D01*
X121187850Y-106987053D01*
X121276350Y-106898554D01*
X121577688Y-106550791D01*
X121853448Y-106182418D01*
X122102227Y-105795311D01*
X122322757Y-105391442D01*
X122513913Y-104972871D01*
X122674722Y-104541729D01*
X122801033Y-104111557D01*
X122804365Y-104100210D01*
X122902178Y-103650579D01*
X122902179Y-103650574D01*
X122967668Y-103195103D01*
X123000498Y-102736120D01*
X123000498Y-102612180D01*
X123000500Y-102612172D01*
X123000500Y-79897648D01*
X123939500Y-79897648D01*
X123939500Y-80102351D01*
X123971522Y-80304534D01*
X124034781Y-80499223D01*
X124127715Y-80681613D01*
X124248028Y-80847213D01*
X124392786Y-80991971D01*
X124530928Y-81092335D01*
X124558390Y-81112287D01*
X124630424Y-81148990D01*
X124651629Y-81159795D01*
X124702425Y-81207770D01*
X124719220Y-81275591D01*
X124696682Y-81341726D01*
X124651629Y-81380765D01*
X124558650Y-81428140D01*
X124393105Y-81548417D01*
X124393104Y-81548417D01*
X124248417Y-81693104D01*
X124248417Y-81693105D01*
X124128140Y-81858650D01*
X124035244Y-82040970D01*
X123972009Y-82235586D01*
X123963391Y-82290000D01*
X124806988Y-82290000D01*
X124774075Y-82347007D01*
X124740000Y-82474174D01*
X124740000Y-82605826D01*
X124774075Y-82732993D01*
X124806988Y-82790000D01*
X123963391Y-82790000D01*
X123972009Y-82844413D01*
X124035244Y-83039029D01*
X124128140Y-83221349D01*
X124248417Y-83386894D01*
X124248417Y-83386895D01*
X124393104Y-83531582D01*
X124558652Y-83651861D01*
X124651628Y-83699234D01*
X124702425Y-83747208D01*
X124719220Y-83815029D01*
X124696683Y-83881164D01*
X124651630Y-83920203D01*
X124558388Y-83967713D01*
X124392786Y-84088028D01*
X124248028Y-84232786D01*
X124127715Y-84398386D01*
X124034781Y-84580776D01*
X123971522Y-84775465D01*
X123939500Y-84977648D01*
X123939500Y-85182351D01*
X123971522Y-85384534D01*
X124034781Y-85579223D01*
X124127715Y-85761613D01*
X124248028Y-85927213D01*
X124392786Y-86071971D01*
X124547749Y-86184556D01*
X124558390Y-86192287D01*
X124642313Y-86235048D01*
X124651080Y-86239515D01*
X124701876Y-86287490D01*
X124718671Y-86355311D01*
X124696134Y-86421446D01*
X124651080Y-86460485D01*
X124558386Y-86507715D01*
X124392786Y-86628028D01*
X124248028Y-86772786D01*
X124127715Y-86938386D01*
X124034781Y-87120776D01*
X123971522Y-87315465D01*
X123939500Y-87517648D01*
X123939500Y-87722351D01*
X123971522Y-87924534D01*
X124034781Y-88119223D01*
X124127715Y-88301613D01*
X124248028Y-88467213D01*
X124392786Y-88611971D01*
X124547749Y-88724556D01*
X124558390Y-88732287D01*
X124641477Y-88774622D01*
X124651080Y-88779515D01*
X124701876Y-88827490D01*
X124718671Y-88895311D01*
X124696134Y-88961446D01*
X124651080Y-89000485D01*
X124558386Y-89047715D01*
X124392786Y-89168028D01*
X124248028Y-89312786D01*
X124127715Y-89478386D01*
X124034781Y-89660776D01*
X123971522Y-89855465D01*
X123939500Y-90057648D01*
X123939500Y-90262351D01*
X123971522Y-90464534D01*
X124034781Y-90659223D01*
X124127715Y-90841613D01*
X124248028Y-91007213D01*
X124392786Y-91151971D01*
X124547749Y-91264556D01*
X124558390Y-91272287D01*
X124642313Y-91315048D01*
X124651080Y-91319515D01*
X124701876Y-91367490D01*
X124718671Y-91435311D01*
X124696134Y-91501446D01*
X124651080Y-91540485D01*
X124558386Y-91587715D01*
X124392786Y-91708028D01*
X124248028Y-91852786D01*
X124127715Y-92018386D01*
X124034781Y-92200776D01*
X123971522Y-92395465D01*
X123939500Y-92597648D01*
X123939500Y-92802351D01*
X123971522Y-93004534D01*
X124034781Y-93199223D01*
X124127715Y-93381613D01*
X124248028Y-93547213D01*
X124392786Y-93691971D01*
X124547749Y-93804556D01*
X124558390Y-93812287D01*
X124642313Y-93855048D01*
X124651080Y-93859515D01*
X124701876Y-93907490D01*
X124718671Y-93975311D01*
X124696134Y-94041446D01*
X124651080Y-94080485D01*
X124558386Y-94127715D01*
X124392786Y-94248028D01*
X124248028Y-94392786D01*
X124127715Y-94558386D01*
X124034781Y-94740776D01*
X123971522Y-94935465D01*
X123939500Y-95137648D01*
X123939500Y-95342351D01*
X123971522Y-95544534D01*
X124034781Y-95739223D01*
X124127715Y-95921613D01*
X124248028Y-96087213D01*
X124392786Y-96231971D01*
X124547749Y-96344556D01*
X124558390Y-96352287D01*
X124642313Y-96395048D01*
X124651080Y-96399515D01*
X124701876Y-96447490D01*
X124718671Y-96515311D01*
X124696134Y-96581446D01*
X124651080Y-96620485D01*
X124558386Y-96667715D01*
X124392786Y-96788028D01*
X124248028Y-96932786D01*
X124127715Y-97098386D01*
X124034781Y-97280776D01*
X123971522Y-97475465D01*
X123939500Y-97677648D01*
X123939500Y-97882351D01*
X123971522Y-98084534D01*
X124034781Y-98279223D01*
X124127715Y-98461613D01*
X124248028Y-98627213D01*
X124392786Y-98771971D01*
X124547749Y-98884556D01*
X124558390Y-98892287D01*
X124642313Y-98935048D01*
X124651080Y-98939515D01*
X124701876Y-98987490D01*
X124718671Y-99055311D01*
X124696134Y-99121446D01*
X124651080Y-99160485D01*
X124558386Y-99207715D01*
X124392786Y-99328028D01*
X124248028Y-99472786D01*
X124127715Y-99638386D01*
X124034781Y-99820776D01*
X123971522Y-100015465D01*
X123939500Y-100217648D01*
X123939500Y-100422351D01*
X123971522Y-100624534D01*
X124034781Y-100819223D01*
X124127715Y-101001613D01*
X124248028Y-101167213D01*
X124392786Y-101311971D01*
X124547749Y-101424556D01*
X124558390Y-101432287D01*
X124642313Y-101475048D01*
X124651080Y-101479515D01*
X124701876Y-101527490D01*
X124718671Y-101595311D01*
X124696134Y-101661446D01*
X124651080Y-101700485D01*
X124558386Y-101747715D01*
X124392786Y-101868028D01*
X124248028Y-102012786D01*
X124127715Y-102178386D01*
X124034781Y-102360776D01*
X123971522Y-102555465D01*
X123939500Y-102757648D01*
X123939500Y-102962351D01*
X123971522Y-103164534D01*
X124034781Y-103359223D01*
X124127715Y-103541613D01*
X124248028Y-103707213D01*
X124392786Y-103851971D01*
X124547749Y-103964556D01*
X124558390Y-103972287D01*
X124642313Y-104015048D01*
X124651080Y-104019515D01*
X124701876Y-104067490D01*
X124718671Y-104135311D01*
X124696134Y-104201446D01*
X124651080Y-104240485D01*
X124558386Y-104287715D01*
X124392786Y-104408028D01*
X124248028Y-104552786D01*
X124127715Y-104718386D01*
X124034781Y-104900776D01*
X123971522Y-105095465D01*
X123939500Y-105297648D01*
X123939500Y-105502351D01*
X123971522Y-105704534D01*
X124034781Y-105899223D01*
X124127715Y-106081613D01*
X124248028Y-106247213D01*
X124392786Y-106391971D01*
X124547749Y-106504556D01*
X124558390Y-106512287D01*
X124642313Y-106555048D01*
X124651080Y-106559515D01*
X124701876Y-106607490D01*
X124718671Y-106675311D01*
X124696134Y-106741446D01*
X124651080Y-106780485D01*
X124558386Y-106827715D01*
X124392786Y-106948028D01*
X124248028Y-107092786D01*
X124127715Y-107258386D01*
X124034781Y-107440776D01*
X123971522Y-107635465D01*
X123939500Y-107837648D01*
X123939500Y-108042351D01*
X123971522Y-108244534D01*
X124034781Y-108439223D01*
X124127715Y-108621613D01*
X124248028Y-108787213D01*
X124392786Y-108931971D01*
X124547749Y-109044556D01*
X124558390Y-109052287D01*
X124642313Y-109095048D01*
X124651080Y-109099515D01*
X124701876Y-109147490D01*
X124718671Y-109215311D01*
X124696134Y-109281446D01*
X124651080Y-109320485D01*
X124558386Y-109367715D01*
X124392786Y-109488028D01*
X124248028Y-109632786D01*
X124127715Y-109798386D01*
X124034781Y-109980776D01*
X123971522Y-110175465D01*
X123939500Y-110377648D01*
X123939500Y-110582351D01*
X123971522Y-110784534D01*
X124034781Y-110979223D01*
X124127715Y-111161613D01*
X124248028Y-111327213D01*
X124392786Y-111471971D01*
X124547749Y-111584556D01*
X124558390Y-111592287D01*
X124642313Y-111635048D01*
X124651080Y-111639515D01*
X124701876Y-111687490D01*
X124718671Y-111755311D01*
X124696134Y-111821446D01*
X124651080Y-111860485D01*
X124558386Y-111907715D01*
X124392786Y-112028028D01*
X124248028Y-112172786D01*
X124127715Y-112338386D01*
X124034781Y-112520776D01*
X123971522Y-112715465D01*
X123939500Y-112917648D01*
X123939500Y-113122351D01*
X123971522Y-113324534D01*
X124034781Y-113519223D01*
X124127715Y-113701613D01*
X124248028Y-113867213D01*
X124392786Y-114011971D01*
X124547749Y-114124556D01*
X124558390Y-114132287D01*
X124642313Y-114175048D01*
X124651080Y-114179515D01*
X124701876Y-114227490D01*
X124718671Y-114295311D01*
X124696134Y-114361446D01*
X124651080Y-114400485D01*
X124558386Y-114447715D01*
X124392786Y-114568028D01*
X124248028Y-114712786D01*
X124127715Y-114878386D01*
X124034781Y-115060776D01*
X123971522Y-115255465D01*
X123939500Y-115457648D01*
X123939500Y-115662351D01*
X123971522Y-115864534D01*
X124034781Y-116059223D01*
X124080261Y-116148481D01*
X124113504Y-116213724D01*
X124127715Y-116241613D01*
X124248028Y-116407213D01*
X124392786Y-116551971D01*
X124547749Y-116664556D01*
X124558390Y-116672287D01*
X124642319Y-116715051D01*
X124740776Y-116765218D01*
X124740778Y-116765218D01*
X124740781Y-116765220D01*
X124845137Y-116799127D01*
X124935465Y-116828477D01*
X125036557Y-116844488D01*
X125137648Y-116860500D01*
X125137649Y-116860500D01*
X125342351Y-116860500D01*
X125342352Y-116860500D01*
X125544534Y-116828477D01*
X125572714Y-116819320D01*
X125581184Y-116816569D01*
X125619502Y-116810500D01*
X130058694Y-116810500D01*
X130097012Y-116816569D01*
X130133662Y-116828477D01*
X130283757Y-116877246D01*
X130493713Y-116910500D01*
X130493714Y-116910500D01*
X130706286Y-116910500D01*
X130706287Y-116910500D01*
X130916243Y-116877246D01*
X131118412Y-116811557D01*
X131307816Y-116715051D01*
X131366680Y-116672284D01*
X131479786Y-116590109D01*
X131479788Y-116590106D01*
X131479792Y-116590104D01*
X131630104Y-116439792D01*
X131630106Y-116439788D01*
X131630109Y-116439786D01*
X131755048Y-116267820D01*
X131755047Y-116267820D01*
X131755051Y-116267816D01*
X131851557Y-116078412D01*
X131917246Y-115876243D01*
X131950500Y-115666287D01*
X131950500Y-115453713D01*
X131917246Y-115243757D01*
X131851557Y-115041588D01*
X131755051Y-114852184D01*
X131755049Y-114852181D01*
X131755048Y-114852179D01*
X131630109Y-114680213D01*
X131479786Y-114529890D01*
X131307820Y-114404951D01*
X131307115Y-114404591D01*
X131299054Y-114400485D01*
X131248259Y-114352512D01*
X131231463Y-114284692D01*
X131253999Y-114218556D01*
X131299054Y-114179515D01*
X131307816Y-114175051D01*
X131366680Y-114132284D01*
X131479786Y-114050109D01*
X131479788Y-114050106D01*
X131479792Y-114050104D01*
X131630104Y-113899792D01*
X131630106Y-113899788D01*
X131630109Y-113899786D01*
X131755048Y-113727820D01*
X131755047Y-113727820D01*
X131755051Y-113727816D01*
X131851557Y-113538412D01*
X131917246Y-113336243D01*
X131950500Y-113126287D01*
X131950500Y-112913713D01*
X131917246Y-112703757D01*
X131851557Y-112501588D01*
X131755051Y-112312184D01*
X131755049Y-112312181D01*
X131755048Y-112312179D01*
X131630109Y-112140213D01*
X131479786Y-111989890D01*
X131307820Y-111864951D01*
X131307115Y-111864591D01*
X131299054Y-111860485D01*
X131248259Y-111812512D01*
X131231463Y-111744692D01*
X131253999Y-111678556D01*
X131299054Y-111639515D01*
X131307816Y-111635051D01*
X131366680Y-111592284D01*
X131479786Y-111510109D01*
X131479788Y-111510106D01*
X131479792Y-111510104D01*
X131630104Y-111359792D01*
X131630106Y-111359788D01*
X131630109Y-111359786D01*
X131755048Y-111187820D01*
X131755047Y-111187820D01*
X131755051Y-111187816D01*
X131851557Y-110998412D01*
X131917246Y-110796243D01*
X131950500Y-110586287D01*
X131950500Y-110373713D01*
X131917246Y-110163757D01*
X131851557Y-109961588D01*
X131755051Y-109772184D01*
X131755049Y-109772181D01*
X131755048Y-109772179D01*
X131630109Y-109600213D01*
X131479786Y-109449890D01*
X131307820Y-109324951D01*
X131307115Y-109324591D01*
X131299054Y-109320485D01*
X131248259Y-109272512D01*
X131231463Y-109204692D01*
X131253999Y-109138556D01*
X131299054Y-109099515D01*
X131307816Y-109095051D01*
X131366680Y-109052284D01*
X131479786Y-108970109D01*
X131479788Y-108970106D01*
X131479792Y-108970104D01*
X131630104Y-108819792D01*
X131630106Y-108819788D01*
X131630109Y-108819786D01*
X131755048Y-108647820D01*
X131755047Y-108647820D01*
X131755051Y-108647816D01*
X131851557Y-108458412D01*
X131917246Y-108256243D01*
X131950500Y-108046287D01*
X131950500Y-107833713D01*
X131917246Y-107623757D01*
X131851557Y-107421588D01*
X131755051Y-107232184D01*
X131755049Y-107232181D01*
X131755048Y-107232179D01*
X131630109Y-107060213D01*
X131479786Y-106909890D01*
X131307820Y-106784951D01*
X131307115Y-106784591D01*
X131299054Y-106780485D01*
X131248259Y-106732512D01*
X131231463Y-106664692D01*
X131253999Y-106598556D01*
X131299054Y-106559515D01*
X131307816Y-106555051D01*
X131366680Y-106512284D01*
X131479786Y-106430109D01*
X131479788Y-106430106D01*
X131479792Y-106430104D01*
X131630104Y-106279792D01*
X131630106Y-106279788D01*
X131630109Y-106279786D01*
X131755048Y-106107820D01*
X131755047Y-106107820D01*
X131755051Y-106107816D01*
X131851557Y-105918412D01*
X131917246Y-105716243D01*
X131950500Y-105506287D01*
X131950500Y-105293713D01*
X131917246Y-105083757D01*
X131851557Y-104881588D01*
X131755051Y-104692184D01*
X131755049Y-104692181D01*
X131755048Y-104692179D01*
X131630109Y-104520213D01*
X131479786Y-104369890D01*
X131307820Y-104244951D01*
X131307115Y-104244591D01*
X131299054Y-104240485D01*
X131248259Y-104192512D01*
X131231463Y-104124692D01*
X131253999Y-104058556D01*
X131299054Y-104019515D01*
X131307816Y-104015051D01*
X131366680Y-103972284D01*
X131479786Y-103890109D01*
X131479788Y-103890106D01*
X131479792Y-103890104D01*
X131630104Y-103739792D01*
X131630106Y-103739788D01*
X131630109Y-103739786D01*
X131755048Y-103567820D01*
X131755047Y-103567820D01*
X131755051Y-103567816D01*
X131851557Y-103378412D01*
X131917246Y-103176243D01*
X131950500Y-102966287D01*
X131950500Y-102753713D01*
X131917246Y-102543757D01*
X131851557Y-102341588D01*
X131755051Y-102152184D01*
X131755049Y-102152181D01*
X131755048Y-102152179D01*
X131630109Y-101980213D01*
X131479786Y-101829890D01*
X131307820Y-101704951D01*
X131307115Y-101704591D01*
X131299054Y-101700485D01*
X131248259Y-101652512D01*
X131231463Y-101584692D01*
X131253999Y-101518556D01*
X131299054Y-101479515D01*
X131307816Y-101475051D01*
X131366680Y-101432284D01*
X131479786Y-101350109D01*
X131479788Y-101350106D01*
X131479792Y-101350104D01*
X131630104Y-101199792D01*
X131630106Y-101199788D01*
X131630109Y-101199786D01*
X131755048Y-101027820D01*
X131755047Y-101027820D01*
X131755051Y-101027816D01*
X131851557Y-100838412D01*
X131917246Y-100636243D01*
X131950500Y-100426287D01*
X131950500Y-100213713D01*
X131917246Y-100003757D01*
X131851557Y-99801588D01*
X131755051Y-99612184D01*
X131755049Y-99612181D01*
X131755048Y-99612179D01*
X131630109Y-99440213D01*
X131479786Y-99289890D01*
X131307820Y-99164951D01*
X131307115Y-99164591D01*
X131299054Y-99160485D01*
X131248259Y-99112512D01*
X131231463Y-99044692D01*
X131253999Y-98978556D01*
X131299054Y-98939515D01*
X131307816Y-98935051D01*
X131366680Y-98892284D01*
X131479786Y-98810109D01*
X131479788Y-98810106D01*
X131479792Y-98810104D01*
X131630104Y-98659792D01*
X131630106Y-98659788D01*
X131630109Y-98659786D01*
X131755048Y-98487820D01*
X131755047Y-98487820D01*
X131755051Y-98487816D01*
X131851557Y-98298412D01*
X131917246Y-98096243D01*
X131950500Y-97886287D01*
X131950500Y-97673713D01*
X131917246Y-97463757D01*
X131851557Y-97261588D01*
X131755051Y-97072184D01*
X131755049Y-97072181D01*
X131755048Y-97072179D01*
X131630109Y-96900213D01*
X131479786Y-96749890D01*
X131307820Y-96624951D01*
X131307115Y-96624591D01*
X131299054Y-96620485D01*
X131248259Y-96572512D01*
X131231463Y-96504692D01*
X131253999Y-96438556D01*
X131299054Y-96399515D01*
X131307816Y-96395051D01*
X131366680Y-96352284D01*
X131479786Y-96270109D01*
X131479788Y-96270106D01*
X131479792Y-96270104D01*
X131630104Y-96119792D01*
X131630106Y-96119788D01*
X131630109Y-96119786D01*
X131755048Y-95947820D01*
X131755047Y-95947820D01*
X131755051Y-95947816D01*
X131851557Y-95758412D01*
X131917246Y-95556243D01*
X131950500Y-95346287D01*
X131950500Y-95133713D01*
X131917246Y-94923757D01*
X131851557Y-94721588D01*
X131755051Y-94532184D01*
X131755049Y-94532181D01*
X131755048Y-94532179D01*
X131630109Y-94360213D01*
X131479786Y-94209890D01*
X131307820Y-94084951D01*
X131307115Y-94084591D01*
X131299054Y-94080485D01*
X131248259Y-94032512D01*
X131231463Y-93964692D01*
X131253999Y-93898556D01*
X131299054Y-93859515D01*
X131307816Y-93855051D01*
X131366680Y-93812284D01*
X131479786Y-93730109D01*
X131479788Y-93730106D01*
X131479792Y-93730104D01*
X131630104Y-93579792D01*
X131630106Y-93579788D01*
X131630109Y-93579786D01*
X131755048Y-93407820D01*
X131755047Y-93407820D01*
X131755051Y-93407816D01*
X131851557Y-93218412D01*
X131917246Y-93016243D01*
X131950500Y-92806287D01*
X131950500Y-92593713D01*
X131917246Y-92383757D01*
X131851557Y-92181588D01*
X131755051Y-91992184D01*
X131755049Y-91992181D01*
X131755048Y-91992179D01*
X131630109Y-91820213D01*
X131479786Y-91669890D01*
X131307820Y-91544951D01*
X131307115Y-91544591D01*
X131299054Y-91540485D01*
X131248259Y-91492512D01*
X131231463Y-91424692D01*
X131253999Y-91358556D01*
X131299054Y-91319515D01*
X131307816Y-91315051D01*
X131366680Y-91272284D01*
X131479786Y-91190109D01*
X131479788Y-91190106D01*
X131479792Y-91190104D01*
X131630104Y-91039792D01*
X131630106Y-91039788D01*
X131630109Y-91039786D01*
X131755048Y-90867820D01*
X131755047Y-90867820D01*
X131755051Y-90867816D01*
X131851557Y-90678412D01*
X131917246Y-90476243D01*
X131950500Y-90266287D01*
X131950500Y-90053713D01*
X131917246Y-89843757D01*
X131851557Y-89641588D01*
X131755051Y-89452184D01*
X131755049Y-89452181D01*
X131755048Y-89452179D01*
X131630109Y-89280213D01*
X131479786Y-89129890D01*
X131307820Y-89004951D01*
X131307115Y-89004591D01*
X131299054Y-89000485D01*
X131248259Y-88952512D01*
X131231463Y-88884692D01*
X131253999Y-88818556D01*
X131299054Y-88779515D01*
X131307816Y-88775051D01*
X131366680Y-88732284D01*
X131479786Y-88650109D01*
X131479788Y-88650106D01*
X131479792Y-88650104D01*
X131630104Y-88499792D01*
X131630106Y-88499788D01*
X131630109Y-88499786D01*
X131755048Y-88327820D01*
X131755047Y-88327820D01*
X131755051Y-88327816D01*
X131851557Y-88138412D01*
X131917246Y-87936243D01*
X131950500Y-87726287D01*
X131950500Y-87513713D01*
X131917246Y-87303757D01*
X131851557Y-87101588D01*
X131755051Y-86912184D01*
X131755049Y-86912181D01*
X131755048Y-86912179D01*
X131630109Y-86740213D01*
X131479786Y-86589890D01*
X131307820Y-86464951D01*
X131299604Y-86460765D01*
X131299054Y-86460485D01*
X131248259Y-86412512D01*
X131231463Y-86344692D01*
X131253999Y-86278556D01*
X131299054Y-86239515D01*
X131307816Y-86235051D01*
X131366680Y-86192284D01*
X131479786Y-86110109D01*
X131479788Y-86110106D01*
X131479792Y-86110104D01*
X131630104Y-85959792D01*
X131630106Y-85959788D01*
X131630109Y-85959786D01*
X131755048Y-85787820D01*
X131755047Y-85787820D01*
X131755051Y-85787816D01*
X131851557Y-85598412D01*
X131917246Y-85396243D01*
X131950500Y-85186287D01*
X131950500Y-84973713D01*
X131917246Y-84763757D01*
X131851557Y-84561588D01*
X131755051Y-84372184D01*
X131755049Y-84372181D01*
X131755048Y-84372179D01*
X131630109Y-84200213D01*
X131479786Y-84049890D01*
X131307817Y-83924949D01*
X131298504Y-83920204D01*
X131247707Y-83872230D01*
X131230912Y-83804409D01*
X131253449Y-83738274D01*
X131298507Y-83699232D01*
X131307558Y-83694620D01*
X131479459Y-83569727D01*
X131479464Y-83569723D01*
X131629723Y-83419464D01*
X131629727Y-83419459D01*
X131754620Y-83247557D01*
X131851095Y-83058217D01*
X131916757Y-82856129D01*
X131916757Y-82856126D01*
X131927231Y-82790000D01*
X131033012Y-82790000D01*
X131065925Y-82732993D01*
X131100000Y-82605826D01*
X131100000Y-82474174D01*
X131065925Y-82347007D01*
X131033012Y-82290000D01*
X131927231Y-82290000D01*
X131916757Y-82223873D01*
X131916757Y-82223870D01*
X131851095Y-82021782D01*
X131754620Y-81832442D01*
X131629727Y-81660540D01*
X131629723Y-81660535D01*
X131516053Y-81546865D01*
X131482568Y-81485542D01*
X131487552Y-81415850D01*
X131529424Y-81359917D01*
X131560400Y-81343002D01*
X131674357Y-81300500D01*
X131692326Y-81293798D01*
X131692326Y-81293797D01*
X131692331Y-81293796D01*
X131807546Y-81207546D01*
X131893796Y-81092331D01*
X131944091Y-80957483D01*
X131950500Y-80897873D01*
X131950499Y-79102128D01*
X131944091Y-79042517D01*
X131931227Y-79008028D01*
X131893797Y-78907671D01*
X131893793Y-78907664D01*
X131807547Y-78792455D01*
X131807544Y-78792452D01*
X131692335Y-78706206D01*
X131692328Y-78706202D01*
X131557482Y-78655908D01*
X131557483Y-78655908D01*
X131497883Y-78649501D01*
X131497881Y-78649500D01*
X131497873Y-78649500D01*
X131497864Y-78649500D01*
X129702129Y-78649500D01*
X129702123Y-78649501D01*
X129642516Y-78655908D01*
X129507671Y-78706202D01*
X129507668Y-78706204D01*
X129482872Y-78724767D01*
X129417408Y-78749184D01*
X129408561Y-78749500D01*
X125619502Y-78749500D01*
X125581184Y-78743431D01*
X125544535Y-78731523D01*
X125384691Y-78706206D01*
X125342352Y-78699500D01*
X125137648Y-78699500D01*
X125113329Y-78703351D01*
X124935465Y-78731522D01*
X124740776Y-78794781D01*
X124558386Y-78887715D01*
X124392786Y-79008028D01*
X124248028Y-79152786D01*
X124127715Y-79318386D01*
X124034781Y-79500776D01*
X123971522Y-79695465D01*
X123939500Y-79897648D01*
X123000500Y-79897648D01*
X123000500Y-72797680D01*
X123800001Y-72797680D01*
X123800001Y-73002315D01*
X123832010Y-73204415D01*
X123895245Y-73399029D01*
X123988142Y-73581348D01*
X123988148Y-73581357D01*
X124020524Y-73625919D01*
X124020525Y-73625920D01*
X124700001Y-72946444D01*
X124700001Y-72952659D01*
X124727260Y-73054392D01*
X124779921Y-73145604D01*
X124854395Y-73220078D01*
X124945607Y-73272739D01*
X125047340Y-73299998D01*
X125053554Y-73299998D01*
X124374077Y-73979472D01*
X124418651Y-74011857D01*
X124600969Y-74104753D01*
X124795583Y-74167988D01*
X124997684Y-74199998D01*
X125202318Y-74199998D01*
X125404418Y-74167988D01*
X125599032Y-74104753D01*
X125781350Y-74011857D01*
X125825922Y-73979472D01*
X125146448Y-73299998D01*
X125152662Y-73299998D01*
X125254395Y-73272739D01*
X125345607Y-73220078D01*
X125420081Y-73145604D01*
X125472742Y-73054392D01*
X125500001Y-72952659D01*
X125500001Y-72946446D01*
X126184484Y-73630929D01*
X126234147Y-73641362D01*
X126283904Y-73690412D01*
X126298000Y-73744634D01*
X126299099Y-73744576D01*
X126299146Y-73744571D01*
X126299146Y-73744573D01*
X126299324Y-73744564D01*
X126299501Y-73747876D01*
X126305908Y-73807483D01*
X126356202Y-73942328D01*
X126356206Y-73942335D01*
X126442452Y-74057544D01*
X126442455Y-74057547D01*
X126557664Y-74143793D01*
X126557671Y-74143797D01*
X126692517Y-74194091D01*
X126692516Y-74194091D01*
X126699444Y-74194835D01*
X126752127Y-74200500D01*
X128447872Y-74200499D01*
X128507483Y-74194091D01*
X128603396Y-74158318D01*
X128646729Y-74150500D01*
X131001582Y-74150500D01*
X131198416Y-74150500D01*
X131555020Y-74150500D01*
X131622059Y-74170185D01*
X131667814Y-74222989D01*
X131677758Y-74292147D01*
X131654287Y-74348811D01*
X131608503Y-74409969D01*
X131608502Y-74409971D01*
X131558208Y-74544817D01*
X131551801Y-74604416D01*
X131551801Y-74604423D01*
X131551800Y-74604435D01*
X131551800Y-75995570D01*
X131551801Y-75995576D01*
X131558208Y-76055183D01*
X131608502Y-76190028D01*
X131608506Y-76190035D01*
X131677658Y-76282409D01*
X131694754Y-76305246D01*
X131770357Y-76361842D01*
X131812227Y-76417775D01*
X131817211Y-76487467D01*
X131783728Y-76548787D01*
X131746709Y-76585806D01*
X131746708Y-76585809D01*
X131746706Y-76585811D01*
X131697047Y-76654160D01*
X131631075Y-76744962D01*
X131541766Y-76920239D01*
X131480973Y-77107338D01*
X131450200Y-77301634D01*
X131450200Y-77498367D01*
X131480973Y-77692663D01*
X131541766Y-77879762D01*
X131631075Y-78055039D01*
X131746706Y-78214191D01*
X131885810Y-78353295D01*
X132044962Y-78468926D01*
X132127774Y-78511121D01*
X132220238Y-78558234D01*
X132220240Y-78558234D01*
X132220243Y-78558236D01*
X132320530Y-78590821D01*
X132407337Y-78619027D01*
X132601634Y-78649801D01*
X132601639Y-78649801D01*
X132798366Y-78649801D01*
X132992662Y-78619027D01*
X133179757Y-78558236D01*
X133355038Y-78468926D01*
X133514190Y-78353295D01*
X133653294Y-78214191D01*
X133768925Y-78055039D01*
X133858235Y-77879758D01*
X133919026Y-77692663D01*
X133949800Y-77498367D01*
X133949800Y-77301634D01*
X133919026Y-77107338D01*
X133858233Y-76920239D01*
X133768924Y-76744962D01*
X133653294Y-76585811D01*
X133616273Y-76548790D01*
X133582788Y-76487467D01*
X133587772Y-76417775D01*
X133629642Y-76361842D01*
X133705246Y-76305246D01*
X133791496Y-76190031D01*
X133841791Y-76055183D01*
X133848200Y-75995573D01*
X133848199Y-74604428D01*
X133841791Y-74544817D01*
X133791496Y-74409969D01*
X133791495Y-74409968D01*
X133791493Y-74409964D01*
X133705247Y-74294756D01*
X133705248Y-74294756D01*
X133705246Y-74294754D01*
X133685040Y-74279628D01*
X133643171Y-74223696D01*
X133638187Y-74154004D01*
X133659035Y-74107479D01*
X133769524Y-73955405D01*
X133858884Y-73780025D01*
X133919709Y-73592826D01*
X133920575Y-73587358D01*
X133950500Y-73398422D01*
X133950500Y-71201576D01*
X133919709Y-71007172D01*
X133877230Y-70876437D01*
X133858882Y-70819968D01*
X133769523Y-70644593D01*
X133653828Y-70485353D01*
X133514646Y-70346171D01*
X133514641Y-70346167D01*
X133511903Y-70343829D01*
X133473710Y-70285323D01*
X133473210Y-70215455D01*
X133510563Y-70156408D01*
X133511899Y-70155250D01*
X133514176Y-70153303D01*
X133514190Y-70153294D01*
X133653294Y-70014190D01*
X133768925Y-69855038D01*
X133858235Y-69679757D01*
X133919026Y-69492662D01*
X133949800Y-69298366D01*
X133949800Y-69101633D01*
X133919026Y-68907337D01*
X133858233Y-68720238D01*
X133768924Y-68544961D01*
X133742886Y-68509123D01*
X133653294Y-68385810D01*
X133514190Y-68246706D01*
X133355038Y-68131075D01*
X133179761Y-68041766D01*
X132992662Y-67980973D01*
X132798366Y-67950200D01*
X132798361Y-67950200D01*
X132601639Y-67950200D01*
X132601634Y-67950200D01*
X132407337Y-67980973D01*
X132220238Y-68041766D01*
X132044961Y-68131075D01*
X131954159Y-68197047D01*
X131885810Y-68246706D01*
X131885808Y-68246708D01*
X131885807Y-68246708D01*
X131746708Y-68385807D01*
X131746708Y-68385808D01*
X131746706Y-68385810D01*
X131697047Y-68454159D01*
X131631075Y-68544961D01*
X131541766Y-68720238D01*
X131480973Y-68907337D01*
X131450200Y-69101633D01*
X131450200Y-69298366D01*
X131480973Y-69492662D01*
X131541766Y-69679761D01*
X131631075Y-69855038D01*
X131746706Y-70014190D01*
X131885810Y-70153294D01*
X131885816Y-70153298D01*
X131888092Y-70155242D01*
X131888720Y-70156204D01*
X131889255Y-70156739D01*
X131889142Y-70156851D01*
X131926288Y-70213746D01*
X131926792Y-70283614D01*
X131889442Y-70342663D01*
X131888105Y-70343821D01*
X131885354Y-70346170D01*
X130618344Y-71613181D01*
X130557021Y-71646666D01*
X130530663Y-71649500D01*
X128646729Y-71649500D01*
X128603396Y-71641682D01*
X128507482Y-71605908D01*
X128507483Y-71605908D01*
X128447883Y-71599501D01*
X128447881Y-71599500D01*
X128447873Y-71599500D01*
X128447864Y-71599500D01*
X126752129Y-71599500D01*
X126752123Y-71599501D01*
X126692516Y-71605908D01*
X126557671Y-71656202D01*
X126557664Y-71656206D01*
X126442455Y-71742452D01*
X126442452Y-71742455D01*
X126356206Y-71857664D01*
X126356202Y-71857671D01*
X126305908Y-71992517D01*
X126299501Y-72052116D01*
X126299322Y-72055452D01*
X126297741Y-72055367D01*
X126279815Y-72116417D01*
X126227011Y-72162172D01*
X126183727Y-72169822D01*
X125500001Y-72853549D01*
X125500001Y-72847337D01*
X125472742Y-72745604D01*
X125420081Y-72654392D01*
X125345607Y-72579918D01*
X125254395Y-72527257D01*
X125152662Y-72499998D01*
X125146447Y-72499998D01*
X125825923Y-71820522D01*
X125825922Y-71820521D01*
X125781360Y-71788145D01*
X125781351Y-71788139D01*
X125599032Y-71695242D01*
X125404418Y-71632007D01*
X125202318Y-71599998D01*
X124997684Y-71599998D01*
X124795583Y-71632007D01*
X124600969Y-71695242D01*
X124418645Y-71788141D01*
X124374078Y-71820521D01*
X124374078Y-71820522D01*
X125053555Y-72499998D01*
X125047340Y-72499998D01*
X124945607Y-72527257D01*
X124854395Y-72579918D01*
X124779921Y-72654392D01*
X124727260Y-72745604D01*
X124700001Y-72847337D01*
X124700001Y-72853551D01*
X124020525Y-72174075D01*
X124020524Y-72174075D01*
X123988144Y-72218642D01*
X123895245Y-72400966D01*
X123832010Y-72595580D01*
X123800001Y-72797680D01*
X123000500Y-72797680D01*
X123000500Y-69120948D01*
X123000501Y-69120943D01*
X123000500Y-69031707D01*
X123000695Y-69024759D01*
X123014586Y-68777339D01*
X123016140Y-68763549D01*
X123057063Y-68522667D01*
X123060151Y-68509136D01*
X123127787Y-68274354D01*
X123132372Y-68261249D01*
X123225872Y-68035508D01*
X123231892Y-68023008D01*
X123350078Y-67809157D01*
X123357465Y-67797400D01*
X123498844Y-67598136D01*
X123507498Y-67587283D01*
X123672092Y-67403094D01*
X123676820Y-67398094D01*
X124023204Y-67051710D01*
X124084525Y-67018227D01*
X124091474Y-67016922D01*
X124239535Y-66993472D01*
X124434220Y-66930215D01*
X124616611Y-66837282D01*
X124709591Y-66769727D01*
X124782214Y-66716966D01*
X124782216Y-66716963D01*
X124782220Y-66716961D01*
X124926967Y-66572214D01*
X124926969Y-66572210D01*
X124926972Y-66572208D01*
X125047283Y-66406612D01*
X125047288Y-66406605D01*
X125094518Y-66313910D01*
X125142491Y-66263116D01*
X125210312Y-66246320D01*
X125276447Y-66268857D01*
X125315487Y-66313911D01*
X125330777Y-66343919D01*
X125362718Y-66406607D01*
X125362721Y-66406611D01*
X125483034Y-66572211D01*
X125627792Y-66716969D01*
X125782755Y-66829554D01*
X125793396Y-66837285D01*
X125909613Y-66896501D01*
X125975782Y-66930216D01*
X125975784Y-66930216D01*
X125975787Y-66930218D01*
X126068124Y-66960220D01*
X126170471Y-66993475D01*
X126271563Y-67009486D01*
X126372654Y-67025498D01*
X126372655Y-67025498D01*
X126577357Y-67025498D01*
X126577358Y-67025498D01*
X126779540Y-66993475D01*
X126974225Y-66930218D01*
X127156616Y-66837285D01*
X127280924Y-66746971D01*
X127322219Y-66716969D01*
X127322221Y-66716966D01*
X127322225Y-66716964D01*
X127466972Y-66572217D01*
X127466974Y-66572213D01*
X127466977Y-66572211D01*
X127587290Y-66406612D01*
X127587291Y-66406611D01*
X127587293Y-66406608D01*
X127634518Y-66313921D01*
X127682492Y-66263127D01*
X127750313Y-66246332D01*
X127816448Y-66268869D01*
X127855488Y-66313923D01*
X127902712Y-66406606D01*
X127902715Y-66406610D01*
X128023028Y-66572210D01*
X128167786Y-66716968D01*
X128322749Y-66829553D01*
X128333390Y-66837284D01*
X128449607Y-66896500D01*
X128515776Y-66930215D01*
X128515778Y-66930215D01*
X128515781Y-66930217D01*
X128606687Y-66959754D01*
X128710465Y-66993474D01*
X128811557Y-67009485D01*
X128912648Y-67025497D01*
X128912649Y-67025497D01*
X129117351Y-67025497D01*
X129117352Y-67025497D01*
X129319534Y-66993474D01*
X129514219Y-66930217D01*
X129696610Y-66837284D01*
X129789590Y-66769729D01*
X129862213Y-66716968D01*
X129862215Y-66716965D01*
X129862219Y-66716963D01*
X130006966Y-66572216D01*
X130006970Y-66572211D01*
X130006971Y-66572210D01*
X130127284Y-66406611D01*
X130127286Y-66406608D01*
X130127287Y-66406607D01*
X130174512Y-66313920D01*
X130222486Y-66263126D01*
X130290307Y-66246331D01*
X130356442Y-66268868D01*
X130395481Y-66313921D01*
X130442709Y-66406611D01*
X130442713Y-66406617D01*
X130563026Y-66572217D01*
X130707784Y-66716975D01*
X130862747Y-66829560D01*
X130873388Y-66837291D01*
X130989605Y-66896507D01*
X131055774Y-66930222D01*
X131055776Y-66930222D01*
X131055779Y-66930224D01*
X131146663Y-66959754D01*
X131250463Y-66993481D01*
X131351555Y-67009492D01*
X131452646Y-67025504D01*
X131452647Y-67025504D01*
X131657349Y-67025504D01*
X131657350Y-67025504D01*
X131859532Y-66993481D01*
X132054217Y-66930224D01*
X132236608Y-66837291D01*
X132360931Y-66746966D01*
X132402211Y-66716975D01*
X132402213Y-66716972D01*
X132402217Y-66716970D01*
X132546964Y-66572223D01*
X132546966Y-66572219D01*
X132546969Y-66572217D01*
X132599730Y-66499594D01*
X132667285Y-66406614D01*
X132760218Y-66224223D01*
X132823475Y-66029538D01*
X132855498Y-65827356D01*
X132855498Y-65622652D01*
X132837559Y-65509394D01*
X132823475Y-65420469D01*
X132794125Y-65330141D01*
X132760218Y-65225785D01*
X132760216Y-65225782D01*
X132760216Y-65225780D01*
X132682701Y-65073650D01*
X132667285Y-65043394D01*
X132607155Y-64960631D01*
X132546969Y-64877790D01*
X132402211Y-64733032D01*
X132236611Y-64612719D01*
X132236610Y-64612718D01*
X132236608Y-64612717D01*
X132179651Y-64583695D01*
X132054221Y-64519785D01*
X131859532Y-64456526D01*
X131684063Y-64428735D01*
X131657350Y-64424504D01*
X131452646Y-64424504D01*
X131428327Y-64428355D01*
X131250463Y-64456526D01*
X131055774Y-64519785D01*
X130873384Y-64612719D01*
X130707784Y-64733032D01*
X130563026Y-64877790D01*
X130442711Y-65043392D01*
X130395484Y-65136079D01*
X130347509Y-65186874D01*
X130279688Y-65203669D01*
X130213553Y-65181131D01*
X130174515Y-65136078D01*
X130174511Y-65136071D01*
X130127287Y-65043387D01*
X130127285Y-65043384D01*
X130127284Y-65043382D01*
X130006971Y-64877783D01*
X129862219Y-64733031D01*
X129862208Y-64733023D01*
X129790283Y-64680766D01*
X129747618Y-64625438D01*
X129743398Y-64612555D01*
X129696329Y-64436894D01*
X129568517Y-64085735D01*
X129470759Y-63876094D01*
X129417632Y-63762162D01*
X129410586Y-63747052D01*
X129223738Y-63423422D01*
X129009394Y-63117309D01*
X128921668Y-63012762D01*
X128769199Y-62831057D01*
X128769194Y-62831051D01*
X128769186Y-62831042D01*
X128698040Y-62759896D01*
X128698039Y-62759895D01*
X127469561Y-61531417D01*
X127469559Y-61531414D01*
X127444921Y-61506776D01*
X127444871Y-61506685D01*
X127266732Y-61328551D01*
X127255977Y-61319527D01*
X127181511Y-61257043D01*
X126959330Y-61070615D01*
X126630629Y-60840462D01*
X126630615Y-60840453D01*
X126283100Y-60639820D01*
X126105272Y-60556900D01*
X125919411Y-60470234D01*
X125919408Y-60470233D01*
X125919404Y-60470231D01*
X125919399Y-60470229D01*
X125542348Y-60332998D01*
X125542320Y-60332989D01*
X125220096Y-60246654D01*
X125154723Y-60229139D01*
X125154719Y-60229138D01*
X125154701Y-60229134D01*
X124759547Y-60159463D01*
X124759540Y-60159462D01*
X124759539Y-60159462D01*
X124659600Y-60150719D01*
X124359788Y-60124493D01*
X124359785Y-60124493D01*
X124245376Y-60124494D01*
X124062236Y-60124496D01*
X124061777Y-60124496D01*
X124052048Y-60124114D01*
X123890719Y-60111417D01*
X123871501Y-60108373D01*
X123718903Y-60071738D01*
X123700397Y-60065725D01*
X123555407Y-60005668D01*
X123538071Y-59996835D01*
X123404261Y-59914837D01*
X123388518Y-59903399D01*
X123267284Y-59799855D01*
X123256761Y-59789737D01*
X122994597Y-59506137D01*
X122988274Y-59498734D01*
X122825723Y-59292544D01*
X122747625Y-59193480D01*
X122741925Y-59185636D01*
X122525951Y-58862416D01*
X122520874Y-58854130D01*
X122330943Y-58514993D01*
X122326523Y-58506318D01*
X122325914Y-58504998D01*
X122163785Y-58153321D01*
X122160069Y-58144351D01*
X122053318Y-57854998D01*
X122658387Y-57854998D01*
X123619310Y-57854998D01*
X123614916Y-57859392D01*
X123562255Y-57950604D01*
X123534996Y-58052337D01*
X123534996Y-58157659D01*
X123562255Y-58259392D01*
X123614916Y-58350604D01*
X123619310Y-58354998D01*
X122658387Y-58354998D01*
X122667005Y-58409411D01*
X122730240Y-58604027D01*
X122823136Y-58786347D01*
X122943413Y-58951892D01*
X122943413Y-58951893D01*
X123088100Y-59096580D01*
X123253646Y-59216857D01*
X123435964Y-59309752D01*
X123630574Y-59372986D01*
X123684996Y-59381605D01*
X123684996Y-58420684D01*
X123689390Y-58425078D01*
X123780602Y-58477739D01*
X123882335Y-58504998D01*
X123987657Y-58504998D01*
X124089390Y-58477739D01*
X124180602Y-58425078D01*
X124184996Y-58420684D01*
X124184996Y-59381604D01*
X124239417Y-59372986D01*
X124434027Y-59309752D01*
X124616345Y-59216857D01*
X124781890Y-59096580D01*
X124781891Y-59096580D01*
X124926578Y-58951893D01*
X124926578Y-58951892D01*
X125046857Y-58786345D01*
X125094231Y-58693368D01*
X125142205Y-58642571D01*
X125210026Y-58625776D01*
X125276161Y-58648313D01*
X125315201Y-58693367D01*
X125362714Y-58786615D01*
X125483027Y-58952215D01*
X125627785Y-59096973D01*
X125760629Y-59193488D01*
X125793389Y-59217289D01*
X125882207Y-59262544D01*
X125975775Y-59310220D01*
X125975777Y-59310220D01*
X125975780Y-59310222D01*
X126068098Y-59340218D01*
X126170464Y-59373479D01*
X126271556Y-59389490D01*
X126372647Y-59405502D01*
X126372648Y-59405502D01*
X126577350Y-59405502D01*
X126577351Y-59405502D01*
X126779533Y-59373479D01*
X126974218Y-59310222D01*
X127156609Y-59217289D01*
X127280929Y-59126966D01*
X127322212Y-59096973D01*
X127322214Y-59096970D01*
X127322218Y-59096968D01*
X127466965Y-58952221D01*
X127466967Y-58952217D01*
X127466970Y-58952215D01*
X127587285Y-58786613D01*
X127587422Y-58786345D01*
X127634515Y-58693919D01*
X127682488Y-58643125D01*
X127750309Y-58626329D01*
X127816444Y-58648866D01*
X127855484Y-58693920D01*
X127902714Y-58786613D01*
X128023027Y-58952213D01*
X128167785Y-59096971D01*
X128300632Y-59193488D01*
X128333389Y-59217287D01*
X128422211Y-59262544D01*
X128515775Y-59310218D01*
X128515777Y-59310218D01*
X128515780Y-59310220D01*
X128620136Y-59344127D01*
X128710464Y-59373477D01*
X128761776Y-59381604D01*
X128912647Y-59405500D01*
X128912648Y-59405500D01*
X129117350Y-59405500D01*
X129117351Y-59405500D01*
X129319533Y-59373477D01*
X129514218Y-59310220D01*
X129696609Y-59217287D01*
X129800433Y-59141855D01*
X129862212Y-59096971D01*
X129862214Y-59096968D01*
X129862218Y-59096966D01*
X130006965Y-58952219D01*
X130033330Y-58915930D01*
X130088658Y-58873264D01*
X130158272Y-58867283D01*
X130220067Y-58899888D01*
X130254426Y-58960726D01*
X130256938Y-58975558D01*
X130260907Y-59012480D01*
X130311202Y-59147328D01*
X130311206Y-59147335D01*
X130397452Y-59262544D01*
X130397455Y-59262547D01*
X130512664Y-59348793D01*
X130512671Y-59348797D01*
X130647517Y-59399091D01*
X130647516Y-59399091D01*
X130654444Y-59399835D01*
X130707127Y-59405500D01*
X132402872Y-59405499D01*
X132462483Y-59399091D01*
X132597331Y-59348796D01*
X132712546Y-59262546D01*
X132798796Y-59147331D01*
X132849091Y-59012483D01*
X132855500Y-58952873D01*
X132855499Y-57257128D01*
X132849091Y-57197517D01*
X132828770Y-57143034D01*
X132798797Y-57062671D01*
X132798793Y-57062664D01*
X132712547Y-56947455D01*
X132712544Y-56947452D01*
X132597335Y-56861206D01*
X132597328Y-56861202D01*
X132462482Y-56810908D01*
X132462483Y-56810908D01*
X132402883Y-56804501D01*
X132402881Y-56804500D01*
X132402873Y-56804500D01*
X132402864Y-56804500D01*
X130707129Y-56804500D01*
X130707123Y-56804501D01*
X130647516Y-56810908D01*
X130512671Y-56861202D01*
X130512664Y-56861206D01*
X130397455Y-56947452D01*
X130397452Y-56947455D01*
X130311206Y-57062664D01*
X130311202Y-57062671D01*
X130260908Y-57197516D01*
X130256938Y-57234443D01*
X130230199Y-57298994D01*
X130172805Y-57338840D01*
X130102980Y-57341332D01*
X130042892Y-57305679D01*
X130033330Y-57294070D01*
X130028764Y-57287786D01*
X130006965Y-57257781D01*
X129862218Y-57113034D01*
X129862212Y-57113028D01*
X129696612Y-56992715D01*
X129696611Y-56992714D01*
X129696609Y-56992713D01*
X129639652Y-56963691D01*
X129514222Y-56899781D01*
X129319533Y-56836522D01*
X129144994Y-56808878D01*
X129117351Y-56804500D01*
X128912647Y-56804500D01*
X128888328Y-56808351D01*
X128710464Y-56836522D01*
X128515775Y-56899781D01*
X128333385Y-56992715D01*
X128167785Y-57113028D01*
X128023027Y-57257786D01*
X127902711Y-57423389D01*
X127902710Y-57423391D01*
X127855482Y-57516081D01*
X127807508Y-57566877D01*
X127739687Y-57583672D01*
X127673552Y-57561134D01*
X127634513Y-57516081D01*
X127602570Y-57453390D01*
X127587286Y-57423392D01*
X127587284Y-57423389D01*
X127587283Y-57423387D01*
X127466970Y-57257788D01*
X127322212Y-57113030D01*
X127156612Y-56992717D01*
X127156611Y-56992716D01*
X127156609Y-56992715D01*
X127099652Y-56963693D01*
X126974222Y-56899783D01*
X126779533Y-56836524D01*
X126604994Y-56808880D01*
X126577351Y-56804502D01*
X126372647Y-56804502D01*
X126348328Y-56808353D01*
X126170464Y-56836524D01*
X125975775Y-56899783D01*
X125793385Y-56992717D01*
X125627785Y-57113030D01*
X125483027Y-57257788D01*
X125362712Y-57423390D01*
X125315202Y-57516633D01*
X125267228Y-57567428D01*
X125199406Y-57584223D01*
X125133272Y-57561685D01*
X125094233Y-57516632D01*
X125046855Y-57423648D01*
X124926578Y-57258103D01*
X124926578Y-57258102D01*
X124781891Y-57113415D01*
X124616345Y-56993138D01*
X124434025Y-56900242D01*
X124239409Y-56837007D01*
X124184996Y-56828388D01*
X124184996Y-57789312D01*
X124180602Y-57784918D01*
X124089390Y-57732257D01*
X123987657Y-57704998D01*
X123882335Y-57704998D01*
X123780602Y-57732257D01*
X123689390Y-57784918D01*
X123684996Y-57789312D01*
X123684996Y-56828388D01*
X123630582Y-56837007D01*
X123435966Y-56900242D01*
X123253646Y-56993138D01*
X123088101Y-57113415D01*
X123088100Y-57113415D01*
X122943413Y-57258102D01*
X122943413Y-57258103D01*
X122823136Y-57423648D01*
X122730240Y-57605968D01*
X122667005Y-57800584D01*
X122658387Y-57854998D01*
X122053318Y-57854998D01*
X122025522Y-57779655D01*
X122022525Y-57770431D01*
X121917008Y-57396311D01*
X121914735Y-57386844D01*
X121911649Y-57371332D01*
X121838895Y-57005594D01*
X121837380Y-56996023D01*
X121791687Y-56609990D01*
X121790926Y-56600318D01*
X121775596Y-56210218D01*
X121775500Y-56205349D01*
X121775500Y-54214246D01*
X121775477Y-54213793D01*
X121775479Y-54106475D01*
X121744088Y-53707575D01*
X121681496Y-53312368D01*
X121588089Y-52923291D01*
X121563011Y-52846109D01*
X121525709Y-52731301D01*
X121523714Y-52661459D01*
X121559795Y-52601627D01*
X121622496Y-52570799D01*
X121681958Y-52575052D01*
X121686584Y-52576555D01*
X121686588Y-52576557D01*
X121888757Y-52642246D01*
X122098713Y-52675500D01*
X122098714Y-52675500D01*
X122311286Y-52675500D01*
X122311287Y-52675500D01*
X122521243Y-52642246D01*
X122723412Y-52576557D01*
X122912816Y-52480051D01*
X122999138Y-52417335D01*
X123084786Y-52355109D01*
X123084788Y-52355106D01*
X123084792Y-52355104D01*
X123235104Y-52204792D01*
X123235106Y-52204788D01*
X123235109Y-52204786D01*
X123360048Y-52032820D01*
X123360047Y-52032820D01*
X123360051Y-52032816D01*
X123456557Y-51843412D01*
X123522246Y-51641243D01*
X123555500Y-51431287D01*
X123555500Y-51218713D01*
X123522246Y-51008757D01*
X123456557Y-50806588D01*
X123360051Y-50617184D01*
X123360049Y-50617181D01*
X123360048Y-50617179D01*
X123235109Y-50445213D01*
X123084786Y-50294890D01*
X122912817Y-50169949D01*
X122903504Y-50165204D01*
X122852707Y-50117230D01*
X122835912Y-50049409D01*
X122858449Y-49983274D01*
X122903507Y-49944232D01*
X122912558Y-49939620D01*
X123084459Y-49814727D01*
X123084464Y-49814723D01*
X123234723Y-49664464D01*
X123234727Y-49664459D01*
X123359620Y-49492557D01*
X123456095Y-49303217D01*
X123521757Y-49101129D01*
X123521757Y-49101126D01*
X123532231Y-49035000D01*
X122638012Y-49035000D01*
X122670925Y-48977993D01*
X122705000Y-48850826D01*
X122705000Y-48719174D01*
X122670925Y-48592007D01*
X122638012Y-48535000D01*
X123532231Y-48535000D01*
X123521757Y-48468873D01*
X123521757Y-48468870D01*
X123456095Y-48266782D01*
X123359620Y-48077442D01*
X123234727Y-47905540D01*
X123234723Y-47905535D01*
X123084464Y-47755276D01*
X123084459Y-47755272D01*
X122912557Y-47630379D01*
X122723215Y-47533903D01*
X122521124Y-47468241D01*
X122455000Y-47457768D01*
X122455000Y-48351988D01*
X122397993Y-48319075D01*
X122270826Y-48285000D01*
X122139174Y-48285000D01*
X122012007Y-48319075D01*
X121955000Y-48351988D01*
X121955000Y-47457768D01*
X121954999Y-47457768D01*
X121888875Y-47468241D01*
X121686784Y-47533903D01*
X121497442Y-47630379D01*
X121325540Y-47755272D01*
X121325535Y-47755276D01*
X121175276Y-47905535D01*
X121175272Y-47905540D01*
X121050378Y-48077443D01*
X121045762Y-48086502D01*
X120997784Y-48137295D01*
X120929963Y-48154087D01*
X120863829Y-48131546D01*
X120824794Y-48086493D01*
X120820051Y-48077184D01*
X120820049Y-48077181D01*
X120820048Y-48077179D01*
X120695109Y-47905213D01*
X120544786Y-47754890D01*
X120372826Y-47629956D01*
X120372817Y-47629950D01*
X120372818Y-47629950D01*
X120372816Y-47629949D01*
X120358327Y-47622567D01*
X120307533Y-47574595D01*
X120307237Y-47574084D01*
X120254616Y-47482945D01*
X120254611Y-47482938D01*
X120117801Y-47304655D01*
X120117797Y-47304650D01*
X120117796Y-47304649D01*
X120117793Y-47304645D01*
X120038331Y-47225187D01*
X119977356Y-47164216D01*
X119977353Y-47164214D01*
X119973412Y-47160273D01*
X119973390Y-47160253D01*
X119916714Y-47103576D01*
X119916713Y-47103575D01*
X119916709Y-47103571D01*
X119650737Y-46885287D01*
X119438575Y-46743520D01*
X119364662Y-46694131D01*
X119364657Y-46694128D01*
X119364651Y-46694124D01*
X119061204Y-46531923D01*
X119061193Y-46531918D01*
X119061188Y-46531916D01*
X118743325Y-46400248D01*
X118743322Y-46400247D01*
X118743323Y-46400247D01*
X118743320Y-46400246D01*
X118652574Y-46372717D01*
X118414070Y-46300363D01*
X118414061Y-46300361D01*
X118414060Y-46300361D01*
X118346201Y-46286862D01*
X118076604Y-46233232D01*
X118076596Y-46233231D01*
X118005960Y-46226273D01*
X117734175Y-46199502D01*
X117734171Y-46199501D01*
X117734161Y-46199501D01*
X117654491Y-46199501D01*
X117648362Y-46199500D01*
X117648358Y-46199500D01*
X117562136Y-46199500D01*
X117475907Y-46199499D01*
X117475906Y-46199499D01*
X117470319Y-46199499D01*
X117469997Y-46199514D01*
X117236333Y-46199514D01*
X116585766Y-46236047D01*
X116585762Y-46236047D01*
X116585752Y-46236048D01*
X115938314Y-46308995D01*
X115938261Y-46309002D01*
X115295888Y-46418143D01*
X114660642Y-46563133D01*
X114660632Y-46563136D01*
X114034500Y-46743520D01*
X113419465Y-46958729D01*
X113419459Y-46958731D01*
X112817479Y-47208079D01*
X112230429Y-47490786D01*
X112230426Y-47490787D01*
X111660124Y-47805982D01*
X111108416Y-48152642D01*
X110576988Y-48529710D01*
X110067557Y-48935967D01*
X109581704Y-49370150D01*
X109412304Y-49539551D01*
X102153675Y-56798181D01*
X102092352Y-56831666D01*
X102065994Y-56834500D01*
X101952648Y-56834500D01*
X101939863Y-56836525D01*
X101750465Y-56866522D01*
X101555776Y-56929781D01*
X101373386Y-57022715D01*
X101207786Y-57143028D01*
X101063028Y-57287786D01*
X100942715Y-57453386D01*
X100849781Y-57635776D01*
X100786522Y-57830465D01*
X100754500Y-58032648D01*
X96500500Y-58032648D01*
X96500500Y-51002561D01*
X96500606Y-50997437D01*
X96507225Y-50837409D01*
X96519072Y-50550961D01*
X96519915Y-50540792D01*
X96574874Y-50099881D01*
X96576554Y-50089809D01*
X96667734Y-49654951D01*
X96670241Y-49645055D01*
X96797022Y-49219205D01*
X96800336Y-49209553D01*
X96961840Y-48795654D01*
X96965954Y-48786275D01*
X97161088Y-48387120D01*
X97165949Y-48378136D01*
X97393389Y-47996445D01*
X97398982Y-47987885D01*
X97657153Y-47626294D01*
X97663422Y-47618240D01*
X97950581Y-47279191D01*
X97957500Y-47271675D01*
X98271675Y-46957500D01*
X98279191Y-46950581D01*
X98618240Y-46663422D01*
X98626294Y-46657153D01*
X98987885Y-46398982D01*
X98996445Y-46393389D01*
X99378136Y-46165949D01*
X99387120Y-46161088D01*
X99786280Y-45965951D01*
X99795654Y-45961840D01*
X100209553Y-45800336D01*
X100219205Y-45797022D01*
X100645055Y-45670241D01*
X100654951Y-45667734D01*
X101089809Y-45576554D01*
X101099881Y-45574874D01*
X101540792Y-45519915D01*
X101550961Y-45519072D01*
X101997437Y-45500605D01*
X102002561Y-45500500D01*
X102065892Y-45500500D01*
X130934108Y-45500500D01*
X130997439Y-45500500D01*
X131002562Y-45500605D01*
G37*
%TD.AperFunction*%
%TD*%
M02*
