M48
; DRILL file {KiCad 9.0.0} date 2025-03-04T00:16:46-0800
; FORMAT={-:-/ absolute / inch / decimal}
; #@! TF.CreationDate,2025-03-04T00:16:46-08:00
; #@! TF.GenerationSoftware,Kicad,Pcbnew,9.0.0
; #@! TF.FileFunction,Plated,1,2,PTH
FMAT,2
INCH
; #@! TA.AperFunction,Plated,PTH,ComponentDrill
T1C0.0310
; #@! TA.AperFunction,Plated,PTH,ComponentDrill
T2C0.0315
; #@! TA.AperFunction,Plated,PTH,ComponentDrill
T3C0.0354
; #@! TA.AperFunction,Plated,PTH,ComponentDrill
T4C0.0394
; #@! TA.AperFunction,Plated,PTH,ComponentDrill
T5C0.0590
%
G90
G05
T1
X5.1575Y-3.6614
X5.2362Y-3.6614
X5.315Y-3.6614
T2
X4.5772Y-2.6921
X4.5772Y-2.9921
X4.6772Y-2.6921
X4.6772Y-2.9921
X4.7772Y-2.6921
X4.7772Y-2.9921
X4.8772Y-2.6921
X4.8772Y-2.9921
X4.9772Y-2.6921
X4.9772Y-2.9921
X5.0772Y-2.6921
X5.0772Y-2.9921
X5.1772Y-2.6921
X5.1772Y-2.9921
X5.4921Y-3.622
X5.548Y-2.2441
X5.5906Y-3.622
X5.6055Y-2.6921
X5.6055Y-2.9921
X5.7055Y-2.6921
X5.7055Y-2.9921
X5.8055Y-2.6921
X5.8055Y-2.9921
X5.9055Y-2.6921
X5.9055Y-2.9921
X5.948Y-2.2441
T3
X6.072Y-2.2441
X6.172Y-2.2441
T4
X4.5772Y-2.5394
X4.5772Y-3.1496
X4.677Y-1.937
X4.6772Y-2.5394
X4.6772Y-3.1496
X4.777Y-1.937
X4.7772Y-2.5394
X4.7772Y-3.1496
X4.877Y-1.937
X4.8772Y-2.5394
X4.8772Y-3.1496
X4.977Y-1.937
X4.9772Y-2.5394
X4.9772Y-3.1496
X5.037Y-3.837
X5.077Y-1.937
X5.0772Y-2.5394
X5.0772Y-3.1496
X5.137Y-3.837
X5.177Y-1.937
X5.1772Y-2.5394
X5.1772Y-3.1496
X5.237Y-3.837
X5.277Y-1.937
X5.337Y-3.837
X5.377Y-1.937
X5.437Y-3.837
X5.477Y-1.937
X5.537Y-3.837
X5.577Y-1.937
X5.6055Y-2.5394
X5.6055Y-3.1496
X5.637Y-3.837
X5.7055Y-2.5394
X5.7055Y-3.1496
X5.737Y-1.937
X5.737Y-3.837
X5.8055Y-2.5394
X5.8055Y-3.1496
X5.837Y-1.937
X5.9055Y-2.5394
X5.9055Y-3.1496
X5.937Y-1.937
X5.937Y-3.837
X6.037Y-1.937
X6.037Y-3.837
X6.137Y-1.937
X6.137Y-3.837
X6.237Y-1.937
X6.237Y-3.837
X6.337Y-1.937
X6.337Y-3.837
X6.4354Y-2.7346
X6.4354Y-2.8346
X6.4354Y-2.9346
X6.437Y-1.937
X6.437Y-3.837
X6.5354Y-2.7346
X6.5354Y-2.8346
X6.5354Y-2.9346
T5
X5.0748Y-3.6614
X5.3976Y-3.6614
M30
