%TF.GenerationSoftware,KiCad,Pcbnew,9.0.0*%
%TF.CreationDate,2025-03-04T00:16:50-08:00*%
%TF.ProjectId,UnoProgrammers,556e6f50-726f-4677-9261-6d6d6572732e,rev?*%
%TF.SameCoordinates,Original*%
%TF.FileFunction,Copper,L2,Bot*%
%TF.FilePolarity,Positive*%
%FSLAX46Y46*%
G04 Gerber Fmt 4.6, Leading zero omitted, Abs format (unit mm)*
G04 Created by KiCad (PCBNEW 9.0.0) date 2025-03-04 00:16:50*
%MOMM*%
%LPD*%
G01*
G04 APERTURE LIST*
G04 Aperture macros list*
%AMRoundRect*
0 Rectangle with rounded corners*
0 $1 Rounding radius*
0 $2 $3 $4 $5 $6 $7 $8 $9 X,Y pos of 4 corners*
0 Add a 4 corners polygon primitive as box body*
4,1,4,$2,$3,$4,$5,$6,$7,$8,$9,$2,$3,0*
0 Add four circle primitives for the rounded corners*
1,1,$1+$1,$2,$3*
1,1,$1+$1,$4,$5*
1,1,$1+$1,$6,$7*
1,1,$1+$1,$8,$9*
0 Add four rect primitives between the rounded corners*
20,1,$1+$1,$2,$3,$4,$5,0*
20,1,$1+$1,$4,$5,$6,$7,0*
20,1,$1+$1,$6,$7,$8,$9,0*
20,1,$1+$1,$8,$9,$2,$3,0*%
G04 Aperture macros list end*
%TA.AperFunction,ComponentPad*%
%ADD10R,1.700000X1.700000*%
%TD*%
%TA.AperFunction,ComponentPad*%
%ADD11O,1.700000X1.700000*%
%TD*%
%TA.AperFunction,ComponentPad*%
%ADD12RoundRect,0.250000X0.550000X-0.550000X0.550000X0.550000X-0.550000X0.550000X-0.550000X-0.550000X0*%
%TD*%
%TA.AperFunction,ComponentPad*%
%ADD13C,1.600000*%
%TD*%
%TA.AperFunction,ComponentPad*%
%ADD14R,1.600000X1.600000*%
%TD*%
%TA.AperFunction,ComponentPad*%
%ADD15R,1.800000X1.800000*%
%TD*%
%TA.AperFunction,ComponentPad*%
%ADD16C,1.800000*%
%TD*%
%TA.AperFunction,ComponentPad*%
%ADD17R,1.295400X1.295400*%
%TD*%
%TA.AperFunction,ComponentPad*%
%ADD18C,1.295400*%
%TD*%
%TA.AperFunction,ComponentPad*%
%ADD19C,1.498600*%
%TD*%
%TA.AperFunction,ComponentPad*%
%ADD20O,1.600000X1.600000*%
%TD*%
%TA.AperFunction,Conductor*%
%ADD21C,0.600000*%
%TD*%
%TA.AperFunction,Conductor*%
%ADD22C,0.400000*%
%TD*%
G04 APERTURE END LIST*
D10*
%TO.P,J1,1,Pin_1*%
%TO.N,unconnected-(J1-Pin_1-Pad1)*%
X127940000Y-97460000D03*
D11*
%TO.P,J1,2,Pin_2*%
%TO.N,/IOREF*%
X130480000Y-97460000D03*
%TO.P,J1,3,Pin_3*%
%TO.N,/~{RESET}*%
X133020000Y-97460000D03*
%TO.P,J1,4,Pin_4*%
%TO.N,+3V3*%
X135560000Y-97460000D03*
%TO.P,J1,5,Pin_5*%
%TO.N,+5V*%
X138100000Y-97460000D03*
%TO.P,J1,6,Pin_6*%
%TO.N,GND*%
X140640000Y-97460000D03*
%TO.P,J1,7,Pin_7*%
X143180000Y-97460000D03*
%TO.P,J1,8,Pin_8*%
%TO.N,VCC*%
X145720000Y-97460000D03*
%TD*%
D10*
%TO.P,J3,1,Pin_1*%
%TO.N,/A0*%
X150800000Y-97460000D03*
D11*
%TO.P,J3,2,Pin_2*%
%TO.N,/A1*%
X153340000Y-97460000D03*
%TO.P,J3,3,Pin_3*%
%TO.N,/A2*%
X155880000Y-97460000D03*
%TO.P,J3,4,Pin_4*%
%TO.N,/A3*%
X158420000Y-97460000D03*
%TO.P,J3,5,Pin_5*%
%TO.N,/SDA{slash}A4*%
X160960000Y-97460000D03*
%TO.P,J3,6,Pin_6*%
%TO.N,/SCL{slash}A5*%
X163500000Y-97460000D03*
%TD*%
D10*
%TO.P,J2,1,Pin_1*%
%TO.N,/SCL{slash}A5*%
X118796000Y-49200000D03*
D11*
%TO.P,J2,2,Pin_2*%
%TO.N,/SDA{slash}A4*%
X121336000Y-49200000D03*
%TO.P,J2,3,Pin_3*%
%TO.N,/AREF*%
X123876000Y-49200000D03*
%TO.P,J2,4,Pin_4*%
%TO.N,GND*%
X126416000Y-49200000D03*
%TO.P,J2,5,Pin_5*%
%TO.N,/13*%
X128956000Y-49200000D03*
%TO.P,J2,6,Pin_6*%
%TO.N,/12*%
X131496000Y-49200000D03*
%TO.P,J2,7,Pin_7*%
%TO.N,/\u002A11*%
X134036000Y-49200000D03*
%TO.P,J2,8,Pin_8*%
%TO.N,/\u002A10*%
X136576000Y-49200000D03*
%TO.P,J2,9,Pin_9*%
%TO.N,/\u002A9*%
X139116000Y-49200000D03*
%TO.P,J2,10,Pin_10*%
%TO.N,/8*%
X141656000Y-49200000D03*
%TD*%
D10*
%TO.P,J4,1,Pin_1*%
%TO.N,/7*%
X145720000Y-49200000D03*
D11*
%TO.P,J4,2,Pin_2*%
%TO.N,/\u002A6*%
X148260000Y-49200000D03*
%TO.P,J4,3,Pin_3*%
%TO.N,/\u002A5*%
X150800000Y-49200000D03*
%TO.P,J4,4,Pin_4*%
%TO.N,/4*%
X153340000Y-49200000D03*
%TO.P,J4,5,Pin_5*%
%TO.N,/\u002A3*%
X155880000Y-49200000D03*
%TO.P,J4,6,Pin_6*%
%TO.N,/2*%
X158420000Y-49200000D03*
%TO.P,J4,7,Pin_7*%
%TO.N,/TX{slash}1*%
X160960000Y-49200000D03*
%TO.P,J4,8,Pin_8*%
%TO.N,/RX{slash}0*%
X163500000Y-49200000D03*
%TD*%
D12*
%TO.P,U1,1,VCC*%
%TO.N,+5V*%
X116260000Y-76000000D03*
D13*
%TO.P,U1,2,XTAL1/PB0*%
%TO.N,Net-(J6-Pin_2)*%
X118800000Y-76000000D03*
%TO.P,U1,3,XTAL2/PB1*%
%TO.N,Net-(J6-Pin_3)*%
X121340000Y-76000000D03*
%TO.P,U1,4,~{RESET}/PB3*%
%TO.N,/\u002A10*%
X123880000Y-76000000D03*
%TO.P,U1,5,PB2*%
%TO.N,Net-(J6-Pin_5)*%
X126420000Y-76000000D03*
%TO.P,U1,6,PA7*%
%TO.N,Net-(J6-Pin_6)*%
X128960000Y-76000000D03*
%TO.P,U1,7,PA6*%
%TO.N,/\u002A11*%
X131500000Y-76000000D03*
%TO.P,U1,8,PA5*%
%TO.N,/12*%
X131500000Y-68380000D03*
%TO.P,U1,9,PA4*%
%TO.N,/13*%
X128960000Y-68380000D03*
%TO.P,U1,10,PA3*%
%TO.N,Net-(J7-Pin_5)*%
X126420000Y-68380000D03*
%TO.P,U1,11,PA2*%
%TO.N,Net-(J7-Pin_4)*%
X123880000Y-68380000D03*
%TO.P,U1,12,PA1*%
%TO.N,Net-(J7-Pin_3)*%
X121340000Y-68380000D03*
%TO.P,U1,13,AREF/PA0*%
%TO.N,Net-(J7-Pin_2)*%
X118800000Y-68380000D03*
%TO.P,U1,14,GND*%
%TO.N,GND*%
X116260000Y-68380000D03*
%TD*%
D10*
%TO.P,J6,1,Pin_1*%
%TO.N,+5V*%
X116260000Y-80000000D03*
D11*
%TO.P,J6,2,Pin_2*%
%TO.N,Net-(J6-Pin_2)*%
X118800000Y-80000000D03*
%TO.P,J6,3,Pin_3*%
%TO.N,Net-(J6-Pin_3)*%
X121340000Y-80000000D03*
%TO.P,J6,4,Pin_4*%
%TO.N,/\u002A10*%
X123880000Y-80000000D03*
%TO.P,J6,5,Pin_5*%
%TO.N,Net-(J6-Pin_5)*%
X126420000Y-80000000D03*
%TO.P,J6,6,Pin_6*%
%TO.N,Net-(J6-Pin_6)*%
X128960000Y-80000000D03*
%TO.P,J6,7,Pin_7*%
%TO.N,/\u002A11*%
X131500000Y-80000000D03*
%TD*%
D12*
%TO.P,U2,1,~{RESET}/PB5*%
%TO.N,/\u002A10*%
X142380000Y-76000000D03*
D13*
%TO.P,U2,2,XTAL1/PB3*%
%TO.N,Net-(J8-Pin_2)*%
X144920000Y-76000000D03*
%TO.P,U2,3,XTAL2/PB4*%
%TO.N,Net-(J8-Pin_3)*%
X147460000Y-76000000D03*
%TO.P,U2,4,GND*%
%TO.N,GND*%
X150000000Y-76000000D03*
%TO.P,U2,5,AREF/PB0*%
%TO.N,/\u002A11*%
X150000000Y-68380000D03*
%TO.P,U2,6,PB1*%
%TO.N,/12*%
X147460000Y-68380000D03*
%TO.P,U2,7,PB2*%
%TO.N,/13*%
X144920000Y-68380000D03*
%TO.P,U2,8,VCC*%
%TO.N,+5V*%
X142380000Y-68380000D03*
%TD*%
D14*
%TO.P,C1,1*%
%TO.N,Net-(C1-Pad1)*%
X139500000Y-92000000D03*
D13*
%TO.P,C1,2*%
%TO.N,GND*%
X142000000Y-92000000D03*
%TD*%
D10*
%TO.P,J9,1,Pin_1*%
%TO.N,+5V*%
X142380000Y-64500000D03*
D11*
%TO.P,J9,2,Pin_2*%
%TO.N,/13*%
X144920000Y-64500000D03*
%TO.P,J9,3,Pin_3*%
%TO.N,/12*%
X147460000Y-64500000D03*
%TO.P,J9,4,Pin_4*%
%TO.N,/\u002A11*%
X150000000Y-64500000D03*
%TD*%
D10*
%TO.P,J8,1,Pin_1*%
%TO.N,/\u002A10*%
X142380000Y-80000000D03*
D11*
%TO.P,J8,2,Pin_2*%
%TO.N,Net-(J8-Pin_2)*%
X144920000Y-80000000D03*
%TO.P,J8,3,Pin_3*%
%TO.N,Net-(J8-Pin_3)*%
X147460000Y-80000000D03*
%TO.P,J8,4,Pin_4*%
%TO.N,GND*%
X150000000Y-80000000D03*
%TD*%
D10*
%TO.P,J7,1,Pin_1*%
%TO.N,GND*%
X116260000Y-64500000D03*
D11*
%TO.P,J7,2,Pin_2*%
%TO.N,Net-(J7-Pin_2)*%
X118800000Y-64500000D03*
%TO.P,J7,3,Pin_3*%
%TO.N,Net-(J7-Pin_3)*%
X121340000Y-64500000D03*
%TO.P,J7,4,Pin_4*%
%TO.N,Net-(J7-Pin_4)*%
X123880000Y-64500000D03*
%TO.P,J7,5,Pin_5*%
%TO.N,Net-(J7-Pin_5)*%
X126420000Y-64500000D03*
%TO.P,J7,6,Pin_6*%
%TO.N,/13*%
X128960000Y-64500000D03*
%TO.P,J7,7,Pin_7*%
%TO.N,/12*%
X131500000Y-64500000D03*
%TD*%
D15*
%TO.P,D1,1,K*%
%TO.N,Net-(D1-K)*%
X154230000Y-57000000D03*
D16*
%TO.P,D1,2,A*%
%TO.N,/12*%
X156770000Y-57000000D03*
%TD*%
D10*
%TO.P,J5,1,Pin_1*%
%TO.N,/12*%
X163460000Y-69460000D03*
D11*
%TO.P,J5,2,Pin_2*%
%TO.N,+5V*%
X166000000Y-69460000D03*
%TO.P,J5,3,Pin_3*%
%TO.N,/13*%
X163460000Y-72000000D03*
%TO.P,J5,4,Pin_4*%
%TO.N,/\u002A11*%
X166000000Y-72000000D03*
%TO.P,J5,5,Pin_5*%
%TO.N,/\u002A10*%
X163460000Y-74540000D03*
%TO.P,J5,6,Pin_6*%
%TO.N,GND*%
X166000000Y-74540000D03*
%TD*%
D17*
%TO.P,SW1,1,1*%
%TO.N,/~{RESET}*%
X131000000Y-93000000D03*
D18*
%TO.P,SW1,2,2*%
%TO.N,Net-(C1-Pad1)*%
X133000000Y-93000000D03*
%TO.P,SW1,3,3*%
X135000001Y-93000000D03*
D19*
%TO.P,SW1,4*%
%TO.N,N/C*%
X128899999Y-93000000D03*
%TO.P,SW1,5*%
X137100000Y-93000000D03*
%TD*%
D13*
%TO.P,R1,1*%
%TO.N,Net-(D1-K)*%
X151080000Y-57000000D03*
D20*
%TO.P,R1,2*%
%TO.N,GND*%
X140920000Y-57000000D03*
%TD*%
D21*
%TO.N,/13*%
X143500000Y-66400000D02*
X130860000Y-66400000D01*
X144920000Y-64500000D02*
X144920000Y-64980000D01*
X130860000Y-66400000D02*
X128960000Y-64500000D01*
X144920000Y-64980000D02*
X143500000Y-66400000D01*
%TO.N,/12*%
X133320000Y-70200000D02*
X131500000Y-68380000D01*
X147460000Y-68380000D02*
X145640000Y-70200000D01*
X145640000Y-70200000D02*
X133320000Y-70200000D01*
%TO.N,/\u002A11*%
X134600000Y-72900000D02*
X131500000Y-76000000D01*
X141600000Y-54000000D02*
X138836000Y-54000000D01*
X150000000Y-68380000D02*
X145480000Y-72900000D01*
X138836000Y-54000000D02*
X134036000Y-49200000D01*
X145480000Y-72900000D02*
X134600000Y-72900000D01*
D22*
X152369000Y-70749000D02*
X150000000Y-68380000D01*
X164749000Y-70749000D02*
X152369000Y-70749000D01*
D21*
X150000000Y-62400000D02*
X141600000Y-54000000D01*
X150000000Y-64500000D02*
X150000000Y-62400000D01*
D22*
X166000000Y-72000000D02*
X164749000Y-70749000D01*
D21*
%TO.N,/\u002A10*%
X140680000Y-77700000D02*
X125580000Y-77700000D01*
X142380000Y-76000000D02*
X140680000Y-77700000D01*
X142380000Y-76000000D02*
X143840000Y-74540000D01*
X125580000Y-77700000D02*
X123880000Y-76000000D01*
X143840000Y-74540000D02*
X163460000Y-74540000D01*
%TD*%
%TA.AperFunction,Conductor*%
%TO.N,GND*%
G36*
X142714075Y-97267007D02*
G01*
X142680000Y-97394174D01*
X142680000Y-97525826D01*
X142714075Y-97652993D01*
X142746988Y-97710000D01*
X141073012Y-97710000D01*
X141105925Y-97652993D01*
X141140000Y-97525826D01*
X141140000Y-97394174D01*
X141105925Y-97267007D01*
X141073012Y-97210000D01*
X142746988Y-97210000D01*
X142714075Y-97267007D01*
G37*
%TD.AperFunction*%
%TA.AperFunction,Conductor*%
G36*
X163484404Y-46755185D02*
G01*
X163505046Y-46771819D01*
X165928181Y-49194954D01*
X165961666Y-49256277D01*
X165964500Y-49282635D01*
X165964500Y-59344982D01*
X165964500Y-59375018D01*
X165975994Y-59402767D01*
X165975995Y-59402768D01*
X168468181Y-61894954D01*
X168501666Y-61956277D01*
X168504500Y-61982635D01*
X168504500Y-96107364D01*
X168484815Y-96174403D01*
X168468181Y-96195045D01*
X165997233Y-98665994D01*
X165975995Y-98687231D01*
X165964500Y-98714982D01*
X165964500Y-99231907D01*
X165963903Y-99244061D01*
X165963903Y-99244062D01*
X165952505Y-99359778D01*
X165947763Y-99383618D01*
X165917832Y-99482290D01*
X165915789Y-99489024D01*
X165906486Y-99511482D01*
X165854561Y-99608627D01*
X165841056Y-99628839D01*
X165771176Y-99713988D01*
X165753988Y-99731176D01*
X165668839Y-99801056D01*
X165648627Y-99814561D01*
X165551482Y-99866486D01*
X165529028Y-99875787D01*
X165487028Y-99888528D01*
X165423618Y-99907763D01*
X165399778Y-99912505D01*
X165291162Y-99923203D01*
X165284060Y-99923903D01*
X165271907Y-99924500D01*
X100768093Y-99924500D01*
X100755939Y-99923903D01*
X100747995Y-99923120D01*
X100640221Y-99912505D01*
X100616381Y-99907763D01*
X100599445Y-99902625D01*
X100510968Y-99875786D01*
X100488517Y-99866486D01*
X100391372Y-99814561D01*
X100371160Y-99801056D01*
X100286011Y-99731176D01*
X100268823Y-99713988D01*
X100198943Y-99628839D01*
X100185438Y-99608627D01*
X100133510Y-99511476D01*
X100124215Y-99489037D01*
X100092234Y-99383612D01*
X100087494Y-99359777D01*
X100076097Y-99244061D01*
X100075500Y-99231907D01*
X100075500Y-97334038D01*
X112369500Y-97334038D01*
X112369500Y-97585961D01*
X112408910Y-97834785D01*
X112486760Y-98074383D01*
X112601132Y-98298848D01*
X112749201Y-98502649D01*
X112749205Y-98502654D01*
X112927345Y-98680794D01*
X112927350Y-98680798D01*
X113037587Y-98760889D01*
X113131155Y-98828870D01*
X113274184Y-98901747D01*
X113355616Y-98943239D01*
X113355618Y-98943239D01*
X113355621Y-98943241D01*
X113595215Y-99021090D01*
X113844038Y-99060500D01*
X113844039Y-99060500D01*
X114095961Y-99060500D01*
X114095962Y-99060500D01*
X114344785Y-99021090D01*
X114584379Y-98943241D01*
X114808845Y-98828870D01*
X115012656Y-98680793D01*
X115190793Y-98502656D01*
X115338870Y-98298845D01*
X115453241Y-98074379D01*
X115531090Y-97834785D01*
X115570500Y-97585962D01*
X115570500Y-97334038D01*
X115531090Y-97085215D01*
X115453241Y-96845621D01*
X115453239Y-96845618D01*
X115453239Y-96845616D01*
X115403498Y-96747994D01*
X115338870Y-96621155D01*
X115295416Y-96561345D01*
X126581500Y-96561345D01*
X126581500Y-98358654D01*
X126588011Y-98419202D01*
X126588011Y-98419204D01*
X126619138Y-98502656D01*
X126639111Y-98556204D01*
X126726739Y-98673261D01*
X126843796Y-98760889D01*
X126980799Y-98811989D01*
X127008050Y-98814918D01*
X127041345Y-98818499D01*
X127041362Y-98818500D01*
X128838638Y-98818500D01*
X128838654Y-98818499D01*
X128865692Y-98815591D01*
X128899201Y-98811989D01*
X129036204Y-98760889D01*
X129153261Y-98673261D01*
X129240889Y-98556204D01*
X129285957Y-98435371D01*
X129327827Y-98379442D01*
X129393291Y-98355025D01*
X129461564Y-98369877D01*
X129489818Y-98391028D01*
X129594996Y-98496206D01*
X129767991Y-98621894D01*
X129854542Y-98665994D01*
X129958516Y-98718972D01*
X129958519Y-98718973D01*
X130060200Y-98752010D01*
X130161884Y-98785049D01*
X130373084Y-98818500D01*
X130373085Y-98818500D01*
X130586915Y-98818500D01*
X130586916Y-98818500D01*
X130798116Y-98785049D01*
X131001483Y-98718972D01*
X131192009Y-98621894D01*
X131365004Y-98496206D01*
X131516206Y-98345004D01*
X131641894Y-98172009D01*
X131641896Y-98172004D01*
X131644270Y-98168132D01*
X131696080Y-98121254D01*
X131765009Y-98109829D01*
X131829173Y-98137483D01*
X131855730Y-98168132D01*
X131858103Y-98172005D01*
X131858105Y-98172008D01*
X131858106Y-98172009D01*
X131983794Y-98345004D01*
X132134996Y-98496206D01*
X132307991Y-98621894D01*
X132394542Y-98665994D01*
X132498516Y-98718972D01*
X132498519Y-98718973D01*
X132600200Y-98752010D01*
X132701884Y-98785049D01*
X132913084Y-98818500D01*
X132913085Y-98818500D01*
X133126915Y-98818500D01*
X133126916Y-98818500D01*
X133338116Y-98785049D01*
X133541483Y-98718972D01*
X133732009Y-98621894D01*
X133905004Y-98496206D01*
X134056206Y-98345004D01*
X134181894Y-98172009D01*
X134181896Y-98172004D01*
X134184270Y-98168132D01*
X134236080Y-98121254D01*
X134305009Y-98109829D01*
X134369173Y-98137483D01*
X134395730Y-98168132D01*
X134398103Y-98172005D01*
X134398105Y-98172008D01*
X134398106Y-98172009D01*
X134523794Y-98345004D01*
X134674996Y-98496206D01*
X134847991Y-98621894D01*
X134934542Y-98665994D01*
X135038516Y-98718972D01*
X135038519Y-98718973D01*
X135140200Y-98752010D01*
X135241884Y-98785049D01*
X135453084Y-98818500D01*
X135453085Y-98818500D01*
X135666915Y-98818500D01*
X135666916Y-98818500D01*
X135878116Y-98785049D01*
X136081483Y-98718972D01*
X136272009Y-98621894D01*
X136445004Y-98496206D01*
X136596206Y-98345004D01*
X136721894Y-98172009D01*
X136721896Y-98172004D01*
X136724270Y-98168132D01*
X136776080Y-98121254D01*
X136845009Y-98109829D01*
X136909173Y-98137483D01*
X136935730Y-98168132D01*
X136938103Y-98172005D01*
X136938105Y-98172008D01*
X136938106Y-98172009D01*
X137063794Y-98345004D01*
X137214996Y-98496206D01*
X137387991Y-98621894D01*
X137474542Y-98665994D01*
X137578516Y-98718972D01*
X137578519Y-98718973D01*
X137680200Y-98752010D01*
X137781884Y-98785049D01*
X137993084Y-98818500D01*
X137993085Y-98818500D01*
X138206915Y-98818500D01*
X138206916Y-98818500D01*
X138418116Y-98785049D01*
X138621483Y-98718972D01*
X138812009Y-98621894D01*
X138985004Y-98496206D01*
X139136206Y-98345004D01*
X139261894Y-98172009D01*
X139264283Y-98167319D01*
X139312254Y-98116522D01*
X139380074Y-98099724D01*
X139446210Y-98122258D01*
X139482201Y-98163788D01*
X139482832Y-98163402D01*
X139485164Y-98167207D01*
X139485251Y-98167308D01*
X139485376Y-98167554D01*
X139610272Y-98339459D01*
X139610276Y-98339464D01*
X139760535Y-98489723D01*
X139760540Y-98489727D01*
X139932442Y-98614620D01*
X140121782Y-98711095D01*
X140323871Y-98776757D01*
X140390000Y-98787231D01*
X140390000Y-97893012D01*
X140447007Y-97925925D01*
X140574174Y-97960000D01*
X140705826Y-97960000D01*
X140832993Y-97925925D01*
X140890000Y-97893012D01*
X140890000Y-98787230D01*
X140956126Y-98776757D01*
X140956129Y-98776757D01*
X141158217Y-98711095D01*
X141347557Y-98614620D01*
X141519459Y-98489727D01*
X141519464Y-98489723D01*
X141669723Y-98339464D01*
X141669727Y-98339459D01*
X141794620Y-98167558D01*
X141799514Y-98157954D01*
X141847488Y-98107157D01*
X141915308Y-98090361D01*
X141981444Y-98112897D01*
X142020486Y-98157954D01*
X142025379Y-98167558D01*
X142150272Y-98339459D01*
X142150276Y-98339464D01*
X142300535Y-98489723D01*
X142300540Y-98489727D01*
X142472442Y-98614620D01*
X142661782Y-98711095D01*
X142863871Y-98776757D01*
X142930000Y-98787231D01*
X142930000Y-97893012D01*
X142987007Y-97925925D01*
X143114174Y-97960000D01*
X143245826Y-97960000D01*
X143372993Y-97925925D01*
X143430000Y-97893012D01*
X143430000Y-98787230D01*
X143496126Y-98776757D01*
X143496129Y-98776757D01*
X143698217Y-98711095D01*
X143887557Y-98614620D01*
X144059459Y-98489727D01*
X144059464Y-98489723D01*
X144209723Y-98339464D01*
X144209727Y-98339459D01*
X144334619Y-98167560D01*
X144334738Y-98167327D01*
X144334808Y-98167252D01*
X144337168Y-98163402D01*
X144337976Y-98163897D01*
X144382707Y-98116526D01*
X144450526Y-98099723D01*
X144516663Y-98122254D01*
X144555712Y-98167311D01*
X144558105Y-98172008D01*
X144600002Y-98229674D01*
X144683794Y-98345004D01*
X144834996Y-98496206D01*
X145007991Y-98621894D01*
X145094542Y-98665994D01*
X145198516Y-98718972D01*
X145198519Y-98718973D01*
X145300200Y-98752010D01*
X145401884Y-98785049D01*
X145613084Y-98818500D01*
X145613085Y-98818500D01*
X145826915Y-98818500D01*
X145826916Y-98818500D01*
X146038116Y-98785049D01*
X146241483Y-98718972D01*
X146432009Y-98621894D01*
X146605004Y-98496206D01*
X146756206Y-98345004D01*
X146881894Y-98172009D01*
X146978972Y-97981483D01*
X147045049Y-97778116D01*
X147078500Y-97566916D01*
X147078500Y-97353084D01*
X147045049Y-97141884D01*
X146978972Y-96938517D01*
X146978972Y-96938516D01*
X146931639Y-96845621D01*
X146881894Y-96747991D01*
X146756206Y-96574996D01*
X146742555Y-96561345D01*
X149441500Y-96561345D01*
X149441500Y-98358654D01*
X149448011Y-98419202D01*
X149448011Y-98419204D01*
X149479138Y-98502656D01*
X149499111Y-98556204D01*
X149586739Y-98673261D01*
X149703796Y-98760889D01*
X149840799Y-98811989D01*
X149868050Y-98814918D01*
X149901345Y-98818499D01*
X149901362Y-98818500D01*
X151698638Y-98818500D01*
X151698654Y-98818499D01*
X151725692Y-98815591D01*
X151759201Y-98811989D01*
X151896204Y-98760889D01*
X152013261Y-98673261D01*
X152100889Y-98556204D01*
X152145957Y-98435371D01*
X152187827Y-98379442D01*
X152253291Y-98355025D01*
X152321564Y-98369877D01*
X152349818Y-98391028D01*
X152454996Y-98496206D01*
X152627991Y-98621894D01*
X152714542Y-98665994D01*
X152818516Y-98718972D01*
X152818519Y-98718973D01*
X152920200Y-98752010D01*
X153021884Y-98785049D01*
X153233084Y-98818500D01*
X153233085Y-98818500D01*
X153446915Y-98818500D01*
X153446916Y-98818500D01*
X153658116Y-98785049D01*
X153861483Y-98718972D01*
X154052009Y-98621894D01*
X154225004Y-98496206D01*
X154376206Y-98345004D01*
X154501894Y-98172009D01*
X154501896Y-98172004D01*
X154504270Y-98168132D01*
X154556080Y-98121254D01*
X154625009Y-98109829D01*
X154689173Y-98137483D01*
X154715730Y-98168132D01*
X154718103Y-98172005D01*
X154718105Y-98172008D01*
X154718106Y-98172009D01*
X154843794Y-98345004D01*
X154994996Y-98496206D01*
X155167991Y-98621894D01*
X155254542Y-98665994D01*
X155358516Y-98718972D01*
X155358519Y-98718973D01*
X155460200Y-98752010D01*
X155561884Y-98785049D01*
X155773084Y-98818500D01*
X155773085Y-98818500D01*
X155986915Y-98818500D01*
X155986916Y-98818500D01*
X156198116Y-98785049D01*
X156401483Y-98718972D01*
X156592009Y-98621894D01*
X156765004Y-98496206D01*
X156916206Y-98345004D01*
X157041894Y-98172009D01*
X157041896Y-98172004D01*
X157044270Y-98168132D01*
X157096080Y-98121254D01*
X157165009Y-98109829D01*
X157229173Y-98137483D01*
X157255730Y-98168132D01*
X157258103Y-98172005D01*
X157258105Y-98172008D01*
X157258106Y-98172009D01*
X157383794Y-98345004D01*
X157534996Y-98496206D01*
X157707991Y-98621894D01*
X157794542Y-98665994D01*
X157898516Y-98718972D01*
X157898519Y-98718973D01*
X158000200Y-98752010D01*
X158101884Y-98785049D01*
X158313084Y-98818500D01*
X158313085Y-98818500D01*
X158526915Y-98818500D01*
X158526916Y-98818500D01*
X158738116Y-98785049D01*
X158941483Y-98718972D01*
X159132009Y-98621894D01*
X159305004Y-98496206D01*
X159456206Y-98345004D01*
X159581894Y-98172009D01*
X159581896Y-98172004D01*
X159584270Y-98168132D01*
X159636080Y-98121254D01*
X159705009Y-98109829D01*
X159769173Y-98137483D01*
X159795730Y-98168132D01*
X159798103Y-98172005D01*
X159798105Y-98172008D01*
X159798106Y-98172009D01*
X159923794Y-98345004D01*
X160074996Y-98496206D01*
X160247991Y-98621894D01*
X160334542Y-98665994D01*
X160438516Y-98718972D01*
X160438519Y-98718973D01*
X160540200Y-98752010D01*
X160641884Y-98785049D01*
X160853084Y-98818500D01*
X160853085Y-98818500D01*
X161066915Y-98818500D01*
X161066916Y-98818500D01*
X161278116Y-98785049D01*
X161481483Y-98718972D01*
X161672009Y-98621894D01*
X161845004Y-98496206D01*
X161996206Y-98345004D01*
X162121894Y-98172009D01*
X162121896Y-98172004D01*
X162124270Y-98168132D01*
X162176080Y-98121254D01*
X162245009Y-98109829D01*
X162309173Y-98137483D01*
X162335730Y-98168132D01*
X162338103Y-98172005D01*
X162338105Y-98172008D01*
X162338106Y-98172009D01*
X162463794Y-98345004D01*
X162614996Y-98496206D01*
X162787991Y-98621894D01*
X162874542Y-98665994D01*
X162978516Y-98718972D01*
X162978519Y-98718973D01*
X163080200Y-98752010D01*
X163181884Y-98785049D01*
X163393084Y-98818500D01*
X163393085Y-98818500D01*
X163606915Y-98818500D01*
X163606916Y-98818500D01*
X163818116Y-98785049D01*
X164021483Y-98718972D01*
X164212009Y-98621894D01*
X164385004Y-98496206D01*
X164536206Y-98345004D01*
X164661894Y-98172009D01*
X164758972Y-97981483D01*
X164825049Y-97778116D01*
X164858500Y-97566916D01*
X164858500Y-97353084D01*
X164825049Y-97141884D01*
X164758972Y-96938517D01*
X164758972Y-96938516D01*
X164703495Y-96829638D01*
X164661894Y-96747991D01*
X164536206Y-96574996D01*
X164385004Y-96423794D01*
X164212009Y-96298106D01*
X164021483Y-96201027D01*
X164021480Y-96201026D01*
X163818117Y-96134951D01*
X163712516Y-96118225D01*
X163606916Y-96101500D01*
X163393084Y-96101500D01*
X163322684Y-96112650D01*
X163181882Y-96134951D01*
X162978519Y-96201026D01*
X162978516Y-96201027D01*
X162787990Y-96298106D01*
X162614993Y-96423796D01*
X162463796Y-96574993D01*
X162338105Y-96747991D01*
X162335727Y-96751873D01*
X162283914Y-96798748D01*
X162214984Y-96810169D01*
X162150822Y-96782512D01*
X162124273Y-96751873D01*
X162121894Y-96747991D01*
X162121891Y-96747987D01*
X161996206Y-96574996D01*
X161845004Y-96423794D01*
X161672009Y-96298106D01*
X161481483Y-96201027D01*
X161481480Y-96201026D01*
X161278117Y-96134951D01*
X161172516Y-96118225D01*
X161066916Y-96101500D01*
X160853084Y-96101500D01*
X160782684Y-96112650D01*
X160641882Y-96134951D01*
X160438519Y-96201026D01*
X160438516Y-96201027D01*
X160247990Y-96298106D01*
X160074993Y-96423796D01*
X159923796Y-96574993D01*
X159798105Y-96747991D01*
X159795727Y-96751873D01*
X159743914Y-96798748D01*
X159674984Y-96810169D01*
X159610822Y-96782512D01*
X159584273Y-96751873D01*
X159581894Y-96747991D01*
X159581891Y-96747987D01*
X159456206Y-96574996D01*
X159305004Y-96423794D01*
X159132009Y-96298106D01*
X158941483Y-96201027D01*
X158941480Y-96201026D01*
X158738117Y-96134951D01*
X158632516Y-96118225D01*
X158526916Y-96101500D01*
X158313084Y-96101500D01*
X158242684Y-96112650D01*
X158101882Y-96134951D01*
X157898519Y-96201026D01*
X157898516Y-96201027D01*
X157707990Y-96298106D01*
X157534993Y-96423796D01*
X157383796Y-96574993D01*
X157258105Y-96747991D01*
X157255727Y-96751873D01*
X157203914Y-96798748D01*
X157134984Y-96810169D01*
X157070822Y-96782512D01*
X157044273Y-96751873D01*
X157041894Y-96747991D01*
X157041891Y-96747987D01*
X156916206Y-96574996D01*
X156765004Y-96423794D01*
X156592009Y-96298106D01*
X156401483Y-96201027D01*
X156401480Y-96201026D01*
X156198117Y-96134951D01*
X156092516Y-96118225D01*
X155986916Y-96101500D01*
X155773084Y-96101500D01*
X155702684Y-96112650D01*
X155561882Y-96134951D01*
X155358519Y-96201026D01*
X155358516Y-96201027D01*
X155167990Y-96298106D01*
X154994993Y-96423796D01*
X154843796Y-96574993D01*
X154718105Y-96747991D01*
X154715727Y-96751873D01*
X154663914Y-96798748D01*
X154594984Y-96810169D01*
X154530822Y-96782512D01*
X154504273Y-96751873D01*
X154501894Y-96747991D01*
X154501891Y-96747987D01*
X154376206Y-96574996D01*
X154225004Y-96423794D01*
X154052009Y-96298106D01*
X153861483Y-96201027D01*
X153861480Y-96201026D01*
X153658117Y-96134951D01*
X153552516Y-96118225D01*
X153446916Y-96101500D01*
X153233084Y-96101500D01*
X153162684Y-96112650D01*
X153021882Y-96134951D01*
X152818519Y-96201026D01*
X152818516Y-96201027D01*
X152627990Y-96298106D01*
X152454997Y-96423793D01*
X152349818Y-96528972D01*
X152288495Y-96562456D01*
X152218803Y-96557472D01*
X152162870Y-96515600D01*
X152145958Y-96484629D01*
X152100889Y-96363796D01*
X152013261Y-96246739D01*
X151896204Y-96159111D01*
X151895172Y-96158726D01*
X151759203Y-96108011D01*
X151698654Y-96101500D01*
X151698638Y-96101500D01*
X149901362Y-96101500D01*
X149901345Y-96101500D01*
X149840797Y-96108011D01*
X149840795Y-96108011D01*
X149703795Y-96159111D01*
X149586739Y-96246739D01*
X149499111Y-96363795D01*
X149448011Y-96500795D01*
X149448011Y-96500797D01*
X149441500Y-96561345D01*
X146742555Y-96561345D01*
X146605004Y-96423794D01*
X146432009Y-96298106D01*
X146241483Y-96201027D01*
X146241480Y-96201026D01*
X146038117Y-96134951D01*
X145932516Y-96118225D01*
X145826916Y-96101500D01*
X145613084Y-96101500D01*
X145542684Y-96112650D01*
X145401882Y-96134951D01*
X145198519Y-96201026D01*
X145198516Y-96201027D01*
X145007990Y-96298106D01*
X144834993Y-96423796D01*
X144683796Y-96574993D01*
X144558103Y-96747994D01*
X144555709Y-96752693D01*
X144507731Y-96803485D01*
X144439908Y-96820275D01*
X144373775Y-96797732D01*
X144337800Y-96756210D01*
X144337168Y-96756598D01*
X144334829Y-96752781D01*
X144334743Y-96752682D01*
X144334620Y-96752441D01*
X144209727Y-96580540D01*
X144209723Y-96580535D01*
X144059464Y-96430276D01*
X144059459Y-96430272D01*
X143887557Y-96305379D01*
X143698215Y-96208903D01*
X143496124Y-96143241D01*
X143430000Y-96132768D01*
X143430000Y-97026988D01*
X143372993Y-96994075D01*
X143245826Y-96960000D01*
X143114174Y-96960000D01*
X142987007Y-96994075D01*
X142930000Y-97026988D01*
X142930000Y-96132768D01*
X142929999Y-96132768D01*
X142863875Y-96143241D01*
X142661784Y-96208903D01*
X142472442Y-96305379D01*
X142300540Y-96430272D01*
X142300535Y-96430276D01*
X142150276Y-96580535D01*
X142150272Y-96580540D01*
X142025377Y-96752444D01*
X142020484Y-96762048D01*
X141972509Y-96812844D01*
X141904688Y-96829638D01*
X141838553Y-96807100D01*
X141799516Y-96762048D01*
X141794622Y-96752444D01*
X141669727Y-96580540D01*
X141669723Y-96580535D01*
X141519464Y-96430276D01*
X141519459Y-96430272D01*
X141347557Y-96305379D01*
X141158215Y-96208903D01*
X140956124Y-96143241D01*
X140890000Y-96132768D01*
X140890000Y-97026988D01*
X140832993Y-96994075D01*
X140705826Y-96960000D01*
X140574174Y-96960000D01*
X140447007Y-96994075D01*
X140390000Y-97026988D01*
X140390000Y-96132768D01*
X140389999Y-96132768D01*
X140323875Y-96143241D01*
X140121784Y-96208903D01*
X139932442Y-96305379D01*
X139760540Y-96430272D01*
X139760535Y-96430276D01*
X139610276Y-96580535D01*
X139610272Y-96580540D01*
X139485376Y-96752446D01*
X139485374Y-96752448D01*
X139485246Y-96752701D01*
X139485172Y-96752779D01*
X139482832Y-96756598D01*
X139482029Y-96756106D01*
X139437264Y-96803489D01*
X139369441Y-96820274D01*
X139303309Y-96797727D01*
X139264285Y-96752683D01*
X139261895Y-96747992D01*
X139230472Y-96704742D01*
X139136206Y-96574996D01*
X138985004Y-96423794D01*
X138812009Y-96298106D01*
X138621483Y-96201027D01*
X138621480Y-96201026D01*
X138418117Y-96134951D01*
X138312516Y-96118225D01*
X138206916Y-96101500D01*
X137993084Y-96101500D01*
X137922684Y-96112650D01*
X137781882Y-96134951D01*
X137578519Y-96201026D01*
X137578516Y-96201027D01*
X137387990Y-96298106D01*
X137214993Y-96423796D01*
X137063796Y-96574993D01*
X136938105Y-96747991D01*
X136935727Y-96751873D01*
X136883914Y-96798748D01*
X136814984Y-96810169D01*
X136750822Y-96782512D01*
X136724273Y-96751873D01*
X136721894Y-96747991D01*
X136721891Y-96747987D01*
X136596206Y-96574996D01*
X136445004Y-96423794D01*
X136272009Y-96298106D01*
X136081483Y-96201027D01*
X136081480Y-96201026D01*
X135878117Y-96134951D01*
X135772516Y-96118225D01*
X135666916Y-96101500D01*
X135453084Y-96101500D01*
X135382684Y-96112650D01*
X135241882Y-96134951D01*
X135038519Y-96201026D01*
X135038516Y-96201027D01*
X134847990Y-96298106D01*
X134674993Y-96423796D01*
X134523796Y-96574993D01*
X134398105Y-96747991D01*
X134395727Y-96751873D01*
X134343914Y-96798748D01*
X134274984Y-96810169D01*
X134210822Y-96782512D01*
X134184273Y-96751873D01*
X134181894Y-96747991D01*
X134181891Y-96747987D01*
X134056206Y-96574996D01*
X133905004Y-96423794D01*
X133732009Y-96298106D01*
X133541483Y-96201027D01*
X133541480Y-96201026D01*
X133338117Y-96134951D01*
X133232516Y-96118225D01*
X133126916Y-96101500D01*
X132913084Y-96101500D01*
X132842684Y-96112650D01*
X132701882Y-96134951D01*
X132498519Y-96201026D01*
X132498516Y-96201027D01*
X132307990Y-96298106D01*
X132134993Y-96423796D01*
X131983796Y-96574993D01*
X131858105Y-96747991D01*
X131855727Y-96751873D01*
X131803914Y-96798748D01*
X131734984Y-96810169D01*
X131670822Y-96782512D01*
X131644273Y-96751873D01*
X131641894Y-96747991D01*
X131641891Y-96747987D01*
X131516206Y-96574996D01*
X131365004Y-96423794D01*
X131192009Y-96298106D01*
X131001483Y-96201027D01*
X131001480Y-96201026D01*
X130798117Y-96134951D01*
X130692516Y-96118225D01*
X130586916Y-96101500D01*
X130373084Y-96101500D01*
X130302684Y-96112650D01*
X130161882Y-96134951D01*
X129958519Y-96201026D01*
X129958516Y-96201027D01*
X129767990Y-96298106D01*
X129594997Y-96423793D01*
X129489818Y-96528972D01*
X129428495Y-96562456D01*
X129358803Y-96557472D01*
X129302870Y-96515600D01*
X129285958Y-96484629D01*
X129240889Y-96363796D01*
X129153261Y-96246739D01*
X129036204Y-96159111D01*
X129035172Y-96158726D01*
X128899203Y-96108011D01*
X128838654Y-96101500D01*
X128838638Y-96101500D01*
X127041362Y-96101500D01*
X127041345Y-96101500D01*
X126980797Y-96108011D01*
X126980795Y-96108011D01*
X126843795Y-96159111D01*
X126726739Y-96246739D01*
X126639111Y-96363795D01*
X126588011Y-96500795D01*
X126588011Y-96500797D01*
X126581500Y-96561345D01*
X115295416Y-96561345D01*
X115292602Y-96557472D01*
X115190798Y-96417350D01*
X115190794Y-96417345D01*
X115012654Y-96239205D01*
X115012649Y-96239201D01*
X114808848Y-96091132D01*
X114808847Y-96091131D01*
X114808845Y-96091130D01*
X114738747Y-96055413D01*
X114584383Y-95976760D01*
X114344785Y-95898910D01*
X114095962Y-95859500D01*
X113844038Y-95859500D01*
X113719626Y-95879205D01*
X113595214Y-95898910D01*
X113355616Y-95976760D01*
X113131151Y-96091132D01*
X112927350Y-96239201D01*
X112927345Y-96239205D01*
X112749205Y-96417345D01*
X112749201Y-96417350D01*
X112601132Y-96621151D01*
X112486760Y-96845616D01*
X112408910Y-97085214D01*
X112369500Y-97334038D01*
X100075500Y-97334038D01*
X100075500Y-92901009D01*
X127642199Y-92901009D01*
X127642199Y-93098991D01*
X127652379Y-93163261D01*
X127673171Y-93294536D01*
X127734348Y-93482824D01*
X127734350Y-93482827D01*
X127824232Y-93659231D01*
X127940603Y-93819401D01*
X128080598Y-93959396D01*
X128240768Y-94075767D01*
X128417172Y-94165649D01*
X128417174Y-94165650D01*
X128511318Y-94196238D01*
X128605464Y-94226828D01*
X128801008Y-94257800D01*
X128801009Y-94257800D01*
X128998989Y-94257800D01*
X128998990Y-94257800D01*
X129194534Y-94226828D01*
X129382826Y-94165649D01*
X129559230Y-94075767D01*
X129719400Y-93959396D01*
X129750340Y-93928455D01*
X129811659Y-93894972D01*
X129881351Y-93899956D01*
X129937285Y-93941826D01*
X129989039Y-94010961D01*
X130106096Y-94098589D01*
X130243099Y-94149689D01*
X130270350Y-94152618D01*
X130303645Y-94156199D01*
X130303662Y-94156200D01*
X131696338Y-94156200D01*
X131696354Y-94156199D01*
X131723392Y-94153291D01*
X131756901Y-94149689D01*
X131893904Y-94098589D01*
X132010961Y-94010961D01*
X132083360Y-93914246D01*
X132139294Y-93872376D01*
X132208986Y-93867392D01*
X132255511Y-93888239D01*
X132394019Y-93988871D01*
X132556173Y-94071492D01*
X132556175Y-94071493D01*
X132639566Y-94098588D01*
X132729256Y-94127730D01*
X132909005Y-94156200D01*
X132909006Y-94156200D01*
X133090994Y-94156200D01*
X133090995Y-94156200D01*
X133270744Y-94127730D01*
X133270747Y-94127729D01*
X133270748Y-94127729D01*
X133443824Y-94071493D01*
X133443824Y-94071492D01*
X133443827Y-94071492D01*
X133605981Y-93988871D01*
X133753214Y-93881900D01*
X133881900Y-93753214D01*
X133899683Y-93728737D01*
X133955009Y-93686073D01*
X134024623Y-93680092D01*
X134086418Y-93712697D01*
X134100314Y-93728732D01*
X134118101Y-93753214D01*
X134246787Y-93881900D01*
X134394020Y-93988871D01*
X134556174Y-94071492D01*
X134556176Y-94071493D01*
X134639567Y-94098588D01*
X134729257Y-94127730D01*
X134909006Y-94156200D01*
X134909007Y-94156200D01*
X135090995Y-94156200D01*
X135090996Y-94156200D01*
X135270745Y-94127730D01*
X135270748Y-94127729D01*
X135270749Y-94127729D01*
X135443825Y-94071493D01*
X135443825Y-94071492D01*
X135443828Y-94071492D01*
X135605982Y-93988871D01*
X135753215Y-93881900D01*
X135881901Y-93753214D01*
X135886888Y-93746348D01*
X135942213Y-93703682D01*
X136011826Y-93697699D01*
X136073623Y-93730302D01*
X136087522Y-93746340D01*
X136140604Y-93819401D01*
X136280599Y-93959396D01*
X136440769Y-94075767D01*
X136617173Y-94165649D01*
X136617175Y-94165650D01*
X136711319Y-94196238D01*
X136805465Y-94226828D01*
X137001009Y-94257800D01*
X137001010Y-94257800D01*
X137198990Y-94257800D01*
X137198991Y-94257800D01*
X137394535Y-94226828D01*
X137582827Y-94165649D01*
X137759231Y-94075767D01*
X137919401Y-93959396D01*
X138059396Y-93819401D01*
X138175767Y-93659231D01*
X138265649Y-93482827D01*
X138265651Y-93482821D01*
X138313205Y-93336464D01*
X138352642Y-93278788D01*
X138417000Y-93251589D01*
X138474469Y-93258599D01*
X138590799Y-93301989D01*
X138618050Y-93304918D01*
X138651345Y-93308499D01*
X138651362Y-93308500D01*
X140348638Y-93308500D01*
X140348654Y-93308499D01*
X140375692Y-93305591D01*
X140409201Y-93301989D01*
X140546204Y-93250889D01*
X140663261Y-93163261D01*
X140750889Y-93046204D01*
X140801989Y-92909201D01*
X140808500Y-92848638D01*
X140808500Y-92836374D01*
X140812018Y-92821922D01*
X140822363Y-92804034D01*
X140828185Y-92784209D01*
X140839500Y-92774404D01*
X140846999Y-92761439D01*
X140865375Y-92751983D01*
X140880989Y-92738454D01*
X140897255Y-92735578D01*
X140909126Y-92729471D01*
X140916286Y-92730160D01*
X141600000Y-92046446D01*
X141600000Y-92052661D01*
X141627259Y-92154394D01*
X141679920Y-92245606D01*
X141754394Y-92320080D01*
X141845606Y-92372741D01*
X141947339Y-92400000D01*
X141953553Y-92400000D01*
X141274076Y-93079474D01*
X141318650Y-93111859D01*
X141500968Y-93204755D01*
X141695582Y-93267990D01*
X141897683Y-93300000D01*
X142102317Y-93300000D01*
X142304417Y-93267990D01*
X142499031Y-93204755D01*
X142681349Y-93111859D01*
X142725921Y-93079474D01*
X142046447Y-92400000D01*
X142052661Y-92400000D01*
X142154394Y-92372741D01*
X142245606Y-92320080D01*
X142320080Y-92245606D01*
X142372741Y-92154394D01*
X142400000Y-92052661D01*
X142400000Y-92046448D01*
X143079474Y-92725922D01*
X143079474Y-92725921D01*
X143111859Y-92681349D01*
X143204755Y-92499031D01*
X143267989Y-92304418D01*
X143275969Y-92254038D01*
X164439500Y-92254038D01*
X164439500Y-92505961D01*
X164478910Y-92754785D01*
X164556760Y-92994383D01*
X164671132Y-93218848D01*
X164819201Y-93422649D01*
X164819205Y-93422654D01*
X164997345Y-93600794D01*
X164997350Y-93600798D01*
X165077777Y-93659231D01*
X165201155Y-93748870D01*
X165314184Y-93806461D01*
X165425616Y-93863239D01*
X165425618Y-93863239D01*
X165425621Y-93863241D01*
X165665215Y-93941090D01*
X165914038Y-93980500D01*
X165914039Y-93980500D01*
X166165961Y-93980500D01*
X166165962Y-93980500D01*
X166414785Y-93941090D01*
X166654379Y-93863241D01*
X166878845Y-93748870D01*
X167082656Y-93600793D01*
X167260793Y-93422656D01*
X167408870Y-93218845D01*
X167523241Y-92994379D01*
X167601090Y-92754785D01*
X167640500Y-92505962D01*
X167640500Y-92254038D01*
X167601090Y-92005215D01*
X167523241Y-91765621D01*
X167523239Y-91765618D01*
X167523239Y-91765616D01*
X167452742Y-91627259D01*
X167408870Y-91541155D01*
X167379673Y-91500968D01*
X167260798Y-91337350D01*
X167260794Y-91337345D01*
X167082654Y-91159205D01*
X167082649Y-91159201D01*
X166878848Y-91011132D01*
X166878847Y-91011131D01*
X166878845Y-91011130D01*
X166766315Y-90953793D01*
X166654383Y-90896760D01*
X166414785Y-90818910D01*
X166165962Y-90779500D01*
X165914038Y-90779500D01*
X165814635Y-90795244D01*
X165665214Y-90818910D01*
X165425616Y-90896760D01*
X165201151Y-91011132D01*
X164997350Y-91159201D01*
X164997345Y-91159205D01*
X164819205Y-91337345D01*
X164819201Y-91337350D01*
X164671132Y-91541151D01*
X164556760Y-91765616D01*
X164478910Y-92005214D01*
X164439500Y-92254038D01*
X143275969Y-92254038D01*
X143279814Y-92229767D01*
X143279814Y-92229766D01*
X143300000Y-92102317D01*
X143300000Y-91897682D01*
X143267990Y-91695582D01*
X143204755Y-91500968D01*
X143111859Y-91318650D01*
X143079474Y-91274077D01*
X143079474Y-91274076D01*
X142400000Y-91953551D01*
X142400000Y-91947339D01*
X142372741Y-91845606D01*
X142320080Y-91754394D01*
X142245606Y-91679920D01*
X142154394Y-91627259D01*
X142052661Y-91600000D01*
X142046446Y-91600000D01*
X142725922Y-90920524D01*
X142725921Y-90920523D01*
X142681359Y-90888147D01*
X142681350Y-90888141D01*
X142499031Y-90795244D01*
X142304417Y-90732009D01*
X142102317Y-90700000D01*
X141897683Y-90700000D01*
X141695582Y-90732009D01*
X141500968Y-90795244D01*
X141318644Y-90888143D01*
X141274077Y-90920523D01*
X141274077Y-90920524D01*
X141953554Y-91600000D01*
X141947339Y-91600000D01*
X141845606Y-91627259D01*
X141754394Y-91679920D01*
X141679920Y-91754394D01*
X141627259Y-91845606D01*
X141600000Y-91947339D01*
X141600000Y-91953553D01*
X140912589Y-91266142D01*
X140873852Y-91258005D01*
X140824095Y-91208954D01*
X140812018Y-91178078D01*
X140808500Y-91163625D01*
X140808500Y-91151362D01*
X140801989Y-91090799D01*
X140750889Y-90953796D01*
X140663261Y-90836739D01*
X140546204Y-90749111D01*
X140409203Y-90698011D01*
X140348654Y-90691500D01*
X140348638Y-90691500D01*
X138651362Y-90691500D01*
X138651345Y-90691500D01*
X138590797Y-90698011D01*
X138590795Y-90698011D01*
X138453795Y-90749111D01*
X138336739Y-90836739D01*
X138249111Y-90953795D01*
X138198011Y-91090795D01*
X138198011Y-91090797D01*
X138191500Y-91151345D01*
X138191500Y-92013341D01*
X138171815Y-92080380D01*
X138119011Y-92126135D01*
X138049853Y-92136079D01*
X137986297Y-92107054D01*
X137979819Y-92101022D01*
X137919403Y-92040606D01*
X137919401Y-92040604D01*
X137759231Y-91924233D01*
X137582827Y-91834351D01*
X137582824Y-91834349D01*
X137394536Y-91773172D01*
X137275979Y-91754394D01*
X137198991Y-91742200D01*
X137001009Y-91742200D01*
X136935827Y-91752524D01*
X136805463Y-91773172D01*
X136617175Y-91834349D01*
X136617172Y-91834351D01*
X136440768Y-91924233D01*
X136351572Y-91989039D01*
X136280599Y-92040604D01*
X136280597Y-92040606D01*
X136280596Y-92040606D01*
X136140606Y-92180596D01*
X136140599Y-92180605D01*
X136087525Y-92253654D01*
X136032195Y-92296320D01*
X135962582Y-92302298D01*
X135900787Y-92269692D01*
X135886889Y-92253652D01*
X135881901Y-92246786D01*
X135753217Y-92118102D01*
X135753215Y-92118100D01*
X135605982Y-92011129D01*
X135562628Y-91989039D01*
X135443825Y-91928506D01*
X135270747Y-91872270D01*
X135102398Y-91845606D01*
X135090996Y-91843800D01*
X134909006Y-91843800D01*
X134897604Y-91845606D01*
X134729255Y-91872270D01*
X134729252Y-91872270D01*
X134556176Y-91928506D01*
X134394019Y-92011129D01*
X134353451Y-92040604D01*
X134246787Y-92118100D01*
X134246785Y-92118102D01*
X134246784Y-92118102D01*
X134118100Y-92246786D01*
X134100317Y-92271263D01*
X134044986Y-92313928D01*
X133975372Y-92319906D01*
X133913578Y-92287299D01*
X133899682Y-92271261D01*
X133881902Y-92246789D01*
X133881897Y-92246783D01*
X133753216Y-92118102D01*
X133753214Y-92118100D01*
X133605981Y-92011129D01*
X133562627Y-91989039D01*
X133443824Y-91928506D01*
X133270746Y-91872270D01*
X133102397Y-91845606D01*
X133090995Y-91843800D01*
X132909005Y-91843800D01*
X132897603Y-91845606D01*
X132729254Y-91872270D01*
X132729251Y-91872270D01*
X132556175Y-91928506D01*
X132394019Y-92011128D01*
X132255511Y-92111760D01*
X132189704Y-92135239D01*
X132121650Y-92119413D01*
X132083360Y-92085753D01*
X132010961Y-91989039D01*
X131893904Y-91901411D01*
X131883906Y-91897682D01*
X131756903Y-91850311D01*
X131696354Y-91843800D01*
X131696338Y-91843800D01*
X130303662Y-91843800D01*
X130303645Y-91843800D01*
X130243097Y-91850311D01*
X130243095Y-91850311D01*
X130106095Y-91901411D01*
X129989038Y-91989039D01*
X129937285Y-92058173D01*
X129881351Y-92100043D01*
X129811659Y-92105027D01*
X129750338Y-92071542D01*
X129719402Y-92040606D01*
X129719400Y-92040604D01*
X129559230Y-91924233D01*
X129382826Y-91834351D01*
X129382823Y-91834349D01*
X129194535Y-91773172D01*
X129075978Y-91754394D01*
X128998990Y-91742200D01*
X128801008Y-91742200D01*
X128735826Y-91752524D01*
X128605462Y-91773172D01*
X128417174Y-91834349D01*
X128417171Y-91834351D01*
X128240767Y-91924233D01*
X128151571Y-91989039D01*
X128080598Y-92040604D01*
X128080596Y-92040606D01*
X128080595Y-92040606D01*
X127940605Y-92180596D01*
X127940605Y-92180597D01*
X127940603Y-92180599D01*
X127904881Y-92229766D01*
X127824232Y-92340768D01*
X127734350Y-92517172D01*
X127734348Y-92517175D01*
X127673171Y-92705463D01*
X127652523Y-92835827D01*
X127642199Y-92901009D01*
X100075500Y-92901009D01*
X100075500Y-79101345D01*
X114901500Y-79101345D01*
X114901500Y-80898654D01*
X114908011Y-80959202D01*
X114908011Y-80959204D01*
X114959111Y-81096204D01*
X115046739Y-81213261D01*
X115163796Y-81300889D01*
X115300799Y-81351989D01*
X115328050Y-81354918D01*
X115361345Y-81358499D01*
X115361362Y-81358500D01*
X117158638Y-81358500D01*
X117158654Y-81358499D01*
X117185692Y-81355591D01*
X117219201Y-81351989D01*
X117356204Y-81300889D01*
X117473261Y-81213261D01*
X117560889Y-81096204D01*
X117605957Y-80975371D01*
X117647827Y-80919442D01*
X117713291Y-80895025D01*
X117781564Y-80909877D01*
X117809818Y-80931028D01*
X117914996Y-81036206D01*
X118087991Y-81161894D01*
X118181438Y-81209507D01*
X118278516Y-81258972D01*
X118278519Y-81258973D01*
X118380200Y-81292010D01*
X118481884Y-81325049D01*
X118693084Y-81358500D01*
X118693085Y-81358500D01*
X118906915Y-81358500D01*
X118906916Y-81358500D01*
X119118116Y-81325049D01*
X119321483Y-81258972D01*
X119512009Y-81161894D01*
X119685004Y-81036206D01*
X119836206Y-80885004D01*
X119961894Y-80712009D01*
X119961896Y-80712004D01*
X119964270Y-80708132D01*
X120016080Y-80661254D01*
X120085009Y-80649829D01*
X120149173Y-80677483D01*
X120175730Y-80708132D01*
X120178103Y-80712005D01*
X120178106Y-80712009D01*
X120303794Y-80885004D01*
X120454996Y-81036206D01*
X120627991Y-81161894D01*
X120721438Y-81209507D01*
X120818516Y-81258972D01*
X120818519Y-81258973D01*
X120920200Y-81292010D01*
X121021884Y-81325049D01*
X121233084Y-81358500D01*
X121233085Y-81358500D01*
X121446915Y-81358500D01*
X121446916Y-81358500D01*
X121658116Y-81325049D01*
X121861483Y-81258972D01*
X122052009Y-81161894D01*
X122225004Y-81036206D01*
X122376206Y-80885004D01*
X122501894Y-80712009D01*
X122501896Y-80712004D01*
X122504270Y-80708132D01*
X122556080Y-80661254D01*
X122625009Y-80649829D01*
X122689173Y-80677483D01*
X122715730Y-80708132D01*
X122718103Y-80712005D01*
X122718106Y-80712009D01*
X122843794Y-80885004D01*
X122994996Y-81036206D01*
X123167991Y-81161894D01*
X123261438Y-81209507D01*
X123358516Y-81258972D01*
X123358519Y-81258973D01*
X123460200Y-81292010D01*
X123561884Y-81325049D01*
X123773084Y-81358500D01*
X123773085Y-81358500D01*
X123986915Y-81358500D01*
X123986916Y-81358500D01*
X124198116Y-81325049D01*
X124401483Y-81258972D01*
X124592009Y-81161894D01*
X124765004Y-81036206D01*
X124916206Y-80885004D01*
X125041894Y-80712009D01*
X125041896Y-80712004D01*
X125044270Y-80708132D01*
X125096080Y-80661254D01*
X125165009Y-80649829D01*
X125229173Y-80677483D01*
X125255730Y-80708132D01*
X125258103Y-80712005D01*
X125258106Y-80712009D01*
X125383794Y-80885004D01*
X125534996Y-81036206D01*
X125707991Y-81161894D01*
X125801438Y-81209507D01*
X125898516Y-81258972D01*
X125898519Y-81258973D01*
X126000200Y-81292010D01*
X126101884Y-81325049D01*
X126313084Y-81358500D01*
X126313085Y-81358500D01*
X126526915Y-81358500D01*
X126526916Y-81358500D01*
X126738116Y-81325049D01*
X126941483Y-81258972D01*
X127132009Y-81161894D01*
X127305004Y-81036206D01*
X127456206Y-80885004D01*
X127581894Y-80712009D01*
X127581896Y-80712004D01*
X127584270Y-80708132D01*
X127636080Y-80661254D01*
X127705009Y-80649829D01*
X127769173Y-80677483D01*
X127795730Y-80708132D01*
X127798103Y-80712005D01*
X127798106Y-80712009D01*
X127923794Y-80885004D01*
X128074996Y-81036206D01*
X128247991Y-81161894D01*
X128341438Y-81209507D01*
X128438516Y-81258972D01*
X128438519Y-81258973D01*
X128540200Y-81292010D01*
X128641884Y-81325049D01*
X128853084Y-81358500D01*
X128853085Y-81358500D01*
X129066915Y-81358500D01*
X129066916Y-81358500D01*
X129278116Y-81325049D01*
X129481483Y-81258972D01*
X129672009Y-81161894D01*
X129845004Y-81036206D01*
X129996206Y-80885004D01*
X130121894Y-80712009D01*
X130121896Y-80712004D01*
X130124270Y-80708132D01*
X130176080Y-80661254D01*
X130245009Y-80649829D01*
X130309173Y-80677483D01*
X130335730Y-80708132D01*
X130338103Y-80712005D01*
X130338106Y-80712009D01*
X130463794Y-80885004D01*
X130614996Y-81036206D01*
X130787991Y-81161894D01*
X130881438Y-81209507D01*
X130978516Y-81258972D01*
X130978519Y-81258973D01*
X131080200Y-81292010D01*
X131181884Y-81325049D01*
X131393084Y-81358500D01*
X131393085Y-81358500D01*
X131606915Y-81358500D01*
X131606916Y-81358500D01*
X131818116Y-81325049D01*
X132021483Y-81258972D01*
X132212009Y-81161894D01*
X132385004Y-81036206D01*
X132536206Y-80885004D01*
X132661894Y-80712009D01*
X132758972Y-80521483D01*
X132825049Y-80318116D01*
X132858500Y-80106916D01*
X132858500Y-79893084D01*
X132825049Y-79681884D01*
X132758972Y-79478517D01*
X132758972Y-79478516D01*
X132693575Y-79350169D01*
X132661894Y-79287991D01*
X132536206Y-79114996D01*
X132522555Y-79101345D01*
X141021500Y-79101345D01*
X141021500Y-80898654D01*
X141028011Y-80959202D01*
X141028011Y-80959204D01*
X141079111Y-81096204D01*
X141166739Y-81213261D01*
X141283796Y-81300889D01*
X141420799Y-81351989D01*
X141448050Y-81354918D01*
X141481345Y-81358499D01*
X141481362Y-81358500D01*
X143278638Y-81358500D01*
X143278654Y-81358499D01*
X143305692Y-81355591D01*
X143339201Y-81351989D01*
X143476204Y-81300889D01*
X143593261Y-81213261D01*
X143680889Y-81096204D01*
X143725957Y-80975371D01*
X143767827Y-80919442D01*
X143833291Y-80895025D01*
X143901564Y-80909877D01*
X143929818Y-80931028D01*
X144034996Y-81036206D01*
X144207991Y-81161894D01*
X144301438Y-81209507D01*
X144398516Y-81258972D01*
X144398519Y-81258973D01*
X144500200Y-81292010D01*
X144601884Y-81325049D01*
X144813084Y-81358500D01*
X144813085Y-81358500D01*
X145026915Y-81358500D01*
X145026916Y-81358500D01*
X145238116Y-81325049D01*
X145441483Y-81258972D01*
X145632009Y-81161894D01*
X145805004Y-81036206D01*
X145956206Y-80885004D01*
X146081894Y-80712009D01*
X146081896Y-80712004D01*
X146084270Y-80708132D01*
X146136080Y-80661254D01*
X146205009Y-80649829D01*
X146269173Y-80677483D01*
X146295730Y-80708132D01*
X146298103Y-80712005D01*
X146298106Y-80712009D01*
X146423794Y-80885004D01*
X146574996Y-81036206D01*
X146747991Y-81161894D01*
X146841438Y-81209507D01*
X146938516Y-81258972D01*
X146938519Y-81258973D01*
X147040200Y-81292010D01*
X147141884Y-81325049D01*
X147353084Y-81358500D01*
X147353085Y-81358500D01*
X147566915Y-81358500D01*
X147566916Y-81358500D01*
X147778116Y-81325049D01*
X147981483Y-81258972D01*
X148172009Y-81161894D01*
X148345004Y-81036206D01*
X148496206Y-80885004D01*
X148621894Y-80712009D01*
X148624283Y-80707319D01*
X148672254Y-80656522D01*
X148740074Y-80639724D01*
X148806210Y-80662258D01*
X148842201Y-80703788D01*
X148842832Y-80703402D01*
X148845164Y-80707207D01*
X148845251Y-80707308D01*
X148845376Y-80707554D01*
X148970272Y-80879459D01*
X148970276Y-80879464D01*
X149120535Y-81029723D01*
X149120540Y-81029727D01*
X149292442Y-81154620D01*
X149481782Y-81251095D01*
X149683871Y-81316757D01*
X149750000Y-81327231D01*
X149750000Y-80433012D01*
X149807007Y-80465925D01*
X149934174Y-80500000D01*
X150065826Y-80500000D01*
X150192993Y-80465925D01*
X150250000Y-80433012D01*
X150250000Y-81327230D01*
X150316126Y-81316757D01*
X150316129Y-81316757D01*
X150518217Y-81251095D01*
X150707557Y-81154620D01*
X150879459Y-81029727D01*
X150879464Y-81029723D01*
X151029723Y-80879464D01*
X151029727Y-80879459D01*
X151154620Y-80707557D01*
X151251095Y-80518217D01*
X151316757Y-80316129D01*
X151316757Y-80316126D01*
X151327231Y-80250000D01*
X150433012Y-80250000D01*
X150465925Y-80192993D01*
X150500000Y-80065826D01*
X150500000Y-79934174D01*
X150465925Y-79807007D01*
X150433012Y-79750000D01*
X151327231Y-79750000D01*
X151316757Y-79683873D01*
X151316757Y-79683870D01*
X151251095Y-79481782D01*
X151154620Y-79292442D01*
X151029727Y-79120540D01*
X151029723Y-79120535D01*
X150879464Y-78970276D01*
X150879459Y-78970272D01*
X150707557Y-78845379D01*
X150518215Y-78748903D01*
X150316124Y-78683241D01*
X150250000Y-78672768D01*
X150250000Y-79566988D01*
X150192993Y-79534075D01*
X150065826Y-79500000D01*
X149934174Y-79500000D01*
X149807007Y-79534075D01*
X149750000Y-79566988D01*
X149750000Y-78672768D01*
X149749999Y-78672768D01*
X149683875Y-78683241D01*
X149481784Y-78748903D01*
X149292442Y-78845379D01*
X149120540Y-78970272D01*
X149120535Y-78970276D01*
X148970276Y-79120535D01*
X148970272Y-79120540D01*
X148845376Y-79292446D01*
X148845374Y-79292448D01*
X148845246Y-79292701D01*
X148845172Y-79292779D01*
X148842832Y-79296598D01*
X148842029Y-79296106D01*
X148797264Y-79343489D01*
X148729441Y-79360274D01*
X148663309Y-79337727D01*
X148624285Y-79292683D01*
X148621895Y-79287992D01*
X148590472Y-79244742D01*
X148496206Y-79114996D01*
X148345004Y-78963794D01*
X148172009Y-78838106D01*
X147981483Y-78741027D01*
X147981480Y-78741026D01*
X147778117Y-78674951D01*
X147658099Y-78655942D01*
X147566916Y-78641500D01*
X147353084Y-78641500D01*
X147282684Y-78652650D01*
X147141882Y-78674951D01*
X146938519Y-78741026D01*
X146938516Y-78741027D01*
X146747990Y-78838106D01*
X146574993Y-78963796D01*
X146423796Y-79114993D01*
X146298105Y-79287991D01*
X146295727Y-79291873D01*
X146243914Y-79338748D01*
X146174984Y-79350169D01*
X146110822Y-79322512D01*
X146084273Y-79291873D01*
X146081894Y-79287991D01*
X146081891Y-79287987D01*
X145956206Y-79114996D01*
X145805004Y-78963794D01*
X145632009Y-78838106D01*
X145441483Y-78741027D01*
X145441480Y-78741026D01*
X145238117Y-78674951D01*
X145118099Y-78655942D01*
X145026916Y-78641500D01*
X144813084Y-78641500D01*
X144742684Y-78652650D01*
X144601882Y-78674951D01*
X144398519Y-78741026D01*
X144398516Y-78741027D01*
X144207990Y-78838106D01*
X144034997Y-78963793D01*
X143929818Y-79068972D01*
X143868495Y-79102456D01*
X143798803Y-79097472D01*
X143742870Y-79055600D01*
X143725958Y-79024629D01*
X143680889Y-78903796D01*
X143593261Y-78786739D01*
X143476204Y-78699111D01*
X143465209Y-78695010D01*
X143339203Y-78648011D01*
X143278654Y-78641500D01*
X143278638Y-78641500D01*
X141481362Y-78641500D01*
X141481345Y-78641500D01*
X141420797Y-78648011D01*
X141420795Y-78648011D01*
X141283795Y-78699111D01*
X141166739Y-78786739D01*
X141079111Y-78903795D01*
X141028011Y-79040795D01*
X141028011Y-79040797D01*
X141021500Y-79101345D01*
X132522555Y-79101345D01*
X132385004Y-78963794D01*
X132212009Y-78838106D01*
X132025324Y-78742985D01*
X131974528Y-78695010D01*
X131957733Y-78627189D01*
X131980270Y-78561054D01*
X132034986Y-78517603D01*
X132081619Y-78508500D01*
X140759631Y-78508500D01*
X140759632Y-78508499D01*
X140915831Y-78477430D01*
X140989399Y-78446956D01*
X141062968Y-78416484D01*
X141195389Y-78328003D01*
X142178573Y-77344817D01*
X142239896Y-77311333D01*
X142266254Y-77308499D01*
X142980537Y-77308499D01*
X142980544Y-77308499D01*
X143084426Y-77297887D01*
X143252738Y-77242115D01*
X143403652Y-77149030D01*
X143529030Y-77023652D01*
X143622115Y-76872738D01*
X143644646Y-76804742D01*
X143684417Y-76747299D01*
X143748932Y-76720475D01*
X143817708Y-76732789D01*
X143862669Y-76770862D01*
X143921926Y-76852424D01*
X144067571Y-76998069D01*
X144067576Y-76998073D01*
X144179616Y-77079474D01*
X144234197Y-77119129D01*
X144351128Y-77178709D01*
X144417705Y-77212632D01*
X144417707Y-77212632D01*
X144417710Y-77212634D01*
X144508437Y-77242113D01*
X144613591Y-77276280D01*
X144715305Y-77292390D01*
X144817019Y-77308500D01*
X144817020Y-77308500D01*
X145022980Y-77308500D01*
X145022981Y-77308500D01*
X145226408Y-77276280D01*
X145422290Y-77212634D01*
X145605803Y-77119129D01*
X145772430Y-76998068D01*
X145918068Y-76852430D01*
X146039129Y-76685803D01*
X146079515Y-76606540D01*
X146127490Y-76555745D01*
X146195311Y-76538950D01*
X146261446Y-76561487D01*
X146300484Y-76606540D01*
X146338602Y-76681350D01*
X146340873Y-76685806D01*
X146461926Y-76852423D01*
X146461930Y-76852428D01*
X146607571Y-76998069D01*
X146607576Y-76998073D01*
X146719616Y-77079474D01*
X146774197Y-77119129D01*
X146891128Y-77178709D01*
X146957705Y-77212632D01*
X146957707Y-77212632D01*
X146957710Y-77212634D01*
X147048437Y-77242113D01*
X147153591Y-77276280D01*
X147255305Y-77292390D01*
X147357019Y-77308500D01*
X147357020Y-77308500D01*
X147562980Y-77308500D01*
X147562981Y-77308500D01*
X147766408Y-77276280D01*
X147962290Y-77212634D01*
X148145803Y-77119129D01*
X148312430Y-76998068D01*
X148458068Y-76852430D01*
X148579129Y-76685803D01*
X148624284Y-76597180D01*
X148672258Y-76546384D01*
X148740079Y-76529589D01*
X148806214Y-76552126D01*
X148845254Y-76597180D01*
X148888141Y-76681350D01*
X148888147Y-76681359D01*
X148920523Y-76725921D01*
X148920524Y-76725922D01*
X149600000Y-76046446D01*
X149600000Y-76052661D01*
X149627259Y-76154394D01*
X149679920Y-76245606D01*
X149754394Y-76320080D01*
X149845606Y-76372741D01*
X149947339Y-76400000D01*
X149953553Y-76400000D01*
X149274076Y-77079474D01*
X149318650Y-77111859D01*
X149500968Y-77204755D01*
X149695582Y-77267990D01*
X149897683Y-77300000D01*
X150102317Y-77300000D01*
X150304417Y-77267990D01*
X150499031Y-77204755D01*
X150681349Y-77111859D01*
X150725921Y-77079474D01*
X150046447Y-76400000D01*
X150052661Y-76400000D01*
X150154394Y-76372741D01*
X150245606Y-76320080D01*
X150320080Y-76245606D01*
X150372741Y-76154394D01*
X150400000Y-76052661D01*
X150400000Y-76046447D01*
X151079474Y-76725921D01*
X151111859Y-76681349D01*
X151204755Y-76499031D01*
X151267990Y-76304417D01*
X151300000Y-76102317D01*
X151300000Y-75897682D01*
X151267990Y-75695582D01*
X151207956Y-75510819D01*
X151205961Y-75440977D01*
X151242041Y-75381144D01*
X151304742Y-75350316D01*
X151325887Y-75348500D01*
X162305029Y-75348500D01*
X162372068Y-75368185D01*
X162405347Y-75399615D01*
X162423788Y-75424998D01*
X162423794Y-75425004D01*
X162574996Y-75576206D01*
X162747991Y-75701894D01*
X162841438Y-75749507D01*
X162938516Y-75798972D01*
X162938519Y-75798973D01*
X163028023Y-75828054D01*
X163141884Y-75865049D01*
X163353084Y-75898500D01*
X163353085Y-75898500D01*
X163566915Y-75898500D01*
X163566916Y-75898500D01*
X163778116Y-75865049D01*
X163981483Y-75798972D01*
X164172009Y-75701894D01*
X164345004Y-75576206D01*
X164496206Y-75425004D01*
X164621894Y-75252009D01*
X164624283Y-75247319D01*
X164672254Y-75196522D01*
X164740074Y-75179724D01*
X164806210Y-75202258D01*
X164842201Y-75243788D01*
X164842832Y-75243402D01*
X164845164Y-75247207D01*
X164845251Y-75247308D01*
X164845376Y-75247554D01*
X164970272Y-75419459D01*
X164970276Y-75419464D01*
X165120535Y-75569723D01*
X165120540Y-75569727D01*
X165292442Y-75694620D01*
X165481782Y-75791095D01*
X165683871Y-75856757D01*
X165750000Y-75867231D01*
X165750000Y-74973012D01*
X165807007Y-75005925D01*
X165934174Y-75040000D01*
X166065826Y-75040000D01*
X166192993Y-75005925D01*
X166250000Y-74973012D01*
X166250000Y-75867230D01*
X166316126Y-75856757D01*
X166316129Y-75856757D01*
X166518217Y-75791095D01*
X166707557Y-75694620D01*
X166879459Y-75569727D01*
X166879464Y-75569723D01*
X167029723Y-75419464D01*
X167029727Y-75419459D01*
X167154620Y-75247557D01*
X167251095Y-75058217D01*
X167316757Y-74856129D01*
X167316757Y-74856126D01*
X167327231Y-74790000D01*
X166433012Y-74790000D01*
X166465925Y-74732993D01*
X166500000Y-74605826D01*
X166500000Y-74474174D01*
X166465925Y-74347007D01*
X166433012Y-74290000D01*
X167327231Y-74290000D01*
X167316757Y-74223873D01*
X167316757Y-74223870D01*
X167251095Y-74021782D01*
X167154620Y-73832442D01*
X167029727Y-73660540D01*
X167029723Y-73660535D01*
X166879464Y-73510276D01*
X166879459Y-73510272D01*
X166707553Y-73385376D01*
X166707554Y-73385376D01*
X166707308Y-73385251D01*
X166707231Y-73385178D01*
X166703402Y-73382832D01*
X166703895Y-73382027D01*
X166656515Y-73337274D01*
X166639724Y-73269451D01*
X166662266Y-73203318D01*
X166707319Y-73164283D01*
X166712009Y-73161894D01*
X166885004Y-73036206D01*
X167036206Y-72885004D01*
X167161894Y-72712009D01*
X167258972Y-72521483D01*
X167325049Y-72318116D01*
X167358500Y-72106916D01*
X167358500Y-71893084D01*
X167325049Y-71681884D01*
X167258972Y-71478517D01*
X167258972Y-71478516D01*
X167161893Y-71287990D01*
X167059577Y-71147164D01*
X167036206Y-71114996D01*
X166885004Y-70963794D01*
X166712009Y-70838106D01*
X166712005Y-70838103D01*
X166708132Y-70835730D01*
X166661254Y-70783920D01*
X166649829Y-70714991D01*
X166677483Y-70650827D01*
X166708132Y-70624270D01*
X166712005Y-70621896D01*
X166712004Y-70621896D01*
X166712009Y-70621894D01*
X166885004Y-70496206D01*
X167036206Y-70345004D01*
X167161894Y-70172009D01*
X167258972Y-69981483D01*
X167325049Y-69778116D01*
X167358500Y-69566916D01*
X167358500Y-69353084D01*
X167325049Y-69141884D01*
X167274576Y-68986541D01*
X167258973Y-68938519D01*
X167258972Y-68938516D01*
X167209507Y-68841438D01*
X167161894Y-68747991D01*
X167036206Y-68574996D01*
X166885004Y-68423794D01*
X166712009Y-68298106D01*
X166671925Y-68277682D01*
X166521483Y-68201027D01*
X166521480Y-68201026D01*
X166318117Y-68134951D01*
X166212516Y-68118225D01*
X166106916Y-68101500D01*
X165893084Y-68101500D01*
X165822684Y-68112650D01*
X165681882Y-68134951D01*
X165478519Y-68201026D01*
X165478516Y-68201027D01*
X165287990Y-68298106D01*
X165114997Y-68423793D01*
X165009818Y-68528972D01*
X164948495Y-68562456D01*
X164878803Y-68557472D01*
X164822870Y-68515600D01*
X164805958Y-68484629D01*
X164760889Y-68363796D01*
X164673261Y-68246739D01*
X164556204Y-68159111D01*
X164419203Y-68108011D01*
X164358654Y-68101500D01*
X164358638Y-68101500D01*
X162561362Y-68101500D01*
X162561345Y-68101500D01*
X162500797Y-68108011D01*
X162500795Y-68108011D01*
X162363795Y-68159111D01*
X162246739Y-68246739D01*
X162159111Y-68363795D01*
X162108011Y-68500795D01*
X162108011Y-68500797D01*
X162101500Y-68561345D01*
X162101500Y-69916500D01*
X162081815Y-69983539D01*
X162029011Y-70029294D01*
X161977500Y-70040500D01*
X152713832Y-70040500D01*
X152646793Y-70020815D01*
X152626151Y-70004181D01*
X151325344Y-68703374D01*
X151291859Y-68642051D01*
X151290552Y-68596294D01*
X151292975Y-68580996D01*
X151308500Y-68482981D01*
X151308500Y-68277019D01*
X151289825Y-68159111D01*
X151276280Y-68073591D01*
X151245870Y-67980000D01*
X151212634Y-67877710D01*
X151212632Y-67877707D01*
X151212632Y-67877705D01*
X151159515Y-67773459D01*
X151119129Y-67694197D01*
X151089980Y-67654076D01*
X150998073Y-67527576D01*
X150998069Y-67527571D01*
X150852428Y-67381930D01*
X150852423Y-67381926D01*
X150685806Y-67260873D01*
X150685805Y-67260872D01*
X150685803Y-67260871D01*
X150628496Y-67231671D01*
X150502294Y-67167367D01*
X150306408Y-67103719D01*
X150130794Y-67075905D01*
X150102981Y-67071500D01*
X149897019Y-67071500D01*
X149872550Y-67075375D01*
X149693591Y-67103719D01*
X149497705Y-67167367D01*
X149314193Y-67260873D01*
X149147576Y-67381926D01*
X149147571Y-67381930D01*
X149001930Y-67527571D01*
X149001926Y-67527576D01*
X148880871Y-67694195D01*
X148840484Y-67773459D01*
X148792510Y-67824254D01*
X148724689Y-67841049D01*
X148658554Y-67818511D01*
X148619516Y-67773459D01*
X148579128Y-67694195D01*
X148458073Y-67527576D01*
X148458069Y-67527571D01*
X148312428Y-67381930D01*
X148312423Y-67381926D01*
X148145806Y-67260873D01*
X148145805Y-67260872D01*
X148145803Y-67260871D01*
X148088496Y-67231671D01*
X147962294Y-67167367D01*
X147766408Y-67103719D01*
X147590794Y-67075905D01*
X147562981Y-67071500D01*
X147357019Y-67071500D01*
X147332550Y-67075375D01*
X147153591Y-67103719D01*
X146957705Y-67167367D01*
X146774193Y-67260873D01*
X146607576Y-67381926D01*
X146607571Y-67381930D01*
X146461930Y-67527571D01*
X146461926Y-67527576D01*
X146340871Y-67694195D01*
X146300484Y-67773459D01*
X146252510Y-67824254D01*
X146184689Y-67841049D01*
X146118554Y-67818511D01*
X146079516Y-67773459D01*
X146039128Y-67694195D01*
X145918073Y-67527576D01*
X145918069Y-67527571D01*
X145772428Y-67381930D01*
X145772423Y-67381926D01*
X145605806Y-67260873D01*
X145605805Y-67260872D01*
X145605803Y-67260871D01*
X145548496Y-67231671D01*
X145422294Y-67167367D01*
X145226408Y-67103719D01*
X145050794Y-67075905D01*
X145022981Y-67071500D01*
X144817019Y-67071500D01*
X144792550Y-67075375D01*
X144613591Y-67103719D01*
X144417705Y-67167367D01*
X144234193Y-67260873D01*
X144067576Y-67381926D01*
X144067571Y-67381930D01*
X143921930Y-67527571D01*
X143921926Y-67527576D01*
X143800871Y-67694195D01*
X143760484Y-67773459D01*
X143712510Y-67824254D01*
X143644689Y-67841049D01*
X143578554Y-67818511D01*
X143539516Y-67773459D01*
X143499128Y-67694195D01*
X143378073Y-67527576D01*
X143378069Y-67527571D01*
X143270679Y-67420181D01*
X143237194Y-67358858D01*
X143242178Y-67289166D01*
X143284050Y-67233233D01*
X143349514Y-67208816D01*
X143358360Y-67208500D01*
X143579631Y-67208500D01*
X143579632Y-67208499D01*
X143735831Y-67177430D01*
X143809399Y-67146956D01*
X143882968Y-67116484D01*
X144015389Y-67028003D01*
X145187775Y-65855615D01*
X145237137Y-65825367D01*
X145287911Y-65808870D01*
X145441483Y-65758972D01*
X145632009Y-65661894D01*
X145805004Y-65536206D01*
X145956206Y-65385004D01*
X146081894Y-65212009D01*
X146081896Y-65212004D01*
X146084270Y-65208132D01*
X146136080Y-65161254D01*
X146205009Y-65149829D01*
X146269173Y-65177483D01*
X146295730Y-65208132D01*
X146298103Y-65212005D01*
X146298106Y-65212009D01*
X146423794Y-65385004D01*
X146574996Y-65536206D01*
X146747991Y-65661894D01*
X146836883Y-65707187D01*
X146938516Y-65758972D01*
X146938519Y-65758973D01*
X147040200Y-65792010D01*
X147141884Y-65825049D01*
X147353084Y-65858500D01*
X147353085Y-65858500D01*
X147566915Y-65858500D01*
X147566916Y-65858500D01*
X147778116Y-65825049D01*
X147981483Y-65758972D01*
X148172009Y-65661894D01*
X148345004Y-65536206D01*
X148496206Y-65385004D01*
X148621894Y-65212009D01*
X148621896Y-65212004D01*
X148624270Y-65208132D01*
X148676080Y-65161254D01*
X148745009Y-65149829D01*
X148809173Y-65177483D01*
X148835730Y-65208132D01*
X148838103Y-65212005D01*
X148838106Y-65212009D01*
X148963794Y-65385004D01*
X149114996Y-65536206D01*
X149287991Y-65661894D01*
X149376883Y-65707187D01*
X149478516Y-65758972D01*
X149478519Y-65758973D01*
X149580200Y-65792010D01*
X149681884Y-65825049D01*
X149893084Y-65858500D01*
X149893085Y-65858500D01*
X150106915Y-65858500D01*
X150106916Y-65858500D01*
X150318116Y-65825049D01*
X150521483Y-65758972D01*
X150712009Y-65661894D01*
X150885004Y-65536206D01*
X151036206Y-65385004D01*
X151161894Y-65212009D01*
X151258972Y-65021483D01*
X151325049Y-64818116D01*
X151358500Y-64606916D01*
X151358500Y-64393084D01*
X151345980Y-64314038D01*
X164439500Y-64314038D01*
X164439500Y-64565962D01*
X164445987Y-64606916D01*
X164478910Y-64814785D01*
X164556760Y-65054383D01*
X164671132Y-65278848D01*
X164819201Y-65482649D01*
X164819205Y-65482654D01*
X164997345Y-65660794D01*
X164997350Y-65660798D01*
X165132479Y-65758974D01*
X165201155Y-65808870D01*
X165344184Y-65881747D01*
X165425616Y-65923239D01*
X165425618Y-65923239D01*
X165425621Y-65923241D01*
X165665215Y-66001090D01*
X165914038Y-66040500D01*
X165914039Y-66040500D01*
X166165961Y-66040500D01*
X166165962Y-66040500D01*
X166414785Y-66001090D01*
X166654379Y-65923241D01*
X166878845Y-65808870D01*
X167082656Y-65660793D01*
X167260793Y-65482656D01*
X167408870Y-65278845D01*
X167523241Y-65054379D01*
X167601090Y-64814785D01*
X167640500Y-64565962D01*
X167640500Y-64314038D01*
X167601090Y-64065215D01*
X167523241Y-63825621D01*
X167523239Y-63825618D01*
X167523239Y-63825616D01*
X167481747Y-63744184D01*
X167408870Y-63601155D01*
X167380573Y-63562207D01*
X167260798Y-63397350D01*
X167260794Y-63397345D01*
X167082654Y-63219205D01*
X167082649Y-63219201D01*
X166878848Y-63071132D01*
X166878847Y-63071131D01*
X166878845Y-63071130D01*
X166808747Y-63035413D01*
X166654383Y-62956760D01*
X166414785Y-62878910D01*
X166165962Y-62839500D01*
X165914038Y-62839500D01*
X165789626Y-62859205D01*
X165665214Y-62878910D01*
X165425616Y-62956760D01*
X165201151Y-63071132D01*
X164997350Y-63219201D01*
X164997345Y-63219205D01*
X164819205Y-63397345D01*
X164819201Y-63397350D01*
X164671132Y-63601151D01*
X164556760Y-63825616D01*
X164489028Y-64034075D01*
X164478910Y-64065215D01*
X164439500Y-64314038D01*
X151345980Y-64314038D01*
X151325049Y-64181884D01*
X151292010Y-64080200D01*
X151258973Y-63978519D01*
X151258972Y-63978516D01*
X151187756Y-63838748D01*
X151161894Y-63787991D01*
X151036206Y-63614996D01*
X150885004Y-63463794D01*
X150859613Y-63445346D01*
X150816948Y-63390015D01*
X150808500Y-63345029D01*
X150808500Y-62320369D01*
X150808499Y-62320365D01*
X150777431Y-62164176D01*
X150777430Y-62164169D01*
X150746956Y-62090600D01*
X150746956Y-62090599D01*
X150746956Y-62090598D01*
X150716487Y-62017039D01*
X150716486Y-62017038D01*
X150716484Y-62017032D01*
X150659182Y-61931273D01*
X150628003Y-61884610D01*
X145640412Y-56897019D01*
X149771500Y-56897019D01*
X149771500Y-57102981D01*
X149775905Y-57130794D01*
X149803719Y-57306408D01*
X149867367Y-57502294D01*
X149960873Y-57685806D01*
X150081926Y-57852423D01*
X150081930Y-57852428D01*
X150227571Y-57998069D01*
X150227576Y-57998073D01*
X150275000Y-58032528D01*
X150394197Y-58119129D01*
X150511128Y-58178709D01*
X150577705Y-58212632D01*
X150577707Y-58212632D01*
X150577710Y-58212634D01*
X150682707Y-58246749D01*
X150773591Y-58276280D01*
X150875305Y-58292390D01*
X150977019Y-58308500D01*
X150977020Y-58308500D01*
X151182980Y-58308500D01*
X151182981Y-58308500D01*
X151386408Y-58276280D01*
X151582290Y-58212634D01*
X151765803Y-58119129D01*
X151932430Y-57998068D01*
X152078068Y-57852430D01*
X152199129Y-57685803D01*
X152292634Y-57502290D01*
X152356280Y-57306408D01*
X152388500Y-57102981D01*
X152388500Y-56897019D01*
X152356280Y-56693592D01*
X152348671Y-56670175D01*
X152292632Y-56497705D01*
X152258709Y-56431128D01*
X152199129Y-56314197D01*
X152161049Y-56261784D01*
X152078073Y-56147576D01*
X152078069Y-56147571D01*
X151981843Y-56051345D01*
X152821500Y-56051345D01*
X152821500Y-57948654D01*
X152828011Y-58009202D01*
X152828011Y-58009204D01*
X152866301Y-58111859D01*
X152879111Y-58146204D01*
X152966739Y-58263261D01*
X153083796Y-58350889D01*
X153220799Y-58401989D01*
X153248050Y-58404918D01*
X153281345Y-58408499D01*
X153281362Y-58408500D01*
X155178638Y-58408500D01*
X155178654Y-58408499D01*
X155205692Y-58405591D01*
X155239201Y-58401989D01*
X155376204Y-58350889D01*
X155493261Y-58263261D01*
X155580889Y-58146204D01*
X155606748Y-58076872D01*
X155648617Y-58020942D01*
X155714081Y-57996525D01*
X155782354Y-58011376D01*
X155810609Y-58032528D01*
X155852424Y-58074343D01*
X156031785Y-58204657D01*
X156125114Y-58252210D01*
X156229319Y-58305306D01*
X156229321Y-58305306D01*
X156229324Y-58305308D01*
X156440176Y-58373818D01*
X156659149Y-58408500D01*
X156659150Y-58408500D01*
X156880850Y-58408500D01*
X156880851Y-58408500D01*
X157099824Y-58373818D01*
X157310676Y-58305308D01*
X157508215Y-58204657D01*
X157687576Y-58074343D01*
X157844343Y-57917576D01*
X157974657Y-57738215D01*
X158075308Y-57540676D01*
X158143818Y-57329824D01*
X158178500Y-57110851D01*
X158178500Y-56889149D01*
X158143818Y-56670176D01*
X158075308Y-56459324D01*
X158075306Y-56459321D01*
X158075306Y-56459319D01*
X157974656Y-56261784D01*
X157844343Y-56082424D01*
X157687576Y-55925657D01*
X157508215Y-55795343D01*
X157492559Y-55787366D01*
X157310680Y-55694693D01*
X157099824Y-55626182D01*
X156880851Y-55591500D01*
X156659149Y-55591500D01*
X156549662Y-55608841D01*
X156440175Y-55626182D01*
X156229319Y-55694693D01*
X156031784Y-55795343D01*
X155951334Y-55853794D01*
X155852424Y-55925657D01*
X155852422Y-55925659D01*
X155852420Y-55925660D01*
X155810608Y-55967472D01*
X155749285Y-56000957D01*
X155679593Y-55995971D01*
X155623660Y-55954099D01*
X155606748Y-55923128D01*
X155580889Y-55853796D01*
X155493261Y-55736739D01*
X155376204Y-55649111D01*
X155314730Y-55626182D01*
X155239203Y-55598011D01*
X155178654Y-55591500D01*
X155178638Y-55591500D01*
X153281362Y-55591500D01*
X153281345Y-55591500D01*
X153220797Y-55598011D01*
X153220795Y-55598011D01*
X153083795Y-55649111D01*
X152966739Y-55736739D01*
X152879111Y-55853795D01*
X152828011Y-55990795D01*
X152828011Y-55990797D01*
X152821500Y-56051345D01*
X151981843Y-56051345D01*
X151932428Y-56001930D01*
X151932423Y-56001926D01*
X151765806Y-55880873D01*
X151765805Y-55880872D01*
X151765803Y-55880871D01*
X151708496Y-55851671D01*
X151582294Y-55787367D01*
X151386408Y-55723719D01*
X151210794Y-55695905D01*
X151182981Y-55691500D01*
X150977019Y-55691500D01*
X150952550Y-55695375D01*
X150773591Y-55723719D01*
X150577705Y-55787367D01*
X150394193Y-55880873D01*
X150227576Y-56001926D01*
X150227571Y-56001930D01*
X150081930Y-56147571D01*
X150081926Y-56147576D01*
X149960873Y-56314193D01*
X149867367Y-56497705D01*
X149803719Y-56693591D01*
X149779643Y-56845606D01*
X149771500Y-56897019D01*
X145640412Y-56897019D01*
X142115392Y-53371999D01*
X142115388Y-53371996D01*
X141982974Y-53283519D01*
X141982970Y-53283517D01*
X141982968Y-53283516D01*
X141909399Y-53253043D01*
X141909397Y-53253042D01*
X141909396Y-53253041D01*
X141835831Y-53222570D01*
X141835823Y-53222568D01*
X141679634Y-53191500D01*
X141679630Y-53191500D01*
X139222254Y-53191500D01*
X139155215Y-53171815D01*
X139134573Y-53155181D01*
X136729804Y-50750412D01*
X136696319Y-50689089D01*
X136701303Y-50619397D01*
X136743175Y-50563464D01*
X136798086Y-50540258D01*
X136894116Y-50525049D01*
X137097483Y-50458972D01*
X137288009Y-50361894D01*
X137461004Y-50236206D01*
X137612206Y-50085004D01*
X137737894Y-49912009D01*
X137737896Y-49912004D01*
X137740270Y-49908132D01*
X137792080Y-49861254D01*
X137861009Y-49849829D01*
X137925173Y-49877483D01*
X137951730Y-49908132D01*
X137954103Y-49912005D01*
X137954105Y-49912008D01*
X137954106Y-49912009D01*
X138079794Y-50085004D01*
X138230996Y-50236206D01*
X138403991Y-50361894D01*
X138497438Y-50409507D01*
X138594516Y-50458972D01*
X138594519Y-50458973D01*
X138696200Y-50492010D01*
X138797884Y-50525049D01*
X139009084Y-50558500D01*
X139009085Y-50558500D01*
X139222915Y-50558500D01*
X139222916Y-50558500D01*
X139434116Y-50525049D01*
X139637483Y-50458972D01*
X139828009Y-50361894D01*
X140001004Y-50236206D01*
X140152206Y-50085004D01*
X140277894Y-49912009D01*
X140277896Y-49912004D01*
X140280270Y-49908132D01*
X140332080Y-49861254D01*
X140401009Y-49849829D01*
X140465173Y-49877483D01*
X140491730Y-49908132D01*
X140494103Y-49912005D01*
X140494105Y-49912008D01*
X140494106Y-49912009D01*
X140619794Y-50085004D01*
X140770996Y-50236206D01*
X140943991Y-50361894D01*
X141037438Y-50409507D01*
X141134516Y-50458972D01*
X141134519Y-50458973D01*
X141236200Y-50492010D01*
X141337884Y-50525049D01*
X141549084Y-50558500D01*
X141549085Y-50558500D01*
X141762915Y-50558500D01*
X141762916Y-50558500D01*
X141974116Y-50525049D01*
X142177483Y-50458972D01*
X142368009Y-50361894D01*
X142541004Y-50236206D01*
X142692206Y-50085004D01*
X142817894Y-49912009D01*
X142914972Y-49721483D01*
X142981049Y-49518116D01*
X143014500Y-49306916D01*
X143014500Y-49093084D01*
X142981049Y-48881884D01*
X142914972Y-48678517D01*
X142914972Y-48678516D01*
X142867639Y-48585621D01*
X142817894Y-48487991D01*
X142692206Y-48314996D01*
X142678555Y-48301345D01*
X144361500Y-48301345D01*
X144361500Y-50098654D01*
X144368011Y-50159202D01*
X144368011Y-50159204D01*
X144399138Y-50242656D01*
X144419111Y-50296204D01*
X144506739Y-50413261D01*
X144623796Y-50500889D01*
X144760799Y-50551989D01*
X144788050Y-50554918D01*
X144821345Y-50558499D01*
X144821362Y-50558500D01*
X146618638Y-50558500D01*
X146618654Y-50558499D01*
X146645692Y-50555591D01*
X146679201Y-50551989D01*
X146816204Y-50500889D01*
X146933261Y-50413261D01*
X147020889Y-50296204D01*
X147065957Y-50175371D01*
X147107827Y-50119442D01*
X147173291Y-50095025D01*
X147241564Y-50109877D01*
X147269818Y-50131028D01*
X147374996Y-50236206D01*
X147547991Y-50361894D01*
X147641438Y-50409507D01*
X147738516Y-50458972D01*
X147738519Y-50458973D01*
X147840200Y-50492010D01*
X147941884Y-50525049D01*
X148153084Y-50558500D01*
X148153085Y-50558500D01*
X148366915Y-50558500D01*
X148366916Y-50558500D01*
X148578116Y-50525049D01*
X148781483Y-50458972D01*
X148972009Y-50361894D01*
X149145004Y-50236206D01*
X149296206Y-50085004D01*
X149421894Y-49912009D01*
X149421896Y-49912004D01*
X149424270Y-49908132D01*
X149476080Y-49861254D01*
X149545009Y-49849829D01*
X149609173Y-49877483D01*
X149635730Y-49908132D01*
X149638103Y-49912005D01*
X149638105Y-49912008D01*
X149638106Y-49912009D01*
X149763794Y-50085004D01*
X149914996Y-50236206D01*
X150087991Y-50361894D01*
X150181438Y-50409507D01*
X150278516Y-50458972D01*
X150278519Y-50458973D01*
X150380200Y-50492010D01*
X150481884Y-50525049D01*
X150693084Y-50558500D01*
X150693085Y-50558500D01*
X150906915Y-50558500D01*
X150906916Y-50558500D01*
X151118116Y-50525049D01*
X151321483Y-50458972D01*
X151512009Y-50361894D01*
X151685004Y-50236206D01*
X151836206Y-50085004D01*
X151961894Y-49912009D01*
X151961896Y-49912004D01*
X151964270Y-49908132D01*
X152016080Y-49861254D01*
X152085009Y-49849829D01*
X152149173Y-49877483D01*
X152175730Y-49908132D01*
X152178103Y-49912005D01*
X152178105Y-49912008D01*
X152178106Y-49912009D01*
X152303794Y-50085004D01*
X152454996Y-50236206D01*
X152627991Y-50361894D01*
X152721438Y-50409507D01*
X152818516Y-50458972D01*
X152818519Y-50458973D01*
X152920200Y-50492010D01*
X153021884Y-50525049D01*
X153233084Y-50558500D01*
X153233085Y-50558500D01*
X153446915Y-50558500D01*
X153446916Y-50558500D01*
X153658116Y-50525049D01*
X153861483Y-50458972D01*
X154052009Y-50361894D01*
X154225004Y-50236206D01*
X154376206Y-50085004D01*
X154501894Y-49912009D01*
X154501896Y-49912004D01*
X154504270Y-49908132D01*
X154556080Y-49861254D01*
X154625009Y-49849829D01*
X154689173Y-49877483D01*
X154715730Y-49908132D01*
X154718103Y-49912005D01*
X154718105Y-49912008D01*
X154718106Y-49912009D01*
X154843794Y-50085004D01*
X154994996Y-50236206D01*
X155167991Y-50361894D01*
X155261438Y-50409507D01*
X155358516Y-50458972D01*
X155358519Y-50458973D01*
X155460200Y-50492010D01*
X155561884Y-50525049D01*
X155773084Y-50558500D01*
X155773085Y-50558500D01*
X155986915Y-50558500D01*
X155986916Y-50558500D01*
X156198116Y-50525049D01*
X156401483Y-50458972D01*
X156592009Y-50361894D01*
X156765004Y-50236206D01*
X156916206Y-50085004D01*
X157041894Y-49912009D01*
X157041896Y-49912004D01*
X157044270Y-49908132D01*
X157096080Y-49861254D01*
X157165009Y-49849829D01*
X157229173Y-49877483D01*
X157255730Y-49908132D01*
X157258103Y-49912005D01*
X157258105Y-49912008D01*
X157258106Y-49912009D01*
X157383794Y-50085004D01*
X157534996Y-50236206D01*
X157707991Y-50361894D01*
X157801438Y-50409507D01*
X157898516Y-50458972D01*
X157898519Y-50458973D01*
X158000200Y-50492010D01*
X158101884Y-50525049D01*
X158313084Y-50558500D01*
X158313085Y-50558500D01*
X158526915Y-50558500D01*
X158526916Y-50558500D01*
X158738116Y-50525049D01*
X158941483Y-50458972D01*
X159132009Y-50361894D01*
X159305004Y-50236206D01*
X159456206Y-50085004D01*
X159581894Y-49912009D01*
X159581896Y-49912004D01*
X159584270Y-49908132D01*
X159636080Y-49861254D01*
X159705009Y-49849829D01*
X159769173Y-49877483D01*
X159795730Y-49908132D01*
X159798103Y-49912005D01*
X159798105Y-49912008D01*
X159798106Y-49912009D01*
X159923794Y-50085004D01*
X160074996Y-50236206D01*
X160247991Y-50361894D01*
X160341438Y-50409507D01*
X160438516Y-50458972D01*
X160438519Y-50458973D01*
X160540200Y-50492010D01*
X160641884Y-50525049D01*
X160853084Y-50558500D01*
X160853085Y-50558500D01*
X161066915Y-50558500D01*
X161066916Y-50558500D01*
X161278116Y-50525049D01*
X161481483Y-50458972D01*
X161672009Y-50361894D01*
X161845004Y-50236206D01*
X161996206Y-50085004D01*
X162121894Y-49912009D01*
X162121896Y-49912004D01*
X162124270Y-49908132D01*
X162176080Y-49861254D01*
X162245009Y-49849829D01*
X162309173Y-49877483D01*
X162335730Y-49908132D01*
X162338103Y-49912005D01*
X162338105Y-49912008D01*
X162338106Y-49912009D01*
X162463794Y-50085004D01*
X162614996Y-50236206D01*
X162787991Y-50361894D01*
X162881438Y-50409507D01*
X162978516Y-50458972D01*
X162978519Y-50458973D01*
X163080200Y-50492010D01*
X163181884Y-50525049D01*
X163393084Y-50558500D01*
X163393085Y-50558500D01*
X163606915Y-50558500D01*
X163606916Y-50558500D01*
X163818116Y-50525049D01*
X164021483Y-50458972D01*
X164212009Y-50361894D01*
X164385004Y-50236206D01*
X164536206Y-50085004D01*
X164661894Y-49912009D01*
X164758972Y-49721483D01*
X164825049Y-49518116D01*
X164858500Y-49306916D01*
X164858500Y-49093084D01*
X164825049Y-48881884D01*
X164758972Y-48678517D01*
X164758972Y-48678516D01*
X164709507Y-48581438D01*
X164661894Y-48487991D01*
X164536206Y-48314996D01*
X164385004Y-48163794D01*
X164212009Y-48038106D01*
X164021483Y-47941027D01*
X164021480Y-47941026D01*
X163818117Y-47874951D01*
X163712516Y-47858225D01*
X163606916Y-47841500D01*
X163393084Y-47841500D01*
X163322684Y-47852650D01*
X163181882Y-47874951D01*
X162978519Y-47941026D01*
X162978516Y-47941027D01*
X162787990Y-48038106D01*
X162614993Y-48163796D01*
X162463796Y-48314993D01*
X162338105Y-48487991D01*
X162335727Y-48491873D01*
X162283914Y-48538748D01*
X162214984Y-48550169D01*
X162150822Y-48522512D01*
X162124273Y-48491873D01*
X162121894Y-48487991D01*
X162121891Y-48487987D01*
X161996206Y-48314996D01*
X161845004Y-48163794D01*
X161672009Y-48038106D01*
X161481483Y-47941027D01*
X161481480Y-47941026D01*
X161278117Y-47874951D01*
X161172516Y-47858225D01*
X161066916Y-47841500D01*
X160853084Y-47841500D01*
X160782684Y-47852650D01*
X160641882Y-47874951D01*
X160438519Y-47941026D01*
X160438516Y-47941027D01*
X160247990Y-48038106D01*
X160074993Y-48163796D01*
X159923796Y-48314993D01*
X159798105Y-48487991D01*
X159795727Y-48491873D01*
X159743914Y-48538748D01*
X159674984Y-48550169D01*
X159610822Y-48522512D01*
X159584273Y-48491873D01*
X159581894Y-48487991D01*
X159581891Y-48487987D01*
X159456206Y-48314996D01*
X159305004Y-48163794D01*
X159132009Y-48038106D01*
X158941483Y-47941027D01*
X158941480Y-47941026D01*
X158738117Y-47874951D01*
X158632516Y-47858225D01*
X158526916Y-47841500D01*
X158313084Y-47841500D01*
X158242684Y-47852650D01*
X158101882Y-47874951D01*
X157898519Y-47941026D01*
X157898516Y-47941027D01*
X157707990Y-48038106D01*
X157534993Y-48163796D01*
X157383796Y-48314993D01*
X157258105Y-48487991D01*
X157255727Y-48491873D01*
X157203914Y-48538748D01*
X157134984Y-48550169D01*
X157070822Y-48522512D01*
X157044273Y-48491873D01*
X157041894Y-48487991D01*
X157041891Y-48487987D01*
X156916206Y-48314996D01*
X156765004Y-48163794D01*
X156592009Y-48038106D01*
X156401483Y-47941027D01*
X156401480Y-47941026D01*
X156198117Y-47874951D01*
X156092516Y-47858225D01*
X155986916Y-47841500D01*
X155773084Y-47841500D01*
X155702684Y-47852650D01*
X155561882Y-47874951D01*
X155358519Y-47941026D01*
X155358516Y-47941027D01*
X155167990Y-48038106D01*
X154994993Y-48163796D01*
X154843796Y-48314993D01*
X154718105Y-48487991D01*
X154715727Y-48491873D01*
X154663914Y-48538748D01*
X154594984Y-48550169D01*
X154530822Y-48522512D01*
X154504273Y-48491873D01*
X154501894Y-48487991D01*
X154501891Y-48487987D01*
X154376206Y-48314996D01*
X154225004Y-48163794D01*
X154052009Y-48038106D01*
X153861483Y-47941027D01*
X153861480Y-47941026D01*
X153658117Y-47874951D01*
X153552516Y-47858225D01*
X153446916Y-47841500D01*
X153233084Y-47841500D01*
X153162684Y-47852650D01*
X153021882Y-47874951D01*
X152818519Y-47941026D01*
X152818516Y-47941027D01*
X152627990Y-48038106D01*
X152454993Y-48163796D01*
X152303796Y-48314993D01*
X152178105Y-48487991D01*
X152175727Y-48491873D01*
X152123914Y-48538748D01*
X152054984Y-48550169D01*
X151990822Y-48522512D01*
X151964273Y-48491873D01*
X151961894Y-48487991D01*
X151961891Y-48487987D01*
X151836206Y-48314996D01*
X151685004Y-48163794D01*
X151512009Y-48038106D01*
X151321483Y-47941027D01*
X151321480Y-47941026D01*
X151118117Y-47874951D01*
X151012516Y-47858225D01*
X150906916Y-47841500D01*
X150693084Y-47841500D01*
X150622684Y-47852650D01*
X150481882Y-47874951D01*
X150278519Y-47941026D01*
X150278516Y-47941027D01*
X150087990Y-48038106D01*
X149914993Y-48163796D01*
X149763796Y-48314993D01*
X149638105Y-48487991D01*
X149635727Y-48491873D01*
X149583914Y-48538748D01*
X149514984Y-48550169D01*
X149450822Y-48522512D01*
X149424273Y-48491873D01*
X149421894Y-48487991D01*
X149421891Y-48487987D01*
X149296206Y-48314996D01*
X149145004Y-48163794D01*
X148972009Y-48038106D01*
X148781483Y-47941027D01*
X148781480Y-47941026D01*
X148578117Y-47874951D01*
X148472516Y-47858225D01*
X148366916Y-47841500D01*
X148153084Y-47841500D01*
X148082684Y-47852650D01*
X147941882Y-47874951D01*
X147738519Y-47941026D01*
X147738516Y-47941027D01*
X147547990Y-48038106D01*
X147374997Y-48163793D01*
X147269818Y-48268972D01*
X147208495Y-48302456D01*
X147138803Y-48297472D01*
X147082870Y-48255600D01*
X147065958Y-48224629D01*
X147020889Y-48103796D01*
X146933261Y-47986739D01*
X146816204Y-47899111D01*
X146679203Y-47848011D01*
X146618654Y-47841500D01*
X146618638Y-47841500D01*
X144821362Y-47841500D01*
X144821345Y-47841500D01*
X144760797Y-47848011D01*
X144760795Y-47848011D01*
X144623795Y-47899111D01*
X144506739Y-47986739D01*
X144419111Y-48103795D01*
X144368011Y-48240795D01*
X144368011Y-48240797D01*
X144361500Y-48301345D01*
X142678555Y-48301345D01*
X142541004Y-48163794D01*
X142368009Y-48038106D01*
X142177483Y-47941027D01*
X142177480Y-47941026D01*
X141974117Y-47874951D01*
X141868516Y-47858225D01*
X141762916Y-47841500D01*
X141549084Y-47841500D01*
X141478684Y-47852650D01*
X141337882Y-47874951D01*
X141134519Y-47941026D01*
X141134516Y-47941027D01*
X140943990Y-48038106D01*
X140770993Y-48163796D01*
X140619796Y-48314993D01*
X140494105Y-48487991D01*
X140491727Y-48491873D01*
X140439914Y-48538748D01*
X140370984Y-48550169D01*
X140306822Y-48522512D01*
X140280273Y-48491873D01*
X140277894Y-48487991D01*
X140277891Y-48487987D01*
X140152206Y-48314996D01*
X140001004Y-48163794D01*
X139828009Y-48038106D01*
X139637483Y-47941027D01*
X139637480Y-47941026D01*
X139434117Y-47874951D01*
X139328516Y-47858225D01*
X139222916Y-47841500D01*
X139009084Y-47841500D01*
X138938684Y-47852650D01*
X138797882Y-47874951D01*
X138594519Y-47941026D01*
X138594516Y-47941027D01*
X138403990Y-48038106D01*
X138230993Y-48163796D01*
X138079796Y-48314993D01*
X137954105Y-48487991D01*
X137951727Y-48491873D01*
X137899914Y-48538748D01*
X137830984Y-48550169D01*
X137766822Y-48522512D01*
X137740273Y-48491873D01*
X137737894Y-48487991D01*
X137737891Y-48487987D01*
X137612206Y-48314996D01*
X137461004Y-48163794D01*
X137288009Y-48038106D01*
X137097483Y-47941027D01*
X137097480Y-47941026D01*
X136894117Y-47874951D01*
X136788516Y-47858225D01*
X136682916Y-47841500D01*
X136469084Y-47841500D01*
X136398684Y-47852650D01*
X136257882Y-47874951D01*
X136054519Y-47941026D01*
X136054516Y-47941027D01*
X135863990Y-48038106D01*
X135690993Y-48163796D01*
X135539796Y-48314993D01*
X135414105Y-48487991D01*
X135411727Y-48491873D01*
X135359914Y-48538748D01*
X135290984Y-48550169D01*
X135226822Y-48522512D01*
X135200273Y-48491873D01*
X135197894Y-48487991D01*
X135197891Y-48487987D01*
X135072206Y-48314996D01*
X134921004Y-48163794D01*
X134748009Y-48038106D01*
X134557483Y-47941027D01*
X134557480Y-47941026D01*
X134354117Y-47874951D01*
X134248516Y-47858225D01*
X134142916Y-47841500D01*
X133929084Y-47841500D01*
X133858684Y-47852650D01*
X133717882Y-47874951D01*
X133514519Y-47941026D01*
X133514516Y-47941027D01*
X133323990Y-48038106D01*
X133150993Y-48163796D01*
X132999796Y-48314993D01*
X132874105Y-48487991D01*
X132871727Y-48491873D01*
X132819914Y-48538748D01*
X132750984Y-48550169D01*
X132686822Y-48522512D01*
X132660273Y-48491873D01*
X132657894Y-48487991D01*
X132657891Y-48487987D01*
X132532206Y-48314996D01*
X132381004Y-48163794D01*
X132208009Y-48038106D01*
X132017483Y-47941027D01*
X132017480Y-47941026D01*
X131814117Y-47874951D01*
X131708516Y-47858225D01*
X131602916Y-47841500D01*
X131389084Y-47841500D01*
X131318684Y-47852650D01*
X131177882Y-47874951D01*
X130974519Y-47941026D01*
X130974516Y-47941027D01*
X130783990Y-48038106D01*
X130610993Y-48163796D01*
X130459796Y-48314993D01*
X130334105Y-48487991D01*
X130331727Y-48491873D01*
X130279914Y-48538748D01*
X130210984Y-48550169D01*
X130146822Y-48522512D01*
X130120273Y-48491873D01*
X130117894Y-48487991D01*
X130117891Y-48487987D01*
X129992206Y-48314996D01*
X129841004Y-48163794D01*
X129668009Y-48038106D01*
X129477483Y-47941027D01*
X129477480Y-47941026D01*
X129274117Y-47874951D01*
X129168516Y-47858225D01*
X129062916Y-47841500D01*
X128849084Y-47841500D01*
X128778684Y-47852650D01*
X128637882Y-47874951D01*
X128434519Y-47941026D01*
X128434516Y-47941027D01*
X128243990Y-48038106D01*
X128070993Y-48163796D01*
X127919796Y-48314993D01*
X127794103Y-48487994D01*
X127791709Y-48492693D01*
X127743731Y-48543485D01*
X127675908Y-48560275D01*
X127609775Y-48537732D01*
X127573800Y-48496210D01*
X127573168Y-48496598D01*
X127570829Y-48492781D01*
X127570743Y-48492682D01*
X127570620Y-48492441D01*
X127445727Y-48320540D01*
X127445723Y-48320535D01*
X127295464Y-48170276D01*
X127295459Y-48170272D01*
X127123557Y-48045379D01*
X126934215Y-47948903D01*
X126732124Y-47883241D01*
X126666000Y-47872768D01*
X126666000Y-48766988D01*
X126608993Y-48734075D01*
X126481826Y-48700000D01*
X126350174Y-48700000D01*
X126223007Y-48734075D01*
X126166000Y-48766988D01*
X126166000Y-47872768D01*
X126165999Y-47872768D01*
X126099875Y-47883241D01*
X125897784Y-47948903D01*
X125708442Y-48045379D01*
X125536540Y-48170272D01*
X125536535Y-48170276D01*
X125386276Y-48320535D01*
X125386272Y-48320540D01*
X125261376Y-48492446D01*
X125261374Y-48492448D01*
X125261246Y-48492701D01*
X125261172Y-48492779D01*
X125258832Y-48496598D01*
X125258029Y-48496106D01*
X125213264Y-48543489D01*
X125145441Y-48560274D01*
X125079309Y-48537727D01*
X125040285Y-48492683D01*
X125037895Y-48487992D01*
X125006472Y-48444742D01*
X124912206Y-48314996D01*
X124761004Y-48163794D01*
X124588009Y-48038106D01*
X124397483Y-47941027D01*
X124397480Y-47941026D01*
X124194117Y-47874951D01*
X124088516Y-47858225D01*
X123982916Y-47841500D01*
X123769084Y-47841500D01*
X123698684Y-47852650D01*
X123557882Y-47874951D01*
X123354519Y-47941026D01*
X123354516Y-47941027D01*
X123163990Y-48038106D01*
X122990993Y-48163796D01*
X122839796Y-48314993D01*
X122714105Y-48487991D01*
X122711727Y-48491873D01*
X122659914Y-48538748D01*
X122590984Y-48550169D01*
X122526822Y-48522512D01*
X122500273Y-48491873D01*
X122497894Y-48487991D01*
X122497891Y-48487987D01*
X122372206Y-48314996D01*
X122221004Y-48163794D01*
X122048009Y-48038106D01*
X121857483Y-47941027D01*
X121857480Y-47941026D01*
X121654117Y-47874951D01*
X121548516Y-47858225D01*
X121442916Y-47841500D01*
X121229084Y-47841500D01*
X121158684Y-47852650D01*
X121017882Y-47874951D01*
X120814519Y-47941026D01*
X120814516Y-47941027D01*
X120623990Y-48038106D01*
X120450997Y-48163793D01*
X120345818Y-48268972D01*
X120284495Y-48302456D01*
X120214803Y-48297472D01*
X120158870Y-48255600D01*
X120141958Y-48224629D01*
X120096889Y-48103796D01*
X120009261Y-47986739D01*
X119892204Y-47899111D01*
X119755203Y-47848011D01*
X119694654Y-47841500D01*
X119694638Y-47841500D01*
X117897362Y-47841500D01*
X117897345Y-47841500D01*
X117836797Y-47848011D01*
X117836795Y-47848011D01*
X117699795Y-47899111D01*
X117582739Y-47986739D01*
X117495111Y-48103795D01*
X117444011Y-48240795D01*
X117444011Y-48240797D01*
X117437500Y-48301345D01*
X117437500Y-50098654D01*
X117444011Y-50159202D01*
X117444011Y-50159204D01*
X117475138Y-50242656D01*
X117495111Y-50296204D01*
X117582739Y-50413261D01*
X117699796Y-50500889D01*
X117836799Y-50551989D01*
X117864050Y-50554918D01*
X117897345Y-50558499D01*
X117897362Y-50558500D01*
X119694638Y-50558500D01*
X119694654Y-50558499D01*
X119721692Y-50555591D01*
X119755201Y-50551989D01*
X119892204Y-50500889D01*
X120009261Y-50413261D01*
X120096889Y-50296204D01*
X120141957Y-50175371D01*
X120183827Y-50119442D01*
X120249291Y-50095025D01*
X120317564Y-50109877D01*
X120345818Y-50131028D01*
X120450996Y-50236206D01*
X120623991Y-50361894D01*
X120717438Y-50409507D01*
X120814516Y-50458972D01*
X120814519Y-50458973D01*
X120916200Y-50492010D01*
X121017884Y-50525049D01*
X121229084Y-50558500D01*
X121229085Y-50558500D01*
X121442915Y-50558500D01*
X121442916Y-50558500D01*
X121654116Y-50525049D01*
X121857483Y-50458972D01*
X122048009Y-50361894D01*
X122221004Y-50236206D01*
X122372206Y-50085004D01*
X122497894Y-49912009D01*
X122497896Y-49912004D01*
X122500270Y-49908132D01*
X122552080Y-49861254D01*
X122621009Y-49849829D01*
X122685173Y-49877483D01*
X122711730Y-49908132D01*
X122714103Y-49912005D01*
X122714105Y-49912008D01*
X122714106Y-49912009D01*
X122839794Y-50085004D01*
X122990996Y-50236206D01*
X123163991Y-50361894D01*
X123257438Y-50409507D01*
X123354516Y-50458972D01*
X123354519Y-50458973D01*
X123456200Y-50492010D01*
X123557884Y-50525049D01*
X123769084Y-50558500D01*
X123769085Y-50558500D01*
X123982915Y-50558500D01*
X123982916Y-50558500D01*
X124194116Y-50525049D01*
X124397483Y-50458972D01*
X124588009Y-50361894D01*
X124761004Y-50236206D01*
X124912206Y-50085004D01*
X125037894Y-49912009D01*
X125040283Y-49907319D01*
X125088254Y-49856522D01*
X125156074Y-49839724D01*
X125222210Y-49862258D01*
X125258201Y-49903788D01*
X125258832Y-49903402D01*
X125261164Y-49907207D01*
X125261251Y-49907308D01*
X125261376Y-49907554D01*
X125386272Y-50079459D01*
X125386276Y-50079464D01*
X125536535Y-50229723D01*
X125536540Y-50229727D01*
X125708442Y-50354620D01*
X125897782Y-50451095D01*
X126099871Y-50516757D01*
X126166000Y-50527231D01*
X126166000Y-49633012D01*
X126223007Y-49665925D01*
X126350174Y-49700000D01*
X126481826Y-49700000D01*
X126608993Y-49665925D01*
X126666000Y-49633012D01*
X126666000Y-50527230D01*
X126732126Y-50516757D01*
X126732129Y-50516757D01*
X126934217Y-50451095D01*
X127123557Y-50354620D01*
X127295459Y-50229727D01*
X127295464Y-50229723D01*
X127445723Y-50079464D01*
X127445727Y-50079459D01*
X127570619Y-49907560D01*
X127570738Y-49907327D01*
X127570808Y-49907252D01*
X127573168Y-49903402D01*
X127573976Y-49903897D01*
X127618707Y-49856526D01*
X127686526Y-49839723D01*
X127752663Y-49862254D01*
X127791712Y-49907311D01*
X127794105Y-49912008D01*
X127836002Y-49969674D01*
X127919794Y-50085004D01*
X128070996Y-50236206D01*
X128243991Y-50361894D01*
X128337438Y-50409507D01*
X128434516Y-50458972D01*
X128434519Y-50458973D01*
X128536200Y-50492010D01*
X128637884Y-50525049D01*
X128849084Y-50558500D01*
X128849085Y-50558500D01*
X129062915Y-50558500D01*
X129062916Y-50558500D01*
X129274116Y-50525049D01*
X129477483Y-50458972D01*
X129668009Y-50361894D01*
X129841004Y-50236206D01*
X129992206Y-50085004D01*
X130117894Y-49912009D01*
X130117896Y-49912004D01*
X130120270Y-49908132D01*
X130172080Y-49861254D01*
X130241009Y-49849829D01*
X130305173Y-49877483D01*
X130331730Y-49908132D01*
X130334103Y-49912005D01*
X130334105Y-49912008D01*
X130334106Y-49912009D01*
X130459794Y-50085004D01*
X130610996Y-50236206D01*
X130783991Y-50361894D01*
X130877438Y-50409507D01*
X130974516Y-50458972D01*
X130974519Y-50458973D01*
X131076200Y-50492010D01*
X131177884Y-50525049D01*
X131389084Y-50558500D01*
X131389085Y-50558500D01*
X131602915Y-50558500D01*
X131602916Y-50558500D01*
X131814116Y-50525049D01*
X132017483Y-50458972D01*
X132208009Y-50361894D01*
X132381004Y-50236206D01*
X132532206Y-50085004D01*
X132657894Y-49912009D01*
X132657896Y-49912004D01*
X132660270Y-49908132D01*
X132712080Y-49861254D01*
X132781009Y-49849829D01*
X132845173Y-49877483D01*
X132871730Y-49908132D01*
X132874103Y-49912005D01*
X132874105Y-49912008D01*
X132874106Y-49912009D01*
X132999794Y-50085004D01*
X133150996Y-50236206D01*
X133323991Y-50361894D01*
X133417438Y-50409507D01*
X133514516Y-50458972D01*
X133514519Y-50458973D01*
X133616200Y-50492010D01*
X133717884Y-50525049D01*
X133929084Y-50558500D01*
X133929085Y-50558500D01*
X134142912Y-50558500D01*
X134142916Y-50558500D01*
X134173911Y-50553590D01*
X134243202Y-50562543D01*
X134280990Y-50588382D01*
X138320607Y-54628000D01*
X138320610Y-54628003D01*
X138453026Y-54716480D01*
X138453032Y-54716484D01*
X138481761Y-54728383D01*
X138555485Y-54758921D01*
X138600169Y-54777430D01*
X138756365Y-54808499D01*
X138756369Y-54808500D01*
X138756370Y-54808500D01*
X138915630Y-54808500D01*
X141213746Y-54808500D01*
X141280785Y-54828185D01*
X141301427Y-54844819D01*
X149155181Y-62698573D01*
X149188666Y-62759896D01*
X149191500Y-62786254D01*
X149191500Y-63345029D01*
X149171815Y-63412068D01*
X149140387Y-63445346D01*
X149114996Y-63463793D01*
X148963796Y-63614993D01*
X148838105Y-63787991D01*
X148835727Y-63791873D01*
X148783914Y-63838748D01*
X148714984Y-63850169D01*
X148650822Y-63822512D01*
X148624273Y-63791873D01*
X148621894Y-63787991D01*
X148621893Y-63787990D01*
X148496206Y-63614996D01*
X148345004Y-63463794D01*
X148172009Y-63338106D01*
X147981483Y-63241027D01*
X147981480Y-63241026D01*
X147778117Y-63174951D01*
X147660997Y-63156401D01*
X147566916Y-63141500D01*
X147353084Y-63141500D01*
X147282684Y-63152650D01*
X147141882Y-63174951D01*
X146938519Y-63241026D01*
X146938516Y-63241027D01*
X146747990Y-63338106D01*
X146574993Y-63463796D01*
X146423796Y-63614993D01*
X146298105Y-63787991D01*
X146295727Y-63791873D01*
X146243914Y-63838748D01*
X146174984Y-63850169D01*
X146110822Y-63822512D01*
X146084273Y-63791873D01*
X146081894Y-63787991D01*
X146081893Y-63787990D01*
X145956206Y-63614996D01*
X145805004Y-63463794D01*
X145632009Y-63338106D01*
X145441483Y-63241027D01*
X145441480Y-63241026D01*
X145238117Y-63174951D01*
X145120997Y-63156401D01*
X145026916Y-63141500D01*
X144813084Y-63141500D01*
X144742684Y-63152650D01*
X144601882Y-63174951D01*
X144398519Y-63241026D01*
X144398516Y-63241027D01*
X144207990Y-63338106D01*
X144034997Y-63463793D01*
X143929818Y-63568972D01*
X143868495Y-63602456D01*
X143798803Y-63597472D01*
X143742870Y-63555600D01*
X143725958Y-63524629D01*
X143680889Y-63403796D01*
X143593261Y-63286739D01*
X143476204Y-63199111D01*
X143339203Y-63148011D01*
X143278654Y-63141500D01*
X143278638Y-63141500D01*
X141481362Y-63141500D01*
X141481345Y-63141500D01*
X141420797Y-63148011D01*
X141420795Y-63148011D01*
X141283795Y-63199111D01*
X141166739Y-63286739D01*
X141079111Y-63403795D01*
X141028011Y-63540795D01*
X141028011Y-63540797D01*
X141021500Y-63601345D01*
X141021500Y-65398654D01*
X141027478Y-65454244D01*
X141015074Y-65523003D01*
X140967464Y-65574141D01*
X140904189Y-65591500D01*
X132628818Y-65591500D01*
X132561779Y-65571815D01*
X132516024Y-65519011D01*
X132506080Y-65449853D01*
X132533561Y-65389104D01*
X132533342Y-65388945D01*
X132534115Y-65387880D01*
X132534529Y-65386966D01*
X132536190Y-65385019D01*
X132536206Y-65385004D01*
X132661894Y-65212009D01*
X132758972Y-65021483D01*
X132825049Y-64818116D01*
X132858500Y-64606916D01*
X132858500Y-64393084D01*
X132825049Y-64181884D01*
X132792010Y-64080200D01*
X132758973Y-63978519D01*
X132758972Y-63978516D01*
X132687756Y-63838748D01*
X132661894Y-63787991D01*
X132536206Y-63614996D01*
X132385004Y-63463794D01*
X132212009Y-63338106D01*
X132021483Y-63241027D01*
X132021480Y-63241026D01*
X131818117Y-63174951D01*
X131700997Y-63156401D01*
X131606916Y-63141500D01*
X131393084Y-63141500D01*
X131322684Y-63152650D01*
X131181882Y-63174951D01*
X130978519Y-63241026D01*
X130978516Y-63241027D01*
X130787990Y-63338106D01*
X130614993Y-63463796D01*
X130463796Y-63614993D01*
X130338105Y-63787991D01*
X130335727Y-63791873D01*
X130283914Y-63838748D01*
X130214984Y-63850169D01*
X130150822Y-63822512D01*
X130124273Y-63791873D01*
X130121894Y-63787991D01*
X130121893Y-63787990D01*
X129996206Y-63614996D01*
X129845004Y-63463794D01*
X129672009Y-63338106D01*
X129481483Y-63241027D01*
X129481480Y-63241026D01*
X129278117Y-63174951D01*
X129160997Y-63156401D01*
X129066916Y-63141500D01*
X128853084Y-63141500D01*
X128782684Y-63152650D01*
X128641882Y-63174951D01*
X128438519Y-63241026D01*
X128438516Y-63241027D01*
X128247990Y-63338106D01*
X128074993Y-63463796D01*
X127923796Y-63614993D01*
X127798105Y-63787991D01*
X127795727Y-63791873D01*
X127743914Y-63838748D01*
X127674984Y-63850169D01*
X127610822Y-63822512D01*
X127584273Y-63791873D01*
X127581894Y-63787991D01*
X127581893Y-63787990D01*
X127456206Y-63614996D01*
X127305004Y-63463794D01*
X127132009Y-63338106D01*
X126941483Y-63241027D01*
X126941480Y-63241026D01*
X126738117Y-63174951D01*
X126620997Y-63156401D01*
X126526916Y-63141500D01*
X126313084Y-63141500D01*
X126242684Y-63152650D01*
X126101882Y-63174951D01*
X125898519Y-63241026D01*
X125898516Y-63241027D01*
X125707990Y-63338106D01*
X125534993Y-63463796D01*
X125383796Y-63614993D01*
X125258105Y-63787991D01*
X125255727Y-63791873D01*
X125203914Y-63838748D01*
X125134984Y-63850169D01*
X125070822Y-63822512D01*
X125044273Y-63791873D01*
X125041894Y-63787991D01*
X125041893Y-63787990D01*
X124916206Y-63614996D01*
X124765004Y-63463794D01*
X124592009Y-63338106D01*
X124401483Y-63241027D01*
X124401480Y-63241026D01*
X124198117Y-63174951D01*
X124080997Y-63156401D01*
X123986916Y-63141500D01*
X123773084Y-63141500D01*
X123702684Y-63152650D01*
X123561882Y-63174951D01*
X123358519Y-63241026D01*
X123358516Y-63241027D01*
X123167990Y-63338106D01*
X122994993Y-63463796D01*
X122843796Y-63614993D01*
X122718105Y-63787991D01*
X122715727Y-63791873D01*
X122663914Y-63838748D01*
X122594984Y-63850169D01*
X122530822Y-63822512D01*
X122504273Y-63791873D01*
X122501894Y-63787991D01*
X122501893Y-63787990D01*
X122376206Y-63614996D01*
X122225004Y-63463794D01*
X122052009Y-63338106D01*
X121861483Y-63241027D01*
X121861480Y-63241026D01*
X121658117Y-63174951D01*
X121540997Y-63156401D01*
X121446916Y-63141500D01*
X121233084Y-63141500D01*
X121162684Y-63152650D01*
X121021882Y-63174951D01*
X120818519Y-63241026D01*
X120818516Y-63241027D01*
X120627990Y-63338106D01*
X120454993Y-63463796D01*
X120303796Y-63614993D01*
X120178105Y-63787991D01*
X120175727Y-63791873D01*
X120123914Y-63838748D01*
X120054984Y-63850169D01*
X119990822Y-63822512D01*
X119964273Y-63791873D01*
X119961894Y-63787991D01*
X119961893Y-63787990D01*
X119836206Y-63614996D01*
X119685004Y-63463794D01*
X119512009Y-63338106D01*
X119321483Y-63241027D01*
X119321480Y-63241026D01*
X119118117Y-63174951D01*
X119000997Y-63156401D01*
X118906916Y-63141500D01*
X118693084Y-63141500D01*
X118622684Y-63152650D01*
X118481882Y-63174951D01*
X118278519Y-63241026D01*
X118278516Y-63241027D01*
X118087990Y-63338106D01*
X117914997Y-63463793D01*
X117803211Y-63575579D01*
X117741888Y-63609063D01*
X117672196Y-63604079D01*
X117616263Y-63562207D01*
X117599348Y-63531230D01*
X117553354Y-63407913D01*
X117553350Y-63407906D01*
X117467190Y-63292812D01*
X117467187Y-63292809D01*
X117352093Y-63206649D01*
X117352086Y-63206645D01*
X117217379Y-63156403D01*
X117217372Y-63156401D01*
X117157844Y-63150000D01*
X116510000Y-63150000D01*
X116510000Y-64066988D01*
X116452993Y-64034075D01*
X116325826Y-64000000D01*
X116194174Y-64000000D01*
X116067007Y-64034075D01*
X116010000Y-64066988D01*
X116010000Y-63150000D01*
X115362155Y-63150000D01*
X115302627Y-63156401D01*
X115302620Y-63156403D01*
X115167913Y-63206645D01*
X115167906Y-63206649D01*
X115052812Y-63292809D01*
X115052809Y-63292812D01*
X114966649Y-63407906D01*
X114966645Y-63407913D01*
X114916403Y-63542620D01*
X114916401Y-63542627D01*
X114910000Y-63602155D01*
X114910000Y-64250000D01*
X115826988Y-64250000D01*
X115794075Y-64307007D01*
X115760000Y-64434174D01*
X115760000Y-64565826D01*
X115794075Y-64692993D01*
X115826988Y-64750000D01*
X114910000Y-64750000D01*
X114910000Y-65397844D01*
X114916401Y-65457372D01*
X114916403Y-65457379D01*
X114966645Y-65592086D01*
X114966649Y-65592093D01*
X115052809Y-65707187D01*
X115052812Y-65707190D01*
X115167906Y-65793350D01*
X115167913Y-65793354D01*
X115302620Y-65843596D01*
X115302627Y-65843598D01*
X115362155Y-65849999D01*
X115362172Y-65850000D01*
X116010000Y-65850000D01*
X116010000Y-64933012D01*
X116067007Y-64965925D01*
X116194174Y-65000000D01*
X116325826Y-65000000D01*
X116452993Y-64965925D01*
X116510000Y-64933012D01*
X116510000Y-65850000D01*
X117157828Y-65850000D01*
X117157844Y-65849999D01*
X117217372Y-65843598D01*
X117217379Y-65843596D01*
X117352086Y-65793354D01*
X117352093Y-65793350D01*
X117467187Y-65707190D01*
X117467190Y-65707187D01*
X117553350Y-65592093D01*
X117553355Y-65592084D01*
X117599348Y-65468770D01*
X117641219Y-65412836D01*
X117706683Y-65388418D01*
X117774956Y-65403269D01*
X117803211Y-65424421D01*
X117914996Y-65536206D01*
X118087991Y-65661894D01*
X118176883Y-65707187D01*
X118278516Y-65758972D01*
X118278519Y-65758973D01*
X118380200Y-65792010D01*
X118481884Y-65825049D01*
X118693084Y-65858500D01*
X118693085Y-65858500D01*
X118906915Y-65858500D01*
X118906916Y-65858500D01*
X119118116Y-65825049D01*
X119321483Y-65758972D01*
X119512009Y-65661894D01*
X119685004Y-65536206D01*
X119836206Y-65385004D01*
X119961894Y-65212009D01*
X119961896Y-65212004D01*
X119964270Y-65208132D01*
X120016080Y-65161254D01*
X120085009Y-65149829D01*
X120149173Y-65177483D01*
X120175730Y-65208132D01*
X120178103Y-65212005D01*
X120178106Y-65212009D01*
X120303794Y-65385004D01*
X120454996Y-65536206D01*
X120627991Y-65661894D01*
X120716883Y-65707187D01*
X120818516Y-65758972D01*
X120818519Y-65758973D01*
X120920200Y-65792010D01*
X121021884Y-65825049D01*
X121233084Y-65858500D01*
X121233085Y-65858500D01*
X121446915Y-65858500D01*
X121446916Y-65858500D01*
X121658116Y-65825049D01*
X121861483Y-65758972D01*
X122052009Y-65661894D01*
X122225004Y-65536206D01*
X122376206Y-65385004D01*
X122501894Y-65212009D01*
X122501896Y-65212004D01*
X122504270Y-65208132D01*
X122556080Y-65161254D01*
X122625009Y-65149829D01*
X122689173Y-65177483D01*
X122715730Y-65208132D01*
X122718103Y-65212005D01*
X122718106Y-65212009D01*
X122843794Y-65385004D01*
X122994996Y-65536206D01*
X123167991Y-65661894D01*
X123256883Y-65707187D01*
X123358516Y-65758972D01*
X123358519Y-65758973D01*
X123460200Y-65792010D01*
X123561884Y-65825049D01*
X123773084Y-65858500D01*
X123773085Y-65858500D01*
X123986915Y-65858500D01*
X123986916Y-65858500D01*
X124198116Y-65825049D01*
X124401483Y-65758972D01*
X124592009Y-65661894D01*
X124765004Y-65536206D01*
X124916206Y-65385004D01*
X125041894Y-65212009D01*
X125041896Y-65212004D01*
X125044270Y-65208132D01*
X125096080Y-65161254D01*
X125165009Y-65149829D01*
X125229173Y-65177483D01*
X125255730Y-65208132D01*
X125258103Y-65212005D01*
X125258106Y-65212009D01*
X125383794Y-65385004D01*
X125534996Y-65536206D01*
X125707991Y-65661894D01*
X125796883Y-65707187D01*
X125898516Y-65758972D01*
X125898519Y-65758973D01*
X126000200Y-65792010D01*
X126101884Y-65825049D01*
X126313084Y-65858500D01*
X126313085Y-65858500D01*
X126526915Y-65858500D01*
X126526916Y-65858500D01*
X126738116Y-65825049D01*
X126941483Y-65758972D01*
X127132009Y-65661894D01*
X127305004Y-65536206D01*
X127456206Y-65385004D01*
X127581894Y-65212009D01*
X127581896Y-65212004D01*
X127584270Y-65208132D01*
X127636080Y-65161254D01*
X127705009Y-65149829D01*
X127769173Y-65177483D01*
X127795730Y-65208132D01*
X127798103Y-65212005D01*
X127798106Y-65212009D01*
X127923794Y-65385004D01*
X128074996Y-65536206D01*
X128247991Y-65661894D01*
X128336883Y-65707187D01*
X128438516Y-65758972D01*
X128438519Y-65758973D01*
X128540200Y-65792010D01*
X128641884Y-65825049D01*
X128853084Y-65858500D01*
X128853085Y-65858500D01*
X129066912Y-65858500D01*
X129066916Y-65858500D01*
X129097911Y-65853590D01*
X129167202Y-65862543D01*
X129204990Y-65888382D01*
X130344607Y-67028000D01*
X130344610Y-67028003D01*
X130457928Y-67103719D01*
X130477032Y-67116484D01*
X130498579Y-67125409D01*
X130550601Y-67146957D01*
X130550600Y-67146957D01*
X130599322Y-67167137D01*
X130614221Y-67173309D01*
X130668625Y-67217149D01*
X130690690Y-67283443D01*
X130673411Y-67351143D01*
X130650681Y-67378153D01*
X130651015Y-67378487D01*
X130501930Y-67527571D01*
X130501926Y-67527576D01*
X130380871Y-67694195D01*
X130340484Y-67773459D01*
X130292510Y-67824254D01*
X130224689Y-67841049D01*
X130158554Y-67818511D01*
X130119516Y-67773459D01*
X130079128Y-67694195D01*
X129958073Y-67527576D01*
X129958069Y-67527571D01*
X129812428Y-67381930D01*
X129812423Y-67381926D01*
X129645806Y-67260873D01*
X129645805Y-67260872D01*
X129645803Y-67260871D01*
X129588496Y-67231671D01*
X129462294Y-67167367D01*
X129266408Y-67103719D01*
X129090794Y-67075905D01*
X129062981Y-67071500D01*
X128857019Y-67071500D01*
X128832550Y-67075375D01*
X128653591Y-67103719D01*
X128457705Y-67167367D01*
X128274193Y-67260873D01*
X128107576Y-67381926D01*
X128107571Y-67381930D01*
X127961930Y-67527571D01*
X127961926Y-67527576D01*
X127840871Y-67694195D01*
X127800484Y-67773459D01*
X127752510Y-67824254D01*
X127684689Y-67841049D01*
X127618554Y-67818511D01*
X127579516Y-67773459D01*
X127539128Y-67694195D01*
X127418073Y-67527576D01*
X127418069Y-67527571D01*
X127272428Y-67381930D01*
X127272423Y-67381926D01*
X127105806Y-67260873D01*
X127105805Y-67260872D01*
X127105803Y-67260871D01*
X127048496Y-67231671D01*
X126922294Y-67167367D01*
X126726408Y-67103719D01*
X126550794Y-67075905D01*
X126522981Y-67071500D01*
X126317019Y-67071500D01*
X126292550Y-67075375D01*
X126113591Y-67103719D01*
X125917705Y-67167367D01*
X125734193Y-67260873D01*
X125567576Y-67381926D01*
X125567571Y-67381930D01*
X125421930Y-67527571D01*
X125421926Y-67527576D01*
X125300871Y-67694195D01*
X125260484Y-67773459D01*
X125212510Y-67824254D01*
X125144689Y-67841049D01*
X125078554Y-67818511D01*
X125039516Y-67773459D01*
X124999128Y-67694195D01*
X124878073Y-67527576D01*
X124878069Y-67527571D01*
X124732428Y-67381930D01*
X124732423Y-67381926D01*
X124565806Y-67260873D01*
X124565805Y-67260872D01*
X124565803Y-67260871D01*
X124508496Y-67231671D01*
X124382294Y-67167367D01*
X124186408Y-67103719D01*
X124010794Y-67075905D01*
X123982981Y-67071500D01*
X123777019Y-67071500D01*
X123752550Y-67075375D01*
X123573591Y-67103719D01*
X123377705Y-67167367D01*
X123194193Y-67260873D01*
X123027576Y-67381926D01*
X123027571Y-67381930D01*
X122881930Y-67527571D01*
X122881926Y-67527576D01*
X122760871Y-67694195D01*
X122720484Y-67773459D01*
X122672510Y-67824254D01*
X122604689Y-67841049D01*
X122538554Y-67818511D01*
X122499516Y-67773459D01*
X122459128Y-67694195D01*
X122338073Y-67527576D01*
X122338069Y-67527571D01*
X122192428Y-67381930D01*
X122192423Y-67381926D01*
X122025806Y-67260873D01*
X122025805Y-67260872D01*
X122025803Y-67260871D01*
X121968496Y-67231671D01*
X121842294Y-67167367D01*
X121646408Y-67103719D01*
X121470794Y-67075905D01*
X121442981Y-67071500D01*
X121237019Y-67071500D01*
X121212550Y-67075375D01*
X121033591Y-67103719D01*
X120837705Y-67167367D01*
X120654193Y-67260873D01*
X120487576Y-67381926D01*
X120487571Y-67381930D01*
X120341930Y-67527571D01*
X120341926Y-67527576D01*
X120220871Y-67694195D01*
X120180484Y-67773459D01*
X120132510Y-67824254D01*
X120064689Y-67841049D01*
X119998554Y-67818511D01*
X119959516Y-67773459D01*
X119919128Y-67694195D01*
X119798073Y-67527576D01*
X119798069Y-67527571D01*
X119652428Y-67381930D01*
X119652423Y-67381926D01*
X119485806Y-67260873D01*
X119485805Y-67260872D01*
X119485803Y-67260871D01*
X119428496Y-67231671D01*
X119302294Y-67167367D01*
X119106408Y-67103719D01*
X118930794Y-67075905D01*
X118902981Y-67071500D01*
X118697019Y-67071500D01*
X118672550Y-67075375D01*
X118493591Y-67103719D01*
X118297705Y-67167367D01*
X118114193Y-67260873D01*
X117947576Y-67381926D01*
X117947571Y-67381930D01*
X117801930Y-67527571D01*
X117801926Y-67527576D01*
X117680871Y-67694195D01*
X117635714Y-67782820D01*
X117587740Y-67833615D01*
X117519918Y-67850410D01*
X117453784Y-67827872D01*
X117414745Y-67782818D01*
X117371861Y-67698652D01*
X117339474Y-67654077D01*
X117339474Y-67654076D01*
X116660000Y-68333551D01*
X116660000Y-68327339D01*
X116632741Y-68225606D01*
X116580080Y-68134394D01*
X116505606Y-68059920D01*
X116414394Y-68007259D01*
X116312661Y-67980000D01*
X116306446Y-67980000D01*
X116985922Y-67300524D01*
X116985921Y-67300523D01*
X116941359Y-67268147D01*
X116941350Y-67268141D01*
X116759031Y-67175244D01*
X116564417Y-67112009D01*
X116362317Y-67080000D01*
X116157683Y-67080000D01*
X115955582Y-67112009D01*
X115760968Y-67175244D01*
X115578644Y-67268143D01*
X115534077Y-67300523D01*
X115534077Y-67300524D01*
X116213554Y-67980000D01*
X116207339Y-67980000D01*
X116105606Y-68007259D01*
X116014394Y-68059920D01*
X115939920Y-68134394D01*
X115887259Y-68225606D01*
X115860000Y-68327339D01*
X115860000Y-68333553D01*
X115180524Y-67654077D01*
X115180523Y-67654077D01*
X115148143Y-67698644D01*
X115055244Y-67880968D01*
X114992009Y-68075582D01*
X114960000Y-68277682D01*
X114960000Y-68482317D01*
X114992009Y-68684417D01*
X115055244Y-68879031D01*
X115148141Y-69061350D01*
X115148147Y-69061359D01*
X115180523Y-69105921D01*
X115180524Y-69105922D01*
X115860000Y-68426446D01*
X115860000Y-68432661D01*
X115887259Y-68534394D01*
X115939920Y-68625606D01*
X116014394Y-68700080D01*
X116105606Y-68752741D01*
X116207339Y-68780000D01*
X116213553Y-68780000D01*
X115534076Y-69459474D01*
X115578650Y-69491859D01*
X115760968Y-69584755D01*
X115955582Y-69647990D01*
X116157683Y-69680000D01*
X116362317Y-69680000D01*
X116564417Y-69647990D01*
X116759031Y-69584755D01*
X116941349Y-69491859D01*
X116985921Y-69459474D01*
X116306447Y-68780000D01*
X116312661Y-68780000D01*
X116414394Y-68752741D01*
X116505606Y-68700080D01*
X116580080Y-68625606D01*
X116632741Y-68534394D01*
X116660000Y-68432661D01*
X116660000Y-68426447D01*
X117339474Y-69105921D01*
X117371861Y-69061347D01*
X117371861Y-69061346D01*
X117414745Y-68977181D01*
X117462718Y-68926385D01*
X117530539Y-68909589D01*
X117596674Y-68932126D01*
X117635715Y-68977180D01*
X117640485Y-68986541D01*
X117678602Y-69061350D01*
X117680873Y-69065806D01*
X117801926Y-69232423D01*
X117801930Y-69232428D01*
X117947571Y-69378069D01*
X117947576Y-69378073D01*
X118059616Y-69459474D01*
X118114197Y-69499129D01*
X118231128Y-69558709D01*
X118297705Y-69592632D01*
X118297707Y-69592632D01*
X118297710Y-69592634D01*
X118402707Y-69626749D01*
X118493591Y-69656280D01*
X118521296Y-69660668D01*
X118697019Y-69688500D01*
X118697020Y-69688500D01*
X118902980Y-69688500D01*
X118902981Y-69688500D01*
X119106408Y-69656280D01*
X119302290Y-69592634D01*
X119485803Y-69499129D01*
X119652430Y-69378068D01*
X119798068Y-69232430D01*
X119919129Y-69065803D01*
X119959515Y-68986540D01*
X120007490Y-68935745D01*
X120075311Y-68918950D01*
X120141446Y-68941487D01*
X120180484Y-68986540D01*
X120218602Y-69061350D01*
X120220873Y-69065806D01*
X120341926Y-69232423D01*
X120341930Y-69232428D01*
X120487571Y-69378069D01*
X120487576Y-69378073D01*
X120599616Y-69459474D01*
X120654197Y-69499129D01*
X120771128Y-69558709D01*
X120837705Y-69592632D01*
X120837707Y-69592632D01*
X120837710Y-69592634D01*
X120942707Y-69626749D01*
X121033591Y-69656280D01*
X121061296Y-69660668D01*
X121237019Y-69688500D01*
X121237020Y-69688500D01*
X121442980Y-69688500D01*
X121442981Y-69688500D01*
X121646408Y-69656280D01*
X121842290Y-69592634D01*
X122025803Y-69499129D01*
X122192430Y-69378068D01*
X122338068Y-69232430D01*
X122459129Y-69065803D01*
X122499515Y-68986540D01*
X122547490Y-68935745D01*
X122615311Y-68918950D01*
X122681446Y-68941487D01*
X122720484Y-68986540D01*
X122758602Y-69061350D01*
X122760873Y-69065806D01*
X122881926Y-69232423D01*
X122881930Y-69232428D01*
X123027571Y-69378069D01*
X123027576Y-69378073D01*
X123139616Y-69459474D01*
X123194197Y-69499129D01*
X123311128Y-69558709D01*
X123377705Y-69592632D01*
X123377707Y-69592632D01*
X123377710Y-69592634D01*
X123482707Y-69626749D01*
X123573591Y-69656280D01*
X123601296Y-69660668D01*
X123777019Y-69688500D01*
X123777020Y-69688500D01*
X123982980Y-69688500D01*
X123982981Y-69688500D01*
X124186408Y-69656280D01*
X124382290Y-69592634D01*
X124565803Y-69499129D01*
X124732430Y-69378068D01*
X124878068Y-69232430D01*
X124999129Y-69065803D01*
X125039515Y-68986540D01*
X125087490Y-68935745D01*
X125155311Y-68918950D01*
X125221446Y-68941487D01*
X125260484Y-68986540D01*
X125298602Y-69061350D01*
X125300873Y-69065806D01*
X125421926Y-69232423D01*
X125421930Y-69232428D01*
X125567571Y-69378069D01*
X125567576Y-69378073D01*
X125679616Y-69459474D01*
X125734197Y-69499129D01*
X125851128Y-69558709D01*
X125917705Y-69592632D01*
X125917707Y-69592632D01*
X125917710Y-69592634D01*
X126022707Y-69626749D01*
X126113591Y-69656280D01*
X126141296Y-69660668D01*
X126317019Y-69688500D01*
X126317020Y-69688500D01*
X126522980Y-69688500D01*
X126522981Y-69688500D01*
X126726408Y-69656280D01*
X126922290Y-69592634D01*
X127105803Y-69499129D01*
X127272430Y-69378068D01*
X127418068Y-69232430D01*
X127539129Y-69065803D01*
X127579515Y-68986540D01*
X127627490Y-68935745D01*
X127695311Y-68918950D01*
X127761446Y-68941487D01*
X127800484Y-68986540D01*
X127838602Y-69061350D01*
X127840873Y-69065806D01*
X127961926Y-69232423D01*
X127961930Y-69232428D01*
X128107571Y-69378069D01*
X128107576Y-69378073D01*
X128219616Y-69459474D01*
X128274197Y-69499129D01*
X128391128Y-69558709D01*
X128457705Y-69592632D01*
X128457707Y-69592632D01*
X128457710Y-69592634D01*
X128562707Y-69626749D01*
X128653591Y-69656280D01*
X128681296Y-69660668D01*
X128857019Y-69688500D01*
X128857020Y-69688500D01*
X129062980Y-69688500D01*
X129062981Y-69688500D01*
X129266408Y-69656280D01*
X129462290Y-69592634D01*
X129645803Y-69499129D01*
X129812430Y-69378068D01*
X129958068Y-69232430D01*
X130079129Y-69065803D01*
X130119515Y-68986540D01*
X130167490Y-68935745D01*
X130235311Y-68918950D01*
X130301446Y-68941487D01*
X130340484Y-68986540D01*
X130378602Y-69061350D01*
X130380873Y-69065806D01*
X130501926Y-69232423D01*
X130501930Y-69232428D01*
X130647571Y-69378069D01*
X130647576Y-69378073D01*
X130759616Y-69459474D01*
X130814197Y-69499129D01*
X130931128Y-69558709D01*
X130997705Y-69592632D01*
X130997707Y-69592632D01*
X130997710Y-69592634D01*
X131102707Y-69626749D01*
X131193591Y-69656280D01*
X131221296Y-69660668D01*
X131397019Y-69688500D01*
X131397020Y-69688500D01*
X131602965Y-69688500D01*
X131602981Y-69688500D01*
X131602996Y-69688497D01*
X131603561Y-69688453D01*
X131603785Y-69688500D01*
X131607853Y-69688500D01*
X131607853Y-69689353D01*
X131671941Y-69702803D01*
X131700996Y-69724388D01*
X132804607Y-70828000D01*
X132804610Y-70828003D01*
X132937026Y-70916480D01*
X132937032Y-70916484D01*
X132965939Y-70928457D01*
X132997969Y-70941725D01*
X132997974Y-70941726D01*
X132997978Y-70941728D01*
X133084169Y-70977430D01*
X133240365Y-71008499D01*
X133240369Y-71008500D01*
X133240370Y-71008500D01*
X145719631Y-71008500D01*
X145719632Y-71008499D01*
X145875831Y-70977430D01*
X145949399Y-70946956D01*
X145954331Y-70944912D01*
X145990599Y-70941020D01*
X146023770Y-70937452D01*
X146023783Y-70937458D01*
X146023800Y-70937457D01*
X146055074Y-70953118D01*
X146086252Y-70968722D01*
X146086260Y-70968736D01*
X146086274Y-70968743D01*
X146103852Y-70998381D01*
X146121908Y-71028809D01*
X146121907Y-71028824D01*
X146121916Y-71028839D01*
X146120655Y-71063950D01*
X146119419Y-71098634D01*
X146119409Y-71098649D01*
X146119409Y-71098663D01*
X146119337Y-71098765D01*
X146089443Y-71147164D01*
X145181427Y-72055181D01*
X145120104Y-72088666D01*
X145093746Y-72091500D01*
X134520365Y-72091500D01*
X134364176Y-72122567D01*
X134364176Y-72122568D01*
X134364173Y-72122569D01*
X134364169Y-72122570D01*
X134290600Y-72153043D01*
X134290598Y-72153043D01*
X134217034Y-72183514D01*
X134217025Y-72183519D01*
X134084611Y-72271996D01*
X134084607Y-72271999D01*
X131700996Y-74655610D01*
X131639673Y-74689095D01*
X131607853Y-74691259D01*
X131607853Y-74691500D01*
X131604312Y-74691500D01*
X131603606Y-74691548D01*
X131602995Y-74691500D01*
X131602981Y-74691500D01*
X131397019Y-74691500D01*
X131372550Y-74695375D01*
X131193591Y-74723719D01*
X130997705Y-74787367D01*
X130814193Y-74880873D01*
X130647576Y-75001926D01*
X130647571Y-75001930D01*
X130501930Y-75147571D01*
X130501926Y-75147576D01*
X130380871Y-75314195D01*
X130340484Y-75393459D01*
X130292510Y-75444254D01*
X130224689Y-75461049D01*
X130158554Y-75438511D01*
X130119516Y-75393459D01*
X130079128Y-75314195D01*
X129958073Y-75147576D01*
X129958069Y-75147571D01*
X129812428Y-75001930D01*
X129812423Y-75001926D01*
X129645806Y-74880873D01*
X129645805Y-74880872D01*
X129645803Y-74880871D01*
X129587119Y-74850970D01*
X129462294Y-74787367D01*
X129266408Y-74723719D01*
X129090794Y-74695905D01*
X129062981Y-74691500D01*
X128857019Y-74691500D01*
X128832550Y-74695375D01*
X128653591Y-74723719D01*
X128457705Y-74787367D01*
X128274193Y-74880873D01*
X128107576Y-75001926D01*
X128107571Y-75001930D01*
X127961930Y-75147571D01*
X127961926Y-75147576D01*
X127840871Y-75314195D01*
X127800484Y-75393459D01*
X127752510Y-75444254D01*
X127684689Y-75461049D01*
X127618554Y-75438511D01*
X127579516Y-75393459D01*
X127539128Y-75314195D01*
X127418073Y-75147576D01*
X127418069Y-75147571D01*
X127272428Y-75001930D01*
X127272423Y-75001926D01*
X127105806Y-74880873D01*
X127105805Y-74880872D01*
X127105803Y-74880871D01*
X127047119Y-74850970D01*
X126922294Y-74787367D01*
X126726408Y-74723719D01*
X126550794Y-74695905D01*
X126522981Y-74691500D01*
X126317019Y-74691500D01*
X126292550Y-74695375D01*
X126113591Y-74723719D01*
X125917705Y-74787367D01*
X125734193Y-74880873D01*
X125567576Y-75001926D01*
X125567571Y-75001930D01*
X125421930Y-75147571D01*
X125421926Y-75147576D01*
X125300871Y-75314195D01*
X125260484Y-75393459D01*
X125212510Y-75444254D01*
X125144689Y-75461049D01*
X125078554Y-75438511D01*
X125039516Y-75393459D01*
X124999128Y-75314195D01*
X124878073Y-75147576D01*
X124878069Y-75147571D01*
X124732428Y-75001930D01*
X124732423Y-75001926D01*
X124565806Y-74880873D01*
X124565805Y-74880872D01*
X124565803Y-74880871D01*
X124507119Y-74850970D01*
X124382294Y-74787367D01*
X124186408Y-74723719D01*
X124010794Y-74695905D01*
X123982981Y-74691500D01*
X123777019Y-74691500D01*
X123752550Y-74695375D01*
X123573591Y-74723719D01*
X123377705Y-74787367D01*
X123194193Y-74880873D01*
X123027576Y-75001926D01*
X123027571Y-75001930D01*
X122881930Y-75147571D01*
X122881926Y-75147576D01*
X122760871Y-75314195D01*
X122720484Y-75393459D01*
X122672510Y-75444254D01*
X122604689Y-75461049D01*
X122538554Y-75438511D01*
X122499516Y-75393459D01*
X122459128Y-75314195D01*
X122338073Y-75147576D01*
X122338069Y-75147571D01*
X122192428Y-75001930D01*
X122192423Y-75001926D01*
X122025806Y-74880873D01*
X122025805Y-74880872D01*
X122025803Y-74880871D01*
X121967119Y-74850970D01*
X121842294Y-74787367D01*
X121646408Y-74723719D01*
X121470794Y-74695905D01*
X121442981Y-74691500D01*
X121237019Y-74691500D01*
X121212550Y-74695375D01*
X121033591Y-74723719D01*
X120837705Y-74787367D01*
X120654193Y-74880873D01*
X120487576Y-75001926D01*
X120487571Y-75001930D01*
X120341930Y-75147571D01*
X120341926Y-75147576D01*
X120220871Y-75314195D01*
X120180484Y-75393459D01*
X120132510Y-75444254D01*
X120064689Y-75461049D01*
X119998554Y-75438511D01*
X119959516Y-75393459D01*
X119919128Y-75314195D01*
X119798073Y-75147576D01*
X119798069Y-75147571D01*
X119652428Y-75001930D01*
X119652423Y-75001926D01*
X119485806Y-74880873D01*
X119485805Y-74880872D01*
X119485803Y-74880871D01*
X119427119Y-74850970D01*
X119302294Y-74787367D01*
X119106408Y-74723719D01*
X118930794Y-74695905D01*
X118902981Y-74691500D01*
X118697019Y-74691500D01*
X118672550Y-74695375D01*
X118493591Y-74723719D01*
X118297705Y-74787367D01*
X118114193Y-74880873D01*
X117947576Y-75001926D01*
X117947571Y-75001930D01*
X117801930Y-75147571D01*
X117801926Y-75147576D01*
X117742669Y-75229137D01*
X117687339Y-75271803D01*
X117617726Y-75277782D01*
X117555931Y-75245176D01*
X117524645Y-75195255D01*
X117508846Y-75147576D01*
X117502115Y-75127262D01*
X117409030Y-74976348D01*
X117283652Y-74850970D01*
X117132738Y-74757885D01*
X117132735Y-74757884D01*
X116964427Y-74702113D01*
X116860545Y-74691500D01*
X115659462Y-74691500D01*
X115659446Y-74691501D01*
X115555572Y-74702113D01*
X115387264Y-74757884D01*
X115387259Y-74757886D01*
X115236346Y-74850971D01*
X115110971Y-74976346D01*
X115017886Y-75127259D01*
X115017884Y-75127264D01*
X114962113Y-75295572D01*
X114951500Y-75399447D01*
X114951500Y-76600537D01*
X114951501Y-76600553D01*
X114962113Y-76704427D01*
X115017884Y-76872735D01*
X115017886Y-76872740D01*
X115053142Y-76929898D01*
X115110970Y-77023652D01*
X115236348Y-77149030D01*
X115387262Y-77242115D01*
X115555574Y-77297887D01*
X115659455Y-77308500D01*
X116860544Y-77308499D01*
X116964426Y-77297887D01*
X117132738Y-77242115D01*
X117283652Y-77149030D01*
X117409030Y-77023652D01*
X117502115Y-76872738D01*
X117524646Y-76804742D01*
X117564417Y-76747299D01*
X117628932Y-76720475D01*
X117697708Y-76732789D01*
X117742669Y-76770862D01*
X117801926Y-76852424D01*
X117947571Y-76998069D01*
X117947576Y-76998073D01*
X118059616Y-77079474D01*
X118114197Y-77119129D01*
X118231128Y-77178709D01*
X118297705Y-77212632D01*
X118297707Y-77212632D01*
X118297710Y-77212634D01*
X118388437Y-77242113D01*
X118493591Y-77276280D01*
X118595305Y-77292390D01*
X118697019Y-77308500D01*
X118697020Y-77308500D01*
X118902980Y-77308500D01*
X118902981Y-77308500D01*
X119106408Y-77276280D01*
X119302290Y-77212634D01*
X119485803Y-77119129D01*
X119652430Y-76998068D01*
X119798068Y-76852430D01*
X119919129Y-76685803D01*
X119959515Y-76606540D01*
X120007490Y-76555745D01*
X120075311Y-76538950D01*
X120141446Y-76561487D01*
X120180484Y-76606540D01*
X120218602Y-76681350D01*
X120220873Y-76685806D01*
X120341926Y-76852423D01*
X120341930Y-76852428D01*
X120487571Y-76998069D01*
X120487576Y-76998073D01*
X120599616Y-77079474D01*
X120654197Y-77119129D01*
X120771128Y-77178709D01*
X120837705Y-77212632D01*
X120837707Y-77212632D01*
X120837710Y-77212634D01*
X120928437Y-77242113D01*
X121033591Y-77276280D01*
X121135305Y-77292390D01*
X121237019Y-77308500D01*
X121237020Y-77308500D01*
X121442980Y-77308500D01*
X121442981Y-77308500D01*
X121646408Y-77276280D01*
X121842290Y-77212634D01*
X122025803Y-77119129D01*
X122192430Y-76998068D01*
X122338068Y-76852430D01*
X122459129Y-76685803D01*
X122499515Y-76606540D01*
X122547490Y-76555745D01*
X122615311Y-76538950D01*
X122681446Y-76561487D01*
X122720484Y-76606540D01*
X122758602Y-76681350D01*
X122760873Y-76685806D01*
X122881926Y-76852423D01*
X122881930Y-76852428D01*
X123027571Y-76998069D01*
X123027576Y-76998073D01*
X123139616Y-77079474D01*
X123194197Y-77119129D01*
X123311128Y-77178709D01*
X123377705Y-77212632D01*
X123377707Y-77212632D01*
X123377710Y-77212634D01*
X123468437Y-77242113D01*
X123573591Y-77276280D01*
X123675305Y-77292390D01*
X123777019Y-77308500D01*
X123777020Y-77308500D01*
X123982965Y-77308500D01*
X123982981Y-77308500D01*
X123982996Y-77308497D01*
X123983561Y-77308453D01*
X123983785Y-77308500D01*
X123987853Y-77308500D01*
X123987853Y-77309353D01*
X124051941Y-77322803D01*
X124080996Y-77344388D01*
X125064607Y-78328000D01*
X125064610Y-78328003D01*
X125197026Y-78416480D01*
X125197032Y-78416484D01*
X125225761Y-78428383D01*
X125270602Y-78446957D01*
X125344169Y-78477430D01*
X125500365Y-78508499D01*
X125500369Y-78508500D01*
X125838381Y-78508500D01*
X125905420Y-78528185D01*
X125951175Y-78580989D01*
X125961119Y-78650147D01*
X125932094Y-78713703D01*
X125894676Y-78742985D01*
X125707990Y-78838106D01*
X125534993Y-78963796D01*
X125383796Y-79114993D01*
X125258105Y-79287991D01*
X125255727Y-79291873D01*
X125203914Y-79338748D01*
X125134984Y-79350169D01*
X125070822Y-79322512D01*
X125044273Y-79291873D01*
X125041894Y-79287991D01*
X125041891Y-79287987D01*
X124916206Y-79114996D01*
X124765004Y-78963794D01*
X124592009Y-78838106D01*
X124401483Y-78741027D01*
X124401480Y-78741026D01*
X124198117Y-78674951D01*
X124078099Y-78655942D01*
X123986916Y-78641500D01*
X123773084Y-78641500D01*
X123702684Y-78652650D01*
X123561882Y-78674951D01*
X123358519Y-78741026D01*
X123358516Y-78741027D01*
X123167990Y-78838106D01*
X122994993Y-78963796D01*
X122843796Y-79114993D01*
X122718105Y-79287991D01*
X122715727Y-79291873D01*
X122663914Y-79338748D01*
X122594984Y-79350169D01*
X122530822Y-79322512D01*
X122504273Y-79291873D01*
X122501894Y-79287991D01*
X122501891Y-79287987D01*
X122376206Y-79114996D01*
X122225004Y-78963794D01*
X122052009Y-78838106D01*
X121861483Y-78741027D01*
X121861480Y-78741026D01*
X121658117Y-78674951D01*
X121538099Y-78655942D01*
X121446916Y-78641500D01*
X121233084Y-78641500D01*
X121162684Y-78652650D01*
X121021882Y-78674951D01*
X120818519Y-78741026D01*
X120818516Y-78741027D01*
X120627990Y-78838106D01*
X120454993Y-78963796D01*
X120303796Y-79114993D01*
X120178105Y-79287991D01*
X120175727Y-79291873D01*
X120123914Y-79338748D01*
X120054984Y-79350169D01*
X119990822Y-79322512D01*
X119964273Y-79291873D01*
X119961894Y-79287991D01*
X119961891Y-79287987D01*
X119836206Y-79114996D01*
X119685004Y-78963794D01*
X119512009Y-78838106D01*
X119321483Y-78741027D01*
X119321480Y-78741026D01*
X119118117Y-78674951D01*
X118998099Y-78655942D01*
X118906916Y-78641500D01*
X118693084Y-78641500D01*
X118622684Y-78652650D01*
X118481882Y-78674951D01*
X118278519Y-78741026D01*
X118278516Y-78741027D01*
X118087990Y-78838106D01*
X117914997Y-78963793D01*
X117809818Y-79068972D01*
X117748495Y-79102456D01*
X117678803Y-79097472D01*
X117622870Y-79055600D01*
X117605958Y-79024629D01*
X117560889Y-78903796D01*
X117473261Y-78786739D01*
X117356204Y-78699111D01*
X117345209Y-78695010D01*
X117219203Y-78648011D01*
X117158654Y-78641500D01*
X117158638Y-78641500D01*
X115361362Y-78641500D01*
X115361345Y-78641500D01*
X115300797Y-78648011D01*
X115300795Y-78648011D01*
X115163795Y-78699111D01*
X115046739Y-78786739D01*
X114959111Y-78903795D01*
X114908011Y-79040795D01*
X114908011Y-79040797D01*
X114901500Y-79101345D01*
X100075500Y-79101345D01*
X100075500Y-56750000D01*
X139643391Y-56750000D01*
X140604314Y-56750000D01*
X140599920Y-56754394D01*
X140547259Y-56845606D01*
X140520000Y-56947339D01*
X140520000Y-57052661D01*
X140547259Y-57154394D01*
X140599920Y-57245606D01*
X140604314Y-57250000D01*
X139643391Y-57250000D01*
X139652009Y-57304413D01*
X139715244Y-57499029D01*
X139808140Y-57681349D01*
X139928417Y-57846894D01*
X139928417Y-57846895D01*
X140073104Y-57991582D01*
X140238650Y-58111859D01*
X140420968Y-58204754D01*
X140615578Y-58267988D01*
X140670000Y-58276607D01*
X140670000Y-57315686D01*
X140674394Y-57320080D01*
X140765606Y-57372741D01*
X140867339Y-57400000D01*
X140972661Y-57400000D01*
X141074394Y-57372741D01*
X141165606Y-57320080D01*
X141170000Y-57315686D01*
X141170000Y-58276606D01*
X141224421Y-58267988D01*
X141419031Y-58204754D01*
X141601349Y-58111859D01*
X141766894Y-57991582D01*
X141766895Y-57991582D01*
X141911582Y-57846895D01*
X141911582Y-57846894D01*
X142031859Y-57681349D01*
X142124755Y-57499029D01*
X142187990Y-57304413D01*
X142196609Y-57250000D01*
X141235686Y-57250000D01*
X141240080Y-57245606D01*
X141292741Y-57154394D01*
X141320000Y-57052661D01*
X141320000Y-56947339D01*
X141292741Y-56845606D01*
X141240080Y-56754394D01*
X141235686Y-56750000D01*
X142196609Y-56750000D01*
X142187990Y-56695586D01*
X142124755Y-56500970D01*
X142031859Y-56318650D01*
X141911582Y-56153105D01*
X141911582Y-56153104D01*
X141766895Y-56008417D01*
X141601349Y-55888140D01*
X141419029Y-55795244D01*
X141224413Y-55732009D01*
X141170000Y-55723390D01*
X141170000Y-56684314D01*
X141165606Y-56679920D01*
X141074394Y-56627259D01*
X140972661Y-56600000D01*
X140867339Y-56600000D01*
X140765606Y-56627259D01*
X140674394Y-56679920D01*
X140670000Y-56684314D01*
X140670000Y-55723390D01*
X140615586Y-55732009D01*
X140420970Y-55795244D01*
X140238650Y-55888140D01*
X140073105Y-56008417D01*
X140073104Y-56008417D01*
X139928417Y-56153104D01*
X139928417Y-56153105D01*
X139808140Y-56318650D01*
X139715244Y-56500970D01*
X139652009Y-56695586D01*
X139643391Y-56750000D01*
X100075500Y-56750000D01*
X100075500Y-49074038D01*
X113639500Y-49074038D01*
X113639500Y-49325961D01*
X113678910Y-49574785D01*
X113756760Y-49814383D01*
X113871132Y-50038848D01*
X114019201Y-50242649D01*
X114019205Y-50242654D01*
X114197345Y-50420794D01*
X114197350Y-50420798D01*
X114307587Y-50500889D01*
X114401155Y-50568870D01*
X114544184Y-50641747D01*
X114625616Y-50683239D01*
X114625618Y-50683239D01*
X114625621Y-50683241D01*
X114865215Y-50761090D01*
X115114038Y-50800500D01*
X115114039Y-50800500D01*
X115365961Y-50800500D01*
X115365962Y-50800500D01*
X115614785Y-50761090D01*
X115854379Y-50683241D01*
X116078845Y-50568870D01*
X116282656Y-50420793D01*
X116460793Y-50242656D01*
X116608870Y-50038845D01*
X116723241Y-49814379D01*
X116801090Y-49574785D01*
X116840500Y-49325962D01*
X116840500Y-49074038D01*
X116801090Y-48825215D01*
X116723241Y-48585621D01*
X116723239Y-48585618D01*
X116723239Y-48585616D01*
X116673498Y-48487994D01*
X116608870Y-48361155D01*
X116562602Y-48297472D01*
X116460798Y-48157350D01*
X116460794Y-48157345D01*
X116282654Y-47979205D01*
X116282649Y-47979201D01*
X116078848Y-47831132D01*
X116078847Y-47831131D01*
X116078845Y-47831130D01*
X116008747Y-47795413D01*
X115854383Y-47716760D01*
X115614785Y-47638910D01*
X115365962Y-47599500D01*
X115114038Y-47599500D01*
X114989626Y-47619205D01*
X114865214Y-47638910D01*
X114625616Y-47716760D01*
X114401151Y-47831132D01*
X114197350Y-47979201D01*
X114197345Y-47979205D01*
X114019205Y-48157345D01*
X114019201Y-48157350D01*
X113871132Y-48361151D01*
X113756760Y-48585616D01*
X113678910Y-48825214D01*
X113639500Y-49074038D01*
X100075500Y-49074038D01*
X100075500Y-47428092D01*
X100076097Y-47415938D01*
X100087494Y-47300222D01*
X100092234Y-47276389D01*
X100124216Y-47170959D01*
X100133508Y-47148526D01*
X100185442Y-47051365D01*
X100198938Y-47031166D01*
X100268827Y-46946006D01*
X100286006Y-46928827D01*
X100371166Y-46858938D01*
X100391365Y-46845442D01*
X100488526Y-46793508D01*
X100510959Y-46784216D01*
X100616389Y-46752234D01*
X100640220Y-46747494D01*
X100755939Y-46736097D01*
X100768093Y-46735500D01*
X100786531Y-46735500D01*
X163417365Y-46735500D01*
X163484404Y-46755185D01*
G37*
%TD.AperFunction*%
%TD*%
M02*
